<svg width="30" height="24" viewBox="0 0 30 24" fill="none" xmlns="http://www.w3.org/2000/svg">
<path d="M22.3333 9.16902L24.8333 4.83654C25 4.58659 24.9167 4.25333 24.6667 4.08669C24.4167 3.92006 24.0833 4.00338 23.9167 4.25333L21.4167 8.66912C19.5 7.75263 17.3333 7.25273 15 7.25273C12.6667 7.25273 10.5 7.75263 8.58333 8.66912L6.08333 4.25333C5.91667 4.00338 5.58333 3.92006 5.33333 4.08669C5.08333 4.25333 5 4.58659 5.16667 4.83654L7.66667 9.16902C3.41667 11.5019 0.416667 15.8344 0 21H30C29.5833 15.8344 26.6667 11.5019 22.3333 9.16902ZM7.66667 16.4176C6.83333 16.4176 6.16667 15.751 6.16667 14.9179C6.16667 14.0847 6.83333 13.4182 7.66667 13.4182C8.5 13.4182 9.16667 14.0847 9.16667 14.9179C9.16667 15.751 8.5 16.4176 7.66667 16.4176ZM20.75 16.4176C19.9167 16.4176 19.25 15.751 19.25 14.9179C19.25 14.0847 19.9167 13.4182 20.75 13.4182C21.5833 13.4182 22.25 14.0847 22.25 14.9179C22.25 15.751 21.5833 16.4176 20.75 16.4176Z" fill="url(#paint0_linear_546_9369)"/>
<defs>
<linearGradient id="paint0_linear_546_9369" x1="0" y1="12.5" x2="30" y2="12.5" gradientUnits="userSpaceOnUse">
<stop stop-color="#742AA7"/>
<stop offset="1" stop-color="#0D3E93"/>
</linearGradient>
</defs>
</svg>
