<svg width="19" height="23" viewBox="0 0 19 23" fill="none" xmlns="http://www.w3.org/2000/svg">
<path d="M13.7012 0C11.2032 0.908367 9.23506 1.74104 9.53785 5.60159C12.0359 4.99602 14.2311 3.48207 13.7012 0ZM5.98008 5.14741C3.55777 5.14741 0 7.34263 0 11.3546C0 17.0319 3.78486 22.7092 5.98008 22.7092C7.56972 22.7092 8.93227 21.6494 10.0677 21.6494C11.1275 21.6494 12.2629 22.7092 13.8526 22.7092C16.0478 22.7092 18.4701 19.4542 19 16.502C17.1076 15.1394 15.745 14.3068 15.745 11.8845C15.745 10.2948 17.1076 8.62948 18.6972 7.26693C17.8645 6.20717 16.2749 5.07171 14.6096 5.07171C12.9442 5.07171 11.2789 6.35857 9.99203 6.43426C8.93227 6.50996 7.56972 5.14741 5.98008 5.14741Z" fill="url(#paint0_linear_546_9360)"/>
<defs>
<linearGradient id="paint0_linear_546_9360" x1="0" y1="11.3546" x2="19" y2="11.3546" gradientUnits="userSpaceOnUse">
<stop stop-color="#742AA7"/>
<stop offset="1" stop-color="#0D3E93"/>
</linearGradient>
</defs>
</svg>
