<svg width="30" height="24" viewBox="0 0 30 24" fill="none" xmlns="http://www.w3.org/2000/svg">
<path fill-rule="evenodd" clip-rule="evenodd" d="M9.5 5.5C10.1 5.5 10.5 5.1 10.5 4.5C10.5 3.9 10.1 3.5 9.5 3.5C8.9 3.5 8.5 3.9 8.5 4.5C8.5 5.1 8.9 5.5 9.5 5.5ZM6.5 5.5C7.1 5.5 7.5 5.1 7.5 4.5C7.5 3.9 7.1 3.5 6.5 3.5C5.9 3.5 5.5 3.9 5.5 4.5C5.5 5.1 5.9 5.5 6.5 5.5ZM3.5 5.5C4.1 5.5 4.5 5.1 4.5 4.5C4.5 3.9 4.1 3.5 3.5 3.5C2.9 3.5 2.5 3.9 2.5 4.5C2.5 5.1 2.9 5.5 3.5 5.5ZM1 21.4V3C1 2.4 1.4 2 1.8 2H22.2C22.7 2 23 2.4 23 3V21.4C23 21.7 22.6 22 22.2 22H1.8C1.4 22 1 21.8 1 21.4ZM2 21H22V7H2V21Z" fill="white"/>
</svg>
