<svg width="677" height="598" viewBox="0 0 677 598" fill="none" xmlns="http://www.w3.org/2000/svg">
<path d="M170.224 214.439H63.2168L174.932 316.976H223.299V262.587L170.224 214.439Z" fill="#D6D6D6"/>
<g filter="url(#filter0_d_559_3319)">
<rect x="222.67" y="59.5879" width="279.674" height="268.247" rx="17.1678" fill="#FBFBFC" shape-rendering="crispEdges"/>
<g filter="url(#filter1_d_559_3319)">
<rect x="222.67" y="59.5879" width="279.674" height="268.247" rx="12.029" fill="white"/>
</g>
<path d="M222.67 71.6169C222.67 64.9735 228.055 59.5879 234.699 59.5879H287.025V327.834H234.699C228.055 327.834 222.67 322.449 222.67 315.805V71.6169Z" fill="#49546B"/>
<path d="M231.691 122.74C231.691 121.079 233.038 119.732 234.699 119.732H274.996C276.657 119.732 278.003 121.079 278.003 122.74C278.003 124.401 276.657 125.747 274.996 125.747H234.699C233.038 125.747 231.691 124.401 231.691 122.74Z" fill="white" fill-opacity="0.2"/>
<path d="M231.691 136.574C231.691 134.913 233.038 133.566 234.699 133.566H274.996C276.657 133.566 278.003 134.913 278.003 136.574C278.003 138.235 276.657 139.581 274.996 139.581H234.699C233.038 139.581 231.691 138.235 231.691 136.574Z" fill="white" fill-opacity="0.2"/>
<path d="M231.691 150.407C231.691 148.746 233.038 147.399 234.699 147.399H274.996C276.657 147.399 278.003 148.746 278.003 150.407C278.003 152.068 276.657 153.414 274.996 153.414H234.699C233.038 153.414 231.691 152.068 231.691 150.407Z" fill="white" fill-opacity="0.2"/>
<path d="M231.691 164.24C231.691 162.579 233.038 161.232 234.699 161.232H274.996C276.657 161.232 278.003 162.579 278.003 164.24C278.003 165.901 276.657 167.247 274.996 167.247H234.699C233.038 167.247 231.691 165.901 231.691 164.24Z" fill="white" fill-opacity="0.2"/>
<path d="M231.691 178.074C231.691 176.413 233.038 175.066 234.699 175.066H274.996C276.657 175.066 278.003 176.413 278.003 178.074C278.003 179.735 276.657 181.081 274.996 181.081H234.699C233.038 181.081 231.691 179.735 231.691 178.074Z" fill="white" fill-opacity="0.2"/>
<path d="M249.133 103.422V102.364C249.133 101.738 249.644 101.221 250.276 101.221C251.364 101.221 251.809 100.451 251.262 99.5067C250.949 98.9654 251.136 98.2617 251.683 97.9489L252.723 97.3535C253.199 97.0708 253.812 97.2392 254.095 97.7144L254.161 97.8286C254.702 98.7729 255.592 98.7729 256.14 97.8286L256.206 97.7144C256.489 97.2392 257.102 97.0708 257.577 97.3535L258.618 97.9489C259.165 98.2617 259.351 98.9654 259.039 99.5067C258.491 100.451 258.936 101.221 260.025 101.221C260.651 101.221 261.168 101.732 261.168 102.364V103.422C261.168 104.048 260.657 104.565 260.025 104.565C258.936 104.565 258.491 105.335 259.039 106.279C259.351 106.826 259.165 107.524 258.618 107.837L257.577 108.432C257.102 108.715 256.489 108.546 256.206 108.071L256.14 107.957C255.598 107.013 254.708 107.013 254.161 107.957L254.095 108.071C253.812 108.546 253.199 108.715 252.723 108.432L251.683 107.837C251.421 107.686 251.229 107.437 251.15 107.145C251.071 106.853 251.112 106.541 251.262 106.279C251.809 105.335 251.364 104.565 250.276 104.565C249.644 104.565 249.133 104.048 249.133 103.422Z" fill="white" fill-opacity="0.2"/>
<path d="M255.148 104.697C255.627 104.697 256.086 104.506 256.424 104.168C256.762 103.83 256.952 103.371 256.952 102.892C256.952 102.414 256.762 101.955 256.424 101.616C256.086 101.278 255.627 101.088 255.148 101.088C254.67 101.088 254.211 101.278 253.872 101.616C253.534 101.955 253.344 102.414 253.344 102.892C253.344 103.371 253.534 103.83 253.872 104.168C254.211 104.506 254.67 104.697 255.148 104.697Z" stroke="#49546B" stroke-width="0.902175" stroke-miterlimit="10" stroke-linecap="round" stroke-linejoin="round"/>
</g>
<rect x="174.666" y="317.363" width="283.576" height="272.001" fill="#F7F7F7"/>
<rect x="458.242" y="317.363" width="96.0685" height="272.001" fill="#EBEBEB"/>
<path d="M653.322 225.426H559.04L457.621 317.478H553.406L653.322 225.426Z" fill="#D6D6D6"/>
<g clip-path="url(#clip0_559_3319)">
<path d="M274.096 466.629V443.68C274.096 442.887 274.578 442.398 275.361 442.398H292.232C304.764 442.398 309.765 446.122 309.765 455.155C309.765 464.249 304.825 467.911 292.232 467.911H275.361C274.578 467.911 274.096 467.422 274.096 466.629ZM291.629 462.54C302.475 462.54 304.162 459.854 304.162 455.155C304.162 450.455 302.475 447.769 291.629 447.769H280C279.759 447.769 279.639 447.891 279.639 448.136V462.112C279.639 462.357 279.759 462.479 280 462.479H291.629V462.54Z" fill="#04022A"/>
<path d="M313.02 458.635C313.02 452.714 316.635 449.113 325.974 449.113C335.313 449.113 338.989 452.714 338.989 458.635C338.928 464.616 335.373 468.156 325.974 468.156C316.635 468.156 313.02 464.616 313.02 458.635ZM333.807 458.635C333.807 454.789 331.517 453.447 325.974 453.447C320.491 453.447 318.141 454.789 318.141 458.635C318.141 462.541 320.431 463.883 325.974 463.883C331.517 463.883 333.807 462.541 333.807 458.635Z" fill="#04022A"/>
<path d="M368.57 458.633C368.51 464.737 365.859 468.155 356.459 468.155C351.338 468.155 348.868 467.117 347.602 465.286V466.934C347.602 467.544 347.301 467.85 346.698 467.85H343.445C342.842 467.85 342.541 467.544 342.541 466.934V443.314C342.541 442.704 342.842 442.398 343.445 442.398H346.698C347.301 442.398 347.602 442.704 347.602 443.314V451.859C348.868 450.089 351.398 449.112 356.459 449.112C365.859 449.112 368.631 452.53 368.57 458.633ZM363.449 458.633C363.449 454.483 360.918 453.446 355.375 453.446C349.771 453.446 347.361 454.483 347.361 458.633C347.361 462.784 349.832 463.882 355.375 463.882C360.918 463.882 363.449 462.784 363.449 458.633Z" fill="#04022A"/>
<path d="M394.423 460.282H376.829C377.673 463.212 380.565 463.945 385.023 463.945C388.217 463.945 390.627 463.517 393.097 462.602C393.519 462.48 394.242 462.48 394.543 463.029L395.025 464.067C395.327 464.677 395.327 465.348 394.724 465.714C392.676 467.179 389.422 468.156 384.602 468.156C375.383 468.156 371.406 464.555 371.406 458.635C371.406 452.714 375.082 449.113 384.18 449.113C393.519 449.113 396.833 452.958 396.833 457.841C396.893 459.733 396.471 460.282 394.423 460.282ZM376.709 456.987H392.073C391.47 454.362 389.362 453.386 384.361 453.386C379.36 453.386 377.191 454.362 376.709 456.987Z" fill="#04022A"/>
<path d="M400.506 466.994V450.332C400.506 449.721 400.807 449.416 401.41 449.416H404.663C405.266 449.416 405.567 449.721 405.567 450.332V452.163C405.567 452.651 406.109 452.834 406.591 452.285C408.037 450.515 409.966 449.172 414.545 449.172C417.437 449.172 419.064 449.782 419.847 450.209C420.932 450.759 421.052 451.369 421.052 452.285V453.566C421.052 454.604 420.389 454.726 419.365 454.421C417.798 453.933 416.292 453.444 413.46 453.444C408.941 453.444 405.567 454.726 405.567 458.388V467.055C405.567 467.665 405.266 467.97 404.663 467.97H401.41C400.807 467.909 400.506 467.604 400.506 466.994Z" fill="#04022A"/>
<path d="M258.491 454.607C258.491 458.94 256.804 462.968 253.791 466.02C250.779 469.072 246.802 470.781 242.524 470.781H213.12C212.397 470.781 211.795 470.17 211.795 469.438V465.898C211.795 465.165 212.397 464.555 213.12 464.555H242.524C245.175 464.555 247.645 463.517 249.453 461.625C251.321 459.733 252.345 457.231 252.345 454.607C252.345 451.921 251.321 449.419 249.453 447.588C247.585 445.696 245.115 444.658 242.524 444.658H223.785C222.58 444.658 221.435 444.109 220.712 443.193L220.471 442.827L218.001 438.677V459.367C218.001 460.1 217.398 460.71 216.675 460.71H213.12C212.397 460.71 211.795 460.1 211.795 459.367V430.864C211.795 429.155 212.879 427.63 214.446 427.08C216.013 426.531 217.82 427.019 218.845 428.301L219.146 428.667L224.99 438.433H242.524C246.802 438.433 250.779 440.142 253.791 443.193C256.804 446.245 258.491 450.273 258.491 454.607Z" fill="url(#paint0_linear_559_3319)"/>
</g>
<path d="M320.297 489.027L312.146 507.98" stroke="#04022A" stroke-width="2.26408" stroke-linecap="round"/>
<path d="M300.371 490.316L292.35 498.31L300.371 506.304M332.456 490.316L340.477 498.31L332.456 506.304" stroke="#04022A" stroke-width="2.26408" stroke-miterlimit="10" stroke-linecap="round" stroke-linejoin="round"/>
<defs>
<filter id="filter0_d_559_3319" x="159.892" y="0.995486" width="405.229" height="393.801" filterUnits="userSpaceOnUse" color-interpolation-filters="sRGB">
<feFlood flood-opacity="0" result="BackgroundImageFix"/>
<feColorMatrix in="SourceAlpha" type="matrix" values="0 0 0 0 0 0 0 0 0 0 0 0 0 0 0 0 0 0 127 0" result="hardAlpha"/>
<feOffset dy="4.18517"/>
<feGaussianBlur stdDeviation="31.3888"/>
<feComposite in2="hardAlpha" operator="out"/>
<feColorMatrix type="matrix" values="0 0 0 0 0.0156863 0 0 0 0 0.00784314 0 0 0 0 0.164706 0 0 0 0.1 0"/>
<feBlend mode="normal" in2="BackgroundImageFix" result="effect1_dropShadow_559_3319"/>
<feBlend mode="normal" in="SourceGraphic" in2="effect1_dropShadow_559_3319" result="shape"/>
</filter>
<filter id="filter1_d_559_3319" x="200.442" y="46.2017" width="336.158" height="324.73" filterUnits="userSpaceOnUse" color-interpolation-filters="sRGB">
<feFlood flood-opacity="0" result="BackgroundImageFix"/>
<feColorMatrix in="SourceAlpha" type="matrix" values="0 0 0 0 0 0 0 0 0 0 0 0 0 0 0 0 0 0 127 0" result="hardAlpha"/>
<feOffset dx="6.0145" dy="14.8558"/>
<feGaussianBlur stdDeviation="14.121"/>
<feComposite in2="hardAlpha" operator="out"/>
<feColorMatrix type="matrix" values="0 0 0 0 0.70875 0 0 0 0 0.7497 0 0 0 0 0.7875 0 0 0 0.25 0"/>
<feBlend mode="normal" in2="BackgroundImageFix" result="effect1_dropShadow_559_3319"/>
<feBlend mode="normal" in="SourceGraphic" in2="effect1_dropShadow_559_3319" result="shape"/>
</filter>
<linearGradient id="paint0_linear_559_3319" x1="214" y1="425.117" x2="253.288" y2="474.895" gradientUnits="userSpaceOnUse">
<stop stop-color="#FF4BC8"/>
<stop offset="0.6609" stop-color="#2A1C8E"/>
<stop offset="1" stop-color="#1D71B8"/>
</linearGradient>
<clipPath id="clip0_559_3319">
<rect width="209.258" height="43.9444" fill="white" transform="translate(211.795 426.836)"/>
</clipPath>
</defs>
</svg>
