<svg width="101" height="100" viewBox="0 0 101 100" fill="none" xmlns="http://www.w3.org/2000/svg">
<path d="M78.4046 22H28.5954C26.3336 22 24.5 23.029 24.5 24.2983V77.7017C24.5 78.971 26.3336 80 28.5954 80H78.4046C80.6664 80 82.5 78.971 82.5 77.7017V24.2983C82.5 23.029 80.6664 22 78.4046 22Z" fill="url(#paint0_linear_559_3106)"/>
<path d="M64.9973 30.3984H50.9297" stroke="white" stroke-width="1.08179" stroke-miterlimit="10"/>
<path d="M64.6028 70.9199H50.5352" stroke="white" stroke-width="1.08179" stroke-miterlimit="10"/>
<g filter="url(#filter0_b_559_3106)">
<path d="M44.0122 10H13.3757C9.85451 10 7 12.8545 7 16.3757V84.1963C7 87.7175 9.85451 90.572 13.3757 90.572H44.0122C47.5334 90.572 50.3879 87.7175 50.3879 84.1963V16.3757C50.3879 12.8545 47.5334 10 44.0122 10Z" fill="#6BA8F8" fill-opacity="0.35"/>
<path d="M44.0122 9.5H13.3757C9.57836 9.5 6.5 12.5784 6.5 16.3757V84.1963C6.5 87.9937 9.57836 91.072 13.3757 91.072H44.0122C47.8096 91.072 50.8879 87.9937 50.8879 84.1963V16.3757C50.8879 12.5784 47.8096 9.5 44.0122 9.5Z" stroke="url(#paint1_linear_559_3106)" stroke-linecap="round"/>
</g>
<g filter="url(#filter1_b_559_3106)">
<path d="M94.3875 36.0303L79.8179 44.4163L65.2461 36.0303V19.2581L79.8179 10.8721L94.3875 19.2581V36.0303Z" fill="#6BA8F8" fill-opacity="0.35"/>
<path d="M94.6369 36.4636L94.8875 36.3194V36.0303V19.2581V18.969L94.6369 18.8248L80.0673 10.4387L79.8179 10.2952L79.5685 10.4387L64.9967 18.8248L64.7461 18.969V19.2581V36.0303V36.3194L64.9967 36.4636L79.5685 44.8497L79.8179 44.9932L80.0673 44.8497L94.6369 36.4636Z" stroke="url(#paint2_linear_559_3106)" stroke-linecap="round"/>
</g>
<path d="M79.8203 44.4653V27.1328" stroke="#ABC9FB" stroke-width="1.08179" stroke-miterlimit="10" stroke-linecap="round"/>
<path d="M79.9414 27.2263L94.5911 19.2578" stroke="#ABC9FB" stroke-width="1.08179" stroke-miterlimit="10" stroke-linecap="round"/>
<path d="M79.943 27.2263L65.4297 19.2578" stroke="#ABC9FB" stroke-width="1.08179" stroke-miterlimit="10" stroke-linecap="round"/>
<g filter="url(#filter2_b_559_3106)">
<path d="M78.2135 37.9081C77.8548 37.8949 77.5149 37.7447 77.2637 37.4883L72.6033 32.8604C72.4933 32.7554 72.4076 32.6274 72.3523 32.4857C72.2971 32.3439 72.2736 32.1918 72.2835 32.04C72.2934 31.8881 72.3364 31.7403 72.4096 31.6069C72.4828 31.4736 72.5844 31.3579 72.7072 31.268C72.9681 31.0684 73.2911 30.9673 73.6193 30.9828C73.9475 30.9982 74.2598 31.1291 74.5008 31.3524L78.1507 34.9548L85.7341 26.4259C85.961 26.1882 86.2646 26.0384 86.5913 26.0031C86.9181 25.9679 87.2468 26.0495 87.5191 26.2333C87.6475 26.3137 87.7566 26.4212 87.8389 26.5483C87.9212 26.6755 87.9745 26.8191 87.9951 26.9692C88.0158 27.1192 88.0033 27.272 87.9584 27.4166C87.9135 27.5612 87.8374 27.6943 87.7355 27.8063L79.2131 37.4321C79.0949 37.5733 78.9487 37.6886 78.7837 37.7705C78.6188 37.8524 78.4385 37.8993 78.2546 37.9081H78.2135Z" fill="#6BA8F8" fill-opacity="0.35"/>
<path d="M78.1951 38.4077L78.2043 38.4081H78.2135H78.2546H78.2665L78.2784 38.4075C78.5314 38.3954 78.7792 38.331 79.0061 38.2183C79.2307 38.1068 79.43 37.9503 79.5917 37.7587L88.1078 28.14C88.2577 27.9744 88.3697 27.7781 88.4359 27.5648C88.5025 27.3501 88.5211 27.1235 88.4905 26.901C88.4599 26.6784 88.3807 26.4653 88.2587 26.2767C88.1383 26.0907 87.9791 25.9329 87.7918 25.8142C87.423 25.5676 86.979 25.4584 86.5377 25.506C86.0935 25.5539 85.6808 25.7576 85.3724 26.0807L85.3663 26.0871L85.3605 26.0937L78.1271 34.2289L74.852 30.9965L74.8464 30.9909L74.8406 30.9856C74.513 30.6821 74.0887 30.5043 73.6428 30.4833C73.1985 30.4624 72.7611 30.5986 72.4073 30.8679C72.2277 31.0004 72.0788 31.1704 71.9713 31.3664C71.8629 31.5639 71.7992 31.7827 71.7845 32.0074C71.7699 32.2322 71.8047 32.4574 71.8865 32.6673L72.3523 32.4857L71.8865 32.6673C71.9677 32.8755 72.0932 33.0635 72.2542 33.2183L76.9092 37.8409C77.2497 38.1871 77.7097 38.3899 78.1951 38.4077Z" stroke="white" stroke-linecap="round"/>
</g>
<g filter="url(#filter3_b_559_3106)">
<path d="M94.3875 79.1582L79.8179 87.5443L65.2461 79.1582V62.3861L79.8179 54L94.3875 62.3861V79.1582Z" fill="#6BA8F8" fill-opacity="0.35"/>
<path d="M94.6369 79.5915L94.8875 79.4473V79.1582V62.3861V62.097L94.6369 61.9527L80.0673 53.5667L79.8179 53.4231L79.5685 53.5666L64.9967 61.9527L64.7461 62.0969V62.3861V79.1582V79.4473L64.9967 79.5916L79.5685 87.9776L79.8179 88.1212L80.0673 87.9776L94.6369 79.5915Z" stroke="url(#paint3_linear_559_3106)" stroke-linecap="round"/>
</g>
<path d="M79.8203 87.5942V70.2617" stroke="#ABC9FB" stroke-width="1.08179" stroke-miterlimit="10" stroke-linecap="round"/>
<path d="M79.9414 70.3552L94.5911 62.3867" stroke="#ABC9FB" stroke-width="1.08179" stroke-miterlimit="10" stroke-linecap="round"/>
<path d="M79.943 70.3552L65.4297 62.3867" stroke="#ABC9FB" stroke-width="1.08179" stroke-miterlimit="10" stroke-linecap="round"/>
<g filter="url(#filter4_b_559_3106)">
<path d="M78.2135 81.036C77.8548 81.0228 77.5149 80.8726 77.2637 80.6163L72.6033 75.9883C72.4933 75.8833 72.4076 75.7554 72.3523 75.6136C72.2971 75.4718 72.2736 75.3197 72.2835 75.1679C72.2934 75.0161 72.3364 74.8683 72.4096 74.7349C72.4828 74.6015 72.5844 74.4858 72.7072 74.3959C72.9681 74.1963 73.2911 74.0952 73.6193 74.1107C73.9475 74.1261 74.2598 74.257 74.5008 74.4803L78.1507 78.0827L85.7341 69.5538C85.961 69.3161 86.2646 69.1663 86.5913 69.1311C86.9181 69.0958 87.2468 69.1774 87.5191 69.3613C87.6475 69.4416 87.7566 69.5491 87.8389 69.6763C87.9212 69.8034 87.9745 69.9471 87.9951 70.0971C88.0158 70.2471 88.0033 70.3999 87.9584 70.5445C87.9135 70.6892 87.8374 70.8222 87.7355 70.9342L79.2131 80.56C79.0949 80.7013 78.9487 80.8165 78.7837 80.8984C78.6188 80.9803 78.4385 81.0272 78.2546 81.036H78.2135Z" fill="#6BA8F8" fill-opacity="0.35"/>
<path d="M78.1951 81.5356L78.2043 81.536H78.2135H78.2546H78.2665L78.2784 81.5354C78.5314 81.5233 78.7792 81.4589 79.0061 81.3462C79.2307 81.2347 79.43 81.0783 79.5917 80.8866L88.1078 71.268C88.2577 71.1024 88.3697 70.906 88.4359 70.6927C88.5025 70.478 88.5211 70.2514 88.4905 70.029C88.4599 69.8064 88.3807 69.5933 88.2587 69.4047C88.1383 69.2186 87.9791 69.0608 87.7918 68.9421C87.423 68.6955 86.979 68.5864 86.5377 68.634C86.0935 68.6819 85.6808 68.8855 85.3724 69.2087L85.3663 69.215L85.3605 69.2216L78.1271 77.3568L74.852 74.1244L74.8464 74.1189L74.8406 74.1135C74.513 73.8101 74.0887 73.6322 73.6428 73.6112C73.1985 73.5903 72.7611 73.7266 72.4073 73.9958C72.2277 74.1283 72.0788 74.2983 71.9713 74.4943C71.8629 74.6918 71.7992 74.9107 71.7845 75.1353C71.7699 75.3601 71.8047 75.5854 71.8865 75.7952L72.3523 75.6136L71.8865 75.7952C71.9677 76.0034 72.0932 76.1914 72.2542 76.3462L76.9092 80.9689C77.2497 81.315 77.7097 81.5178 78.1951 81.5356Z" stroke="white" stroke-linecap="round"/>
</g>
<path d="M35.0561 14.2482C35.0625 14.3788 35.0002 14.5059 34.8828 14.6018C34.7653 14.6977 34.6023 14.7544 34.4296 14.7595H25.7285C25.5558 14.7544 25.3928 14.6977 25.2754 14.6018C25.1579 14.5059 25.0955 14.3788 25.102 14.2482V14.189C25.0955 14.0585 25.1579 13.9313 25.2754 13.8355C25.3928 13.7396 25.5558 13.6829 25.7285 13.6777H34.4296C34.6023 13.6829 34.7653 13.7396 34.8828 13.8355C35.0002 13.9313 35.0625 14.0585 35.0561 14.189V14.2482Z" fill="white"/>
<path d="M21.7388 14.1275C21.7493 13.9878 21.8004 13.8543 21.8858 13.7432C21.9712 13.6321 22.0871 13.5483 22.2193 13.5022C22.3516 13.456 22.4945 13.4494 22.6304 13.4832C22.7664 13.517 22.8895 13.5897 22.9848 13.6924C23.08 13.7952 23.1432 13.9235 23.1666 14.0616C23.19 14.1997 23.1726 14.3417 23.1166 14.4701C23.0605 14.5984 22.9682 14.7077 22.851 14.7844C22.7338 14.8611 22.5967 14.902 22.4566 14.902C22.2589 14.894 22.0723 14.8081 21.9378 14.6629C21.8033 14.5178 21.7317 14.3253 21.7388 14.1275Z" fill="white"/>
<circle cx="17" cy="25.5" r="4.5" fill="white"/>
<path d="M43 35H14C13.1716 35 12.5 35.6716 12.5 36.5C12.5 37.3284 13.1716 38 14 38H43C43.8284 38 44.5 37.3284 44.5 36.5C44.5 35.6716 43.8284 35 43 35Z" fill="white" fill-opacity="0.8"/>
<path d="M43 42H14C13.1716 42 12.5 42.6716 12.5 43.5C12.5 44.3284 13.1716 45 14 45H43C43.8284 45 44.5 44.3284 44.5 43.5C44.5 42.6716 43.8284 42 43 42Z" fill="white" fill-opacity="0.8"/>
<path d="M43 49H14C13.1716 49 12.5 49.6716 12.5 50.5C12.5 51.3284 13.1716 52 14 52H43C43.8284 52 44.5 51.3284 44.5 50.5C44.5 49.6716 43.8284 49 43 49Z" fill="white" fill-opacity="0.8"/>
<defs>
<filter id="filter0_b_559_3106" x="-18" y="-15" width="93.3887" height="130.572" filterUnits="userSpaceOnUse" color-interpolation-filters="sRGB">
<feFlood flood-opacity="0" result="BackgroundImageFix"/>
<feGaussianBlur in="BackgroundImageFix" stdDeviation="12"/>
<feComposite in2="SourceAlpha" operator="in" result="effect1_backgroundBlur_559_3106"/>
<feBlend mode="normal" in="SourceGraphic" in2="effect1_backgroundBlur_559_3106" result="shape"/>
</filter>
<filter id="filter1_b_559_3106" x="40.2461" y="-14.2812" width="79.1406" height="83.8516" filterUnits="userSpaceOnUse" color-interpolation-filters="sRGB">
<feFlood flood-opacity="0" result="BackgroundImageFix"/>
<feGaussianBlur in="BackgroundImageFix" stdDeviation="12"/>
<feComposite in2="SourceAlpha" operator="in" result="effect1_backgroundBlur_559_3106"/>
<feBlend mode="normal" in="SourceGraphic" in2="effect1_backgroundBlur_559_3106" result="shape"/>
</filter>
<filter id="filter2_b_559_3106" x="47.2812" y="0.995117" width="65.7227" height="61.9131" filterUnits="userSpaceOnUse" color-interpolation-filters="sRGB">
<feFlood flood-opacity="0" result="BackgroundImageFix"/>
<feGaussianBlur in="BackgroundImageFix" stdDeviation="12"/>
<feComposite in2="SourceAlpha" operator="in" result="effect1_backgroundBlur_559_3106"/>
<feBlend mode="normal" in="SourceGraphic" in2="effect1_backgroundBlur_559_3106" result="shape"/>
</filter>
<filter id="filter3_b_559_3106" x="40.2461" y="28.8467" width="79.1406" height="83.8516" filterUnits="userSpaceOnUse" color-interpolation-filters="sRGB">
<feFlood flood-opacity="0" result="BackgroundImageFix"/>
<feGaussianBlur in="BackgroundImageFix" stdDeviation="12"/>
<feComposite in2="SourceAlpha" operator="in" result="effect1_backgroundBlur_559_3106"/>
<feBlend mode="normal" in="SourceGraphic" in2="effect1_backgroundBlur_559_3106" result="shape"/>
</filter>
<filter id="filter4_b_559_3106" x="47.2812" y="44.123" width="65.7227" height="61.9131" filterUnits="userSpaceOnUse" color-interpolation-filters="sRGB">
<feFlood flood-opacity="0" result="BackgroundImageFix"/>
<feGaussianBlur in="BackgroundImageFix" stdDeviation="12"/>
<feComposite in2="SourceAlpha" operator="in" result="effect1_backgroundBlur_559_3106"/>
<feBlend mode="normal" in="SourceGraphic" in2="effect1_backgroundBlur_559_3106" result="shape"/>
</filter>
<linearGradient id="paint0_linear_559_3106" x1="24.5" y1="51" x2="82.5" y2="51" gradientUnits="userSpaceOnUse">
<stop stop-color="#E7C5FF"/>
<stop offset="1" stop-color="#0049C9"/>
</linearGradient>
<linearGradient id="paint1_linear_559_3106" x1="7" y1="10" x2="74.2657" y2="46.1858" gradientUnits="userSpaceOnUse">
<stop stop-color="white" stop-opacity="0.25"/>
<stop offset="1" stop-color="white" stop-opacity="0"/>
</linearGradient>
<linearGradient id="paint2_linear_559_3106" x1="65.2461" y1="10.8721" x2="98.4731" y2="39.7086" gradientUnits="userSpaceOnUse">
<stop stop-color="white" stop-opacity="0.25"/>
<stop offset="1" stop-color="white" stop-opacity="0"/>
</linearGradient>
<linearGradient id="paint3_linear_559_3106" x1="65.2461" y1="54" x2="98.4731" y2="82.8365" gradientUnits="userSpaceOnUse">
<stop stop-color="white" stop-opacity="0.25"/>
<stop offset="1" stop-color="white" stop-opacity="0"/>
</linearGradient>
</defs>
</svg>
