<svg width="101" height="100" viewBox="0 0 101 100" fill="none" xmlns="http://www.w3.org/2000/svg">
<path d="M80.0169 72.2287L50.7379 89.0378L21.459 72.2287V38.6138L50.7379 21.8047L80.0169 38.6138V72.2287Z" fill="url(#paint0_linear_559_3059)"/>
<g filter="url(#filter0_b_559_3059)">
<path d="M83.8296 53.5825L83.8031 37.4207C83.7369 35.1005 85.6729 33.1967 88.1293 33.1721C90.5896 33.1475 92.6316 35.0097 92.6978 37.3356L92.9988 61.071C93.0291 62.0949 92.5634 62.8859 91.8197 63.6183L76.7252 78.4364C76.4961 78.6594 76.3154 78.9273 76.1946 79.2233C76.0738 79.5193 76.0154 79.8371 76.0231 80.1567L60.498 79.8209L83.8296 53.5825Z" fill="#6BA8F8" fill-opacity="0.35"/>
<path d="M93.1978 37.3292L93.1978 37.3292L93.1976 37.3213C93.1229 34.6982 90.8315 32.6451 88.1243 32.6721L88.1293 33.1721L88.1243 32.6721C85.4176 32.6992 83.2322 34.8051 83.3031 37.428L83.3293 53.3927L60.1244 79.4887L59.4053 80.2974L60.4872 80.3208L76.0123 80.6566L76.5356 80.6679L76.523 80.1447C76.5169 79.8939 76.5627 79.6445 76.6576 79.4122C76.7524 79.1799 76.8941 78.9697 77.0739 78.7948L77.0755 78.7932L92.17 63.9751L92.1705 63.9746C92.9696 63.1877 93.5331 62.2716 93.4987 61.0604L93.1978 37.3292Z" stroke="url(#paint1_linear_559_3059)" stroke-linecap="round"/>
</g>
<g filter="url(#filter1_b_559_3059)">
<path d="M73.6993 67.3467L83.0539 58.1587C84.7098 56.5331 84.634 53.9253 82.8873 52.3337C81.1386 50.7421 78.3794 50.7705 76.7254 52.3961L60.0146 68.8077C59.3167 69.485 58.9124 70.4092 58.8887 71.3815L59.4139 79.8214L73.6993 67.3467Z" fill="#6BA8F8" fill-opacity="0.35"/>
<path d="M74.0281 67.7233L74.0392 67.7137L74.0496 67.7034L83.4041 58.5155C83.4042 58.5155 83.4042 58.5155 83.4042 58.5155C85.2719 56.6818 85.1757 53.7423 83.224 51.9641L83.2238 51.9639C81.2851 50.1993 78.2242 50.2221 76.375 52.0394C76.375 52.0394 76.375 52.0395 76.3749 52.0395L59.6664 68.4489C59.6661 68.4492 59.6657 68.4496 59.6654 68.4499C58.8741 69.2184 58.4158 70.2666 58.3888 71.3693L58.3883 71.3909L58.3896 71.4125L58.9149 79.8524L58.978 80.8659L59.7428 80.198L74.0281 67.7233Z" stroke="url(#paint2_linear_559_3059)" stroke-linecap="round"/>
</g>
<g filter="url(#filter2_b_559_3059)">
<path d="M58.5957 94.46H79.7897L76.9093 79.835L58.5957 79.8785V94.46Z" fill="#6BA8F8" fill-opacity="0.35"/>
<path d="M58.0957 94.46V94.96H58.5957H79.7897H80.3978L80.2803 94.3634L77.3999 79.7383L77.3203 79.334L76.9081 79.335L58.5945 79.3785L58.0957 79.3797V79.8785V94.46Z" stroke="url(#paint3_linear_559_3059)" stroke-linecap="round"/>
</g>
<g filter="url(#filter3_b_559_3059)">
<path d="M17.8891 53.5825L17.9156 37.4207C17.9819 35.1005 16.0459 33.1967 13.5894 33.1721C11.1292 33.1475 9.08717 35.0097 9.02093 37.3356L8.71996 61.071C8.68968 62.0949 9.15532 62.8859 9.89907 63.6183L24.9935 78.4364C25.2227 78.6594 25.4033 78.9273 25.5241 79.2233C25.6449 79.5193 25.7033 79.8371 25.6956 80.1567L41.2207 79.8209L17.8891 53.5825Z" fill="#6BA8F8" fill-opacity="0.35"/>
<path d="M8.52097 37.3292L8.52091 37.3292L8.52113 37.3213C8.59584 34.6982 10.8872 32.6451 13.5944 32.6721L13.5894 33.1721L13.5944 32.6721C16.3011 32.6992 18.4865 34.8051 18.4156 37.428L18.3894 53.3927L41.5943 79.4887L42.3135 80.2974L41.2315 80.3208L25.7064 80.6566L25.1832 80.6679L25.1958 80.1447C25.2018 79.8939 25.156 79.6445 25.0612 79.4122C24.9664 79.1799 24.8246 78.9697 24.6448 78.7948L24.6433 78.7932L9.5488 63.9751L9.54825 63.9746C8.74911 63.1877 8.1856 62.2716 8.22005 61.0604L8.52097 37.3292Z" stroke="url(#paint4_linear_559_3059)" stroke-linecap="round"/>
</g>
<g filter="url(#filter4_b_559_3059)">
<path d="M28.0195 67.3467L18.6649 58.1587C17.009 56.5331 17.0847 53.9253 18.8315 52.3337C20.5802 50.7421 23.3393 50.7705 24.9934 52.3961L41.7041 68.8077C42.402 69.485 42.8063 70.4092 42.8301 71.3815L42.3048 79.8214L28.0195 67.3467Z" fill="#6BA8F8" fill-opacity="0.35"/>
<path d="M27.6906 67.7233L27.6796 67.7137L27.6691 67.7034L18.3146 58.5155C18.3146 58.5155 18.3146 58.5155 18.3145 58.5155C16.4469 56.6818 16.5431 53.7423 18.4947 51.9641L18.4949 51.9639C20.4337 50.1993 23.4946 50.2221 25.3437 52.0394C25.3438 52.0394 25.3438 52.0395 25.3438 52.0395L42.0523 68.4489C42.0527 68.4492 42.053 68.4496 42.0534 68.4499C42.8447 69.2184 43.303 70.2666 43.3299 71.3693L43.3305 71.3909L43.3291 71.4125L42.8039 79.8524L42.7408 80.8659L41.9759 80.198L27.6906 67.7233Z" stroke="url(#paint5_linear_559_3059)" stroke-linecap="round"/>
</g>
<g filter="url(#filter5_b_559_3059)">
<path d="M43.123 94.46H21.9291L24.8094 79.835L43.123 79.8785V94.46Z" fill="#6BA8F8" fill-opacity="0.35"/>
<path d="M43.623 94.46V94.96H43.123H21.9291H21.321L21.4385 94.3634L24.3188 79.7383L24.3985 79.334L24.8106 79.335L43.1242 79.3785L43.623 79.3797V79.8785V94.46Z" stroke="url(#paint6_linear_559_3059)" stroke-linecap="round"/>
</g>
<g filter="url(#filter6_b_559_3059)">
<path d="M72.26 42.4054L50.9279 54.6936L29.5957 42.4054V17.8273L50.9279 5.53906L72.26 17.8273V42.4054Z" fill="#6BA8F8" fill-opacity="0.35"/>
<path d="M72.5096 42.8386L72.76 42.6944V42.4054V17.8273V17.5383L72.5096 17.394L51.1774 5.1058L50.9279 4.96204L50.6783 5.1058L29.3461 17.394L29.0957 17.5383V17.8273V42.4054V42.6944L29.3461 42.8386L50.6783 55.1268L50.9279 55.2706L51.1774 55.1268L72.5096 42.8386Z" stroke="url(#paint7_linear_559_3059)" stroke-linecap="round"/>
</g>
<path d="M50.6094 29.4922V54.7742" stroke="white" stroke-width="0.774661" stroke-miterlimit="10"/>
<path d="M50.9062 29.5065L72.3762 17.8281" stroke="white" stroke-width="0.774661" stroke-miterlimit="10"/>
<path d="M50.9075 29.5065L29.6426 17.8281" stroke="white" stroke-width="0.774661" stroke-miterlimit="10"/>
<g filter="url(#filter7_b_559_3059)">
<path d="M56.7426 24.1415V21.3384C56.7426 18.488 55.2025 16.1641 53.3461 16.1641H47.7991C45.9416 16.1641 44.2227 18.4936 44.2227 21.3384V24.1438H46.4211V21.8648C46.4211 19.7344 47.3398 18.0831 48.6318 18.0831H52.4933C53.7853 18.0831 54.6414 19.7344 54.6414 21.8648V24.1438L56.7426 24.1415Z" fill="#6BA8F8" fill-opacity="0.35"/>
<path d="M56.7431 24.6415L57.2426 24.641V24.1415V21.3384C57.2426 19.8283 56.8356 18.4364 56.1581 17.4074C55.4844 16.384 54.4986 15.6641 53.3461 15.6641H47.7991C46.6534 15.6641 45.6249 16.3772 44.9058 17.3962C44.1808 18.4235 43.7227 19.8191 43.7227 21.3384V24.1438V24.6438H44.2227H46.4211H46.9211V24.1438V21.8648C46.9211 20.8642 47.1379 20.0101 47.4752 19.4246C47.8136 18.8372 48.2273 18.5831 48.6318 18.5831H52.4933C52.8932 18.5831 53.2906 18.8316 53.6143 19.417C53.938 20.0024 54.1414 20.8585 54.1414 21.8648V24.1438V24.6443L54.642 24.6438L56.7431 24.6415Z" stroke="url(#paint8_linear_559_3059)" stroke-linecap="round"/>
</g>
<g filter="url(#filter8_b_559_3059)">
<path d="M56.4151 23.7637H45.062C43.3446 23.7637 41.8809 24.8235 41.8809 26.1464V35.43C41.8809 36.7528 43.3401 37.797 45.062 37.797H56.4151C58.1325 37.797 59.3538 36.7528 59.3538 35.43V26.1464C59.3538 24.8235 58.1325 23.7637 56.4151 23.7637Z" fill="#6BA8F8" fill-opacity="0.35"/>
<path d="M56.4151 23.2637H45.062C44.1047 23.2637 43.2031 23.5582 42.5297 24.0573C41.8568 24.556 41.3809 25.2876 41.3809 26.1464V35.43C41.3809 36.2891 41.856 37.0173 42.5296 37.5124C43.2031 38.0075 44.1044 38.297 45.062 38.297H56.4151C58.3113 38.297 59.8538 37.1172 59.8538 35.43V26.1464C59.8538 24.463 58.3159 23.2637 56.4151 23.2637Z" stroke="url(#paint9_linear_559_3059)" stroke-linecap="round"/>
</g>
<path d="M51.4563 30.7213L51.8932 35.0454H49.0599L49.4968 30.6404C49.2337 30.4976 49.0134 30.2838 48.8594 30.0219C48.7055 29.7601 48.6238 29.4601 48.623 29.1541C48.623 28.1531 49.4968 27.3408 50.5443 27.3408C51.5917 27.3408 52.4753 28.1531 52.4753 29.1541C52.4732 29.8247 51.927 30.4078 51.4563 30.7213Z" fill="white"/>
<defs>
<filter id="filter0_b_559_3059" x="34.3125" y="8.17188" width="83.6875" height="97.0068" filterUnits="userSpaceOnUse" color-interpolation-filters="sRGB">
<feFlood flood-opacity="0" result="BackgroundImageFix"/>
<feGaussianBlur in="BackgroundImageFix" stdDeviation="12"/>
<feComposite in2="SourceAlpha" operator="in" result="effect1_backgroundBlur_559_3059"/>
<feBlend mode="normal" in="SourceGraphic" in2="effect1_backgroundBlur_559_3059" result="shape"/>
</filter>
<filter id="filter1_b_559_3059" x="33.8887" y="26.1582" width="75.3594" height="79.752" filterUnits="userSpaceOnUse" color-interpolation-filters="sRGB">
<feFlood flood-opacity="0" result="BackgroundImageFix"/>
<feGaussianBlur in="BackgroundImageFix" stdDeviation="12"/>
<feComposite in2="SourceAlpha" operator="in" result="effect1_backgroundBlur_559_3059"/>
<feBlend mode="normal" in="SourceGraphic" in2="effect1_backgroundBlur_559_3059" result="shape"/>
</filter>
<filter id="filter2_b_559_3059" x="33.5957" y="54.833" width="71.4102" height="64.627" filterUnits="userSpaceOnUse" color-interpolation-filters="sRGB">
<feFlood flood-opacity="0" result="BackgroundImageFix"/>
<feGaussianBlur in="BackgroundImageFix" stdDeviation="12"/>
<feComposite in2="SourceAlpha" operator="in" result="effect1_backgroundBlur_559_3059"/>
<feBlend mode="normal" in="SourceGraphic" in2="effect1_backgroundBlur_559_3059" result="shape"/>
</filter>
<filter id="filter3_b_559_3059" x="-16.2812" y="8.17188" width="83.6875" height="97.0068" filterUnits="userSpaceOnUse" color-interpolation-filters="sRGB">
<feFlood flood-opacity="0" result="BackgroundImageFix"/>
<feGaussianBlur in="BackgroundImageFix" stdDeviation="12"/>
<feComposite in2="SourceAlpha" operator="in" result="effect1_backgroundBlur_559_3059"/>
<feBlend mode="normal" in="SourceGraphic" in2="effect1_backgroundBlur_559_3059" result="shape"/>
</filter>
<filter id="filter4_b_559_3059" x="-7.5293" y="26.1582" width="75.3594" height="79.752" filterUnits="userSpaceOnUse" color-interpolation-filters="sRGB">
<feFlood flood-opacity="0" result="BackgroundImageFix"/>
<feGaussianBlur in="BackgroundImageFix" stdDeviation="12"/>
<feComposite in2="SourceAlpha" operator="in" result="effect1_backgroundBlur_559_3059"/>
<feBlend mode="normal" in="SourceGraphic" in2="effect1_backgroundBlur_559_3059" result="shape"/>
</filter>
<filter id="filter5_b_559_3059" x="-3.28711" y="54.833" width="71.4102" height="64.627" filterUnits="userSpaceOnUse" color-interpolation-filters="sRGB">
<feFlood flood-opacity="0" result="BackgroundImageFix"/>
<feGaussianBlur in="BackgroundImageFix" stdDeviation="12"/>
<feComposite in2="SourceAlpha" operator="in" result="effect1_backgroundBlur_559_3059"/>
<feBlend mode="normal" in="SourceGraphic" in2="effect1_backgroundBlur_559_3059" result="shape"/>
</filter>
<filter id="filter6_b_559_3059" x="4.5957" y="-19.6152" width="92.6641" height="99.4629" filterUnits="userSpaceOnUse" color-interpolation-filters="sRGB">
<feFlood flood-opacity="0" result="BackgroundImageFix"/>
<feGaussianBlur in="BackgroundImageFix" stdDeviation="12"/>
<feComposite in2="SourceAlpha" operator="in" result="effect1_backgroundBlur_559_3059"/>
<feBlend mode="normal" in="SourceGraphic" in2="effect1_backgroundBlur_559_3059" result="shape"/>
</filter>
<filter id="filter7_b_559_3059" x="19.2227" y="-8.83594" width="62.5195" height="57.9805" filterUnits="userSpaceOnUse" color-interpolation-filters="sRGB">
<feFlood flood-opacity="0" result="BackgroundImageFix"/>
<feGaussianBlur in="BackgroundImageFix" stdDeviation="12"/>
<feComposite in2="SourceAlpha" operator="in" result="effect1_backgroundBlur_559_3059"/>
<feBlend mode="normal" in="SourceGraphic" in2="effect1_backgroundBlur_559_3059" result="shape"/>
</filter>
<filter id="filter8_b_559_3059" x="16.8809" y="-1.23633" width="67.4727" height="64.0332" filterUnits="userSpaceOnUse" color-interpolation-filters="sRGB">
<feFlood flood-opacity="0" result="BackgroundImageFix"/>
<feGaussianBlur in="BackgroundImageFix" stdDeviation="12"/>
<feComposite in2="SourceAlpha" operator="in" result="effect1_backgroundBlur_559_3059"/>
<feBlend mode="normal" in="SourceGraphic" in2="effect1_backgroundBlur_559_3059" result="shape"/>
</filter>
<linearGradient id="paint0_linear_559_3059" x1="21.459" y1="55.4213" x2="80.0169" y2="55.4213" gradientUnits="userSpaceOnUse">
<stop stop-color="#E7C5FF"/>
<stop offset="1" stop-color="#0049C9"/>
</linearGradient>
<linearGradient id="paint1_linear_559_3059" x1="60.498" y1="33.1719" x2="104.47" y2="63.5591" gradientUnits="userSpaceOnUse">
<stop stop-color="white" stop-opacity="0.25"/>
<stop offset="1" stop-color="white" stop-opacity="0"/>
</linearGradient>
<linearGradient id="paint2_linear_559_3059" x1="58.8887" y1="51.1582" x2="87.3491" y2="76.3129" gradientUnits="userSpaceOnUse">
<stop stop-color="white" stop-opacity="0.25"/>
<stop offset="1" stop-color="white" stop-opacity="0"/>
</linearGradient>
<linearGradient id="paint3_linear_559_3059" x1="58.5957" y1="79.835" x2="72.2809" y2="99.6468" gradientUnits="userSpaceOnUse">
<stop stop-color="white" stop-opacity="0.25"/>
<stop offset="1" stop-color="white" stop-opacity="0"/>
</linearGradient>
<linearGradient id="paint4_linear_559_3059" x1="41.2207" y1="33.1719" x2="-2.75135" y2="63.5591" gradientUnits="userSpaceOnUse">
<stop stop-color="white" stop-opacity="0.25"/>
<stop offset="1" stop-color="white" stop-opacity="0"/>
</linearGradient>
<linearGradient id="paint5_linear_559_3059" x1="42.8301" y1="51.1582" x2="14.3696" y2="76.3129" gradientUnits="userSpaceOnUse">
<stop stop-color="white" stop-opacity="0.25"/>
<stop offset="1" stop-color="white" stop-opacity="0"/>
</linearGradient>
<linearGradient id="paint6_linear_559_3059" x1="43.123" y1="79.835" x2="29.4379" y2="99.6468" gradientUnits="userSpaceOnUse">
<stop stop-color="white" stop-opacity="0.25"/>
<stop offset="1" stop-color="white" stop-opacity="0"/>
</linearGradient>
<linearGradient id="paint7_linear_559_3059" x1="29.5957" y1="5.53906" x2="78.2792" y2="47.7517" gradientUnits="userSpaceOnUse">
<stop stop-color="white" stop-opacity="0.25"/>
<stop offset="1" stop-color="white" stop-opacity="0"/>
</linearGradient>
<linearGradient id="paint8_linear_559_3059" x1="44.2227" y1="16.1641" x2="51.4629" y2="27.5123" gradientUnits="userSpaceOnUse">
<stop stop-color="white" stop-opacity="0.25"/>
<stop offset="1" stop-color="white" stop-opacity="0"/>
</linearGradient>
<linearGradient id="paint9_linear_559_3059" x1="41.8809" y1="23.7637" x2="55.5935" y2="40.8201" gradientUnits="userSpaceOnUse">
<stop stop-color="white" stop-opacity="0.25"/>
<stop offset="1" stop-color="white" stop-opacity="0"/>
</linearGradient>
</defs>
</svg>
