<svg width="101" height="100" viewBox="0 0 101 100" fill="none" xmlns="http://www.w3.org/2000/svg">
<path d="M20.8594 45.2712V24.0219C20.8591 23.4556 20.9709 22.8948 21.1882 22.3718C21.4055 21.8488 21.7241 21.374 22.1257 20.9746C22.5272 20.5752 23.0038 20.2591 23.5279 20.0446C24.0521 19.83 24.6135 19.7213 25.1799 19.7245C43.1525 19.8303 61.2801 19.3246 79.2474 19.8038C80.367 19.835 81.4302 20.3016 82.211 21.1045C82.9918 21.9073 83.4287 22.9831 83.4287 24.103V31.3605" fill="url(#paint0_linear_559_3081)"/>
<path d="M52.9955 73.8368V55.2075H36.2422" fill="url(#paint1_linear_559_3081)"/>
<path d="M83.4345 65.6396V77.8518C83.4345 78.763 83.0725 79.637 82.4281 80.2813C81.7838 80.9256 80.9098 81.2876 79.9985 81.2876H66.0469" fill="url(#paint2_linear_559_3081)"/>
<path d="M20.8594 45.2712V24.0219C20.8591 23.4556 20.9709 22.8948 21.1882 22.3718C21.4055 21.8488 21.7241 21.374 22.1257 20.9746C22.5272 20.5752 23.0038 20.2591 23.5279 20.0446C24.0521 19.83 24.6135 19.7213 25.1799 19.7245C43.1525 19.8303 61.2801 19.3246 79.2474 19.8038C80.367 19.835 81.4302 20.3016 82.211 21.1045C82.9918 21.9073 83.4287 22.9831 83.4287 24.103V31.3605L83.4345 65.6396V77.8518C83.4345 78.763 83.0725 79.637 82.4281 80.2813C81.7838 80.9256 80.9098 81.2876 79.9985 81.2876H66.0469L52.9955 73.8368V55.2075H36.2422L20.8594 45.2712Z" fill="url(#paint3_linear_559_3081)"/>
<path d="M52.9955 73.8368V55.2075H36.2422L20.8594 45.2712V81.2876H66.0469L52.9955 73.8368Z" fill="url(#paint4_linear_559_3081)"/>
<path d="M41.5509 81.2891H39.0664" stroke="white" stroke-width="0.880996" stroke-miterlimit="10"/>
<path d="M36.8919 81.2891H24.9102H36.8919Z" fill="white"/>
<path d="M36.8919 81.2891H24.9102" stroke="white" stroke-width="0.880996" stroke-miterlimit="10" stroke-dasharray="4.36 2.18"/>
<path d="M23.8204 81.2891H21.3359V78.8047" stroke="#151616" stroke-width="1.42721" stroke-miterlimit="10"/>
<path d="M21.3359 76.1341V69.458V76.1341Z" fill="white"/>
<path d="M21.3359 76.1341V69.458" stroke="white" stroke-width="0.880996" stroke-miterlimit="10" stroke-dasharray="5.34 2.67"/>
<path d="M21.3359 68.124V65.6396" stroke="white" stroke-width="0.880996" stroke-miterlimit="10"/>
<g filter="url(#filter0_b_559_3081)">
<path d="M21.2952 61.0447L37.4793 50.7337L21.1842 40.4209L5 50.6227L21.2952 61.0447Z" fill="#6BA8F8" fill-opacity="0.35"/>
<path d="M21.0258 61.4659L21.2946 61.6379L21.5638 61.4664L37.748 51.1554L38.4121 50.7323L37.7467 50.3112L21.4515 39.9984L21.1847 39.8295L20.9175 39.9979L4.73337 50.1997L4.06722 50.6196L4.7306 51.0439L21.0258 61.4659Z" stroke="url(#paint5_linear_559_3081)" stroke-linecap="round"/>
</g>
<g filter="url(#filter1_b_559_3081)">
<path d="M46.4998 88.7402H58.9609C62.3221 88.7402 65.0469 86.0155 65.0469 82.6544V79.9234C65.0469 76.5623 62.3221 73.8376 58.9609 73.8376H46.4998C43.1386 73.8376 40.4138 76.5623 40.4138 79.9234V82.6544C40.4138 86.0155 43.1386 88.7402 46.4998 88.7402Z" fill="#6BA8F8" fill-opacity="0.35"/>
<path d="M46.4998 89.2402H58.9609C62.5982 89.2402 65.5469 86.2917 65.5469 82.6544V79.9234C65.5469 76.2861 62.5982 73.3376 58.9609 73.3376H46.4998C42.8625 73.3376 39.9138 76.2861 39.9138 79.9234V82.6544C39.9138 86.2917 42.8625 89.2402 46.4998 89.2402Z" stroke="white" stroke-opacity="0.8" stroke-linecap="round"/>
</g>
<g filter="url(#filter2_b_559_3081)">
<mask id="path-13-outside-1_559_3081" maskUnits="userSpaceOnUse" x="69.5" y="57.0928" width="29" height="12" fill="black">
<rect fill="white" x="69.5" y="57.0928" width="29" height="12"/>
<path d="M96.6114 58.098V63.7469C96.6114 65.9476 90.765 67.7325 83.5548 67.7325C76.3446 67.7325 70.5 65.9476 70.5 63.7469V58.0928"/>
</mask>
<path d="M96.6114 58.098V63.7469C96.6114 65.9476 90.765 67.7325 83.5548 67.7325C76.3446 67.7325 70.5 65.9476 70.5 63.7469V58.0928" fill="#6BA8F8" fill-opacity="0.35"/>
<path d="M97.6114 58.098C97.6114 57.5458 97.1637 57.098 96.6114 57.098C96.0591 57.098 95.6114 57.5458 95.6114 58.098H97.6114ZM71.5 58.0928C71.5 57.5405 71.0523 57.0928 70.5 57.0928C69.9477 57.0928 69.5 57.5405 69.5 58.0928H71.5ZM95.6114 58.098V63.7469H97.6114V58.098H95.6114ZM95.6114 63.7469C95.6114 63.8201 95.5595 64.0834 95.0001 64.4871C94.4638 64.8741 93.6234 65.264 92.4949 65.6085C90.2504 66.2937 87.0893 66.7325 83.5548 66.7325V68.7325C87.2305 68.7325 90.5976 68.2788 93.0789 67.5214C94.3133 67.1445 95.3851 66.6756 96.1704 66.109C96.9324 65.5591 97.6114 64.7741 97.6114 63.7469H95.6114ZM83.5548 66.7325C80.0203 66.7325 76.8596 66.2937 74.6156 65.6085C73.4874 65.2641 72.6472 64.8741 72.1111 64.4872C71.5519 64.0836 71.5 63.8202 71.5 63.7469H69.5C69.5 64.7739 70.1787 65.5589 70.9406 66.1089C71.7257 66.6756 72.7973 67.1445 74.0316 67.5214C76.5124 68.2788 79.8791 68.7325 83.5548 68.7325V66.7325ZM71.5 63.7469V58.0928H69.5V63.7469H71.5Z" fill="white" fill-opacity="0.6" mask="url(#path-13-outside-1_559_3081)"/>
</g>
<g filter="url(#filter3_b_559_3081)">
<path d="M83.5587 61.8119C90.7687 61.8119 96.6135 60.0275 96.6135 57.8264C96.6135 55.6252 90.7687 53.8408 83.5587 53.8408C76.3487 53.8408 70.5039 55.6252 70.5039 57.8264C70.5039 60.0275 76.3487 61.8119 83.5587 61.8119Z" fill="#6BA8F8" fill-opacity="0.35"/>
<path d="M83.5587 62.3119C87.199 62.3119 90.5142 61.8621 92.9359 61.1228C94.1436 60.7541 95.1574 60.3049 95.8802 59.7832C96.5916 59.2697 97.1135 58.6151 97.1135 57.8264C97.1135 57.0377 96.5916 56.383 95.8802 55.8696C95.1574 55.3478 94.1436 54.8987 92.9359 54.53C90.5142 53.7906 87.199 53.3408 83.5587 53.3408C79.9184 53.3408 76.6032 53.7906 74.1816 54.53C72.9738 54.8987 71.9601 55.3478 71.2372 55.8696C70.5259 56.383 70.0039 57.0377 70.0039 57.8264C70.0039 58.6151 70.5259 59.2697 71.2372 59.7832C71.9601 60.3049 72.9738 60.7541 74.1816 61.1228C76.6032 61.8621 79.9184 62.3119 83.5587 62.3119Z" stroke="white" stroke-opacity="0.6" stroke-linecap="round"/>
</g>
<g filter="url(#filter4_b_559_3081)">
<mask id="path-17-outside-2_559_3081" maskUnits="userSpaceOnUse" x="69.5" y="47.834" width="29" height="12" fill="black">
<rect fill="white" x="69.5" y="47.834" width="29" height="12"/>
<path d="M96.6114 48.834V54.4881C96.6114 56.6888 90.765 58.4737 83.5548 58.4737C76.3446 58.4737 70.5 56.6888 70.5 54.4881V48.834"/>
</mask>
<path d="M96.6114 48.834V54.4881C96.6114 56.6888 90.765 58.4737 83.5548 58.4737C76.3446 58.4737 70.5 56.6888 70.5 54.4881V48.834" fill="#6BA8F8" fill-opacity="0.35"/>
<path d="M97.6114 48.834C97.6114 48.2817 97.1637 47.834 96.6114 47.834C96.0591 47.834 95.6114 48.2817 95.6114 48.834H97.6114ZM71.5 48.834C71.5 48.2817 71.0523 47.834 70.5 47.834C69.9477 47.834 69.5 48.2817 69.5 48.834H71.5ZM95.6114 48.834V54.4881H97.6114V48.834H95.6114ZM95.6114 54.4881C95.6114 54.5613 95.5595 54.8247 95.0001 55.2284C94.4638 55.6153 93.6234 56.0052 92.4949 56.3497C90.2504 57.0349 87.0893 57.4737 83.5548 57.4737V59.4737C87.2305 59.4737 90.5976 59.02 93.0789 58.2626C94.3133 57.8858 95.3851 57.4168 96.1704 56.8502C96.9324 56.3003 97.6114 55.5153 97.6114 54.4881H95.6114ZM83.5548 57.4737C80.0203 57.4737 76.8596 57.0349 74.6156 56.3497C73.4874 56.0053 72.6472 55.6154 72.1111 55.2284C71.5519 54.8248 71.5 54.5614 71.5 54.4881H69.5C69.5 55.5151 70.1787 56.3002 70.9406 56.8501C71.7257 57.4168 72.7973 57.8857 74.0316 58.2626C76.5124 59.02 79.8791 59.4737 83.5548 59.4737V57.4737ZM71.5 54.4881V48.834H69.5V54.4881H71.5Z" fill="white" fill-opacity="0.6" mask="url(#path-17-outside-2_559_3081)"/>
</g>
<g filter="url(#filter5_b_559_3081)">
<path d="M83.5587 52.5466C90.7687 52.5466 96.6135 50.8979 96.6135 48.8641C96.6135 46.8304 90.7687 45.1816 83.5587 45.1816C76.3487 45.1816 70.5039 46.8304 70.5039 48.8641C70.5039 50.8979 76.3487 52.5466 83.5587 52.5466Z" fill="#6BA8F8" fill-opacity="0.35"/>
<path d="M83.5587 53.0466C87.1961 53.0466 90.5077 52.6313 92.9256 51.9493C94.1311 51.6092 95.143 51.1951 95.865 50.7135C96.5683 50.2445 97.1135 49.6294 97.1135 48.8641C97.1135 48.0989 96.5683 47.4838 95.865 47.0148C95.143 46.5332 94.1311 46.1191 92.9256 45.779C90.5077 45.0969 87.1961 44.6816 83.5587 44.6816C79.9213 44.6816 76.6098 45.0969 74.1918 45.779C72.9863 46.1191 71.9744 46.5332 71.2524 47.0148C70.5491 47.4838 70.0039 48.0989 70.0039 48.8641C70.0039 49.6294 70.5491 50.2445 71.2524 50.7135C71.9744 51.1951 72.9863 51.6092 74.1918 51.9493C76.6098 52.6313 79.9213 53.0466 83.5587 53.0466Z" stroke="white" stroke-opacity="0.6" stroke-linecap="round"/>
</g>
<g filter="url(#filter6_b_559_3081)">
<mask id="path-21-outside-3_559_3081" maskUnits="userSpaceOnUse" x="69.5" y="38.5693" width="29" height="12" fill="black">
<rect fill="white" x="69.5" y="38.5693" width="29" height="12"/>
<path d="M96.6114 39.5693V45.2235C96.6114 47.4242 90.765 49.209 83.5548 49.209C76.3446 49.209 70.5 47.4242 70.5 45.2235V39.5693"/>
</mask>
<path d="M96.6114 39.5693V45.2235C96.6114 47.4242 90.765 49.209 83.5548 49.209C76.3446 49.209 70.5 47.4242 70.5 45.2235V39.5693" fill="#6BA8F8" fill-opacity="0.35"/>
<path d="M97.6114 39.5693C97.6114 39.0171 97.1637 38.5693 96.6114 38.5693C96.0591 38.5693 95.6114 39.0171 95.6114 39.5693H97.6114ZM71.5 39.5693C71.5 39.0171 71.0523 38.5693 70.5 38.5693C69.9477 38.5693 69.5 39.0171 69.5 39.5693H71.5ZM95.6114 39.5693V45.2235H97.6114V39.5693H95.6114ZM95.6114 45.2235C95.6114 45.2967 95.5595 45.56 95.0001 45.9637C94.4638 46.3507 93.6234 46.7406 92.4949 47.0851C90.2504 47.7702 87.0893 48.209 83.5548 48.209V50.209C87.2305 50.209 90.5976 49.7554 93.0789 48.9979C94.3133 48.6211 95.3851 48.1522 96.1704 47.5855C96.9324 47.0356 97.6114 46.2506 97.6114 45.2235H95.6114ZM83.5548 48.209C80.0203 48.209 76.8596 47.7702 74.6156 47.0851C73.4874 46.7406 72.6472 46.3507 72.1111 45.9638C71.5519 45.5601 71.5 45.2968 71.5 45.2235H69.5C69.5 46.2505 70.1787 47.0355 70.9406 47.5855C71.7257 48.1522 72.7973 48.6211 74.0316 48.9979C76.5124 49.7554 79.8791 50.209 83.5548 50.209V48.209ZM71.5 45.2235V39.5693H69.5V45.2235H71.5Z" fill="white" fill-opacity="0.6" mask="url(#path-21-outside-3_559_3081)"/>
</g>
<g filter="url(#filter7_b_559_3081)">
<path d="M83.5587 43.3276C90.7687 43.3276 96.6135 41.5432 96.6135 39.342C96.6135 37.1408 90.7687 35.3564 83.5587 35.3564C76.3487 35.3564 70.5039 37.1408 70.5039 39.342C70.5039 41.5432 76.3487 43.3276 83.5587 43.3276Z" fill="#6BA8F8" fill-opacity="0.35"/>
<path d="M83.5587 43.8276C87.199 43.8276 90.5142 43.3777 92.9359 42.6384C94.1436 42.2697 95.1574 41.8206 95.8802 41.2988C96.5916 40.7854 97.1135 40.1307 97.1135 39.342C97.1135 38.5533 96.5916 37.8987 95.8802 37.3852C95.1574 36.8635 94.1436 36.4143 92.9359 36.0456C90.5142 35.3063 87.199 34.8564 83.5587 34.8564C79.9184 34.8564 76.6032 35.3063 74.1816 36.0456C72.9738 36.4143 71.9601 36.8635 71.2372 37.3852C70.5259 37.8987 70.0039 38.5533 70.0039 39.342C70.0039 40.1307 70.5259 40.7854 71.2372 41.2988C71.9601 41.8206 72.9738 42.2697 74.1816 42.6384C76.6032 43.3777 79.9184 43.8276 83.5587 43.8276Z" stroke="white" stroke-opacity="0.6" stroke-linecap="round"/>
</g>
<path d="M51.4657 81.3376C51.4671 81.1509 51.5392 80.9724 51.666 80.8409C51.7928 80.7095 51.9641 80.6357 52.1428 80.6357H53.0455C53.2241 80.6357 53.3955 80.7095 53.5223 80.8409C53.6492 80.9724 53.7211 81.1509 53.7226 81.3376C53.7226 81.5253 53.6513 81.7053 53.5243 81.838C53.3973 81.9708 53.2251 82.0453 53.0455 82.0453H52.1428C51.9632 82.0453 51.791 81.9708 51.664 81.838C51.537 81.7053 51.4657 81.5253 51.4657 81.3376ZM48.2969 81.3376C48.2984 81.1509 48.3704 80.9724 48.4972 80.8409C48.624 80.7095 48.7954 80.6357 48.974 80.6357H49.8768C50.0554 80.6357 50.2267 80.7095 50.3536 80.8409C50.4804 80.9724 50.5524 81.1509 50.5538 81.3376C50.5538 81.5253 50.4825 81.7053 50.3555 81.838C50.2286 81.9708 50.0563 82.0453 49.8768 82.0453H48.974C48.7944 82.0453 48.6222 81.9708 48.4952 81.838C48.3682 81.7053 48.2969 81.5253 48.2969 81.3376ZM54.85 81.3376C54.8515 81.1509 54.9235 80.9724 55.0503 80.8409C55.1771 80.7095 55.3485 80.6357 55.5271 80.6357H56.4299C56.6085 80.6357 56.7798 80.7095 56.9067 80.8409C57.0335 80.9724 57.1055 81.1509 57.107 81.3376C57.107 81.5253 57.0356 81.7053 56.9087 81.838C56.7817 81.9708 56.6095 82.0453 56.4299 82.0453H55.5271C55.3475 82.0453 55.1753 81.9708 55.0483 81.838C54.9213 81.7053 54.85 81.5253 54.85 81.3376Z" fill="white"/>
<g filter="url(#filter8_b_559_3081)">
<path d="M53.6008 54.455C55.7275 54.1098 57.1717 52.106 56.8265 49.9794C56.4813 47.8528 54.4774 46.4087 52.3507 46.7539C50.224 47.0991 48.7798 49.1029 49.1251 51.2295C49.4703 53.3561 51.4741 54.8002 53.6008 54.455Z" fill="white" fill-opacity="0.35"/>
<path d="M53.6809 54.9486C56.0802 54.5591 57.7095 52.2985 57.32 49.8993C56.9306 47.5001 54.6698 45.8709 52.2706 46.2603C49.8713 46.6498 48.2421 48.9104 48.6315 51.3096C49.021 53.7088 51.2817 55.338 53.6809 54.9486Z" stroke="white" stroke-opacity="0.68" stroke-linecap="round"/>
</g>
<path d="M21.9908 84.9484C24.0195 84.6191 25.3972 82.7076 25.0679 80.6789C24.7386 78.6503 22.827 77.2727 20.7983 77.602C18.7696 77.9313 17.392 79.8428 17.7213 81.8714C18.0506 83.9001 19.9621 85.2777 21.9908 84.9484Z" fill="white" stroke="white" stroke-width="0.880996" stroke-miterlimit="10"/>
<g filter="url(#filter9_b_559_3081)">
<path d="M40.5413 31.2188L63.25 31.2188C64.3546 31.2188 65.25 30.3233 65.25 29.2187V12.4998C65.25 11.3952 64.3546 10.4998 63.25 10.4998L40.5413 10.4998C39.4367 10.4998 38.5413 11.3952 38.5413 12.4998V29.2188C38.5413 30.3233 39.4367 31.2188 40.5413 31.2188Z" fill="#6BA8F8" fill-opacity="0.35"/>
<path d="M40.5413 31.7188L63.25 31.7188C64.6307 31.7188 65.75 30.5995 65.75 29.2187V12.4998C65.75 11.1191 64.6307 9.99982 63.25 9.99982L40.5413 9.99982C39.1606 9.99982 38.0413 11.1191 38.0413 12.4998V29.2188C38.0413 30.5995 39.1606 31.7188 40.5413 31.7188Z" stroke="url(#paint6_linear_559_3081)" stroke-linecap="round"/>
</g>
<path d="M60.5525 15.4365H43.1085C42.8652 15.4365 42.668 15.6337 42.668 15.877C42.668 16.1203 42.8652 16.3175 43.1085 16.3175H60.5525C60.7958 16.3175 60.993 16.1203 60.993 15.877C60.993 15.6337 60.7958 15.4365 60.5525 15.4365Z" fill="white"/>
<path d="M60.6025 19.7363H43.0616C42.8183 19.7363 42.6211 19.9335 42.6211 20.1768C42.6211 20.4201 42.8183 20.6173 43.0616 20.6173H60.6025C60.8458 20.6173 61.043 20.4201 61.043 20.1768C61.043 19.9335 60.8458 19.7363 60.6025 19.7363Z" fill="white"/>
<defs>
<filter id="filter0_b_559_3081" x="-20.8652" y="15.2383" width="84.2109" height="70.9932" filterUnits="userSpaceOnUse" color-interpolation-filters="sRGB">
<feFlood flood-opacity="0" result="BackgroundImageFix"/>
<feGaussianBlur in="BackgroundImageFix" stdDeviation="12"/>
<feComposite in2="SourceAlpha" operator="in" result="effect1_backgroundBlur_559_3081"/>
<feBlend mode="normal" in="SourceGraphic" in2="effect1_backgroundBlur_559_3081" result="shape"/>
</filter>
<filter id="filter1_b_559_3081" x="15.4141" y="48.8379" width="74.6328" height="64.9023" filterUnits="userSpaceOnUse" color-interpolation-filters="sRGB">
<feFlood flood-opacity="0" result="BackgroundImageFix"/>
<feGaussianBlur in="BackgroundImageFix" stdDeviation="12"/>
<feComposite in2="SourceAlpha" operator="in" result="effect1_backgroundBlur_559_3081"/>
<feBlend mode="normal" in="SourceGraphic" in2="effect1_backgroundBlur_559_3081" result="shape"/>
</filter>
<filter id="filter2_b_559_3081" x="45.5" y="33.0928" width="76.1113" height="59.6396" filterUnits="userSpaceOnUse" color-interpolation-filters="sRGB">
<feFlood flood-opacity="0" result="BackgroundImageFix"/>
<feGaussianBlur in="BackgroundImageFix" stdDeviation="12"/>
<feComposite in2="SourceAlpha" operator="in" result="effect1_backgroundBlur_559_3081"/>
<feBlend mode="normal" in="SourceGraphic" in2="effect1_backgroundBlur_559_3081" result="shape"/>
</filter>
<filter id="filter3_b_559_3081" x="45.5039" y="28.8408" width="76.1094" height="57.9707" filterUnits="userSpaceOnUse" color-interpolation-filters="sRGB">
<feFlood flood-opacity="0" result="BackgroundImageFix"/>
<feGaussianBlur in="BackgroundImageFix" stdDeviation="12"/>
<feComposite in2="SourceAlpha" operator="in" result="effect1_backgroundBlur_559_3081"/>
<feBlend mode="normal" in="SourceGraphic" in2="effect1_backgroundBlur_559_3081" result="shape"/>
</filter>
<filter id="filter4_b_559_3081" x="45.5" y="23.834" width="76.1113" height="59.6396" filterUnits="userSpaceOnUse" color-interpolation-filters="sRGB">
<feFlood flood-opacity="0" result="BackgroundImageFix"/>
<feGaussianBlur in="BackgroundImageFix" stdDeviation="12"/>
<feComposite in2="SourceAlpha" operator="in" result="effect1_backgroundBlur_559_3081"/>
<feBlend mode="normal" in="SourceGraphic" in2="effect1_backgroundBlur_559_3081" result="shape"/>
</filter>
<filter id="filter5_b_559_3081" x="45.5039" y="20.1816" width="76.1094" height="57.3652" filterUnits="userSpaceOnUse" color-interpolation-filters="sRGB">
<feFlood flood-opacity="0" result="BackgroundImageFix"/>
<feGaussianBlur in="BackgroundImageFix" stdDeviation="12"/>
<feComposite in2="SourceAlpha" operator="in" result="effect1_backgroundBlur_559_3081"/>
<feBlend mode="normal" in="SourceGraphic" in2="effect1_backgroundBlur_559_3081" result="shape"/>
</filter>
<filter id="filter6_b_559_3081" x="45.5" y="14.5693" width="76.1113" height="59.6396" filterUnits="userSpaceOnUse" color-interpolation-filters="sRGB">
<feFlood flood-opacity="0" result="BackgroundImageFix"/>
<feGaussianBlur in="BackgroundImageFix" stdDeviation="12"/>
<feComposite in2="SourceAlpha" operator="in" result="effect1_backgroundBlur_559_3081"/>
<feBlend mode="normal" in="SourceGraphic" in2="effect1_backgroundBlur_559_3081" result="shape"/>
</filter>
<filter id="filter7_b_559_3081" x="45.5039" y="10.3564" width="76.1094" height="57.9707" filterUnits="userSpaceOnUse" color-interpolation-filters="sRGB">
<feFlood flood-opacity="0" result="BackgroundImageFix"/>
<feGaussianBlur in="BackgroundImageFix" stdDeviation="12"/>
<feComposite in2="SourceAlpha" operator="in" result="effect1_backgroundBlur_559_3081"/>
<feBlend mode="normal" in="SourceGraphic" in2="effect1_backgroundBlur_559_3081" result="shape"/>
</filter>
<filter id="filter8_b_559_3081" x="24.0742" y="21.7031" width="57.8027" height="57.8027" filterUnits="userSpaceOnUse" color-interpolation-filters="sRGB">
<feFlood flood-opacity="0" result="BackgroundImageFix"/>
<feGaussianBlur in="BackgroundImageFix" stdDeviation="12"/>
<feComposite in2="SourceAlpha" operator="in" result="effect1_backgroundBlur_559_3081"/>
<feBlend mode="normal" in="SourceGraphic" in2="effect1_backgroundBlur_559_3081" result="shape"/>
</filter>
<filter id="filter9_b_559_3081" x="13.541" y="-14.5" width="76.709" height="70.7188" filterUnits="userSpaceOnUse" color-interpolation-filters="sRGB">
<feFlood flood-opacity="0" result="BackgroundImageFix"/>
<feGaussianBlur in="BackgroundImageFix" stdDeviation="12"/>
<feComposite in2="SourceAlpha" operator="in" result="effect1_backgroundBlur_559_3081"/>
<feBlend mode="normal" in="SourceGraphic" in2="effect1_backgroundBlur_559_3081" result="shape"/>
</filter>
<linearGradient id="paint0_linear_559_3081" x1="20.8594" y1="50.4407" x2="83.4345" y2="50.4407" gradientUnits="userSpaceOnUse">
<stop stop-color="#E7C5FF"/>
<stop offset="1" stop-color="#0049C9"/>
</linearGradient>
<linearGradient id="paint1_linear_559_3081" x1="20.8594" y1="50.4407" x2="83.4345" y2="50.4407" gradientUnits="userSpaceOnUse">
<stop stop-color="#E7C5FF"/>
<stop offset="1" stop-color="#0049C9"/>
</linearGradient>
<linearGradient id="paint2_linear_559_3081" x1="20.8594" y1="50.4407" x2="83.4345" y2="50.4407" gradientUnits="userSpaceOnUse">
<stop stop-color="#E7C5FF"/>
<stop offset="1" stop-color="#0049C9"/>
</linearGradient>
<linearGradient id="paint3_linear_559_3081" x1="20.8594" y1="50.4407" x2="83.4345" y2="50.4407" gradientUnits="userSpaceOnUse">
<stop stop-color="#E7C5FF"/>
<stop offset="1" stop-color="#0049C9"/>
</linearGradient>
<linearGradient id="paint4_linear_559_3081" x1="20.8594" y1="50.4407" x2="83.4345" y2="50.4407" gradientUnits="userSpaceOnUse">
<stop stop-color="#E7C5FF"/>
<stop offset="1" stop-color="#0049C9"/>
</linearGradient>
<linearGradient id="paint5_linear_559_3081" x1="5" y1="40.4209" x2="23.683" y2="69.814" gradientUnits="userSpaceOnUse">
<stop stop-color="white" stop-opacity="0.25"/>
<stop offset="1" stop-color="white" stop-opacity="0"/>
</linearGradient>
<linearGradient id="paint6_linear_559_3081" x1="65.25" y1="31.2188" x2="45.1664" y2="5.35526" gradientUnits="userSpaceOnUse">
<stop stop-color="white" stop-opacity="0.25"/>
<stop offset="1" stop-color="white" stop-opacity="0"/>
</linearGradient>
</defs>
</svg>
