<svg width="101" height="100" viewBox="0 0 101 100" fill="none" xmlns="http://www.w3.org/2000/svg">
<path d="M72.17 13.9424C68.515 10.2875 63.8584 7.79856 58.7889 6.79022C53.7194 5.78188 48.4648 6.29943 43.6895 8.27747C38.9141 10.2555 34.8326 13.6052 31.961 17.9029C29.0893 22.2006 27.5566 27.2533 27.5566 32.4221C27.5566 37.5909 29.0893 42.6436 31.961 46.9413C34.8326 51.239 38.9141 54.5886 43.6895 56.5667C48.4648 58.5447 53.7194 59.0623 58.7889 58.0539C63.8584 57.0456 68.515 54.5566 72.17 50.9018C74.5968 48.475 76.5218 45.594 77.8352 42.4232C79.1486 39.2525 79.8246 35.8541 79.8246 32.4221C79.8246 28.9901 79.1486 25.5917 77.8352 22.4209C76.5218 19.2502 74.5968 16.3691 72.17 13.9424ZM69.1393 47.8696C66.0841 50.9246 62.1916 53.0051 57.954 53.848C53.7164 54.6908 49.3241 54.2581 45.3324 52.6047C41.3407 50.9512 37.9289 48.1512 35.5285 44.5587C33.1281 40.9663 31.847 36.7427 31.847 32.4221C31.847 28.1015 33.1281 23.8779 35.5285 20.2854C37.9289 16.693 41.3407 13.893 45.3324 12.2395C49.3241 10.586 53.7164 10.1534 57.954 10.9962C62.1916 11.839 66.0841 13.9195 69.1393 16.9746C71.168 19.0031 72.7772 21.4114 73.8751 24.0619C74.973 26.7124 75.5381 29.5532 75.5381 32.4221C75.5381 35.291 74.973 38.1318 73.8751 40.7823C72.7772 43.4328 71.168 45.841 69.1393 47.8696Z" fill="url(#paint0_linear_559_3172)"/>
<path d="M69.1393 47.8696C66.0841 50.9246 62.1916 53.0051 57.954 53.848C53.7164 54.6908 49.3241 54.2581 45.3324 52.6047C41.3407 50.9512 37.9289 48.1512 35.5285 44.5587C33.1281 40.9663 31.847 36.7427 31.847 32.4221C31.847 28.1015 33.1281 23.8779 35.5285 20.2854C37.9289 16.693 41.3407 13.893 45.3324 12.2395C49.3241 10.586 53.7164 10.1534 57.954 10.9962C62.1916 11.839 66.0841 13.9195 69.1393 16.9746C71.168 19.0031 72.7772 21.4114 73.8751 24.0619C74.973 26.7124 75.5381 29.5532 75.5381 32.4221C75.5381 35.291 74.973 38.1318 73.8751 40.7823C72.7772 43.4328 71.168 45.841 69.1393 47.8696Z" fill="url(#paint1_linear_559_3172)"/>
<g filter="url(#filter0_f_559_3172)">
<path d="M41.4499 56.6201C51.3612 56.6201 59.3959 55.9457 59.3959 55.1137C59.3959 54.2818 51.3612 53.6074 41.4499 53.6074C31.5386 53.6074 23.5039 54.2818 23.5039 55.1137C23.5039 55.9457 31.5386 56.6201 41.4499 56.6201Z" fill="url(#paint2_linear_559_3172)" fill-opacity="0.1"/>
</g>
<g filter="url(#filter1_b_559_3172)">
<path d="M68.3223 61.8183L62.9727 67.168L71.8638 76.0591L77.2135 70.7095L68.3223 61.8183Z" fill="#6BA8F8" fill-opacity="0.35"/>
<path d="M68.6759 61.4647L68.3223 61.1112L67.9688 61.4647L62.6191 66.8144L62.2655 67.168L62.6191 67.5215L71.5103 76.4127L71.8638 76.7662L72.2174 76.4127L77.567 71.063L77.9206 70.7095L77.567 70.3559L68.6759 61.4647Z" stroke="url(#paint3_linear_559_3172)" stroke-linecap="round"/>
</g>
<g filter="url(#filter2_b_559_3172)">
<path d="M92.9071 83.8224C94.2695 85.1869 94.3894 87.4044 93.0948 88.7009L89.6607 92.1351C88.3661 93.4297 86.1466 93.3098 84.7841 91.9473L72.6156 79.7789C71.2512 78.4144 71.1952 76.2608 72.4918 74.9662L75.926 71.532C77.2205 70.2355 79.3761 70.2914 80.7386 71.6539L92.9071 83.8224Z" fill="#6BA8F8" fill-opacity="0.35"/>
<path d="M93.2606 83.4688L93.2609 83.4691C94.7888 84.9993 94.9663 87.5342 93.4487 89.0542L93.4484 89.0545L90.0142 92.4887C88.4962 94.0067 85.9588 93.8291 84.4305 92.3009L72.2621 80.1324C70.7199 78.5903 70.6292 76.1194 72.1385 74.6124M93.2606 83.4688L72.4918 74.9662M93.2606 83.4688L81.0922 71.3004C79.5518 69.76 77.079 69.6696 75.5721 71.1788M93.2606 83.4688L75.926 71.532M72.1385 74.6124L72.4918 74.9662M72.1385 74.6124L72.1382 74.6127L72.4918 74.9662M72.1385 74.6124L75.5721 71.1788M72.4918 74.9662L75.926 71.532M75.5721 71.1788L75.926 71.532M75.5721 71.1788L75.5724 71.1785L75.926 71.532" stroke="url(#paint4_linear_559_3172)" stroke-linecap="round"/>
</g>
<path d="M75.3477 77.8389L86.7589 89.2522" stroke="white" stroke-width="1.1181" stroke-miterlimit="10" stroke-linecap="round"/>
<g filter="url(#filter3_b_559_3172)">
<path d="M17.0262 65.1774C12.3767 60.5276 9.21046 54.6036 7.92777 48.1543C6.64508 41.7051 7.30359 35.0203 9.82003 28.9454C12.3365 22.8704 16.5978 17.678 22.0652 14.0249C27.5326 10.3717 33.9605 8.42188 40.536 8.42188C47.1116 8.42188 53.5395 10.3717 59.0069 14.0249C64.4743 17.678 68.7356 22.8704 71.2521 28.9454C73.7685 35.0203 74.427 41.7051 73.1443 48.1543C71.8616 54.6036 68.6953 60.5276 64.0458 65.1774C60.9587 68.2651 57.2935 70.7144 53.2597 72.3855C49.2258 74.0566 44.9023 74.9167 40.536 74.9167C36.1698 74.9167 31.8462 74.0566 27.8124 72.3855C23.7785 70.7144 20.1134 68.2651 17.0262 65.1774Z" fill="#6BA8F8" fill-opacity="0.35"/>
<path d="M7.43738 48.2519C8.73936 54.7981 11.9533 60.8113 16.6727 65.5309C19.8062 68.665 23.5265 71.1512 27.621 72.8474C31.7155 74.5436 36.1041 75.4167 40.536 75.4167C44.968 75.4167 49.3565 74.5436 53.4511 72.8474C57.5456 71.1512 61.2658 68.665 64.3994 65.5309C69.1188 60.8113 72.3327 54.7981 73.6347 48.2519C74.9367 41.7057 74.2683 34.9204 71.714 28.754C69.1597 22.5877 64.8343 17.3172 59.2847 13.6092C53.735 9.90107 47.2105 7.92188 40.536 7.92188C33.8616 7.92188 27.337 9.90107 21.7874 13.6092C16.2378 17.3172 11.9124 22.5877 9.35809 28.754C6.80381 34.9204 6.1354 41.7057 7.43738 48.2519Z" stroke="url(#paint5_linear_559_3172)" stroke-linecap="round"/>
</g>
<g filter="url(#filter4_b_559_3172)">
<path d="M20.8444 61.3579C16.9504 57.4636 14.2986 52.5021 13.2244 47.1008C12.1501 41.6994 12.7016 36.1008 14.8092 31.0129C16.9168 25.925 20.4858 21.5764 25.0648 18.5168C29.6439 15.4572 35.0273 13.8242 40.5345 13.8242C46.0416 13.8242 51.425 15.4572 56.0041 18.5168C60.5831 21.5764 64.1521 25.925 66.2597 31.0129C68.3673 36.1008 68.9188 41.6994 67.8445 47.1008C66.7703 52.5021 64.1185 57.4636 60.2245 61.3579C55.0022 66.5798 47.9196 69.5134 40.5345 69.5134C33.1493 69.5134 26.0666 66.5798 20.8444 61.3579Z" fill="#6BA8F8" fill-opacity="0.35"/>
<path d="M20.4908 61.7115L20.4908 61.7115C25.8069 67.0271 33.0167 70.0134 40.5345 70.0134C48.0522 70.0134 55.262 67.0271 60.5781 61.7115L60.5781 61.7115C64.542 57.7473 67.2414 52.6967 68.3349 47.1983C69.4285 41.7 68.867 36.0009 66.7216 30.8216C64.5762 25.6423 60.9431 21.2156 56.2819 18.1011C51.6206 14.9866 46.1405 13.3242 40.5345 13.3242C34.9284 13.3242 29.4483 14.9866 24.787 18.1011C20.1258 21.2156 16.4927 25.6423 14.3473 30.8216C12.2019 36.0008 11.6404 41.7 12.734 47.1983C13.8275 52.6967 16.5269 57.7473 20.4908 61.7115Z" stroke="url(#paint6_linear_559_3172)" stroke-linecap="round"/>
</g>
<g filter="url(#filter5_b_559_3172)">
<path d="M32.6018 92.0958C32.9886 92.0949 33.3703 92.0082 33.7195 91.8419C34.0688 91.6757 34.3768 91.4341 34.6214 91.1345C34.8659 90.8348 35.041 90.4847 35.134 90.1093C35.2269 89.7338 35.2355 89.3424 35.1589 88.9633C33.7845 82.081 28.1667 75.9238 21.4422 75.9238C14.7177 75.9238 9.10195 82.081 7.72748 88.9633C7.65095 89.3424 7.65948 89.7338 7.75244 90.1093C7.8454 90.4847 8.02048 90.8348 8.26506 91.1345C8.50965 91.4341 8.81765 91.6757 9.16688 91.8419C9.51611 92.0082 9.89787 92.0949 10.2846 92.0958H32.6018Z" fill="#6BA8F8" fill-opacity="0.35"/>
<path d="M32.6018 92.5958L32.603 92.5958C33.0637 92.5947 33.5184 92.4914 33.9344 92.2934C34.3504 92.0954 34.7173 91.8076 35.0087 91.4506C35.3 91.0937 35.5086 90.6766 35.6193 90.2294C35.73 89.7825 35.7402 89.3167 35.6492 88.8654C34.245 81.8341 28.4821 75.4238 21.4422 75.4238C14.4024 75.4238 8.64163 81.8339 7.23726 88.8649C7.14621 89.3163 7.15641 89.7824 7.2671 90.2294C7.37783 90.6766 7.58638 91.0937 7.87773 91.4506C8.16909 91.8076 8.53598 92.0954 8.95197 92.2934C9.36797 92.4914 9.82272 92.5947 10.2835 92.5958H10.2846L32.6018 92.5958Z" stroke="white" stroke-opacity="0.5" stroke-linecap="round"/>
</g>
<path d="M18.459 91.6789L20.4508 82.5091L18.6248 78.4336H24.1027L22.1109 82.5091L24.4343 91.6789H18.459Z" fill="white" stroke="white" stroke-width="0.374573" stroke-miterlimit="10"/>
<g filter="url(#filter6_b_559_3172)">
<path d="M20.5987 74.9973C22.2007 75.0804 23.7903 74.6757 25.1578 73.8369C26.5252 72.998 27.6061 71.7643 28.258 70.2985C28.9099 68.8327 29.1021 67.2037 28.8092 65.6264C28.5163 64.0491 27.7521 62.5977 26.6174 61.4637C25.4828 60.3296 24.031 59.5662 22.4536 59.2742C20.8762 58.9821 19.2473 59.1752 17.7818 59.8278C16.3163 60.4805 15.0832 61.5621 14.2451 62.93C13.4069 64.2978 13.0031 65.8876 13.087 67.4897C13.19 69.4481 14.0146 71.299 15.4017 72.6854C16.7888 74.0718 18.6402 74.8954 20.5987 74.9973Z" fill="#6BA8F8" fill-opacity="0.35"/>
<path d="M20.5727 75.4966L20.5728 75.4966C22.2758 75.5849 23.9656 75.1548 25.4192 74.2631C26.8728 73.3713 28.0219 72.0598 28.7149 70.5016C29.4078 68.9435 29.6121 67.2118 29.3008 65.5351C28.9894 63.8585 28.1771 62.3156 26.9709 61.11C25.7647 59.9045 24.2214 59.093 22.5446 58.7825C20.8678 58.4721 19.1362 58.6773 17.5784 59.3711C16.0206 60.0649 14.7097 61.2147 13.8187 62.6687C12.9278 64.1228 12.4985 65.8128 12.5877 67.5158L12.5877 67.5159C12.6972 69.5978 13.5738 71.5653 15.0483 73.039C16.5228 74.5128 18.4908 75.3883 20.5727 75.4966Z" stroke="white" stroke-opacity="0.5" stroke-linecap="round"/>
</g>
<g opacity="0.8">
<path d="M39.5059 35.6376C40.1193 35.3742 40.78 35.2383 41.4477 35.2383C42.1154 35.2383 42.7761 35.3742 43.3895 35.6376C44.138 35.9651 44.7965 36.4681 45.3091 37.1042C45.8217 37.7403 46.1734 38.4906 46.3343 39.2916C46.4019 39.6283 46.436 39.971 46.4361 40.3144" stroke="white" stroke-miterlimit="10" stroke-linecap="round"/>
<path d="M39.1309 42.3712C39.1309 42.2034 39.1488 39.9739 39.1788 39.814C39.2403 39.5036 39.3611 39.2078 39.5344 38.943C39.6192 38.8135 39.7162 38.6924 39.8241 38.5814C39.9312 38.4716 40.0482 38.3719 40.1737 38.2837C40.2991 38.1955 40.433 38.1199 40.5733 38.058C40.7158 37.9955 40.8644 37.948 41.0168 37.9162C41.3316 37.8496 41.6569 37.8496 41.9717 37.9162C42.124 37.948 42.2727 37.9955 42.4152 38.058C42.5555 38.1199 42.6893 38.1955 42.8148 38.2837C42.9406 38.3714 43.0577 38.4711 43.1644 38.5814C43.2723 38.6924 43.3693 38.8135 43.454 38.943C43.6274 39.2078 43.7481 39.5036 43.8096 39.814C43.8419 39.9765 43.858 40.1418 43.8576 40.3075C43.8576 40.3075 43.9455 49.2236 40.4214 54.5956" stroke="white" stroke-miterlimit="10" stroke-linecap="round"/>
<path d="M45.8398 33.6973C47.5463 34.8712 48.7302 36.6618 49.1422 38.6917C49.2477 39.2179 49.3012 39.7532 49.302 40.2899" stroke="white" stroke-miterlimit="10" stroke-linecap="round"/>
<path d="M33.5977 40.3075C33.5984 39.7708 33.652 39.2355 33.7575 38.7093C33.8608 38.1961 34.014 37.6943 34.215 37.2109C34.4116 36.7371 34.6538 36.2835 34.9382 35.8565C35.5009 35.0077 36.2211 34.2746 37.0598 33.6969C37.923 33.1051 38.897 32.6938 39.9231 32.4879C40.9492 32.2819 42.0064 32.2854 43.0312 32.4982" stroke="white" stroke-miterlimit="10" stroke-linecap="round"/>
<path d="M35.4102 31.2086C37.1861 29.9852 39.2918 29.3301 41.4484 29.3301C43.605 29.3301 45.7107 29.9852 47.4867 31.2086C48.0614 31.6021 48.5966 32.0503 49.0849 32.5471C50.5844 34.0704 51.6077 35.9975 52.0296 38.0929" stroke="white" stroke-miterlimit="10" stroke-linecap="round"/>
<path d="M30.6484 40.3082C30.6481 39.5655 30.7217 38.8247 30.8682 38.0967C31.2893 36.0008 32.3118 34.0729 33.8109 32.5488" stroke="white" stroke-miterlimit="10" stroke-linecap="round"/>
<path d="M53.2988 32.1875C54.345 33.7634 55.075 35.5274 55.4484 37.3817C55.6415 38.3447 55.7385 39.3244 55.7381 40.3065" stroke="white" stroke-miterlimit="10" stroke-linecap="round"/>
<path d="M41.4492 25.7861C44.3026 25.7836 47.0894 26.6482 49.4403 28.2654C50.2012 28.7869 50.9098 29.381 51.556 30.0394" stroke="white" stroke-miterlimit="10" stroke-linecap="round"/>
<path d="M27.1602 40.3082C27.1526 37.4203 28.0015 34.5949 29.5995 32.1893C30.6246 30.6477 31.9346 29.316 33.4592 28.2657C34.2229 27.7417 35.0358 27.2934 35.8865 26.9271C36.7502 26.5556 37.649 26.2718 38.5695 26.0801" stroke="white" stroke-miterlimit="10" stroke-linecap="round"/>
<path d="M55.6864 43.0654C55.6325 43.8845 55.7663 47.4805 54.0742 51.0326" stroke="white" stroke-miterlimit="10" stroke-linecap="round"/>
<path d="M50.2812 52.2189C50.5689 51.3599 50.9345 49.7976 51.1543 48.9106M51.1543 48.9106C51.374 48.0236 51.5538 47.1126 51.7077 46.2076M51.1543 48.9106C51.374 48.0236 51.5578 47.1206 51.7077 46.2076M51.1543 48.9106C50.9345 49.7976 50.6808 50.6727 50.3951 51.5317M51.7077 46.2076C51.8615 45.3026 51.9694 44.3677 52.0473 43.4307M51.7077 46.2076C51.8582 45.2953 51.9714 44.3697 52.0473 43.4307M52.0473 43.4307C52.1252 42.4938 52.1612 41.5448 52.1612 40.5879C52.1612 41.5442 52.1232 42.4918 52.0473 43.4307Z" stroke="white" stroke-miterlimit="10" stroke-linecap="round"/>
<path d="M49.3001 40.2139C49.3001 41.2367 49.2501 42.2496 49.1562 43.2485" stroke="white" stroke-miterlimit="10" stroke-linecap="round"/>
<path d="M45.0605 49.1746C45.3621 48.2483 45.6142 47.3067 45.8157 46.3537C46.0214 45.3863 46.1762 44.4087 46.2792 43.425C46.386 42.421 46.4393 41.412 46.439 40.4023" stroke="white" stroke-miterlimit="10" stroke-linecap="round"/>
<path d="M38.7483 45.5625C38.5366 46.3916 38.3867 47.4324 38.0791 48.2195C37.7718 49.0017 37.4182 49.7649 37.0202 50.505C36.5865 51.3136 36.109 52.0979 35.5898 52.8544" stroke="white" stroke-miterlimit="10" stroke-linecap="round"/>
<path d="M32.7812 51.6432C33.2338 51.0374 33.6475 50.4035 34.0199 49.7454C34.3955 49.081 34.7291 48.3938 35.0188 47.6877C35.3114 46.9717 35.5577 46.2377 35.7559 45.4901C35.9578 44.7309 36.1107 43.9595 36.2134 43.1807" stroke="white" stroke-miterlimit="10" stroke-linecap="round"/>
<path d="M30.1055 49.9072C30.5384 49.3964 30.9356 48.8564 31.2941 48.291C32.0233 47.1441 32.5882 45.9007 32.9723 44.5971C33.3717 43.2434 33.5735 41.8391 33.5716 40.4277" stroke="white" stroke-miterlimit="10" stroke-linecap="round"/>
<path d="M30.1113 43.8181C30.4625 42.7203 30.6398 41.5744 30.6367 40.4219" stroke="white" stroke-miterlimit="10" stroke-linecap="round"/>
<path d="M26.3438 43.9179C26.5145 43.5644 26.6581 43.1984 26.7733 42.8231C26.892 42.4407 26.9822 42.0501 27.043 41.6544C27.104 41.2483 27.1348 40.8383 27.1349 40.4277" stroke="white" stroke-miterlimit="10" stroke-linecap="round"/>
<path d="M29.2575 45.752C28.8728 46.3603 28.4392 46.9362 27.9609 47.474" stroke="white" stroke-miterlimit="10" stroke-linecap="round"/>
<path d="M36.3703 40.7776C36.3703 40.7776 36.1865 38.1485 38.0325 36.834" stroke="white" stroke-miterlimit="10" stroke-linecap="round"/>
<path d="M48.6519 45.75C48.3205 48.6321 47.561 51.4487 46.3984 54.1067" stroke="white" stroke-miterlimit="10" stroke-linecap="round"/>
<path d="M44.4498 51.4395C44.4498 51.4395 43.317 54.7637 42.9395 55.0215" stroke="white" stroke-miterlimit="10" stroke-linecap="round"/>
<path d="M41.493 40.374C41.493 40.374 42.5738 44.7312 37.6973 54.0348" stroke="white" stroke-miterlimit="10" stroke-linecap="round"/>
<path d="M36.2134 43.1855C36.1107 43.9644 35.9578 44.7358 35.7559 45.495C35.5576 46.2426 35.3114 46.9766 35.0187 47.6925C34.7291 48.3986 34.3955 49.0859 34.0199 49.7502C33.6475 50.4084 33.2338 51.0423 32.7812 51.6481" stroke="white" stroke-miterlimit="10" stroke-linecap="round"/>
</g>
<defs>
<filter id="filter0_f_559_3172" x="21.631" y="51.7346" width="39.6383" height="6.75843" filterUnits="userSpaceOnUse" color-interpolation-filters="sRGB">
<feFlood flood-opacity="0" result="BackgroundImageFix"/>
<feBlend mode="normal" in="SourceGraphic" in2="BackgroundImageFix" result="shape"/>
<feGaussianBlur stdDeviation="0.936434" result="effect1_foregroundBlur_559_3172"/>
</filter>
<filter id="filter1_b_559_3172" x="37.5586" y="36.4043" width="65.0684" height="65.0693" filterUnits="userSpaceOnUse" color-interpolation-filters="sRGB">
<feFlood flood-opacity="0" result="BackgroundImageFix"/>
<feGaussianBlur in="BackgroundImageFix" stdDeviation="12"/>
<feComposite in2="SourceAlpha" operator="in" result="effect1_backgroundBlur_559_3172"/>
<feBlend mode="normal" in="SourceGraphic" in2="effect1_backgroundBlur_559_3172" result="shape"/>
</filter>
<filter id="filter2_b_559_3172" x="46.5547" y="45.5947" width="72.4473" height="72.4473" filterUnits="userSpaceOnUse" color-interpolation-filters="sRGB">
<feFlood flood-opacity="0" result="BackgroundImageFix"/>
<feGaussianBlur in="BackgroundImageFix" stdDeviation="12"/>
<feComposite in2="SourceAlpha" operator="in" result="effect1_backgroundBlur_559_3172"/>
<feBlend mode="normal" in="SourceGraphic" in2="effect1_backgroundBlur_559_3172" result="shape"/>
</filter>
<filter id="filter3_b_559_3172" x="-17.7109" y="-16.5781" width="116.494" height="116.495" filterUnits="userSpaceOnUse" color-interpolation-filters="sRGB">
<feFlood flood-opacity="0" result="BackgroundImageFix"/>
<feGaussianBlur in="BackgroundImageFix" stdDeviation="12"/>
<feComposite in2="SourceAlpha" operator="in" result="effect1_backgroundBlur_559_3172"/>
<feBlend mode="normal" in="SourceGraphic" in2="effect1_backgroundBlur_559_3172" result="shape"/>
</filter>
<filter id="filter4_b_559_3172" x="-12.3105" y="-11.1758" width="105.689" height="105.689" filterUnits="userSpaceOnUse" color-interpolation-filters="sRGB">
<feFlood flood-opacity="0" result="BackgroundImageFix"/>
<feGaussianBlur in="BackgroundImageFix" stdDeviation="12"/>
<feComposite in2="SourceAlpha" operator="in" result="effect1_backgroundBlur_559_3172"/>
<feBlend mode="normal" in="SourceGraphic" in2="effect1_backgroundBlur_559_3172" result="shape"/>
</filter>
<filter id="filter5_b_559_3172" x="-17.3242" y="50.9238" width="77.5352" height="66.1719" filterUnits="userSpaceOnUse" color-interpolation-filters="sRGB">
<feFlood flood-opacity="0" result="BackgroundImageFix"/>
<feGaussianBlur in="BackgroundImageFix" stdDeviation="12"/>
<feComposite in2="SourceAlpha" operator="in" result="effect1_backgroundBlur_559_3172"/>
<feBlend mode="normal" in="SourceGraphic" in2="effect1_backgroundBlur_559_3172" result="shape"/>
</filter>
<filter id="filter6_b_559_3172" x="-11.9238" y="34.1416" width="65.8672" height="65.8662" filterUnits="userSpaceOnUse" color-interpolation-filters="sRGB">
<feFlood flood-opacity="0" result="BackgroundImageFix"/>
<feGaussianBlur in="BackgroundImageFix" stdDeviation="12"/>
<feComposite in2="SourceAlpha" operator="in" result="effect1_backgroundBlur_559_3172"/>
<feBlend mode="normal" in="SourceGraphic" in2="effect1_backgroundBlur_559_3172" result="shape"/>
</filter>
<linearGradient id="paint0_linear_559_3172" x1="27.5566" y1="32.4221" x2="79.8246" y2="32.4221" gradientUnits="userSpaceOnUse">
<stop stop-color="#E7C5FF"/>
<stop offset="1" stop-color="#0049C9"/>
</linearGradient>
<linearGradient id="paint1_linear_559_3172" x1="27.5566" y1="32.4221" x2="79.8246" y2="32.4221" gradientUnits="userSpaceOnUse">
<stop stop-color="#E7C5FF"/>
<stop offset="1" stop-color="#0049C9"/>
</linearGradient>
<linearGradient id="paint2_linear_559_3172" x1="23.5039" y1="55.1137" x2="59.3959" y2="55.1137" gradientUnits="userSpaceOnUse">
<stop stop-color="#E7C5FF"/>
<stop offset="1" stop-color="#0049C9"/>
</linearGradient>
<linearGradient id="paint3_linear_559_3172" x1="62.9727" y1="67.168" x2="75.5502" y2="64.0341" gradientUnits="userSpaceOnUse">
<stop stop-color="white" stop-opacity="0.25"/>
<stop offset="1" stop-color="white" stop-opacity="0"/>
</linearGradient>
<linearGradient id="paint4_linear_559_3172" x1="71.5547" y1="70.5947" x2="94.0123" y2="93.0293" gradientUnits="userSpaceOnUse">
<stop stop-color="white" stop-opacity="0.25"/>
<stop offset="1" stop-color="white" stop-opacity="0"/>
</linearGradient>
<linearGradient id="paint5_linear_559_3172" x1="7.28906" y1="8.42188" x2="73.8176" y2="74.8821" gradientUnits="userSpaceOnUse">
<stop stop-color="white" stop-opacity="0.25"/>
<stop offset="1" stop-color="white" stop-opacity="0"/>
</linearGradient>
<linearGradient id="paint6_linear_559_3172" x1="12.6895" y1="13.8242" x2="68.4068" y2="69.486" gradientUnits="userSpaceOnUse">
<stop stop-color="white" stop-opacity="0.25"/>
<stop offset="1" stop-color="white" stop-opacity="0"/>
</linearGradient>
</defs>
</svg>
