<svg width="100" height="100" viewBox="0 0 100 100" fill="none" xmlns="http://www.w3.org/2000/svg">
<g filter="url(#filter0_b_559_3133)">
<path d="M45.2629 16.8574L79.2569 34.4868V71.7566L46.1296 90.3925L13 71.7566V34.4868L45.2629 16.8574Z" fill="white" fill-opacity="0.35"/>
<path d="M45.2629 16.8574L79.2569 34.4868V71.7566L46.1296 90.3925L13 71.7566V34.4868L45.2629 16.8574Z" stroke="url(#paint0_linear_559_3133)" stroke-linecap="round"/>
</g>
<g filter="url(#filter1_b_559_3133)">
<path d="M45.4368 24.1963L72.6447 38.3066V68.1384L46.1301 83.0532L19.6133 68.1384V38.3066L45.4368 24.1963Z" fill="white" fill-opacity="0.35"/>
<path d="M45.4368 24.1963L72.6447 38.3066V68.1384L46.1301 83.0532L19.6133 68.1384V38.3066L45.4368 24.1963Z" stroke="url(#paint1_linear_559_3133)" stroke-linecap="round"/>
</g>
<path d="M46.1118 71.6341C55.6444 71.6341 63.3721 63.9088 63.3721 54.3791C63.3721 44.8494 55.6444 37.124 46.1118 37.124C36.5793 37.124 28.8516 44.8494 28.8516 54.3791C28.8516 63.9088 36.5793 71.6341 46.1118 71.6341Z" fill="url(#paint2_linear_559_3133)"/>
<g filter="url(#filter2_b_559_3133)">
<path d="M46.3261 72.9512C57.0186 72.8103 65.57 64.1982 65.4263 53.7155C65.2826 43.2328 56.4982 34.8491 45.8057 34.99C35.1133 35.1309 26.5618 43.743 26.7055 54.2257C26.8492 64.7084 35.6337 73.0921 46.3261 72.9512Z" fill="white" fill-opacity="0.04"/>
<path d="M46.3261 72.9512C57.0186 72.8103 65.57 64.1982 65.4263 53.7155C65.2826 43.2328 56.4982 34.8491 45.8057 34.99C35.1133 35.1309 26.5618 43.743 26.7055 54.2257C26.8492 64.7084 35.6337 73.0921 46.3261 72.9512Z" stroke="url(#paint3_linear_559_3133)" stroke-linecap="round"/>
</g>
<path d="M34.3719 44.8198H34.3546L33.1621 45.3757L32.9219 44.302L34.5753 43.5488H35.7851V49.6701H34.3719V44.8198Z" fill="white"/>
<path d="M42.4519 46.5808C42.4519 48.4734 41.6728 49.7634 40.0713 49.7634C38.4698 49.7634 37.7469 48.3419 37.7383 46.6084C37.7383 44.8367 38.5066 43.4258 40.1189 43.4258C41.8027 43.4449 42.4519 44.9046 42.4519 46.5808ZM39.2056 46.619C39.2056 48.0215 39.5411 48.692 40.1081 48.692C40.6751 48.692 40.9738 47.9939 40.9738 46.5999C40.9738 45.2441 40.6751 44.527 40.0908 44.527C39.5735 44.527 39.2056 45.1975 39.2186 46.619H39.2056Z" fill="white"/>
<path d="M45.0459 44.8198H45.0265L43.834 45.3757L43.5938 44.302L45.2472 43.5488H46.457V49.6701H45.0459V44.8198Z" fill="white"/>
<path d="M50.3701 44.8198H50.3507L49.1582 45.3757L48.918 44.302L50.5714 43.5488H51.7812V49.6701H50.3701V44.8198Z" fill="white"/>
<path d="M60.1998 46.4467C60.1998 48.5957 59.3152 50.0605 57.4967 50.0605C55.6783 50.0605 54.8575 48.4463 54.8477 46.478C54.8477 44.4664 55.72 42.8643 57.5508 42.8643C59.4577 42.8859 60.1998 44.5435 60.1998 46.4467ZM56.5138 46.4901C56.5138 48.0825 56.8946 48.8438 57.5385 48.8438C58.1823 48.8438 58.5214 48.0512 58.5214 46.4684C58.5214 44.9289 58.1848 44.1146 57.5188 44.1146C56.9266 44.1146 56.5113 44.8759 56.531 46.4901H56.5138Z" fill="white"/>
<path d="M35.0517 54.3865C35.0517 56.2791 34.2726 57.5691 32.6711 57.5691C31.0696 57.5691 30.3468 56.1475 30.3359 54.4141C30.3359 52.6424 31.1042 51.2314 32.7166 51.2314C34.3982 51.2399 35.0517 52.6997 35.0517 54.3865ZM31.8054 54.4247C31.8054 55.8272 32.143 56.4955 32.7101 56.4955C33.2771 56.4955 33.5758 55.7996 33.5758 54.4056C33.5758 53.0477 33.2771 52.3326 32.6906 52.3326C32.169 52.322 31.8033 52.9904 31.8119 54.4141L31.8054 54.4247Z" fill="white"/>
<path d="M37.6358 52.6139H37.6163L36.4238 53.1698L36.1836 52.0961L37.837 51.3408H39.0468V57.4642H37.6358V52.6139Z" fill="white"/>
<path d="M45.7136 54.3865C45.7136 56.2791 44.9345 57.5691 43.333 57.5691C41.7315 57.5691 41.0087 56.1475 41 54.4141C41 52.6424 41.7683 51.2314 43.3806 51.2314C45.0601 51.2399 45.7136 52.6997 45.7136 54.3865ZM42.4673 54.4247C42.4565 55.8272 42.8028 56.4955 43.3698 56.4955C43.9368 56.4955 44.2355 55.7996 44.2355 54.4056C44.2355 53.0477 43.939 52.3326 43.3525 52.3326C42.8309 52.322 42.4652 52.9904 42.476 54.4141L42.4673 54.4247Z" fill="white"/>
<path d="M48.2899 52.6139H48.2704L47.0801 53.1698L46.8398 52.0961L48.4911 51.3408H49.7031V57.4642H48.2899V52.6139Z" fill="white"/>
<path d="M53.6319 52.6139H53.6124L52.4199 53.1698L52.1797 52.0961L53.8331 51.3408H55.0429V57.4642H53.6319V52.6139Z" fill="white"/>
<path d="M61.7097 54.3865C61.7097 56.2791 60.9306 57.5691 59.3291 57.5691C57.7276 57.5691 57.0048 56.1475 56.9961 54.4141C56.9961 52.6424 57.7644 51.2314 59.3767 51.2314C61.0605 51.2399 61.7097 52.6997 61.7097 54.3865ZM58.4634 54.4247C58.4634 55.8272 58.7989 56.4955 59.3659 56.4955C59.9329 56.4955 60.2316 55.7996 60.2316 54.4056C60.2316 53.0477 59.9351 52.3326 59.3486 52.3326C58.827 52.322 58.4634 52.9904 58.4634 54.4141V54.4247Z" fill="white"/>
<path d="M39.6338 62.1708C39.6338 64.0634 38.8568 65.3534 37.2532 65.3534C35.6495 65.3534 34.9288 63.9298 34.918 62.1963C34.918 60.4268 35.6863 59.0137 37.2986 59.0137C38.9845 59.0328 39.6338 60.4925 39.6338 62.1708ZM36.3875 62.2069C36.3875 63.6115 36.7251 64.2798 37.2921 64.2798C37.8591 64.2798 38.1578 63.5839 38.1578 62.1899C38.1578 60.832 37.8591 60.117 37.2726 60.117C36.7619 60.1148 36.3875 60.7853 36.4048 62.2069H36.3875Z" fill="white"/>
<path d="M42.2313 60.4076H42.214L41.0215 60.9635L40.7812 59.8899L42.4347 59.1367H43.6445V65.2601H42.2313V60.4076Z" fill="white"/>
<path d="M50.3056 62.1708C50.3056 64.0634 49.5265 65.3534 47.925 65.3534C46.3235 65.3534 45.6007 63.9298 45.5898 62.1963C45.5898 60.4268 46.3603 59.0137 47.9705 59.0137C49.6521 59.0328 50.3056 60.4925 50.3056 62.1708ZM47.0593 62.2069C47.0593 63.6115 47.3948 64.2798 47.9618 64.2798C48.5288 64.2798 48.8275 63.5839 48.8275 62.1899C48.8275 60.832 48.5288 60.117 47.9445 60.117C47.4229 60.1148 47.0572 60.7853 47.068 62.2069H47.0593Z" fill="white"/>
<path d="M55.6533 62.1708C55.6533 64.0634 54.8742 65.3534 53.2727 65.3534C51.6712 65.3534 50.9483 63.9298 50.9375 62.1963C50.9375 60.4268 51.7058 59.0137 53.3181 59.0137C54.9911 59.0328 55.6533 60.4925 55.6533 62.1708ZM52.407 62.2069C52.407 63.6115 52.7446 64.2798 53.3117 64.2798C53.8787 64.2798 54.1773 63.5839 54.1773 62.1899C54.1773 60.832 53.8787 60.117 53.2922 60.117C52.7619 60.1148 52.407 60.7853 52.407 62.2069Z" fill="white"/>
<g filter="url(#filter3_b_559_3133)">
<path d="M82.6203 25.2547V19.8945C82.6203 14.4439 79.5969 10 75.9527 10H65.0638C61.4174 10 58.043 14.4547 58.043 19.8945V25.259H62.3586V20.9011C62.3586 16.8272 64.1621 13.6696 66.6984 13.6696H74.2786C76.8149 13.6696 78.4956 16.8272 78.4956 20.9011V25.259L82.6203 25.2547Z" fill="#6BA8F8" fill-opacity="0.35"/>
<path d="M82.6208 25.7547L83.1203 25.7542V25.2547V19.8945C83.1203 17.0816 82.341 14.5078 81.0673 12.6233C79.7965 10.7431 77.993 9.5 75.9527 9.5H65.0638C63.0296 9.5 61.1402 10.7379 59.7811 12.614C58.4167 14.4972 57.543 17.0747 57.543 19.8945V25.259V25.759H58.043H62.3586H62.8586V25.259V20.9011C62.8586 18.9308 63.2958 17.2161 64.0078 16.0121C64.7198 14.8079 65.6651 14.1696 66.6984 14.1696H74.2786C75.3074 14.1696 76.2211 14.8026 76.9034 16.0044C77.5867 17.2083 77.9956 18.925 77.9956 20.9011V25.259V25.7595L78.4961 25.759L82.6208 25.7547Z" stroke="url(#paint4_linear_559_3133)" stroke-linecap="round"/>
</g>
<g filter="url(#filter4_b_559_3133)">
<path d="M81.9432 25.2822H59.753C56.3961 25.2822 53.5352 27.3106 53.5352 29.8423V47.6093C53.5352 50.1409 56.3874 52.1392 59.753 52.1392H81.9432C85.3 52.1392 87.6871 50.1409 87.6871 47.6093V29.8423C87.6871 27.3106 85.3 25.2822 81.9432 25.2822Z" fill="#6BA8F8" fill-opacity="0.35"/>
<path d="M81.9432 24.7822H59.753C57.9783 24.7822 56.319 25.3174 55.0916 26.2082C53.8651 27.0982 53.0352 28.3745 53.0352 29.8423V47.6093C53.0352 49.0774 53.8633 50.3466 55.0899 51.2294C56.3169 52.1126 57.9759 52.6392 59.753 52.6392H81.9432C85.4681 52.6392 88.1871 50.514 88.1871 47.6093V29.8423C88.1871 26.9413 85.4728 24.7822 81.9432 24.7822Z" stroke="url(#paint5_linear_559_3133)" stroke-linecap="round"/>
</g>
<path d="M72.2967 38.7115L73.1743 46.9906H67.4831L68.3607 38.5566C67.8321 38.2832 67.3895 37.8739 67.0803 37.3726C66.7711 36.8712 66.6069 36.2968 66.6055 35.7109C66.6055 33.7944 68.3607 32.2393 70.4647 32.2393C72.5688 32.2393 74.3437 33.7944 74.3437 35.7109C74.3394 36.995 73.2423 38.1114 72.2967 38.7115Z" fill="white"/>
<defs>
<filter id="filter0_b_559_3133" x="-11.5" y="-7.70898" width="115.258" height="122.675" filterUnits="userSpaceOnUse" color-interpolation-filters="sRGB">
<feFlood flood-opacity="0" result="BackgroundImageFix"/>
<feGaussianBlur in="BackgroundImageFix" stdDeviation="12"/>
<feComposite in2="SourceAlpha" operator="in" result="effect1_backgroundBlur_559_3133"/>
<feBlend mode="normal" in="SourceGraphic" in2="effect1_backgroundBlur_559_3133" result="shape"/>
</filter>
<filter id="filter1_b_559_3133" x="-4.88672" y="-0.370117" width="102.031" height="107.997" filterUnits="userSpaceOnUse" color-interpolation-filters="sRGB">
<feFlood flood-opacity="0" result="BackgroundImageFix"/>
<feGaussianBlur in="BackgroundImageFix" stdDeviation="12"/>
<feComposite in2="SourceAlpha" operator="in" result="effect1_backgroundBlur_559_3133"/>
<feBlend mode="normal" in="SourceGraphic" in2="effect1_backgroundBlur_559_3133" result="shape"/>
</filter>
<filter id="filter2_b_559_3133" x="2.20312" y="10.4883" width="87.7246" height="86.9648" filterUnits="userSpaceOnUse" color-interpolation-filters="sRGB">
<feFlood flood-opacity="0" result="BackgroundImageFix"/>
<feGaussianBlur in="BackgroundImageFix" stdDeviation="12"/>
<feComposite in2="SourceAlpha" operator="in" result="effect1_backgroundBlur_559_3133"/>
<feBlend mode="normal" in="SourceGraphic" in2="effect1_backgroundBlur_559_3133" result="shape"/>
</filter>
<filter id="filter3_b_559_3133" x="33.043" y="-15" width="74.5781" height="65.2598" filterUnits="userSpaceOnUse" color-interpolation-filters="sRGB">
<feFlood flood-opacity="0" result="BackgroundImageFix"/>
<feGaussianBlur in="BackgroundImageFix" stdDeviation="12"/>
<feComposite in2="SourceAlpha" operator="in" result="effect1_backgroundBlur_559_3133"/>
<feBlend mode="normal" in="SourceGraphic" in2="effect1_backgroundBlur_559_3133" result="shape"/>
</filter>
<filter id="filter4_b_559_3133" x="28.5352" y="0.282227" width="84.1523" height="76.8574" filterUnits="userSpaceOnUse" color-interpolation-filters="sRGB">
<feFlood flood-opacity="0" result="BackgroundImageFix"/>
<feGaussianBlur in="BackgroundImageFix" stdDeviation="12"/>
<feComposite in2="SourceAlpha" operator="in" result="effect1_backgroundBlur_559_3133"/>
<feBlend mode="normal" in="SourceGraphic" in2="effect1_backgroundBlur_559_3133" result="shape"/>
</filter>
<linearGradient id="paint0_linear_559_3133" x1="13" y1="16.8574" x2="86.1669" y2="82.7158" gradientUnits="userSpaceOnUse">
<stop stop-color="white" stop-opacity="0.25"/>
<stop offset="1" stop-color="white" stop-opacity="0"/>
</linearGradient>
<linearGradient id="paint1_linear_559_3133" x1="19.6133" y1="24.1963" x2="78.1755" y2="76.9087" gradientUnits="userSpaceOnUse">
<stop stop-color="white" stop-opacity="0.25"/>
<stop offset="1" stop-color="white" stop-opacity="0"/>
</linearGradient>
<linearGradient id="paint2_linear_559_3133" x1="28.8516" y1="54.3791" x2="63.3721" y2="54.3791" gradientUnits="userSpaceOnUse">
<stop stop-color="#F0DFFC"/>
<stop offset="1" stop-color="#75A5F9"/>
</linearGradient>
<linearGradient id="paint3_linear_559_3133" x1="26.4453" y1="35.2451" x2="64.9493" y2="73.4392" gradientUnits="userSpaceOnUse">
<stop stop-color="white" stop-opacity="0.25"/>
<stop offset="1" stop-color="white" stop-opacity="0"/>
</linearGradient>
<linearGradient id="paint4_linear_559_3133" x1="58.043" y1="10" x2="71.7318" y2="32.026" gradientUnits="userSpaceOnUse">
<stop stop-color="white" stop-opacity="0.25"/>
<stop offset="1" stop-color="white" stop-opacity="0"/>
</linearGradient>
<linearGradient id="paint5_linear_559_3133" x1="53.5352" y1="25.2822" x2="79.6545" y2="58.4625" gradientUnits="userSpaceOnUse">
<stop stop-color="white" stop-opacity="0.25"/>
<stop offset="1" stop-color="white" stop-opacity="0"/>
</linearGradient>
</defs>
</svg>
