<svg width="101" height="100" viewBox="0 0 101 100" fill="none" xmlns="http://www.w3.org/2000/svg">
<path d="M61.6626 30.2979C48.3956 30.2979 37.6406 41.0528 37.6406 54.3198C37.6406 67.5867 48.3956 78.3417 61.6626 78.3417C74.9295 78.3417 85.6845 67.5867 85.6845 54.3198C85.6845 41.0528 74.9295 30.2979 61.6626 30.2979Z" fill="url(#paint0_linear_559_3027)"/>
<path d="M33.4905 39.5454C33.4905 39.5454 28.4786 19.8253 48.4209 16.5594C68.3633 13.2936 79.0159 30.9502 70.6628 37.1942C62.3096 43.4382 55.0002 38.2855 50.5439 45.3628C47.5737 50.2457 35.8913 47.8787 33.4905 39.5454Z" fill="url(#paint1_linear_559_3027)"/>
<path d="M69.166 62.3633C72.3438 62.3633 74.92 59.7872 74.92 56.6094C74.92 53.4316 72.3438 50.8555 69.166 50.8555C65.9882 50.8555 63.4121 53.4316 63.4121 56.6094C63.4121 59.7872 65.9882 62.3633 69.166 62.3633Z" fill="white"/>
<path d="M27.8676 47.2148C27.8676 47.2148 26.9569 48.4827 27.8676 51.5977L35.0343 47.8458L27.8676 47.2148Z" fill="#151616"/>
<g filter="url(#filter0_b_559_3027)">
<mask id="path-5-outside-1_559_3027" maskUnits="userSpaceOnUse" x="12.7422" y="5.21289" width="75" height="79" fill="black">
<rect fill="white" x="12.7422" y="5.21289" width="75" height="79"/>
<path d="M15.4529 58.9093C20.6295 51.5377 17.0983 54.5503 22.1567 47.0975L26.7896 47.5816L24.9939 81.9743C22.8243 81.5504 22.7485 63.9773 20.8656 63.4015C17.9251 63.2867 12.8736 62.596 15.4529 58.9093Z"/>
<path d="M24.9939 81.9743C25.3193 82.9663 54.9422 86.7183 53.708 62.4665C52.4739 38.2147 85.9995 39.4269 85.9995 39.4269C85.9995 18.2922 69.4242 6.21289 51.8171 6.21289C34.2101 6.21289 19.9344 19.3477 19.9344 35.548C19.9344 40.0757 20.1666 43.2682 22.1567 47.0975L26.7896 47.5816"/>
</mask>
<path d="M15.4529 58.9093C20.6295 51.5377 17.0983 54.5503 22.1567 47.0975L26.7896 47.5816L24.9939 81.9743C22.8243 81.5504 22.7485 63.9773 20.8656 63.4015C17.9251 63.2867 12.8736 62.596 15.4529 58.9093Z" fill="#6BA8F8" fill-opacity="0.35"/>
<path d="M24.9939 81.9743C25.3193 82.9663 54.9422 86.7183 53.708 62.4665C52.4739 38.2147 85.9995 39.4269 85.9995 39.4269C85.9995 18.2922 69.4242 6.21289 51.8171 6.21289C34.2101 6.21289 19.9344 19.3477 19.9344 35.548C19.9344 40.0757 20.1666 43.2682 22.1567 47.0975L26.7896 47.5816" fill="#6BA8F8" fill-opacity="0.35"/>
<path d="M22.2086 46.6003C21.934 46.5715 21.6881 46.7709 21.6594 47.0456C21.6307 47.3202 21.8301 47.5661 22.1047 47.5948L22.2086 46.6003ZM26.7376 48.0789C27.0123 48.1076 27.2582 47.9083 27.2869 47.6336C27.3156 47.359 27.1162 47.1131 26.8416 47.0844L26.7376 48.0789ZM22.1047 47.5948L26.7376 48.0789L26.8416 47.0844L22.2086 46.6003L22.1047 47.5948ZM22.1567 47.0975L22.9841 47.6591L23.319 47.1656L23.044 46.6364L22.1567 47.0975ZM15.4529 58.9093L14.6346 58.3346L14.6336 58.336L15.4529 58.9093ZM20.8656 63.4015L21.158 62.4452L21.0341 62.4073L20.9046 62.4022L20.8656 63.4015ZM27.7882 47.6338C27.817 47.0823 27.3933 46.6118 26.8417 46.583C26.2902 46.5542 25.8198 46.978 25.791 47.5295L27.7882 47.6338ZM85.9995 39.4269L85.9633 40.4263L86.9995 40.4638V39.4269H85.9995ZM21.3293 46.5359C18.762 50.3185 18.3382 51.5027 17.9084 52.6947C17.5509 53.6863 17.1894 54.6964 14.6346 58.3346L16.2713 59.484C18.893 55.7506 19.3543 54.5811 19.7898 53.373C20.1532 52.3652 20.493 51.3293 22.9841 47.6591L21.3293 46.5359ZM14.6336 58.336C13.9083 59.3727 13.5651 60.4169 13.8311 61.4093C14.0951 62.3943 14.875 63.0094 15.6455 63.391C17.1644 64.1433 19.3588 64.3434 20.8266 64.4007L20.9046 62.4022C19.4319 62.3447 17.6302 62.1421 16.5332 61.5988C15.9956 61.3325 15.8125 61.0765 15.7629 60.8915C15.7153 60.7139 15.7079 60.2893 16.2723 59.4825L14.6336 58.336ZM20.5731 64.3577C20.3593 64.2924 20.3055 64.1617 20.3605 64.2461C20.4024 64.3105 20.4694 64.4441 20.55 64.6759C20.7097 65.1351 20.8647 65.8071 21.0151 66.6604C21.3144 68.3591 21.5644 70.5863 21.8289 72.8604C22.0906 75.1098 22.3666 77.4065 22.7176 79.1697C22.892 80.0459 23.095 80.8443 23.3452 81.4564C23.4696 81.761 23.6245 82.067 23.826 82.3221C24.0229 82.5712 24.3395 82.8653 24.8022 82.9557L25.1856 80.9928C25.3772 81.0302 25.4389 81.1374 25.3954 81.0822C25.3565 81.033 25.2855 80.9175 25.1965 80.6999C25.0199 80.2676 24.8463 79.619 24.6791 78.7792C24.3469 77.1103 24.0794 74.8982 23.8155 72.6293C23.5545 70.3852 23.2969 68.0847 22.9847 66.3132C22.8293 65.4314 22.6525 64.6328 22.4391 64.0191C22.3332 63.7144 22.2034 63.411 22.0363 63.1545C21.8823 62.918 21.6072 62.5826 21.158 62.4452L20.5731 64.3577ZM25.791 47.5295L23.9953 81.9221L25.9926 82.0264L27.7882 47.6338L25.791 47.5295ZM24.0437 82.2859C24.1283 82.5438 24.2891 82.7029 24.3727 82.7759C24.4671 82.8583 24.5622 82.9159 24.6327 82.954C24.7745 83.0307 24.9315 83.0898 25.0751 83.1363C25.3702 83.232 25.7537 83.3208 26.1955 83.3999C27.087 83.5595 28.3124 83.6967 29.7513 83.7543C32.6264 83.8695 36.4273 83.6702 40.1965 82.6522C43.9638 81.6348 47.7659 79.7805 50.5471 76.5361C53.3461 73.2709 55.0263 68.6959 54.7068 62.4157L52.7093 62.5173C53.0068 68.3629 51.447 72.4134 49.0286 75.2345C46.5925 78.0764 43.1999 79.7694 39.6751 80.7214C36.1522 81.6729 32.5635 81.8654 29.8314 81.7559C28.4666 81.7012 27.334 81.5719 26.548 81.4312C26.1511 81.3602 25.8661 81.2903 25.692 81.2339C25.6011 81.2044 25.5734 81.189 25.5841 81.1948C25.5891 81.1975 25.6321 81.2205 25.6881 81.2694C25.7334 81.309 25.8697 81.4358 25.9441 81.6626L24.0437 82.2859ZM54.7068 62.4157C54.4113 56.6094 56.1888 52.3989 58.976 49.3046C61.7877 46.183 65.6854 44.1348 69.7057 42.8014C73.7197 41.4703 77.7881 40.8742 80.865 40.6129C82.4005 40.4825 83.682 40.436 84.5769 40.4221C85.0242 40.4151 85.3745 40.4163 85.6112 40.4192C85.7296 40.4206 85.8195 40.4225 85.8789 40.4239C85.9085 40.4246 85.9306 40.4253 85.9448 40.4257C85.9519 40.4259 85.957 40.4261 85.9601 40.4262C85.9616 40.4262 85.9627 40.4263 85.9632 40.4263C85.9635 40.4263 85.9635 40.4263 85.9637 40.4263C85.9636 40.4263 85.9633 40.4263 85.9995 39.4269C86.0356 38.4276 86.0351 38.4276 86.0345 38.4276C86.0342 38.4276 86.0334 38.4275 86.0327 38.4275C86.0312 38.4274 86.0292 38.4274 86.0267 38.4273C86.0217 38.4271 86.0146 38.4269 86.0056 38.4266C85.9876 38.4261 85.9616 38.4253 85.9278 38.4245C85.8605 38.4229 85.7623 38.4209 85.6353 38.4193C85.3815 38.4163 85.0128 38.4151 84.5458 38.4223C83.6121 38.4369 82.284 38.4852 80.6958 38.6201C77.5253 38.8893 73.2894 39.5059 69.0762 40.9031C64.8695 42.2982 60.6171 44.4941 57.4899 47.966C54.3381 51.4652 52.3877 56.1977 52.7093 62.5173L54.7068 62.4157ZM86.9995 39.4269C86.9995 17.6358 69.8663 5.21289 51.8171 5.21289V7.21289C68.982 7.21289 84.9995 18.9485 84.9995 39.4269H86.9995ZM51.8171 5.21289C33.7379 5.21289 18.9344 18.7187 18.9344 35.548H20.9344C20.9344 19.9768 34.6824 7.21289 51.8171 7.21289V5.21289ZM18.9344 35.548C18.9344 40.1182 19.1653 43.5099 21.2693 47.5587L23.044 46.6364C21.168 43.0265 20.9344 40.0332 20.9344 35.548H18.9344Z" fill="url(#paint2_linear_559_3027)" mask="url(#path-5-outside-1_559_3027)"/>
</g>
<path d="M27.3489 47.2129L35.2318 47.7645L27.8211 51.4867C27.2407 50.1411 27.0763 48.6527 27.3489 47.2129Z" stroke="white" stroke-width="0.929204" stroke-miterlimit="10" stroke-linecap="round"/>
<path d="M71.0491 66.3452C70.428 66.4602 69.7977 66.5179 69.1661 66.5178C63.5669 66.5178 59.0293 62.0615 59.0293 56.5675C59.0293 51.0735 63.5669 46.6172 69.1661 46.6172C74.7653 46.6172 79.301 51.0715 79.301 56.5675C79.2961 58.295 78.8397 59.9912 77.9769 61.4878C77.1141 62.9844 75.8749 64.2294 74.3823 65.0992" stroke="white" stroke-width="0.929204" stroke-miterlimit="10"/>
<path d="M69.9667 63.5138C66.1136 64.1368 61.9688 60.4662 61.9688 56.5694C61.9688 52.6726 65.1909 49.5039 69.1671 49.5039C73.1432 49.5039 76.3635 52.6666 76.3635 56.5694C76.3607 57.7244 76.0732 58.861 75.5264 59.8785C74.9796 60.896 74.1904 61.7629 73.2286 62.4026" stroke="white" stroke-width="0.557522" stroke-miterlimit="10"/>
<path d="M71.6687 57.3645C71.5462 56.9707 71.2725 56.6415 70.9076 56.4492C70.5427 56.2569 70.1164 56.2172 69.7222 56.3387C69.3254 56.4519 68.9897 56.7179 68.7888 57.0784C68.5879 57.4389 68.5383 57.8643 68.6508 58.2613L78.0536 89.9417C78.1779 90.3363 78.4504 90.6674 78.8137 90.8653C79.177 91.0632 79.6029 91.1127 80.0019 91.0032C80.8353 90.6718 81.3135 89.8584 81.0734 89.0449L71.6687 57.3645Z" stroke="white" stroke-width="0.743363" stroke-miterlimit="10"/>
<path d="M77.1705 86.9407C76.4438 87.554 75.9522 88.4003 75.7794 89.3354C75.6066 90.2706 75.7633 91.2367 76.2229 92.0692C76.6825 92.9017 77.4165 93.5492 78.2998 93.9013C79.1832 94.2534 80.1612 94.2884 81.0675 94.0003C81.9738 93.7122 82.7521 93.1188 83.27 92.3212C83.7879 91.5236 84.0132 90.5712 83.9077 89.6261C83.8021 88.681 83.3722 87.8018 82.6911 87.1381C82.0101 86.4744 81.12 86.0674 80.1725 85.9863" stroke="white" stroke-width="0.743363" stroke-miterlimit="10"/>
<path d="M73.3828 74.8963L76.7022 74.0332" stroke="white" stroke-width="0.743363" stroke-miterlimit="10"/>
<path d="M69.1582 46.8135V49.248" stroke="white" stroke-width="0.557522" stroke-miterlimit="10"/>
<path d="M64.1164 61.7695L62.4141 63.4699" stroke="white" stroke-width="0.557522" stroke-miterlimit="10"/>
<path d="M75.4102 60.7139L77.174 62.4698" stroke="white" stroke-width="0.557522" stroke-miterlimit="10"/>
<path d="M32.6426 49.3496V53.9706L36.5969 57.9249V76.9566" stroke="white" stroke-width="0.929204" stroke-miterlimit="10"/>
<path d="M52.3038 31.2483C52.3038 32.5241 51.3911 33.5796 50.0915 33.5796H43.6531C42.3535 33.5796 41.2324 32.5241 41.2324 31.2483V25.0618C41.2502 24.4278 41.5118 23.8251 41.9626 23.3791C42.4135 22.933 43.019 22.678 43.6531 22.667H50.0915C51.3911 22.667 52.3038 23.786 52.3038 25.0618V31.2483Z" stroke="white" stroke-width="0.557522" stroke-miterlimit="10"/>
<g filter="url(#filter1_b_559_3027)">
<path d="M49.7049 24.7783H43.7208C43.2332 24.7783 42.8379 25.1736 42.8379 25.6613V30.8695C42.8379 31.3572 43.2332 31.7525 43.7208 31.7525H49.7049C50.1925 31.7525 50.5878 31.3572 50.5878 30.8695V25.6613C50.5878 25.1736 50.1925 24.7783 49.7049 24.7783Z" fill="#156FE4" fill-opacity="0.35"/>
<path d="M49.7049 24.2783H43.7208C42.957 24.2783 42.3379 24.8975 42.3379 25.6613V30.8695C42.3379 31.6333 42.957 32.2525 43.7208 32.2525H49.7049C50.4687 32.2525 51.0878 31.6333 51.0878 30.8695V25.6613C51.0878 24.8975 50.4687 24.2783 49.7049 24.2783Z" stroke="url(#paint3_linear_559_3027)" stroke-linecap="round"/>
</g>
<path d="M44.6917 33.5518V36.6648L41.0449 39.9009" stroke="white" stroke-width="0.557522" stroke-miterlimit="10"/>
<path d="M48.7852 33.5518V36.9823" stroke="white" stroke-width="0.557522" stroke-miterlimit="10"/>
<path d="M44.4141 19.2695V22.7576" stroke="white" stroke-width="0.743363" stroke-miterlimit="10"/>
<path d="M46.7949 19.2695V22.7576" stroke="white" stroke-width="0.743363" stroke-miterlimit="10"/>
<path d="M49.0645 19.2695V22.7576" stroke="white" stroke-width="0.743363" stroke-miterlimit="10"/>
<path d="M52.4961 28.1836H61.4663L67.625 34.2431" stroke="white" stroke-width="0.557522" stroke-miterlimit="10"/>
<path d="M52.6016 30.4502H57.8039L61.294 33.8708" stroke="white" stroke-width="0.557522" stroke-miterlimit="10"/>
<path d="M29.349 36.4722C29.349 36.4722 23.7003 17.647 46.1723 14.5279C68.6444 11.4089 80.6423 28.2659 71.2297 34.2163C61.8171 40.1667 53.583 35.2579 48.5632 42.0158C45.216 46.6884 32.0553 44.4404 29.349 36.4722Z" stroke="white" stroke-width="0.929204" stroke-miterlimit="10"/>
<path d="M52.4961 25.971H60.996L63.8016 23.2012" stroke="white" stroke-width="0.557522" stroke-miterlimit="10"/>
<path d="M40.9809 27.7676H37.1992V30.1743L38.6595 31.6366V37.3112" stroke="white" stroke-width="0.557522" stroke-miterlimit="10"/>
<defs>
<filter id="filter0_b_559_3027" x="-10.2578" y="-18.7871" width="121.258" height="126.57" filterUnits="userSpaceOnUse" color-interpolation-filters="sRGB">
<feFlood flood-opacity="0" result="BackgroundImageFix"/>
<feGaussianBlur in="BackgroundImageFix" stdDeviation="12"/>
<feComposite in2="SourceAlpha" operator="in" result="effect1_backgroundBlur_559_3027"/>
<feBlend mode="normal" in="SourceGraphic" in2="effect1_backgroundBlur_559_3027" result="shape"/>
</filter>
<filter id="filter1_b_559_3027" x="17.8379" y="-0.22168" width="57.75" height="56.9746" filterUnits="userSpaceOnUse" color-interpolation-filters="sRGB">
<feFlood flood-opacity="0" result="BackgroundImageFix"/>
<feGaussianBlur in="BackgroundImageFix" stdDeviation="12"/>
<feComposite in2="SourceAlpha" operator="in" result="effect1_backgroundBlur_559_3027"/>
<feBlend mode="normal" in="SourceGraphic" in2="effect1_backgroundBlur_559_3027" result="shape"/>
</filter>
<linearGradient id="paint0_linear_559_3027" x1="37.6406" y1="54.3198" x2="85.6845" y2="54.3198" gradientUnits="userSpaceOnUse">
<stop stop-color="#E7C5FF"/>
<stop offset="1" stop-color="#0049C9"/>
</linearGradient>
<linearGradient id="paint1_linear_559_3027" x1="32.9297" y1="32.0204" x2="73.5291" y2="32.0204" gradientUnits="userSpaceOnUse">
<stop stop-color="#F0DFFC"/>
<stop offset="1" stop-color="#75A5F9"/>
</linearGradient>
<linearGradient id="paint2_linear_559_3027" x1="14.7422" y1="6.21289" x2="91.1482" y2="77.2451" gradientUnits="userSpaceOnUse">
<stop stop-color="white" stop-opacity="0.25"/>
<stop offset="1" stop-color="white" stop-opacity="0"/>
</linearGradient>
<linearGradient id="paint3_linear_559_3027" x1="42.8379" y1="24.7783" x2="49.7777" y2="32.4823" gradientUnits="userSpaceOnUse">
<stop stop-color="white" stop-opacity="0.25"/>
<stop offset="1" stop-color="white" stop-opacity="0"/>
</linearGradient>
</defs>
</svg>
