<svg width="101" height="100" viewBox="0 0 101 100" fill="none" xmlns="http://www.w3.org/2000/svg">
<path d="M29.4473 20.5586C26.1336 20.5586 23.4473 23.2449 23.4473 26.5586V77.257C23.4473 80.5707 26.1336 83.257 29.4473 83.257H63.8139C67.1276 83.257 69.8139 80.5707 69.8139 77.257V26.5586C69.8139 23.2449 67.1276 20.5586 63.8139 20.5586H29.4473Z" fill="url(#paint0_linear_559_3160)"/>
<g filter="url(#filter0_b_559_3160)">
<mask id="path-2-outside-1_559_3160" maskUnits="userSpaceOnUse" x="4.9043" y="27.2402" width="48" height="61" fill="black">
<rect fill="white" x="4.9043" y="27.2402" width="48" height="61"/>
<path d="M15.7946 28.2402H9.66111C8.6652 28.2402 7.70999 28.6541 7.00554 29.3908C6.30108 30.1275 5.90497 31.1269 5.9043 32.1691V80.8691C5.90396 81.6187 6.04482 82.361 6.31877 83.0536C6.59273 83.7463 6.99445 84.3756 7.50094 84.9057C8.00743 85.4357 8.60877 85.8561 9.27059 86.1428C9.93241 86.4295 10.6417 86.5769 11.358 86.5765H46.347C47.7107 86.5765 49.0186 86.0096 49.9829 85.0004C50.9472 83.9913 51.4889 82.6226 51.4889 81.1954V77.3094"/>
</mask>
<path d="M15.7946 28.2402H9.66111C8.6652 28.2402 7.70999 28.6541 7.00554 29.3908C6.30108 30.1275 5.90497 31.1269 5.9043 32.1691V80.8691C5.90396 81.6187 6.04482 82.361 6.31877 83.0536C6.59273 83.7463 6.99445 84.3756 7.50094 84.9057C8.00743 85.4357 8.60877 85.8561 9.27059 86.1428C9.93241 86.4295 10.6417 86.5769 11.358 86.5765H46.347C47.7107 86.5765 49.0186 86.0096 49.9829 85.0004C50.9472 83.9913 51.4889 82.6226 51.4889 81.1954V77.3094" fill="#6BA8F8" fill-opacity="0.35"/>
<path d="M16.1989 27.9461C16.0365 27.7228 15.7238 27.6735 15.5005 27.8359C15.2772 27.9983 15.2278 28.3111 15.3903 28.5344L16.1989 27.9461ZM51.0846 77.6035C51.247 77.8268 51.5597 77.8762 51.783 77.7137C52.0064 77.5513 52.0557 77.2386 51.8933 77.0153L51.0846 77.6035ZM15.3903 28.5344L51.0846 77.6035L51.8933 77.0153L16.1989 27.9461L15.3903 28.5344ZM15.7946 29.2402C16.3469 29.2402 16.7946 28.7925 16.7946 28.2402C16.7946 27.6879 16.3469 27.2402 15.7946 27.2402V29.2402ZM9.66111 28.2402L9.66111 29.2402H9.66111V28.2402ZM5.9043 32.1691L4.9043 32.1684V32.1691H5.9043ZM5.9043 80.8691L6.9043 80.8696V80.8691H5.9043ZM11.358 86.5765V85.5765L11.3575 85.5765L11.358 86.5765ZM46.347 86.5765V85.5765V86.5765ZM52.4889 77.3094C52.4889 76.7571 52.0412 76.3094 51.4889 76.3094C50.9366 76.3094 50.4889 76.7571 50.4889 77.3094H52.4889ZM15.7946 27.2402H9.66111V29.2402H15.7946V27.2402ZM9.66111 27.2402C8.38507 27.2402 7.1709 27.7709 6.28278 28.6997L7.72829 30.0819C8.24909 29.5373 8.94532 29.2402 9.66111 29.2402L9.66111 27.2402ZM6.28278 28.6997C5.39614 29.627 4.90514 30.8754 4.9043 32.1684L6.9043 32.1697C6.90481 31.3783 7.20602 30.6281 7.72829 30.0819L6.28278 28.6997ZM4.9043 32.1691V80.8691H6.9043V32.1691H4.9043ZM4.9043 80.8687C4.90391 81.7435 5.06825 82.6109 5.38887 83.4215L7.24867 82.6858C7.02139 82.1112 6.90402 81.4939 6.9043 80.8696L4.9043 80.8687ZM5.38887 83.4215C5.70953 84.2321 6.18083 84.9716 6.77794 85.5965L8.22393 84.2148C7.80806 83.7796 7.47593 83.2604 7.24867 82.6858L5.38887 83.4215ZM6.77794 85.5965C7.37515 86.2215 8.08667 86.7197 8.87309 87.0604L9.66809 85.2252C9.13086 84.9925 8.6397 84.6499 8.22393 84.2148L6.77794 85.5965ZM8.87309 87.0604C9.65965 87.4011 10.5043 87.5769 11.3585 87.5765L11.3575 85.5765C10.7791 85.5768 10.2052 85.4578 9.66809 85.2252L8.87309 87.0604ZM11.358 87.5765H46.347V85.5765H11.358V87.5765ZM46.347 87.5765C47.991 87.5765 49.5579 86.8927 50.7059 85.6913L49.2599 84.3096C48.4793 85.1265 47.4304 85.5765 46.347 85.5765V87.5765ZM50.7059 85.6913C51.8523 84.4915 52.4889 82.8735 52.4889 81.1954H50.4889C50.4889 82.3716 50.042 83.4911 49.2599 84.3096L50.7059 85.6913ZM52.4889 81.1954V77.3094H50.4889V81.1954H52.4889Z" fill="url(#paint1_linear_559_3160)" mask="url(#path-2-outside-1_559_3160)"/>
</g>
<g filter="url(#filter1_b_559_3160)">
<path d="M16.6992 17.6562V71.8202C16.6992 72.9551 17.13 74.0436 17.8969 74.8461C18.6637 75.6486 19.7037 76.0994 20.7882 76.0994H58.9896C60.0719 76.0959 61.1086 75.6435 61.8727 74.8414C62.6367 74.0392 63.0658 72.9528 63.0658 71.8202V17.6562C63.0658 16.5236 62.6367 15.4372 61.8727 14.635C61.1086 13.8329 60.0719 13.3805 58.9896 13.377H20.778C19.6953 13.3798 18.6579 13.8319 17.8932 14.6341C17.1286 15.4363 16.6992 16.5231 16.6992 17.6562Z" fill="#6BA8F8" fill-opacity="0.35"/>
<path d="M58.9896 76.5994L58.9913 76.5994C60.2133 76.5954 61.3792 76.0844 62.2347 75.1862C63.0895 74.2888 63.5658 73.078 63.5658 71.8202V17.6562C63.5658 16.3983 63.0895 15.1876 62.2347 14.2902C61.3792 13.392 60.2134 12.881 58.9913 12.877H58.9896L20.778 12.877L20.7767 12.877C19.5541 12.8802 18.3875 13.3909 17.5313 14.2891C16.6759 15.1866 16.1992 16.3978 16.1992 17.6562V71.8202C16.1992 73.0806 16.6774 74.2937 17.5354 75.1915C18.394 76.0901 19.5636 76.5994 20.7882 76.5994L58.9896 76.5994Z" stroke="url(#paint2_linear_559_3160)" stroke-linecap="round"/>
</g>
<path opacity="0.8" d="M43.9825 30.4883H25.7711C24.8706 30.4883 24.1406 30.989 24.1406 31.6067V31.6926C24.1406 32.3102 24.8706 32.8109 25.7711 32.8109H43.9825C44.883 32.8109 45.6129 32.3102 45.6129 31.6926V31.6067C45.6129 30.989 44.883 30.4883 43.9825 30.4883Z" fill="white"/>
<path opacity="0.8" d="M51.9845 38.6176H25.7085C25.5027 38.6178 25.2989 38.588 25.1087 38.53C24.9185 38.472 24.7456 38.3868 24.6 38.2793C24.4544 38.1719 24.3388 38.0442 24.26 37.9038C24.1812 37.7633 24.1407 37.6127 24.1407 37.4606C24.1394 37.3079 24.179 37.1564 24.2572 37.015C24.3355 36.8737 24.4508 36.7451 24.5965 36.6368C24.7422 36.5284 24.9155 36.4424 25.1063 36.3838C25.2972 36.3251 25.5018 36.2949 25.7085 36.2949H51.9822C52.188 36.2949 52.3917 36.3249 52.5818 36.3832C52.7719 36.4414 52.9446 36.5268 53.09 36.6344C53.2354 36.742 53.3507 36.8698 53.4292 37.0103C53.5078 37.1509 53.548 37.3015 53.5477 37.4536C53.5489 37.606 53.5094 37.757 53.4315 37.8981C53.3535 38.0392 53.2386 38.1675 53.0934 38.2756C52.9481 38.3838 52.7754 38.4696 52.5851 38.5283C52.3948 38.587 52.1907 38.6173 51.9845 38.6176Z" fill="white"/>
<path opacity="0.8" d="M53.8183 44.4242H25.812C25.5927 44.4244 25.3754 44.3946 25.1726 44.3364C24.9698 44.2782 24.7855 44.1927 24.6303 44.0849C24.4751 43.9772 24.3519 43.8492 24.2678 43.7082C24.1838 43.5673 24.1406 43.4163 24.1406 43.2638C24.1406 43.1111 24.1838 42.96 24.2678 42.819C24.3518 42.678 24.4749 42.5499 24.6301 42.442C24.7853 42.334 24.9696 42.2484 25.1724 42.19C25.3752 42.1316 25.5925 42.1016 25.812 42.1016H53.8208C54.0402 42.1016 54.2574 42.1316 54.46 42.1901C54.6627 42.2485 54.8468 42.3341 55.0018 42.4421C55.1568 42.55 55.2797 42.6782 55.3634 42.8192C55.4471 42.9601 55.49 43.1112 55.4897 43.2638C55.4897 43.4163 55.4464 43.5673 55.3624 43.7082C55.2784 43.8492 55.1553 43.9772 55 44.0849C54.8448 44.1927 54.6605 44.2782 54.4577 44.3364C54.2549 44.3946 54.0377 44.4244 53.8183 44.4242Z" fill="white"/>
<g filter="url(#filter2_b_559_3160)">
<path d="M94.4997 57.6043C94.5011 53.5764 92.9757 49.7124 90.2583 46.86C87.5408 44.0076 83.8531 42.3997 80.0043 42.3891C76.7353 42.3639 73.556 43.5065 70.9915 45.6282C68.4271 47.7498 66.6309 50.7235 65.8998 54.0579H31.6315C30.0802 54.0579 28.8203 55.783 28.8203 57.8317C28.8203 59.8803 30.0751 61.6054 31.6315 61.6054H35.5007V68.9121H40.1545V63.3117H45.2658V68.9121H49.6869V61.6054H65.9969C67.6504 68.4254 73.2907 72.7982 79.9966 72.7982C83.7587 72.805 87.3754 71.2779 90.0796 68.5408C92.7839 65.8036 94.3629 62.0717 94.4818 58.1366C94.4921 57.9788 94.4997 57.7621 94.4997 57.6043ZM84.1572 63.4241C82.7814 63.4239 81.459 62.8672 80.4664 61.8703C79.4738 60.8734 78.8879 59.5135 78.8312 58.075C78.8312 58.0002 78.8312 57.9226 78.8312 57.845C78.8157 57.1019 78.9421 56.3631 79.2031 55.6718C79.4641 54.9805 79.8544 54.3507 80.3511 53.8194C80.8477 53.2881 81.4408 52.866 82.0955 52.5778C82.7502 52.2896 83.4533 52.1412 84.1635 52.1412C84.8738 52.1412 85.5769 52.2896 86.2315 52.5778C86.8862 52.866 87.4793 53.2881 87.976 53.8194C88.4727 54.3507 88.863 54.9805 89.124 55.6718C89.3849 56.3631 89.5114 57.1019 89.4958 57.845C89.4958 57.9226 89.4958 58.0002 89.4958 58.075C89.439 59.5159 88.8513 60.8777 87.856 61.8749C86.8607 62.8722 85.5351 63.4274 84.1572 63.4241Z" fill="#D0E4FF" fill-opacity="0.35"/>
<path d="M35.0007 62.1054H31.6315C30.6557 62.1054 29.8169 61.5639 29.2402 60.784C28.6632 60.0036 28.3203 58.954 28.3203 57.8317C28.3203 56.7089 28.6647 55.6592 29.2423 54.879C29.8193 54.0997 30.658 53.5579 31.6315 53.5579H65.5027C66.3087 50.2767 68.1214 47.3538 70.6728 45.2429C73.3258 43.048 76.6184 41.8633 80.0069 41.8891C83.9952 41.9004 87.8116 43.5669 90.6203 46.5151C93.4285 49.4628 95.0011 53.4512 94.9997 57.6043L35.0007 62.1054ZM35.0007 62.1054V68.9121V69.4121H35.5007H40.1545H40.6545V68.9121V63.8117H44.7658V68.9121V69.4121H45.2658H49.6869H50.1869V68.9121V62.1054H65.6083C67.4311 68.9277 73.1826 73.2978 79.9957 73.2982C83.8952 73.3053 87.6393 71.7222 90.4353 68.8922C93.2286 66.0649 94.8567 62.2153 94.9814 58.1602C94.9919 57.9938 94.9997 57.7713 94.9997 57.6045L35.0007 62.1054ZM84.1584 62.9241H84.1572C82.9178 62.9239 81.7219 62.4225 80.8207 61.5175C79.9211 60.614 79.3854 59.3778 79.3312 58.065V58.0649V58.0645V58.0641V58.0636V58.0632V58.0627V58.0623V58.0619V58.0614V58.061V58.0605V58.0601V58.0597V58.0592V58.0588V58.0583V58.0579V58.0575V58.057V58.0566V58.0561V58.0557V58.0552V58.0548V58.0544V58.0539V58.0535V58.053V58.0526V58.0522V58.0517V58.0513V58.0508V58.0504V58.0499V58.0495V58.0491V58.0486V58.0482V58.0477V58.0473V58.0468V58.0464V58.046V58.0455V58.0451V58.0446V58.0442V58.0437V58.0433V58.0429V58.0424V58.042V58.0415V58.0411V58.0406V58.0402V58.0398V58.0393V58.0389V58.0384V58.038V58.0375V58.0371V58.0367V58.0362V58.0358V58.0353V58.0349V58.0344V58.034V58.0336V58.0331V58.0327V58.0322V58.0318V58.0313V58.0309V58.0304V58.03V58.0296V58.0291V58.0287V58.0282V58.0278V58.0273V58.0269V58.0264V58.026V58.0255V58.0251V58.0247V58.0242V58.0238V58.0233V58.0229V58.0224V58.022V58.0215V58.0211V58.0207V58.0202V58.0198V58.0193V58.0189V58.0184V58.018V58.0175V58.0171V58.0166V58.0162V58.0158V58.0153V58.0149V58.0144V58.014V58.0135V58.0131V58.0126V58.0122V58.0117V58.0113V58.0108V58.0104V58.01V58.0095V58.0091V58.0086V58.0082V58.0077V58.0073V58.0068V58.0064V58.0059V58.0055V58.005V58.0046V58.0041V58.0037V58.0032V58.0028V58.0024V58.0019V58.0015V58.001V58.0006V58.0001V57.9997V57.9992V57.9988V57.9983V57.9979V57.9974V57.997V57.9965V57.9961V57.9956V57.9952V57.9947V57.9943V57.9938V57.9934V57.993V57.9925V57.9921V57.9916V57.9912V57.9907V57.9903V57.9898V57.9894V57.9889V57.9885V57.988V57.9876V57.9871V57.9867V57.9862V57.9858V57.9853V57.9849V57.9844V57.984V57.9835V57.9831V57.9826V57.9822V57.9817V57.9813V57.9808V57.9804V57.9799V57.9795V57.979V57.9786V57.9781V57.9777V57.9772V57.9768V57.9763V57.9759V57.9755V57.975V57.9746V57.9741V57.9737V57.9732V57.9728V57.9723V57.9719V57.9714V57.971V57.9705V57.9701V57.9696V57.9692V57.9687V57.9683V57.9678V57.9674V57.9669V57.9665V57.966V57.9656V57.9651V57.9647V57.9642V57.9638V57.9633V57.9629V57.9624V57.962V57.9615V57.9611V57.9606V57.9601V57.9597V57.9592V57.9588V57.9583V57.9579V57.9574V57.957V57.9565V57.9561V57.9556V57.9552V57.9547V57.9543V57.9538V57.9534V57.9529V57.9525V57.952V57.9516V57.9511V57.9507V57.9502V57.9498V57.9493V57.9489V57.9484V57.948V57.9475V57.9471V57.9466V57.9462V57.9457V57.9453V57.9448V57.9444V57.9439V57.9435V57.943V57.9426V57.9421V57.9417V57.9412V57.9407V57.9403V57.9398V57.9394V57.9389V57.9385V57.938V57.9376V57.9371V57.9367V57.9362V57.9358V57.9353V57.9349V57.9344V57.934V57.9335V57.9331V57.9326V57.9322V57.9317V57.9313V57.9308V57.9304V57.9299V57.9294V57.929V57.9285V57.9281V57.9276V57.9272V57.9267V57.9263V57.9258V57.9254V57.9249V57.9245V57.924V57.9236V57.9231V57.9227V57.9222V57.9218V57.9213V57.9208V57.9204V57.9199V57.9195V57.919V57.9186V57.9181V57.9177V57.9172V57.9168V57.9163V57.9159V57.9154V57.915V57.9145V57.9141V57.9136V57.9131V57.9127V57.9122V57.9118V57.9113V57.9109V57.9104V57.91V57.9095V57.9091V57.9086V57.9082V57.9077V57.9073V57.9068V57.9063V57.9059V57.9054V57.905V57.9045V57.9041V57.9036V57.9032V57.9027V57.9023V57.9018V57.9014V57.9009V57.9005V57.9V57.8995V57.8991V57.8986V57.8982V57.8977V57.8973V57.8968V57.8964V57.8959V57.8955V57.895V57.8946V57.8941V57.8936V57.8932V57.8927V57.8923V57.8918V57.8914V57.8909V57.8905V57.89V57.8896V57.8891V57.8887V57.8882V57.8877V57.8873V57.8868V57.8864V57.8859V57.8855V57.885V57.8846V57.8841V57.8837V57.8832V57.8828V57.8823V57.8818V57.8814V57.8809V57.8805V57.88V57.8796V57.8791V57.8787V57.8782V57.8778V57.8773V57.8769V57.8764V57.8759V57.8755V57.875V57.8746V57.8741V57.8737V57.8732V57.8728V57.8723V57.8719V57.8714V57.8709V57.8705V57.87V57.8696V57.8691V57.8687V57.8682V57.8678V57.8673V57.8669V57.8664V57.8659V57.8655V57.865V57.8646V57.8641V57.8637V57.8632V57.8628V57.8623V57.8619V57.8614V57.861V57.8605V57.86V57.8596V57.8591V57.8587V57.8582V57.8578V57.8573V57.8569V57.8564V57.856V57.8555V57.855V57.8546V57.8541V57.8537V57.8532V57.8528V57.8523V57.8519V57.8514V57.851V57.8505V57.85V57.8496V57.8491V57.8487V57.8482V57.8478V57.8473V57.8469V57.8464V57.846V57.8455V57.845H79.3313L79.3311 57.8346C79.3169 57.1549 79.4326 56.4796 79.6709 55.8484C79.9091 55.2172 80.265 54.6437 80.7163 54.1609C81.1676 53.6782 81.7052 53.2959 82.297 53.0354C82.8886 52.775 83.5231 52.6412 84.1635 52.6412C84.8039 52.6412 85.4384 52.775 86.0301 53.0354C86.6218 53.2959 87.1594 53.6782 87.6107 54.1609C88.0621 54.6437 88.4179 55.2172 88.6562 55.8484C88.8945 56.4796 89.0102 57.1549 88.9959 57.8346L88.9958 57.8346V57.845V57.8455V57.846V57.8464V57.8469V57.8473V57.8478V57.8482V57.8487V57.8491V57.8496V57.85V57.8505V57.851V57.8514V57.8519V57.8523V57.8528V57.8532V57.8537V57.8541V57.8546V57.855V57.8555V57.856V57.8564V57.8569V57.8573V57.8578V57.8582V57.8587V57.8591V57.8596V57.86V57.8605V57.861V57.8614V57.8619V57.8623V57.8628V57.8632V57.8637V57.8641V57.8646V57.865V57.8655V57.8659V57.8664V57.8669V57.8673V57.8678V57.8682V57.8687V57.8691V57.8696V57.87V57.8705V57.8709V57.8714V57.8719V57.8723V57.8728V57.8732V57.8737V57.8741V57.8746V57.875V57.8755V57.8759V57.8764V57.8769V57.8773V57.8778V57.8782V57.8787V57.8791V57.8796V57.88V57.8805V57.8809V57.8814V57.8818V57.8823V57.8828V57.8832V57.8837V57.8841V57.8846V57.885V57.8855V57.8859V57.8864V57.8868V57.8873V57.8877V57.8882V57.8887V57.8891V57.8896V57.89V57.8905V57.8909V57.8914V57.8918V57.8923V57.8927V57.8932V57.8936V57.8941V57.8946V57.895V57.8955V57.8959V57.8964V57.8968V57.8973V57.8977V57.8982V57.8986V57.8991V57.8995V57.9V57.9005V57.9009V57.9014V57.9018V57.9023V57.9027V57.9032V57.9036V57.9041V57.9045V57.905V57.9054V57.9059V57.9063V57.9068V57.9073V57.9077V57.9082V57.9086V57.9091V57.9095V57.91V57.9104V57.9109V57.9113V57.9118V57.9122V57.9127V57.9131V57.9136V57.9141V57.9145V57.915V57.9154V57.9159V57.9163V57.9168V57.9172V57.9177V57.9181V57.9186V57.919V57.9195V57.9199V57.9204V57.9208V57.9213V57.9218V57.9222V57.9227V57.9231V57.9236V57.924V57.9245V57.9249V57.9254V57.9258V57.9263V57.9267V57.9272V57.9276V57.9281V57.9285V57.929V57.9294V57.9299V57.9304V57.9308V57.9313V57.9317V57.9322V57.9326V57.9331V57.9335V57.934V57.9344V57.9349V57.9353V57.9358V57.9362V57.9367V57.9371V57.9376V57.938V57.9385V57.9389V57.9394V57.9398V57.9403V57.9407V57.9412V57.9417V57.9421V57.9426V57.943V57.9435V57.9439V57.9444V57.9448V57.9453V57.9457V57.9462V57.9466V57.9471V57.9475V57.948V57.9484V57.9489V57.9493V57.9498V57.9502V57.9507V57.9511V57.9516V57.952V57.9525V57.9529V57.9534V57.9538V57.9543V57.9547V57.9552V57.9556V57.9561V57.9565V57.957V57.9574V57.9579V57.9583V57.9588V57.9592V57.9597V57.9601V57.9606V57.9611V57.9615V57.962V57.9624V57.9629V57.9633V57.9638V57.9642V57.9647V57.9651V57.9656V57.966V57.9665V57.9669V57.9674V57.9678V57.9683V57.9687V57.9692V57.9696V57.9701V57.9705V57.971V57.9714V57.9719V57.9723V57.9728V57.9732V57.9737V57.9741V57.9746V57.975V57.9755V57.9759V57.9763V57.9768V57.9772V57.9777V57.9781V57.9786V57.979V57.9795V57.9799V57.9804V57.9808V57.9813V57.9817V57.9822V57.9826V57.9831V57.9835V57.984V57.9844V57.9849V57.9853V57.9858V57.9862V57.9867V57.9871V57.9876V57.988V57.9885V57.9889V57.9894V57.9898V57.9903V57.9907V57.9912V57.9916V57.9921V57.9925V57.993V57.9934V57.9938V57.9943V57.9947V57.9952V57.9956V57.9961V57.9965V57.997V57.9974V57.9979V57.9983V57.9988V57.9992V57.9997V58.0001V58.0006V58.001V58.0015V58.0019V58.0024V58.0028V58.0032V58.0037V58.0041V58.0046V58.005V58.0055V58.0059V58.0064V58.0068V58.0073V58.0077V58.0082V58.0086V58.0091V58.0095V58.01V58.0104V58.0108V58.0113V58.0117V58.0122V58.0126V58.0131V58.0135V58.014V58.0144V58.0149V58.0153V58.0158V58.0162V58.0166V58.0171V58.0175V58.018V58.0184V58.0189V58.0193V58.0198V58.0202V58.0207V58.0211V58.0215V58.022V58.0224V58.0229V58.0233V58.0238V58.0242V58.0247V58.0251V58.0255V58.026V58.0264V58.0269V58.0273V58.0278V58.0282V58.0287V58.0291V58.0296V58.03V58.0304V58.0309V58.0313V58.0318V58.0322V58.0327V58.0331V58.0336V58.034V58.0344V58.0349V58.0353V58.0358V58.0362V58.0367V58.0371V58.0375V58.038V58.0384V58.0389V58.0393V58.0398V58.0402V58.0406V58.0411V58.0415V58.042V58.0424V58.0429V58.0433V58.0437V58.0442V58.0446V58.0451V58.0455V58.046V58.0464V58.0468V58.0473V58.0477V58.0482V58.0486V58.0491V58.0495V58.0499V58.0504V58.0508V58.0513V58.0517V58.0522V58.0526V58.053V58.0535V58.0539V58.0544V58.0548V58.0552V58.0557V58.0561V58.0566V58.057V58.0575V58.0579V58.0583V58.0588V58.0592V58.0597V58.0601V58.0605V58.061V58.0614V58.0619V58.0623V58.0627V58.0632V58.0636V58.0641V58.0645V58.0649V58.065C88.9416 59.3799 88.4042 60.6179 87.5021 61.5217C86.5985 62.4271 85.3998 62.927 84.1584 62.9241Z" stroke="white" stroke-opacity="0.5" stroke-linecap="round"/>
</g>
<path opacity="0.8" d="M56.3418 19.3457H49.875C49.3227 19.3457 48.875 19.7934 48.875 20.3457V28.7255C48.875 29.2777 49.3227 29.7255 49.875 29.7255H56.3418C56.8941 29.7255 57.3418 29.2777 57.3418 28.7255V20.3457C57.3418 19.7934 56.8941 19.3457 56.3418 19.3457Z" fill="white" stroke="white" stroke-width="1.33232" stroke-miterlimit="10"/>
<defs>
<filter id="filter0_b_559_3160" x="-19.0957" y="3.24023" width="95.584" height="108.336" filterUnits="userSpaceOnUse" color-interpolation-filters="sRGB">
<feFlood flood-opacity="0" result="BackgroundImageFix"/>
<feGaussianBlur in="BackgroundImageFix" stdDeviation="12"/>
<feComposite in2="SourceAlpha" operator="in" result="effect1_backgroundBlur_559_3160"/>
<feBlend mode="normal" in="SourceGraphic" in2="effect1_backgroundBlur_559_3160" result="shape"/>
</filter>
<filter id="filter1_b_559_3160" x="-8.30078" y="-11.623" width="96.3672" height="112.723" filterUnits="userSpaceOnUse" color-interpolation-filters="sRGB">
<feFlood flood-opacity="0" result="BackgroundImageFix"/>
<feGaussianBlur in="BackgroundImageFix" stdDeviation="12"/>
<feComposite in2="SourceAlpha" operator="in" result="effect1_backgroundBlur_559_3160"/>
<feBlend mode="normal" in="SourceGraphic" in2="effect1_backgroundBlur_559_3160" result="shape"/>
</filter>
<filter id="filter2_b_559_3160" x="3.82031" y="17.3887" width="115.68" height="80.4092" filterUnits="userSpaceOnUse" color-interpolation-filters="sRGB">
<feFlood flood-opacity="0" result="BackgroundImageFix"/>
<feGaussianBlur in="BackgroundImageFix" stdDeviation="12"/>
<feComposite in2="SourceAlpha" operator="in" result="effect1_backgroundBlur_559_3160"/>
<feBlend mode="normal" in="SourceGraphic" in2="effect1_backgroundBlur_559_3160" result="shape"/>
</filter>
<linearGradient id="paint0_linear_559_3160" x1="23.4473" y1="51.9078" x2="69.8139" y2="51.9078" gradientUnits="userSpaceOnUse">
<stop stop-color="#E7C5FF"/>
<stop offset="1" stop-color="#0049C9"/>
</linearGradient>
<linearGradient id="paint1_linear_559_3160" x1="5.9043" y1="28.2402" x2="62.5247" y2="72.4393" gradientUnits="userSpaceOnUse">
<stop stop-color="white" stop-opacity="0.25"/>
<stop offset="1" stop-color="white" stop-opacity="0"/>
</linearGradient>
<linearGradient id="paint2_linear_559_3160" x1="16.6992" y1="13.377" x2="76.6763" y2="57.6691" gradientUnits="userSpaceOnUse">
<stop stop-color="white" stop-opacity="0.25"/>
<stop offset="1" stop-color="white" stop-opacity="0"/>
</linearGradient>
</defs>
</svg>
