<svg width="30" height="30" viewBox="0 0 30 30" fill="none" xmlns="http://www.w3.org/2000/svg">
<path d="M18.6246 0.448892C10.5906 -1.55461 2.45122 3.33648 0.449246 11.3727C-1.55502 19.4073 3.33532 27.5466 11.3685 29.5509C19.4047 31.5552 27.544 26.6642 29.5468 18.6287C31.551 10.5925 26.6607 2.4524 18.6246 0.448892ZM11.911 10.1195C11.9316 9.76958 11.8109 9.32868 11.1438 9.1621C11.1698 9.14529 9.94873 8.86485 9.94873 8.86485L10.3873 7.10739L12.6567 7.67436L12.6552 7.68354C12.996 7.76759 13.3475 7.84859 13.7067 7.93035L14.3814 5.22767L16.0257 5.63801L15.3648 8.28795C15.8056 8.38881 16.2504 8.49043 16.6828 8.59818L17.3392 5.9658L18.9852 6.37614L18.3112 9.07957C20.3889 9.79556 21.9087 10.8684 21.6099 12.8642C21.3937 14.3252 20.5837 15.0327 19.5085 15.2804C20.9848 16.049 21.736 17.2281 21.0201 19.272C20.1321 21.8105 18.0216 22.0244 15.2151 21.4934L14.5342 24.2228L12.8883 23.8125L13.5607 21.1205C13.1343 21.0143 12.698 20.9019 12.2495 20.7797L11.5748 23.4846L9.93039 23.0744L10.612 20.3396C10.2276 20.241 9.83718 20.1371 9.4383 20.037L7.29648 19.5029L8.11332 17.6193C8.11332 17.6193 9.32598 17.9418 9.30993 17.9181C9.77604 18.0327 9.98235 17.7293 10.0641 17.5268L11.911 10.1195Z" fill="#F7931A"/>
</svg>
