<svg width="24" height="24" viewBox="0 0 24 24" fill="none" xmlns="http://www.w3.org/2000/svg">
<g clip-path="url(#clip0_546_9952)">
<path d="M14.2821 14.5093C13.875 16.1445 11.1229 15.2606 10.2305 15.0387L10.953 12.1406C11.8455 12.3631 14.7075 12.8045 14.2821 14.5093Z" fill="white"/>
<path d="M14.6867 10.2663C14.3157 11.7529 12.0246 10.9974 11.2812 10.8121L11.9366 8.18359C12.6806 8.36881 15.0737 8.71481 14.6867 10.2663Z" fill="white"/>
<path d="M14.8997 0.359114C8.47248 -1.24369 1.96098 2.66918 0.359397 9.09815C-1.24402 15.5259 2.66826 22.0373 9.09476 23.6408C15.5238 25.2442 22.0352 21.3314 23.6375 14.903C25.2408 8.47402 21.3285 1.96192 14.8997 0.359114ZM9.52878 8.09563C9.54528 7.81566 9.4487 7.46294 8.91504 7.32968C8.93582 7.31623 7.95899 7.09188 7.95899 7.09188L8.30987 5.68591L10.1254 6.13949L10.1242 6.14683C10.3968 6.21407 10.678 6.27887 10.9653 6.34428L11.5051 4.18213L12.8205 4.5104L12.2918 6.63036C12.6445 6.71105 13.0003 6.79235 13.3463 6.87854L13.8714 4.77264L15.1881 5.10091L14.649 7.26366C16.3111 7.83644 17.5269 8.6947 17.2879 10.2914C17.115 11.4602 16.467 12.0262 15.6068 12.2243C16.7879 12.8392 17.3888 13.7825 16.8161 15.4176C16.1057 17.4484 14.4173 17.6195 12.1721 17.1947L11.6273 19.3782L10.3106 19.05L10.8486 16.8964C10.5075 16.8114 10.1584 16.7216 9.79958 16.6238L9.25981 18.7877L7.94431 18.4595L8.48958 16.2717C8.1821 16.1928 7.86974 16.1097 7.55064 16.0296L5.83718 15.6023L6.49065 14.0955C6.49065 14.0955 7.46078 14.3535 7.44794 14.3345C7.82083 14.4262 7.98588 14.1834 8.05129 14.0214L9.52878 8.09563Z" fill="white"/>
</g>
<defs>
<clipPath id="clip0_546_9952">
<rect width="24" height="24" fill="white"/>
</clipPath>
</defs>
</svg>
