<svg width="25" height="24" viewBox="0 0 25 24" fill="none" xmlns="http://www.w3.org/2000/svg">
<path d="M22.4864 18.4791C22.7295 18.5393 22.9456 18.3056 22.875 18.0583L22.8334 17.9128L22.7991 17.7964L22.5061 16.7761V16.7689L22.5081 16.7595C22.5093 16.7544 22.5061 16.7491 22.503 16.7491C22.4999 16.7481 22.4967 16.746 22.4957 16.744L20.9643 11.416C20.9446 11.3429 20.9056 11.2764 20.8513 11.2235C20.7972 11.1706 20.7297 11.1333 20.6563 11.1153C20.5827 11.0974 20.5056 11.0995 20.4332 11.1215C20.3607 11.1436 20.2955 11.1846 20.2443 11.2404L18.8313 12.7896L18.7222 12.9101L18.0105 13.6893L15.7716 16.1455C15.5471 16.3907 15.6646 16.7938 15.9824 16.8728L16.211 16.9289C16.2241 16.9324 16.2364 16.9388 16.2467 16.9477C16.2569 16.9567 16.2651 16.9677 16.2704 16.9803C16.2758 16.9928 16.2783 17.0063 16.2777 17.0199C16.2772 17.0335 16.2735 17.0467 16.2671 17.0587C15.7656 18.0256 15.088 18.8903 14.2693 19.6084C12.7998 20.9034 10.9223 21.6415 8.96431 21.6937C8.35721 21.7301 7.74807 21.7128 7.14404 21.6417L7.09209 21.6354C6.71599 21.5845 6.66508 21.7123 7.01417 21.8661C7.5716 22.1097 8.13712 22.3341 8.70976 22.5394L8.75651 22.5549C12.7524 23.9845 17.6189 23.9181 20.6183 20.3835C20.6247 20.376 20.6343 20.3647 20.6469 20.3499C20.8595 20.1008 21.9032 18.8769 22.0032 18.4717C22.0043 18.4679 22.0051 18.4642 22.006 18.4605C22.0233 18.3883 22.0288 18.3657 22.104 18.3844L22.4864 18.4791ZM7.69294 12.0795C7.69284 12.0929 7.6928 12.1061 7.6928 12.1194C7.6928 13.1636 7.95982 14.1424 8.42839 14.9871C8.62059 15.333 8.845 15.6571 9.10059 15.9532C10.1219 17.144 11.6149 17.8952 13.2751 17.8952C13.6429 17.8952 13.8153 18.3471 13.5265 18.5829C11.5175 20.2465 8.97807 21.1336 6.3702 21.0827C6.27794 21.0802 6.18943 21.0457 6.11982 20.985C5.10755 20.1093 4.25628 19.0632 3.60449 17.8941C2.61844 16.1296 2.10355 14.1408 2.10943 12.1194C2.10943 12.1007 2.10947 12.082 2.10955 12.0633C2.09997 10.3311 2.47455 8.61458 3.21054 7.03881C4.25895 4.78176 6.02439 2.93483 8.23184 1.78571C9.79511 0.978137 11.5116 0.566809 13.2407 0.571326C13.3712 0.570986 13.5019 0.573002 13.6325 0.57739C15.5328 0.639728 17.3115 1.19247 18.8575 2.11716C18.8817 2.13225 18.9028 2.15219 18.919 2.17576C18.9256 2.18542 18.9315 2.19561 18.9364 2.2062C19.5014 2.5556 20.0357 2.95695 20.5321 3.40652C21.1232 3.94057 21.062 4.8746 20.4718 5.40969L18.3867 7.30271C17.7965 7.83778 16.904 7.75986 16.2505 7.31101C15.4528 6.75924 14.5198 6.43529 13.5518 6.37397C12.7528 6.32335 11.9549 6.45325 11.2164 6.75139C10.0672 7.22281 9.10564 8.07771 8.47891 9.16323C8.40724 9.29016 8.3404 9.4202 8.27859 9.55314C7.9629 10.2287 7.78119 10.9591 7.74352 11.7039C7.73702 11.8305 7.71999 11.9564 7.69294 12.0795Z" fill="#928E9C"/>
</svg>
