<svg width="24" height="24" viewBox="0 0 24 24" fill="none" xmlns="http://www.w3.org/2000/svg">
<path d="M19 3H4.99999C3.6744 3.00159 2.40355 3.52888 1.46622 4.46622C0.528882 5.40355 0.00158785 6.67441 0 8.00001H24C23.9984 6.67441 23.4711 5.40355 22.5338 4.46622C21.5964 3.52888 20.3256 3.00159 19 3Z" fill="#04022A"/>
<path d="M0 16C0.00158785 17.3256 0.528882 18.5964 1.46622 19.5337C2.40355 20.4711 3.6744 20.9985 4.99999 21H19C20.3256 20.9985 21.5964 20.4711 22.5338 19.5337C23.4711 18.5964 23.9984 17.3256 24 16V10H0V16ZM6.99999 15.5001C6.99999 15.7966 6.91203 16.0867 6.74719 16.3333C6.58237 16.5801 6.3481 16.7722 6.07402 16.8858C5.79993 16.9993 5.49834 17.029 5.20737 16.9711C4.91639 16.9134 4.64912 16.7704 4.43934 16.5607C4.22956 16.3509 4.0867 16.0836 4.02882 15.7926C3.97093 15.5017 4.00065 15.2001 4.11418 14.926C4.22771 14.6519 4.41997 14.4176 4.66665 14.2528C4.91331 14.088 5.20332 14 5.50001 14C5.89782 14 6.27936 14.158 6.56066 14.4393C6.84197 14.7206 6.99999 15.1021 6.99999 15.5001Z" fill="#04022A"/>
</svg>
