<svg width="92" height="78" viewBox="0 0 92 78" fill="none" xmlns="http://www.w3.org/2000/svg">
<path d="M80.7002 57.3173C80.7002 57.8297 80.2848 58.2451 79.7724 58.2451H2.43172C1.9193 58.2451 1.50391 57.8297 1.50391 57.3173V2.85604C1.50391 2.34362 1.91931 1.92822 2.43173 1.92822H79.7724C80.2848 1.92822 80.7002 2.34362 80.7002 2.85604V57.3173Z" fill="white" fill-opacity="0.2" stroke="url(#paint0_linear_697_3719)" stroke-width="1.95545" stroke-miterlimit="10"/>
<g filter="url(#filter0_b_697_3719)">
<path d="M8.92043 9.84766C8.22764 9.84766 7.66602 10.4093 7.66602 11.1021V49.071C7.66602 49.7638 8.22764 50.3254 8.92043 50.3254H73.2884C73.9812 50.3254 74.5429 49.7638 74.5429 49.071V11.1021C74.5429 10.4093 73.9812 9.84766 73.2884 9.84766H8.92043Z" fill="url(#paint1_linear_697_3719)"/>
<path d="M8.92043 9.35879C7.95764 9.35879 7.17715 10.1393 7.17715 11.1021V49.071C7.17715 50.0338 7.95765 50.8143 8.92043 50.8143H73.2884C74.2512 50.8143 75.0317 50.0338 75.0317 49.071V11.1021C75.0317 10.1393 74.2512 9.35879 73.2884 9.35879H8.92043Z" stroke="url(#paint2_linear_697_3719)" stroke-width="0.977727" stroke-miterlimit="10"/>
</g>
<g filter="url(#filter1_b_697_3719)">
<path d="M70.8421 65.6279H9.80393C9.22078 65.6279 8.74805 66.1007 8.74805 66.6838V76.1461C8.74805 76.7292 9.22078 77.2019 9.80393 77.2019H70.8421C71.4253 77.2019 71.898 76.7292 71.898 76.1461V66.6838C71.898 66.1007 71.4253 65.6279 70.8421 65.6279Z" fill="#6BA8F8" fill-opacity="0.35"/>
<path d="M70.8421 65.5619H9.80393C9.18433 65.5619 8.68205 66.0642 8.68205 66.6838V76.1461C8.68205 76.7656 9.18434 77.2679 9.80393 77.2679H70.8421C71.4617 77.2679 71.964 76.7656 71.964 76.1461V66.6838C71.964 66.0642 71.4617 65.5619 70.8421 65.5619Z" stroke="url(#paint3_linear_697_3719)" stroke-width="0.131985"/>
</g>
<path d="M62.0605 64.3159V69.522" stroke="url(#paint4_linear_697_3719)" stroke-width="0.79191" stroke-miterlimit="10" stroke-linecap="round"/>
<path d="M67.9769 63.5254H6.93869C6.35555 63.5254 5.88281 63.9981 5.88281 64.5813V74.0435C5.88281 74.6267 6.35555 75.0994 6.93869 75.0994H67.9769C68.56 75.0994 69.0328 74.6267 69.0328 74.0435V64.5813C69.0328 63.9981 68.56 63.5254 67.9769 63.5254Z" stroke="url(#paint5_linear_697_3719)" stroke-width="0.791959" stroke-miterlimit="10"/>
<path d="M62.0597 69.9186C62.2783 69.9184 62.4555 69.741 62.4553 69.5224C62.4552 69.3037 62.2777 69.1265 62.0591 69.1267L62.0597 69.9186ZM5.4124 69.9609L62.0597 69.9186L62.0591 69.1267L5.41181 69.169L5.4124 69.9609Z" fill="url(#paint6_linear_697_3719)"/>
<path d="M13.3086 64.0796V74.7283" stroke="url(#paint7_linear_697_3719)" stroke-width="0.79191" stroke-miterlimit="10" stroke-linecap="round"/>
<path d="M20.3867 63.606L20.4103 74.728" stroke="url(#paint8_linear_697_3719)" stroke-width="0.79191" stroke-miterlimit="10" stroke-linecap="round"/>
<path d="M28.9297 63.606V69.5219" stroke="url(#paint9_linear_697_3719)" stroke-width="0.79191" stroke-miterlimit="10" stroke-linecap="round"/>
<path d="M37.2109 63.8428V69.5221" stroke="url(#paint10_linear_697_3719)" stroke-width="0.79191" stroke-miterlimit="10" stroke-linecap="round"/>
<path d="M45.9668 63.8428V74.7282" stroke="url(#paint11_linear_697_3719)" stroke-width="0.79191" stroke-miterlimit="10" stroke-linecap="round"/>
<path d="M54.4863 63.8428V74.7282" stroke="url(#paint12_linear_697_3719)" stroke-width="0.79191" stroke-miterlimit="10" stroke-linecap="round"/>
<g filter="url(#filter2_b_697_3719)">
<path d="M86.5229 48.3952V43.0613C86.5229 37.6374 83.5923 33.2153 80.0598 33.2153H69.5048C65.9701 33.2153 62.6992 37.6482 62.6992 43.0613V48.3995H66.8825V44.063C66.8825 40.0091 68.6307 36.8669 71.0892 36.8669H78.4371C80.8956 36.8669 82.5247 40.0091 82.5247 44.063V48.3995L86.5229 48.3952Z" fill="url(#paint13_linear_697_3719)"/>
<path d="M86.523 48.4649L86.5926 48.4649V48.3952V43.0613C86.5926 40.3375 85.8569 37.8623 84.6743 36.066C83.4921 34.2705 81.8573 33.1456 80.0598 33.1456H69.5048C67.7072 33.1456 65.9871 34.2721 64.7195 36.0682C63.4512 37.8655 62.6295 40.3412 62.6295 43.0613V48.3995V48.4692H62.6992H66.8825H66.9522V48.3995V44.063C66.9522 42.045 67.3875 40.2588 68.1243 38.9795C68.8613 37.7 69.8936 36.9366 71.0892 36.9366H78.4371C79.632 36.9366 80.6344 37.6993 81.3418 38.9785C82.0492 40.2577 82.455 42.0442 82.455 44.063V48.3995V48.4693L82.5248 48.4692L86.523 48.4649Z" stroke="url(#paint14_linear_697_3719)" stroke-width="0.13943" stroke-linecap="round"/>
</g>
<g filter="url(#filter3_b_697_3719)">
<path d="M85.9042 47.6216H64.2738C61.0017 47.6216 58.2129 49.8564 58.2129 52.6459V72.2216C58.2129 75.011 60.9931 77.2127 64.2738 77.2127H85.9042C89.1763 77.2127 91.5032 75.011 91.5032 72.2216V52.6459C91.5032 49.8564 89.1763 47.6216 85.9042 47.6216Z" fill="url(#paint15_linear_697_3719)"/>
<path d="M85.9042 47.5519H64.2738C60.9767 47.5519 58.1432 49.8056 58.1432 52.6459V72.2216C58.1432 75.0623 60.9688 77.2825 64.2738 77.2825H85.9042C89.2083 77.2825 91.5729 75.0558 91.5729 72.2216V52.6459C91.5729 49.8123 89.209 47.5519 85.9042 47.5519Z" stroke="url(#paint16_linear_697_3719)" stroke-width="0.13943" stroke-linecap="round"/>
</g>
<path d="M76.4635 60.9149L77.2949 69.143H71.9036L72.735 60.7609C72.2343 60.4892 71.815 60.0824 71.5221 59.5841C71.2291 59.0859 71.0736 58.515 71.0723 57.9327C71.0723 56.028 72.7349 54.4824 74.7281 54.4824C76.7212 54.4824 78.4026 56.028 78.4026 57.9327C78.3985 59.209 77.3593 60.3184 76.4635 60.9149Z" fill="white"/>
<g filter="url(#filter4_bd_697_3719)">
<path d="M27.0674 41.6157L54.6653 41.6157C55.8069 41.6157 56.7324 40.6902 56.7324 39.5486V19.0672C56.7324 17.9256 55.8069 17.0001 54.6653 17.0001L27.0674 17.0001C25.9258 17.0001 25.0003 17.9256 25.0003 19.0672L25.0003 39.5486C25.0003 40.6902 25.9258 41.6157 27.0674 41.6157Z" fill="white" fill-opacity="0.5" shape-rendering="crispEdges"/>
<path d="M27.0674 42.1325L54.6653 42.1325C56.0923 42.1325 57.2492 40.9756 57.2492 39.5486V19.0672C57.2492 17.6402 56.0923 16.4833 54.6653 16.4833L27.0674 16.4833C25.6404 16.4833 24.4835 17.6402 24.4835 19.0672V39.5486C24.4835 40.9756 25.6404 42.1325 27.0674 42.1325Z" stroke="url(#paint17_linear_697_3719)" stroke-width="1.03357" stroke-linecap="round" shape-rendering="crispEdges"/>
</g>
<path d="M51.1486 22.8638H30.4237C30.1347 22.8638 29.9004 23.0981 29.9004 23.3871C29.9004 23.6761 30.1347 23.9104 30.4237 23.9104H51.1486C51.4377 23.9104 51.672 23.6761 51.672 23.3871C51.672 23.0981 51.4377 22.8638 51.1486 22.8638Z" fill="white"/>
<path d="M51.211 27.9722H30.371C30.082 27.9722 29.8477 28.2065 29.8477 28.4955C29.8477 28.7845 30.082 29.0188 30.371 29.0188H51.211C51.5001 29.0188 51.7344 28.7845 51.7344 28.4955C51.7344 28.2065 51.5001 27.9722 51.211 27.9722Z" fill="white"/>
<defs>
<filter id="filter0_b_697_3719" x="2.92424" y="5.10686" width="76.3605" height="49.9596" filterUnits="userSpaceOnUse" color-interpolation-filters="sRGB">
<feFlood flood-opacity="0" result="BackgroundImageFix"/>
<feGaussianBlur in="BackgroundImageFix" stdDeviation="1.88163"/>
<feComposite in2="SourceAlpha" operator="in" result="effect1_backgroundBlur_697_3719"/>
<feBlend mode="normal" in="SourceGraphic" in2="effect1_backgroundBlur_697_3719" result="shape"/>
</filter>
<filter id="filter1_b_697_3719" x="5.44759" y="62.3285" width="69.7493" height="18.1732" filterUnits="userSpaceOnUse" color-interpolation-filters="sRGB">
<feFlood flood-opacity="0" result="BackgroundImageFix"/>
<feGaussianBlur in="BackgroundImageFix" stdDeviation="1.58382"/>
<feComposite in2="SourceAlpha" operator="in" result="effect1_backgroundBlur_697_3719"/>
<feBlend mode="normal" in="SourceGraphic" in2="effect1_backgroundBlur_697_3719" result="shape"/>
</filter>
<filter id="filter2_b_697_3719" x="59.2142" y="29.7294" width="30.7942" height="22.156" filterUnits="userSpaceOnUse" color-interpolation-filters="sRGB">
<feFlood flood-opacity="0" result="BackgroundImageFix"/>
<feGaussianBlur in="BackgroundImageFix" stdDeviation="1.67316"/>
<feComposite in2="SourceAlpha" operator="in" result="effect1_backgroundBlur_697_3719"/>
<feBlend mode="normal" in="SourceGraphic" in2="effect1_backgroundBlur_697_3719" result="shape"/>
</filter>
<filter id="filter3_b_697_3719" x="54.7279" y="44.1356" width="40.261" height="36.5627" filterUnits="userSpaceOnUse" color-interpolation-filters="sRGB">
<feFlood flood-opacity="0" result="BackgroundImageFix"/>
<feGaussianBlur in="BackgroundImageFix" stdDeviation="1.67316"/>
<feComposite in2="SourceAlpha" operator="in" result="effect1_backgroundBlur_697_3719"/>
<feBlend mode="normal" in="SourceGraphic" in2="effect1_backgroundBlur_697_3719" result="shape"/>
</filter>
<filter id="filter4_bd_697_3719" x="-0.838923" y="-8.83941" width="83.4103" height="76.2945" filterUnits="userSpaceOnUse" color-interpolation-filters="sRGB">
<feFlood flood-opacity="0" result="BackgroundImageFix"/>
<feGaussianBlur in="BackgroundImageFix" stdDeviation="12.4029"/>
<feComposite in2="SourceAlpha" operator="in" result="effect1_backgroundBlur_697_3719"/>
<feColorMatrix in="SourceAlpha" type="matrix" values="0 0 0 0 0 0 0 0 0 0 0 0 0 0 0 0 0 0 127 0" result="hardAlpha"/>
<feOffset dx="4.88207" dy="4.88207"/>
<feGaussianBlur stdDeviation="3.90566"/>
<feComposite in2="hardAlpha" operator="out"/>
<feColorMatrix type="matrix" values="0 0 0 0 0.419608 0 0 0 0 0.658824 0 0 0 0 0.972549 0 0 0 0.5 0"/>
<feBlend mode="normal" in2="effect1_backgroundBlur_697_3719" result="effect2_dropShadow_697_3719"/>
<feBlend mode="normal" in="SourceGraphic" in2="effect2_dropShadow_697_3719" result="shape"/>
</filter>
<linearGradient id="paint0_linear_697_3719" x1="41.7689" y1="70.243" x2="115.671" y2="-31.6295" gradientUnits="userSpaceOnUse">
<stop stop-color="white"/>
<stop offset="1" stop-color="white" stop-opacity="0.2"/>
</linearGradient>
<linearGradient id="paint1_linear_697_3719" x1="7.66602" y1="30.0865" x2="74.5429" y2="30.0865" gradientUnits="userSpaceOnUse">
<stop stop-color="#F0DFFC"/>
<stop offset="1" stop-color="#75A5F9"/>
</linearGradient>
<linearGradient id="paint2_linear_697_3719" x1="7.66602" y1="9.84766" x2="43.5626" y2="69.0955" gradientUnits="userSpaceOnUse">
<stop stop-color="white" stop-opacity="0.25"/>
<stop offset="1" stop-color="white" stop-opacity="0"/>
</linearGradient>
<linearGradient id="paint3_linear_697_3719" x1="8.74805" y1="65.6279" x2="12.8587" y2="88.0335" gradientUnits="userSpaceOnUse">
<stop stop-color="white" stop-opacity="0.25"/>
<stop offset="1" stop-color="white" stop-opacity="0"/>
</linearGradient>
<linearGradient id="paint4_linear_697_3719" x1="62.569" y1="70.6311" x2="65.1826" y2="70.139" gradientUnits="userSpaceOnUse">
<stop stop-color="white"/>
<stop offset="1" stop-color="white" stop-opacity="0.2"/>
</linearGradient>
<linearGradient id="paint5_linear_697_3719" x1="37.9896" y1="77.5652" x2="43.7623" y2="46.6902" gradientUnits="userSpaceOnUse">
<stop stop-color="white"/>
<stop offset="1" stop-color="white" stop-opacity="0.2"/>
</linearGradient>
<linearGradient id="paint6_linear_697_3719" x1="34.2137" y1="70.7565" x2="34.2613" y2="67.9965" gradientUnits="userSpaceOnUse">
<stop stop-color="white"/>
<stop offset="1" stop-color="white" stop-opacity="0.2"/>
</linearGradient>
<linearGradient id="paint7_linear_697_3719" x1="13.817" y1="76.997" x2="16.5006" y2="76.7499" gradientUnits="userSpaceOnUse">
<stop stop-color="white"/>
<stop offset="1" stop-color="white" stop-opacity="0.2"/>
</linearGradient>
<linearGradient id="paint8_linear_697_3719" x1="20.9237" y1="77.0964" x2="23.6087" y2="76.854" gradientUnits="userSpaceOnUse">
<stop stop-color="white"/>
<stop offset="1" stop-color="white" stop-opacity="0.2"/>
</linearGradient>
<linearGradient id="paint9_linear_697_3719" x1="29.4381" y1="70.7823" x2="32.0721" y2="70.3458" gradientUnits="userSpaceOnUse">
<stop stop-color="white"/>
<stop offset="1" stop-color="white" stop-opacity="0.2"/>
</linearGradient>
<linearGradient id="paint10_linear_697_3719" x1="37.7194" y1="70.732" x2="40.3474" y2="70.2784" gradientUnits="userSpaceOnUse">
<stop stop-color="white"/>
<stop offset="1" stop-color="white" stop-opacity="0.2"/>
</linearGradient>
<linearGradient id="paint11_linear_697_3719" x1="46.4752" y1="77.0472" x2="49.1598" y2="76.8055" gradientUnits="userSpaceOnUse">
<stop stop-color="white"/>
<stop offset="1" stop-color="white" stop-opacity="0.2"/>
</linearGradient>
<linearGradient id="paint12_linear_697_3719" x1="54.9947" y1="77.0472" x2="57.6793" y2="76.8055" gradientUnits="userSpaceOnUse">
<stop stop-color="white"/>
<stop offset="1" stop-color="white" stop-opacity="0.2"/>
</linearGradient>
<linearGradient id="paint13_linear_697_3719" x1="62.6992" y1="40.8074" x2="86.5229" y2="40.8074" gradientUnits="userSpaceOnUse">
<stop stop-color="#F0DFFC"/>
<stop offset="1" stop-color="#75A5F9"/>
</linearGradient>
<linearGradient id="paint14_linear_697_3719" x1="62.6992" y1="33.2153" x2="76.4762" y2="54.8093" gradientUnits="userSpaceOnUse">
<stop stop-color="white" stop-opacity="0.25"/>
<stop offset="1" stop-color="white" stop-opacity="0"/>
</linearGradient>
<linearGradient id="paint15_linear_697_3719" x1="58.2129" y1="62.4172" x2="91.5032" y2="62.4172" gradientUnits="userSpaceOnUse">
<stop stop-color="#F0DFFC"/>
<stop offset="1" stop-color="#75A5F9"/>
</linearGradient>
<linearGradient id="paint16_linear_697_3719" x1="58.2129" y1="47.6216" x2="87.6183" y2="80.6694" gradientUnits="userSpaceOnUse">
<stop stop-color="white" stop-opacity="0.25"/>
<stop offset="1" stop-color="white" stop-opacity="0"/>
</linearGradient>
<linearGradient id="paint17_linear_697_3719" x1="56.7324" y1="41.6157" x2="32.8716" y2="10.8878" gradientUnits="userSpaceOnUse">
<stop stop-color="white" stop-opacity="0.25"/>
<stop offset="1" stop-color="white" stop-opacity="0"/>
</linearGradient>
</defs>
</svg>
