<svg width="75" height="75" viewBox="0 0 75 75" fill="none" xmlns="http://www.w3.org/2000/svg">
<ellipse cx="25.1587" cy="25.0909" rx="25.1587" ry="25.0909" fill="url(#paint0_linear_697_4017)"/>
<g filter="url(#filter0_b_697_4017)">
<path d="M9.45885 40.7231C6.36728 37.6312 4.26193 33.6921 3.40905 29.4037C2.55617 25.1153 2.99406 20.6703 4.66733 16.6308C6.34061 12.5913 9.17413 9.13866 12.8096 6.70954C16.445 4.28041 20.7192 2.98389 25.0915 2.98389C29.4638 2.98389 33.7379 4.28041 37.3733 6.70954C41.0088 9.13866 43.8423 12.5913 45.5156 16.6308C47.1889 20.6703 47.6268 25.1153 46.7739 29.4037C45.921 33.6921 43.8156 37.6312 40.7241 40.7231C36.5779 44.869 30.9548 47.1981 25.0915 47.1981C19.2282 47.1981 13.605 44.869 9.45885 40.7231Z" fill="#6BA8F8" fill-opacity="0.35"/>
<path d="M9.1348 41.0471L9.13482 41.0471C13.3669 45.2789 19.1066 47.6563 25.0915 47.6563C31.0763 47.6563 36.816 45.2789 41.0481 41.0471L41.0481 41.0471C44.2038 37.8912 46.3528 33.8703 47.2233 29.4931C48.0939 25.1158 47.6469 20.5787 45.939 16.4554C44.231 12.3322 41.3387 8.80799 37.6279 6.32851C33.9171 3.84903 29.5544 2.52562 25.0915 2.52562C20.6285 2.52562 16.2658 3.84903 12.555 6.32851C8.84417 8.80799 5.95192 12.3322 4.24395 16.4554C2.53599 20.5787 2.08903 25.1158 2.95959 29.4931C3.83015 33.8703 5.97914 37.8912 9.1348 41.0471Z" stroke="url(#paint1_linear_697_4017)" stroke-width="0.916529" stroke-linecap="round"/>
</g>
<g filter="url(#filter1_b_697_4017)">
<path d="M16.8221 25.5348C16.9248 28.7959 18.2946 31.8887 20.6407 34.1562C22.9867 36.4237 26.1243 37.6875 29.3871 37.6791C35.1986 37.6791 40.0869 34.0566 41.524 28.4089H55.6712V34.4624H59.5021V29.8199H63.9399V34.4624H67.9718V28.4089H71.3225C72.6665 28.4089 73.7573 26.9793 73.7573 25.2816C73.7573 23.5839 72.6665 22.158 71.3225 22.158H41.617C40.9862 19.3934 39.4305 16.927 37.2072 15.1668C34.984 13.4066 32.2264 12.4582 29.3908 12.4783C26.054 12.4872 22.857 13.8195 20.5013 16.1828C18.1457 18.5461 16.8238 21.7475 16.8258 25.0843C16.8146 25.2258 16.8184 25.4045 16.8221 25.5348ZM21.163 25.4864C21.163 25.4231 21.163 25.3598 21.163 25.2928C21.1972 24.0896 21.6991 22.9472 22.5622 22.1083C23.4253 21.2694 24.5815 20.8001 25.7851 20.8001C26.9887 20.8001 28.1449 21.2694 29.008 22.1083C29.871 22.9472 30.373 24.0896 30.4072 25.2928C30.4072 25.3598 30.4072 25.4231 30.4072 25.4864C30.3593 26.6787 29.8519 27.8062 28.9914 28.6328C28.1309 29.4595 26.984 29.9211 25.7907 29.9211C24.5975 29.9211 23.4505 29.4595 22.5899 28.6328C21.7294 27.8062 21.2221 26.6787 21.1742 25.4864H21.163Z" fill="white" fill-opacity="0.35"/>
<path d="M29.3876 38.1128C35.2754 38.1125 40.2657 34.5038 41.8568 28.8426H55.2375V34.4624V34.8961H55.6712H59.5021H59.9358V34.4624V30.2536H63.5062V34.4624V34.8961H63.9399H67.9718H68.4055V34.4624V28.8426H71.3225C72.1579 28.8426 72.8837 28.3976 73.3869 27.7473C73.89 27.097 74.191 26.2204 74.191 25.2816C74.191 24.3428 73.89 23.467 73.3867 22.8175C72.8833 22.168 72.1574 21.7244 71.3225 21.7244H41.9581C41.2589 19.0003 39.6863 16.5764 37.4764 14.8268C35.176 13.0055 32.3227 12.024 29.3887 12.0447C25.9374 12.0541 22.6307 13.4322 20.1942 15.8767C17.7613 18.3175 16.3944 21.6224 16.3921 25.0682C16.3805 25.2324 16.385 25.4238 16.3886 25.5472L16.3886 25.5484C16.4948 28.9224 17.912 32.1221 20.3393 34.468C22.7664 36.8139 26.0122 38.1213 29.3876 38.1128ZM29.3876 38.1128C29.3874 38.1128 29.3873 38.1128 29.3871 38.1128V37.6791M29.3876 38.1128C29.3878 38.1128 29.388 38.1128 29.3882 38.1128L29.3871 37.6791M29.3871 37.6791C26.1243 37.6875 22.9867 36.4237 20.6407 34.1562C18.2946 31.8887 16.9248 28.7959 16.8221 25.5348L41.524 28.4089C40.0869 34.0566 35.1986 37.6791 29.3871 37.6791ZM21.6075 25.469L21.5986 25.2466C21.6439 24.1778 22.0964 23.1659 22.8645 22.4193C23.6466 21.659 24.6944 21.2337 25.7851 21.2337C26.8758 21.2337 27.9236 21.659 28.7057 22.4193C29.4864 23.1781 29.941 24.211 29.9735 25.2991V25.2994V25.2998V25.3002V25.3006V25.301V25.3014V25.3018V25.3022V25.3026V25.303V25.3034V25.3037V25.3041V25.3045V25.3049V25.3053V25.3057V25.3061V25.3065V25.3069V25.3073V25.3076V25.308V25.3084V25.3088V25.3092V25.3096V25.31V25.3104V25.3108V25.3111V25.3115V25.3119V25.3123V25.3127V25.3131V25.3135V25.3139V25.3143V25.3146V25.315V25.3154V25.3158V25.3162V25.3166V25.317V25.3174V25.3177V25.3181V25.3185V25.3189V25.3193V25.3197V25.3201V25.3205V25.3208V25.3212V25.3216V25.322V25.3224V25.3228V25.3232V25.3236V25.3239V25.3243V25.3247V25.3251V25.3255V25.3259V25.3263V25.3266V25.327V25.3274V25.3278V25.3282V25.3286V25.329V25.3293V25.3297V25.3301V25.3305V25.3309V25.3313V25.3317V25.332V25.3324V25.3328V25.3332V25.3336V25.334V25.3343V25.3347V25.3351V25.3355V25.3359V25.3363V25.3366V25.337V25.3374V25.3378V25.3382V25.3386V25.339V25.3393V25.3397V25.3401V25.3405V25.3409V25.3413V25.3416V25.342V25.3424V25.3428V25.3432V25.3436V25.3439V25.3443V25.3447V25.3451V25.3455V25.3458V25.3462V25.3466V25.347V25.3474V25.3478V25.3481V25.3485V25.3489V25.3493V25.3497V25.3501V25.3504V25.3508V25.3512V25.3516V25.352V25.3523V25.3527V25.3531V25.3535V25.3539V25.3542V25.3546V25.355V25.3554V25.3558V25.3562V25.3565V25.3569V25.3573V25.3577V25.3581V25.3584V25.3588V25.3592V25.3596V25.36V25.3603V25.3607V25.3611V25.3615V25.3619V25.3622V25.3626V25.363V25.3634V25.3638V25.3641V25.3645V25.3649V25.3653V25.3657V25.366V25.3664V25.3668V25.3672V25.3676V25.3679V25.3683V25.3687V25.3691V25.3695V25.3698V25.3702V25.3706V25.371V25.3713V25.3717V25.3721V25.3725V25.3729V25.3732V25.3736V25.374V25.3744V25.3748V25.3751V25.3755V25.3759V25.3763V25.3766V25.377V25.3774V25.3778V25.3782V25.3785V25.3789V25.3793V25.3797V25.38V25.3804V25.3808V25.3812V25.3816V25.3819V25.3823V25.3827V25.3831V25.3834V25.3838V25.3842V25.3846V25.3849V25.3853V25.3857V25.3861V25.3865V25.3868V25.3872V25.3876V25.388V25.3883V25.3887V25.3891V25.3895V25.3898V25.3902V25.3906V25.391V25.3914V25.3917V25.3921V25.3925V25.3929V25.3932V25.3936V25.394V25.3944V25.3947V25.3951V25.3955V25.3959V25.3962V25.3966V25.397V25.3974V25.3977V25.3981V25.3985V25.3989V25.3992V25.3996V25.4V25.4004V25.4007V25.4011V25.4015V25.4019V25.4022V25.4026V25.403V25.4034V25.4037V25.4041V25.4045V25.4049V25.4052V25.4056V25.406V25.4064V25.4067V25.4071V25.4075V25.4079V25.4082V25.4086V25.409V25.4094V25.4097V25.4101V25.4105V25.4109V25.4112V25.4116V25.412V25.4124V25.4127V25.4131V25.4135V25.4139V25.4142V25.4146V25.415V25.4154V25.4157V25.4161V25.4165V25.4168V25.4172V25.4176V25.418V25.4183V25.4187V25.4191V25.4195V25.4198V25.4202V25.4206V25.421V25.4213V25.4217V25.4221V25.4224V25.4228V25.4232V25.4236V25.4239V25.4243V25.4247V25.4251V25.4254V25.4258V25.4262V25.4266V25.4269V25.4273V25.4277V25.428V25.4284V25.4288V25.4292V25.4295V25.4299V25.4303V25.4307V25.431V25.4314V25.4318V25.4321V25.4325V25.4329V25.4333V25.4336V25.434V25.4344V25.4348V25.4351V25.4355V25.4359V25.4362V25.4366V25.437V25.4374V25.4377V25.4381V25.4385V25.4388V25.4392V25.4396V25.44V25.4403V25.4407V25.4411V25.4415V25.4418V25.4422V25.4426V25.4429V25.4433V25.4437V25.4441V25.4444V25.4448V25.4452V25.4455V25.4459V25.4463V25.4467V25.447V25.4474V25.4478V25.4481V25.4485V25.4489V25.4493V25.4496V25.45V25.4504V25.4507V25.4511V25.4515V25.4519V25.4522V25.4526V25.453V25.4533V25.4537V25.4541V25.4545V25.4548V25.4552V25.4556V25.4559V25.4563V25.4567V25.4571V25.4574V25.4578V25.4582V25.4585V25.4589V25.4593V25.4597V25.46V25.4604V25.4608V25.4611V25.4615V25.4619V25.4623V25.4626V25.463V25.4634V25.4637V25.4641V25.4645V25.4649V25.4652V25.4656V25.466V25.4663V25.4667V25.4671V25.4675V25.4678V25.4682V25.4686V25.4689V25.4693V25.4697V25.4701V25.4704V25.4708V25.4712V25.4715V25.4719V25.4723V25.4727V25.473V25.4734V25.4738V25.4741V25.4745V25.4749V25.4752V25.4756V25.476V25.4764V25.4767V25.4771V25.4775C29.928 26.5547 29.4687 27.573 28.691 28.3201C27.9112 29.0691 26.872 29.4874 25.7907 29.4874C24.7095 29.4874 23.6701 29.0691 22.8904 28.3201C22.1106 27.571 21.6509 26.5493 21.6075 25.469Z" stroke="url(#paint2_linear_697_4017)" stroke-width="0.867378" stroke-miterlimit="10"/>
</g>
<path d="M20.5085 52.7154C20.5085 56.5479 18.9589 59.1803 15.7909 59.1774C12.6229 59.1745 11.1793 56.2901 11.1621 52.7813C11.1621 49.1951 12.6946 46.3537 15.8998 46.3594C19.2196 46.3622 20.5113 49.3211 20.5085 52.7154ZM14.0809 52.7841C14.058 55.6256 14.7454 56.9804 15.8711 56.9833C16.9968 56.9862 17.6069 55.574 17.6098 52.7498C17.6098 50.0028 17.0369 48.5535 15.8596 48.5506C14.7912 48.5506 14.0637 49.894 14.0809 52.7841Z" fill="white"/>
<path d="M25.6404 49.1522H25.6031L23.2372 50.275L22.7617 48.101L26.0443 46.5771H28.4474V58.977H25.6433L25.6404 49.1522Z" fill="white"/>
<path d="M41.6787 52.7354C41.6787 56.5708 40.1291 59.2003 36.9611 59.1974C33.7931 59.1945 32.3438 56.313 32.3438 52.8013C32.3438 49.218 33.8762 46.3765 37.0814 46.3794C40.3897 46.3823 41.6816 49.3411 41.6787 52.7354ZM35.251 52.8041C35.2281 55.6485 35.9156 57.0033 37.0413 57.0033C38.167 57.0033 38.7771 55.594 38.78 52.7698C38.78 50.0229 38.2071 48.5735 37.0299 48.5735C35.9615 48.5706 35.2339 49.9255 35.251 52.8041Z" fill="white"/>
<path d="M46.8123 49.1752H46.775L44.4091 50.3009L43.9336 48.124L47.2161 46.603H49.6194V59H46.8152L46.8123 49.1752Z" fill="white"/>
<path d="M57.3963 49.184H57.3591L54.9931 50.3068L54.5176 48.1327L57.8001 46.6089H60.2034V59.0087H57.3991L57.3963 49.184Z" fill="white"/>
<path d="M73.4362 52.7579C73.4362 56.5933 71.8837 59.2227 68.7186 59.2199C65.5535 59.217 64.1042 56.3355 64.0898 52.8237C64.0898 49.2404 65.6223 46.399 68.8246 46.4019C72.1588 46.4133 73.4391 49.3722 73.4362 52.7579ZM67.0086 52.8266C66.9857 55.6709 67.6703 57.0258 68.796 57.0258C69.9217 57.0258 70.5347 55.6165 70.5375 52.7922C70.5375 50.0453 69.9503 48.5959 68.7845 48.5959C67.7161 48.6017 67.0029 49.9565 67.0029 52.8352L67.0086 52.8266Z" fill="white"/>
<path d="M29.6139 68.5122C29.6139 72.3447 28.0615 74.9771 24.8964 74.9713C21.7312 74.9656 20.2819 72.0869 20.2676 68.5781C20.2676 64.9919 21.8 62.1505 25.0052 62.1533C28.3336 62.1562 29.6168 65.1122 29.6139 68.5122ZM23.1863 68.5809C23.1634 71.4224 23.8509 72.7772 24.9737 72.7801C26.0965 72.783 26.7124 71.368 26.7153 68.5466C26.7153 65.7997 26.1424 64.3503 24.9651 64.3474C23.8967 64.3446 23.1777 65.6965 23.1777 68.5781L23.1863 68.5809Z" fill="white"/>
<path d="M34.7458 64.9457H34.7086L32.3426 66.0685L31.8672 63.8944L35.1497 62.3706H37.5529V74.7704H34.7487L34.7458 64.9457Z" fill="white"/>
<path d="M50.7839 68.5294C50.7839 72.3619 49.2343 74.9942 46.0663 74.9914C42.8983 74.9885 41.4518 72.1069 41.4375 68.5952C41.4375 65.0091 42.9699 62.1705 46.1752 62.1733C49.4921 62.1762 50.7867 65.1322 50.7839 68.5294ZM44.3563 68.5981C44.3334 71.4424 45.0208 72.7973 46.1436 72.7973C47.2665 72.7973 47.8823 71.388 47.8852 68.5637C47.8852 65.8168 47.298 64.3675 46.135 64.3675C45.0666 64.3646 44.3391 65.7194 44.3563 68.5981Z" fill="white"/>
<path d="M61.3718 68.541C61.3718 72.3735 59.8194 75.003 56.6542 75.0001C53.4891 74.9973 52.0397 72.1157 52.0254 68.6069C52.0254 65.0207 53.5578 62.1793 56.7602 62.1821C60.08 62.185 61.3747 65.1439 61.3718 68.541ZM54.9413 68.6098C54.9212 71.4512 55.6058 72.806 56.7315 72.8089C57.8572 72.8118 58.4673 71.3968 58.4702 68.5754C58.4702 65.8284 57.883 64.3791 56.7201 64.3762C55.6517 64.3762 54.927 65.7282 54.9413 68.6098Z" fill="white"/>
<defs>
<filter id="filter0_b_697_4017" x="-19.9283" y="-19.9293" width="90.0403" height="90.0407" filterUnits="userSpaceOnUse" color-interpolation-filters="sRGB">
<feFlood flood-opacity="0" result="BackgroundImageFix"/>
<feGaussianBlur in="BackgroundImageFix" stdDeviation="10.9983"/>
<feComposite in2="SourceAlpha" operator="in" result="effect1_backgroundBlur_697_4017"/>
<feBlend mode="normal" in="SourceGraphic" in2="effect1_backgroundBlur_697_4017" result="shape"/>
</filter>
<filter id="filter1_b_697_4017" x="12.4817" y="8.14133" width="65.6128" height="33.8746" filterUnits="userSpaceOnUse" color-interpolation-filters="sRGB">
<feFlood flood-opacity="0" result="BackgroundImageFix"/>
<feGaussianBlur in="BackgroundImageFix" stdDeviation="1.73476"/>
<feComposite in2="SourceAlpha" operator="in" result="effect1_backgroundBlur_697_4017"/>
<feBlend mode="normal" in="SourceGraphic" in2="effect1_backgroundBlur_697_4017" result="shape"/>
</filter>
<linearGradient id="paint0_linear_697_4017" x1="0" y1="25.0909" x2="50.3174" y2="25.0909" gradientUnits="userSpaceOnUse">
<stop stop-color="#E7C5FF"/>
<stop offset="1" stop-color="#0049C9"/>
</linearGradient>
<linearGradient id="paint1_linear_697_4017" x1="2.98437" y1="2.98389" x2="47.221" y2="47.1756" gradientUnits="userSpaceOnUse">
<stop stop-color="white" stop-opacity="0.25"/>
<stop offset="1" stop-color="white" stop-opacity="0"/>
</linearGradient>
<linearGradient id="paint2_linear_697_4017" x1="45.7673" y1="43.048" x2="71.8625" y2="-14.7464" gradientUnits="userSpaceOnUse">
<stop stop-color="white"/>
<stop offset="1" stop-color="white" stop-opacity="0.2"/>
</linearGradient>
</defs>
</svg>
