<svg width="91" height="78" viewBox="0 0 91 78" fill="none" xmlns="http://www.w3.org/2000/svg">
<g filter="url(#filter0_b_697_3685)">
<path d="M71.5162 66.0835H10.5603C9.97796 66.0835 9.50586 66.5556 9.50586 67.138V76.5875C9.50586 77.1699 9.97796 77.642 10.5603 77.642H71.5162C72.0985 77.642 72.5706 77.1699 72.5706 76.5875V67.138C72.5706 66.5556 72.0985 66.0835 71.5162 66.0835Z" fill="#6BA8F8" fill-opacity="0.35"/>
<path d="M71.5162 66.0176H10.5603C9.94156 66.0176 9.43996 66.5192 9.43996 67.138V76.5875C9.43996 77.2063 9.94156 77.7079 10.5603 77.7079H71.5162C72.1349 77.7079 72.6365 77.2063 72.6365 76.5875V67.138C72.6365 66.5192 72.1349 66.0176 71.5162 66.0176Z" stroke="url(#paint0_linear_697_3685)" stroke-width="0.131808"/>
</g>
<path d="M62.7441 64.7734V69.9725" stroke="url(#paint1_linear_697_3685)" stroke-width="0.790846" stroke-miterlimit="10" stroke-linecap="round"/>
<path d="M68.6549 63.9834H7.69899C7.11663 63.9834 6.64453 64.4555 6.64453 65.0379V74.4875C6.64453 75.0698 7.11663 75.5419 7.69899 75.5419H68.6549C69.2372 75.5419 69.7093 75.0698 69.7093 74.4874V65.0379C69.7093 64.4555 69.2372 63.9834 68.6549 63.9834Z" stroke="url(#paint2_linear_697_3685)" stroke-width="0.790846" stroke-miterlimit="10"/>
<path d="M62.7444 70.3685C62.9628 70.3682 63.1396 70.1909 63.1392 69.9725C63.1389 69.7541 62.9616 69.5773 62.7432 69.5777L62.7444 70.3685ZM6.97521 70.453L62.7444 70.3685L62.7432 69.5777L6.97401 69.6622L6.97521 70.453Z" fill="url(#paint3_linear_697_3685)"/>
<path d="M14.0625 64.5366V75.1711" stroke="url(#paint4_linear_697_3685)" stroke-width="0.790846" stroke-miterlimit="10" stroke-linecap="round"/>
<path d="M21.1289 64.0635L21.1524 75.1706" stroke="url(#paint5_linear_697_3685)" stroke-width="0.790846" stroke-miterlimit="10" stroke-linecap="round"/>
<path d="M29.6641 64.0635V69.9715" stroke="url(#paint6_linear_697_3685)" stroke-width="0.790846" stroke-miterlimit="10" stroke-linecap="round"/>
<path d="M37.9316 64.3008V69.9725" stroke="url(#paint7_linear_697_3685)" stroke-width="0.790846" stroke-miterlimit="10" stroke-linecap="round"/>
<path d="M46.6758 64.3003V75.1711" stroke="url(#paint8_linear_697_3685)" stroke-width="0.790846" stroke-miterlimit="10" stroke-linecap="round"/>
<path d="M55.1875 64.3003V75.1711" stroke="url(#paint9_linear_697_3685)" stroke-width="0.790846" stroke-miterlimit="10" stroke-linecap="round"/>
<path d="M81.3532 58.0509C81.3532 58.5708 80.9317 58.9922 80.4118 58.9922H1.94138C1.42147 58.9922 1 58.5708 1 58.0509V2.79295C1 2.27303 1.42147 1.85156 1.94138 1.85156H80.4118C80.9317 1.85156 81.3532 2.27303 81.3532 2.79295V58.0509Z" fill="white" fill-opacity="0.2" stroke="url(#paint10_linear_697_3685)" stroke-width="1.98404" stroke-miterlimit="10"/>
<g filter="url(#filter1_b_697_3685)">
<path d="M8.52276 9.88721C7.81984 9.88721 7.25 10.457 7.25 11.16V49.6843C7.25 50.3872 7.81983 50.9571 8.52276 50.9571H73.8311C74.534 50.9571 75.1038 50.3872 75.1038 49.6843V11.16C75.1038 10.457 74.534 9.88721 73.8311 9.88721H8.52276Z" fill="url(#paint11_linear_697_3685)"/>
<path d="M8.52276 9.3912C7.5459 9.3912 6.75399 10.1831 6.75399 11.16V49.6843C6.75399 50.6612 7.54589 51.4531 8.52276 51.4531H73.8311C74.8079 51.4531 75.5998 50.6612 75.5998 49.6843V11.16C75.5998 10.1831 74.8079 9.3912 73.8311 9.3912H8.52276Z" stroke="url(#paint12_linear_697_3685)" stroke-width="0.99202" stroke-miterlimit="10"/>
</g>
<path d="M78.6198 72.1284H90H78.6198Z" fill="white"/>
<path d="M78.6198 72.1284H90" stroke="white" stroke-width="0.836762" stroke-miterlimit="10" stroke-dasharray="4.14 2.07"/>
<path d="M66.1648 72.1279H77.5449H66.1648Z" fill="white"/>
<path d="M66.1648 72.1279H77.5449" stroke="white" stroke-width="0.836762" stroke-miterlimit="10" stroke-dasharray="4.14 2.07"/>
<g filter="url(#filter2_b_697_3685)">
<path d="M85.5509 26.3271H66.2153C63.993 26.3271 62.1914 28.1287 62.1914 30.351V73.1544C62.1914 75.3767 63.993 77.1783 66.2153 77.1783H85.5509C87.7732 77.1783 89.5748 75.3767 89.5748 73.1544V30.351C89.5748 28.1287 87.7732 26.3271 85.5509 26.3271Z" fill="#FEFFFF" fill-opacity="0.35"/>
<path d="M85.5509 26.0116H66.2153C63.8187 26.0116 61.8758 27.9544 61.8758 30.351V73.1544C61.8758 75.551 63.8187 77.4938 66.2153 77.4938H85.5509C87.9475 77.4938 89.8904 75.551 89.8904 73.1544V30.351C89.8904 27.9544 87.9475 26.0116 85.5509 26.0116Z" stroke="url(#paint13_linear_697_3685)" stroke-width="0.631128" stroke-linecap="round"/>
</g>
<path d="M79.8998 29.008C79.9038 29.0904 79.8645 29.1707 79.7904 29.2312C79.7163 29.2917 79.6134 29.3275 79.5044 29.3307H74.0129C73.9039 29.3275 73.801 29.2917 73.7269 29.2312C73.6527 29.1707 73.6134 29.0904 73.6175 29.008V28.9707C73.6134 28.8883 73.6527 28.808 73.7269 28.7475C73.801 28.687 73.9039 28.6512 74.0129 28.6479H79.5044C79.6134 28.6512 79.7163 28.687 79.7904 28.7475C79.8645 28.808 79.9038 28.8883 79.8998 28.9707V29.008Z" fill="white"/>
<path d="M71.4886 28.9323C71.4953 28.8441 71.5275 28.7598 71.5814 28.6897C71.6353 28.6196 71.7084 28.5668 71.7919 28.5376C71.8754 28.5085 71.9655 28.5043 72.0513 28.5256C72.1371 28.547 72.2149 28.5929 72.275 28.6577C72.3351 28.7225 72.375 28.8035 72.3897 28.8907C72.4045 28.9779 72.3935 29.0674 72.3582 29.1485C72.3228 29.2295 72.2645 29.2984 72.1905 29.3469C72.1166 29.3953 72.0301 29.4211 71.9416 29.4211C71.8168 29.416 71.6991 29.3618 71.6142 29.2702C71.5293 29.1786 71.4841 29.0571 71.4886 28.9323Z" fill="white"/>
<ellipse cx="75.9126" cy="51.747" rx="7.22116" ry="7.22112" fill="url(#paint14_linear_697_3685)"/>
<ellipse cx="41.0007" cy="30.0006" rx="11.0007" ry="11.0006" fill="url(#paint15_linear_697_3685)"/>
<g filter="url(#filter3_b_697_3685)">
<path d="M74.7954 55.1652C74.5838 55.1592 74.382 55.0748 74.229 54.9286L71.4463 52.3123C71.3809 52.2545 71.3297 52.1825 71.2966 52.1018C71.2634 52.0211 71.2493 51.9338 71.2552 51.8468C71.2612 51.7597 71.287 51.6752 71.3308 51.5997C71.3746 51.5243 71.4352 51.4599 71.5078 51.4115C71.6659 51.2984 71.8575 51.2416 72.0517 51.2503C72.2459 51.2591 72.4316 51.3328 72.5789 51.4596L74.7575 53.4962L79.285 48.6722C79.5429 48.3969 80.0201 48.348 80.3506 48.5641C80.6811 48.7802 80.7379 49.1778 80.4799 49.4523L75.3917 54.8947C75.319 54.9754 75.2309 55.0408 75.1325 55.087C75.0342 55.1332 74.9276 55.1593 74.819 55.1636L74.7954 55.1652Z" fill="url(#paint16_linear_697_3685)"/>
<path d="M74.7915 55.3004L74.7915 55.2998C74.5468 55.2928 74.3134 55.1954 74.1364 55.0263C74.1362 55.0262 74.1361 55.0261 74.136 55.0259L71.3555 52.4117C71.2754 52.3406 71.2127 52.252 71.172 52.1529C71.131 52.0531 71.1135 51.9452 71.1209 51.8376C71.1282 51.73 71.1602 51.6255 71.2144 51.5321C71.2681 51.4395 71.3423 51.3604 71.4313 51.3007C71.6136 51.1709 71.8341 51.1058 72.0577 51.1158C72.2821 51.1259 72.4966 51.211 72.6668 51.3576L72.671 51.3612L72.6709 51.3613L74.7513 53.3061L79.1867 48.5801C79.1867 48.5801 79.1868 48.5801 79.1868 48.58C79.4923 48.2541 80.0427 48.2019 80.4243 48.4514C80.6188 48.5786 80.7399 48.7645 80.7692 48.967C80.7986 49.17 80.7339 49.3785 80.5783 49.5442L74.7915 55.3004ZM74.7915 55.3004L74.8043 55.2996L74.8263 55.2981C74.9521 55.2928 75.0757 55.2625 75.1898 55.2089C75.304 55.1553 75.4063 55.0794 75.4909 54.9857L80.5781 49.5445L74.7915 55.3004Z" stroke="url(#paint17_linear_697_3685)" stroke-width="0.269325" stroke-miterlimit="10"/>
</g>
<g filter="url(#filter4_b_697_3685)">
<path d="M39.2993 35.2079C38.9771 35.1987 38.6696 35.0702 38.4366 34.8475L34.1974 30.8618C34.0978 30.7738 34.0197 30.664 33.9693 30.5411C33.9188 30.4181 33.8973 30.2852 33.9063 30.1526C33.9154 30.02 33.9548 29.8912 34.0215 29.7763C34.0882 29.6613 34.1804 29.5632 34.2911 29.4896C34.5319 29.3172 34.8237 29.2307 35.1196 29.244C35.4155 29.2573 35.6984 29.3696 35.9229 29.5629L39.2417 32.6654L46.1388 25.3164C46.5317 24.8971 47.2587 24.8226 47.7621 25.1518C48.2656 25.4811 48.3521 26.0867 47.9592 26.5048L40.2078 34.7958C40.097 34.9188 39.9628 35.0184 39.813 35.0888C39.6631 35.1591 39.5007 35.1988 39.3354 35.2055L39.2993 35.2079Z" fill="url(#paint18_linear_697_3685)"/>
<path d="M39.2935 35.413L39.3032 35.4133L39.313 35.4126L39.3465 35.4104C39.5382 35.4023 39.7264 35.3561 39.9002 35.2745C40.0741 35.1928 40.2301 35.0772 40.3589 34.9345L48.1087 26.6453C48.1088 26.6452 48.1089 26.6451 48.109 26.645C48.3461 26.3925 48.4446 26.0749 48.3998 25.7656C48.3552 25.4572 48.1707 25.1739 47.8744 24.9801C47.293 24.5999 46.4545 24.6795 45.9891 25.1762L39.2322 32.3757L36.0629 29.413L36.0631 29.4129L36.0567 29.4074C35.7974 29.1841 35.4707 29.0544 35.1288 29.0391C34.7882 29.0238 34.4522 29.1229 34.1745 29.3208C34.039 29.4116 33.926 29.5322 33.8441 29.6733C33.7616 29.8155 33.7128 29.9747 33.7016 30.1386C33.6904 30.3026 33.7171 30.4669 33.7795 30.619C33.8415 30.77 33.9371 30.9049 34.059 31.0133L38.2948 34.9957C38.295 34.9959 38.2952 34.9961 38.2955 34.9963C38.5651 35.2539 38.9207 35.4023 39.2935 35.413Z" stroke="url(#paint19_linear_697_3685)" stroke-width="0.410289" stroke-miterlimit="10"/>
</g>
<defs>
<filter id="filter0_b_697_3685" x="6.21162" y="62.7883" width="69.6549" height="18.149" filterUnits="userSpaceOnUse" color-interpolation-filters="sRGB">
<feFlood flood-opacity="0" result="BackgroundImageFix"/>
<feGaussianBlur in="BackgroundImageFix" stdDeviation="1.58169"/>
<feComposite in2="SourceAlpha" operator="in" result="effect1_backgroundBlur_697_3685"/>
<feBlend mode="normal" in="SourceGraphic" in2="effect1_backgroundBlur_697_3685" result="shape"/>
</filter>
<filter id="filter1_b_697_3685" x="2.43954" y="5.07675" width="77.4744" height="50.6907" filterUnits="userSpaceOnUse" color-interpolation-filters="sRGB">
<feFlood flood-opacity="0" result="BackgroundImageFix"/>
<feGaussianBlur in="BackgroundImageFix" stdDeviation="1.90913"/>
<feComposite in2="SourceAlpha" operator="in" result="effect1_backgroundBlur_697_3685"/>
<feBlend mode="normal" in="SourceGraphic" in2="effect1_backgroundBlur_697_3685" result="shape"/>
</filter>
<filter id="filter2_b_697_3685" x="46.4135" y="10.5487" width="58.9387" height="82.4079" filterUnits="userSpaceOnUse" color-interpolation-filters="sRGB">
<feFlood flood-opacity="0" result="BackgroundImageFix"/>
<feGaussianBlur in="BackgroundImageFix" stdDeviation="7.57353"/>
<feComposite in2="SourceAlpha" operator="in" result="effect1_backgroundBlur_697_3685"/>
<feBlend mode="normal" in="SourceGraphic" in2="effect1_backgroundBlur_697_3685" result="shape"/>
</filter>
<filter id="filter3_b_697_3685" x="69.9286" y="47.1043" width="12.0374" height="9.38606" filterUnits="userSpaceOnUse" color-interpolation-filters="sRGB">
<feFlood flood-opacity="0" result="BackgroundImageFix"/>
<feGaussianBlur in="BackgroundImageFix" stdDeviation="0.527912"/>
<feComposite in2="SourceAlpha" operator="in" result="effect1_backgroundBlur_697_3685"/>
<feBlend mode="normal" in="SourceGraphic" in2="effect1_backgroundBlur_697_3685" result="shape"/>
</filter>
<filter id="filter4_b_697_3685" x="31.8857" y="22.9277" width="18.338" height="14.2994" filterUnits="userSpaceOnUse" color-interpolation-filters="sRGB">
<feFlood flood-opacity="0" result="BackgroundImageFix"/>
<feGaussianBlur in="BackgroundImageFix" stdDeviation="0.804219"/>
<feComposite in2="SourceAlpha" operator="in" result="effect1_backgroundBlur_697_3685"/>
<feBlend mode="normal" in="SourceGraphic" in2="effect1_backgroundBlur_697_3685" result="shape"/>
</filter>
<linearGradient id="paint0_linear_697_3685" x1="9.50586" y1="66.0835" x2="13.611" y2="88.4591" gradientUnits="userSpaceOnUse">
<stop stop-color="white" stop-opacity="0.25"/>
<stop offset="1" stop-color="white" stop-opacity="0"/>
</linearGradient>
<linearGradient id="paint1_linear_697_3685" x1="63.2526" y1="71.0802" x2="65.866" y2="70.5874" gradientUnits="userSpaceOnUse">
<stop stop-color="white"/>
<stop offset="1" stop-color="white" stop-opacity="0.2"/>
</linearGradient>
<linearGradient id="paint2_linear_697_3685" x1="38.708" y1="78.0044" x2="44.473" y2="47.1708" gradientUnits="userSpaceOnUse">
<stop stop-color="white"/>
<stop offset="1" stop-color="white" stop-opacity="0.2"/>
</linearGradient>
<linearGradient id="paint3_linear_697_3685" x1="35.3307" y1="71.2277" x2="35.377" y2="68.4677" gradientUnits="userSpaceOnUse">
<stop stop-color="white"/>
<stop offset="1" stop-color="white" stop-opacity="0.2"/>
</linearGradient>
<linearGradient id="paint4_linear_697_3685" x1="14.5709" y1="77.4367" x2="17.2545" y2="77.1894" gradientUnits="userSpaceOnUse">
<stop stop-color="white"/>
<stop offset="1" stop-color="white" stop-opacity="0.2"/>
</linearGradient>
<linearGradient id="paint5_linear_697_3685" x1="21.6659" y1="77.5358" x2="24.3508" y2="77.2931" gradientUnits="userSpaceOnUse">
<stop stop-color="white"/>
<stop offset="1" stop-color="white" stop-opacity="0.2"/>
</linearGradient>
<linearGradient id="paint6_linear_697_3685" x1="30.1725" y1="71.2302" x2="32.8063" y2="70.7932" gradientUnits="userSpaceOnUse">
<stop stop-color="white"/>
<stop offset="1" stop-color="white" stop-opacity="0.2"/>
</linearGradient>
<linearGradient id="paint7_linear_697_3685" x1="38.4401" y1="71.1808" x2="41.0679" y2="70.7267" gradientUnits="userSpaceOnUse">
<stop stop-color="white"/>
<stop offset="1" stop-color="white" stop-opacity="0.2"/>
</linearGradient>
<linearGradient id="paint8_linear_697_3685" x1="47.1842" y1="77.4871" x2="49.8687" y2="77.245" gradientUnits="userSpaceOnUse">
<stop stop-color="white"/>
<stop offset="1" stop-color="white" stop-opacity="0.2"/>
</linearGradient>
<linearGradient id="paint9_linear_697_3685" x1="55.6959" y1="77.4871" x2="58.3804" y2="77.245" gradientUnits="userSpaceOnUse">
<stop stop-color="white"/>
<stop offset="1" stop-color="white" stop-opacity="0.2"/>
</linearGradient>
<linearGradient id="paint10_linear_697_3685" x1="41.8532" y1="71.1657" x2="116.837" y2="-32.1956" gradientUnits="userSpaceOnUse">
<stop stop-color="white"/>
<stop offset="1" stop-color="white" stop-opacity="0.2"/>
</linearGradient>
<linearGradient id="paint11_linear_697_3685" x1="7.25" y1="30.4221" x2="75.1038" y2="30.4221" gradientUnits="userSpaceOnUse">
<stop stop-color="#F0DFFC"/>
<stop offset="1" stop-color="#75A5F9"/>
</linearGradient>
<linearGradient id="paint12_linear_697_3685" x1="7.25" y1="9.88721" x2="43.672" y2="70.0011" gradientUnits="userSpaceOnUse">
<stop stop-color="white" stop-opacity="0.25"/>
<stop offset="1" stop-color="white" stop-opacity="0"/>
</linearGradient>
<linearGradient id="paint13_linear_697_3685" x1="62.1914" y1="26.3271" x2="104.645" y2="49.1651" gradientUnits="userSpaceOnUse">
<stop stop-color="white" stop-opacity="0.25"/>
<stop offset="1" stop-color="white" stop-opacity="0"/>
</linearGradient>
<linearGradient id="paint14_linear_697_3685" x1="68.6914" y1="51.747" x2="83.1337" y2="51.747" gradientUnits="userSpaceOnUse">
<stop stop-color="#E7C5FF"/>
<stop offset="1" stop-color="#0049C9"/>
</linearGradient>
<linearGradient id="paint15_linear_697_3685" x1="30" y1="30.0006" x2="52.0014" y2="30.0006" gradientUnits="userSpaceOnUse">
<stop stop-color="#E7C5FF"/>
<stop offset="1" stop-color="#0049C9"/>
</linearGradient>
<linearGradient id="paint16_linear_697_3685" x1="76.0267" y1="56.6003" x2="84.8905" y2="44.4914" gradientUnits="userSpaceOnUse">
<stop stop-color="white"/>
<stop offset="1" stop-color="white" stop-opacity="0.2"/>
</linearGradient>
<linearGradient id="paint17_linear_697_3685" x1="71.2539" y1="48.4292" x2="77.6405" y2="57.3207" gradientUnits="userSpaceOnUse">
<stop stop-color="white" stop-opacity="0.25"/>
<stop offset="1" stop-color="white" stop-opacity="0"/>
</linearGradient>
<linearGradient id="paint18_linear_697_3685" x1="41.1752" y1="37.3941" x2="54.6783" y2="18.9475" gradientUnits="userSpaceOnUse">
<stop stop-color="white"/>
<stop offset="1" stop-color="white" stop-opacity="0.2"/>
</linearGradient>
<linearGradient id="paint19_linear_697_3685" x1="33.9043" y1="24.9463" x2="43.6336" y2="38.4916" gradientUnits="userSpaceOnUse">
<stop stop-color="white" stop-opacity="0.25"/>
<stop offset="1" stop-color="white" stop-opacity="0"/>
</linearGradient>
</defs>
</svg>
