<svg width="89" height="89" viewBox="0 0 89 89" fill="none" xmlns="http://www.w3.org/2000/svg">
<g filter="url(#filter0_b_697_3725)">
<path d="M52.3362 76.1117C46.1827 77.7606 39.6786 77.5477 33.6461 75.5001C27.6137 73.4525 22.324 69.662 18.4458 64.6081C14.5676 59.5541 12.2752 53.4636 11.8585 47.1068C11.4417 40.75 12.9193 34.4123 16.1044 28.8952C19.2895 23.3781 24.0391 18.9294 29.7526 16.1115C35.466 13.2937 41.8867 12.2333 48.2027 13.0645C54.5187 13.8958 60.4464 16.5812 65.2362 20.7813C70.026 24.9813 73.4627 30.5074 75.1119 36.6607C76.2072 40.7466 76.4869 45.0081 75.935 49.2021C75.3832 53.3961 74.0106 57.4403 71.8956 61.1037C69.7806 64.7672 66.9647 67.9781 63.6087 70.5532C60.2526 73.1283 56.4222 75.0171 52.3362 76.1117Z" fill="url(#paint0_linear_697_3725)"/>
</g>
<g filter="url(#filter1_b_697_3725)">
<path d="M22.8763 66.1218C18.6985 61.9439 15.8534 56.621 14.7009 50.8262C13.5483 45.0314 14.14 39.0249 16.4011 33.5664C18.6623 28.1079 22.4913 23.4424 27.404 20.1599C32.3167 16.8775 38.0925 15.1255 44.0009 15.1255C49.9094 15.1255 55.6851 16.8775 60.5979 20.1599C65.5106 23.4424 69.3396 28.1079 71.6007 33.5664C73.8619 39.0249 74.4536 45.0314 73.301 50.8262C72.1484 56.621 69.3034 61.9439 65.1256 66.1218C62.3516 68.8962 59.0583 71.097 55.4337 72.5985C51.8091 74.1 47.9242 74.8729 44.0009 74.8729C40.0776 74.8729 36.1927 74.1 32.5681 72.5985C28.9435 71.097 25.6502 68.8962 22.8763 66.1218Z" fill="white" fill-opacity="0.04"/>
</g>
<g filter="url(#filter2_b_697_3725)">
<path d="M60.4231 48.4139C60.9705 48.4126 61.5109 48.2899 62.0051 48.0546C62.4994 47.8193 62.9353 47.4773 63.2815 47.0533C63.6277 46.6292 63.8755 46.1337 64.007 45.6023C64.1386 45.0709 64.1507 44.517 64.0424 43.9804C62.097 34.2397 54.146 25.5254 44.6286 25.5254C35.1112 25.5254 27.163 34.2397 25.2177 43.9804C25.1094 44.517 25.1215 45.0709 25.253 45.6023C25.3846 46.1337 25.6324 46.6292 25.9786 47.0533C26.3247 47.4773 26.7607 47.8193 27.2549 48.0546C27.7492 48.2899 28.2895 48.4126 28.8369 48.4139H60.4231Z" fill="#6BA8F8" fill-opacity="0.35"/>
<path d="M60.4231 49.1216L60.4248 49.1216C61.0769 49.12 61.7205 48.9738 62.3093 48.6936C62.8981 48.4133 63.4173 48.0059 63.8297 47.5008C64.2421 46.9957 64.5372 46.4053 64.694 45.7724C64.8506 45.1396 64.865 44.4799 64.7361 43.8409C62.7484 33.8898 54.5922 24.8177 44.6286 24.8177C34.6649 24.8177 26.5115 33.89 24.5239 43.8411C24.395 44.4801 24.4094 45.1397 24.5661 45.7724C24.7228 46.4053 25.018 46.9957 25.4304 47.5008C25.8427 48.0059 26.362 48.4133 26.9508 48.6936C27.5396 48.9738 28.1832 49.12 28.8352 49.1216H28.8369L60.4231 49.1216Z" stroke="white" stroke-opacity="0.8" stroke-width="1.41533" stroke-linecap="round"/>
</g>
<g filter="url(#filter3_b_697_3725)">
<path d="M43.432 24.2143C45.6995 24.3319 47.9493 23.7592 49.8846 22.5719C51.82 21.3847 53.3499 19.6386 54.2725 17.564C55.1951 15.4894 55.4671 13.1838 55.0526 10.9515C54.6381 8.71918 53.5565 6.66497 51.9506 5.05992C50.3447 3.45487 48.2899 2.37441 46.0573 1.96107C43.8247 1.54773 41.5193 1.82094 39.4452 2.74467C37.3711 3.6684 35.6258 5.19923 34.4395 7.13519C33.2533 9.07114 32.6818 11.3212 32.8005 13.5886C32.9463 16.3604 34.1134 18.9801 36.0766 20.9422C38.0398 22.9044 40.6601 24.07 43.432 24.2143Z" fill="#6BA8F8" fill-opacity="0.35"/>
<path d="M43.3952 24.9211L43.3954 24.9211C45.8057 25.046 48.1974 24.4372 50.2547 23.1751C52.312 21.913 53.9383 20.0569 54.9191 17.8515C55.8999 15.6462 56.189 13.1953 55.7484 10.8223C55.3077 8.44928 54.158 6.2656 52.4508 4.55939C50.7437 2.85318 48.5594 1.70462 46.1861 1.26523C43.8128 0.825843 41.3621 1.11627 39.1573 2.09822C36.9525 3.08017 35.0971 4.70749 33.8361 6.76545C32.5751 8.82342 31.9676 11.2153 32.0938 13.6256L32.0938 13.6258C32.2488 16.5722 33.4894 19.357 35.5763 21.4428C37.6633 23.5285 40.4486 24.7676 43.3952 24.9211Z" stroke="white" stroke-opacity="0.8" stroke-width="1.41533" stroke-linecap="round"/>
</g>
<path d="M53.5682 34.3045C53.9802 34.6595 53.9787 35.2863 53.5939 35.6706V35.6706C53.2108 36.0532 52.5929 36.0503 52.1786 35.7018C50.0779 33.9351 47.4151 32.9525 44.6497 32.9444C41.8825 32.9363 39.2123 33.9045 37.1006 35.6611C36.686 36.006 36.071 36.0072 35.6894 35.626V35.626C35.3031 35.2402 35.3031 34.6104 35.7187 34.2563C38.2011 32.1409 41.3666 30.9718 44.6497 30.98C47.9346 30.9883 51.0958 32.1745 53.5682 34.3045Z" stroke="url(#paint1_linear_697_3725)" stroke-width="0.500679"/>
<path d="M50.7861 37.088C51.2087 37.4305 51.2071 38.0588 50.8225 38.4434V38.4434C50.4401 38.8258 49.8239 38.8214 49.3954 38.4916C48.0424 37.4502 46.3778 36.8737 44.6527 36.8661C42.9249 36.8585 41.2528 37.422 39.8896 38.4544C39.4609 38.7791 38.849 38.7805 38.469 38.4001V38.4001C38.0828 38.0134 38.0836 37.3815 38.5108 37.0407C40.2473 35.6554 42.4126 34.895 44.6535 34.9029C46.8967 34.9108 49.0586 35.6879 50.7861 37.088Z" stroke="url(#paint2_linear_697_3725)" stroke-width="0.500679"/>
<path d="M47.9858 39.8852C48.4336 40.1978 48.4323 40.8327 48.0461 41.2189V41.2189C47.665 41.6 47.0521 41.5901 46.586 41.3195C46.003 40.9811 45.3377 40.7959 44.6527 40.7898C43.9625 40.7837 43.2889 40.9597 42.6968 41.2926C42.232 41.5538 41.6276 41.5587 41.2504 41.1819V41.1819C40.8598 40.7918 40.8622 40.1489 41.3191 39.8391C42.296 39.177 43.4569 38.8195 44.6525 38.8263C45.8529 38.8331 47.0141 39.2068 47.9858 39.8852Z" stroke="url(#paint3_linear_697_3725)" stroke-width="0.500679"/>
<path d="M43.4258 43.763C43.4258 43.5224 43.4971 43.2872 43.6308 43.0871C43.7645 42.887 43.9545 42.7311 44.1768 42.639C44.3992 42.5469 44.6438 42.5228 44.8798 42.5698C45.1158 42.6167 45.3326 42.7326 45.5027 42.9027C45.6729 43.0729 45.7888 43.2897 45.8357 43.5257C45.8827 43.7617 45.8586 44.0063 45.7665 44.2286C45.6744 44.4509 45.5184 44.6409 45.3184 44.7746C45.1183 44.9083 44.8831 44.9797 44.6424 44.9797C44.3197 44.9797 44.0103 44.8515 43.7821 44.6233C43.554 44.3952 43.4258 44.0857 43.4258 43.763Z" stroke="url(#paint4_linear_697_3725)" stroke-width="0.500679" stroke-miterlimit="10" stroke-linecap="round"/>
<g filter="url(#filter4_b_697_3725)">
<path d="M37.5501 76.1878C38.0975 76.1865 38.6378 76.0638 39.1321 75.8285C39.6264 75.5933 40.0623 75.2513 40.4085 74.8272C40.7546 74.4032 41.0024 73.9076 41.134 73.3762C41.2656 72.8449 41.2776 72.2909 41.1693 71.7543C39.224 62.0136 31.273 53.2993 21.7556 53.2993C12.2381 53.2993 4.28999 62.0136 2.34465 71.7543C2.23634 72.2909 2.24841 72.8449 2.37998 73.3762C2.51155 73.9076 2.75934 74.4032 3.10552 74.8272C3.45169 75.2513 3.88761 75.5933 4.38189 75.8285C4.87616 76.0638 5.41648 76.1865 5.96389 76.1878H37.5501Z" fill="#6BA8F8" fill-opacity="0.35"/>
<path d="M37.5518 76.8955L37.5501 76.8955L5.96389 76.8955H5.9622C5.31013 76.894 4.6665 76.7478 4.07773 76.4675C3.48896 76.1872 2.96968 75.7799 2.55732 75.2747C2.14496 74.7696 1.84978 74.1793 1.69306 73.5463C1.5364 72.9136 1.52197 72.254 1.65084 71.615C3.63849 61.6639 11.7919 52.5917 21.7556 52.5917C31.719 52.5917 39.8751 61.6634 41.863 71.6145M37.5518 76.8955L41.1693 71.7543M37.5518 76.8955C38.2038 76.894 38.8475 76.7478 39.4362 76.4675C40.025 76.1872 40.5443 75.7799 40.9567 75.2747L40.4085 74.8272M37.5518 76.8955L40.4085 74.8272M41.863 71.6145C41.8631 71.6149 41.8632 71.6153 41.8633 71.6157L41.1693 71.7543M41.863 71.6145C41.863 71.6144 41.863 71.6144 41.863 71.6143L41.1693 71.7543M41.863 71.6145C41.992 72.2536 41.9776 72.9134 41.8209 73.5463C41.6642 74.1793 41.369 74.7696 40.9567 75.2747L40.4085 74.8272M41.1693 71.7543C41.2776 72.2909 41.2656 72.8449 41.134 73.3762C41.0024 73.9076 40.7546 74.4032 40.4085 74.8272" stroke="white" stroke-opacity="0.8" stroke-width="1.41533" stroke-linecap="round"/>
</g>
<g filter="url(#filter5_b_697_3725)">
<path d="M20.559 51.9878C22.8264 52.1053 25.0762 51.5327 27.0116 50.3454C28.9469 49.1581 30.4768 47.412 31.3995 45.3374C32.3221 43.2628 32.5941 40.9573 32.1795 38.7249C31.765 36.4926 30.6834 34.4384 29.0775 32.8334C27.4716 31.2283 25.4168 30.1478 23.1842 29.7345C20.9517 29.3212 18.6462 29.5944 16.5721 30.5181C14.498 31.4418 12.7527 32.9727 11.5665 34.9086C10.3802 36.8446 9.80874 39.0947 9.92748 41.362C10.0733 44.1339 11.2403 46.7535 13.2035 48.7157C15.1668 50.6778 17.787 51.8435 20.559 51.9878Z" fill="#6BA8F8" fill-opacity="0.35"/>
<path d="M20.5222 52.6945L20.5223 52.6945C22.9327 52.8194 25.3243 52.2107 27.3816 50.9486C29.4389 49.6865 31.0653 47.8303 32.0461 45.625C33.0268 43.4196 33.316 40.9688 32.8753 38.5957C32.4347 36.2227 31.2849 34.039 29.5778 32.3328C27.8706 30.6266 25.6863 29.4781 23.3131 29.0387C20.9398 28.5993 18.4891 28.8897 16.2842 29.8717C14.0794 30.8536 12.2241 32.4809 10.9631 34.5389C9.70205 36.5969 9.09456 38.9888 9.22078 41.3991L9.22079 41.3992C9.37577 44.3457 10.6164 47.1304 12.7033 49.2162C14.7902 51.302 17.5756 52.5411 20.5222 52.6945Z" stroke="white" stroke-opacity="0.8" stroke-width="1.41533" stroke-linecap="round"/>
</g>
<path d="M30.0265 64.0806C30.4381 64.4352 30.4366 65.0614 30.0521 65.4453C29.6696 65.8274 29.0525 65.8246 28.6387 65.4767C26.5374 63.7103 23.8742 62.7281 21.1086 62.7203C18.3416 62.7125 15.6717 63.6806 13.5599 65.4367C13.1454 65.7814 12.5305 65.7824 12.1492 65.4011C11.7635 65.0154 11.7637 64.3862 12.1789 64.0324C14.661 61.9172 17.8262 60.7482 21.109 60.7564C24.3935 60.7646 27.5544 61.9507 30.0265 64.0806Z" fill="url(#paint5_linear_697_3725)"/>
<path d="M27.2429 66.8615C27.6656 67.204 27.664 67.8324 27.2793 68.2171C26.897 68.5994 26.2809 68.5952 25.8524 68.2655C24.4994 67.2247 22.835 66.6487 21.1102 66.6413C19.3829 66.634 17.7112 67.1975 16.3483 68.2296C15.9195 68.5543 15.3075 68.556 14.9272 68.1757C14.5404 67.7889 14.541 67.1563 14.9686 66.8151C16.7048 65.4301 18.8696 64.6697 21.1102 64.6773C23.3533 64.6849 25.5153 65.4617 27.2429 66.8615Z" fill="url(#paint6_linear_697_3725)"/>
<path d="M24.4427 69.6596C24.8906 69.9722 24.8896 70.6071 24.5036 70.9935C24.1224 71.3752 23.5087 71.3654 23.0422 71.0945C22.4595 70.7563 21.7944 70.5712 21.1097 70.5651C20.4198 70.5589 19.7466 70.7349 19.1547 71.0676C18.6894 71.3291 18.0843 71.3339 17.707 70.9565C17.3166 70.5661 17.3192 69.9232 17.7763 69.6136C18.7532 68.9517 19.914 68.5944 21.1095 68.6012C22.3098 68.608 23.471 68.9815 24.4427 69.6596Z" fill="url(#paint7_linear_697_3725)"/>
<g filter="url(#filter6_b_697_3725)">
<path d="M83.2024 76.1878C83.7498 76.1865 84.2902 76.0638 84.7844 75.8285C85.2787 75.5933 85.7146 75.2513 86.0608 74.8272C86.407 74.4032 86.6548 73.9076 86.7863 73.3762C86.9179 72.8449 86.93 72.2909 86.8216 71.7543C84.8763 62.0136 76.9253 53.2993 67.4079 53.2993C57.8905 53.2993 49.9423 62.0136 47.997 71.7543C47.8887 72.2909 47.9008 72.8449 48.0323 73.3762C48.1639 73.9076 48.4117 74.4032 48.7579 74.8272C49.104 75.2513 49.54 75.5933 50.0342 75.8285C50.5285 76.0638 51.0688 76.1865 51.6162 76.1878H83.2024Z" fill="#6BA8F8" fill-opacity="0.35"/>
<path d="M83.2041 76.8955L83.2024 76.8955L51.6162 76.8955H51.6145C50.9625 76.894 50.3188 76.7478 49.7301 76.4675C49.1413 76.1872 48.622 75.7799 48.2097 75.2747C47.7973 74.7696 47.5021 74.1793 47.3454 73.5463C47.1887 72.9136 47.1743 72.254 47.3032 71.615C49.2908 61.6639 57.4442 52.5917 67.4079 52.5917C77.3713 52.5917 85.5275 61.6634 87.5154 71.6145M83.2041 76.8955L86.8216 71.7543M83.2041 76.8955C83.8562 76.894 84.4998 76.7478 85.0886 76.4675C85.6774 76.1872 86.1966 75.7799 86.609 75.2747L86.0608 74.8272M83.2041 76.8955L86.0608 74.8272M87.5154 71.6145C87.5154 71.6149 87.5155 71.6153 87.5156 71.6157L86.8216 71.7543M87.5154 71.6145C87.5153 71.6144 87.5153 71.6144 87.5153 71.6143L86.8216 71.7543M87.5154 71.6145C87.6443 72.2536 87.63 72.9134 87.4733 73.5463C87.3165 74.1793 87.0214 74.7696 86.609 75.2747L86.0608 74.8272M86.8216 71.7543C86.93 72.2909 86.9179 72.8449 86.7863 73.3762C86.6548 73.9076 86.407 74.4032 86.0608 74.8272" stroke="white" stroke-opacity="0.8" stroke-width="1.41533" stroke-linecap="round"/>
</g>
<g filter="url(#filter7_b_697_3725)">
<path d="M66.2113 51.9878C68.4788 52.1053 70.7286 51.5327 72.6639 50.3454C74.5993 49.1581 76.1292 47.412 77.0518 45.3374C77.9744 43.2628 78.2464 40.9573 77.8319 38.7249C77.4174 36.4926 76.3358 34.4384 74.7299 32.8334C73.124 31.2283 71.0692 30.1478 68.8366 29.7345C66.604 29.3212 64.2986 29.5944 62.2245 30.5181C60.1504 31.4418 58.4051 32.9727 57.2188 34.9086C56.0326 36.8446 55.4611 39.0947 55.5798 41.362C55.7256 44.1339 56.8927 46.7535 58.8559 48.7157C60.8191 50.6778 63.4394 51.8435 66.2113 51.9878Z" fill="#6BA8F8" fill-opacity="0.35"/>
<path d="M66.1745 52.6945L66.1747 52.6945C68.585 52.8194 70.9767 52.2107 73.034 50.9486C75.0913 49.6865 76.7176 47.8303 77.6984 45.625C78.6792 43.4196 78.9683 40.9688 78.5277 38.5957C78.087 36.2227 76.9373 34.039 75.2301 32.3328C73.523 30.6266 71.3387 29.4781 68.9654 29.0387C66.5921 28.5993 64.1414 28.8897 61.9366 29.8717C59.7318 30.8536 57.8764 32.4809 56.6154 34.5389C55.3544 36.5969 54.7469 38.9888 54.8731 41.3991L54.8731 41.3992C55.0281 44.3457 56.2687 47.1304 58.3556 49.2162C60.4425 51.302 63.2279 52.5411 66.1745 52.6945Z" stroke="white" stroke-opacity="0.8" stroke-width="1.41533" stroke-linecap="round"/>
</g>
<path d="M76.3507 64.2471C76.7623 64.6017 76.7608 65.2279 76.3764 65.6119C75.9938 65.9939 75.3767 65.9911 74.9629 65.6432C72.8616 63.8768 70.1984 62.8946 67.4328 62.8868C64.6659 62.879 61.9959 63.8471 59.8842 65.6032C59.4696 65.9479 58.8547 65.9489 58.4734 65.5676C58.0877 65.1819 58.0879 64.5528 58.5031 64.1989C60.9852 62.0837 64.1504 60.9147 67.4332 60.9229C70.7177 60.9311 73.8786 62.1172 76.3507 64.2471Z" fill="url(#paint8_linear_697_3725)"/>
<path d="M73.5672 67.028C73.9898 67.3705 73.9882 67.9989 73.6036 68.3836C73.2212 68.7659 72.6052 68.7617 72.1766 68.432C70.8236 67.3912 69.1592 66.8152 67.4344 66.8078C65.7071 66.8005 64.0354 67.364 62.6725 68.3961C62.2438 68.7208 61.6317 68.7225 61.2514 68.3422C60.8646 67.9554 60.8652 67.3228 61.2929 66.9816C63.029 65.5966 65.1938 64.8362 67.4344 64.8438C69.6775 64.8514 71.8395 65.6282 73.5672 67.028Z" fill="url(#paint9_linear_697_3725)"/>
<path d="M70.767 69.8261C71.2148 70.1387 71.2138 70.7736 70.8278 71.16C70.4466 71.5417 69.833 71.5319 69.3664 71.261C68.7837 70.9228 68.1186 70.7377 67.434 70.7316C66.7441 70.7254 66.0708 70.9014 65.4789 71.2341C65.0136 71.4956 64.4086 71.5004 64.0312 71.123C63.6408 70.7326 63.6434 70.0897 64.1005 69.7801C65.0775 69.1182 66.2382 68.7609 67.4337 68.7677C68.6341 68.7745 69.7952 69.148 70.767 69.8261Z" fill="url(#paint10_linear_697_3725)"/>
<defs>
<filter id="filter0_b_697_3725" x="-13.6054" y="-12.6054" width="115.211" height="115.209" filterUnits="userSpaceOnUse" color-interpolation-filters="sRGB">
<feFlood flood-opacity="0" result="BackgroundImageFix"/>
<feGaussianBlur in="BackgroundImageFix" stdDeviation="12.6972"/>
<feComposite in2="SourceAlpha" operator="in" result="effect1_backgroundBlur_697_3725"/>
<feBlend mode="normal" in="SourceGraphic" in2="effect1_backgroundBlur_697_3725" result="shape"/>
</filter>
<filter id="filter1_b_697_3725" x="-11.2675" y="-10.2689" width="110.537" height="110.536" filterUnits="userSpaceOnUse" color-interpolation-filters="sRGB">
<feFlood flood-opacity="0" result="BackgroundImageFix"/>
<feGaussianBlur in="BackgroundImageFix" stdDeviation="12.6972"/>
<feComposite in2="SourceAlpha" operator="in" result="effect1_backgroundBlur_697_3725"/>
<feBlend mode="normal" in="SourceGraphic" in2="effect1_backgroundBlur_697_3725" result="shape"/>
</filter>
<filter id="filter2_b_697_3725" x="-10.2393" y="-9.85797" width="109.738" height="93.6549" filterUnits="userSpaceOnUse" color-interpolation-filters="sRGB">
<feFlood flood-opacity="0" result="BackgroundImageFix"/>
<feGaussianBlur in="BackgroundImageFix" stdDeviation="16.9839"/>
<feComposite in2="SourceAlpha" operator="in" result="effect1_backgroundBlur_697_3725"/>
<feBlend mode="normal" in="SourceGraphic" in2="effect1_backgroundBlur_697_3725" result="shape"/>
</filter>
<filter id="filter3_b_697_3725" x="-2.59869" y="-33.6099" width="93.2228" height="93.2223" filterUnits="userSpaceOnUse" color-interpolation-filters="sRGB">
<feFlood flood-opacity="0" result="BackgroundImageFix"/>
<feGaussianBlur in="BackgroundImageFix" stdDeviation="16.9839"/>
<feComposite in2="SourceAlpha" operator="in" result="effect1_backgroundBlur_697_3725"/>
<feBlend mode="normal" in="SourceGraphic" in2="effect1_backgroundBlur_697_3725" result="shape"/>
</filter>
<filter id="filter4_b_697_3725" x="-33.1124" y="17.916" width="109.738" height="93.6549" filterUnits="userSpaceOnUse" color-interpolation-filters="sRGB">
<feFlood flood-opacity="0" result="BackgroundImageFix"/>
<feGaussianBlur in="BackgroundImageFix" stdDeviation="16.9839"/>
<feComposite in2="SourceAlpha" operator="in" result="effect1_backgroundBlur_697_3725"/>
<feBlend mode="normal" in="SourceGraphic" in2="effect1_backgroundBlur_697_3725" result="shape"/>
</filter>
<filter id="filter5_b_697_3725" x="-25.4717" y="-5.83649" width="93.2228" height="93.2223" filterUnits="userSpaceOnUse" color-interpolation-filters="sRGB">
<feFlood flood-opacity="0" result="BackgroundImageFix"/>
<feGaussianBlur in="BackgroundImageFix" stdDeviation="16.9839"/>
<feComposite in2="SourceAlpha" operator="in" result="effect1_backgroundBlur_697_3725"/>
<feBlend mode="normal" in="SourceGraphic" in2="effect1_backgroundBlur_697_3725" result="shape"/>
</filter>
<filter id="filter6_b_697_3725" x="12.54" y="17.916" width="109.738" height="93.6549" filterUnits="userSpaceOnUse" color-interpolation-filters="sRGB">
<feFlood flood-opacity="0" result="BackgroundImageFix"/>
<feGaussianBlur in="BackgroundImageFix" stdDeviation="16.9839"/>
<feComposite in2="SourceAlpha" operator="in" result="effect1_backgroundBlur_697_3725"/>
<feBlend mode="normal" in="SourceGraphic" in2="effect1_backgroundBlur_697_3725" result="shape"/>
</filter>
<filter id="filter7_b_697_3725" x="20.1806" y="-5.83649" width="93.2228" height="93.2223" filterUnits="userSpaceOnUse" color-interpolation-filters="sRGB">
<feFlood flood-opacity="0" result="BackgroundImageFix"/>
<feGaussianBlur in="BackgroundImageFix" stdDeviation="16.9839"/>
<feComposite in2="SourceAlpha" operator="in" result="effect1_backgroundBlur_697_3725"/>
<feBlend mode="normal" in="SourceGraphic" in2="effect1_backgroundBlur_697_3725" result="shape"/>
</filter>
<linearGradient id="paint0_linear_697_3725" x1="40.1614" y1="93.5651" x2="95.7362" y2="-10.7429" gradientUnits="userSpaceOnUse">
<stop offset="0.0516511" stop-color="#E7C5FF"/>
<stop offset="0.461458" stop-color="#7B8BE6"/>
<stop offset="1" stop-color="#0049C9"/>
</linearGradient>
<linearGradient id="paint1_linear_697_3725" x1="34.9883" y1="30.98" x2="37.7775" y2="40.9723" gradientUnits="userSpaceOnUse">
<stop stop-color="white" stop-opacity="0.7"/>
<stop offset="1" stop-color="white" stop-opacity="0.89"/>
</linearGradient>
<linearGradient id="paint2_linear_697_3725" x1="37.7676" y1="34.9028" x2="40.1501" y2="42.6371" gradientUnits="userSpaceOnUse">
<stop stop-color="white" stop-opacity="0.7"/>
<stop offset="1" stop-color="white" stop-opacity="0.89"/>
</linearGradient>
<linearGradient id="paint3_linear_697_3725" x1="40.5391" y1="38.8262" x2="42.5685" y2="44.2279" gradientUnits="userSpaceOnUse">
<stop stop-color="white" stop-opacity="0.7"/>
<stop offset="1" stop-color="white" stop-opacity="0.89"/>
</linearGradient>
<linearGradient id="paint4_linear_697_3725" x1="43.4258" y1="42.5464" x2="45.8603" y2="44.9785" gradientUnits="userSpaceOnUse">
<stop stop-color="white" stop-opacity="0.7"/>
<stop offset="1" stop-color="white" stop-opacity="0.89"/>
</linearGradient>
<linearGradient id="paint5_linear_697_3725" x1="11.4492" y1="60.7563" x2="14.2363" y2="70.7442" gradientUnits="userSpaceOnUse">
<stop stop-color="white" stop-opacity="0.64"/>
<stop offset="1" stop-color="white" stop-opacity="0.38"/>
</linearGradient>
<linearGradient id="paint6_linear_697_3725" x1="14.2246" y1="64.6772" x2="16.6063" y2="72.4103" gradientUnits="userSpaceOnUse">
<stop stop-color="white" stop-opacity="0.64"/>
<stop offset="0.0001" stop-color="white" stop-opacity="0.38"/>
</linearGradient>
<linearGradient id="paint7_linear_697_3725" x1="16.9961" y1="68.6011" x2="19.0267" y2="74.0041" gradientUnits="userSpaceOnUse">
<stop stop-color="white" stop-opacity="0.64"/>
<stop offset="1" stop-color="white" stop-opacity="0.38"/>
</linearGradient>
<linearGradient id="paint8_linear_697_3725" x1="57.7734" y1="60.9229" x2="60.5605" y2="70.9107" gradientUnits="userSpaceOnUse">
<stop stop-color="white" stop-opacity="0.64"/>
<stop offset="1" stop-color="white" stop-opacity="0.38"/>
</linearGradient>
<linearGradient id="paint9_linear_697_3725" x1="60.5488" y1="64.8438" x2="62.9305" y2="72.5768" gradientUnits="userSpaceOnUse">
<stop stop-color="white" stop-opacity="0.64"/>
<stop offset="1" stop-color="white" stop-opacity="0.38"/>
</linearGradient>
<linearGradient id="paint10_linear_697_3725" x1="63.3203" y1="68.7676" x2="65.3509" y2="74.1706" gradientUnits="userSpaceOnUse">
<stop stop-color="white" stop-opacity="0.64"/>
<stop offset="1" stop-color="white" stop-opacity="0.38"/>
</linearGradient>
</defs>
</svg>
