<svg width="71" height="78" viewBox="0 0 71 78" fill="none" xmlns="http://www.w3.org/2000/svg">
<g filter="url(#filter0_b_697_3591)">
<path d="M53.6828 74.1204C54.3438 74.1188 54.9963 73.9707 55.5932 73.6865C56.1901 73.4024 56.7165 72.9894 57.1345 72.4773C57.5526 71.9652 57.8518 71.3668 58.0107 70.7251C58.1696 70.0834 58.1841 69.4144 58.0533 68.7665C55.7042 57.0035 46.1025 46.48 34.6092 46.48C23.1159 46.48 13.5176 57.0035 11.1684 68.7665C11.0376 69.4144 11.0522 70.0834 11.2111 70.7251C11.37 71.3668 11.6692 71.9652 12.0873 72.4773C12.5053 72.9894 13.0317 73.4024 13.6286 73.6865C14.2255 73.9707 14.878 74.1188 15.5391 74.1204H53.6828Z" fill="#6BA8F8" fill-opacity="0.35"/>
<path d="M53.6828 74.975L53.6848 74.975C54.4722 74.9731 55.2495 74.7966 55.9605 74.4581C56.6715 74.1197 57.2986 73.6277 57.7966 73.0177C58.2945 72.4077 58.651 71.6949 58.8402 70.9305C59.0294 70.1664 59.0468 69.3698 58.8912 68.5981C56.4908 56.581 46.6413 45.6254 34.6092 45.6254C22.5769 45.6254 12.7309 56.5812 10.3306 68.5982C10.175 69.3699 10.1924 70.1664 10.3816 70.9305C10.5708 71.6949 10.9273 72.4077 11.4253 73.0177L12.0812 72.4823L11.4253 73.0177C11.9232 73.6277 12.5503 74.1197 13.2613 74.4581L13.6286 73.6865L13.2613 74.4581C13.9723 74.7966 14.7496 74.9731 15.537 74.975H15.5391L53.6828 74.975Z" stroke="white" stroke-opacity="0.8" stroke-width="1.70916" stroke-linecap="round"/>
</g>
<g filter="url(#filter1_b_697_3591)">
<path d="M33.1658 44.8963C35.904 45.0382 38.6209 44.3467 40.958 42.9129C43.2952 41.4791 45.1427 39.3705 46.2569 36.8652C47.371 34.3599 47.6995 31.5757 47.1989 28.8799C46.6983 26.1841 45.3922 23.7035 43.4529 21.7652C41.5136 19.8269 39.0322 18.5221 36.3361 18.023C33.6401 17.5238 30.856 17.8538 28.3513 18.9693C25.8466 20.0848 23.7389 21.9334 22.3064 24.2713C20.8739 26.6092 20.1838 29.3264 20.3272 32.0645C20.5032 35.4118 21.9126 38.5753 24.2834 40.9448C26.6541 43.3143 29.8184 44.722 33.1658 44.8963Z" fill="#6BA8F8" fill-opacity="0.35"/>
<path d="M33.1214 45.7497L33.1216 45.7497C36.0323 45.9006 38.9205 45.1655 41.4049 43.6413C43.8893 42.1172 45.8533 39.8757 47.0377 37.2125C48.2221 34.5493 48.5713 31.5896 48.0391 28.7239C47.507 25.8582 46.1185 23.2212 44.057 21.1607C41.9955 19.1003 39.3577 17.7133 36.4917 17.1827C33.6257 16.6521 30.6662 17.0028 28.0036 18.1886L28.3513 18.9693L28.0036 18.1886C25.3411 19.3744 23.1006 21.3396 21.5777 23.8248C20.0549 26.31 19.3213 29.1985 19.4737 32.1092L19.4738 32.1094C19.6609 35.6676 21.1591 39.0305 23.6792 41.5493C26.1994 44.0681 29.5631 45.5644 33.1214 45.7497Z" stroke="white" stroke-opacity="0.8" stroke-width="1.70916" stroke-linecap="round"/>
</g>
<path d="M66.4538 1H42.9338C41.9949 1.00212 41.095 1.37574 40.4308 2.03924C39.7665 2.70275 39.3919 3.6022 39.3887 4.54106V13.6326C39.3924 14.5713 39.7672 15.4704 40.4314 16.1338C41.0955 16.7972 41.9951 17.171 42.9338 17.1737H45.7111L45.2858 24.3082L50.8624 17.1737H66.4538C67.3928 17.1715 68.2929 16.798 68.9575 16.1345C69.6221 15.4711 69.9972 14.5716 70.0009 13.6326V4.54106C69.9977 3.60185 69.6228 2.70212 68.9581 2.03856C68.2934 1.37499 67.393 1.00159 66.4538 1Z" fill="#6BA8F8" fill-opacity="0.35" stroke="url(#paint0_linear_697_3591)" stroke-width="1.41079" stroke-miterlimit="10"/>
<path d="M47.1733 10.7788C46.7418 10.7783 46.3281 10.6065 46.0231 10.3011C45.7182 9.9958 45.5469 9.58189 45.5469 9.15035C45.5474 8.71916 45.7189 8.30579 46.0238 8.00089C46.3287 7.69599 46.7421 7.52446 47.1733 7.52393C47.6049 7.52393 48.0187 7.69522 48.3241 8.00017C48.6294 8.30513 48.8012 8.71881 48.8018 9.15035C48.8018 9.58224 48.6302 9.99646 48.3248 10.3019C48.0194 10.6072 47.6052 10.7788 47.1733 10.7788Z" fill="white"/>
<path d="M54.8315 10.7788C54.6178 10.7788 54.4061 10.7367 54.2087 10.6548C54.0112 10.5729 53.8318 10.453 53.6807 10.3017C53.5297 10.1505 53.4099 9.97093 53.3283 9.77337C53.2467 9.57581 53.2048 9.36411 53.2051 9.15035C53.2051 8.71899 53.3764 8.30531 53.6814 8.0003C53.9864 7.69528 54.4002 7.52393 54.8315 7.52393C55.2629 7.52393 55.6766 7.69528 55.9816 8.0003C56.2866 8.30531 56.4579 8.71899 56.4579 9.15035C56.4582 9.36411 56.4164 9.57581 56.3347 9.77337C56.2531 9.97093 56.1333 10.1505 55.9823 10.3017C55.8312 10.453 55.6519 10.5729 55.4544 10.6548C55.257 10.7367 55.0453 10.7788 54.8315 10.7788Z" fill="white"/>
<path d="M62.4858 10.7788C62.2721 10.7788 62.0604 10.7367 61.863 10.6548C61.6655 10.5729 61.4861 10.453 61.335 10.3017C61.184 10.1505 61.0642 9.97093 60.9826 9.77337C60.901 9.57581 60.8591 9.36411 60.8594 9.15035C60.8594 8.93676 60.9014 8.72527 60.9832 8.52794C61.0649 8.33061 61.1847 8.15133 61.3357 8.0003C61.4868 7.84927 61.6661 7.72946 61.8634 7.64772C62.0607 7.56599 62.2722 7.52393 62.4858 7.52393C62.9172 7.52393 63.3309 7.69528 63.6359 8.0003C63.9409 8.30531 64.1122 8.71899 64.1122 9.15035C64.1125 9.36411 64.0707 9.57581 63.989 9.77337C63.9074 9.97093 63.7876 10.1505 63.6366 10.3017C63.4855 10.453 63.3062 10.5729 63.1087 10.6548C62.9113 10.7367 62.6996 10.7788 62.4858 10.7788Z" fill="white"/>
<g filter="url(#filter2_d_697_3591)">
<path d="M37.2819 28.0752H24.1071C22.3674 28.0752 20.957 29.4855 20.957 31.2253V31.3059C20.957 33.0456 22.3674 34.456 24.1071 34.456H37.2819C39.0217 34.456 40.432 33.0456 40.432 31.3059V31.2253C40.432 29.4855 39.0217 28.0752 37.2819 28.0752Z" fill="url(#paint1_linear_697_3591)"/>
</g>
<path d="M28.6113 1.63379H1V76.2039H28.6113V1.63379Z" fill="url(#paint2_linear_697_3591)" stroke="url(#paint3_linear_697_3591)" stroke-width="1.91867" stroke-miterlimit="10"/>
<defs>
<filter id="filter0_b_697_3591" x="-31.6488" y="3.75114" width="132.52" height="113.098" filterUnits="userSpaceOnUse" color-interpolation-filters="sRGB">
<feFlood flood-opacity="0" result="BackgroundImageFix"/>
<feGaussianBlur in="BackgroundImageFix" stdDeviation="20.5099"/>
<feComposite in2="SourceAlpha" operator="in" result="effect1_backgroundBlur_697_3591"/>
<feBlend mode="normal" in="SourceGraphic" in2="effect1_backgroundBlur_697_3591" result="shape"/>
</filter>
<filter id="filter1_b_697_3591" x="-22.4202" y="-24.9325" width="112.577" height="112.576" filterUnits="userSpaceOnUse" color-interpolation-filters="sRGB">
<feFlood flood-opacity="0" result="BackgroundImageFix"/>
<feGaussianBlur in="BackgroundImageFix" stdDeviation="20.5099"/>
<feComposite in2="SourceAlpha" operator="in" result="effect1_backgroundBlur_697_3591"/>
<feBlend mode="normal" in="SourceGraphic" in2="effect1_backgroundBlur_697_3591" result="shape"/>
</filter>
<filter id="filter2_d_697_3591" x="15.5904" y="22.7086" width="31.7412" height="18.6474" filterUnits="userSpaceOnUse" color-interpolation-filters="sRGB">
<feFlood flood-opacity="0" result="BackgroundImageFix"/>
<feColorMatrix in="SourceAlpha" type="matrix" values="0 0 0 0 0 0 0 0 0 0 0 0 0 0 0 0 0 0 127 0" result="hardAlpha"/>
<feOffset dx="0.766661" dy="0.766661"/>
<feGaussianBlur stdDeviation="3.06664"/>
<feComposite in2="hardAlpha" operator="out"/>
<feColorMatrix type="matrix" values="0 0 0 0 0.419608 0 0 0 0 0.658824 0 0 0 0 0.972549 0 0 0 0.5 0"/>
<feBlend mode="normal" in2="BackgroundImageFix" result="effect1_dropShadow_697_3591"/>
<feBlend mode="normal" in="SourceGraphic" in2="effect1_dropShadow_697_3591" result="shape"/>
</filter>
<linearGradient id="paint0_linear_697_3591" x1="54.9526" y1="29.2739" x2="86.1278" y2="-10.8619" gradientUnits="userSpaceOnUse">
<stop stop-color="white"/>
<stop offset="1" stop-color="white" stop-opacity="0.2"/>
</linearGradient>
<linearGradient id="paint1_linear_697_3591" x1="20.957" y1="31.2656" x2="40.432" y2="31.2656" gradientUnits="userSpaceOnUse">
<stop stop-color="#F0DFFC"/>
<stop offset="1" stop-color="#75A5F9"/>
</linearGradient>
<linearGradient id="paint2_linear_697_3591" x1="1" y1="38.9188" x2="28.6113" y2="38.9188" gradientUnits="userSpaceOnUse">
<stop stop-color="#E7C5FF"/>
<stop offset="1" stop-color="#0049C9"/>
</linearGradient>
<linearGradient id="paint3_linear_697_3591" x1="1" y1="1.63379" x2="49.5515" y2="19.5929" gradientUnits="userSpaceOnUse">
<stop stop-color="white" stop-opacity="0.25"/>
<stop offset="1" stop-color="white" stop-opacity="0"/>
</linearGradient>
</defs>
</svg>
