<svg width="113" height="85" viewBox="0 0 113 85" fill="none" xmlns="http://www.w3.org/2000/svg">
<g clip-path="url(#clip0_546_6960)">
<path d="M84.3143 26.7639L93.6476 10.1985C94.2699 9.24286 93.9587 7.9686 93.0254 7.33147C92.0921 6.69434 90.8476 7.01291 90.2254 7.9686L80.8921 24.8525C73.7365 21.3483 65.6476 19.4369 56.9365 19.4369C48.2254 19.4369 40.1365 21.3483 32.981 24.8525L23.6476 7.9686C23.0254 7.01291 21.781 6.69434 20.8476 7.33147C19.9143 7.9686 19.6032 9.24286 20.2254 10.1985L29.5587 26.7639C13.6921 35.6837 2.49208 52.249 0.936523 72H112.937C111.381 52.249 100.492 35.6837 84.3143 26.7639ZM29.5587 54.479C26.4476 54.479 23.9587 51.9305 23.9587 48.7448C23.9587 45.5592 26.4476 43.0107 29.5587 43.0107C32.6699 43.0107 35.1587 45.5592 35.1587 48.7448C35.1587 51.9305 32.6699 54.479 29.5587 54.479ZM78.4032 54.479C75.2921 54.479 72.8032 51.9305 72.8032 48.7448C72.8032 45.5592 75.2921 43.0107 78.4032 43.0107C81.5143 43.0107 84.0032 45.5592 84.0032 48.7448C84.0032 51.9305 81.5143 54.479 78.4032 54.479Z" fill="white"/>
</g>
<defs>
<clipPath id="clip0_546_6960">
<rect width="112" height="85" fill="white" transform="translate(0.936523)"/>
</clipPath>
</defs>
</svg>
