<svg width="70" height="85" viewBox="0 0 70 85" fill="none" xmlns="http://www.w3.org/2000/svg">
<path d="M48.4296 5C40.1468 8.01191 33.621 10.7728 34.625 23.5734C42.9077 21.5655 50.1865 16.5456 48.4296 5ZM22.8284 22.0675C14.7966 22.0675 3 29.3462 3 42.6488C3 61.4732 15.5496 80.2976 22.8284 80.2976C28.0992 80.2976 32.6171 76.7838 36.382 76.7838C39.8958 76.7838 43.6607 80.2976 48.9316 80.2976C56.2103 80.2976 64.2421 69.505 65.999 59.7163C59.7242 55.1984 55.2064 52.4375 55.2064 44.4058C55.2064 39.1349 59.7242 33.6131 64.9951 29.0952C62.2341 25.5814 56.9633 21.8165 51.4415 21.8165C45.9197 21.8165 40.3978 26.0833 36.131 26.3343C32.6171 26.5853 28.0992 22.0675 22.8284 22.0675Z" fill="white"/>
</svg>
