<svg width="21" height="21" viewBox="0 0 21 21" fill="none" xmlns="http://www.w3.org/2000/svg">
<path d="M20.7075 19.2894L16.9975 15.6094C18.4376 13.8138 19.135 11.5347 18.9463 9.24072C18.7576 6.94672 17.6971 4.8122 15.983 3.27606C14.2688 1.73992 12.0313 0.918926 9.73039 0.981887C7.4295 1.04485 5.24018 1.98698 3.6126 3.61456C1.98502 5.24214 1.04289 7.43145 0.979933 9.73234C0.916973 12.0332 1.73797 14.2708 3.27411 15.9849C4.81025 17.6991 6.94476 18.7595 9.23876 18.9482C11.5328 19.1369 13.8119 18.4395 15.6075 16.9994L19.2875 20.6794C19.3804 20.7731 19.491 20.8475 19.6129 20.8983C19.7347 20.9491 19.8655 20.9752 19.9975 20.9752C20.1295 20.9752 20.2602 20.9491 20.382 20.8983C20.5039 20.8475 20.6145 20.7731 20.7075 20.6794C20.8877 20.493 20.9885 20.2438 20.9885 19.9844C20.9885 19.7251 20.8877 19.4759 20.7075 19.2894ZM9.99746 16.9994C8.61299 16.9994 7.25962 16.5889 6.10847 15.8197C4.95733 15.0505 4.06012 13.9573 3.53031 12.6782C3.00049 11.3991 2.86187 9.99165 3.13197 8.63378C3.40206 7.27592 4.06875 6.02864 5.04772 5.04967C6.02668 4.0707 7.27396 3.40402 8.63183 3.13392C9.9897 2.86382 11.3972 3.00245 12.6762 3.53226C13.9553 4.06207 15.0486 4.95928 15.8178 6.11042C16.5869 7.26157 16.9975 8.61495 16.9975 9.99942C16.9975 11.8559 16.26 13.6364 14.9472 14.9492C13.6345 16.2619 11.854 16.9994 9.99746 16.9994Z" fill="#242424"/>
</svg>
