<svg width="45" height="43" viewBox="0 0 45 43" fill="none" xmlns="http://www.w3.org/2000/svg">
<path d="M37.9725 36.6389H31.5376V26.6609C31.5376 24.2816 31.4947 21.2186 28.1908 21.2186C24.8394 21.2186 24.3266 23.811 24.3266 26.4877V36.6382H17.8917V16.1194H24.0692V18.9235H24.1556C24.7739 17.8769 25.6672 17.0159 26.7405 16.4323C27.8138 15.8486 29.027 15.5641 30.2507 15.6091C36.7727 15.6091 37.9752 19.8567 37.9752 25.3826L37.9725 36.6389ZM10.6311 13.3147C9.8925 13.3148 9.17047 13.0981 8.55631 12.6919C7.94215 12.2857 7.46345 11.7083 7.1807 11.0328C6.89794 10.3572 6.82384 9.61379 6.96779 8.89653C7.11175 8.17927 7.46729 7.52039 7.98944 7.0032C8.51159 6.48601 9.1769 6.13374 9.90124 5.99095C10.6256 5.84815 11.3764 5.92124 12.0588 6.20097C12.7412 6.4807 13.3245 6.9545 13.7349 7.56247C14.1453 8.17044 14.3645 8.88527 14.3646 9.61655C14.3647 10.1021 14.2682 10.5829 14.0806 11.0316C13.893 11.4802 13.6181 11.8878 13.2714 12.2312C12.9247 12.5746 12.5131 12.8471 12.06 13.033C11.607 13.2188 11.1214 13.3146 10.6311 13.3147ZM13.8485 36.6389H7.40694V16.1194H13.8485V36.6389ZM41.1805 0.00292966H4.17344C3.33349 -0.00645589 2.52409 0.31473 1.92318 0.895909C1.32227 1.47709 0.979001 2.27071 0.96875 3.10238V39.897C0.97865 40.7291 1.32171 41.5232 1.92261 42.105C2.5235 42.6868 3.33307 43.0086 4.17344 42.9998H41.1805C42.0225 43.0102 42.8344 42.6893 43.4376 42.1075C44.0409 41.5258 44.3863 40.7307 44.3979 39.897V3.09973C44.3859 2.26641 44.0403 1.47188 43.437 0.890717C42.8337 0.309552 42.0221 -0.0107167 41.1805 0.000273806" fill="#0A66C2"/>
</svg>
