<svg width="200" height="42" viewBox="0 0 200 42" fill="none" xmlns="http://www.w3.org/2000/svg">
<g clip-path="url(#clip0_546_6065)">
<path d="M59.5469 38.0333V16.1C59.5469 15.3417 60.0076 14.875 60.7562 14.875H76.8806C88.8587 14.875 93.6384 18.4333 93.6384 27.0667C93.6384 35.7583 88.9163 39.2583 76.8806 39.2583H60.7562C60.0076 39.2583 59.5469 38.7917 59.5469 38.0333ZM76.3047 34.125C86.6704 34.125 88.2828 31.5583 88.2828 27.0667C88.2828 22.575 86.6704 20.0083 76.3047 20.0083H65.1904C64.9601 20.0083 64.8449 20.125 64.8449 20.3583V33.7167C64.8449 33.95 64.9601 34.0667 65.1904 34.0667H76.3047V34.125Z" fill="white"/>
<path d="M96.75 30.392C96.75 24.7337 100.205 21.292 109.131 21.292C118.057 21.292 121.57 24.7337 121.57 30.392C121.512 36.1087 118.115 39.492 109.131 39.492C100.205 39.492 96.75 36.1087 96.75 30.392ZM116.618 30.392C116.618 26.717 114.429 25.4337 109.131 25.4337C103.891 25.4337 101.645 26.717 101.645 30.392C101.645 34.1253 103.833 35.4087 109.131 35.4087C114.429 35.4087 116.618 34.1253 116.618 30.392Z" fill="white"/>
<path d="M149.842 30.3917C149.785 36.225 147.251 39.4917 138.267 39.4917C133.373 39.4917 131.011 38.5 129.802 36.75V38.325C129.802 38.9083 129.514 39.2 128.938 39.2H125.829C125.253 39.2 124.965 38.9083 124.965 38.325V15.75C124.965 15.1667 125.253 14.875 125.829 14.875H128.938C129.514 14.875 129.802 15.1667 129.802 15.75V23.9167C131.011 22.225 133.43 21.2917 138.267 21.2917C147.251 21.2917 149.9 24.5583 149.842 30.3917ZM144.948 30.3917C144.948 26.425 142.529 25.4333 137.231 25.4333C131.875 25.4333 129.572 26.425 129.572 30.3917C129.572 34.3583 131.933 35.4083 137.231 35.4083C142.529 35.4083 144.948 34.3583 144.948 30.3917Z" fill="white"/>
<path d="M174.549 31.967H157.734C158.54 34.767 161.304 35.467 165.565 35.467C168.618 35.467 170.921 35.0587 173.282 34.1837C173.685 34.067 174.376 34.067 174.664 34.592L175.125 35.5837C175.413 36.167 175.413 36.8087 174.837 37.1587C172.879 38.5587 169.769 39.492 165.162 39.492C156.352 39.492 152.551 36.0503 152.551 30.392C152.551 24.7337 156.064 21.292 164.759 21.292C173.685 21.292 176.853 24.967 176.853 29.6337C176.91 31.442 176.507 31.967 174.549 31.967ZM157.618 28.817H172.303C171.727 26.3087 169.712 25.3753 164.932 25.3753C160.152 25.3753 158.079 26.3087 157.618 28.817Z" fill="white"/>
<path d="M180.363 38.3829V22.4579C180.363 21.8746 180.651 21.5829 181.227 21.5829H184.337C184.913 21.5829 185.201 21.8746 185.201 22.4579V24.2079C185.201 24.6746 185.719 24.8496 186.18 24.3246C187.562 22.6329 189.404 21.3496 193.781 21.3496C196.545 21.3496 198.1 21.9329 198.849 22.3413C199.885 22.8663 200 23.4496 200 24.3246V25.5496C200 26.5413 199.367 26.6579 198.388 26.3663C196.891 25.8996 195.451 25.4329 192.745 25.4329C188.425 25.4329 185.201 26.6579 185.201 30.1579V38.4413C185.201 39.0246 184.913 39.3163 184.337 39.3163H181.227C180.651 39.2579 180.363 38.9663 180.363 38.3829Z" fill="white"/>
<path d="M44.63 26.5418C44.63 30.6835 43.0176 34.5335 40.1382 37.4502C37.2589 40.3668 33.4581 42.0002 29.3694 42.0002H1.26692C0.575871 42.0002 0 41.4168 0 40.7168V37.3335C0 36.6335 0.575871 36.0502 1.26692 36.0502H29.3694C31.9033 36.0502 34.2643 35.0585 35.9919 33.2502C37.7771 31.4418 38.7561 29.0502 38.7561 26.5418C38.7561 23.9752 37.7771 21.5835 35.9919 19.8335C34.2067 18.0252 31.8457 17.0335 29.3694 17.0335H11.4598C10.3081 17.0335 9.21394 16.5085 8.52289 15.6335L8.29254 15.2835L5.93147 11.3168V31.0918C5.93147 31.7918 5.3556 32.3752 4.66456 32.3752H1.26692C0.575871 32.3752 0 31.7918 0 31.0918V3.85017C0 2.21684 1.03657 0.758507 2.53383 0.233507C4.0311 -0.291493 5.75871 0.175174 6.73769 1.40017L7.02563 1.75017L12.6116 11.0835H29.3694C33.4581 11.0835 37.2589 12.7168 40.1382 15.6335C43.0176 18.5502 44.63 22.4002 44.63 26.5418Z" fill="white"/>
</g>
<defs>
<clipPath id="clip0_546_6065">
<rect width="200" height="42" fill="white"/>
</clipPath>
</defs>
</svg>
