<svg width="85" height="85" viewBox="0 0 85 85" fill="none" xmlns="http://www.w3.org/2000/svg">
<g clip-path="url(#clip0_546_6829)">
<path d="M42.5 85C65.9721 85 85 65.9721 85 42.5C85 19.0279 65.9721 0 42.5 0C19.0279 0 0 19.0279 0 42.5C0 65.9721 19.0279 85 42.5 85Z" fill="url(#paint0_linear_546_6829)"/>
<path d="M28.7686 45.6076L33.8108 59.5639C33.8108 59.5639 34.4412 60.8697 35.1163 60.8697C35.7913 60.8697 45.8316 50.4246 45.8316 50.4246L56.9967 28.8594L28.9485 42.005L28.7686 45.6076Z" fill="#C8DAEA"/>
<path d="M35.4546 49.1855L34.4867 59.4727C34.4867 59.4727 34.0815 62.6248 37.2329 59.4727C40.3843 56.3206 43.4007 53.8899 43.4007 53.8899" fill="#A9C6D8"/>
<path d="M28.8601 46.104L18.488 42.7246C18.488 42.7246 17.2484 42.2217 17.6475 41.0813C17.7297 40.8461 17.8955 40.646 18.3913 40.3021C20.6895 38.7002 60.9288 24.2371 60.9288 24.2371C60.9288 24.2371 62.065 23.8542 62.7351 24.1089C62.9009 24.1602 63.05 24.2546 63.1673 24.3825C63.2846 24.5104 63.3658 24.6671 63.4027 24.8367C63.4751 25.1362 63.5054 25.4443 63.4927 25.7522C63.4895 26.0185 63.4572 26.2654 63.4328 26.6525C63.1877 30.6068 55.8536 60.1188 55.8536 60.1188C55.8536 60.1188 55.4148 61.8457 53.8427 61.9048C53.4563 61.9173 53.0714 61.8519 52.7109 61.7124C52.3504 61.5729 52.0216 61.3623 51.7442 61.0931C48.6591 58.4393 37.9958 51.2731 35.6396 49.6971C35.5864 49.6608 35.5417 49.6137 35.5083 49.5587C35.4749 49.5037 35.4538 49.4422 35.4462 49.3783C35.4133 49.2122 35.5939 49.0064 35.5939 49.0064C35.5939 49.0064 54.1614 32.5023 54.6555 30.7697C54.6937 30.6355 54.5492 30.5692 54.3552 30.628C53.1219 31.0817 31.7437 44.5822 29.3843 46.0722C29.2144 46.1236 29.0349 46.1345 28.8601 46.104Z" fill="white"/>
</g>
<defs>
<linearGradient id="paint0_linear_546_6829" x1="42.5" y1="85" x2="42.5" y2="0" gradientUnits="userSpaceOnUse">
<stop stop-color="#1D93D2"/>
<stop offset="1" stop-color="#38B0E3"/>
</linearGradient>
<clipPath id="clip0_546_6829">
<rect width="85" height="85" fill="white"/>
</clipPath>
</defs>
</svg>
