<svg width="49" height="40" viewBox="0 0 49 40" fill="none" xmlns="http://www.w3.org/2000/svg">
<path d="M48.3085 4.8051C46.7389 5.48062 45.0887 5.95101 43.3988 6.20466C44.1889 6.06922 45.3514 4.64709 45.8142 4.07146C46.5172 3.20319 47.053 2.21199 47.3943 1.1482C47.3943 1.06919 47.4733 0.956327 47.3943 0.899893C47.3545 0.87816 47.3099 0.866771 47.2645 0.866771C47.2191 0.866771 47.1745 0.87816 47.1347 0.899893C45.2997 1.8936 43.3468 2.65203 41.322 3.15724C41.2515 3.1788 41.1764 3.18073 41.1048 3.16284C41.0332 3.14494 40.9678 3.10789 40.9157 3.05566C40.7581 2.86799 40.5885 2.69079 40.4078 2.52518C39.582 1.78528 38.6451 1.1797 37.6313 0.730592C36.2628 0.169165 34.7847 -0.0739775 33.3085 0.0195283C31.8761 0.109989 30.4776 0.494178 29.2001 1.1482C27.942 1.83773 26.8364 2.77448 25.9495 3.90216C25.0166 5.06284 24.3432 6.40982 23.9743 7.85252C23.6702 9.22482 23.6357 10.6431 23.8728 12.0286C23.8728 12.2656 23.8728 12.2995 23.6696 12.2656C15.6222 11.0805 9.01942 8.22498 3.62437 2.09629C3.38734 1.82541 3.26319 1.82541 3.07132 2.09629C0.723676 5.66289 1.86364 11.3063 4.79818 14.0941C5.19322 14.4665 5.59954 14.8277 6.02844 15.1663C4.68297 15.0708 3.37035 14.7062 2.16838 14.0941C1.94264 13.9474 1.81849 14.0264 1.8072 14.2972C1.77521 14.6728 1.77521 15.0504 1.8072 15.4259C2.04271 17.2257 2.75199 18.9306 3.86252 20.3664C4.97304 21.8021 6.44497 22.9172 8.12777 23.5975C8.538 23.7732 8.96545 23.9056 9.40317 23.9925C8.15759 24.2378 6.8801 24.2759 5.62212 24.1054C5.35123 24.049 5.24965 24.1957 5.35123 24.4553C7.01038 28.97 10.6109 30.347 13.2519 31.1145C13.6131 31.1709 13.9743 31.1709 14.3806 31.2612C14.3806 31.2612 14.3806 31.2612 14.3129 31.3289C13.5341 32.751 10.3851 33.7104 8.94041 34.207C6.30346 35.1542 3.49199 35.5162 0.701102 35.268C0.26092 35.2003 0.159339 35.2116 0.0464719 35.268C-0.0663954 35.3244 0.0464719 35.4486 0.170626 35.5614C0.734962 35.9339 1.2993 36.2612 1.88621 36.5773C3.63345 37.5303 5.48063 38.2873 7.39413 38.8346C17.3039 41.566 28.4552 39.5569 35.8931 32.1641C41.7397 26.3628 43.7938 18.3605 43.7938 10.3469C43.7938 10.0421 44.1663 9.86156 44.3807 9.70354C45.8599 8.55105 47.1639 7.18998 48.2521 5.66289C48.4405 5.43526 48.5372 5.14543 48.523 4.85025C48.523 4.68095 48.523 4.71481 48.3085 4.8051Z" fill="#1D9BF0"/>
</svg>
