<svg width="40" height="40" viewBox="0 0 40 40" fill="none" xmlns="http://www.w3.org/2000/svg">
<path d="M29.4124 14.2516C28.8076 14.5119 28.1719 14.6931 27.5208 14.7908C27.8252 14.7386 28.2731 14.1907 28.4514 13.969C28.7222 13.6345 28.9286 13.2526 29.0601 12.8428C29.0601 12.8123 29.0906 12.7688 29.0601 12.7471C29.0448 12.7387 29.0276 12.7343 29.0101 12.7343C28.9927 12.7343 28.9755 12.7387 28.9601 12.7471C28.2532 13.1299 27.5008 13.4221 26.7207 13.6168C26.6935 13.6251 26.6646 13.6258 26.637 13.6189C26.6094 13.612 26.5842 13.5978 26.5642 13.5776C26.5034 13.5053 26.4381 13.4371 26.3685 13.3733C26.0503 13.0882 25.6894 12.8549 25.2988 12.6819C24.7716 12.4656 24.2021 12.3719 23.6334 12.4079C23.0815 12.4428 22.5427 12.5908 22.0505 12.8428C21.5659 13.1084 21.1399 13.4693 20.7982 13.9038C20.4388 14.3509 20.1793 14.8699 20.0372 15.4257C19.9201 15.9544 19.9068 16.5008 19.9981 17.0346C19.9981 17.1259 19.9981 17.139 19.9198 17.1259C16.8194 16.6693 14.2756 15.5692 12.1971 13.208C12.1058 13.1037 12.058 13.1037 11.9841 13.208C11.0796 14.5821 11.5188 16.7563 12.6494 17.8303C12.8015 17.9738 12.9581 18.113 13.1233 18.2434C12.605 18.2066 12.0993 18.0662 11.6362 17.8303C11.5492 17.7738 11.5014 17.8043 11.497 17.9086C11.4847 18.0533 11.4847 18.1988 11.497 18.3435C11.5878 19.0368 11.861 19.6937 12.2889 20.2468C12.7167 20.8 13.2838 21.2296 13.9321 21.4917C14.0902 21.5594 14.2549 21.6104 14.4235 21.6439C13.9436 21.7383 13.4514 21.753 12.9668 21.6874C12.8624 21.6656 12.8233 21.7221 12.8624 21.8222C13.5016 23.5615 14.8888 24.092 15.9063 24.3877C16.0454 24.4094 16.1846 24.4094 16.3411 24.4442C16.3411 24.4442 16.3411 24.4442 16.315 24.4703C16.015 25.0182 14.8018 25.3878 14.2452 25.5792C13.2293 25.9441 12.1461 26.0835 11.0709 25.9879C10.9013 25.9618 10.8622 25.9662 10.8187 25.9879C10.7752 26.0096 10.8187 26.0575 10.8665 26.101C11.0839 26.2445 11.3014 26.3706 11.5275 26.4923C12.2006 26.8595 12.9123 27.1511 13.6495 27.362C17.4674 28.4143 21.7636 27.6403 24.6291 24.7921C26.8816 22.557 27.673 19.474 27.673 16.3867C27.673 16.2693 27.8165 16.1997 27.8991 16.1388C28.469 15.6948 28.9714 15.1704 29.3906 14.5821C29.4632 14.4944 29.5004 14.3827 29.495 14.269C29.495 14.2038 29.495 14.2168 29.4124 14.2516Z" fill="white"/>
</svg>
