<svg width="20" height="16" viewBox="0 0 20 16" fill="none" xmlns="http://www.w3.org/2000/svg">
<path d="M19.4124 2.25163C18.8076 2.51188 18.1719 2.69311 17.5208 2.79083C17.8252 2.73865 18.2731 2.19075 18.4514 1.96898C18.7222 1.63447 18.9286 1.25259 19.0601 0.842752C19.0601 0.812313 19.0906 0.76883 19.0601 0.747088C19.0448 0.738715 19.0276 0.734327 19.0101 0.734327C18.9927 0.734327 18.9755 0.738715 18.9601 0.747088C18.2532 1.12993 17.5008 1.42212 16.7207 1.61676C16.6935 1.62507 16.6646 1.62581 16.637 1.61892C16.6094 1.61202 16.5842 1.59775 16.5642 1.57763C16.5034 1.50533 16.4381 1.43706 16.3685 1.37325C16.0503 1.0882 15.6894 0.854888 15.2988 0.681862C14.7716 0.465564 14.2021 0.37189 13.6334 0.407914C13.0815 0.442766 12.5427 0.59078 12.0505 0.842752C11.5659 1.1084 11.1399 1.4693 10.7982 1.90376C10.4388 2.35092 10.1793 2.86987 10.0372 3.42569C9.92008 3.95439 9.90679 4.50082 9.99811 5.03459C9.99811 5.12591 9.99811 5.13895 9.91984 5.12591C6.81945 4.66933 4.27565 3.56919 2.19712 1.20802C2.10581 1.10365 2.05797 1.10365 1.98405 1.20802C1.07959 2.5821 1.51877 4.75629 2.64935 5.83034C2.80155 5.97384 2.95809 6.11299 3.12333 6.24344C2.60496 6.20664 2.09926 6.06616 1.63618 5.83034C1.54921 5.77381 1.50138 5.80425 1.49703 5.90861C1.48471 6.0533 1.48471 6.19877 1.49703 6.34345C1.58776 7.03684 1.86103 7.6937 2.28887 8.24684C2.71672 8.79998 3.2838 9.22957 3.93212 9.49168C4.09017 9.55937 4.25485 9.61038 4.42349 9.64387C3.94361 9.73835 3.45144 9.75304 2.96678 9.68736C2.86242 9.66561 2.82329 9.72214 2.86242 9.82215C3.50163 11.5615 4.88877 12.092 5.90629 12.3877C6.04544 12.4094 6.18458 12.4094 6.34113 12.4442C6.34113 12.4442 6.34113 12.4442 6.31504 12.4703C6.015 13.0182 4.8018 13.3878 4.24521 13.5792C3.22928 13.9441 2.14612 14.0835 1.07089 13.9879C0.901304 13.9618 0.862169 13.9662 0.818685 13.9879C0.775201 14.0096 0.818685 14.0575 0.866517 14.101C1.08394 14.2445 1.30136 14.3706 1.52747 14.4923C2.20062 14.8595 2.91227 15.1511 3.64948 15.362C7.46736 16.4143 11.7636 15.6403 14.6291 12.7921C16.8816 10.557 17.673 7.47403 17.673 4.38668C17.673 4.26927 17.8165 4.1997 17.8991 4.13882C18.469 3.69481 18.9714 3.17044 19.3906 2.5821C19.4632 2.4944 19.5004 2.38274 19.495 2.26902C19.495 2.20379 19.495 2.21684 19.4124 2.25163Z" fill="#04022A"/>
</svg>
