<svg width="91" height="78" viewBox="0 0 91 78" fill="none" xmlns="http://www.w3.org/2000/svg">
<path d="M38.871 74.7124L40.4972 61.7022H45.3761M38.871 74.7124H29.1133M38.871 74.7124H46.7862H51.8812M51.8812 74.7124L50.2549 61.7022H45.3761M51.8812 74.7124H61.6389M45.3761 61.7022H81.1543C82.8795 61.7022 84.5341 61.0168 85.7541 59.7969C86.974 58.5769 87.6594 56.9223 87.6594 55.1971V9.66135C87.6594 7.93609 86.974 6.28149 85.7541 5.06155C84.5341 3.84161 82.8795 3.15625 81.1543 3.15625H9.5979C7.87263 3.15625 6.21803 3.84161 4.99808 5.06155C3.77813 6.28149 3.09277 7.93609 3.09277 9.66135V55.1971C3.09277 56.9223 3.77813 58.5769 4.99808 59.7969C6.21803 61.0168 7.87263 61.7022 9.5979 61.7022H45.3761Z" stroke="white" stroke-width="5.36672" stroke-linecap="round" stroke-linejoin="round"/>
</svg>
