<svg width="100" height="100" viewBox="0 0 100 100" fill="none" xmlns="http://www.w3.org/2000/svg">
<path d="M86.204 69.249L53.5082 88L20.8125 69.249V31.751L53.5082 13L86.204 31.751V69.249Z" fill="url(#paint0_linear_1121_3281)"/>
<g filter="url(#filter0_b_1121_3281)">
<path d="M70.9364 67.7222L42.4682 84.1211L14 67.7222V34.9223L42.4682 18.5234L70.9364 34.9223V67.7222Z" fill="#6BA8F8" fill-opacity="0.35"/>
<path d="M71.2694 68.3004L71.6036 68.1079V67.7222V34.9223V34.5366L71.2694 34.3441L42.8012 17.9452L42.4682 17.7534L42.1351 17.9452L13.6669 34.3441L13.3327 34.5366V34.9223V67.7222V68.1079L13.6669 68.3004L42.1351 84.6993L42.4682 84.8911L42.8012 84.6993L71.2694 68.3004Z" stroke="url(#paint1_linear_1121_3281)" stroke-width="1.33452" stroke-linecap="round"/>
</g>
<path d="M42.043 50.4883V84.2277" stroke="url(#paint2_linear_1121_3281)" stroke-width="1.0338" stroke-miterlimit="10"/>
<path d="M42.4395 50.5088L71.0915 34.9238" stroke="url(#paint3_linear_1121_3281)" stroke-width="1.0338" stroke-miterlimit="10"/>
<path d="M42.441 50.5088L14.0625 34.9238" stroke="url(#paint4_linear_1121_3281)" stroke-width="1.0338" stroke-miterlimit="10"/>
<g filter="url(#filter1_b_1121_3281)">
<path d="M50.2286 43.3492V39.6084C50.2286 35.8045 48.1733 32.7031 45.6959 32.7031H38.2934C35.8145 32.7031 33.5205 35.812 33.5205 39.6084V43.3522H36.4544V40.3109C36.4544 37.4678 37.6804 35.2641 39.4046 35.2641H44.5578C46.2821 35.2641 47.4246 37.4678 47.4246 40.3109V43.3522L50.2286 43.3492Z" fill="#6BA8F8" fill-opacity="0.35"/>
<path d="M50.2294 44.0165L50.8959 44.0158V43.3492V39.6084C50.8959 37.5931 50.3527 35.7356 49.4486 34.3624C48.5495 32.9967 47.2339 32.0359 45.6959 32.0359H38.2934C36.7645 32.0359 35.3918 32.9876 34.4322 34.3474C33.4646 35.7184 32.8532 37.5809 32.8532 39.6084V43.3522V44.0195H33.5205H36.4544H37.1216V43.3522V40.3109C37.1216 38.9756 37.411 37.8358 37.8611 37.0544C38.3127 36.2704 38.8647 35.9313 39.4046 35.9313H44.5578C45.0915 35.9313 45.6219 36.263 46.0539 37.0442C46.4859 37.8254 46.7573 38.968 46.7573 40.3109V43.3522V44.0202L47.4253 44.0195L50.2294 44.0165Z" stroke="url(#paint5_linear_1121_3281)" stroke-width="1.33452" stroke-linecap="round"/>
</g>
<g filter="url(#filter2_b_1121_3281)">
<path d="M49.7917 42.8438H34.6409C32.3489 42.8438 30.3955 44.2581 30.3955 46.0235V58.4127C30.3955 60.178 32.3429 61.5715 34.6409 61.5715H49.7917C52.0836 61.5715 53.7135 60.178 53.7135 58.4127V46.0235C53.7135 44.2581 52.0836 42.8438 49.7917 42.8438Z" fill="#6BA8F8" fill-opacity="0.35"/>
<path d="M49.7917 42.1765H34.6409C33.3632 42.1765 32.16 42.5695 31.2614 43.2355C30.3633 43.9011 29.7282 44.8775 29.7282 46.0235V58.4127C29.7282 59.5591 30.3623 60.5309 31.2612 61.1917C32.16 61.8524 33.3628 62.2387 34.6409 62.2387H49.7917C52.3222 62.2387 54.3807 60.6643 54.3807 58.4127V46.0235C54.3807 43.777 52.3284 42.1765 49.7917 42.1765Z" stroke="url(#paint6_linear_1121_3281)" stroke-width="1.33452" stroke-linecap="round"/>
</g>
<path d="M43.1736 52.1284L43.7566 57.8991H39.9756L40.5587 52.0205C40.2075 51.8299 39.9135 51.5446 39.708 51.1952C39.5026 50.8457 39.3935 50.4453 39.3926 50.037C39.3926 48.7012 40.5587 47.6172 41.9565 47.6172C43.3543 47.6172 44.5335 48.7012 44.5335 50.037C44.5306 50.932 43.8018 51.7101 43.1736 52.1284Z" fill="white"/>
<defs>
<filter id="filter0_b_1121_3281" x="-19.3634" y="-15.0461" width="123.662" height="132.737" filterUnits="userSpaceOnUse" color-interpolation-filters="sRGB">
<feFlood flood-opacity="0" result="BackgroundImageFix"/>
<feGaussianBlur in="BackgroundImageFix" stdDeviation="16.0142"/>
<feComposite in2="SourceAlpha" operator="in" result="effect1_backgroundBlur_1121_3281"/>
<feBlend mode="normal" in="SourceGraphic" in2="effect1_backgroundBlur_1121_3281" result="shape"/>
</filter>
<filter id="filter1_b_1121_3281" x="0.15707" y="-0.659336" width="83.4349" height="77.3753" filterUnits="userSpaceOnUse" color-interpolation-filters="sRGB">
<feFlood flood-opacity="0" result="BackgroundImageFix"/>
<feGaussianBlur in="BackgroundImageFix" stdDeviation="16.0142"/>
<feComposite in2="SourceAlpha" operator="in" result="effect1_backgroundBlur_1121_3281"/>
<feBlend mode="normal" in="SourceGraphic" in2="effect1_backgroundBlur_1121_3281" result="shape"/>
</filter>
<filter id="filter2_b_1121_3281" x="-2.96793" y="9.48129" width="90.0443" height="85.4534" filterUnits="userSpaceOnUse" color-interpolation-filters="sRGB">
<feFlood flood-opacity="0" result="BackgroundImageFix"/>
<feGaussianBlur in="BackgroundImageFix" stdDeviation="16.0142"/>
<feComposite in2="SourceAlpha" operator="in" result="effect1_backgroundBlur_1121_3281"/>
<feBlend mode="normal" in="SourceGraphic" in2="effect1_backgroundBlur_1121_3281" result="shape"/>
</filter>
<linearGradient id="paint0_linear_1121_3281" x1="20.8125" y1="50.5" x2="86.204" y2="50.5" gradientUnits="userSpaceOnUse">
<stop stop-color="#E7C5FF"/>
<stop offset="1" stop-color="#0049C9"/>
</linearGradient>
<linearGradient id="paint1_linear_1121_3281" x1="14" y1="18.5234" x2="78.9691" y2="74.8571" gradientUnits="userSpaceOnUse">
<stop stop-color="white" stop-opacity="0.25"/>
<stop offset="1" stop-color="white" stop-opacity="0"/>
</linearGradient>
<linearGradient id="paint2_linear_1121_3281" x1="42.043" y1="50.4883" x2="44.0402" y2="50.5474" gradientUnits="userSpaceOnUse">
<stop stop-color="white" stop-opacity="0.25"/>
<stop offset="1" stop-color="white" stop-opacity="0"/>
</linearGradient>
<linearGradient id="paint3_linear_1121_3281" x1="42.4395" y1="34.9238" x2="55.5368" y2="58.9782" gradientUnits="userSpaceOnUse">
<stop stop-color="white" stop-opacity="0.25"/>
<stop offset="1" stop-color="white" stop-opacity="0"/>
</linearGradient>
<linearGradient id="paint4_linear_1121_3281" x1="14.0625" y1="34.9238" x2="27.2278" y2="58.8721" gradientUnits="userSpaceOnUse">
<stop stop-color="white" stop-opacity="0.25"/>
<stop offset="1" stop-color="white" stop-opacity="0"/>
</linearGradient>
<linearGradient id="paint5_linear_1121_3281" x1="42.0153" y1="45.6209" x2="55.4514" y2="24.9564" gradientUnits="userSpaceOnUse">
<stop stop-color="white"/>
<stop offset="1" stop-color="white" stop-opacity="0.2"/>
</linearGradient>
<linearGradient id="paint6_linear_1121_3281" x1="42.2508" y1="65.5613" x2="67.5983" y2="34.6245" gradientUnits="userSpaceOnUse">
<stop stop-color="white"/>
<stop offset="1" stop-color="white" stop-opacity="0.2"/>
</linearGradient>
</defs>
</svg>
