<svg width="100" height="100" viewBox="0 0 100 100" fill="none" xmlns="http://www.w3.org/2000/svg">
<path d="M54.5854 88C75.2219 88 91.9511 71.2107 91.9511 50.5C91.9511 29.7893 75.2219 13 54.5854 13C33.9489 13 17.2197 29.7893 17.2197 50.5C17.2197 71.2107 33.9489 88 54.5854 88Z" fill="url(#paint0_linear_1121_3254)"/>
<path d="M43.9339 84.7021C63.2273 84.7021 78.8678 69.0616 78.8678 49.768C78.8678 30.4745 63.2273 14.834 43.9339 14.834C24.6404 14.834 9 30.4745 9 49.768C9 69.0616 24.6404 84.7021 43.9339 84.7021Z" stroke="url(#paint1_linear_1121_3254)" stroke-width="3.34322" stroke-miterlimit="10"/>
<g filter="url(#filter0_d_1121_3254)">
<path d="M42.3452 68.9525V74.6028H38.5492V69.1077C35.1227 69.1158 31.7451 68.2945 28.7049 66.714V59.5062C30.0703 60.5059 31.5923 61.2715 33.2089 61.7717C34.9278 62.4057 36.7239 62.807 38.5492 62.9651V53.5254C34.5036 52.0151 31.7301 50.3789 30.2288 48.6169C28.7299 46.8118 27.939 44.523 28.0037 42.1776C27.9812 40.8802 28.2265 39.592 28.7242 38.3936C29.2219 37.1952 29.9613 36.1123 30.8963 35.2125C32.9653 33.2147 35.6786 32.0194 38.5492 31.8412V27H42.3452V31.7198C46.0086 31.8951 48.7438 32.4862 50.5508 33.4931V40.519C48.0476 39.0267 45.2456 38.1058 42.3452 37.8219V47.6864C46.148 49.0349 48.8743 50.6082 50.524 52.4062C52.1552 54.1294 53.0417 56.4259 52.9917 58.7982C53.0464 60.0866 52.8292 61.3722 52.354 62.5711C51.8789 63.77 51.1564 64.8553 50.234 65.7565C48.3955 67.5186 45.7659 68.5839 42.3452 68.9525ZM38.5492 46.176V37.9231C36.1353 38.3726 34.9283 39.6312 34.9283 41.6989C34.9283 43.488 36.1353 44.9713 38.5492 46.149V46.176ZM42.3452 54.9414V62.8303C44.8264 62.4437 46.0671 61.203 46.0671 59.1083C46.0738 57.4361 44.8264 56.0539 42.3452 54.9751V54.9414Z" fill="url(#paint2_linear_1121_3254)" shape-rendering="crispEdges"/>
</g>
<defs>
<filter id="filter0_d_1121_3254" x="21.5674" y="20.5674" width="41.0816" height="63.6851" filterUnits="userSpaceOnUse" color-interpolation-filters="sRGB">
<feFlood flood-opacity="0" result="BackgroundImageFix"/>
<feColorMatrix in="SourceAlpha" type="matrix" values="0 0 0 0 0 0 0 0 0 0 0 0 0 0 0 0 0 0 127 0" result="hardAlpha"/>
<feOffset dx="1.60816" dy="1.60816"/>
<feGaussianBlur stdDeviation="4.02039"/>
<feComposite in2="hardAlpha" operator="out"/>
<feColorMatrix type="matrix" values="0 0 0 0 0.9065 0 0 0 0 0.770833 0 0 0 0 1 0 0 0 0.1 0"/>
<feBlend mode="normal" in2="BackgroundImageFix" result="effect1_dropShadow_1121_3254"/>
<feBlend mode="normal" in="SourceGraphic" in2="effect1_dropShadow_1121_3254" result="shape"/>
</filter>
<linearGradient id="paint0_linear_1121_3254" x1="17.2197" y1="13" x2="92.257" y2="87.6927" gradientUnits="userSpaceOnUse">
<stop stop-color="white" stop-opacity="0.25"/>
<stop offset="1" stop-color="white" stop-opacity="0"/>
</linearGradient>
<linearGradient id="paint1_linear_1121_3254" x1="9" y1="49.768" x2="78.8678" y2="49.768" gradientUnits="userSpaceOnUse">
<stop stop-color="#F0DFFC"/>
<stop offset="1" stop-color="#75A5F9"/>
</linearGradient>
<linearGradient id="paint2_linear_1121_3254" x1="40.4766" y1="74.4595" x2="102.495" y2="43.3601" gradientUnits="userSpaceOnUse">
<stop stop-color="white"/>
<stop offset="1" stop-color="white" stop-opacity="0.2"/>
</linearGradient>
</defs>
</svg>
