<svg width="100" height="100" viewBox="0 0 100 100" fill="none" xmlns="http://www.w3.org/2000/svg">
<path fill-rule="evenodd" clip-rule="evenodd" d="M54.7322 19.1784C57.0832 10.9405 68.7583 10.9405 71.1093 19.1784C71.8601 21.8091 74.563 23.3695 77.2167 22.7044C85.5267 20.6214 91.3642 30.7319 85.4053 36.8868C83.5023 38.8524 83.5023 41.9733 85.4053 43.9388C91.3642 50.0937 85.5267 60.2042 77.2167 58.1213C74.563 57.4561 71.8601 59.0166 71.1093 61.6473C68.7583 69.8851 57.0832 69.8851 54.7322 61.6473C53.9814 59.0166 51.2785 57.4561 48.6248 58.1213C40.3148 60.2042 34.4773 50.0937 40.4362 43.9388C42.3392 41.9733 42.3392 38.8524 40.4362 36.8868C34.4773 30.7319 40.3148 20.6214 48.6248 22.7044C51.2785 23.3695 53.9814 21.8091 54.7322 19.1784ZM73.4339 34.6241C74.0431 33.8931 73.9443 32.8066 73.2132 32.1975C72.4822 31.5883 71.3957 31.687 70.7866 32.4181L62.8296 41.9661C61.9777 42.9883 61.4546 43.6095 61.0237 43.9986C60.8238 44.1791 60.7053 44.251 60.6484 44.2785C60.6369 44.2841 60.6287 44.2875 60.6235 44.2894C60.6183 44.2875 60.6101 44.2841 60.5985 44.2785C60.5417 44.251 60.4231 44.1791 60.2233 43.9986C59.7923 43.6095 59.2692 42.9883 58.4174 41.9661L55.0551 37.9315C54.4459 37.2005 53.3594 37.1017 52.6284 37.7109C51.8974 38.3201 51.7986 39.4065 52.4078 40.1375L55.8435 44.2602C56.5981 45.1659 57.2783 45.9823 57.9138 46.5561C58.6051 47.1804 59.476 47.7364 60.6235 47.7364C61.771 47.7364 62.6418 47.1804 63.3332 46.5561C63.9686 45.9823 64.6489 45.1659 65.4035 44.2602L73.4339 34.6241Z" fill="url(#paint0_linear_1121_3292)"/>
<g clip-path="url(#clip0_1121_3292)">
<g filter="url(#filter0_b_1121_3292)">
<path fill-rule="evenodd" clip-rule="evenodd" d="M38.3621 21.4045C41.5602 10.1985 57.4415 10.1985 60.6396 21.4045C61.6609 24.9831 65.3376 27.1058 68.9474 26.201C80.2513 23.3676 88.192 37.121 80.0862 45.4936C77.4976 48.1674 77.4976 52.4128 80.0862 55.0865C88.192 63.4591 80.2513 77.2126 68.9474 74.3792C65.3376 73.4743 61.6609 75.597 60.6396 79.1756C57.4415 90.3816 41.5602 90.3816 38.3621 79.1756C37.3408 75.597 33.6641 73.4743 30.0543 74.3792C18.7504 77.2126 10.8097 63.4591 18.9155 55.0865C21.5041 52.4128 21.5041 48.1674 18.9155 45.4936C10.8097 37.121 18.7504 23.3676 30.0543 26.201C33.6641 27.1058 37.3408 24.9831 38.3621 21.4045Z" fill="#6BA8F8" fill-opacity="0.35"/>
<path fill-rule="evenodd" clip-rule="evenodd" d="M38.3621 21.4045C41.5602 10.1985 57.4415 10.1985 60.6396 21.4045C61.6609 24.9831 65.3376 27.1058 68.9474 26.201C80.2513 23.3676 88.192 37.121 80.0862 45.4936C77.4976 48.1674 77.4976 52.4128 80.0862 55.0865C88.192 63.4591 80.2513 77.2126 68.9474 74.3792C65.3376 73.4743 61.6609 75.597 60.6396 79.1756C57.4415 90.3816 41.5602 90.3816 38.3621 79.1756C37.3408 75.597 33.6641 73.4743 30.0543 74.3792C18.7504 77.2126 10.8097 63.4591 18.9155 55.0865C21.5041 52.4128 21.5041 48.1674 18.9155 45.4936C10.8097 37.121 18.7504 23.3676 30.0543 26.201C33.6641 27.1058 37.3408 24.9831 38.3621 21.4045Z" stroke="url(#paint1_linear_1121_3292)" stroke-width="0.494635" stroke-linecap="round"/>
</g>
<path d="M47.8956 47.4781C46.7269 48.6224 45.266 49.1946 43.513 49.1946C41.7599 49.1946 40.2869 48.6102 39.0939 47.4415C37.9252 46.2729 37.3408 44.8485 37.3408 43.1686C37.3408 41.4886 37.9252 40.0643 39.0939 38.8956C40.2869 37.7269 41.7599 37.1426 43.513 37.1426C45.266 37.1426 46.7269 37.7269 47.8956 38.8956C49.0643 40.0399 49.6486 41.4642 49.6486 43.1686C49.6486 44.8729 49.0643 46.3094 47.8956 47.4781ZM39.9339 59.3474L56.5877 40.8312L58.8155 42.0729L42.1252 60.6257L39.9339 59.3474ZM41.833 44.8485C42.2712 45.2868 42.8191 45.5059 43.4765 45.5059C44.1338 45.5059 44.6817 45.2868 45.1199 44.8485C45.5582 44.3859 45.7773 43.8259 45.7773 43.1686C45.7773 42.5112 45.5582 41.9634 45.1199 41.5251C44.6817 41.0869 44.1338 40.8677 43.4765 40.8677C42.8191 40.8677 42.2712 41.0869 41.833 41.5251C41.4191 41.9634 41.2121 42.5112 41.2121 43.1686C41.2121 43.8259 41.4191 44.3859 41.833 44.8485ZM60.2399 61.9039C59.0712 63.0726 57.6103 63.6569 55.8573 63.6569C54.1043 63.6569 52.6434 63.0726 51.4747 61.9039C50.306 60.7352 49.7217 59.3109 49.7217 57.6309C49.7217 55.951 50.306 54.5266 51.4747 53.358C52.6434 52.1893 54.1043 51.605 55.8573 51.605C57.6103 51.605 59.0712 52.1893 60.2399 53.358C61.4086 54.5266 61.9929 55.951 61.9929 57.6309C61.9929 59.3109 61.4086 60.7352 60.2399 61.9039ZM54.2138 59.3109C54.6521 59.7492 55.1999 59.9683 55.8573 59.9683C56.5147 59.9683 57.0503 59.737 57.4642 59.2744C57.9025 58.8118 58.1216 58.264 58.1216 57.6309C58.1216 56.9736 57.9025 56.4257 57.4642 55.9875C57.0503 55.5249 56.5147 55.2936 55.8573 55.2936C55.1999 55.2936 54.6521 55.5249 54.2138 55.9875C53.7999 56.4257 53.593 56.9736 53.593 57.6309C53.593 58.2883 53.7999 58.8483 54.2138 59.3109Z" fill="url(#paint2_linear_1121_3292)"/>
<path fill-rule="evenodd" clip-rule="evenodd" d="M48.3217 47.9123C47.0306 49.1765 45.4129 49.8026 43.5133 49.8026C41.6097 49.8026 39.9811 49.1618 38.6682 47.8757L38.6637 47.8713C37.3788 46.5864 36.7324 45.0063 36.7324 43.1679C36.7324 41.3295 37.3788 39.7494 38.6637 38.4645L38.6682 38.4601C39.9811 37.1739 41.6097 36.5332 43.5133 36.5332C45.4158 36.5332 47.0341 37.1735 48.324 38.4622C49.6135 39.726 50.2576 41.3087 50.2576 43.1679C50.2576 45.028 49.613 46.621 48.3263 47.9078L48.3217 47.9123ZM47.8959 38.8949C46.7272 37.7262 45.2663 37.1419 43.5133 37.1419C41.7602 37.1419 40.2872 37.7262 39.0942 38.8949C37.9255 40.0636 37.3411 41.4879 37.3411 43.1679C37.3411 44.8479 37.9255 46.2722 39.0942 47.4409C40.2872 48.6095 41.7602 49.1939 43.5133 49.1939C45.2663 49.1939 46.7272 48.6217 47.8959 47.4774C49.0646 46.3087 49.6489 44.8722 49.6489 43.1679C49.6489 41.4636 49.0646 40.0392 47.8959 38.8949ZM38.9815 59.4957L56.4602 40.0624L59.7787 41.9121L42.2467 61.4004L38.9815 59.4957ZM57.0167 58.8614L57.0227 58.8551C57.3546 58.5047 57.5132 58.1064 57.5132 57.6303C57.5132 57.1234 57.3508 56.7339 57.0341 56.4172L57.0222 56.4053L57.0109 56.3927C56.72 56.0675 56.3534 55.9016 55.8576 55.9016C55.3615 55.9016 54.9755 56.0683 54.6563 56.4051C54.3594 56.7196 54.2019 57.1132 54.2019 57.6303C54.2019 58.1412 54.3561 58.5502 54.6565 58.8917C54.971 59.2005 55.3571 59.3589 55.8576 59.3589C56.3534 59.3589 56.72 59.193 57.0109 58.8678L57.0167 58.8614ZM54.2141 59.3102C53.8002 58.8476 53.5932 58.2876 53.5932 57.6303C53.5932 56.9729 53.8002 56.4251 54.2141 55.9868C54.6524 55.5242 55.2002 55.2929 55.8576 55.2929C56.515 55.2929 57.0506 55.5242 57.4645 55.9868C57.9028 56.4251 58.1219 56.9729 58.1219 57.6303C58.1219 58.2633 57.9028 58.8111 57.4645 59.2737C57.0506 59.7363 56.515 59.9676 55.8576 59.9676C55.2002 59.9676 54.6524 59.7485 54.2141 59.3102ZM56.588 40.8305L58.8158 42.0722L42.1255 60.625L39.9342 59.3468L56.588 40.8305ZM42.2756 44.4293C42.5901 44.7381 42.9763 44.8965 43.4768 44.8965C43.9805 44.8965 44.3684 44.7361 44.684 44.4232C45.0077 44.0788 45.1689 43.672 45.1689 43.1679C45.1689 42.6611 45.0065 42.2715 44.6898 41.9548C44.3732 41.6382 43.9836 41.4757 43.4768 41.4757C42.9732 41.4757 42.5854 41.6361 42.2699 41.9487C41.9766 42.2622 41.8211 42.654 41.8211 43.1679C41.8211 43.6788 41.9753 44.0878 42.2756 44.4293ZM41.8333 44.8479C41.4194 44.3853 41.2124 43.8253 41.2124 43.1679C41.2124 42.5105 41.4194 41.9627 41.8333 41.5244C42.2715 41.0862 42.8194 40.867 43.4768 40.867C44.1341 40.867 44.682 41.0862 45.1202 41.5244C45.5585 41.9627 45.7776 42.5105 45.7776 43.1679C45.7776 43.8253 45.5585 44.3853 45.1202 44.8479C44.682 45.2861 44.1341 45.5052 43.4768 45.5052C42.8194 45.5052 42.2715 45.2861 41.8333 44.8479ZM60.6706 62.3336C59.3803 63.6239 57.7612 64.2649 55.8576 64.2649C53.954 64.2649 52.3349 63.6239 51.0446 62.3336C49.7596 61.0487 49.1133 59.4687 49.1133 57.6303C49.1133 55.7918 49.7596 54.2118 51.0446 52.9269C52.3349 51.6366 53.954 50.9956 55.8576 50.9956C57.7612 50.9956 59.3803 51.6366 60.6706 52.9269C61.9555 54.2118 62.6019 55.7918 62.6019 57.6303C62.6019 59.4687 61.9555 61.0487 60.6706 62.3336ZM55.8576 63.6563C57.6106 63.6563 59.0715 63.0719 60.2402 61.9032C61.4089 60.7346 61.9932 59.3102 61.9932 57.6303C61.9932 55.9503 61.4089 54.526 60.2402 53.3573C59.0715 52.1886 57.6106 51.6043 55.8576 51.6043C54.1045 51.6043 52.6437 52.1886 51.475 53.3573C50.3063 54.526 49.722 55.9503 49.722 57.6303C49.722 59.3102 50.3063 60.7346 51.475 61.9032C52.6437 63.0719 54.1045 63.6563 55.8576 63.6563Z" fill="url(#paint3_linear_1121_3292)"/>
</g>
<defs>
<filter id="filter0_b_1121_3292" x="-2.9507" y="-5.55226" width="104.903" height="111.685" filterUnits="userSpaceOnUse" color-interpolation-filters="sRGB">
<feFlood flood-opacity="0" result="BackgroundImageFix"/>
<feGaussianBlur in="BackgroundImageFix" stdDeviation="9.15211"/>
<feComposite in2="SourceAlpha" operator="in" result="effect1_backgroundBlur_1121_3292"/>
<feBlend mode="normal" in="SourceGraphic" in2="effect1_backgroundBlur_1121_3292" result="shape"/>
</filter>
<linearGradient id="paint0_linear_1121_3292" x1="38" y1="40.4128" x2="87.8415" y2="40.4128" gradientUnits="userSpaceOnUse">
<stop stop-color="#E7C5FF"/>
<stop offset="1" stop-color="#0049C9"/>
</linearGradient>
<linearGradient id="paint1_linear_1121_3292" x1="15.6016" y1="13" x2="89.8745" y2="80.4509" gradientUnits="userSpaceOnUse">
<stop stop-color="white" stop-opacity="0.25"/>
<stop offset="1" stop-color="white" stop-opacity="0"/>
</linearGradient>
<linearGradient id="paint2_linear_1121_3292" x1="49.8745" y1="69.3056" x2="86.3188" y2="36.0903" gradientUnits="userSpaceOnUse">
<stop stop-color="white"/>
<stop offset="1" stop-color="white" stop-opacity="0.2"/>
</linearGradient>
<linearGradient id="paint3_linear_1121_3292" x1="36.7324" y1="36.5332" x2="64.4094" y2="62.3254" gradientUnits="userSpaceOnUse">
<stop stop-color="white" stop-opacity="0.25"/>
<stop offset="1" stop-color="white" stop-opacity="0"/>
</linearGradient>
<clipPath id="clip0_1121_3292">
<rect width="75.001" height="75" fill="white" transform="translate(12 12.7891)"/>
</clipPath>
</defs>
</svg>
