<svg width="100" height="100" viewBox="0 0 100 100" fill="none" xmlns="http://www.w3.org/2000/svg">
<g filter="url(#filter0_b_1121_3328)">
<path d="M20 40.4101C20 39.3292 20.596 38.3363 21.55 37.828L50.122 22.6047C50.9819 22.1466 52.0134 22.1466 52.8733 22.6047L81.4499 37.8281C82.4039 38.3363 83 39.3292 83 40.4102L83 70.4616C83 71.5426 82.4039 72.5355 81.4499 73.0437L52.8733 88.2671C52.0134 88.7252 50.9819 88.7252 50.122 88.2671L21.55 73.0438C20.596 72.5355 20 71.5426 20 70.4617L20 40.4101Z" fill="url(#paint0_linear_1121_3328)"/>
</g>
<g filter="url(#filter1_b_1121_3328)">
<path d="M19 31.5033C19 30.4337 19.5836 29.4494 20.5221 28.9362L50.0941 12.7667C50.9687 12.2885 52.0265 12.2884 52.9012 12.7666L82.4777 28.9363C83.4163 29.4494 84 30.4337 84 31.5034L84 63.572C84 64.6417 83.4163 65.6261 82.4777 66.1392L52.9011 82.3088C52.0265 82.787 50.9687 82.787 50.0941 82.3087L20.5221 66.1392C19.5836 65.6261 19 64.6417 19 63.5722L19 31.5033Z" fill="url(#paint1_linear_1121_3328)"/>
<path d="M49.7528 12.1424L20.1808 28.312C19.0141 28.9499 18.2885 30.1736 18.2885 31.5033L18.2885 63.5722C18.2885 64.9018 19.0141 66.1255 20.1808 66.7634L49.7528 82.933C50.84 83.5275 52.1551 83.5275 53.2424 82.9331L82.819 66.7634C83.9858 66.1255 84.7114 64.9018 84.7114 63.572L84.7115 31.5034C84.7115 30.1736 83.9858 28.9499 82.819 28.312L53.2424 12.1423C52.1551 11.5479 50.84 11.5479 49.7528 12.1424Z" stroke="url(#paint2_linear_1121_3328)" stroke-width="1.42289" stroke-linecap="round"/>
</g>
<path d="M51.7384 66.786C50.6558 66.7805 49.5752 66.6933 48.5062 66.5252C48.1966 66.4653 47.9126 66.3146 47.6913 66.0926C47.47 65.8706 47.3218 65.5878 47.2662 65.2813L46.4125 59.9849L42.0216 63.1346C41.7615 63.3206 41.4486 63.4208 41.1273 63.4208C40.8061 63.4208 40.4931 63.3206 40.2329 63.1346C38.4871 61.8867 36.9563 60.3693 35.6997 58.6407C35.5113 58.3839 35.4098 58.075 35.4098 57.7579C35.4098 57.4409 35.5113 57.132 35.6997 56.8752L38.8709 52.5418L33.5247 51.6992C33.2077 51.6515 32.9145 51.505 32.6878 51.2813C32.4611 51.0575 32.3127 50.7681 32.2643 50.4553C32.0856 49.4079 31.9972 48.3475 32.0001 47.2854C31.9971 46.2167 32.0855 45.1496 32.2643 44.0955C32.3166 43.7864 32.4667 43.5015 32.6931 43.2816C32.9195 43.0618 33.2106 42.9183 33.5247 42.8718L38.8709 42.0291L35.6997 37.6957C35.513 37.442 35.4124 37.1365 35.4124 36.823C35.4124 36.5094 35.513 36.2039 35.6997 35.9503C36.9399 34.208 38.4731 32.688 40.2329 31.4563C40.4931 31.2703 40.8061 31.1702 41.1273 31.1702C41.4486 31.1702 41.7615 31.2703 42.0216 31.4563L46.4125 34.5861L47.2662 29.3097C47.3134 28.9997 47.4587 28.7124 47.6815 28.489C47.9042 28.2655 48.1929 28.1174 48.5062 28.0658C50.6386 27.7046 52.8178 27.7046 54.9502 28.0658C55.2671 28.1135 55.5603 28.2599 55.787 28.4837C56.0138 28.7074 56.1622 28.9968 56.2105 29.3097L57.0642 34.5861L61.4347 31.4563C61.6949 31.2703 62.0079 31.1702 62.3292 31.1702C62.6504 31.1702 62.9634 31.2703 63.2236 31.4563C64.9871 32.6733 66.5328 34.1717 67.7973 35.8901C67.9812 36.1449 68.08 36.45 68.08 36.7628C68.08 37.0756 67.9812 37.3807 67.7973 37.6355L64.6059 41.9088L69.9521 42.7514C70.2691 42.8038 70.562 42.9514 70.7912 43.1739C71.0203 43.3964 71.1745 43.6832 71.2327 43.9952C71.4006 45.0439 71.4888 46.1034 71.4969 47.1651C71.4872 48.2266 71.399 49.2861 71.2327 50.3349C71.1745 50.6469 71.0203 50.9337 70.7912 51.1563C70.562 51.3788 70.2691 51.5264 69.9521 51.5788L64.6059 52.4214L67.777 56.7548C67.9597 57.0139 68.0576 57.3219 68.0576 57.6376C68.0576 57.9532 67.9597 58.2613 67.777 58.5203C66.5129 60.2494 64.9755 61.7667 63.2236 63.0143C62.9634 63.2003 62.6504 63.3004 62.3292 63.3004C62.0079 63.3004 61.6949 63.2003 61.4347 63.0143L57.0846 59.9648L56.2308 65.2612C56.1739 65.5705 56.0228 65.8553 55.7976 66.0775C55.5724 66.2998 55.2839 66.4489 54.9705 66.5051C53.902 66.6801 52.8214 66.774 51.7384 66.786ZM50.0918 63.6964C51.1804 63.7967 52.276 63.7967 53.3646 63.6964L54.1777 58.6608C54.223 58.3889 54.3411 58.1339 54.5198 57.9223C54.6985 57.7106 54.9313 57.55 55.1941 57.457C55.6783 57.3048 56.1477 57.1101 56.5967 56.8752C56.849 56.7544 57.1299 56.7036 57.4093 56.7284C57.6886 56.7531 57.9557 56.8524 58.1822 57.0157L62.3697 60.0049C63.2213 59.3249 63.9981 58.5583 64.6871 57.7178L61.6583 53.585C61.4929 53.3615 61.3923 53.0977 61.3672 52.8221C61.3422 52.5464 61.3936 52.2692 61.516 52.0201C61.7417 51.5783 61.9386 51.1226 62.1055 50.6559C62.195 50.3954 62.3534 50.1633 62.5643 49.9834C62.7751 49.8035 63.0307 49.6825 63.3048 49.6328L68.4275 48.8302C68.4275 48.2886 68.4275 47.7469 68.4275 47.2253C68.4275 46.7036 68.4275 46.1419 68.4275 45.6002L63.3048 44.7977C63.0315 44.7538 62.7753 44.6372 62.564 44.4605C62.3527 44.2838 62.1942 44.0536 62.1055 43.7946C61.9388 43.3148 61.7419 42.8458 61.516 42.3903C61.3931 42.1449 61.3414 41.8707 61.3665 41.5981C61.3916 41.3254 61.4926 41.065 61.6583 40.8455L64.6871 36.7127C63.9928 35.8769 63.2165 35.1108 62.3697 34.4256L58.1822 37.4148C57.9598 37.5784 57.6959 37.6781 57.4197 37.7028C57.1435 37.7276 56.8657 37.6766 56.6171 37.5553C56.1624 37.3324 55.6939 37.138 55.2144 36.9734C54.9505 36.8851 54.7152 36.7288 54.5329 36.5207C54.3507 36.3127 54.2281 36.0603 54.1777 35.7898L53.3646 30.7542C52.277 30.6337 51.1793 30.6337 50.0918 30.7542L49.2787 35.7898C49.2324 36.0619 49.1114 36.3163 48.9285 36.5251C48.7457 36.7338 48.5082 36.8889 48.242 36.9734C47.7611 37.1344 47.2924 37.3288 46.8394 37.5553C46.5908 37.6766 46.3129 37.7276 46.0367 37.7028C45.7605 37.6781 45.4966 37.5784 45.2741 37.4148L41.0866 34.4256C40.2447 35.1161 39.4689 35.8817 38.7692 36.7127L41.7981 40.8455C41.9635 41.069 42.0641 41.3328 42.0891 41.6084C42.1142 41.8841 42.0628 42.1613 41.9404 42.4103C41.7146 42.8522 41.5178 43.3079 41.3509 43.7745C41.2673 44.0384 41.1108 44.274 40.8989 44.4547C40.687 44.6355 40.4281 44.7543 40.1515 44.7977L35.0492 45.6002C35.0188 46.1415 35.0188 46.684 35.0492 47.2253C35.0188 47.7598 35.0188 48.2957 35.0492 48.8302L40.1515 49.6328C40.4281 49.6762 40.687 49.795 40.8989 49.9757C41.1108 50.1565 41.2673 50.3921 41.3509 50.6559C41.514 51.124 41.711 51.5799 41.9404 52.0201C42.0628 52.2692 42.1142 52.5464 42.0891 52.8221C42.0641 53.0977 41.9635 53.3615 41.7981 53.585L38.7692 57.7178C39.4583 58.5583 40.235 59.3249 41.0866 60.0049L45.2741 57.0157C45.4996 56.8492 45.7685 56.7495 46.0492 56.7281C46.33 56.7068 46.611 56.7648 46.8596 56.8953C47.3131 57.1151 47.7818 57.3028 48.2623 57.457C48.5274 57.5462 48.7625 57.7057 48.9418 57.918C49.1211 58.1304 49.2376 58.3873 49.2787 58.6608L50.0918 63.6964Z" fill="url(#paint3_linear_1121_3328)"/>
<path d="M51.7479 53.79C50.4459 53.79 49.1732 53.4089 48.0907 52.6948C47.0081 51.9807 46.1644 50.9658 45.6661 49.7784C45.1679 48.5909 45.0375 47.2843 45.2915 46.0237C45.5455 44.7631 46.1725 43.6052 47.0931 42.6963C48.0137 41.7875 49.1867 41.1686 50.4636 40.9178C51.7406 40.6671 53.0641 40.7958 54.267 41.2876C55.4698 41.7795 56.4979 42.6124 57.2212 43.6811C57.9446 44.7498 58.3307 46.0062 58.3307 47.2915C58.3307 49.015 57.6371 50.6679 56.4026 51.8866C55.1681 53.1053 53.4937 53.79 51.7479 53.79ZM51.7479 43.7923C51.0468 43.7923 50.3615 43.9975 49.7786 44.382C49.1957 44.7665 48.7414 45.313 48.4732 45.9524C48.2049 46.5918 48.1346 47.2954 48.2714 47.9741C48.4082 48.6529 48.7458 49.2764 49.2415 49.7658C49.7372 50.2552 50.3687 50.5884 51.0563 50.7235C51.7439 50.8585 52.4566 50.7892 53.1043 50.5243C53.752 50.2595 54.3056 49.811 54.6951 49.2355C55.0846 48.6601 55.2924 47.9835 55.2924 47.2915C55.2924 46.3634 54.919 45.4734 54.2542 44.8172C53.5895 44.161 52.6879 43.7923 51.7479 43.7923Z" fill="url(#paint4_linear_1121_3328)"/>
<defs>
<filter id="filter0_b_1121_3328" x="14.2924" y="16.5541" width="74.4152" height="77.7648" filterUnits="userSpaceOnUse" color-interpolation-filters="sRGB">
<feFlood flood-opacity="0" result="BackgroundImageFix"/>
<feGaussianBlur in="BackgroundImageFix" stdDeviation="2.85379"/>
<feComposite in2="SourceAlpha" operator="in" result="effect1_backgroundBlur_1121_3328"/>
<feBlend mode="normal" in="SourceGraphic" in2="effect1_backgroundBlur_1121_3328" result="shape"/>
</filter>
<filter id="filter1_b_1121_3328" x="-29.9219" y="-36.5147" width="162.844" height="168.104" filterUnits="userSpaceOnUse" color-interpolation-filters="sRGB">
<feFlood flood-opacity="0" result="BackgroundImageFix"/>
<feGaussianBlur in="BackgroundImageFix" stdDeviation="23.7495"/>
<feComposite in2="SourceAlpha" operator="in" result="effect1_backgroundBlur_1121_3328"/>
<feBlend mode="normal" in="SourceGraphic" in2="effect1_backgroundBlur_1121_3328" result="shape"/>
</filter>
<linearGradient id="paint0_linear_1121_3328" x1="83" y1="55.4359" x2="20" y2="55.4359" gradientUnits="userSpaceOnUse">
<stop stop-color="#E7C5FF"/>
<stop offset="1" stop-color="#0049C9"/>
</linearGradient>
<linearGradient id="paint1_linear_1121_3328" x1="84" y1="83.0762" x2="13.1766" y2="18.3736" gradientUnits="userSpaceOnUse">
<stop stop-color="white" stop-opacity="0.25"/>
<stop offset="1" stop-color="white" stop-opacity="0"/>
</linearGradient>
<linearGradient id="paint2_linear_1121_3328" x1="84" y1="83.0762" x2="13.1766" y2="18.3736" gradientUnits="userSpaceOnUse">
<stop stop-color="white" stop-opacity="0.25"/>
<stop offset="1" stop-color="white" stop-opacity="0"/>
</linearGradient>
<linearGradient id="paint3_linear_1121_3328" x1="52.081" y1="75.0927" x2="105.904" y2="21.6482" gradientUnits="userSpaceOnUse">
<stop stop-color="white"/>
<stop offset="1" stop-color="white" stop-opacity="0.2"/>
</linearGradient>
<linearGradient id="paint4_linear_1121_3328" x1="51.8587" y1="56.5589" x2="69.7998" y2="38.7441" gradientUnits="userSpaceOnUse">
<stop stop-color="white"/>
<stop offset="1" stop-color="white" stop-opacity="0.2"/>
</linearGradient>
</defs>
</svg>
