<svg width="100" height="100" viewBox="0 0 100 100" fill="none" xmlns="http://www.w3.org/2000/svg">
<g clip-path="url(#clip0_559_1719)">
<g clip-path="url(#clip1_559_1719)">
<path d="M63.8671 45.3623C64.2394 43.973 65.6673 43.1486 67.0566 43.5208C68.4458 43.8931 69.2702 45.3211 68.898 46.7103C68.5258 48.0995 67.0978 48.924 65.7086 48.5517C64.3193 48.1795 63.4949 46.7515 63.8671 45.3623Z" fill="url(#paint0_linear_559_1719)"/>
<path fill-rule="evenodd" clip-rule="evenodd" d="M73.7967 18.3665C67.4062 16.6542 60.8376 20.4466 59.1252 26.8371L58.5247 29.0783C58.4887 29.2127 58.4713 29.3477 58.4711 29.4806C55.2966 29.7682 52.4194 31.496 50.6754 34.1814C49.7769 35.5651 49.2751 37.4379 48.2715 41.1834C47.2678 44.929 46.766 46.8017 46.8524 48.4493C47.0269 51.7792 48.785 54.8242 51.5814 56.6403C52.9651 57.5389 54.8379 58.0407 58.5834 59.0443L66.6328 61.2011C70.3783 62.2047 72.2511 62.7065 73.8987 62.6202C77.2286 62.4457 80.2736 60.6876 82.0897 57.8911C82.9883 56.5074 83.4901 54.6347 84.4937 50.8891C85.4973 47.1436 85.9991 45.2708 85.9128 43.6232C85.7452 40.4256 84.1173 37.4907 81.5119 35.6544C81.5782 35.5392 81.6307 35.4136 81.6667 35.2791L82.2672 33.038C83.9795 26.6475 80.1871 20.0789 73.7967 18.3665ZM74.1817 33.0283C76.1242 33.5488 77.563 33.9343 78.6911 34.3102L79.2487 32.2291C80.5143 27.5057 77.7112 22.6507 72.9878 21.385C68.2644 20.1194 63.4094 22.9225 62.1438 27.6459L61.5861 29.7269C62.751 29.9654 64.1898 30.351 66.1323 30.8714L74.1817 33.0283ZM60.8486 44.5535C61.6676 41.4971 64.8091 39.6834 67.8654 40.5023C70.9217 41.3213 72.7355 44.4628 71.9165 47.5191C71.0976 50.5754 67.9561 52.3892 64.8998 51.5702C61.8434 50.7513 60.0297 47.6098 60.8486 44.5535Z" fill="url(#paint1_linear_559_1719)"/>
</g>
<g clip-path="url(#clip2_559_1719)">
<g filter="url(#filter0_b_559_1719)">
<path fill-rule="evenodd" clip-rule="evenodd" d="M34.9407 16.1925C24.7159 18.9322 18.6481 29.442 21.3878 39.6667L22.3486 43.2526C22.4063 43.4677 22.4903 43.6687 22.5962 43.8531C18.4276 46.7911 15.823 51.487 15.5549 56.6032C15.4168 59.2393 16.2196 62.2358 17.8254 68.2286C19.4312 74.2215 20.2341 77.2179 21.6718 79.4318C24.5775 83.9062 29.4496 86.7191 34.7774 86.9983C37.4135 87.1365 40.4099 86.3336 46.4027 84.7278L59.2818 81.2769C65.2746 79.6711 68.2711 78.8682 70.485 77.4305C74.9594 74.5248 77.7723 69.6527 78.0515 64.3249C78.1897 61.6888 77.3868 58.6924 75.781 52.6995C74.1752 46.7066 73.3723 43.7102 71.9346 41.4963C69.1443 37.1996 64.5407 34.4351 59.4616 33.975C59.4612 33.7624 59.4334 33.5463 59.3758 33.3312L58.4149 29.7453C55.6752 19.5206 45.1654 13.4527 34.9407 16.1925ZM47.2036 36.2003C50.3116 35.3676 52.6136 34.7507 54.4775 34.3691L53.5853 31.0394C51.5603 23.482 43.7922 18.9971 36.2348 21.0221C28.6773 23.0471 24.1924 30.8152 26.2174 38.3726L27.1096 41.7023C28.9145 41.1009 31.2166 40.484 34.3246 39.6513L47.2036 36.2003Z" fill="#6BA8F8" fill-opacity="0.35"/>
<path d="M34.8113 15.7095C24.3198 18.5207 18.0936 29.3046 20.9048 39.7961L21.8657 43.382C21.894 43.488 21.9278 43.5912 21.9666 43.6914C17.8725 46.73 15.3244 51.4485 15.0556 56.577C14.9133 59.2925 15.7348 62.3582 17.3081 68.2297L17.3425 68.358L17.3769 68.4864C18.9501 74.3579 19.7715 77.4237 21.2525 79.7041C24.2453 84.3127 29.2636 87.21 34.7512 87.4976C37.4666 87.6399 40.5324 86.8184 46.4039 85.2451L46.5322 85.2108L59.4112 81.7598L59.5395 81.7255C65.411 80.1523 68.4768 79.3308 70.7573 77.8498C75.3659 74.857 78.2632 69.8387 78.5508 64.3511C78.6931 61.6357 77.8716 58.5699 76.2983 52.6984L76.2639 52.5701L76.2296 52.4417C74.6563 46.5702 73.8349 43.5045 72.3539 41.224C69.5569 36.917 64.9909 34.1046 59.926 33.5202C59.9095 33.414 59.8871 33.3078 59.8587 33.2018L58.8979 29.6159C56.0867 19.1244 45.3028 12.8983 34.8113 15.7095ZM53.858 33.9891C52.0749 34.3774 49.9057 34.9587 47.0911 35.7128L47.0742 35.7174L34.1952 39.1683L34.1782 39.1728C31.3636 39.927 29.1944 40.5082 27.456 41.0634L26.7004 38.2432C24.7468 30.9525 29.0735 23.4586 36.3642 21.5051C43.6549 19.5515 51.1488 23.8781 53.1023 31.1688L53.858 33.9891Z" stroke="url(#paint2_linear_559_1719)" stroke-linecap="round"/>
</g>
<g filter="url(#filter1_d_559_1719)">
<path fill-rule="evenodd" clip-rule="evenodd" d="M44.4305 51.6099C39.5404 52.9202 36.6384 57.9466 37.9487 62.8367C39.259 67.7269 44.2854 70.6289 49.1755 69.3186C54.0656 68.0083 56.9676 62.9818 55.6573 58.0917C54.347 53.2016 49.3206 50.2996 44.4305 51.6099ZM42.7783 61.5426C42.1827 59.3199 43.5018 57.0351 45.7246 56.4395C47.9474 55.844 50.2321 57.163 50.8277 59.3858C51.4233 61.6086 50.1042 63.8933 47.8814 64.4889C45.6586 65.0845 43.3739 63.7654 42.7783 61.5426Z" fill="url(#paint3_linear_559_1719)"/>
</g>
</g>
</g>
<defs>
<filter id="filter0_b_559_1719" x="-9.45996" y="-9.46582" width="112.526" height="121.479" filterUnits="userSpaceOnUse" color-interpolation-filters="sRGB">
<feFlood flood-opacity="0" result="BackgroundImageFix"/>
<feGaussianBlur in="BackgroundImageFix" stdDeviation="12"/>
<feComposite in2="SourceAlpha" operator="in" result="effect1_backgroundBlur_559_1719"/>
<feBlend mode="normal" in="SourceGraphic" in2="effect1_backgroundBlur_559_1719" result="shape"/>
</filter>
<filter id="filter1_d_559_1719" x="34.378" y="48.0391" width="31.3612" height="31.3612" filterUnits="userSpaceOnUse" color-interpolation-filters="sRGB">
<feFlood flood-opacity="0" result="BackgroundImageFix"/>
<feColorMatrix in="SourceAlpha" type="matrix" values="0 0 0 0 0 0 0 0 0 0 0 0 0 0 0 0 0 0 127 0" result="hardAlpha"/>
<feOffset dx="3.25583" dy="3.25583"/>
<feGaussianBlur stdDeviation="3.25583"/>
<feColorMatrix type="matrix" values="0 0 0 0 0.419608 0 0 0 0 0.658824 0 0 0 0 0.972549 0 0 0 0.5 0"/>
<feBlend mode="normal" in2="BackgroundImageFix" result="effect1_dropShadow_559_1719"/>
<feBlend mode="normal" in="SourceGraphic" in2="effect1_dropShadow_559_1719" result="shape"/>
</filter>
<linearGradient id="paint0_linear_559_1719" x1="50.0913" y1="34.3918" x2="86.3135" y2="44.0975" gradientUnits="userSpaceOnUse">
<stop stop-color="#E7C5FF"/>
<stop offset="1" stop-color="#0049C9"/>
</linearGradient>
<linearGradient id="paint1_linear_559_1719" x1="50.0913" y1="34.3918" x2="86.3135" y2="44.0975" gradientUnits="userSpaceOnUse">
<stop stop-color="#E7C5FF"/>
<stop offset="1" stop-color="#0049C9"/>
</linearGradient>
<linearGradient id="paint2_linear_559_1719" x1="5.96289" y1="23.957" x2="87.4907" y2="63.5657" gradientUnits="userSpaceOnUse">
<stop stop-color="white" stop-opacity="0.25"/>
<stop offset="1" stop-color="white" stop-opacity="0"/>
</linearGradient>
<linearGradient id="paint3_linear_559_1719" x1="50.3355" y1="73.0513" x2="68.3568" y2="42.5445" gradientUnits="userSpaceOnUse">
<stop stop-color="white"/>
<stop offset="1" stop-color="white" stop-opacity="0.2"/>
</linearGradient>
<clipPath id="clip0_559_1719">
<rect width="100" height="100" fill="white"/>
</clipPath>
<clipPath id="clip1_559_1719">
<rect width="50" height="50" fill="white" transform="translate(50.3223 9.38086) rotate(15)"/>
</clipPath>
<clipPath id="clip2_559_1719">
<rect width="80" height="80" fill="white" transform="translate(-4.99023 21.7158) rotate(-15)"/>
</clipPath>
</defs>
</svg>
