<svg width="100" height="100" viewBox="0 0 100 100" fill="none" xmlns="http://www.w3.org/2000/svg">
<path fill-rule="evenodd" clip-rule="evenodd" d="M60.5739 17.7427C62.7059 10.272 73.2933 10.272 75.4254 17.7427C76.1062 20.1284 78.5573 21.5435 80.9638 20.9403C88.4997 19.0514 93.7934 28.2203 88.3896 33.8021C86.6639 35.5846 86.6639 38.4148 88.3896 40.1973C93.7934 45.7791 88.4997 54.948 80.9638 53.0591C78.5573 52.4559 76.1062 53.871 75.4254 56.2567C73.2933 63.7274 62.7059 63.7274 60.5739 56.2567C59.893 53.871 57.4419 52.4559 55.0354 53.0591C47.4996 54.948 42.2059 45.7791 47.6097 40.1973C49.3353 38.4148 49.3353 35.5846 47.6097 33.8021C42.2059 28.2203 47.4996 19.0514 55.0354 20.9403C57.4419 21.5435 59.893 20.1284 60.5739 17.7427ZM77.5334 31.75C78.0858 31.0871 77.9962 30.1018 77.3333 29.5494C76.6704 28.9969 75.6851 29.0865 75.1327 29.7494L67.9169 38.4083C67.1444 39.3353 66.6701 39.8987 66.2793 40.2516C66.098 40.4152 65.9905 40.4805 65.939 40.5054C65.9285 40.5105 65.9211 40.5135 65.9163 40.5153C65.9116 40.5135 65.9042 40.5105 65.8937 40.5054C65.8422 40.4805 65.7347 40.4152 65.5534 40.2516C65.1626 39.8987 64.6883 39.3353 63.9158 38.4083L60.8667 34.7494C60.3142 34.0865 59.329 33.9969 58.6661 34.5494C58.0031 35.1018 57.9136 36.0871 58.466 36.75L61.5816 40.4888C62.2659 41.3101 62.8828 42.0505 63.4591 42.5709C64.086 43.137 64.8757 43.6413 65.9163 43.6413C66.9569 43.6413 67.7467 43.137 68.3736 42.5709C68.9499 42.0505 69.5668 41.3101 70.2511 40.4888L77.5334 31.75Z" fill="url(#paint0_linear_559_1703)"/>
<g clip-path="url(#clip0_559_1703)">
<g filter="url(#filter0_b_559_1703)">
<path fill-rule="evenodd" clip-rule="evenodd" d="M35.1184 19.1884C38.5296 7.23536 55.4695 7.23536 58.8808 19.1884C59.9701 23.0056 63.8918 25.2698 67.7423 24.3047C79.7996 21.2824 88.2696 35.9527 79.6235 44.8835C76.8624 47.7355 76.8624 52.2639 79.6235 55.1159C88.2696 64.0467 79.7996 78.7171 67.7423 75.6948C63.8918 74.7296 59.9701 76.9938 58.8808 80.811C55.4695 92.7641 38.5296 92.7641 35.1184 80.811C34.029 76.9938 30.1073 74.7296 26.2568 75.6948C14.1995 78.7171 5.72959 64.0467 14.3756 55.1159C17.1367 52.2639 17.1367 47.7355 14.3756 44.8835C5.72959 35.9527 14.1995 21.2824 26.2568 24.3047C30.1073 25.2698 34.029 23.0056 35.1184 19.1884Z" fill="white" fill-opacity="0.35"/>
<path fill-rule="evenodd" clip-rule="evenodd" d="M35.1184 19.1884C38.5296 7.23536 55.4695 7.23536 58.8808 19.1884C59.9701 23.0056 63.8918 25.2698 67.7423 24.3047C79.7996 21.2824 88.2696 35.9527 79.6235 44.8835C76.8624 47.7355 76.8624 52.2639 79.6235 55.1159C88.2696 64.0467 79.7996 78.7171 67.7423 75.6948C63.8918 74.7296 59.9701 76.9938 58.8808 80.811C55.4695 92.7641 38.5296 92.7641 35.1184 80.811C34.029 76.9938 30.1073 74.7296 26.2568 75.6948C14.1995 78.7171 5.72959 64.0467 14.3756 55.1159C17.1367 52.2639 17.1367 47.7355 14.3756 44.8835C5.72959 35.9527 14.1995 21.2824 26.2568 24.3047C30.1073 25.2698 34.029 23.0056 35.1184 19.1884Z" stroke="url(#paint1_linear_559_1703)" stroke-linecap="round"/>
</g>
<g filter="url(#filter1_d_559_1703)">
<path fill-rule="evenodd" clip-rule="evenodd" d="M62.2533 41.6005C63.1372 40.5398 62.9939 38.9634 61.9332 38.0795C60.8725 37.1956 59.2961 37.3389 58.4122 38.3996L46.867 52.2538C45.631 53.737 44.872 54.6384 44.2467 55.203C43.9568 55.4649 43.7848 55.5692 43.7023 55.6091C43.6856 55.6173 43.6736 55.6221 43.6661 55.6249C43.6585 55.6221 43.6466 55.6173 43.6299 55.6091C43.5474 55.5692 43.3754 55.4649 43.0854 55.203C42.4601 54.6384 41.7011 53.737 40.4652 52.2538L35.5866 46.3996C34.7027 45.3389 33.1263 45.1956 32.0656 46.0795C31.0049 46.9634 30.8616 48.5398 31.7455 49.6005L36.7305 55.5825C37.8254 56.8967 38.8125 58.0814 39.7344 58.914C40.7376 59.8198 42.0011 60.6266 43.6661 60.6266C45.331 60.6266 46.5946 59.8198 47.5977 58.914C48.5197 58.0814 49.5067 56.8967 50.6016 55.5826L62.2533 41.6005Z" fill="url(#paint2_linear_559_1703)"/>
</g>
</g>
<defs>
<filter id="filter0_b_559_1703" x="-13.6611" y="-14.2764" width="121.321" height="128.552" filterUnits="userSpaceOnUse" color-interpolation-filters="sRGB">
<feFlood flood-opacity="0" result="BackgroundImageFix"/>
<feGaussianBlur in="BackgroundImageFix" stdDeviation="12"/>
<feComposite in2="SourceAlpha" operator="in" result="effect1_backgroundBlur_559_1703"/>
<feBlend mode="normal" in="SourceGraphic" in2="effect1_backgroundBlur_559_1703" result="shape"/>
</filter>
<filter id="filter1_d_559_1703" x="27.9102" y="34.2442" width="44.6903" height="36.1503" filterUnits="userSpaceOnUse" color-interpolation-filters="sRGB">
<feFlood flood-opacity="0" result="BackgroundImageFix"/>
<feColorMatrix in="SourceAlpha" type="matrix" values="0 0 0 0 0 0 0 0 0 0 0 0 0 0 0 0 0 0 127 0" result="hardAlpha"/>
<feOffset dx="3.25583" dy="3.25583"/>
<feGaussianBlur stdDeviation="3.25583"/>
<feColorMatrix type="matrix" values="0 0 0 0 0.591667 0 0 0 0 0.768321 0 0 0 0 1 0 0 0 0.5 0"/>
<feBlend mode="normal" in2="BackgroundImageFix" result="effect1_dropShadow_559_1703"/>
<feBlend mode="normal" in="SourceGraphic" in2="effect1_dropShadow_559_1703" result="shape"/>
</filter>
<linearGradient id="paint0_linear_559_1703" x1="45.4004" y1="36.9997" x2="90.5988" y2="36.9997" gradientUnits="userSpaceOnUse">
<stop stop-color="#F0DFFC"/>
<stop offset="1" stop-color="#75A5F9"/>
</linearGradient>
<linearGradient id="paint1_linear_559_1703" x1="10.8408" y1="10.2236" x2="90.0652" y2="82.1702" gradientUnits="userSpaceOnUse">
<stop stop-color="white" stop-opacity="0.25"/>
<stop offset="1" stop-color="white" stop-opacity="0"/>
</linearGradient>
<linearGradient id="paint2_linear_559_1703" x1="47.2661" y1="65.5535" x2="77.8561" y2="24.4945" gradientUnits="userSpaceOnUse">
<stop stop-color="white"/>
<stop offset="1" stop-color="white" stop-opacity="0.2"/>
</linearGradient>
<clipPath id="clip0_559_1703">
<rect width="80" height="80" fill="white" transform="translate(7 10)"/>
</clipPath>
</defs>
</svg>
