<svg width="77" height="82" viewBox="0 0 77 82" fill="none" xmlns="http://www.w3.org/2000/svg">
<path d="M35.9596 0.86731C35.7144 0.86731 35.5156 1.0661 35.5156 1.31133V55.8231C35.5156 56.0683 35.7144 56.2671 35.9596 56.2671H76.0418C76.287 56.2671 76.4858 56.0683 76.4858 55.8231V1.31133C76.4858 1.06611 76.287 0.86731 76.0418 0.86731H35.9596Z" fill="url(#paint0_linear_736_2879)"/>
<g filter="url(#filter0_b_736_2879)">
<path d="M26.416 6.92341V54.7824C26.416 55.7852 26.7967 56.7469 27.4743 57.456C28.1518 58.1651 29.0709 58.5635 30.0291 58.5635H63.7844C64.7407 58.5603 65.6568 58.1606 66.3319 57.4519C67.0071 56.7431 67.3862 55.7831 67.3862 54.7824V6.92341C67.3862 5.92265 67.0071 4.96272 66.3319 4.25397C65.6568 3.54521 64.7407 3.14546 63.7844 3.14233H30.0201C29.0634 3.14484 28.1467 3.54431 27.4711 4.25313C26.7954 4.96195 26.416 5.92224 26.416 6.92341Z" fill="#6BA8F8" fill-opacity="0.35"/>
<path d="M63.7844 58.6005H63.7845C64.7512 58.5973 65.6768 58.1932 66.3587 57.4774C67.0406 56.7616 67.4232 55.7924 67.4232 54.7824V6.92341C67.4232 5.91338 67.0406 4.94424 66.3587 4.22844C65.6768 3.51259 64.7512 3.10849 63.7845 3.10533H63.7844L30.0201 3.10533L30.02 3.10533C29.0529 3.10786 28.1267 3.51167 27.4443 4.2276C26.7619 4.94347 26.379 5.91297 26.379 6.92341V54.7824C26.379 55.7945 26.7632 56.7654 27.4475 57.4816C28.1319 58.1978 29.0605 58.6005 30.0291 58.6005H63.7844Z" stroke="url(#paint1_linear_736_2879)" stroke-width="0.0740036" stroke-linecap="round"/>
</g>
<path opacity="0.8" d="M50.5228 18.2617H34.431C33.6353 18.2617 32.9902 18.7041 32.9902 19.2499V19.3258C32.9902 19.8716 33.6353 20.314 34.431 20.314H50.5228C51.3184 20.314 51.9635 19.8716 51.9635 19.3258V19.2499C51.9635 18.7041 51.3184 18.2617 50.5228 18.2617Z" fill="white"/>
<path opacity="0.8" d="M57.5935 25.4452H34.3757C34.1938 25.4454 34.0137 25.4191 33.8456 25.3678C33.6776 25.3166 33.5248 25.2413 33.3961 25.1463C33.2675 25.0514 33.1654 24.9386 33.0957 24.8145C33.0261 24.6904 32.9903 24.5573 32.9903 24.4229C32.9892 24.288 33.0241 24.1542 33.0933 24.0292C33.1624 23.9043 33.2643 23.7907 33.393 23.695C33.5218 23.5993 33.6749 23.5233 33.8436 23.4715C34.0122 23.4196 34.193 23.3929 34.3757 23.3929H57.5914C57.7733 23.3929 57.9533 23.4194 58.1213 23.4709C58.2892 23.5224 58.4418 23.5978 58.5703 23.6929C58.6988 23.788 58.8006 23.9009 58.87 24.0251C58.9394 24.1493 58.975 24.2824 58.9747 24.4168C58.9758 24.5514 58.9409 24.6849 58.872 24.8095C58.8031 24.9341 58.7016 25.0475 58.5733 25.1431C58.4449 25.2386 58.2923 25.3145 58.1242 25.3664C57.956 25.4182 57.7757 25.445 57.5935 25.4452Z" fill="white"/>
<path opacity="0.8" d="M59.2138 30.576H34.4671C34.2733 30.5762 34.0813 30.5498 33.9021 30.4984C33.7229 30.4469 33.5601 30.3714 33.4229 30.2762C33.2858 30.1809 33.1769 30.0678 33.1026 29.9433C33.0284 29.8188 32.9902 29.6854 32.9902 29.5506C32.9902 29.4157 33.0284 29.2822 33.1026 29.1576C33.1769 29.033 33.2856 28.9198 33.4228 28.8245C33.5599 28.7291 33.7228 28.6535 33.902 28.6019C34.0811 28.5503 34.2732 28.5237 34.4671 28.5237H59.216C59.4099 28.5237 59.6018 28.5503 59.7809 28.6019C59.96 28.6535 60.1226 28.7292 60.2596 28.8246C60.3966 28.9199 60.5051 29.0332 60.5791 29.1577C60.6531 29.2823 60.691 29.4158 60.6907 29.5506C60.6907 29.6854 60.6525 29.8188 60.5782 29.9433C60.504 30.0678 60.3952 30.1809 60.258 30.2762C60.1208 30.3714 59.958 30.4469 59.7788 30.4984C59.5997 30.5498 59.4077 30.5762 59.2138 30.576Z" fill="white"/>
<path opacity="0.8" d="M62.255 8.41577H54.9217C54.8808 8.41577 54.8477 8.4489 54.8477 8.48977V17.5132C54.8477 17.5541 54.8808 17.5872 54.9217 17.5872H62.255C62.2959 17.5872 62.329 17.5541 62.329 17.5132V8.48978C62.329 8.4489 62.2959 8.41577 62.255 8.41577Z" fill="white" stroke="white" stroke-width="0.0985962" stroke-miterlimit="10"/>
<path d="M8.44336 62.5081V55.3753C8.44311 54.9144 8.53369 54.4579 8.70991 54.032C8.88614 53.6061 9.14455 53.2191 9.4704 52.8931C9.79624 52.5671 10.1831 52.3085 10.6089 52.132C11.0348 51.9556 11.4912 51.8647 11.9521 51.8647H25.9134" stroke="url(#paint2_linear_736_2879)" stroke-width="1.51667" stroke-miterlimit="10"/>
<path d="M18.7559 71.9365H28.4286" stroke="url(#paint3_linear_736_2879)" stroke-width="1.51667" stroke-miterlimit="10"/>
<path d="M45.582 71.9365H54.5243" stroke="url(#paint4_linear_736_2879)" stroke-width="1.51667" stroke-miterlimit="10"/>
<g filter="url(#filter1_b_736_2879)">
<path d="M7.99128 76.5149C7.7133 76.5069 7.44813 76.3961 7.24712 76.2039L3.59069 72.7663C3.50478 72.6903 3.43745 72.5957 3.39393 72.4896C3.35041 72.3836 3.33182 72.2689 3.33963 72.1546C3.34744 72.0402 3.38143 71.9291 3.43897 71.83C3.49651 71.7308 3.57607 71.6462 3.6715 71.5827C3.87926 71.434 4.13094 71.3594 4.38616 71.3709C4.64138 71.3824 4.88537 71.4792 5.07896 71.6459L7.94153 74.3219L13.8905 67.9833C14.2294 67.6216 14.8564 67.5574 15.2907 67.8413C15.7249 68.1253 15.7996 68.6477 15.4607 69.0083L8.77481 76.1594C8.67929 76.2655 8.5635 76.3514 8.43428 76.4121C8.30506 76.4728 8.165 76.507 8.02235 76.5128L7.99128 76.5149Z" fill="url(#paint5_linear_736_2879)"/>
<path d="M7.99043 76.5445L7.99043 76.5443C7.7052 76.5362 7.43312 76.4225 7.22684 76.2254C7.22681 76.2253 7.22677 76.2253 7.22674 76.2253L3.57116 72.7884C3.57104 72.7882 3.57093 72.7881 3.57081 72.788C3.48169 72.7092 3.41183 72.6109 3.36665 72.5008C3.32141 72.3906 3.30209 72.2714 3.31021 72.1526C3.31833 72.0337 3.35365 71.9182 3.41346 71.8152C3.47319 71.7123 3.55574 71.6244 3.65475 71.5584C3.8678 71.4061 4.12582 71.3297 4.38748 71.3414C4.64931 71.3532 4.8996 71.4525 5.0982 71.6236L5.09911 71.6244L5.09909 71.6244L7.94017 74.2802L13.869 67.9632L7.99043 76.5445ZM7.99043 76.5445L7.99324 76.5443M7.99043 76.5445L7.99324 76.5443M7.99324 76.5443L8.02354 76.5423C8.02366 76.5423 8.02379 76.5422 8.02391 76.5422C8.17036 76.5363 8.31415 76.5011 8.44682 76.4388C8.57951 76.3765 8.69842 76.2882 8.79654 76.1793C8.7966 76.1792 8.79666 76.1792 8.79673 76.1791L15.4822 69.0285C15.6575 68.8419 15.7267 68.6123 15.6948 68.3918C15.6629 68.1715 15.5304 67.9628 15.3068 67.8167C14.8614 67.5254 14.2183 67.5903 13.869 67.9631L7.99324 76.5443Z" stroke="url(#paint6_linear_736_2879)" stroke-width="0.0589805" stroke-miterlimit="10"/>
</g>
<path d="M3.50593 63.2385H15.4479C16.1665 63.2455 16.853 63.5375 17.3565 64.0502C17.86 64.563 18.1394 65.2546 18.1334 65.9732V78.1325C18.1394 78.8511 17.86 79.5427 17.3565 80.0555C16.853 80.5682 16.1665 80.8601 15.4479 80.8671H3.50593C3.15003 80.8639 2.79825 80.7906 2.47067 80.6515C2.14309 80.5123 1.84613 80.31 1.59676 80.056C1.34738 79.8021 1.15046 79.5015 1.01726 79.1715C0.884051 78.8414 0.81718 78.4884 0.820425 78.1325V65.9732C0.81718 65.6173 0.884051 65.2642 1.01726 64.9342C1.15046 64.6042 1.34738 64.3036 1.59676 64.0497C1.84613 63.7957 2.14309 63.5934 2.47067 63.4542C2.79825 63.315 3.15003 63.2417 3.50593 63.2385Z" stroke="url(#paint7_linear_736_2879)" stroke-width="1.51667" stroke-miterlimit="10"/>
<g filter="url(#filter2_b_736_2879)">
<path d="M35.5831 76.4863C35.3051 76.4783 35.0399 76.3675 34.8389 76.1754L31.1825 72.7377C31.0966 72.6618 31.0293 72.5671 30.9857 72.4611C30.9422 72.355 30.9236 72.2404 30.9314 72.126C30.9392 72.0116 30.9732 71.9006 31.0308 71.8014C31.0883 71.7023 31.1679 71.6177 31.2633 71.5541C31.4711 71.4054 31.7227 71.3309 31.978 71.3423C32.2332 71.3538 32.4772 71.4506 32.6708 71.6173L35.5333 74.2933L41.4823 67.9548C41.8212 67.5931 42.4482 67.5288 42.8825 67.8128C43.3167 68.0968 43.3914 68.6191 43.0525 68.9798L36.3666 76.1308C36.2711 76.2369 36.1553 76.3228 36.0261 76.3835C35.8969 76.4442 35.7568 76.4785 35.6141 76.4842L35.5831 76.4863Z" fill="url(#paint8_linear_736_2879)"/>
<path d="M35.5822 76.5159L35.5822 76.5158C35.297 76.5076 35.0249 76.3939 34.8186 76.1968C34.8186 76.1968 34.8186 76.1967 34.8185 76.1967L31.163 72.7598C31.1628 72.7597 31.1627 72.7596 31.1626 72.7595C31.0735 72.6806 31.0036 72.5824 30.9584 72.4723C30.9132 72.362 30.8939 72.2429 30.902 72.124C30.9101 72.0051 30.9455 71.8897 31.0053 71.7866C31.065 71.6837 31.1475 71.5959 31.2465 71.5299C31.4596 71.3775 31.7176 71.3011 31.9793 71.3129C32.2411 71.3246 32.4914 71.424 32.69 71.595L32.6909 71.5958L32.6909 71.5958L35.532 74.2517L41.4608 67.9346L35.5822 76.5159ZM35.5822 76.5159L35.585 76.5157M35.5822 76.5159L35.585 76.5157M35.585 76.5157L35.6153 76.5137C35.6155 76.5137 35.6156 76.5137 35.6157 76.5137C35.7622 76.5077 35.9059 76.4725 36.0386 76.4102C36.1713 76.3479 36.2902 76.2597 36.3883 76.1508C36.3884 76.1507 36.3885 76.1506 36.3885 76.1505L43.074 68.9999C43.2493 68.8134 43.3185 68.5837 43.2866 68.3633C43.2547 68.143 43.1222 67.9343 42.8986 67.7881C42.4532 67.4968 41.8101 67.5618 41.4608 67.9346L35.585 76.5157Z" stroke="url(#paint9_linear_736_2879)" stroke-width="0.0589805" stroke-miterlimit="10"/>
</g>
<path d="M31.1505 63.21H43.0924C43.4483 63.2132 43.8001 63.2865 44.1277 63.4256C44.4553 63.5648 44.7522 63.7671 45.0016 64.0211C45.251 64.275 45.4479 64.5756 45.5811 64.9056C45.7143 65.2357 45.7812 65.5887 45.7779 65.9446V78.1039C45.7812 78.4598 45.7143 78.8129 45.5811 79.1429C45.4479 79.4729 45.251 79.7735 45.0016 80.0274C44.7522 80.2814 44.4553 80.4837 44.1277 80.6229C43.8001 80.7621 43.4483 80.8354 43.0924 80.8386H31.1505C30.4321 80.8316 29.7458 80.5396 29.2426 80.0268C28.7394 79.514 28.4604 78.8223 28.4669 78.1039V65.9446C28.4604 65.2262 28.7394 64.5346 29.2426 64.0218C29.7458 63.509 30.4321 63.217 31.1505 63.21Z" stroke="url(#paint10_linear_736_2879)" stroke-width="1.51667" stroke-miterlimit="10"/>
<g filter="url(#filter3_b_736_2879)">
<path d="M62.3565 76.5151C62.0785 76.5071 61.8134 76.3964 61.6124 76.2042L57.9559 72.7665C57.87 72.6906 57.8027 72.5959 57.7592 72.4899C57.7156 72.3838 57.6971 72.2692 57.7049 72.1548C57.7127 72.0404 57.7467 71.9294 57.8042 71.8302C57.8617 71.7311 57.9413 71.6465 58.0367 71.5829C58.2445 71.4343 58.4962 71.3597 58.7514 71.3711C59.0066 71.3826 59.2506 71.4794 59.4442 71.6462L62.3068 74.3221L68.2558 67.9836C68.5947 67.6219 69.2217 67.5576 69.6559 67.8416C70.0902 68.1256 70.1648 68.6479 69.8259 69.0086L63.14 76.1596C63.0445 76.2657 62.9287 76.3517 62.7995 76.4123C62.6703 76.473 62.5302 76.5073 62.3876 76.513L62.3565 76.5151Z" fill="url(#paint11_linear_736_2879)"/>
<path d="M62.3557 76.5447L62.3557 76.5446C62.0704 76.5364 61.7984 76.4228 61.5921 76.2256C61.592 76.2256 61.592 76.2255 61.592 76.2255L57.9364 72.7886C57.9363 72.7885 57.9362 72.7884 57.936 72.7883C57.8469 72.7094 57.7771 72.6112 57.7319 72.5011C57.6866 72.3909 57.6673 72.2717 57.6754 72.1528C57.6836 72.0339 57.7189 71.9185 57.7787 71.8154C57.8384 71.7125 57.921 71.6247 58.02 71.5587C58.233 71.4063 58.4911 71.3299 58.7527 71.3417C59.0145 71.3534 59.2648 71.4528 59.4634 71.6238L59.4643 71.6246L59.4643 71.6246L62.3054 74.2805L68.2342 67.9634L62.3557 76.5447ZM62.3557 76.5447L62.3585 76.5445M62.3557 76.5447L62.3585 76.5445M62.3585 76.5445L62.3888 76.5425C62.3889 76.5425 62.389 76.5425 62.3891 76.5425C62.5356 76.5365 62.6794 76.5013 62.8121 76.439C62.9447 76.3767 63.0637 76.2885 63.1618 76.1796C63.1618 76.1795 63.1619 76.1794 63.162 76.1794L69.8474 69.0288C70.0227 68.8422 70.092 68.6125 70.06 68.3921C70.0281 68.1718 69.8956 67.9631 69.6721 67.8169C69.2266 67.5256 68.5836 67.5906 68.2342 67.9634L62.3585 76.5445Z" stroke="url(#paint12_linear_736_2879)" stroke-width="0.0589805" stroke-miterlimit="10"/>
</g>
<path d="M57.9495 63.2388H69.8991C70.6175 63.2458 71.3038 63.5378 71.807 64.0506C72.3103 64.5634 72.5893 65.255 72.5827 65.9734V78.1327C72.5893 78.8511 72.3103 79.5428 71.807 80.0556C71.3038 80.5684 70.6175 80.8604 69.8991 80.8674H57.9571C57.6012 80.8642 57.2494 80.7909 56.9218 80.6517C56.5943 80.5125 56.2973 80.3102 56.0479 80.0563C55.7986 79.8023 55.6016 79.5018 55.4684 79.1717C55.3352 78.8417 55.2684 78.4886 55.2716 78.1327V65.9734C55.265 65.256 55.5432 64.5652 56.0452 64.0526C56.5473 63.5399 57.2321 63.2473 57.9495 63.2388Z" stroke="url(#paint13_linear_736_2879)" stroke-width="1.51667" stroke-miterlimit="10"/>
<defs>
<filter id="filter0_b_736_2879" x="24.5657" y="1.29227" width="44.6713" height="59.1213" filterUnits="userSpaceOnUse" color-interpolation-filters="sRGB">
<feFlood flood-opacity="0" result="BackgroundImageFix"/>
<feGaussianBlur in="BackgroundImageFix" stdDeviation="0.888044"/>
<feComposite in2="SourceAlpha" operator="in" result="effect1_backgroundBlur_736_2879"/>
<feBlend mode="normal" in="SourceGraphic" in2="effect1_backgroundBlur_736_2879" result="shape"/>
</filter>
<filter id="filter1_b_736_2879" x="1.86377" y="66.1896" width="15.2842" height="11.8001" filterUnits="userSpaceOnUse" color-interpolation-filters="sRGB">
<feFlood flood-opacity="0" result="BackgroundImageFix"/>
<feGaussianBlur in="BackgroundImageFix" stdDeviation="0.707765"/>
<feComposite in2="SourceAlpha" operator="in" result="effect1_backgroundBlur_736_2879"/>
<feBlend mode="normal" in="SourceGraphic" in2="effect1_backgroundBlur_736_2879" result="shape"/>
</filter>
<filter id="filter2_b_736_2879" x="29.4556" y="66.161" width="15.2842" height="11.8001" filterUnits="userSpaceOnUse" color-interpolation-filters="sRGB">
<feFlood flood-opacity="0" result="BackgroundImageFix"/>
<feGaussianBlur in="BackgroundImageFix" stdDeviation="0.707765"/>
<feComposite in2="SourceAlpha" operator="in" result="effect1_backgroundBlur_736_2879"/>
<feBlend mode="normal" in="SourceGraphic" in2="effect1_backgroundBlur_736_2879" result="shape"/>
</filter>
<filter id="filter3_b_736_2879" x="56.229" y="66.1898" width="15.2842" height="11.8001" filterUnits="userSpaceOnUse" color-interpolation-filters="sRGB">
<feFlood flood-opacity="0" result="BackgroundImageFix"/>
<feGaussianBlur in="BackgroundImageFix" stdDeviation="0.707765"/>
<feComposite in2="SourceAlpha" operator="in" result="effect1_backgroundBlur_736_2879"/>
<feBlend mode="normal" in="SourceGraphic" in2="effect1_backgroundBlur_736_2879" result="shape"/>
</filter>
<linearGradient id="paint0_linear_736_2879" x1="35.5156" y1="28.5672" x2="76.4858" y2="28.5672" gradientUnits="userSpaceOnUse">
<stop stop-color="#E7C5FF"/>
<stop offset="1" stop-color="#0049C9"/>
</linearGradient>
<linearGradient id="paint1_linear_736_2879" x1="26.416" y1="3.14233" x2="79.4117" y2="42.2798" gradientUnits="userSpaceOnUse">
<stop stop-color="white" stop-opacity="0.25"/>
<stop offset="1" stop-color="white" stop-opacity="0"/>
</linearGradient>
<linearGradient id="paint2_linear_736_2879" x1="17.3255" y1="64.7756" x2="30.4997" y2="43.5786" gradientUnits="userSpaceOnUse">
<stop stop-color="white"/>
<stop offset="1" stop-color="white" stop-opacity="0.2"/>
</linearGradient>
<linearGradient id="paint3_linear_736_2879" x1="23.6737" y1="73.1496" x2="23.9617" y2="70.4191" gradientUnits="userSpaceOnUse">
<stop stop-color="white"/>
<stop offset="1" stop-color="white" stop-opacity="0.2"/>
</linearGradient>
<linearGradient id="paint4_linear_736_2879" x1="50.1285" y1="73.1496" x2="50.4394" y2="70.4242" gradientUnits="userSpaceOnUse">
<stop stop-color="white"/>
<stop offset="1" stop-color="white" stop-opacity="0.2"/>
</linearGradient>
<linearGradient id="paint5_linear_736_2879" x1="3.33789" y1="72.0895" x2="15.6728" y2="72.0895" gradientUnits="userSpaceOnUse">
<stop stop-color="#F0DFFC"/>
<stop offset="1" stop-color="#75A5F9"/>
</linearGradient>
<linearGradient id="paint6_linear_736_2879" x1="3.33789" y1="67.6641" x2="11.7295" y2="79.3472" gradientUnits="userSpaceOnUse">
<stop stop-color="white" stop-opacity="0.25"/>
<stop offset="1" stop-color="white" stop-opacity="0"/>
</linearGradient>
<linearGradient id="paint7_linear_736_2879" x1="9.62269" y1="84.6228" x2="33.9403" y2="61.2121" gradientUnits="userSpaceOnUse">
<stop stop-color="white"/>
<stop offset="1" stop-color="white" stop-opacity="0.2"/>
</linearGradient>
<linearGradient id="paint8_linear_736_2879" x1="30.9297" y1="72.0609" x2="43.2646" y2="72.0609" gradientUnits="userSpaceOnUse">
<stop stop-color="#F0DFFC"/>
<stop offset="1" stop-color="#75A5F9"/>
</linearGradient>
<linearGradient id="paint9_linear_736_2879" x1="30.9297" y1="67.6355" x2="39.3213" y2="79.3187" gradientUnits="userSpaceOnUse">
<stop stop-color="white" stop-opacity="0.25"/>
<stop offset="1" stop-color="white" stop-opacity="0"/>
</linearGradient>
<linearGradient id="paint10_linear_736_2879" x1="37.2682" y1="84.5942" x2="61.5857" y2="61.1862" gradientUnits="userSpaceOnUse">
<stop stop-color="white"/>
<stop offset="1" stop-color="white" stop-opacity="0.2"/>
</linearGradient>
<linearGradient id="paint11_linear_736_2879" x1="57.7031" y1="72.0897" x2="70.0381" y2="72.0897" gradientUnits="userSpaceOnUse">
<stop stop-color="#F0DFFC"/>
<stop offset="1" stop-color="#75A5F9"/>
</linearGradient>
<linearGradient id="paint12_linear_736_2879" x1="57.7031" y1="67.6643" x2="66.0947" y2="79.3475" gradientUnits="userSpaceOnUse">
<stop stop-color="white" stop-opacity="0.25"/>
<stop offset="1" stop-color="white" stop-opacity="0"/>
</linearGradient>
<linearGradient id="paint13_linear_736_2879" x1="64.0729" y1="84.623" x2="88.3904" y2="61.2149" gradientUnits="userSpaceOnUse">
<stop stop-color="white"/>
<stop offset="1" stop-color="white" stop-opacity="0.2"/>
</linearGradient>
</defs>
</svg>
