<svg width="78" height="83" viewBox="0 0 78 83" fill="none" xmlns="http://www.w3.org/2000/svg">
<path d="M6.45682 51.0701C6.31768 49.8831 6.24799 48.6894 6.24805 47.4947C6.24712 41.5475 7.99665 35.724 11.2903 30.7112C14.5839 25.6985 19.2842 21.7056 24.8368 19.2036" stroke="white" stroke-width="2.92713" stroke-miterlimit="10" stroke-linecap="round"/>
<path d="M56.288 76.7404C51.1447 79.8539 45.2471 81.5 39.2348 81.5C33.2225 81.5 27.325 79.8539 22.1816 76.7404" stroke="white" stroke-width="2.92713" stroke-miterlimit="10" stroke-linecap="round"/>
<path d="M52.0137 19.2036C57.2759 22.1819 63.0128 27.0486 66.0312 32.5819C69.0495 38.1152 70.5804 44.4539 70.4519 50.8868" stroke="white" stroke-width="2.92713" stroke-miterlimit="10" stroke-linecap="round"/>
<g filter="url(#filter0_b_741_3848)">
<path d="M45.3752 20.9739C45.6115 20.9734 45.8447 20.9221 46.058 20.8239C46.2713 20.7257 46.4594 20.5829 46.6088 20.4058C46.7582 20.2288 46.8651 20.0219 46.9219 19.8C46.9787 19.5781 46.9839 19.3468 46.9372 19.1228C46.0976 15.0557 42.6663 11.4172 38.559 11.4172C34.4516 11.4172 31.0215 15.0557 30.182 19.1228C30.1352 19.3468 30.1404 19.5781 30.1972 19.8C30.254 20.0219 30.3609 20.2288 30.5103 20.4058C30.6597 20.5829 30.8478 20.7257 31.0612 20.8239C31.2745 20.9221 31.5076 20.9734 31.7439 20.9739H45.3752Z" fill="#6BA8F8" fill-opacity="0.35"/>
<path d="M45.3752 21.2709L45.3759 21.2709C45.6546 21.2703 45.9299 21.2099 46.1822 21.0937C46.4345 20.9775 46.6579 20.8082 46.8358 20.5974L46.6088 20.4058L46.8358 20.5974C47.0137 20.3865 47.1417 20.1394 47.2097 19.8736C47.2776 19.6081 47.2839 19.331 47.228 19.0628C46.3689 14.9006 42.8468 11.1202 38.559 11.1202C34.2712 11.1202 30.7504 14.9004 29.8912 19.0624C29.8352 19.3308 29.8415 19.608 29.9095 19.8736C29.9775 20.1394 30.1054 20.3865 30.2833 20.5974L30.5103 20.4058L30.2833 20.5974C30.4612 20.8082 30.6846 20.9775 30.9369 21.0937C31.1892 21.2099 31.4646 21.2703 31.7432 21.2709H31.7439L45.3752 21.2709Z" stroke="white" stroke-opacity="0.8" stroke-width="0.594027" stroke-linecap="round"/>
</g>
<g filter="url(#filter1_b_741_3848)">
<path d="M38.3369 10.8698C39.3155 10.9189 40.2864 10.6798 41.1216 10.184C41.9569 9.68831 42.6171 8.95926 43.0153 8.09306C43.4135 7.22686 43.5308 6.26421 43.3519 5.33214C43.173 4.40007 42.7063 3.54237 42.0132 2.87221C41.3202 2.20205 40.4334 1.75093 39.4699 1.57834C38.5064 1.40576 37.5115 1.51984 36.6164 1.90552C35.7213 2.29121 34.9681 2.93038 34.4561 3.7387C33.9442 4.54702 33.6976 5.48651 33.7488 6.43321C33.8117 7.59053 34.3154 8.68433 35.1626 9.50359C36.0099 10.3228 37.1407 10.8095 38.3369 10.8698Z" fill="#6BA8F8" fill-opacity="0.35"/>
<path d="M38.322 11.1664L38.3221 11.1664C39.3584 11.2184 40.3873 10.9653 41.2732 10.4395C42.1593 9.91358 42.8613 9.13918 43.2852 8.21711C43.7091 7.29491 43.8343 6.26933 43.6436 5.27615C43.453 4.28305 42.9559 3.37063 42.2197 2.6587C41.4836 1.94687 40.5429 1.46879 39.5223 1.28598C38.5017 1.10318 37.4477 1.22391 36.4989 1.63275C35.5499 2.04163 34.7498 2.71996 34.2052 3.57978C33.6606 4.43975 33.3976 5.44031 33.4522 6.44927L33.4522 6.44934C33.5193 7.68285 34.0561 8.84674 34.9562 9.7171C35.856 10.5872 37.0552 11.1026 38.322 11.1664Z" stroke="white" stroke-opacity="0.8" stroke-width="0.594027" stroke-linecap="round"/>
</g>
<g filter="url(#filter2_b_741_3848)">
<path d="M16.1624 74.0848C16.3986 74.0842 16.6318 74.033 16.8451 73.9348C17.0584 73.8365 17.2465 73.6937 17.3959 73.5167C17.5453 73.3396 17.6523 73.1327 17.709 72.9108C17.7658 72.689 17.771 72.4577 17.7243 72.2336C16.8847 68.1666 13.4534 64.5281 9.34607 64.5281C5.23872 64.5281 1.80861 68.1666 0.969077 72.2336C0.922333 72.4577 0.927544 72.689 0.984323 72.9108C1.0411 73.1327 1.14804 73.3396 1.29744 73.5167C1.44683 73.6937 1.63496 73.8365 1.84827 73.9348C2.06158 74.033 2.29476 74.0842 2.531 74.0848H16.1624Z" fill="#6BA8F8" fill-opacity="0.35"/>
<path d="M16.1624 74.3818L16.163 74.3818C16.4417 74.3811 16.717 74.3207 16.9693 74.2045C17.2217 74.0883 17.445 73.919 17.6229 73.7082L17.3959 73.5167L17.6229 73.7082C17.8008 73.4973 17.9288 73.2502 17.9968 72.9845C18.0647 72.7189 18.071 72.4419 18.0152 72.1736C17.156 68.0114 13.6339 64.2311 9.34607 64.2311C5.0583 64.2311 1.53752 68.0113 0.67826 72.1733C0.622313 72.4417 0.62859 72.7188 0.696583 72.9845C0.764595 73.2502 0.89251 73.4973 1.07043 73.7082L1.29744 73.5167L1.07043 73.7082C1.24832 73.919 1.4717 74.0883 1.72402 74.2045C1.97632 74.3207 2.25167 74.3811 2.53031 74.3818H2.531L16.1624 74.3818Z" stroke="white" stroke-opacity="0.8" stroke-width="0.594027" stroke-linecap="round"/>
</g>
<g filter="url(#filter3_b_741_3848)">
<path d="M8.82914 63.9806C9.80768 64.0297 10.7786 63.7906 11.6138 63.2949C12.449 62.7992 13.1093 62.0701 13.5075 61.2039C13.9056 60.3377 14.023 59.375 13.8441 58.443C13.6652 57.5109 13.1985 56.6532 12.5054 55.9831C11.8124 55.3129 10.9256 54.8618 9.96211 54.6892C8.99862 54.5166 8.00369 54.6307 7.10859 55.0164C6.21348 55.402 5.46028 56.0412 4.94833 56.8495C4.43639 57.6579 4.18976 58.5974 4.24101 59.5441C4.30393 60.7014 4.80758 61.7952 5.65483 62.6144C6.50207 63.4337 7.63289 63.9204 8.82914 63.9806Z" fill="#6BA8F8" fill-opacity="0.35"/>
<path d="M8.81419 64.2773L8.81426 64.2773C9.8506 64.3293 10.8795 64.0761 11.7654 63.5503C12.6514 63.0244 13.3535 62.25 13.7773 61.3279C14.2013 60.4057 14.3264 59.3802 14.1358 58.387C13.9452 57.3939 13.4481 56.4815 12.7119 55.7695C11.9757 55.0577 11.0351 54.5796 10.0145 54.3968C8.99392 54.214 7.93989 54.3348 6.99105 54.7436C6.04213 55.1525 5.24197 55.8308 4.69741 56.6906C4.15276 57.5506 3.88981 58.5511 3.94443 59.5601L3.94443 59.5602C4.01149 60.7937 4.54827 61.9576 5.44836 62.8279C6.34821 63.6981 7.54744 64.2135 8.81419 64.2773Z" stroke="white" stroke-opacity="0.8" stroke-width="0.594027" stroke-linecap="round"/>
</g>
<g filter="url(#filter4_b_741_3848)">
<path d="M75.469 74.0848C75.7052 74.0842 75.9384 74.033 76.1517 73.9348C76.365 73.8365 76.5532 73.6937 76.7026 73.5167C76.852 73.3396 76.9589 73.1327 77.0157 72.9108C77.0725 72.689 77.0777 72.4577 77.0309 72.2336C76.1914 68.1666 72.7601 64.5281 68.6527 64.5281C64.5454 64.5281 61.1152 68.1666 60.2757 72.2336C60.229 72.4577 60.2342 72.689 60.291 72.9108C60.3477 73.1327 60.4547 73.3396 60.6041 73.5167C60.7535 73.6937 60.9416 73.8365 61.1549 73.9348C61.3682 74.033 61.6014 74.0842 61.8376 74.0848H75.469Z" fill="#6BA8F8" fill-opacity="0.35"/>
<path d="M75.469 74.3818L75.4697 74.3818C75.7483 74.3811 76.0237 74.3207 76.276 74.2045C76.5283 74.0883 76.7517 73.919 76.9296 73.7082L76.7026 73.5167L76.9296 73.7082C77.1075 73.4973 77.2354 73.2502 77.3034 72.9845C77.3714 72.7189 77.3777 72.4419 77.3218 72.1736C76.4626 68.0114 72.9405 64.2311 68.6527 64.2311C64.3649 64.2311 60.8442 68.0113 59.9849 72.1733C59.929 72.4417 59.9352 72.7188 60.0032 72.9845C60.0712 73.2502 60.1992 73.4973 60.3771 73.7082L60.6041 73.5167L60.3771 73.7082C60.555 73.919 60.7783 74.0883 61.0307 74.2045C61.283 74.3207 61.5583 74.3811 61.837 74.3818H61.8376L75.469 74.3818Z" stroke="white" stroke-opacity="0.8" stroke-width="0.594027" stroke-linecap="round"/>
</g>
<g filter="url(#filter5_b_741_3848)">
<path d="M68.1358 63.9806C69.1143 64.0297 70.0853 63.7906 70.9205 63.2949C71.7557 62.7992 72.4159 62.0701 72.8141 61.2039C73.2123 60.3377 73.3297 59.375 73.1508 58.443C72.9719 57.5109 72.5051 56.6532 71.8121 55.9831C71.119 55.3129 70.2322 54.8618 69.2687 54.6892C68.3053 54.5166 67.3103 54.6307 66.4152 55.0164C65.5201 55.402 64.7669 56.0412 64.255 56.8495C63.743 57.6579 63.4964 58.5974 63.5476 59.5441C63.6106 60.7014 64.1142 61.7952 64.9615 62.6144C65.8087 63.4337 66.9395 63.9204 68.1358 63.9806Z" fill="#6BA8F8" fill-opacity="0.35"/>
<path d="M68.1208 64.2773L68.1209 64.2773C69.1572 64.3293 70.1862 64.0761 71.0721 63.5503C71.9581 63.0244 72.6601 62.25 73.084 61.3279C73.5079 60.4057 73.6331 59.3802 73.4425 58.387C73.2518 57.3939 72.7548 56.4815 72.0185 55.7695C71.2824 55.0577 70.3417 54.5796 69.3211 54.3968C68.3006 54.214 67.2465 54.3348 66.2977 54.7436C65.3488 55.1525 64.5486 55.8308 64.0041 56.6906C63.4594 57.5506 63.1965 58.5511 63.2511 59.5601L63.2511 59.5602C63.3181 60.7937 63.8549 61.9576 64.755 62.8279C65.6548 63.6981 66.8541 64.2135 68.1208 64.2773Z" stroke="white" stroke-opacity="0.8" stroke-width="0.594027" stroke-linecap="round"/>
</g>
<g filter="url(#filter6_b_741_3848)">
<path d="M38.6881 28.9406L55.1459 37.4757V55.5196L39.1077 64.5421L23.0684 55.5196V37.4757L38.6881 28.9406Z" fill="#6BA8F8" fill-opacity="0.35"/>
<path d="M38.6881 28.9406L55.1459 37.4757V55.5196L39.1077 64.5421L23.0684 55.5196V37.4757L38.6881 28.9406Z" stroke="url(#paint0_linear_741_3848)" stroke-width="0.484141" stroke-linecap="round"/>
</g>
<g filter="url(#filter7_b_741_3848)">
<path d="M38.7717 32.4939L51.9441 39.3253V53.7682L39.1074 60.9891L26.2695 53.7682V39.3253L38.7717 32.4939Z" fill="url(#paint1_linear_741_3848)"/>
<path d="M38.7717 32.4939L51.9441 39.3253V53.7682L39.1074 60.9891L26.2695 53.7682V39.3253L38.7717 32.4939Z" stroke="url(#paint2_linear_741_3848)" stroke-width="0.484141" stroke-linecap="round"/>
</g>
<g filter="url(#filter8_b_741_3848)">
<path d="M38.7717 32.4257L51.9441 39.2571V53.7L39.1074 60.9209L26.2695 53.7V39.2571L38.7717 32.4257Z" fill="url(#paint3_linear_741_3848)"/>
</g>
<path d="M39.0986 55.4604C43.7137 55.4604 47.4549 51.7202 47.4549 47.1065C47.4549 42.4927 43.7137 38.7526 39.0986 38.7526C34.4835 38.7526 30.7422 42.4927 30.7422 47.1065C30.7422 51.7202 34.4835 55.4604 39.0986 55.4604Z" fill="url(#paint4_linear_741_3848)"/>
<g filter="url(#filter9_b_741_3848)">
<path d="M39.2051 56.0983C44.3818 56.0301 48.5219 51.8606 48.4523 46.7855C48.3827 41.7103 44.1298 37.6514 38.9532 37.7196C33.7766 37.7878 29.6365 41.9573 29.7061 47.0325C29.7756 52.1076 34.0285 56.1665 39.2051 56.0983Z" fill="#6BA8F8" fill-opacity="0.35"/>
<path d="M39.2051 56.0983C44.3818 56.0301 48.5219 51.8606 48.4523 46.7855C48.3827 41.7103 44.1298 37.6514 38.9532 37.7196C33.7766 37.7878 29.6365 41.9573 29.7061 47.0325C29.7756 52.1076 34.0285 56.1665 39.2051 56.0983Z" stroke="url(#paint5_linear_741_3848)" stroke-width="0.484141" stroke-linecap="round"/>
</g>
<path d="M33.4188 42.4785H33.4104L32.8331 42.7476L32.7168 42.2278L33.5173 41.8632H34.103V44.8267H33.4188V42.4785Z" fill="white"/>
<path d="M37.3309 43.3307C37.3309 44.247 36.9537 44.8716 36.1783 44.8716C35.403 44.8716 35.053 44.1833 35.0488 43.3441C35.0488 42.4863 35.4208 41.8032 36.2014 41.8032C37.0166 41.8125 37.3309 42.5192 37.3309 43.3307ZM35.7592 43.3492C35.7592 44.0282 35.9216 44.3528 36.1962 44.3528C36.4707 44.3528 36.6153 44.0149 36.6153 43.34C36.6153 42.6836 36.4707 42.3364 36.1878 42.3364C35.9373 42.3364 35.7592 42.661 35.7655 43.3492H35.7592Z" fill="white"/>
<path d="M38.5878 42.4785H38.5784L38.0011 42.7476L37.8848 42.2278L38.6853 41.8632H39.271V44.8267H38.5878V42.4785Z" fill="white"/>
<path d="M41.162 42.4783H41.1526L40.5753 42.7475L40.459 42.2277L41.2595 41.863H41.8452V44.8266H41.162V42.4783Z" fill="white"/>
<path d="M45.9232 43.266C45.9232 44.3064 45.4949 45.0156 44.6145 45.0156C43.7342 45.0156 43.3368 44.2341 43.332 43.2812C43.332 42.3073 43.7544 41.5316 44.6407 41.5316C45.5639 41.5421 45.9232 42.3446 45.9232 43.266ZM44.1387 43.287C44.1387 44.058 44.3231 44.4266 44.6348 44.4266C44.9465 44.4266 45.1106 44.0429 45.1106 43.2765C45.1106 42.5312 44.9477 42.137 44.6253 42.137C44.3385 42.137 44.1375 42.5056 44.147 43.287H44.1387Z" fill="white"/>
<path d="M33.7479 47.1098C33.7479 48.0261 33.3707 48.6506 32.5954 48.6506C31.82 48.6506 31.4701 47.9624 31.4648 47.1231C31.4648 46.2654 31.8368 45.5823 32.6174 45.5823C33.4315 45.5864 33.7479 46.2931 33.7479 47.1098ZM32.1763 47.1283C32.1763 47.8073 32.3397 48.1308 32.6143 48.1308C32.8888 48.1308 33.0334 47.7939 33.0334 47.119C33.0334 46.4616 32.8888 46.1154 32.6048 46.1154C32.3523 46.1103 32.1752 46.4339 32.1794 47.1231L32.1763 47.1283Z" fill="white"/>
<path d="M34.998 46.2521H34.9886L34.4112 46.5212L34.2949 46.0014L35.0954 45.6357H35.6811V48.6003H34.998V46.2521Z" fill="white"/>
<path d="M38.909 47.1098C38.909 48.0261 38.5318 48.6506 37.7564 48.6506C36.9811 48.6506 36.6311 47.9624 36.627 47.1231C36.627 46.2654 36.9989 45.5823 37.7795 45.5823C38.5926 45.5864 38.909 46.2931 38.909 47.1098ZM37.3373 47.1283C37.3321 47.8073 37.4997 48.1308 37.7743 48.1308C38.0488 48.1308 38.1934 47.7939 38.1934 47.119C38.1934 46.4616 38.0498 46.1154 37.7659 46.1154C37.5134 46.1103 37.3363 46.4339 37.3415 47.1231L37.3373 47.1283Z" fill="white"/>
<path d="M40.1551 46.2521H40.1457L39.5694 46.5212L39.4531 46.0014L40.2526 45.6357H40.8393V48.6003H40.1551V46.2521Z" fill="white"/>
<path d="M42.7441 46.2521H42.7346L42.1573 46.5212L42.041 46.0014L42.8415 45.6357H43.4272V48.6003H42.7441V46.2521Z" fill="white"/>
<path d="M46.6551 47.1099C46.6551 48.0262 46.2779 48.6507 45.5026 48.6507C44.7272 48.6507 44.3772 47.9625 44.373 47.1232C44.373 46.2655 44.745 45.5824 45.5256 45.5824C46.3408 45.5865 46.6551 46.2932 46.6551 47.1099ZM45.0834 47.1284C45.0834 47.8074 45.2459 48.131 45.5204 48.131C45.7949 48.131 45.9395 47.794 45.9395 47.1191C45.9395 46.4617 45.7959 46.1155 45.512 46.1155C45.2595 46.1104 45.0834 46.434 45.0834 47.1232V47.1284Z" fill="white"/>
<path d="M35.9687 50.879C35.9687 51.7953 35.5925 52.4198 34.8161 52.4198C34.0397 52.4198 33.6908 51.7306 33.6855 50.8913C33.6855 50.0346 34.0575 49.3505 34.8381 49.3505C35.6543 49.3597 35.9687 50.0664 35.9687 50.879ZM34.397 50.8964C34.397 51.5765 34.5605 51.9 34.835 51.9C35.1095 51.9 35.2541 51.5631 35.2541 50.8882C35.2541 50.2308 35.1095 49.8846 34.8255 49.8846C34.5783 49.8836 34.397 50.2082 34.4054 50.8964H34.397Z" fill="white"/>
<path d="M37.2235 50.0249H37.2151L36.6378 50.294L36.5215 49.7742L37.322 49.4095H37.9077V52.3741H37.2235V50.0249Z" fill="white"/>
<path d="M41.1327 50.879C41.1327 51.7953 40.7555 52.4198 39.9802 52.4198C39.2048 52.4198 38.8548 51.7306 38.8496 50.8913C38.8496 50.0346 39.2226 49.3505 40.0022 49.3505C40.8163 49.3597 41.1327 50.0664 41.1327 50.879ZM39.561 50.8964C39.561 51.5765 39.7235 51.9 39.998 51.9C40.2725 51.9 40.4171 51.5631 40.4171 50.8882C40.4171 50.2308 40.2725 49.8846 39.9896 49.8846C39.7371 49.8836 39.56 50.2082 39.5652 50.8964H39.561Z" fill="white"/>
<path d="M43.7226 50.879C43.7226 51.7953 43.3454 52.4198 42.57 52.4198C41.7947 52.4198 41.4447 51.7306 41.4395 50.8913C41.4395 50.0346 41.8114 49.3505 42.592 49.3505C43.4019 49.3597 43.7226 50.0664 43.7226 50.879ZM42.1509 50.8964C42.1509 51.5765 42.3144 51.9 42.5889 51.9C42.8634 51.9 43.008 51.5631 43.008 50.8882C43.008 50.2308 42.8634 49.8846 42.5794 49.8846C42.3227 49.8836 42.1509 50.2082 42.1509 50.8964Z" fill="white"/>
<defs>
<filter id="filter0_b_741_3848" x="15.3" y="-3.43342" width="46.5192" height="39.2581" filterUnits="userSpaceOnUse" color-interpolation-filters="sRGB">
<feFlood flood-opacity="0" result="BackgroundImageFix"/>
<feGaussianBlur in="BackgroundImageFix" stdDeviation="7.12833"/>
<feComposite in2="SourceAlpha" operator="in" result="effect1_backgroundBlur_741_3848"/>
<feBlend mode="normal" in="SourceGraphic" in2="effect1_backgroundBlur_741_3848" result="shape"/>
</filter>
<filter id="filter1_b_741_3848" x="18.8918" y="-13.3507" width="39.3922" height="39.0774" filterUnits="userSpaceOnUse" color-interpolation-filters="sRGB">
<feFlood flood-opacity="0" result="BackgroundImageFix"/>
<feGaussianBlur in="BackgroundImageFix" stdDeviation="7.12833"/>
<feComposite in2="SourceAlpha" operator="in" result="effect1_backgroundBlur_741_3848"/>
<feBlend mode="normal" in="SourceGraphic" in2="effect1_backgroundBlur_741_3848" result="shape"/>
</filter>
<filter id="filter2_b_741_3848" x="-13.9129" y="49.6774" width="46.5192" height="39.2581" filterUnits="userSpaceOnUse" color-interpolation-filters="sRGB">
<feFlood flood-opacity="0" result="BackgroundImageFix"/>
<feGaussianBlur in="BackgroundImageFix" stdDeviation="7.12833"/>
<feComposite in2="SourceAlpha" operator="in" result="effect1_backgroundBlur_741_3848"/>
<feBlend mode="normal" in="SourceGraphic" in2="effect1_backgroundBlur_741_3848" result="shape"/>
</filter>
<filter id="filter3_b_741_3848" x="-10.616" y="39.7602" width="39.3922" height="39.0774" filterUnits="userSpaceOnUse" color-interpolation-filters="sRGB">
<feFlood flood-opacity="0" result="BackgroundImageFix"/>
<feGaussianBlur in="BackgroundImageFix" stdDeviation="7.12833"/>
<feComposite in2="SourceAlpha" operator="in" result="effect1_backgroundBlur_741_3848"/>
<feBlend mode="normal" in="SourceGraphic" in2="effect1_backgroundBlur_741_3848" result="shape"/>
</filter>
<filter id="filter4_b_741_3848" x="45.3937" y="49.6774" width="46.5192" height="39.2581" filterUnits="userSpaceOnUse" color-interpolation-filters="sRGB">
<feFlood flood-opacity="0" result="BackgroundImageFix"/>
<feGaussianBlur in="BackgroundImageFix" stdDeviation="7.12833"/>
<feComposite in2="SourceAlpha" operator="in" result="effect1_backgroundBlur_741_3848"/>
<feBlend mode="normal" in="SourceGraphic" in2="effect1_backgroundBlur_741_3848" result="shape"/>
</filter>
<filter id="filter5_b_741_3848" x="48.6906" y="39.7602" width="39.3922" height="39.0774" filterUnits="userSpaceOnUse" color-interpolation-filters="sRGB">
<feFlood flood-opacity="0" result="BackgroundImageFix"/>
<feGaussianBlur in="BackgroundImageFix" stdDeviation="7.12833"/>
<feComposite in2="SourceAlpha" operator="in" result="effect1_backgroundBlur_741_3848"/>
<feBlend mode="normal" in="SourceGraphic" in2="effect1_backgroundBlur_741_3848" result="shape"/>
</filter>
<filter id="filter6_b_741_3848" x="11.2068" y="17.047" width="55.8013" height="59.3922" filterUnits="userSpaceOnUse" color-interpolation-filters="sRGB">
<feFlood flood-opacity="0" result="BackgroundImageFix"/>
<feGaussianBlur in="BackgroundImageFix" stdDeviation="5.8097"/>
<feComposite in2="SourceAlpha" operator="in" result="effect1_backgroundBlur_741_3848"/>
<feBlend mode="normal" in="SourceGraphic" in2="effect1_backgroundBlur_741_3848" result="shape"/>
</filter>
<filter id="filter7_b_741_3848" x="14.408" y="20.6003" width="49.397" height="52.2859" filterUnits="userSpaceOnUse" color-interpolation-filters="sRGB">
<feFlood flood-opacity="0" result="BackgroundImageFix"/>
<feGaussianBlur in="BackgroundImageFix" stdDeviation="5.8097"/>
<feComposite in2="SourceAlpha" operator="in" result="effect1_backgroundBlur_741_3848"/>
<feBlend mode="normal" in="SourceGraphic" in2="effect1_backgroundBlur_741_3848" result="shape"/>
</filter>
<filter id="filter8_b_741_3848" x="14.6501" y="20.8063" width="48.9126" height="51.734" filterUnits="userSpaceOnUse" color-interpolation-filters="sRGB">
<feFlood flood-opacity="0" result="BackgroundImageFix"/>
<feGaussianBlur in="BackgroundImageFix" stdDeviation="5.8097"/>
<feComposite in2="SourceAlpha" operator="in" result="effect1_backgroundBlur_741_3848"/>
<feBlend mode="normal" in="SourceGraphic" in2="effect1_backgroundBlur_741_3848" result="shape"/>
</filter>
<filter id="filter9_b_741_3848" x="17.8435" y="25.8573" width="42.4712" height="42.1033" filterUnits="userSpaceOnUse" color-interpolation-filters="sRGB">
<feFlood flood-opacity="0" result="BackgroundImageFix"/>
<feGaussianBlur in="BackgroundImageFix" stdDeviation="5.8097"/>
<feComposite in2="SourceAlpha" operator="in" result="effect1_backgroundBlur_741_3848"/>
<feBlend mode="normal" in="SourceGraphic" in2="effect1_backgroundBlur_741_3848" result="shape"/>
</filter>
<linearGradient id="paint0_linear_741_3848" x1="23.0684" y1="28.9406" x2="58.4916" y2="60.8251" gradientUnits="userSpaceOnUse">
<stop stop-color="white" stop-opacity="0.25"/>
<stop offset="1" stop-color="white" stop-opacity="0"/>
</linearGradient>
<linearGradient id="paint1_linear_741_3848" x1="26.2695" y1="46.7415" x2="51.9441" y2="46.7415" gradientUnits="userSpaceOnUse">
<stop stop-color="#E7C5FF"/>
<stop offset="1" stop-color="#0049C9"/>
</linearGradient>
<linearGradient id="paint2_linear_741_3848" x1="26.2695" y1="32.4939" x2="54.622" y2="58.014" gradientUnits="userSpaceOnUse">
<stop stop-color="white" stop-opacity="0.25"/>
<stop offset="1" stop-color="white" stop-opacity="0"/>
</linearGradient>
<linearGradient id="paint3_linear_741_3848" x1="39.323" y1="66.9916" x2="78.3574" y2="32.5158" gradientUnits="userSpaceOnUse">
<stop stop-color="white"/>
<stop offset="1" stop-color="white" stop-opacity="0.2"/>
</linearGradient>
<linearGradient id="paint4_linear_741_3848" x1="30.7422" y1="47.1065" x2="47.4549" y2="47.1065" gradientUnits="userSpaceOnUse">
<stop stop-color="#E7C5FF"/>
<stop offset="1" stop-color="#0049C9"/>
</linearGradient>
<linearGradient id="paint5_linear_741_3848" x1="29.5801" y1="37.8431" x2="48.2216" y2="56.3344" gradientUnits="userSpaceOnUse">
<stop stop-color="white" stop-opacity="0.25"/>
<stop offset="1" stop-color="white" stop-opacity="0"/>
</linearGradient>
</defs>
</svg>
