<svg width="71" height="83" viewBox="0 0 71 83" fill="none" xmlns="http://www.w3.org/2000/svg">
<g filter="url(#filter0_b_741_3718)">
<path d="M65.5925 19.0911L43.4871 8.83338C40.9464 7.65441 37.8941 8.83763 36.6697 11.4762L13.0871 62.2961C11.8627 64.9346 12.9298 68.0293 15.4705 69.2083L37.5759 79.466C40.1166 80.645 43.1689 79.4618 44.3933 76.8232L67.9759 26.0033C69.2003 23.3648 68.1332 20.27 65.5925 19.0911Z" fill="url(#paint0_linear_741_3718)"/>
</g>
<g filter="url(#filter1_b_741_3718)">
<path d="M37.8821 1.60071H7.53437C4.04635 1.60071 1.21875 4.42825 1.21875 7.9162V75.0961C1.21875 78.5841 4.04635 81.4116 7.53437 81.4116H37.8821C41.3701 81.4116 44.1977 78.5841 44.1977 75.0961V7.9162C44.1977 4.42825 41.3701 1.60071 37.8821 1.60071Z" fill="#6BA8F8" fill-opacity="0.35"/>
<path d="M37.8821 1.10543H7.53437C3.77282 1.10543 0.723468 4.1547 0.723468 7.9162V75.0961C0.723468 78.8576 3.77282 81.9069 7.53437 81.9069H37.8821C41.6436 81.9069 44.693 78.8576 44.693 75.0961V7.9162C44.693 4.1547 41.6436 1.10543 37.8821 1.10543Z" stroke="url(#paint1_linear_741_3718)" stroke-width="0.990563" stroke-linecap="round"/>
</g>
<g opacity="0.8">
<path d="M21.5586 46.4014C22.0681 46.1826 22.6169 46.0698 23.1714 46.0698C23.7259 46.0698 24.2747 46.1826 24.7842 46.4014C25.4058 46.6734 25.9527 47.0912 26.3785 47.6195C26.8042 48.1478 27.0963 48.771 27.2299 49.4362C27.2861 49.7159 27.3144 50.0005 27.3146 50.2857" stroke="white" stroke-width="0.830548" stroke-miterlimit="10" stroke-linecap="round"/>
<path d="M21.25 51.9945C21.25 51.8551 21.2649 50.0034 21.2898 49.8707C21.3409 49.6128 21.4412 49.3672 21.5852 49.1473C21.6556 49.0397 21.7361 48.9391 21.8258 48.8469C21.9147 48.7557 22.0119 48.673 22.1161 48.5997C22.2203 48.5264 22.3315 48.4636 22.448 48.4122C22.5664 48.3603 22.6898 48.3208 22.8163 48.2944C23.0778 48.2391 23.348 48.2391 23.6095 48.2944C23.736 48.3208 23.8594 48.3603 23.9778 48.4122C24.0943 48.4636 24.2055 48.5264 24.3097 48.5997C24.4142 48.6725 24.5115 48.7553 24.6 48.8469C24.6897 48.9391 24.7702 49.0397 24.8406 49.1473C24.9846 49.3672 25.0849 49.6128 25.136 49.8707C25.1628 50.0056 25.1761 50.1429 25.1758 50.2805C25.1758 50.2805 25.2488 57.6857 22.3219 62.1474" stroke="white" stroke-width="0.830548" stroke-miterlimit="10" stroke-linecap="round"/>
<path d="M26.8203 44.7904C28.2376 45.7654 29.2209 47.2526 29.5631 48.9385C29.6507 49.3756 29.6952 49.8202 29.6958 50.2659" stroke="white" stroke-width="0.830548" stroke-miterlimit="10" stroke-linecap="round"/>
<path d="M16.6523 50.2808C16.653 49.8351 16.6975 49.3905 16.7851 48.9534C16.8709 48.5272 16.9982 48.1104 17.1651 47.709C17.3284 47.3155 17.5295 46.9387 17.7657 46.5841C18.2331 45.8791 18.8313 45.2702 19.5278 44.7904C20.2448 44.2989 21.0537 43.9573 21.9059 43.7863C22.7582 43.6152 23.6363 43.6181 24.4874 43.7949" stroke="white" stroke-width="0.830548" stroke-miterlimit="10" stroke-linecap="round"/>
<path d="M18.1582 42.7233C19.6333 41.7072 21.3822 41.1631 23.1733 41.1631C24.9645 41.1631 26.7134 41.7072 28.1884 42.7233C28.6657 43.0501 29.1103 43.4224 29.5158 43.835C30.7612 45.1002 31.6111 46.7007 31.9616 48.441" stroke="white" stroke-width="0.830548" stroke-miterlimit="10" stroke-linecap="round"/>
<path d="M14.2031 50.281C14.2028 49.6642 14.264 49.0489 14.3857 48.4442C14.7354 46.7035 15.5847 45.1023 16.8297 43.8365" stroke="white" stroke-width="0.830548" stroke-miterlimit="10" stroke-linecap="round"/>
<path d="M33.0156 43.5364C33.8845 44.8452 34.4909 46.3103 34.801 47.8504C34.9613 48.6502 35.0419 49.4639 35.0416 50.2795" stroke="white" stroke-width="0.830548" stroke-miterlimit="10" stroke-linecap="round"/>
<path d="M23.1758 38.2198C25.5457 38.2177 27.8603 38.9358 29.8128 40.2789C30.4448 40.7121 31.0333 41.2055 31.57 41.7523" stroke="white" stroke-width="0.830548" stroke-miterlimit="10" stroke-linecap="round"/>
<path d="M11.3067 50.2806C11.3004 47.882 12.0054 45.5354 13.3326 43.5375C14.184 42.2571 15.2721 41.151 16.5383 40.2787C17.1726 39.8436 17.8478 39.4712 18.5543 39.167C19.2716 38.8584 20.0182 38.6227 20.7827 38.4635" stroke="white" stroke-width="0.830548" stroke-miterlimit="10" stroke-linecap="round"/>
<path d="M34.9972 52.5709C34.9524 53.2512 35.0636 56.2378 33.6582 59.188" stroke="white" stroke-width="0.830548" stroke-miterlimit="10" stroke-linecap="round"/>
<path d="M30.5098 60.1734C30.7487 59.4599 31.0523 58.1624 31.2349 57.4257M31.2349 57.4257C31.4174 56.689 31.5667 55.9324 31.6945 55.1807M31.2349 57.4257C31.4174 56.689 31.57 55.939 31.6945 55.1807M31.2349 57.4257C31.0523 58.1624 30.8416 58.8892 30.6043 59.6026M31.6945 55.1807C31.8222 54.4291 31.9118 53.6526 31.9765 52.8744M31.6945 55.1807C31.8195 54.423 31.9135 53.6542 31.9765 52.8744M31.9765 52.8744C32.0413 52.0962 32.0711 51.3081 32.0711 50.5133C32.0711 51.3075 32.0396 52.0946 31.9765 52.8744Z" stroke="white" stroke-width="0.830548" stroke-miterlimit="10" stroke-linecap="round"/>
<path d="M29.6917 50.2026C29.6917 51.0522 29.6503 51.8934 29.5723 52.723" stroke="white" stroke-width="0.830548" stroke-miterlimit="10" stroke-linecap="round"/>
<path d="M26.1738 57.6447C26.4243 56.8754 26.6336 56.0934 26.801 55.3019C26.9719 54.4984 27.1004 53.6864 27.186 52.8694C27.2747 52.0356 27.319 51.1976 27.3187 50.359" stroke="white" stroke-width="0.830548" stroke-miterlimit="10" stroke-linecap="round"/>
<path d="M20.9319 54.645C20.756 55.3335 20.6315 56.198 20.376 56.8517C20.1208 57.5013 19.8272 58.1352 19.4966 58.7499C19.1364 59.4215 18.7398 60.0729 18.3086 60.7012" stroke="white" stroke-width="0.830548" stroke-miterlimit="10" stroke-linecap="round"/>
<path d="M15.9766 59.6954C16.3525 59.1923 16.6961 58.6658 17.0053 58.1191C17.3173 57.5673 17.5944 56.9966 17.8349 56.4101C18.078 55.8155 18.2825 55.2059 18.4472 54.585C18.6149 53.9544 18.7418 53.3137 18.8272 52.6669" stroke="white" stroke-width="0.830548" stroke-miterlimit="10" stroke-linecap="round"/>
<path d="M13.752 58.2534C14.1115 57.8291 14.4414 57.3806 14.7392 56.911C15.3448 55.9585 15.814 54.9258 16.133 53.8431C16.4647 52.7188 16.6324 51.5525 16.6308 50.3802" stroke="white" stroke-width="0.830548" stroke-miterlimit="10" stroke-linecap="round"/>
<path d="M13.7578 53.1961C14.0495 52.2843 14.1967 51.3326 14.1942 50.3754" stroke="white" stroke-width="0.830548" stroke-miterlimit="10" stroke-linecap="round"/>
<path d="M10.6289 53.2792C10.7707 52.9856 10.89 52.6816 10.9857 52.3699C11.0843 52.0524 11.1591 51.7279 11.2096 51.3993C11.2604 51.062 11.2859 50.7215 11.286 50.3805" stroke="white" stroke-width="0.830548" stroke-miterlimit="10" stroke-linecap="round"/>
<path d="M13.0495 54.8026C12.73 55.3078 12.3699 55.7862 11.9727 56.2329" stroke="white" stroke-width="0.830548" stroke-miterlimit="10" stroke-linecap="round"/>
<path d="M18.9554 50.6708C18.9554 50.6708 18.8027 48.4873 20.3359 47.3955" stroke="white" stroke-width="0.830548" stroke-miterlimit="10" stroke-linecap="round"/>
<path d="M29.1587 54.8011C28.8835 57.1948 28.2527 59.5341 27.2871 61.7417" stroke="white" stroke-width="0.830548" stroke-miterlimit="10" stroke-linecap="round"/>
<path d="M25.6665 59.5259C25.6665 59.5259 24.7257 62.2869 24.4121 62.5009" stroke="white" stroke-width="0.830548" stroke-miterlimit="10" stroke-linecap="round"/>
<path d="M23.2112 50.3357C23.2112 50.3357 24.1088 53.9545 20.0586 61.6816" stroke="white" stroke-width="0.830548" stroke-miterlimit="10" stroke-linecap="round"/>
<path d="M18.8272 52.6704C18.7418 53.3173 18.6149 53.958 18.4472 54.5885C18.2825 55.2094 18.078 55.8191 17.8349 56.4137C17.5944 57.0001 17.3173 57.5709 17.0053 58.1227C16.696 58.6693 16.3525 59.1958 15.9766 59.6989" stroke="white" stroke-width="0.830548" stroke-miterlimit="10" stroke-linecap="round"/>
</g>
<path d="M29.3529 4.22466C29.3593 4.35398 29.2975 4.47994 29.1812 4.57489C29.0649 4.66984 28.9034 4.72603 28.7323 4.73112H20.1132C19.9421 4.72603 19.7807 4.66984 19.6643 4.57489C19.548 4.47994 19.4862 4.35398 19.4926 4.22466V4.16603C19.4862 4.03671 19.548 3.91073 19.6643 3.81578C19.7807 3.72082 19.9421 3.66463 20.1132 3.65955H28.7323C28.9034 3.66463 29.0649 3.72082 29.1812 3.81578C29.2975 3.91073 29.3593 4.03671 29.3529 4.16603V4.22466Z" fill="white"/>
<path d="M16.1606 4.10465C16.1711 3.96628 16.2217 3.83398 16.3063 3.72395C16.3909 3.61391 16.5057 3.53092 16.6367 3.48517C16.7677 3.43942 16.9092 3.43291 17.0439 3.46639C17.1786 3.49987 17.3005 3.57188 17.3949 3.67366C17.4892 3.77543 17.5518 3.90252 17.575 4.03934C17.5982 4.17616 17.581 4.31676 17.5255 4.44393C17.4699 4.57111 17.3785 4.67932 17.2624 4.7553C17.1462 4.83129 17.0105 4.87177 16.8717 4.87175C16.6758 4.86389 16.4911 4.77875 16.3578 4.63499C16.2245 4.49124 16.1536 4.30055 16.1606 4.10465Z" fill="white"/>
<path d="M10.0723 17.8605L10.3932 16.8663C10.9491 17.049 11.4895 17.276 12.0091 17.5451C11.9205 16.7015 11.8738 16.1211 11.8689 15.8038H12.8834C12.8598 16.3842 12.8063 16.9629 12.7229 17.5377C13.2564 17.2746 13.8081 17.0502 14.3738 16.8663L14.6966 17.8605C14.1305 18.0503 13.5464 18.1814 12.9535 18.2516C13.388 18.6612 13.7906 19.1033 14.158 19.5741L13.3169 20.1699C13.0476 19.801 12.7285 19.2993 12.3595 18.6647C12.0954 19.189 11.7914 19.6922 11.4502 20.1699L10.6238 19.5741C10.9848 19.1107 11.3728 18.6691 11.7859 18.2516C11.1845 18.136 10.6133 18.0056 10.0723 17.8605Z" fill="url(#paint2_linear_741_3718)"/>
<path d="M17.1699 17.8605L17.4909 16.8663C18.0471 17.0482 18.5875 17.2752 19.1067 17.5451C19.0182 16.7003 18.9721 16.1211 18.9684 15.8038H19.9829C19.9682 16.265 19.9146 16.8442 19.8206 17.5377C20.3539 17.2741 20.9056 17.0497 21.4715 16.8663L21.7943 17.8605C21.2282 18.0505 20.6441 18.1816 20.0511 18.2516C20.4861 18.6607 20.8888 19.1029 21.2557 19.5741L20.4164 20.168C20.0706 19.684 19.7504 19.1822 19.4572 18.6647C19.1939 19.1889 18.8898 19.6915 18.5478 20.168L17.7233 19.5741C18.0828 19.1101 18.4703 18.6684 18.8836 18.2516C18.2822 18.136 17.711 18.0056 17.1699 17.8605Z" fill="url(#paint3_linear_741_3718)"/>
<path d="M23.9297 17.8605L24.2506 16.8663C24.8068 17.0482 25.3472 17.2752 25.8665 17.5451C25.778 16.7003 25.7319 16.1211 25.7263 15.8038H26.7408C26.7172 16.3842 26.6637 16.9629 26.5804 17.5377C27.1137 17.2741 27.6654 17.0497 28.2313 16.8663L28.5541 17.8605C27.9881 18.0505 27.4039 18.1816 26.811 18.2516C27.2459 18.6607 27.6486 19.1029 28.0155 19.5741L27.1762 20.168C26.8304 19.684 26.5103 19.1822 26.217 18.6647C25.953 19.1885 25.6489 19.6911 25.3076 20.168L24.4812 19.5741C24.8412 19.1099 25.2293 18.6682 25.6433 18.2516C25.042 18.1396 24.4708 18.0093 23.9297 17.8605Z" fill="url(#paint4_linear_741_3718)"/>
<path d="M30.6914 17.8605L31.0124 16.8663C31.5686 17.0482 32.109 17.2752 32.6282 17.5451C32.5397 16.7003 32.4936 16.1211 32.488 15.8038H33.5026C33.4789 16.3842 33.4253 16.9629 33.3421 17.5377C33.8782 17.2734 34.4331 17.049 35.0022 16.8663L35.325 17.8605C34.7589 18.0503 34.1748 18.1814 33.5819 18.2516C34.0163 18.6612 34.419 19.1033 34.7864 19.5741L33.9452 20.168C33.6008 19.6835 33.2813 19.1817 32.9879 18.6647C32.7239 19.1885 32.4198 19.6911 32.0785 20.168L31.2521 19.5741C31.6121 19.1099 32.0002 18.6682 32.4142 18.2516C31.8067 18.1396 31.2325 18.0093 30.6914 17.8605Z" fill="url(#paint5_linear_741_3718)"/>
<defs>
<filter id="filter0_b_741_3718" x="-11.1934" y="-15.3967" width="103.451" height="119.093" filterUnits="userSpaceOnUse" color-interpolation-filters="sRGB">
<feFlood flood-opacity="0" result="BackgroundImageFix"/>
<feGaussianBlur in="BackgroundImageFix" stdDeviation="11.8868"/>
<feComposite in2="SourceAlpha" operator="in" result="effect1_backgroundBlur_741_3718"/>
<feBlend mode="normal" in="SourceGraphic" in2="effect1_backgroundBlur_741_3718" result="shape"/>
</filter>
<filter id="filter1_b_741_3718" x="-23.545" y="-23.1634" width="92.506" height="129.339" filterUnits="userSpaceOnUse" color-interpolation-filters="sRGB">
<feFlood flood-opacity="0" result="BackgroundImageFix"/>
<feGaussianBlur in="BackgroundImageFix" stdDeviation="11.8868"/>
<feComposite in2="SourceAlpha" operator="in" result="effect1_backgroundBlur_741_3718"/>
<feBlend mode="normal" in="SourceGraphic" in2="effect1_backgroundBlur_741_3718" result="shape"/>
</filter>
<linearGradient id="paint0_linear_741_3718" x1="24.8784" y1="36.8861" x2="56.1845" y2="51.4135" gradientUnits="userSpaceOnUse">
<stop stop-color="#E7C5FF"/>
<stop offset="1" stop-color="#0049C9"/>
</linearGradient>
<linearGradient id="paint1_linear_741_3718" x1="1.21875" y1="1.60071" x2="67.8497" y2="37.4458" gradientUnits="userSpaceOnUse">
<stop stop-color="white" stop-opacity="0.25"/>
<stop offset="1" stop-color="white" stop-opacity="0"/>
</linearGradient>
<linearGradient id="paint2_linear_741_3718" x1="12.4234" y1="21.1001" x2="18.4462" y2="14.8469" gradientUnits="userSpaceOnUse">
<stop stop-color="white"/>
<stop offset="1" stop-color="white" stop-opacity="0.2"/>
</linearGradient>
<linearGradient id="paint3_linear_741_3718" x1="19.521" y1="21.0978" x2="25.5412" y2="14.8448" gradientUnits="userSpaceOnUse">
<stop stop-color="white"/>
<stop offset="1" stop-color="white" stop-opacity="0.2"/>
</linearGradient>
<linearGradient id="paint4_linear_741_3718" x1="26.2808" y1="21.0978" x2="32.301" y2="14.8447" gradientUnits="userSpaceOnUse">
<stop stop-color="white"/>
<stop offset="1" stop-color="white" stop-opacity="0.2"/>
</linearGradient>
<linearGradient id="paint5_linear_741_3718" x1="33.0472" y1="21.0978" x2="39.0669" y2="14.8328" gradientUnits="userSpaceOnUse">
<stop stop-color="white"/>
<stop offset="1" stop-color="white" stop-opacity="0.2"/>
</linearGradient>
</defs>
</svg>
