<svg width="69" height="81" viewBox="0 0 69 81" fill="none" xmlns="http://www.w3.org/2000/svg">
<path d="M39.3783 50.7561C23.5254 50.7561 10.6772 64.2626 10.5996 81H68.1595C68.0923 64.2531 55.2337 50.7561 39.3783 50.7561Z" fill="url(#paint0_linear_741_3699)"/>
<path d="M12.9146 79.0457L12.9115 79.6615H13.5273H65.2337H65.8491L65.8464 79.0461C65.7845 64.6543 53.951 53.0702 39.3793 53.0702C24.8095 53.0702 12.986 64.6627 12.9146 79.0457Z" fill="#6BA8F8" fill-opacity="0.35" stroke="url(#paint1_linear_741_3699)" stroke-width="1.2255"/>
<path d="M57.0154 32.761C53.9775 22.5765 48.7383 13.6638 38.4731 13.6638C28.2079 13.6638 22.423 23.3782 19.8398 32.761C17.2254 42.2534 28.2833 53.7619 38.5511 53.7619C48.8189 53.7619 59.8325 42.196 57.0154 32.761Z" fill="url(#paint2_linear_741_3699)"/>
<path d="M55.5105 32.6616C54.152 28.1144 52.285 23.7891 49.5661 20.5918C46.8298 17.3739 43.2268 15.2978 38.4636 15.2978C33.6876 15.2978 29.9662 17.5632 27.169 20.8587C24.3822 24.1419 22.493 28.4652 21.3324 32.6741C20.0944 37.1622 22.1072 42.0265 25.4881 45.713C28.8748 49.4057 33.7609 52.0634 38.5328 52.0634C43.306 52.0634 48.1831 49.3919 51.5378 45.6913C54.8867 41.9972 56.8459 37.1276 55.5105 32.6616Z" fill="#6BA8F8" fill-opacity="0.35" stroke="url(#paint3_linear_741_3699)" stroke-width="1.2255"/>
<g style="mix-blend-mode:darken">
<path d="M65.8012 1H49.4508C48.7981 1.00148 48.1725 1.26247 47.7108 1.72596C47.249 2.18945 46.9885 2.81775 46.9863 3.47359V9.82443C46.9889 10.4802 47.2495 11.1082 47.7112 11.5717C48.1729 12.0351 48.7982 12.2962 49.4508 12.298H51.3815L51.0858 17.2819L54.9626 12.298H65.8012C66.454 12.2966 67.0797 12.0356 67.5417 11.5722C68.0037 11.1087 68.2645 10.4804 68.267 9.82443V3.47359C68.2648 2.81751 68.0042 2.18901 67.5421 1.72548C67.08 1.26195 66.4541 1.00111 65.8012 1Z" fill="#6BA8F8" fill-opacity="0.35" stroke="#6BA8F8" stroke-opacity="0.5" stroke-width="0.985489" stroke-miterlimit="10"/>
<path d="M52.1951 7.83076C51.8951 7.83038 51.6075 7.71037 51.3955 7.49708C51.1835 7.28379 51.0645 6.99465 51.0645 6.6932C51.0648 6.39199 51.184 6.10323 51.396 5.89025C51.608 5.67726 51.8954 5.55744 52.1951 5.55707C52.4951 5.55707 52.7828 5.67672 52.9951 5.88975C53.2073 6.10278 53.3268 6.39175 53.3272 6.6932C53.3272 6.9949 53.2079 7.28425 52.9956 7.49758C52.7833 7.71091 52.4954 7.83076 52.1951 7.83076Z" fill="white" fill-opacity="0.8"/>
<path d="M57.5193 7.83082C57.3707 7.83082 57.2236 7.80137 57.0863 7.74419C56.9491 7.687 56.8243 7.6032 56.7193 7.49755C56.6143 7.3919 56.5311 7.26648 56.4743 7.12847C56.4176 6.99047 56.3885 6.84258 56.3887 6.69326C56.3887 6.39194 56.5078 6.10296 56.7198 5.8899C56.9319 5.67683 57.2195 5.55713 57.5193 5.55713C57.8192 5.55713 58.1068 5.67683 58.3188 5.8899C58.5309 6.10296 58.65 6.39194 58.65 6.69326C58.6502 6.84258 58.6211 6.99047 58.5643 7.12847C58.5076 7.26648 58.4243 7.3919 58.3193 7.49755C58.2143 7.6032 58.0896 7.687 57.9523 7.74419C57.8151 7.80137 57.6679 7.83082 57.5193 7.83082Z" fill="white" fill-opacity="0.8"/>
<path d="M62.8397 7.83076C62.6911 7.83076 62.5439 7.80131 62.4066 7.74412C62.2694 7.68694 62.1447 7.60314 62.0397 7.49749C61.9346 7.39184 61.8514 7.26642 61.7946 7.12841C61.7379 6.99041 61.7088 6.84252 61.709 6.6932C61.709 6.544 61.7382 6.39626 61.795 6.25842C61.8519 6.12057 61.9351 5.99534 62.0401 5.88984C62.1451 5.78433 62.2698 5.70064 62.4069 5.64355C62.5441 5.58645 62.6912 5.55707 62.8397 5.55707C63.1395 5.55707 63.4271 5.67677 63.6391 5.88984C63.8512 6.1029 63.9703 6.39188 63.9703 6.6932C63.9705 6.84252 63.9414 6.99041 63.8846 7.12841C63.8279 7.26642 63.7446 7.39184 63.6396 7.49749C63.5346 7.60314 63.4099 7.68694 63.2727 7.74412C63.1354 7.80131 62.9882 7.83076 62.8397 7.83076Z" fill="white" fill-opacity="0.8"/>
</g>
<path d="M3.30821 8.80487H19.6586C20.3112 8.80635 20.9368 9.06734 21.3986 9.53083C21.8604 9.99432 22.1208 10.6226 22.123 11.2785V17.6293C22.1205 18.285 21.8599 18.9131 21.3982 19.3765C20.9365 19.8399 20.3111 20.1011 19.6586 20.1029H17.7279L18.0235 25.0867L14.1468 20.1029H3.30821C2.6554 20.1014 2.02969 19.8405 1.56769 19.377C1.10569 18.9136 0.844915 18.2853 0.842327 17.6293V11.2785C0.844547 10.6224 1.1052 9.99388 1.56728 9.53035C2.02936 9.06682 2.65528 8.80598 3.30821 8.80487Z" fill="#6BA8F8" fill-opacity="0.35" stroke="#6BA8F8" stroke-opacity="0.5" stroke-width="0.985489" stroke-miterlimit="10"/>
<path d="M16.7131 16.0009C17.0131 16.0006 17.3007 15.8805 17.5127 15.6672C17.7247 15.454 17.8438 15.1648 17.8437 14.8634C17.8434 14.5622 17.7242 14.2734 17.5122 14.0604C17.3002 13.8474 17.0128 13.7276 16.7131 13.7272C16.4131 13.7272 16.1254 13.8469 15.9131 14.0599C15.7009 14.2729 15.5814 14.5619 15.5811 14.8634C15.5811 15.1651 15.7003 15.4544 15.9126 15.6677C16.1249 15.8811 16.4128 16.0009 16.7131 16.0009Z" fill="white" fill-opacity="0.8"/>
<path d="M11.3889 16.0009C11.5375 16.0009 11.6846 15.9715 11.8219 15.9143C11.9591 15.8571 12.0839 15.7733 12.1889 15.6677C12.2939 15.562 12.3771 15.4366 12.4339 15.2986C12.4906 15.1606 12.5197 15.0127 12.5195 14.8634C12.5195 14.562 12.4004 14.2731 12.1884 14.06C11.9763 13.8469 11.6887 13.7272 11.3889 13.7272C11.089 13.7272 10.8014 13.8469 10.5894 14.06C10.3773 14.2731 10.2582 14.562 10.2582 14.8634C10.2581 15.0127 10.2871 15.1606 10.3439 15.2986C10.4006 15.4366 10.4839 15.562 10.5889 15.6677C10.6939 15.7733 10.8186 15.8571 10.9559 15.9143C11.0931 15.9715 11.2403 16.0009 11.3889 16.0009Z" fill="white" fill-opacity="0.8"/>
<path d="M6.06855 16.0009C6.21715 16.0009 6.36429 15.9715 6.50156 15.9143C6.63883 15.8571 6.76354 15.7733 6.86855 15.6677C6.97356 15.562 7.05683 15.4366 7.11357 15.2986C7.17031 15.1606 7.1994 15.0127 7.19922 14.8634C7.19922 14.7142 7.16998 14.5664 7.11316 14.4286C7.05634 14.2907 6.97306 14.1655 6.86807 14.06C6.76308 13.9545 6.63843 13.8708 6.50125 13.8137C6.36408 13.7566 6.21703 13.7272 6.06855 13.7272C5.76868 13.7272 5.4811 13.8469 5.26907 14.06C5.05703 14.2731 4.93792 14.562 4.93792 14.8634C4.93774 15.0127 4.96683 15.1606 5.02357 15.2986C5.08031 15.4366 5.16358 15.562 5.26859 15.6677C5.3736 15.7733 5.49828 15.8571 5.63554 15.9143C5.77281 15.9715 5.91995 16.0009 6.06855 16.0009Z" fill="white" fill-opacity="0.8"/>
<defs>
<linearGradient id="paint0_linear_741_3699" x1="10.5996" y1="65.8781" x2="68.1595" y2="65.8781" gradientUnits="userSpaceOnUse">
<stop stop-color="#F0DFFC"/>
<stop offset="1" stop-color="#75A5F9"/>
</linearGradient>
<linearGradient id="paint1_linear_741_3699" x1="13.5273" y1="53.6829" x2="33.61" y2="94.5783" gradientUnits="userSpaceOnUse">
<stop stop-color="white" stop-opacity="0.25"/>
<stop offset="1" stop-color="white" stop-opacity="0"/>
</linearGradient>
<linearGradient id="paint2_linear_741_3699" x1="19.4512" y1="33.7128" x2="57.4626" y2="33.7128" gradientUnits="userSpaceOnUse">
<stop stop-color="#F0DFFC"/>
<stop offset="1" stop-color="#75A5F9"/>
</linearGradient>
<linearGradient id="paint3_linear_741_3699" x1="21.5781" y1="15.9106" x2="57.0865" y2="49.5885" gradientUnits="userSpaceOnUse">
<stop stop-color="white" stop-opacity="0.25"/>
<stop offset="1" stop-color="white" stop-opacity="0"/>
</linearGradient>
</defs>
</svg>
