<svg width="30" height="24" viewBox="0 0 30 24" fill="none" xmlns="http://www.w3.org/2000/svg">
<path d="M22.3333 8.16902L24.8333 3.83654C25 3.58659 24.9167 3.25333 24.6667 3.08669C24.4167 2.92006 24.0833 3.00338 23.9167 3.25333L21.4167 7.66912C19.5 6.75263 17.3333 6.25273 15 6.25273C12.6667 6.25273 10.5 6.75263 8.58333 7.66912L6.08333 3.25333C5.91667 3.00338 5.58333 2.92006 5.33333 3.08669C5.08333 3.25333 5 3.58659 5.16667 3.83654L7.66667 8.16902C3.41667 10.5019 0.416667 14.8344 0 20H30C29.5833 14.8344 26.6667 10.5019 22.3333 8.16902ZM7.66667 15.4176C6.83333 15.4176 6.16667 14.751 6.16667 13.9179C6.16667 13.0847 6.83333 12.4182 7.66667 12.4182C8.5 12.4182 9.16667 13.0847 9.16667 13.9179C9.16667 14.751 8.5 15.4176 7.66667 15.4176ZM20.75 15.4176C19.9167 15.4176 19.25 14.751 19.25 13.9179C19.25 13.0847 19.9167 12.4182 20.75 12.4182C21.5833 12.4182 22.25 13.0847 22.25 13.9179C22.25 14.751 21.5833 15.4176 20.75 15.4176Z" fill="#04022A"/>
</svg>
