<svg width="30" height="24" viewBox="0 0 30 24" fill="none" xmlns="http://www.w3.org/2000/svg">
<path d="M19.7012 1C17.2032 1.90837 15.2351 2.74104 15.5378 6.60159C18.0359 5.99602 20.2311 4.48207 19.7012 1ZM11.9801 6.14741C9.55777 6.14741 6 8.34263 6 12.3546C6 18.0319 9.78486 23.7092 11.9801 23.7092C13.5697 23.7092 14.9323 22.6494 16.0677 22.6494C17.1275 22.6494 18.2629 23.7092 19.8526 23.7092C22.0478 23.7092 24.4701 20.4542 25 17.502C23.1076 16.1394 21.745 15.3068 21.745 12.8845C21.745 11.2948 23.1076 9.62948 24.6972 8.26693C23.8645 7.20717 22.2749 6.07171 20.6096 6.07171C18.9442 6.07171 17.2789 7.35857 15.992 7.43426C14.9323 7.50996 13.5697 6.14741 11.9801 6.14741Z" fill="#04022A"/>
</svg>
