<svg width="369" height="179" viewBox="0 0 369 179" fill="none" xmlns="http://www.w3.org/2000/svg">
<g clip-path="url(#clip0_572_2325)">
<path d="M364.193 85.3496H227.531V87.6852H364.193V85.3496Z" fill="url(#paint0_linear_572_2325)"/>
<path d="M368.994 86.5184C368.994 87.0377 368.84 87.5452 368.551 87.9769C368.262 88.4085 367.852 88.7448 367.372 88.9433C366.892 89.1418 366.364 89.1936 365.855 89.0921C365.346 88.9906 364.878 88.7403 364.511 88.373C364.144 88.0057 363.894 87.5377 363.793 87.0284C363.691 86.519 363.743 85.9911 363.942 85.5113C364.141 85.0316 364.478 84.6216 364.909 84.3331C365.341 84.0446 365.849 83.8906 366.368 83.8906C367.065 83.8915 367.732 84.1687 368.225 84.6614C368.717 85.154 368.994 85.8219 368.994 86.5184ZM367.594 86.5184C367.595 86.2758 367.523 86.0386 367.389 85.8368C367.254 85.6349 367.063 85.4775 366.839 85.3844C366.615 85.2914 366.368 85.2669 366.13 85.314C365.892 85.3611 365.674 85.4777 365.502 85.6491C365.33 85.8205 365.213 86.039 365.166 86.2769C365.118 86.5148 365.143 86.7614 365.235 86.9855C365.328 87.2096 365.485 87.4012 365.687 87.536C365.889 87.6708 366.126 87.7427 366.368 87.7427C366.693 87.7423 367.004 87.6132 367.234 87.3837C367.464 87.1543 367.593 86.8431 367.594 86.5184Z" fill="url(#paint1_linear_572_2325)"/>
<path d="M350.52 91.7383H229.137V94.0739H350.52V91.7383Z" fill="url(#paint2_linear_572_2325)"/>
<path d="M355.322 92.9054C355.322 93.4251 355.168 93.9332 354.879 94.3652C354.59 94.7973 354.18 95.1338 353.699 95.3323C353.219 95.5308 352.691 95.5824 352.181 95.4804C351.671 95.3783 351.203 95.1274 350.836 94.7593C350.47 94.3912 350.22 93.9225 350.12 93.4125C350.019 92.9025 350.073 92.3743 350.273 91.8946C350.473 91.4149 350.811 91.0053 351.244 90.7178C351.677 90.4302 352.185 90.2776 352.705 90.2793C353.4 90.2824 354.065 90.5604 354.555 91.0524C355.046 91.5445 355.322 92.2106 355.322 92.9054ZM353.922 92.9054C353.923 92.6628 353.851 92.4256 353.717 92.2238C353.582 92.0219 353.391 91.8645 353.167 91.7714C352.943 91.6784 352.696 91.6539 352.458 91.701C352.22 91.7481 352.002 91.8647 351.83 92.0361C351.658 92.2075 351.541 92.426 351.494 92.6639C351.447 92.9018 351.471 93.1484 351.563 93.3725C351.656 93.5966 351.813 93.7882 352.015 93.923C352.217 94.0578 352.454 94.1298 352.696 94.1298C353.021 94.1293 353.332 94.0002 353.562 93.7707C353.792 93.5413 353.922 93.2301 353.922 92.9054Z" fill="url(#paint3_linear_572_2325)"/>
<path d="M304.812 114.664L288.23 98.082L286.579 99.7335L303.161 116.316L304.812 114.664Z" fill="url(#paint4_linear_572_2325)"/>
<path d="M308.091 116.966C308.092 117.486 307.938 117.994 307.649 118.426C307.361 118.859 306.951 119.196 306.47 119.395C305.99 119.594 305.462 119.646 304.952 119.545C304.442 119.444 303.974 119.194 303.606 118.826C303.239 118.459 302.988 117.991 302.887 117.481C302.785 116.971 302.837 116.443 303.036 115.962C303.235 115.482 303.571 115.072 304.004 114.783C304.436 114.494 304.944 114.34 305.464 114.34C306.16 114.341 306.828 114.618 307.32 115.11C307.813 115.602 308.09 116.27 308.091 116.966ZM306.69 116.966C306.69 116.723 306.618 116.486 306.484 116.284C306.349 116.082 306.158 115.925 305.934 115.832C305.71 115.739 305.463 115.714 305.226 115.762C304.988 115.809 304.769 115.925 304.597 116.097C304.426 116.268 304.309 116.487 304.261 116.724C304.214 116.962 304.238 117.209 304.331 117.433C304.424 117.657 304.581 117.849 304.782 117.984C304.984 118.118 305.221 118.19 305.464 118.19C305.789 118.19 306.1 118.061 306.33 117.832C306.56 117.602 306.689 117.291 306.69 116.966Z" fill="url(#paint5_linear_572_2325)"/>
<path d="M288.174 98.1758H228.68V100.511H288.174V98.1758Z" fill="url(#paint6_linear_572_2325)"/>
<path d="M323.907 138.795H302.273V141.131H323.907V138.795Z" fill="url(#paint7_linear_572_2325)"/>
<path d="M328.709 139.962C328.709 140.481 328.555 140.989 328.267 141.421C327.978 141.853 327.568 142.189 327.088 142.388C326.608 142.587 326.08 142.639 325.571 142.538C325.061 142.436 324.593 142.186 324.226 141.819C323.859 141.452 323.609 140.984 323.507 140.474C323.406 139.965 323.458 139.437 323.657 138.957C323.856 138.477 324.192 138.067 324.624 137.779C325.056 137.49 325.564 137.336 326.083 137.336C326.779 137.337 327.447 137.614 327.939 138.106C328.431 138.598 328.708 139.266 328.709 139.962ZM327.307 139.962C327.307 139.72 327.235 139.483 327.1 139.282C326.966 139.081 326.774 138.924 326.55 138.832C326.327 138.74 326.081 138.716 325.843 138.763C325.606 138.81 325.388 138.927 325.217 139.099C325.046 139.27 324.929 139.488 324.882 139.725C324.835 139.963 324.859 140.209 324.952 140.433C325.045 140.656 325.202 140.847 325.403 140.982C325.604 141.116 325.841 141.188 326.083 141.188C326.408 141.188 326.719 141.058 326.949 140.828C327.179 140.598 327.307 140.287 327.307 139.962Z" fill="url(#paint8_linear_572_2325)"/>
<path d="M303.913 139.478L283.316 118.881L281.665 120.532L302.262 141.129L303.913 139.478Z" fill="url(#paint9_linear_572_2325)"/>
<path d="M283.334 118.883H225.461V121.218H283.334V118.883Z" fill="url(#paint10_linear_572_2325)"/>
<path d="M335.425 131.613H303.676V133.949H335.425V131.613Z" fill="url(#paint11_linear_572_2325)"/>
<path d="M340.225 132.78C340.225 133.3 340.071 133.807 339.782 134.239C339.494 134.671 339.084 135.008 338.604 135.207C338.124 135.405 337.596 135.457 337.086 135.356C336.577 135.255 336.109 135.005 335.742 134.637C335.375 134.27 335.124 133.802 335.023 133.293C334.922 132.783 334.974 132.255 335.173 131.775C335.371 131.296 335.708 130.885 336.14 130.597C336.572 130.308 337.079 130.154 337.599 130.154C338.295 130.155 338.962 130.432 339.455 130.924C339.947 131.417 340.224 132.084 340.225 132.78ZM338.825 132.78C338.825 132.538 338.753 132.301 338.619 132.099C338.484 131.897 338.293 131.739 338.069 131.646C337.845 131.553 337.598 131.529 337.361 131.576C337.123 131.623 336.904 131.74 336.732 131.911C336.561 132.083 336.444 132.301 336.396 132.539C336.349 132.777 336.373 133.023 336.466 133.247C336.559 133.472 336.716 133.663 336.917 133.798C337.119 133.933 337.356 134.005 337.599 134.005C337.923 134.004 338.235 133.875 338.465 133.646C338.694 133.416 338.824 133.105 338.825 132.78Z" fill="url(#paint12_linear_572_2325)"/>
<path d="M305.319 132.298L284.723 111.701L283.071 113.353L303.668 133.949L305.319 132.298Z" fill="url(#paint13_linear_572_2325)"/>
<path d="M284.725 111.699H226.852V114.035H284.725V111.699Z" fill="url(#paint14_linear_572_2325)"/>
<path d="M327.216 124.465H305.078V126.8H327.216V124.465Z" fill="url(#paint15_linear_572_2325)"/>
<path d="M332.014 125.632C332.014 126.151 331.859 126.659 331.57 127.09C331.282 127.522 330.871 127.858 330.392 128.057C329.912 128.255 329.384 128.307 328.874 128.205C328.365 128.104 327.897 127.854 327.53 127.486C327.163 127.119 326.913 126.651 326.812 126.142C326.711 125.632 326.763 125.104 326.962 124.625C327.161 124.145 327.497 123.735 327.929 123.446C328.361 123.158 328.868 123.004 329.388 123.004C330.084 123.005 330.752 123.282 331.244 123.775C331.737 124.267 332.013 124.935 332.014 125.632ZM330.614 125.632C330.614 125.389 330.543 125.152 330.408 124.95C330.274 124.748 330.082 124.591 329.858 124.498C329.634 124.405 329.388 124.38 329.15 124.427C328.912 124.474 328.693 124.591 328.521 124.762C328.35 124.934 328.233 125.152 328.185 125.39C328.138 125.628 328.162 125.875 328.255 126.099C328.348 126.323 328.505 126.514 328.706 126.649C328.908 126.784 329.145 126.856 329.388 126.856C329.713 126.856 330.024 126.726 330.254 126.497C330.483 126.268 330.613 125.956 330.614 125.632Z" fill="url(#paint16_linear_572_2325)"/>
<path d="M306.722 125.149L286.125 104.553L284.473 106.204L305.07 126.801L306.722 125.149Z" fill="url(#paint17_linear_572_2325)"/>
<path d="M286.123 104.551H228.25V106.886H286.123V104.551Z" fill="url(#paint18_linear_572_2325)"/>
<path d="M350.52 78.9629H229.137V81.2985H350.52V78.9629Z" fill="url(#paint19_linear_572_2325)"/>
<path d="M352.704 82.756C352.185 82.756 351.677 82.602 351.245 82.3135C350.813 82.0249 350.477 81.6148 350.278 81.1349C350.079 80.6551 350.027 80.1271 350.129 79.6177C350.23 79.1083 350.48 78.6403 350.847 78.2731C351.215 77.9058 351.682 77.6557 352.192 77.5544C352.701 77.453 353.229 77.505 353.709 77.7038C354.189 77.9026 354.599 78.2392 354.888 78.671C355.176 79.1029 355.33 79.6106 355.33 80.13C355.329 80.8262 355.052 81.4936 354.56 81.9859C354.068 82.4782 353.4 82.7551 352.704 82.756ZM352.704 78.9056C352.462 78.9056 352.225 78.9776 352.023 79.1124C351.821 79.2471 351.664 79.4387 351.571 79.6629C351.479 79.887 351.454 80.1336 351.502 80.3715C351.549 80.6094 351.666 80.8278 351.838 80.9992C352.009 81.1706 352.228 81.2873 352.466 81.3344C352.704 81.3815 352.951 81.357 353.175 81.2639C353.399 81.1708 353.59 81.0134 353.724 80.8116C353.859 80.6097 353.931 80.3725 353.93 80.13C353.93 79.8051 353.8 79.4937 353.571 79.2641C353.341 79.0345 353.029 78.9056 352.704 78.9056Z" fill="url(#paint20_linear_572_2325)"/>
<path d="M303.164 56.7207L286.582 73.3027L288.234 74.9542L304.816 58.3723L303.164 56.7207Z" fill="url(#paint21_linear_572_2325)"/>
<path d="M305.464 58.6955C304.945 58.6952 304.438 58.541 304.006 58.2524C303.575 57.9639 303.238 57.554 303.04 57.0744C302.841 56.5948 302.789 56.0671 302.89 55.5579C302.991 55.0488 303.241 54.581 303.608 54.2137C303.975 53.8464 304.442 53.5961 304.951 53.4943C305.46 53.3926 305.988 53.4439 306.468 53.642C306.948 53.84 307.358 54.1758 307.647 54.607C307.936 55.0381 308.091 55.5453 308.092 56.0644C308.092 56.4097 308.024 56.7516 307.892 57.0707C307.761 57.3898 307.567 57.6798 307.323 57.9241C307.079 58.1685 306.789 58.3623 306.47 58.4947C306.151 58.627 305.81 58.6953 305.464 58.6955ZM305.464 54.8451C305.222 54.8451 304.985 54.917 304.783 55.0518C304.581 55.1866 304.424 55.3782 304.331 55.6023C304.239 55.8264 304.214 56.073 304.262 56.3109C304.309 56.5488 304.426 56.7673 304.598 56.9387C304.769 57.1101 304.988 57.2267 305.226 57.2738C305.464 57.3209 305.711 57.2964 305.935 57.2034C306.159 57.1103 306.35 56.9529 306.484 56.751C306.619 56.5492 306.691 56.312 306.69 56.0694C306.69 55.7445 306.56 55.4331 306.331 55.2036C306.101 54.974 305.789 54.8451 305.464 54.8451Z" fill="url(#paint22_linear_572_2325)"/>
<path d="M288.174 72.5254H228.68V74.861H288.174V72.5254Z" fill="url(#paint23_linear_572_2325)"/>
<path d="M323.907 31.9062H302.273V34.2418H323.907V31.9062Z" fill="url(#paint24_linear_572_2325)"/>
<path d="M326.083 35.6994C325.564 35.6994 325.056 35.5454 324.624 35.2568C324.192 34.9683 323.856 34.5581 323.657 34.0783C323.458 33.5984 323.406 33.0704 323.507 32.561C323.609 32.0516 323.859 31.5837 324.226 31.2164C324.593 30.8492 325.061 30.5991 325.571 30.4977C326.08 30.3964 326.608 30.4484 327.088 30.6472C327.568 30.8459 327.978 31.1825 328.267 31.6144C328.555 32.0462 328.709 32.5539 328.709 33.0733C328.708 33.7695 328.431 34.437 327.939 34.9293C327.447 35.4215 326.779 35.6985 326.083 35.6994ZM326.083 31.849C325.841 31.849 325.604 31.9208 325.403 32.0553C325.202 32.1898 325.045 32.3811 324.952 32.6048C324.859 32.8285 324.835 33.0747 324.882 33.3122C324.929 33.5497 325.046 33.7679 325.217 33.9391C325.389 34.1103 325.607 34.2269 325.844 34.2742C326.082 34.3214 326.328 34.2972 326.552 34.2045C326.775 34.1118 326.967 33.9549 327.101 33.7536C327.236 33.5522 327.307 33.3155 327.307 33.0733C327.307 32.7487 327.178 32.4376 326.948 32.2081C326.719 31.9785 326.408 31.8494 326.083 31.849Z" fill="url(#paint25_linear_572_2325)"/>
<path d="M302.265 31.9052L281.668 52.502L283.319 54.1535L303.916 33.5567L302.265 31.9052Z" fill="url(#paint26_linear_572_2325)"/>
<path d="M283.334 51.8184H225.461V54.154H283.334V51.8184Z" fill="url(#paint27_linear_572_2325)"/>
<path d="M335.425 39.0859H303.676V41.4215H335.425V39.0859Z" fill="url(#paint28_linear_572_2325)"/>
<path d="M337.599 42.881C337.079 42.881 336.572 42.727 336.14 42.4385C335.708 42.1499 335.371 41.7398 335.173 41.2599C334.974 40.7801 334.922 40.2521 335.023 39.7427C335.124 39.2333 335.375 38.7653 335.742 38.3981C336.109 38.0308 336.577 37.7807 337.086 37.6794C337.596 37.578 338.124 37.63 338.604 37.8288C339.084 38.0276 339.494 38.3642 339.782 38.796C340.071 39.2279 340.225 39.7356 340.225 40.255C340.224 40.9512 339.947 41.6186 339.455 42.1109C338.962 42.6032 338.295 42.8801 337.599 42.881ZM337.599 39.0306C337.356 39.0306 337.119 39.1026 336.917 39.2374C336.716 39.3721 336.559 39.5637 336.466 39.7879C336.373 40.012 336.349 40.2586 336.396 40.4965C336.444 40.7344 336.561 40.9528 336.732 41.1242C336.904 41.2956 337.123 41.4123 337.361 41.4594C337.598 41.5065 337.845 41.482 338.069 41.3889C338.293 41.2958 338.484 41.1384 338.619 40.9366C338.753 40.7347 338.825 40.4975 338.825 40.255C338.824 39.9301 338.695 39.6187 338.465 39.3891C338.235 39.1595 337.924 39.0306 337.599 39.0306Z" fill="url(#paint29_linear_572_2325)"/>
<path d="M303.667 39.0868L283.07 59.6836L284.722 61.3351L305.319 40.7384L303.667 39.0868Z" fill="url(#paint30_linear_572_2325)"/>
<path d="M284.725 59H226.852V61.3356H284.725V59Z" fill="url(#paint31_linear_572_2325)"/>
<path d="M327.216 46.2344H305.078V48.57H327.216V46.2344Z" fill="url(#paint32_linear_572_2325)"/>
<path d="M329.395 50.0309C328.875 50.0312 328.367 49.8774 327.935 49.5889C327.502 49.3003 327.165 48.89 326.966 48.4099C326.767 47.9298 326.715 47.4014 326.816 46.8915C326.917 46.3817 327.167 45.9133 327.535 45.5456C327.902 45.178 328.37 44.9275 328.88 44.826C329.39 44.7245 329.918 44.7764 330.399 44.9753C330.879 45.1741 331.289 45.5109 331.578 45.9431C331.867 46.3752 332.021 46.8834 332.021 47.4031C332.02 48.0995 331.743 48.7671 331.251 49.2597C330.759 49.7522 330.091 50.0296 329.395 50.0309ZM329.395 46.1788C329.153 46.1788 328.915 46.2507 328.714 46.3855C328.512 46.5203 328.355 46.7119 328.262 46.936C328.169 47.1602 328.145 47.4068 328.193 47.6446C328.24 47.8825 328.357 48.101 328.529 48.2724C328.7 48.4438 328.919 48.5604 329.157 48.6075C329.395 48.6547 329.641 48.6301 329.865 48.5371C330.089 48.444 330.281 48.2866 330.415 48.0848C330.55 47.8829 330.621 47.6457 330.621 47.4031C330.621 47.0783 330.491 46.7668 330.261 46.5373C330.032 46.3077 329.72 46.1788 329.395 46.1788Z" fill="url(#paint33_linear_572_2325)"/>
<path d="M305.069 46.2353L284.473 66.832L286.124 68.4835L306.721 47.8868L305.069 46.2353Z" fill="url(#paint34_linear_572_2325)"/>
<path d="M286.123 66.1484H228.25V68.484H286.123V66.1484Z" fill="url(#paint35_linear_572_2325)"/>
<path d="M4.8031 87.6855L141.465 87.6855V85.35L4.8031 85.35V87.6855Z" fill="url(#paint36_linear_572_2325)"/>
<path d="M0 86.517C0.000333964 85.9976 0.154631 85.4901 0.443389 85.0584C0.732148 84.6268 1.1424 84.2905 1.62228 84.092C2.10216 83.8935 2.63012 83.8417 3.13942 83.9432C3.64871 84.0448 4.11648 84.295 4.48357 84.6623C4.85066 85.0297 5.1006 85.4976 5.20179 86.0069C5.30298 86.5163 5.25087 87.0442 5.05206 87.524C4.85325 88.0037 4.51667 88.4138 4.08485 88.7023C3.65303 88.9907 3.14538 89.1447 2.62606 89.1447C1.92957 89.1438 1.26188 88.8666 0.769545 88.374C0.277208 87.8813 0.000446756 87.2134 0 86.517ZM1.4 86.517C1.39967 86.7595 1.47129 86.9967 1.60581 87.1986C1.74033 87.4004 1.93169 87.5578 2.1557 87.6509C2.3797 87.7439 2.62627 87.7685 2.86422 87.7213C3.10216 87.6742 3.32078 87.5576 3.49242 87.3862C3.66406 87.2148 3.78099 86.9963 3.82844 86.7585C3.87588 86.5206 3.8517 86.274 3.75895 86.0498C3.66621 85.8257 3.50906 85.6341 3.3074 85.4993C3.10574 85.3645 2.86863 85.2926 2.62606 85.2926C2.30132 85.293 1.98998 85.4221 1.7602 85.6516C1.53041 85.8811 1.40089 86.1922 1.4 86.517Z" fill="url(#paint37_linear_572_2325)"/>
<path d="M18.48 81.2988L139.863 81.2988V78.9632L18.48 78.9632V81.2988Z" fill="url(#paint38_linear_572_2325)"/>
<path d="M13.6758 80.13C13.6758 79.6106 13.8298 79.1029 14.1184 78.671C14.4069 78.2392 14.817 77.9026 15.2969 77.7038C15.7767 77.505 16.3048 77.453 16.8142 77.5544C17.3236 77.6557 17.7915 77.9058 18.1588 78.2731C18.526 78.6403 18.7761 79.1083 18.8774 79.6177C18.9788 80.1271 18.9268 80.6551 18.728 81.1349C18.5293 81.6148 18.1927 82.0249 17.7608 82.3135C17.329 82.602 16.8212 82.756 16.3018 82.756C15.6056 82.7551 14.9382 82.4782 14.4459 81.9859C13.9536 81.4936 13.6767 80.8262 13.6758 80.13ZM15.0758 80.13C15.0755 80.3725 15.1471 80.6097 15.2816 80.8116C15.4161 81.0134 15.6075 81.1708 15.8315 81.2639C16.0555 81.357 16.3021 81.3815 16.54 81.3344C16.7779 81.2873 16.9966 81.1706 17.1682 80.9992C17.3398 80.8278 17.4568 80.6094 17.5042 80.3715C17.5517 80.1336 17.5275 79.887 17.4347 79.6629C17.342 79.4387 17.1848 79.2471 16.9832 79.1124C16.7815 78.9776 16.5444 78.9056 16.3018 78.9056C15.9771 78.906 15.6658 79.0351 15.436 79.2646C15.2062 79.4941 15.0767 79.8052 15.0758 80.13Z" fill="url(#paint39_linear_572_2325)"/>
<path d="M64.1836 58.3711L80.7656 74.9531L82.4171 73.3016L65.8351 56.7196L64.1836 58.3711Z" fill="url(#paint40_linear_572_2325)"/>
<path d="M60.9063 56.063C60.9059 55.5432 61.0598 55.035 61.3483 54.6027C61.6368 54.1703 62.0471 53.8333 62.5272 53.6341C63.0074 53.435 63.5358 53.3827 64.0456 53.4839C64.5555 53.5851 65.0238 53.8352 65.3915 54.2026C65.7592 54.5701 66.0096 55.0383 66.1111 55.5481C66.2127 56.0579 66.1607 56.5863 65.9619 57.0666C65.7631 57.5468 65.4263 57.9573 64.9941 58.2461C64.5619 58.5349 64.0538 58.6891 63.534 58.6891C62.8376 58.6882 62.17 58.4113 61.6775 57.9191C61.1849 57.4268 60.9076 56.7594 60.9063 56.063ZM62.308 56.063C62.3076 56.3056 62.3792 56.5428 62.5138 56.7447C62.6483 56.9465 62.8396 57.1039 63.0636 57.197C63.2876 57.29 63.5342 57.3145 63.7722 57.2674C64.0101 57.2203 64.2287 57.1037 64.4004 56.9323C64.572 56.7609 64.6889 56.5424 64.7364 56.3045C64.7838 56.0667 64.7597 55.82 64.6669 55.5959C64.5742 55.3718 64.417 55.1802 64.2153 55.0454C64.0137 54.9106 63.7766 54.8387 63.534 54.8387C63.2093 54.8391 62.8979 54.9682 62.6681 55.1977C62.4384 55.4271 62.3088 55.7383 62.308 56.063Z" fill="url(#paint41_linear_572_2325)"/>
<path d="M80.826 74.8594L140.32 74.8594V72.5238H80.826V74.8594Z" fill="url(#paint42_linear_572_2325)"/>
<path d="M45.0893 34.2422H66.7227V31.9066L45.0893 31.9066V34.2422Z" fill="url(#paint43_linear_572_2325)"/>
<path d="M40.2891 33.0733C40.2891 32.5539 40.4431 32.0462 40.7316 31.6144C41.0202 31.1825 41.4303 30.8459 41.9102 30.6472C42.39 30.4484 42.918 30.3964 43.4274 30.4977C43.9369 30.5991 44.4048 30.8492 44.772 31.2164C45.1393 31.5837 45.3894 32.0516 45.4907 32.561C45.5921 33.0704 45.5401 33.5984 45.3413 34.0783C45.1425 34.5581 44.8059 34.9683 44.3741 35.2568C43.9422 35.5454 43.4345 35.6994 42.9151 35.6994C42.2188 35.6989 41.5511 35.4221 41.0587 34.9298C40.5663 34.4374 40.2895 33.7697 40.2891 33.0733ZM41.6908 33.0733C41.6908 33.3155 41.7626 33.5522 41.8971 33.7536C42.0316 33.9549 42.2229 34.1118 42.4466 34.2045C42.6703 34.2972 42.9165 34.3214 43.154 34.2742C43.3915 34.2269 43.6097 34.1103 43.7809 33.9391C43.9521 33.7679 44.0687 33.5497 44.116 33.3122C44.1632 33.0747 44.139 32.8285 44.0463 32.6048C43.9536 32.3811 43.7967 32.1898 43.5954 32.0553C43.394 31.9208 43.1573 31.849 42.9151 31.849C42.5905 31.8494 42.2794 31.9785 42.0499 32.2081C41.8203 32.4376 41.6912 32.7487 41.6908 33.0733Z" fill="url(#paint44_linear_572_2325)"/>
<path d="M65.079 33.5576L85.6758 54.1543L87.3273 52.5028L66.7305 31.906L65.079 33.5576Z" fill="url(#paint45_linear_572_2325)"/>
<path d="M85.6621 54.1523L143.535 54.1523V51.8167L85.6621 51.8167V54.1523Z" fill="url(#paint46_linear_572_2325)"/>
<path d="M33.5711 41.4219L65.3203 41.4219V39.0863L33.5711 39.0863V41.4219Z" fill="url(#paint47_linear_572_2325)"/>
<path d="M28.7734 40.255C28.7734 39.7356 28.9275 39.2279 29.216 38.796C29.5046 38.3642 29.9147 38.0276 30.3946 37.8288C30.8744 37.63 31.4024 37.578 31.9118 37.6794C32.4212 37.7807 32.8891 38.0308 33.2564 38.3981C33.6237 38.7653 33.8738 39.2333 33.9751 39.7427C34.0764 40.2521 34.0244 40.7801 33.8257 41.2599C33.6269 41.7398 33.2903 42.1499 32.8585 42.4385C32.4266 42.727 31.9189 42.881 31.3995 42.881C30.7033 42.8801 30.0359 42.6032 29.5436 42.1109C29.0513 41.6186 28.7743 40.9512 28.7734 40.255ZM30.1734 40.255C30.1731 40.4975 30.2447 40.7347 30.3792 40.9366C30.5138 41.1384 30.7051 41.2958 30.9291 41.3889C31.1531 41.482 31.3997 41.5065 31.6377 41.4594C31.8756 41.4123 32.0942 41.2956 32.2659 41.1242C32.4375 40.9528 32.5544 40.7344 32.6019 40.4965C32.6493 40.2586 32.6251 40.012 32.5324 39.7879C32.4396 39.5637 32.2825 39.3721 32.0808 39.2374C31.8792 39.1026 31.6421 39.0306 31.3995 39.0306C31.0748 39.031 30.7634 39.1601 30.5336 39.3896C30.3038 39.6191 30.1743 39.9302 30.1734 40.255Z" fill="url(#paint48_linear_572_2325)"/>
<path d="M63.6806 40.7392L84.2773 61.3359L85.9289 59.6844L65.3321 39.0877L63.6806 40.7392Z" fill="url(#paint49_linear_572_2325)"/>
<path d="M84.2754 61.3359L142.148 61.3359V59.0003L84.2754 59.0003V61.3359Z" fill="url(#paint50_linear_572_2325)"/>
<path d="M41.7836 48.5703H63.9219V46.2347H41.7836V48.5703Z" fill="url(#paint51_linear_572_2325)"/>
<path d="M36.9805 47.4017C36.9808 46.8821 37.1353 46.3743 37.4243 45.9425C37.7134 45.5107 38.124 45.1744 38.6043 44.9761C39.0846 44.7778 39.6129 44.7264 40.1224 44.8285C40.6319 44.9306 41.0996 45.1815 41.4664 45.5495C41.8333 45.9175 42.0827 46.386 42.1831 46.8958C42.2835 47.4057 42.2304 47.9338 42.0306 48.4134C41.8307 48.8931 41.4931 49.3026 41.0604 49.5903C40.6277 49.878 40.1194 50.0308 39.5998 50.0295C38.9045 50.0268 38.2385 49.7488 37.7476 49.2563C37.2567 48.7639 36.9809 48.097 36.9805 47.4017ZM38.3805 47.4017C38.3801 47.6443 38.4518 47.8815 38.5863 48.0833C38.7208 48.2852 38.9122 48.4426 39.1362 48.5356C39.3602 48.6287 39.6067 48.6532 39.8447 48.6061C40.0826 48.559 40.3013 48.4423 40.4729 48.2709C40.6445 48.0995 40.7615 47.8811 40.8089 47.6432C40.8564 47.4053 40.8322 47.1587 40.7394 46.9346C40.6467 46.7105 40.4895 46.5189 40.2879 46.3841C40.0862 46.2493 39.8491 46.1773 39.6065 46.1773C39.2818 46.1778 38.9705 46.3069 38.7407 46.5363C38.5109 46.7658 38.3814 47.077 38.3805 47.4017Z" fill="url(#paint52_linear_572_2325)"/>
<path d="M62.2782 47.8876L82.875 68.4844L84.5265 66.8329L63.9298 46.2361L62.2782 47.8876Z" fill="url(#paint53_linear_572_2325)"/>
<path d="M82.873 68.4844H140.746V66.1488H82.873V68.4844Z" fill="url(#paint54_linear_572_2325)"/>
<path d="M18.48 94.0742L139.863 94.0742V91.7386L18.48 91.7386V94.0742Z" fill="url(#paint55_linear_572_2325)"/>
<path d="M16.3018 90.2793C16.8212 90.2793 17.329 90.4333 17.7608 90.7219C18.1927 91.0104 18.5293 91.4206 18.728 91.9004C18.9268 92.3803 18.9788 92.9083 18.8774 93.4177C18.7761 93.9271 18.526 94.395 18.1588 94.7623C17.7915 95.1295 17.3236 95.3796 16.8142 95.481C16.3048 95.5823 15.7767 95.5303 15.2969 95.3315C14.817 95.1328 14.4069 94.7962 14.1184 94.3643C13.8298 93.9325 13.6758 93.4248 13.6758 92.9054C13.6767 92.2092 13.9536 91.5417 14.4459 91.0494C14.9382 90.5572 15.6056 90.2802 16.3018 90.2793ZM16.3018 94.1297C16.5444 94.1297 16.7815 94.0578 16.9832 93.923C17.1848 93.7882 17.342 93.5966 17.4347 93.3725C17.5275 93.1484 17.5517 92.9017 17.5042 92.6639C17.4568 92.426 17.3398 92.2075 17.1682 92.0361C16.9966 91.8647 16.7779 91.7481 16.54 91.701C16.3021 91.6539 16.0555 91.6784 15.8315 91.7714C15.6075 91.8645 15.4161 92.0219 15.2816 92.2237C15.1471 92.4256 15.0755 92.6628 15.0758 92.9054C15.0762 93.2302 15.2056 93.5417 15.4355 93.7712C15.6654 94.0008 15.977 94.1297 16.3018 94.1297Z" fill="url(#paint56_linear_572_2325)"/>
<path d="M65.836 116.316L82.418 99.7344L80.7665 98.0829L64.1845 114.665L65.836 116.316Z" fill="url(#paint57_linear_572_2325)"/>
<path d="M63.534 114.34C64.0533 114.34 64.5609 114.494 64.9925 114.783C65.4241 115.072 65.7605 115.482 65.959 115.962C66.1575 116.442 66.2092 116.97 66.1077 117.479C66.0062 117.989 65.756 118.456 65.3886 118.823C65.0213 119.191 64.5534 119.44 64.044 119.542C63.5347 119.643 63.0067 119.591 62.527 119.392C62.0472 119.193 61.6372 118.857 61.3487 118.425C61.0602 117.993 60.9063 117.485 60.9062 116.966C60.9071 116.269 61.1843 115.602 61.677 115.109C62.1697 114.617 62.8375 114.34 63.534 114.34ZM63.534 118.19C63.7761 118.19 64.0127 118.118 64.2138 117.983C64.4149 117.848 64.5716 117.657 64.664 117.433C64.7564 117.21 64.7804 116.963 64.733 116.726C64.6855 116.489 64.5688 116.271 64.3975 116.1C64.2262 115.929 64.008 115.812 63.7706 115.765C63.5331 115.718 63.287 115.742 63.0634 115.835C62.8398 115.928 62.6486 116.085 62.5142 116.286C62.3797 116.487 62.308 116.724 62.308 116.966C62.3084 117.291 62.4378 117.602 62.6677 117.832C62.8975 118.061 63.2091 118.19 63.534 118.19Z" fill="url(#paint58_linear_572_2325)"/>
<path d="M80.826 100.51L140.32 100.51V98.1742H80.826V100.51Z" fill="url(#paint59_linear_572_2325)"/>
<path d="M45.0893 141.129H66.7227V138.793H45.0893V141.129Z" fill="url(#paint60_linear_572_2325)"/>
<path d="M42.9151 137.336C43.4345 137.336 43.9422 137.49 44.3741 137.779C44.8059 138.067 45.1425 138.477 45.3413 138.957C45.5401 139.437 45.5921 139.965 45.4907 140.474C45.3894 140.984 45.1393 141.452 44.772 141.819C44.4048 142.186 43.9369 142.436 43.4274 142.538C42.918 142.639 42.39 142.587 41.9102 142.388C41.4303 142.189 41.0202 141.853 40.7316 141.421C40.4431 140.989 40.2891 140.481 40.2891 139.962C40.29 139.266 40.5669 138.598 41.0592 138.106C41.5515 137.614 42.2189 137.337 42.9151 137.336ZM42.9151 141.188C43.1577 141.188 43.3949 141.117 43.5967 140.982C43.7986 140.848 43.956 140.656 44.0491 140.432C44.1421 140.208 44.1666 139.962 44.1195 139.724C44.0724 139.486 43.9558 139.267 43.7844 139.096C43.613 138.924 43.3945 138.807 43.1566 138.76C42.9188 138.712 42.6721 138.736 42.448 138.829C42.2239 138.922 42.0323 139.079 41.8975 139.281C41.7627 139.482 41.6908 139.719 41.6908 139.962C41.6908 140.287 41.8197 140.598 42.0493 140.828C42.2788 141.058 42.5903 141.188 42.9151 141.188Z" fill="url(#paint61_linear_572_2325)"/>
<path d="M66.7314 141.13L87.3281 120.533L85.6766 118.882L65.0799 139.478L66.7314 141.13Z" fill="url(#paint62_linear_572_2325)"/>
<path d="M85.6621 121.219H143.535V118.883H85.6621V121.219Z" fill="url(#paint63_linear_572_2325)"/>
<path d="M33.5711 133.949H65.3203V131.614H33.5711V133.949Z" fill="url(#paint64_linear_572_2325)"/>
<path d="M31.3995 130.154C31.9189 130.154 32.4266 130.308 32.8585 130.597C33.2903 130.885 33.6269 131.296 33.8257 131.775C34.0244 132.255 34.0764 132.783 33.9751 133.293C33.8738 133.802 33.6237 134.27 33.2564 134.637C32.8891 135.005 32.4212 135.255 31.9118 135.356C31.4024 135.457 30.8744 135.405 30.3946 135.207C29.9147 135.008 29.5046 134.671 29.216 134.239C28.9275 133.807 28.7734 133.3 28.7734 132.78C28.7743 132.084 29.0513 131.417 29.5436 130.924C30.0359 130.432 30.7033 130.155 31.3995 130.154ZM31.3995 134.005C31.6421 134.005 31.8792 133.933 32.0808 133.798C32.2825 133.663 32.4396 133.472 32.5324 133.247C32.6251 133.023 32.6493 132.777 32.6019 132.539C32.5544 132.301 32.4375 132.083 32.2659 131.911C32.0942 131.74 31.8756 131.623 31.6377 131.576C31.3997 131.529 31.1531 131.553 30.9291 131.646C30.7051 131.739 30.5138 131.897 30.3792 132.099C30.2447 132.301 30.1731 132.538 30.1734 132.78C30.1739 133.105 30.3033 133.417 30.5331 133.646C30.763 133.876 31.0746 134.005 31.3995 134.005Z" fill="url(#paint65_linear_572_2325)"/>
<path d="M65.3329 133.948L85.9297 113.352L84.2782 111.7L63.6814 132.297L65.3329 133.948Z" fill="url(#paint66_linear_572_2325)"/>
<path d="M84.2754 114.037H142.148V111.702H84.2754V114.037Z" fill="url(#paint67_linear_572_2325)"/>
<path d="M41.7836 126.799H63.9219V124.463H41.7836V126.799Z" fill="url(#paint68_linear_572_2325)"/>
<path d="M39.6026 123.004C40.1224 123.004 40.6306 123.157 41.063 123.446C41.4953 123.734 41.8324 124.145 42.0316 124.625C42.2307 125.105 42.283 125.633 42.1818 126.143C42.0806 126.653 41.8304 127.122 41.463 127.489C41.0956 127.857 40.6274 128.107 40.1176 128.209C39.6078 128.31 39.0794 128.258 38.5991 128.06C38.1189 127.861 37.7084 127.524 37.4195 127.092C37.1307 126.66 36.9766 126.151 36.9766 125.632C36.9775 124.935 37.2544 124.268 37.7466 123.775C38.2388 123.283 38.9063 123.005 39.6026 123.004ZM39.6026 126.856C39.8452 126.856 40.0823 126.784 40.284 126.649C40.4856 126.514 40.6428 126.323 40.7355 126.099C40.8283 125.875 40.8524 125.628 40.805 125.39C40.7576 125.152 40.6406 124.934 40.469 124.762C40.2973 124.591 40.0787 124.474 39.8408 124.427C39.6028 124.38 39.3563 124.405 39.1323 124.498C38.9083 124.591 38.7169 124.748 38.5824 124.95C38.4479 125.152 38.3762 125.389 38.3766 125.632C38.377 125.957 38.5064 126.268 38.7363 126.498C38.9661 126.727 39.2777 126.856 39.6026 126.856Z" fill="url(#paint69_linear_572_2325)"/>
<path d="M63.9306 126.8L84.5273 106.203L82.8758 104.552L62.2791 125.148L63.9306 126.8Z" fill="url(#paint70_linear_572_2325)"/>
<path d="M82.873 106.887H140.746V104.551H82.873V106.887Z" fill="url(#paint71_linear_572_2325)"/>
<g opacity="0.13">
<path opacity="0.08" d="M181.188 175.675C169.811 171.339 159.173 164.781 149.569 156.189C140.383 147.968 132.343 138.058 125.652 126.733C119.057 115.56 113.94 103.259 110.443 90.1874C106.865 76.7412 105.06 62.8849 105.074 48.9708C105.077 41.7751 105.558 34.5875 106.515 27.4557L108.942 9.38566L126.336 14.8354C132.719 16.8325 139.369 17.8467 146.058 17.8431C157.508 17.8431 168.926 14.8033 179.079 9.0344L186.665 4.72461L194.249 9.03271C194.36 9.09519 194.474 9.15598 194.587 9.21678L194.622 9.23536L195.102 9.49712C205.042 14.9536 216.163 17.838 227.267 17.838C233.952 17.8418 240.599 16.8282 246.98 14.832L264.374 9.3806L266.801 27.4506C267.76 34.584 268.244 41.7733 268.248 48.9708C268.263 62.7644 266.489 76.5017 262.973 89.8395C259.538 102.808 254.507 115.019 248.022 126.135C241.454 137.392 233.54 147.277 224.5 155.52C215.062 164.107 204.591 170.732 193.386 175.182L193.112 175.292C192.795 175.419 192.466 175.551 192.136 175.675L186.66 177.763L181.188 175.675Z" fill="black"/>
<path opacity="0.15" d="M180.793 175.283C169.416 170.946 158.777 164.388 149.174 155.796C139.989 147.575 131.949 137.665 125.258 126.34C118.671 115.165 113.546 102.866 110.048 89.7945C106.47 76.3461 104.665 62.4876 104.68 48.5712C104.682 41.3749 105.164 34.1868 106.12 27.0544L108.547 8.98437L125.942 14.4358C132.325 16.4324 138.975 17.446 145.663 17.4418C157.112 17.4418 168.531 14.402 178.684 8.6348L186.268 4.33008L193.854 8.63648C193.966 8.70065 194.079 8.75977 194.192 8.82056L194.228 8.84083L194.709 9.1009C204.649 14.5591 215.77 17.4418 226.872 17.4418C233.56 17.4462 240.209 16.4326 246.592 14.4358L263.986 8.98437L266.413 27.0544C267.371 34.1867 267.853 41.3749 267.855 48.5712C267.87 62.3648 266.096 76.1021 262.58 89.4399C259.143 102.408 254.114 114.62 247.627 125.735C241.059 136.993 233.147 146.877 224.107 155.12C214.669 163.721 204.2 170.341 192.992 174.796L192.718 174.906C192.4 175.033 192.073 175.163 191.742 175.289L186.267 177.375L180.793 175.283Z" fill="black"/>
<path opacity="0.23" d="M180.403 174.889C169.024 170.55 158.386 163.995 148.784 155.4C139.598 147.181 131.558 137.271 124.867 125.946C118.271 114.771 113.154 102.472 109.658 89.3991C106.079 75.9514 104.274 62.0933 104.289 48.1775C104.292 40.9812 104.773 33.7931 105.73 26.6607L108.155 8.59064L125.549 14.0404C131.932 16.0402 138.582 17.0561 145.271 17.0532C156.721 17.0532 168.139 14.0133 178.292 8.24612L185.878 3.94141L193.462 8.24781C193.575 8.31199 193.687 8.3711 193.8 8.4319L193.835 8.45047L194.317 8.71223C204.255 14.167 215.378 17.0532 226.48 17.0532C233.168 17.0576 239.817 16.0434 246.2 14.0454L263.594 8.5957L266.021 26.6657C266.978 33.7981 267.459 40.9863 267.461 48.1826C267.476 61.9762 265.703 75.7135 262.186 89.0512C258.751 102.019 253.72 114.233 247.235 125.348C240.667 136.606 232.754 146.489 223.715 154.733C214.275 163.334 203.806 169.953 192.599 174.409L192.326 174.519C192.008 174.646 191.681 174.776 191.35 174.902L185.874 176.981L180.403 174.889Z" fill="black"/>
<path opacity="0.31" d="M180.008 174.494C168.631 170.156 157.993 163.598 148.391 155.006C139.204 146.786 131.165 136.877 124.474 125.552C117.878 114.377 112.761 102.077 109.265 89.0046C105.686 75.5586 103.88 61.7023 103.895 47.788C103.897 40.5923 104.378 33.4047 105.335 26.2729L107.762 8.20286L125.156 13.6526C131.539 15.6506 138.189 16.6648 144.876 16.6603C156.326 16.6603 167.744 13.6205 177.897 7.85329L185.483 3.54688L193.068 7.85497C193.179 7.91745 193.292 7.97825 193.405 8.03905L193.441 8.05762L193.921 8.31938C203.861 13.7759 214.983 16.6603 226.085 16.6603C232.772 16.6632 239.419 15.6478 245.8 13.6492L263.195 8.1978L265.621 26.2678C266.578 33.3996 267.059 40.5872 267.062 47.783C267.076 61.5766 265.303 75.3139 261.786 88.6516C258.351 101.62 253.32 113.831 246.835 124.947C240.268 136.204 232.354 146.089 223.316 154.332C213.882 162.924 203.411 169.55 192.206 174.001L191.933 174.109C191.615 174.238 191.286 174.368 190.957 174.493L185.48 176.58L180.008 174.494Z" fill="black"/>
<path opacity="0.38" d="M179.614 174.099C168.236 169.762 157.599 163.204 147.995 154.612C138.809 146.391 130.769 136.481 124.078 125.156C117.492 113.981 112.366 101.682 108.869 88.6107C105.29 75.1623 103.486 61.3037 103.5 47.3874C103.503 40.1911 103.984 33.0029 104.941 25.8705L107.367 7.80051L124.762 13.2502C131.145 15.2468 137.795 16.2604 144.484 16.2563C155.932 16.2563 167.351 13.2165 177.504 7.44925L185.089 3.14453L192.675 7.45094C192.786 7.51512 192.899 7.57591 193.013 7.63671L193.048 7.65528C193.208 7.74141 193.369 7.82417 193.528 7.91536C203.468 13.3735 214.589 16.2563 225.691 16.2563C232.378 16.2607 239.028 15.2471 245.411 13.2502L262.805 7.79883L265.234 25.8689C266.19 33.0013 266.672 40.1894 266.674 47.3857C266.688 61.1793 264.915 74.9166 261.398 88.2543C257.962 101.223 252.932 113.434 246.447 124.55C239.88 135.807 231.966 145.692 222.926 153.935C213.487 162.536 203.019 169.156 191.812 173.611L191.537 173.72C191.219 173.847 190.891 173.979 190.562 174.104L185.085 176.191L179.614 174.099Z" fill="black"/>
<path opacity="0.46" d="M179.219 173.705C167.842 169.367 157.202 162.811 147.6 154.217C138.415 145.997 130.374 136.088 123.683 124.763C117.097 113.588 111.972 101.288 108.474 88.2155C104.895 74.7679 103.09 60.9098 103.106 46.9939C103.108 39.7976 103.589 32.6095 104.546 25.4771L106.973 7.40705L124.367 12.8568C130.75 14.8565 137.399 15.8724 144.087 15.8696C155.537 15.8696 166.955 12.8297 177.108 7.06253L184.694 2.75781L192.279 7.06422C192.392 7.12839 192.505 7.18751 192.616 7.2483L192.652 7.26857L193.133 7.52864C203.072 12.9834 214.194 15.8696 225.296 15.8696C231.984 15.874 238.634 14.8598 245.016 12.8618L262.411 7.41211L264.837 25.4821C265.796 32.6144 266.277 39.8026 266.28 46.999C266.293 60.7925 264.52 74.5297 261.004 87.8676C257.567 100.836 252.536 113.047 246.051 124.163C239.484 135.42 231.57 145.305 222.532 153.548C213.093 162.149 202.622 168.769 191.416 173.224L191.142 173.334C190.825 173.46 190.497 173.59 190.166 173.717L184.691 175.798L179.219 173.705Z" fill="black"/>
<path opacity="0.54" d="M178.825 173.313C167.447 168.974 156.81 162.418 147.207 153.824C138.022 145.605 129.982 135.695 123.291 124.37C116.694 113.195 111.577 100.896 108.081 87.8229C104.502 74.377 102.697 60.5206 102.711 46.6064C102.713 39.4106 103.195 32.223 104.153 25.0912L106.578 7.02122L123.973 12.4709C130.355 14.4689 137.005 15.4831 143.693 15.4787C155.143 15.4787 166.561 12.4389 176.714 6.67165L184.3 2.36523L191.884 6.67333C191.997 6.7375 192.109 6.79661 192.222 6.85741L192.257 6.87598L192.739 7.13774C202.677 12.5942 213.799 15.4787 224.902 15.4787C231.588 15.4815 238.236 14.4662 244.616 12.4676L262.011 7.01785L264.438 25.0879C265.395 32.2197 265.876 39.4073 265.878 46.603C265.893 60.3966 264.119 74.1339 260.603 87.4717C257.168 100.44 252.137 112.651 245.652 123.769C239.084 135.026 231.17 144.909 222.132 153.145C212.698 161.743 202.228 168.368 191.023 172.82L190.749 172.928C190.432 173.056 190.104 173.186 189.773 173.313L184.298 175.398L178.825 173.313Z" fill="black"/>
<path opacity="0.62" d="M178.43 172.917C167.053 168.581 156.415 162.023 146.811 153.43C137.626 145.209 129.585 135.3 122.894 123.975C116.308 112.802 111.183 100.501 107.685 87.4293C104.107 73.9809 102.302 60.1224 102.316 46.206C102.319 39.0103 102.8 31.8227 103.757 24.6908L106.184 6.62083L123.578 12.0705C129.962 14.0677 136.612 15.0819 143.3 15.0783C154.75 15.0783 166.168 12.0385 176.321 6.26957L183.907 1.96484L191.491 6.27294C191.603 6.33542 191.716 6.39622 191.829 6.45702L191.864 6.47559L192.344 6.73735C202.284 12.1938 213.405 15.0783 224.509 15.0783C231.196 15.082 237.845 14.0678 244.227 12.0705L261.621 6.61914L264.048 24.6892C265.005 31.8216 265.486 39.0097 265.489 46.206C265.503 59.9996 263.73 73.7369 260.213 87.0747C256.778 100.043 251.747 112.254 245.262 123.37C238.695 134.628 230.781 144.512 221.741 152.755C212.302 161.354 201.833 167.974 190.627 172.429L190.353 172.539C190.035 172.666 189.706 172.797 189.377 172.922L183.9 175.01L178.43 172.917Z" fill="black"/>
<path opacity="0.69" d="M178.036 172.524C166.658 168.187 156.019 161.629 146.416 153.037C137.231 144.816 129.191 134.906 122.5 123.581C115.914 112.406 110.788 100.107 107.291 87.0356C103.712 73.5871 101.907 59.7286 101.922 45.8123C101.924 38.616 102.406 31.4278 103.363 24.2954L105.789 6.22541L123.184 11.6768C129.567 13.6751 136.217 14.6905 142.905 14.6879C154.354 14.6879 165.773 11.6481 175.926 5.88089L183.511 1.57617L191.097 5.88258C191.208 5.94675 191.321 6.00587 191.434 6.06666L191.47 6.08693L191.951 6.347C201.888 11.8035 213.01 14.6879 224.112 14.6879C230.8 14.6923 237.45 13.6787 243.832 11.6819L261.227 6.23047L263.654 24.3005C264.612 31.4328 265.094 38.621 265.096 45.8173C265.11 59.6109 263.337 73.3482 259.82 86.686C256.384 99.6542 251.354 111.866 244.868 122.981C238.3 134.239 230.388 144.123 221.348 152.366C211.909 160.967 201.44 167.587 190.232 172.042L189.958 172.152C189.641 172.279 189.313 172.409 188.984 172.535L183.507 174.616L178.036 172.524Z" fill="black"/>
<path opacity="0.77" d="M177.641 172.13C166.262 167.792 155.624 161.236 146.022 152.642C136.837 144.422 128.796 134.513 122.105 123.188C115.511 112.013 110.394 99.7134 106.896 86.6405C103.317 73.1945 101.512 59.3381 101.527 45.424C101.53 38.2277 102.011 31.0395 102.968 23.9071L105.393 5.8371L122.788 11.2868C129.17 13.2848 135.82 14.299 142.508 14.2945C153.958 14.2945 165.375 11.2547 175.528 5.48752L183.116 1.17773L190.7 5.48414C190.814 5.54832 190.925 5.60742 191.038 5.66822L191.074 5.6868L191.555 5.94856C201.493 11.405 212.616 14.2895 223.718 14.2895C230.403 14.2943 237.051 13.2813 243.431 11.2851L260.826 5.83541L263.252 23.9054C264.212 31.0382 264.695 38.227 264.7 45.424C264.714 59.2176 262.941 72.9549 259.424 86.2926C255.989 99.2608 250.958 111.474 244.473 122.59C237.905 133.847 229.992 143.73 220.953 151.966C211.513 160.562 201.043 167.186 189.838 171.637L189.564 171.747C189.246 171.874 188.919 172.004 188.588 172.13L183.113 174.216L177.641 172.13Z" fill="black"/>
<path opacity="0.85" d="M177.247 171.745C165.869 167.407 155.232 160.849 145.629 152.257C136.442 144.037 128.403 134.128 121.712 122.803C115.116 111.628 109.999 99.3284 106.503 86.2555C102.923 72.8073 101.118 58.9487 101.133 45.0322C101.135 37.8364 101.617 30.6489 102.573 23.517L105 5.447L122.395 10.8967C128.777 12.8947 135.427 13.9089 142.115 13.9044C153.565 13.9044 164.983 10.8646 175.136 5.09742L182.722 0.791016L190.306 5.09911C190.417 5.1616 190.531 5.22239 190.644 5.28319L190.679 5.30177L191.159 5.56353C201.099 11.02 212.221 13.9044 223.323 13.9044C230.011 13.9089 236.661 12.8947 243.043 10.8967L260.438 5.44531L262.865 23.5153C263.822 30.6472 264.303 37.8348 264.305 45.0305C264.32 58.8241 262.546 72.5614 259.029 85.8991C255.594 98.8673 250.564 111.079 244.079 122.195C237.511 133.452 229.597 143.336 220.559 151.579C211.119 160.179 200.65 166.799 189.443 171.256L189.169 171.364C188.852 171.492 188.523 171.622 188.193 171.747L182.717 173.834L177.247 171.745Z" fill="black"/>
<path opacity="0.92" d="M176.852 171.342C165.475 167.005 154.837 160.448 145.233 151.855C136.048 143.634 128.007 133.724 121.316 122.399C114.73 111.225 109.604 98.9251 106.107 85.8539C102.529 72.4055 100.724 58.547 100.738 44.6306C100.741 37.4343 101.222 30.2462 102.179 23.1138L104.606 5.04377L122 10.4935C128.383 12.4924 135.033 13.5083 141.722 13.5063C153.17 13.5063 164.59 10.4665 174.743 4.69925L182.329 0.394531L189.913 4.70094C190.025 4.76511 190.138 4.82591 190.251 4.88671L190.286 4.90529C190.455 4.99141 190.607 5.07416 190.766 5.16536C200.704 10.6218 211.827 13.5063 222.929 13.5063C229.617 13.5107 236.266 12.4971 242.649 10.5002L260.043 5.04883L262.47 23.1189C263.427 30.2512 263.908 37.4394 263.911 44.6357C263.925 58.4293 262.152 72.1666 258.635 85.5043C255.2 98.4725 250.169 110.684 243.684 121.8C237.116 133.057 229.203 142.942 220.163 151.185C210.724 159.784 200.255 166.404 189.048 170.859L188.773 170.969C188.456 171.095 188.128 171.227 187.799 171.352L182.324 173.434L176.852 171.342Z" fill="black"/>
<path d="M176.461 170.949C165.084 166.61 154.445 160.054 144.842 151.46C135.657 143.241 127.617 133.331 120.926 122.006C114.331 110.831 109.214 98.5318 105.716 85.4589C102.138 72.0128 100.333 58.1565 100.348 44.2423C100.35 37.046 100.831 29.8579 101.788 22.7255L104.215 4.65546L121.61 10.1052C127.992 12.1031 134.642 13.1174 141.33 13.1129C152.78 13.1129 164.199 10.0731 174.35 4.30588L181.936 -0.00390625L189.521 4.3025C189.634 4.36667 189.747 4.42578 189.859 4.48658L189.894 4.50684L190.375 4.76692C200.314 10.2234 211.436 13.1078 222.538 13.1078C229.224 13.1125 235.871 12.1001 242.251 10.1052L259.646 4.65377L262.073 22.7238C263.036 29.8563 263.523 37.0451 263.53 44.2423C263.544 58.0359 261.77 71.773 258.254 85.111C254.818 98.0792 249.787 110.291 243.302 121.406C236.734 132.664 228.821 142.548 219.782 150.783C210.333 159.38 199.863 166.004 188.658 170.456L188.384 170.565C188.067 170.692 187.739 170.822 187.408 170.949L181.933 173.034L176.461 170.949Z" fill="black"/>
</g>
<path d="M176.465 170.949C165.088 166.61 154.449 160.054 144.846 151.46C135.661 143.241 127.621 133.331 120.93 122.006C114.335 110.831 109.218 98.5318 105.72 85.4589C102.141 72.0128 100.337 58.1565 100.352 44.2423C100.354 37.046 100.835 29.8579 101.792 22.7255L104.219 4.65546L121.613 10.1052C127.996 12.1031 134.646 13.1174 141.333 13.1129C152.783 13.1129 164.203 10.0731 174.354 4.30588L181.94 -0.00390625L189.525 4.3025C189.638 4.36667 189.751 4.42578 189.862 4.48658L189.898 4.50684L190.379 4.76692C200.318 10.2234 211.44 13.1078 222.542 13.1078C229.228 13.1125 235.875 12.1001 242.255 10.1052L259.65 4.65377L262.077 22.7238C263.04 29.8563 263.527 37.0451 263.534 44.2423C263.548 58.0359 261.774 71.773 258.258 85.111C254.822 98.0792 249.791 110.291 243.306 121.406C236.738 132.664 228.824 142.548 219.786 150.783C210.337 159.38 199.867 166.004 188.662 170.456L188.388 170.565C188.071 170.692 187.743 170.822 187.412 170.949L181.937 173.034L176.465 170.949Z" fill="url(#paint72_linear_572_2325)"/>
<path d="M180.108 161.378C169.904 157.494 160.337 151.583 151.67 143.829C143.269 136.31 135.892 127.216 129.743 116.808C123.621 106.435 118.866 95.0007 115.608 82.8211C112.263 70.235 110.577 57.2656 110.594 44.2425C110.597 37.5025 111.048 30.7702 111.945 24.0902L112.752 18.0663L118.551 19.8817C125.925 22.1901 133.607 23.362 141.333 23.3573C154.553 23.3573 167.719 19.8513 179.41 13.2245L181.943 11.7891L184.477 13.2245C184.666 13.3326 184.855 13.4339 185.044 13.537L185.461 13.7616C196.906 20.0455 209.731 23.3657 222.552 23.3657C230.278 23.3707 237.96 22.1987 245.334 19.8902L251.123 18.0663L251.932 24.0902C252.829 30.7702 253.28 37.5025 253.283 44.2425C253.297 57.1508 251.639 70.0065 248.348 82.4884C245.15 94.5667 240.473 105.925 234.451 116.246C228.407 126.6 221.145 135.673 212.879 143.205C204.355 150.974 194.934 156.935 184.879 160.938L184.59 161.053C184.315 161.162 184.039 161.272 183.762 161.378L181.938 162.073L180.108 161.378Z" fill="url(#paint73_linear_572_2325)"/>
<path d="M246.854 24.7667C238.984 27.2358 230.784 28.4886 222.536 28.4821C208.759 28.4821 195.194 24.9508 182.979 18.2463C182.631 18.0538 182.278 17.8697 181.932 17.6738C169.449 24.7566 155.499 28.4821 141.327 28.4821C133.079 28.4885 124.878 27.2356 117.008 24.7667C116.145 31.223 115.713 37.7297 115.715 44.2435C115.715 95.9052 142.828 141.687 181.937 156.599C182.289 156.465 182.636 156.323 182.984 156.185C221.528 140.856 248.165 95.4357 248.165 44.2435C248.162 37.7293 247.724 31.2226 246.854 24.7667Z" fill="url(#paint74_linear_572_2325)"/>
<path d="M215 80.5377C215 86.5559 212.652 92.1503 208.458 96.3885C204.265 100.627 198.729 103 192.774 103H151.845C150.839 103 150 102.152 150 101.135V96.2189C150 95.2018 150.839 94.3541 151.845 94.3541H192.774C196.465 94.3541 199.903 92.9132 202.419 90.2855C205.019 87.6579 206.445 84.1826 206.445 80.5377C206.445 76.8082 205.019 73.3329 202.419 70.79C199.819 68.1623 196.381 66.7213 192.774 66.7213H166.69C165.013 66.7213 163.419 65.9585 162.413 64.687L162.077 64.1784L158.639 58.4145V87.1493C158.639 88.1664 157.8 89.0141 156.794 89.0141H151.845C150.839 89.0141 150 88.1664 150 87.1493V47.5648C150 45.1915 151.51 43.0724 153.69 42.3095C155.871 41.5466 158.387 42.2247 159.813 44.0048L160.232 44.5134L168.368 58.0755H192.774C198.729 58.0755 204.265 60.4488 208.458 64.687C212.652 68.9252 215 74.5195 215 80.5377Z" fill="white"/>
</g>
<defs>
<linearGradient id="paint0_linear_572_2325" x1="388.964" y1="86.5166" x2="205.143" y2="86.5166" gradientUnits="userSpaceOnUse">
<stop stop-color="#F1F1F1"/>
<stop offset="0.9999" stop-color="#D3D0E6"/>
<stop offset="1" stop-color="#FBFBFB"/>
</linearGradient>
<linearGradient id="paint1_linear_572_2325" x1="369.946" y1="86.5148" x2="362.882" y2="86.5148" gradientUnits="userSpaceOnUse">
<stop stop-color="#F1F1F1"/>
<stop offset="0.9999" stop-color="#D3D0E6"/>
<stop offset="1" stop-color="#FBFBFB"/>
</linearGradient>
<linearGradient id="paint2_linear_572_2325" x1="372.522" y1="92.9052" x2="209.251" y2="92.9052" gradientUnits="userSpaceOnUse">
<stop stop-color="#F1F1F1"/>
<stop offset="0.9999" stop-color="#D3D0E6"/>
<stop offset="1" stop-color="#FBFBFB"/>
</linearGradient>
<linearGradient id="paint3_linear_572_2325" x1="356.274" y1="92.9035" x2="349.21" y2="92.9035" gradientUnits="userSpaceOnUse">
<stop stop-color="#F1F1F1"/>
<stop offset="0.9999" stop-color="#D3D0E6"/>
<stop offset="1" stop-color="#FBFBFB"/>
</linearGradient>
<linearGradient id="paint4_linear_572_2325" x1="306.993" y1="118.495" x2="284.689" y2="96.1907" gradientUnits="userSpaceOnUse">
<stop stop-color="#F1F1F1"/>
<stop offset="0.9999" stop-color="#D3D0E6"/>
<stop offset="1" stop-color="#FBFBFB"/>
</linearGradient>
<linearGradient id="paint5_linear_572_2325" x1="309.044" y1="116.966" x2="301.975" y2="116.966" gradientUnits="userSpaceOnUse">
<stop stop-color="#F1F1F1"/>
<stop offset="0.9999" stop-color="#D3D0E6"/>
<stop offset="1" stop-color="#FBFBFB"/>
</linearGradient>
<linearGradient id="paint6_linear_572_2325" x1="298.958" y1="99.3427" x2="218.933" y2="99.3427" gradientUnits="userSpaceOnUse">
<stop stop-color="#F1F1F1"/>
<stop offset="0.9999" stop-color="#D3D0E6"/>
<stop offset="1" stop-color="#FBFBFB"/>
</linearGradient>
<linearGradient id="paint7_linear_572_2325" x1="327.828" y1="139.962" x2="298.729" y2="139.962" gradientUnits="userSpaceOnUse">
<stop stop-color="#F1F1F1"/>
<stop offset="0.9999" stop-color="#D3D0E6"/>
<stop offset="1" stop-color="#FBFBFB"/>
</linearGradient>
<linearGradient id="paint8_linear_572_2325" x1="329.661" y1="139.96" x2="322.597" y2="139.96" gradientUnits="userSpaceOnUse">
<stop stop-color="#F1F1F1"/>
<stop offset="0.9999" stop-color="#D3D0E6"/>
<stop offset="1" stop-color="#FBFBFB"/>
</linearGradient>
<linearGradient id="paint9_linear_572_2325" x1="306.821" y1="144.036" x2="279.117" y2="116.332" gradientUnits="userSpaceOnUse">
<stop stop-color="#F1F1F1"/>
<stop offset="0.9999" stop-color="#D3D0E6"/>
<stop offset="1" stop-color="#FBFBFB"/>
</linearGradient>
<linearGradient id="paint10_linear_572_2325" x1="293.824" y1="120.05" x2="215.98" y2="120.05" gradientUnits="userSpaceOnUse">
<stop stop-color="#F1F1F1"/>
<stop offset="0.9999" stop-color="#D3D0E6"/>
<stop offset="1" stop-color="#FBFBFB"/>
</linearGradient>
<linearGradient id="paint11_linear_572_2325" x1="341.18" y1="132.78" x2="298.475" y2="132.78" gradientUnits="userSpaceOnUse">
<stop stop-color="#F1F1F1"/>
<stop offset="0.9999" stop-color="#D3D0E6"/>
<stop offset="1" stop-color="#FBFBFB"/>
</linearGradient>
<linearGradient id="paint12_linear_572_2325" x1="341.177" y1="132.778" x2="334.112" y2="132.778" gradientUnits="userSpaceOnUse">
<stop stop-color="#F1F1F1"/>
<stop offset="0.9999" stop-color="#D3D0E6"/>
<stop offset="1" stop-color="#FBFBFB"/>
</linearGradient>
<linearGradient id="paint13_linear_572_2325" x1="308.228" y1="136.856" x2="280.523" y2="109.152" gradientUnits="userSpaceOnUse">
<stop stop-color="#F1F1F1"/>
<stop offset="0.9999" stop-color="#D3D0E6"/>
<stop offset="1" stop-color="#FBFBFB"/>
</linearGradient>
<linearGradient id="paint14_linear_572_2325" x1="295.214" y1="112.866" x2="217.371" y2="112.866" gradientUnits="userSpaceOnUse">
<stop stop-color="#F1F1F1"/>
<stop offset="0.9999" stop-color="#D3D0E6"/>
<stop offset="1" stop-color="#FBFBFB"/>
</linearGradient>
<linearGradient id="paint15_linear_572_2325" x1="331.229" y1="125.632" x2="301.451" y2="125.632" gradientUnits="userSpaceOnUse">
<stop stop-color="#F1F1F1"/>
<stop offset="0.9999" stop-color="#D3D0E6"/>
<stop offset="1" stop-color="#FBFBFB"/>
</linearGradient>
<linearGradient id="paint16_linear_572_2325" x1="332.966" y1="125.628" x2="325.901" y2="125.628" gradientUnits="userSpaceOnUse">
<stop stop-color="#F1F1F1"/>
<stop offset="0.9999" stop-color="#D3D0E6"/>
<stop offset="1" stop-color="#FBFBFB"/>
</linearGradient>
<linearGradient id="paint17_linear_572_2325" x1="309.63" y1="129.708" x2="281.926" y2="102.004" gradientUnits="userSpaceOnUse">
<stop stop-color="#F1F1F1"/>
<stop offset="0.9999" stop-color="#D3D0E6"/>
<stop offset="1" stop-color="#FBFBFB"/>
</linearGradient>
<linearGradient id="paint18_linear_572_2325" x1="296.613" y1="105.718" x2="218.769" y2="105.718" gradientUnits="userSpaceOnUse">
<stop stop-color="#F1F1F1"/>
<stop offset="0.9999" stop-color="#D3D0E6"/>
<stop offset="1" stop-color="#FBFBFB"/>
</linearGradient>
<linearGradient id="paint19_linear_572_2325" x1="372.522" y1="80.1298" x2="209.251" y2="80.1298" gradientUnits="userSpaceOnUse">
<stop stop-color="#F1F1F1"/>
<stop offset="0.9999" stop-color="#D3D0E6"/>
<stop offset="1" stop-color="#FBFBFB"/>
</linearGradient>
<linearGradient id="paint20_linear_572_2325" x1="356.282" y1="80.1281" x2="349.218" y2="80.1281" gradientUnits="userSpaceOnUse">
<stop stop-color="#F1F1F1"/>
<stop offset="0.9999" stop-color="#D3D0E6"/>
<stop offset="1" stop-color="#FBFBFB"/>
</linearGradient>
<linearGradient id="paint21_linear_572_2325" x1="306.995" y1="54.5403" x2="284.691" y2="76.8444" gradientUnits="userSpaceOnUse">
<stop stop-color="#F1F1F1"/>
<stop offset="0.9999" stop-color="#D3D0E6"/>
<stop offset="1" stop-color="#FBFBFB"/>
</linearGradient>
<linearGradient id="paint22_linear_572_2325" x1="309.044" y1="56.0675" x2="301.979" y2="56.0675" gradientUnits="userSpaceOnUse">
<stop stop-color="#F1F1F1"/>
<stop offset="0.9999" stop-color="#D3D0E6"/>
<stop offset="1" stop-color="#FBFBFB"/>
</linearGradient>
<linearGradient id="paint23_linear_572_2325" x1="298.958" y1="73.6923" x2="218.933" y2="73.6923" gradientUnits="userSpaceOnUse">
<stop stop-color="#F1F1F1"/>
<stop offset="0.9999" stop-color="#D3D0E6"/>
<stop offset="1" stop-color="#FBFBFB"/>
</linearGradient>
<linearGradient id="paint24_linear_572_2325" x1="327.828" y1="33.0732" x2="298.729" y2="33.0732" gradientUnits="userSpaceOnUse">
<stop stop-color="#F1F1F1"/>
<stop offset="0.9999" stop-color="#D3D0E6"/>
<stop offset="1" stop-color="#FBFBFB"/>
</linearGradient>
<linearGradient id="paint25_linear_572_2325" x1="329.661" y1="33.0714" x2="322.597" y2="33.0714" gradientUnits="userSpaceOnUse">
<stop stop-color="#F1F1F1"/>
<stop offset="0.9999" stop-color="#D3D0E6"/>
<stop offset="1" stop-color="#FBFBFB"/>
</linearGradient>
<linearGradient id="paint26_linear_572_2325" x1="306.823" y1="28.9971" x2="279.119" y2="56.7013" gradientUnits="userSpaceOnUse">
<stop stop-color="#F1F1F1"/>
<stop offset="0.9999" stop-color="#D3D0E6"/>
<stop offset="1" stop-color="#FBFBFB"/>
</linearGradient>
<linearGradient id="paint27_linear_572_2325" x1="293.824" y1="52.9853" x2="215.98" y2="52.9853" gradientUnits="userSpaceOnUse">
<stop stop-color="#F1F1F1"/>
<stop offset="0.9999" stop-color="#D3D0E6"/>
<stop offset="1" stop-color="#FBFBFB"/>
</linearGradient>
<linearGradient id="paint28_linear_572_2325" x1="341.18" y1="40.2529" x2="298.475" y2="40.2529" gradientUnits="userSpaceOnUse">
<stop stop-color="#F1F1F1"/>
<stop offset="0.9999" stop-color="#D3D0E6"/>
<stop offset="1" stop-color="#FBFBFB"/>
</linearGradient>
<linearGradient id="paint29_linear_572_2325" x1="341.177" y1="40.2531" x2="334.112" y2="40.2531" gradientUnits="userSpaceOnUse">
<stop stop-color="#F1F1F1"/>
<stop offset="0.9999" stop-color="#D3D0E6"/>
<stop offset="1" stop-color="#FBFBFB"/>
</linearGradient>
<linearGradient id="paint30_linear_572_2325" x1="308.226" y1="36.1787" x2="280.521" y2="63.883" gradientUnits="userSpaceOnUse">
<stop stop-color="#F1F1F1"/>
<stop offset="0.9999" stop-color="#D3D0E6"/>
<stop offset="1" stop-color="#FBFBFB"/>
</linearGradient>
<linearGradient id="paint31_linear_572_2325" x1="295.214" y1="60.167" x2="217.371" y2="60.167" gradientUnits="userSpaceOnUse">
<stop stop-color="#F1F1F1"/>
<stop offset="0.9999" stop-color="#D3D0E6"/>
<stop offset="1" stop-color="#FBFBFB"/>
</linearGradient>
<linearGradient id="paint32_linear_572_2325" x1="331.229" y1="47.4013" x2="301.451" y2="47.4013" gradientUnits="userSpaceOnUse">
<stop stop-color="#F1F1F1"/>
<stop offset="0.9999" stop-color="#D3D0E6"/>
<stop offset="1" stop-color="#FBFBFB"/>
</linearGradient>
<linearGradient id="paint33_linear_572_2325" x1="332.974" y1="47.4012" x2="325.905" y2="47.4012" gradientUnits="userSpaceOnUse">
<stop stop-color="#F1F1F1"/>
<stop offset="0.9999" stop-color="#D3D0E6"/>
<stop offset="1" stop-color="#FBFBFB"/>
</linearGradient>
<linearGradient id="paint34_linear_572_2325" x1="309.628" y1="43.3271" x2="281.924" y2="71.0314" gradientUnits="userSpaceOnUse">
<stop stop-color="#F1F1F1"/>
<stop offset="0.9999" stop-color="#D3D0E6"/>
<stop offset="1" stop-color="#FBFBFB"/>
</linearGradient>
<linearGradient id="paint35_linear_572_2325" x1="296.613" y1="67.3154" x2="218.769" y2="67.3154" gradientUnits="userSpaceOnUse">
<stop stop-color="#F1F1F1"/>
<stop offset="0.9999" stop-color="#D3D0E6"/>
<stop offset="1" stop-color="#FBFBFB"/>
</linearGradient>
<linearGradient id="paint36_linear_572_2325" x1="-19.9677" y1="86.5186" x2="163.853" y2="86.5186" gradientUnits="userSpaceOnUse">
<stop stop-color="#F1F1F1"/>
<stop offset="0.9999" stop-color="#D3D0E6"/>
<stop offset="1" stop-color="#FBFBFB"/>
</linearGradient>
<linearGradient id="paint37_linear_572_2325" x1="6.20411" y1="86.5167" x2="-0.860424" y2="86.5167" gradientUnits="userSpaceOnUse">
<stop stop-color="#F1F1F1"/>
<stop offset="0.9999" stop-color="#D3D0E6"/>
<stop offset="1" stop-color="#FBFBFB"/>
</linearGradient>
<linearGradient id="paint38_linear_572_2325" x1="-3.52149" y1="80.1319" x2="159.749" y2="80.1319" gradientUnits="userSpaceOnUse">
<stop stop-color="#F1F1F1"/>
<stop offset="0.9999" stop-color="#D3D0E6"/>
<stop offset="1" stop-color="#FBFBFB"/>
</linearGradient>
<linearGradient id="paint39_linear_572_2325" x1="19.8799" y1="80.1281" x2="12.8154" y2="80.1281" gradientUnits="userSpaceOnUse">
<stop stop-color="#F1F1F1"/>
<stop offset="0.9999" stop-color="#D3D0E6"/>
<stop offset="1" stop-color="#FBFBFB"/>
</linearGradient>
<linearGradient id="paint40_linear_572_2325" x1="62.0032" y1="54.5404" x2="84.3073" y2="76.8445" gradientUnits="userSpaceOnUse">
<stop stop-color="#F1F1F1"/>
<stop offset="0.9999" stop-color="#D3D0E6"/>
<stop offset="1" stop-color="#FBFBFB"/>
</linearGradient>
<linearGradient id="paint41_linear_572_2325" x1="67.1144" y1="56.0594" x2="60.0453" y2="56.0594" gradientUnits="userSpaceOnUse">
<stop stop-color="#F1F1F1"/>
<stop offset="0.9999" stop-color="#D3D0E6"/>
<stop offset="1" stop-color="#FBFBFB"/>
</linearGradient>
<linearGradient id="paint42_linear_572_2325" x1="70.0423" y1="73.6924" x2="150.067" y2="73.6924" gradientUnits="userSpaceOnUse">
<stop stop-color="#F1F1F1"/>
<stop offset="0.9999" stop-color="#D3D0E6"/>
<stop offset="1" stop-color="#FBFBFB"/>
</linearGradient>
<linearGradient id="paint43_linear_572_2325" x1="41.1681" y1="33.0752" x2="70.2667" y2="33.0752" gradientUnits="userSpaceOnUse">
<stop stop-color="#F1F1F1"/>
<stop offset="0.9999" stop-color="#D3D0E6"/>
<stop offset="1" stop-color="#FBFBFB"/>
</linearGradient>
<linearGradient id="paint44_linear_572_2325" x1="46.4932" y1="33.0714" x2="39.4286" y2="33.0714" gradientUnits="userSpaceOnUse">
<stop stop-color="#F1F1F1"/>
<stop offset="0.9999" stop-color="#D3D0E6"/>
<stop offset="1" stop-color="#FBFBFB"/>
</linearGradient>
<linearGradient id="paint45_linear_572_2325" x1="62.1709" y1="28.9991" x2="89.8752" y2="56.7034" gradientUnits="userSpaceOnUse">
<stop stop-color="#F1F1F1"/>
<stop offset="0.9999" stop-color="#D3D0E6"/>
<stop offset="1" stop-color="#FBFBFB"/>
</linearGradient>
<linearGradient id="paint46_linear_572_2325" x1="75.1723" y1="52.9854" x2="153.016" y2="52.9854" gradientUnits="userSpaceOnUse">
<stop stop-color="#F1F1F1"/>
<stop offset="0.9999" stop-color="#D3D0E6"/>
<stop offset="1" stop-color="#FBFBFB"/>
</linearGradient>
<linearGradient id="paint47_linear_572_2325" x1="27.8164" y1="40.2549" x2="70.5216" y2="40.2549" gradientUnits="userSpaceOnUse">
<stop stop-color="#F1F1F1"/>
<stop offset="0.9999" stop-color="#D3D0E6"/>
<stop offset="1" stop-color="#FBFBFB"/>
</linearGradient>
<linearGradient id="paint48_linear_572_2325" x1="34.9775" y1="40.2531" x2="27.913" y2="40.2531" gradientUnits="userSpaceOnUse">
<stop stop-color="#F1F1F1"/>
<stop offset="0.9999" stop-color="#D3D0E6"/>
<stop offset="1" stop-color="#FBFBFB"/>
</linearGradient>
<linearGradient id="paint49_linear_572_2325" x1="60.7725" y1="36.1807" x2="88.4767" y2="63.885" gradientUnits="userSpaceOnUse">
<stop stop-color="#F1F1F1"/>
<stop offset="0.9999" stop-color="#D3D0E6"/>
<stop offset="1" stop-color="#FBFBFB"/>
</linearGradient>
<linearGradient id="paint50_linear_572_2325" x1="73.7855" y1="60.169" x2="151.629" y2="60.169" gradientUnits="userSpaceOnUse">
<stop stop-color="#F1F1F1"/>
<stop offset="0.9999" stop-color="#D3D0E6"/>
<stop offset="1" stop-color="#FBFBFB"/>
</linearGradient>
<linearGradient id="paint51_linear_572_2325" x1="37.7708" y1="47.4034" x2="67.5487" y2="47.4034" gradientUnits="userSpaceOnUse">
<stop stop-color="#F1F1F1"/>
<stop offset="0.9999" stop-color="#D3D0E6"/>
<stop offset="1" stop-color="#FBFBFB"/>
</linearGradient>
<linearGradient id="paint52_linear_572_2325" x1="43.1846" y1="47.4015" x2="36.12" y2="47.4015" gradientUnits="userSpaceOnUse">
<stop stop-color="#F1F1F1"/>
<stop offset="0.9999" stop-color="#D3D0E6"/>
<stop offset="1" stop-color="#FBFBFB"/>
</linearGradient>
<linearGradient id="paint53_linear_572_2325" x1="59.3701" y1="43.3292" x2="87.0744" y2="71.0335" gradientUnits="userSpaceOnUse">
<stop stop-color="#F1F1F1"/>
<stop offset="0.9999" stop-color="#D3D0E6"/>
<stop offset="1" stop-color="#FBFBFB"/>
</linearGradient>
<linearGradient id="paint54_linear_572_2325" x1="72.3832" y1="67.3174" x2="150.227" y2="67.3174" gradientUnits="userSpaceOnUse">
<stop stop-color="#F1F1F1"/>
<stop offset="0.9999" stop-color="#D3D0E6"/>
<stop offset="1" stop-color="#FBFBFB"/>
</linearGradient>
<linearGradient id="paint55_linear_572_2325" x1="-3.52149" y1="92.9073" x2="159.749" y2="92.9073" gradientUnits="userSpaceOnUse">
<stop stop-color="#F1F1F1"/>
<stop offset="0.9999" stop-color="#D3D0E6"/>
<stop offset="1" stop-color="#FBFBFB"/>
</linearGradient>
<linearGradient id="paint56_linear_572_2325" x1="19.8799" y1="92.9035" x2="12.8154" y2="92.9035" gradientUnits="userSpaceOnUse">
<stop stop-color="#F1F1F1"/>
<stop offset="0.9999" stop-color="#D3D0E6"/>
<stop offset="1" stop-color="#FBFBFB"/>
</linearGradient>
<linearGradient id="paint57_linear_572_2325" x1="62.0052" y1="118.497" x2="84.3093" y2="96.1927" gradientUnits="userSpaceOnUse">
<stop stop-color="#F1F1F1"/>
<stop offset="0.9999" stop-color="#D3D0E6"/>
<stop offset="1" stop-color="#FBFBFB"/>
</linearGradient>
<linearGradient id="paint58_linear_572_2325" x1="67.1104" y1="116.964" x2="60.0458" y2="116.964" gradientUnits="userSpaceOnUse">
<stop stop-color="#F1F1F1"/>
<stop offset="0.9999" stop-color="#D3D0E6"/>
<stop offset="1" stop-color="#FBFBFB"/>
</linearGradient>
<linearGradient id="paint59_linear_572_2325" x1="70.0423" y1="99.3428" x2="150.067" y2="99.3428" gradientUnits="userSpaceOnUse">
<stop stop-color="#F1F1F1"/>
<stop offset="0.9999" stop-color="#D3D0E6"/>
<stop offset="1" stop-color="#FBFBFB"/>
</linearGradient>
<linearGradient id="paint60_linear_572_2325" x1="41.1681" y1="139.962" x2="70.2667" y2="139.962" gradientUnits="userSpaceOnUse">
<stop stop-color="#F1F1F1"/>
<stop offset="0.9999" stop-color="#D3D0E6"/>
<stop offset="1" stop-color="#FBFBFB"/>
</linearGradient>
<linearGradient id="paint61_linear_572_2325" x1="46.4932" y1="139.96" x2="39.4286" y2="139.96" gradientUnits="userSpaceOnUse">
<stop stop-color="#F1F1F1"/>
<stop offset="0.9999" stop-color="#D3D0E6"/>
<stop offset="1" stop-color="#FBFBFB"/>
</linearGradient>
<linearGradient id="paint62_linear_572_2325" x1="62.1729" y1="144.038" x2="89.8772" y2="116.334" gradientUnits="userSpaceOnUse">
<stop stop-color="#F1F1F1"/>
<stop offset="0.9999" stop-color="#D3D0E6"/>
<stop offset="1" stop-color="#FBFBFB"/>
</linearGradient>
<linearGradient id="paint63_linear_572_2325" x1="75.1723" y1="120.052" x2="153.016" y2="120.052" gradientUnits="userSpaceOnUse">
<stop stop-color="#F1F1F1"/>
<stop offset="0.9999" stop-color="#D3D0E6"/>
<stop offset="1" stop-color="#FBFBFB"/>
</linearGradient>
<linearGradient id="paint64_linear_572_2325" x1="27.8164" y1="132.782" x2="70.5216" y2="132.782" gradientUnits="userSpaceOnUse">
<stop stop-color="#F1F1F1"/>
<stop offset="0.9999" stop-color="#D3D0E6"/>
<stop offset="1" stop-color="#FBFBFB"/>
</linearGradient>
<linearGradient id="paint65_linear_572_2325" x1="34.9775" y1="132.778" x2="27.913" y2="132.778" gradientUnits="userSpaceOnUse">
<stop stop-color="#F1F1F1"/>
<stop offset="0.9999" stop-color="#D3D0E6"/>
<stop offset="1" stop-color="#FBFBFB"/>
</linearGradient>
<linearGradient id="paint66_linear_572_2325" x1="60.7745" y1="136.856" x2="88.4788" y2="109.152" gradientUnits="userSpaceOnUse">
<stop stop-color="#F1F1F1"/>
<stop offset="0.9999" stop-color="#D3D0E6"/>
<stop offset="1" stop-color="#FBFBFB"/>
</linearGradient>
<linearGradient id="paint67_linear_572_2325" x1="73.7855" y1="112.87" x2="151.629" y2="112.87" gradientUnits="userSpaceOnUse">
<stop stop-color="#F1F1F1"/>
<stop offset="0.9999" stop-color="#D3D0E6"/>
<stop offset="1" stop-color="#FBFBFB"/>
</linearGradient>
<linearGradient id="paint68_linear_572_2325" x1="37.7708" y1="125.632" x2="67.5487" y2="125.632" gradientUnits="userSpaceOnUse">
<stop stop-color="#F1F1F1"/>
<stop offset="0.9999" stop-color="#D3D0E6"/>
<stop offset="1" stop-color="#FBFBFB"/>
</linearGradient>
<linearGradient id="paint69_linear_572_2325" x1="43.1847" y1="125.63" x2="36.1156" y2="125.63" gradientUnits="userSpaceOnUse">
<stop stop-color="#F1F1F1"/>
<stop offset="0.9999" stop-color="#D3D0E6"/>
<stop offset="1" stop-color="#FBFBFB"/>
</linearGradient>
<linearGradient id="paint70_linear_572_2325" x1="59.3721" y1="129.708" x2="87.0764" y2="102.004" gradientUnits="userSpaceOnUse">
<stop stop-color="#F1F1F1"/>
<stop offset="0.9999" stop-color="#D3D0E6"/>
<stop offset="1" stop-color="#FBFBFB"/>
</linearGradient>
<linearGradient id="paint71_linear_572_2325" x1="72.3832" y1="105.72" x2="150.227" y2="105.72" gradientUnits="userSpaceOnUse">
<stop stop-color="#F1F1F1"/>
<stop offset="0.9999" stop-color="#D3D0E6"/>
<stop offset="1" stop-color="#FBFBFB"/>
</linearGradient>
<linearGradient id="paint72_linear_572_2325" x1="181.939" y1="173.034" x2="181.939" y2="-0.000523363" gradientUnits="userSpaceOnUse">
<stop stop-color="#DDD9E6"/>
<stop offset="0.21" stop-color="#CFD7DE"/>
<stop offset="0.54" stop-color="#E4E6E8"/>
<stop offset="0.81" stop-color="#FCFDFF"/>
<stop offset="1" stop-color="#F3F9FF"/>
</linearGradient>
<linearGradient id="paint73_linear_572_2325" x1="181.938" y1="11.7772" x2="181.938" y2="162.073" gradientUnits="userSpaceOnUse">
<stop stop-color="#AAB1B9"/>
<stop offset="0.21" stop-color="#C3C8CD"/>
<stop offset="0.54" stop-color="#E4E6E8"/>
<stop offset="0.81" stop-color="#F8F8F9"/>
<stop offset="1" stop-color="white"/>
</linearGradient>
<linearGradient id="paint74_linear_572_2325" x1="272.172" y1="87.086" x2="94.0164" y2="87.086" gradientUnits="userSpaceOnUse">
<stop stop-color="#F1F1F1"/>
<stop offset="0.9999" stop-color="#D3D0E6"/>
<stop offset="1" stop-color="#FBFBFB"/>
</linearGradient>
<clipPath id="clip0_572_2325">
<rect width="369" height="178.167" fill="white"/>
</clipPath>
</defs>
</svg>
