<svg width="505" height="450" viewBox="0 0 505 450" fill="none" xmlns="http://www.w3.org/2000/svg">
<g clip-path="url(#clip0_1509_6010)">
<path d="M336.096 349.432C344.869 342.984 402.539 303.043 425.884 286.749C428.195 285.133 430.883 283.17 432.649 281.947C438.373 277.945 436.606 267.148 436.606 267.148L333.816 339.239V350.353C334.65 350.278 335.443 349.957 336.096 349.432Z" fill="url(#paint0_linear_1509_6010)"/>
<path d="M331.792 349.567C318.805 340.507 197.713 255.113 156.111 225.938C150.237 221.816 151.988 211.668 151.988 211.668L333.846 339.238V350.353C333.104 350.278 332.395 350.007 331.792 349.567Z" fill="url(#paint1_linear_1509_6010)"/>
<path d="M254.87 139.652L436.622 267.178L333.847 339.268L151.99 211.698L254.87 139.652Z" fill="url(#paint2_linear_1509_6010)"/>
<g style="mix-blend-mode:soft-light">
<path d="M255.413 147.234L423.74 265.442L367.264 305.233L198.876 186.994L255.413 147.234Z" fill="white"/>
</g>
<g style="mix-blend-mode:soft-light">
<path d="M248.075 229.531L303.162 268.763L273.474 289.692L218.342 250.446L248.075 229.531Z" fill="white"/>
</g>
<path d="M436.636 267.207C437.467 267.184 438.285 266.997 439.043 266.657C439.802 266.317 440.486 265.831 441.057 265.226C441.628 264.622 442.074 263.911 442.37 263.134C442.666 262.357 442.806 261.53 442.782 260.699V141.871C442.66 140.775 442.338 139.71 441.83 138.73L436.636 141.6V267.207Z" fill="url(#paint3_linear_1509_6010)"/>
<path d="M436.622 267.149L255.006 139.654V14.0469L436.622 141.557V267.149Z" fill="url(#paint4_linear_1509_6010)"/>
<g style="mix-blend-mode:multiply">
<path d="M436.622 267.149L255.006 139.654V14.0469L436.622 141.557V267.149Z" fill="#47417D"/>
</g>
<path d="M268.143 15.7211C307.964 43.5818 422.336 124.038 438.992 135.439C440.248 136.208 441.247 137.333 441.861 138.671L436.667 141.57L255.051 14.06C255.051 14.06 259.521 9.71102 268.143 15.7211Z" fill="url(#paint5_linear_1509_6010)"/>
<g style="mix-blend-mode:multiply">
<path d="M429.328 253.373L260.759 135.044V26.8633L429.328 145.192V253.373Z" fill="#594E83"/>
</g>
<g style="mix-blend-mode:soft-light" opacity="0.39">
<path d="M428.936 176.288L376.733 139.125L398.493 123.828L428.936 145.196V176.288Z" fill="white"/>
</g>
<g style="mix-blend-mode:multiply">
<path d="M350.773 330.859L337.107 340.524V344.752L350.773 335.072V330.859Z" fill="#47417D"/>
<path d="M368.577 318.281L354.911 327.946V332.174L368.577 322.509V318.281Z" fill="#47417D"/>
<path d="M409.168 289.875L374.98 313.885V318.113L409.168 294.103V289.875Z" fill="#47417D"/>
<path d="M433.616 272.766L419.95 282.43V286.658L433.616 276.994V272.766Z" fill="#47417D"/>
</g>
<path d="M233.713 94.0193L199.087 70.0998C195.977 67.3515 191.341 66.8532 185.497 71.3079C181.984 74.3767 178.932 77.937 176.436 81.8783C184.546 87.7072 191.839 93.083 198.725 97.7491C198.342 97.5563 197.949 97.3849 197.547 97.2357C203.482 99.4102 206.608 106.432 206.487 116.368C206.487 116.731 206.487 117.093 206.487 117.44C209.628 109.633 214.958 101.464 221.18 97.1602C221.723 96.7676 222.282 96.4203 222.826 96.1032H222.947C223.434 95.8123 223.938 95.5501 224.457 95.3179H224.623C225.121 95.1065 225.589 94.9253 226.133 94.7592H226.329C226.782 94.6233 227.235 94.5176 227.688 94.427H227.869C228.294 94.3542 228.723 94.3088 229.153 94.2911H229.349C229.752 94.268 230.155 94.268 230.557 94.2911H230.708C231.102 94.341 231.49 94.4217 231.871 94.5327H231.977C232.362 94.6378 232.736 94.7794 233.094 94.9555C234.659 95.7481 235.937 97.01 236.749 98.5646C236.975 98.9874 237.171 99.4253 237.368 99.8783C237.557 100.372 237.719 100.876 237.851 101.388C237.987 101.902 238.108 102.43 238.198 102.989C238.297 103.564 238.362 104.143 238.395 104.726C238.228 99.5914 236.537 95.8011 233.713 94.0193Z" fill="url(#paint6_linear_1509_6010)"/>
<path d="M82.8879 184.729C82.8941 184.694 82.8941 184.658 82.8879 184.623L82.0423 184.004C82.3416 184.224 82.6243 184.467 82.8879 184.729Z" fill="url(#paint7_linear_1509_6010)"/>
<path d="M35.5927 235.751C35.5927 221.662 47.2051 196.565 62.0943 186.236C70.0524 180.709 76.9232 180.347 81.5742 183.699L47.2353 158.919C47.2353 158.919 45.7252 157.651 45.1212 157.318C44.5172 156.986 42.9316 156.337 42.9316 156.337C38.5222 154.827 32.8595 156.02 26.5021 160.429C11.6128 170.758 0.0607681 195.855 0.000366211 209.944C0.000366211 217.041 2.76381 223.218 7.38461 226.449L39.2168 248.481C36.7227 244.714 35.4566 240.267 35.5927 235.751Z" fill="url(#paint8_linear_1509_6010)"/>
<path d="M238.395 106.28C238.395 95.3169 231.04 90.228 221.134 97.1139C214.913 101.418 209.582 109.587 206.442 117.394C206.442 117.047 206.442 116.684 206.442 116.322C206.532 98.7599 196.943 90.2884 178.822 101.629C170.079 107.095 162.891 117.877 157.772 128.554C154.299 111.052 139.727 104.392 121.032 117.424C100.948 131.362 85.0623 163.829 82.8727 184.728C78.2368 180.319 70.7922 180.198 62.1395 186.238C47.2502 196.567 35.7133 221.664 35.6378 235.753C35.5623 248.453 44.6227 258.283 56.7787 253.255L222.207 138.49L222.645 138.188C231.901 130.939 238.319 117.455 238.395 106.28Z" fill="url(#paint9_linear_1509_6010)"/>
<path d="M170.834 77.8304C166.198 74.5385 159.553 70.8237 156.669 70.8086C152.728 70.8086 148.168 72.3186 143.199 75.822C136.313 80.6089 130.092 88.3707 125.245 96.8421C134.788 103.683 146.386 112.033 146.386 112.033C146.905 112.257 147.409 112.515 147.896 112.804L148.107 112.924C149.098 113.515 150.024 114.209 150.871 114.993C150.971 115.067 151.063 115.153 151.142 115.25C151.568 115.645 151.971 116.064 152.35 116.503C152.743 116.956 153.121 117.439 153.483 118.013L153.725 118.361C154.057 118.859 154.389 119.372 154.691 119.871C154.993 120.414 155.295 121.003 155.567 121.592C155.567 121.728 155.688 121.879 155.763 122.03C156.02 122.619 156.277 123.238 156.503 123.872C156.73 124.507 156.941 125.171 157.137 125.851L157.273 126.364C157.469 127.059 157.636 127.768 157.787 128.493C162.906 117.817 170.094 107.035 178.837 101.569L179.32 101.282C187.656 96.1777 194.164 95.3321 198.694 97.6425C190.283 92.0401 181.238 85.2297 170.834 77.8304Z" fill="url(#paint10_linear_1509_6010)"/>
<path d="M121.048 117.425C124.965 114.57 129.386 112.479 134.08 111.264C138.162 110.495 142.372 110.76 146.326 112.034C146.326 112.034 116.578 90.516 113.226 88.2509C106.491 83.7207 96.8262 83.8566 85.6064 91.6184C65.5225 105.556 49.4856 138.038 47.296 158.922L82.9185 184.593C85.1836 163.633 101.024 131.303 121.048 117.425Z" fill="url(#paint11_linear_1509_6010)"/>
<path d="M306.907 446.678C293.317 436.998 266.136 417.881 252.545 408.609C245.569 403.867 245.569 397.359 245.569 393.115V341.909C245.543 339.593 245.952 337.293 246.777 335.129C261.666 345.579 315.183 382.953 315.183 382.953V450C315.183 450 311.936 450.272 306.907 446.678Z" fill="url(#paint12_linear_1509_6010)"/>
<path d="M320.527 448.809C324.302 446.287 329.315 442.769 332.607 440.398C336.972 437.212 336.277 433.693 336.277 431.217V375.133C336.406 373.011 336.028 370.888 335.175 368.941L315.181 382.955V450.002C316.105 450.204 317.063 450.203 317.986 449.997C318.909 449.79 319.777 449.385 320.527 448.809Z" fill="url(#paint13_linear_1509_6010)"/>
<path d="M266.633 319.305C266.633 319.305 256.349 326.855 250.928 330.358C249.176 331.604 247.734 333.237 246.715 335.13C263.733 347.075 315.106 382.954 315.106 382.954L335.114 368.941C334.364 367.404 333.217 366.095 331.792 365.15C315.302 353.1 266.633 319.305 266.633 319.305Z" fill="url(#paint14_linear_1509_6010)"/>
<g style="mix-blend-mode:multiply">
<path d="M289.465 394.852C289.465 388.646 283.334 378.921 278.245 375.403C273.156 371.884 266.95 372.896 266.95 379.102C266.95 383.512 269.774 389.205 273.277 393.478C273.096 399.881 272.975 403.082 272.779 409.5C276.795 412.294 278.894 413.713 283.077 416.658V400.183C286.656 400.908 289.465 399.262 289.465 394.852Z" fill="#594E83"/>
</g>
<g style="mix-blend-mode:multiply">
<path d="M269.381 327.066C269.758 327.297 270.121 327.549 270.468 327.822C271.011 328.214 271.447 328.736 271.735 329.34C272.024 329.945 272.156 330.612 272.12 331.28C272.084 331.949 271.881 332.598 271.529 333.168C271.177 333.737 270.688 334.21 270.106 334.541C268.848 335.504 267.311 336.034 265.727 336.051C263.54 336.048 261.432 335.235 259.807 333.771C259.807 333.771 255.458 330.66 260.638 327.082C261.914 326.172 263.44 325.682 265.007 325.68C266.574 325.677 268.102 326.162 269.381 327.066Z" fill="#2F2858"/>
</g>
<g style="mix-blend-mode:multiply">
<path d="M320.391 365.711C321.312 366.3 320.663 365.892 321.494 366.466C322.033 366.862 322.465 367.387 322.751 367.992C323.037 368.597 323.168 369.263 323.132 369.931C323.096 370.6 322.894 371.248 322.545 371.819C322.196 372.39 321.71 372.865 321.131 373.201C319.862 374.154 318.324 374.682 316.737 374.711C314.554 374.689 312.451 373.879 310.818 372.431C310.818 372.431 306.484 369.305 311.648 365.726C312.924 364.817 314.451 364.327 316.017 364.324C317.584 364.322 319.113 364.806 320.391 365.711Z" fill="#2F2858"/>
</g>
<path d="M316.781 374.695C313.973 374.695 311.692 373.487 311.692 371.962V340.129C311.692 323.79 303.991 311.438 288.815 303.646C285.055 301.698 276.04 299.327 272.204 301.774C271.676 302.106 270.12 303.118 270.362 307.572V307.889C270.362 315.379 270.327 322.874 270.256 330.374V333.893C270.256 334.935 268.217 336.037 265.137 336.037C263.257 335.943 261.466 335.208 260.063 333.953V330.329C260.063 322.869 260.098 315.42 260.169 307.98C259.761 299.509 263.461 295.28 266.662 293.212C275.421 287.549 289.313 292.426 293.451 294.601C312.025 304.22 321.825 319.97 321.825 340.129V371.72C321.87 374.423 316.781 374.695 316.781 374.695Z" fill="url(#paint15_linear_1509_6010)"/>
<path d="M147.897 295.324L102.127 327.504L147.897 359.608L193.683 327.504L147.897 295.324Z" stroke="url(#paint16_linear_1509_6010)" stroke-width="1.01174" stroke-linecap="round" stroke-linejoin="round"/>
<path d="M147.896 333.984L115.309 356.877L147.896 379.724L180.483 356.877L147.896 333.984Z" stroke="url(#paint17_linear_1509_6010)" stroke-width="1.01174" stroke-linecap="round" stroke-linejoin="round"/>
<path d="M147.896 368.82L132.343 379.738L147.896 390.641L163.45 379.738L147.896 368.82Z" stroke="url(#paint18_linear_1509_6010)" stroke-width="1.01174" stroke-linecap="round" stroke-linejoin="round"/>
<path d="M147.896 342.878L85.5609 299.147V291.566L147.896 335.283V342.878Z" fill="url(#paint19_linear_1509_6010)"/>
<path d="M147.897 342.878L210.232 299.147V291.566L147.897 335.283V342.878Z" fill="url(#paint20_linear_1509_6010)"/>
<path d="M147.897 247.805L85.5613 291.597L147.897 335.328L210.232 291.597L147.897 247.805Z" fill="url(#paint21_linear_1509_6010)"/>
<g style="mix-blend-mode:multiply" opacity="0.8">
<path d="M147.897 253.934L94.2896 291.595L147.897 329.195L201.489 291.595L147.897 253.934Z" fill="#3A3469"/>
</g>
<path d="M147.338 307.363C146.208 307.825 144.98 307.997 143.767 307.862C142.554 307.728 141.393 307.291 140.392 306.593C136.737 304.026 129.112 299.254 129.112 298.544V293.41H141.192C141.192 293.41 141.192 294.195 141.192 294.497C141.144 295.618 141.503 296.717 142.204 297.593C143.548 298.846 144.273 299.662 146.447 301.791C148.622 303.92 148.999 306.472 147.338 307.363Z" fill="#09003C"/>
<path d="M141.599 294.934C141.599 295.568 139.319 297.305 135.635 298.03C133.128 298.528 129.156 297.139 129.156 296.308C129.156 291.28 131.618 258.783 131.165 248.439C130.38 231.118 130.138 184.125 130.138 184.125L151.747 175.805C151.747 175.805 152.834 182.404 151.46 195.768C149.95 210.068 150.584 229.246 148.938 241.734C147.338 253.785 141.599 283.986 141.599 294.934Z" fill="#09003C"/>
<path d="M168.675 292.879C167.549 293.345 166.323 293.519 165.111 293.384C163.899 293.25 162.741 292.811 161.744 292.109C158.075 289.542 150.449 284.785 150.449 284.075V278.926H162.529C162.529 278.926 162.529 279.711 162.529 280.013C162.471 281.135 162.832 282.238 163.541 283.109C164.885 284.377 165.595 285.193 167.784 287.322C169.974 289.451 170.306 291.958 168.675 292.879Z" fill="#09003C"/>
<path d="M163.134 279.696C162.938 281.599 160.416 283.169 157.305 284.03C154.859 284.725 149.755 283.939 149.755 282.716C149.755 277.688 152.111 244.315 151.643 233.971C150.872 216.651 151.643 175.804 151.643 175.804L172.285 162.047C172.237 178.312 171.264 194.562 169.371 210.716C167.876 222.782 164.237 268.794 163.134 279.696Z" fill="#09003C"/>
<path d="M139.198 85.2767L161.456 84.8086L157.53 121.262L139.198 85.2767Z" fill="#928CBE"/>
<path d="M161.471 84.793L157.53 121.261V172.603C157.53 172.603 157.53 179.716 163.132 178.055C169.731 176.077 173.144 169.764 173.25 167.001C173.914 149.167 173.914 149.469 173.914 118.316V93.6269L161.471 84.793Z" fill="#25216F"/>
<path d="M157.53 121.262L139.213 85.2773C131.663 90.5928 121.983 96.9652 121.983 96.9652L129.217 128.556L133.052 154.152C133.052 154.152 130.817 174.341 129.775 185.757C129.247 191.571 146.129 191.48 153.499 185.047C156.76 182.209 157.591 176.576 157.591 171.759L157.53 121.262Z" fill="#25216F"/>
<path d="M157.501 59.7553C155.475 58.8804 153.29 58.4332 151.084 58.4415C144.847 58.4415 140.513 64.2251 140.513 70.5221V78.8123C140.513 82.7989 149.211 89.3828 154.542 90.4701C155.223 90.6619 155.95 90.6084 156.595 90.319C157.229 89.8621 157.747 89.2619 158.105 88.5674C158.512 87.4732 158.776 86.3313 158.891 85.1697L157.501 59.7553Z" fill="#E39E76"/>
<path d="M150.976 46.7383C143.32 46.7383 138.02 53.8658 138.02 61.5218V66.9279C138.02 75.49 150.433 86.7853 158.089 86.7853C161.924 86.7853 162.619 82.1796 164.205 77.4379C165.322 74.0101 164.854 64.1342 164.854 59.9212C164.854 52.2349 158.647 46.7383 150.976 46.7383Z" fill="#F5BB95"/>
<path d="M140.512 78.75C141.047 81.059 142.399 83.0968 144.317 84.4883C147.73 87.1762 153.695 91.5554 156.549 90.2718L150.342 95.4815C150.342 95.4815 139.168 88.0973 139.168 84.6695C139.168 81.2416 139.092 79.9581 140.512 78.75Z" fill="#B2AFD4"/>
<path d="M158.679 86.7259C158.458 88.1253 157.713 89.3884 156.595 90.2594L160.597 93.0681L161.473 84.793C160.791 85.7391 159.805 86.4217 158.679 86.7259Z" fill="#B2AFD4"/>
<path d="M157.983 94.9093V91.2399L156.594 90.2734L152.049 94.0637L155.054 96.963L157.983 94.9093Z" fill="#191454"/>
<path d="M155.054 96.9638L153.197 112.744L157.531 121.261L158.92 108.727L157.984 94.9102L155.054 96.9638Z" fill="#191454"/>
<g style="mix-blend-mode:multiply">
<path d="M144.997 119.827L134.894 88.312L137.733 86.2734L157.53 121.262L144.997 119.827Z" fill="#191454"/>
</g>
<g style="mix-blend-mode:multiply">
<path d="M157.531 121.262L168.207 104.726L164.824 86.9076L161.457 84.8086L157.531 121.262Z" fill="#191454"/>
</g>
<path d="M157.53 121.262L146.22 118.74L134.894 88.3126L139.198 85.2773L157.53 121.262Z" fill="#25216F"/>
<path d="M157.531 121.261L166.818 104.288L164.825 86.9071C163.812 86.0492 162.683 85.3376 161.473 84.793L157.531 121.261Z" fill="#25216F"/>
<path d="M189.062 138.763C184.32 123.194 175.471 98.9125 173.75 94.3672V149.334L180.56 151.387C187.567 153.335 191.69 147.416 189.062 138.763Z" fill="#1A1556"/>
<path d="M180.151 151.205L148.198 142.144L150.675 134.035L183.217 140.498L180.151 151.205Z" fill="#1A1556"/>
<path d="M165.715 144.696C165.715 144.696 172.45 136.994 173.899 138.867C173.68 137.289 173.107 135.782 172.223 134.457C170.562 132.268 168.146 132.283 165.609 134.019L161.472 136.873L165.715 144.696Z" fill="#F5BB95"/>
<path d="M165.715 144.98C158.101 149.826 150.193 154.193 142.037 158.058C139.153 159.341 135.997 157.454 134.381 154.751C128.174 144.18 114.191 103.031 121.983 96.9603C128.461 91.9167 133.097 104.888 135.921 115.081C137.975 122.631 141.584 137.355 143.079 141.281C143.638 142.791 144.408 143.153 145.646 142.685C151.315 140.406 156.837 137.779 162.181 134.818C163.615 136.049 164.697 137.638 165.317 139.423C165.938 141.208 166.075 143.125 165.715 144.98Z" fill="#25216F"/>
<path d="M150.357 134.821C145.485 133.494 140.458 132.819 135.408 132.812C135.248 132.814 135.09 132.848 134.943 132.912C134.796 132.975 134.663 133.067 134.553 133.182C134.442 133.297 134.355 133.434 134.297 133.583C134.239 133.732 134.211 133.891 134.215 134.051C134.223 134.37 134.355 134.673 134.584 134.896C134.812 135.119 135.119 135.244 135.438 135.244C136.133 135.244 138.987 135.742 139.651 135.772C139.334 135.893 139.002 136.014 138.685 136.165C138.538 136.228 138.406 136.321 138.296 136.436C138.186 136.552 138.101 136.688 138.044 136.838C137.988 136.987 137.962 137.146 137.968 137.305C137.975 137.465 138.013 137.621 138.081 137.766C138.146 137.91 138.239 138.041 138.355 138.15C138.471 138.259 138.607 138.344 138.756 138.4C138.904 138.456 139.063 138.482 139.221 138.477C139.38 138.472 139.537 138.435 139.681 138.37L140.029 138.234C139.817 138.37 139.606 138.505 139.409 138.656C139.154 138.854 138.988 139.144 138.945 139.463C138.903 139.783 138.988 140.106 139.183 140.363C139.38 140.613 139.667 140.777 139.983 140.82C140.298 140.862 140.618 140.779 140.874 140.589L141.418 140.227C141.221 140.423 141.025 140.604 140.844 140.816C140.634 141.062 140.531 141.382 140.556 141.705C140.582 142.027 140.734 142.327 140.98 142.537C141.198 142.726 141.477 142.828 141.765 142.824C141.94 142.824 142.113 142.786 142.272 142.713C142.43 142.64 142.572 142.534 142.686 142.401C143.123 141.892 143.631 141.449 144.196 141.088C143.894 141.344 143.592 141.616 143.305 141.903C143.119 142.146 143.031 142.45 143.058 142.754C143.085 143.059 143.225 143.342 143.45 143.549C143.676 143.755 143.97 143.87 144.276 143.87C144.582 143.87 144.877 143.756 145.102 143.549C145.982 142.651 147.072 141.986 148.274 141.616L150.357 134.821Z" fill="#F5BB95"/>
<path d="M143.335 70.6116C143.834 71.9496 144.576 73.1835 145.525 74.2509C146.073 74.9317 146.824 75.4192 147.669 75.642C148.515 75.8648 149.409 75.8112 150.221 75.4891C152.71 74.5418 155.326 73.9669 157.983 73.7827C164.31 73.2844 164.748 74.2811 164.748 74.2811C164.658 75.5478 164.466 76.8051 164.174 78.0411C162.86 82.8582 161.365 86.7542 158.134 86.7542C152.667 86.7542 144.785 81.0009 140.723 74.5982C141.719 73.828 141.78 71.7743 140.723 69.8113C140.442 69.0561 139.966 68.3894 139.342 67.8798C138.718 67.3702 137.97 67.0361 137.174 66.9119C133.052 55.1636 141.191 46.0881 151.973 46.4354C161.577 46.7374 163.253 52.1435 167.27 53.9858C168.013 54.2785 168.811 54.4071 169.608 54.3628C170.406 54.3185 171.184 54.1023 171.891 53.729C171.423 57.2324 167.285 60.5998 159.81 60.5998C154.238 60.5998 151.308 58.6217 147.141 61.3247C145.65 62.3141 144.49 63.7281 143.812 65.3837C143.133 67.0394 142.967 68.8606 143.335 70.6116ZM152.199 79.9589C156.246 81.469 160.097 82.1183 162.77 78.5546C163.449 77.6485 163.736 76.6368 162.906 76.5764C161.273 76.4891 159.636 76.5447 158.013 76.7425C156.041 77.0018 154.124 77.578 152.335 78.4488C151.761 78.6754 151.369 79.5965 152.199 79.9589Z" fill="#09003C"/>
<path d="M140.724 69.8141C141.796 71.9282 141.66 74.148 140.437 74.7672C139.214 75.3863 137.417 74.148 136.284 72.0339C135.152 69.9198 135.348 67.685 136.586 67.0658C137.824 66.4467 139.667 67.6849 140.724 69.8141Z" fill="#F5BB95"/>
<path d="M441.877 329.875L487.662 362.039L441.877 394.159L396.107 362.039L441.877 329.875Z" stroke="url(#paint22_linear_1509_6010)" stroke-width="1.01174" stroke-linecap="round" stroke-linejoin="round"/>
<path d="M441.876 368.516L474.463 391.408L441.876 414.271L409.288 391.408L441.876 368.516Z" stroke="url(#paint23_linear_1509_6010)" stroke-width="1.01174" stroke-linecap="round" stroke-linejoin="round"/>
<path d="M441.876 403.355L457.43 414.288L441.876 425.191L426.337 414.288L441.876 403.355Z" stroke="url(#paint24_linear_1509_6010)" stroke-width="1.01174" stroke-linecap="round" stroke-linejoin="round"/>
<path d="M441.876 377.41L504.212 333.693V326.098L441.876 369.829V377.41Z" fill="url(#paint25_linear_1509_6010)"/>
<path d="M441.876 377.41L379.54 333.693V326.098L441.876 369.829V377.41Z" fill="url(#paint26_linear_1509_6010)"/>
<path d="M441.876 282.34L504.212 326.147L441.876 369.878L379.541 326.147L441.876 282.34Z" fill="url(#paint27_linear_1509_6010)"/>
<g style="mix-blend-mode:multiply" opacity="0.8">
<path d="M441.876 288.469L495.483 326.145L441.876 363.746L388.284 326.145L441.876 288.469Z" fill="#3A3469"/>
</g>
<path d="M444.232 341.91C445.363 342.368 446.591 342.536 447.804 342.399C449.018 342.262 450.177 341.824 451.178 341.124C454.832 338.557 462.458 333.8 462.458 333.091V327.941H450.377C450.377 327.941 450.377 328.727 450.377 329.029C450.42 330.155 450.055 331.259 449.351 332.139C447.992 333.393 447.282 334.208 445.092 336.337C442.903 338.467 442.601 341.003 444.232 341.91Z" fill="#09003C"/>
<path d="M450.016 329.485C450.016 330.119 452.296 331.855 456.056 332.58C458.563 333.064 462.534 331.689 462.534 330.859C462.534 325.83 460.058 293.319 460.526 282.99C461.296 265.654 461.553 218.661 461.553 218.661L439.944 210.355C439.944 210.355 438.856 216.939 440.23 230.319C441.741 244.619 441.091 263.782 442.752 276.27C444.262 288.35 450.016 318.552 450.016 329.485Z" fill="#09003C"/>
<path d="M422.926 327.398C424.056 327.86 425.284 328.032 426.497 327.897C427.71 327.763 428.871 327.327 429.872 326.628C433.527 324.061 441.152 319.304 441.152 318.58V313.445H429.072C429.072 313.445 429.072 314.231 429.072 314.533C429.123 315.653 428.763 316.754 428.06 317.628C426.716 318.897 425.991 319.712 423.817 321.826C421.642 323.94 421.31 326.492 422.926 327.398Z" fill="#09003C"/>
<path d="M428.483 314.232C428.679 316.15 431.201 317.72 434.296 318.581C436.758 319.26 441.847 318.49 441.847 317.267C441.847 312.239 439.491 278.851 439.944 268.522C440.729 251.187 439.944 210.354 439.944 210.354L419.15 196.598C419.234 212.865 420.242 229.114 422.171 245.267C423.681 257.333 427.365 303.344 428.483 314.232Z" fill="#09003C"/>
<path d="M452.402 119.823L430.129 119.34L434.07 155.808L452.402 119.823Z" fill="#928CBE"/>
<path d="M434.069 155.794L452.371 119.824L462.397 126.771V163.012L458.622 188.683C458.622 188.683 460.842 208.873 461.884 220.289C462.413 226.103 445.545 225.997 438.176 219.579C434.914 216.725 434.069 211.108 434.069 206.291V155.794Z" fill="#25216F"/>
<path d="M434.114 94.2903C436.142 93.4213 438.326 92.9742 440.532 92.9766C446.769 92.9766 451.103 98.7752 451.103 105.057V113.347C451.103 117.334 442.42 123.918 437.089 124.99C436.405 125.19 435.672 125.142 435.02 124.854C434.38 124.398 433.861 123.791 433.51 123.087C433.096 122.001 432.832 120.863 432.725 119.705L434.114 94.2903Z" fill="#E39E76"/>
<path d="M440.623 81.2578C448.279 81.2578 453.595 88.3702 453.595 96.0263V101.432C453.595 110.009 441.182 121.305 433.526 121.305C429.69 121.305 428.996 116.775 427.486 111.957C426.353 108.53 426.836 98.6538 426.836 94.4407C426.7 86.7847 432.967 81.2578 440.623 81.2578Z" fill="#F5BB95"/>
<path d="M451.088 113.301C450.544 115.61 449.181 117.643 447.252 119.024C443.84 121.712 437.875 126.091 435.006 124.807L441.227 130.002C441.227 130.002 452.371 122.633 452.371 119.22C452.371 115.807 452.522 114.509 451.088 113.301Z" fill="#B2AFD4"/>
<path d="M432.922 121.258C433.148 122.659 433.892 123.926 435.006 124.806L431.004 127.615L430.143 119.34C430.824 120.277 431.805 120.953 432.922 121.258Z" fill="#B2AFD4"/>
<path d="M433.616 129.46V125.79L435.005 124.809L439.535 128.614L436.545 131.513L433.616 129.46Z" fill="#191454"/>
<path d="M436.546 131.515L438.403 147.295L434.069 155.812L432.665 143.278L433.616 129.461L436.546 131.515Z" fill="#191454"/>
<g style="mix-blend-mode:multiply">
<path d="M446.603 154.374L456.69 122.844L453.867 120.82L434.07 155.809L446.603 154.374Z" fill="#191454"/>
</g>
<g style="mix-blend-mode:multiply">
<path d="M434.069 155.808L423.393 139.273L426.776 121.454L430.128 119.34L434.069 155.808Z" fill="#191454"/>
</g>
<path d="M434.07 155.809L445.38 153.287L456.69 122.844L452.402 119.824L434.07 155.809Z" fill="#25216F"/>
<path d="M434.069 155.793L424.798 138.85L426.7 121.439C427.723 120.59 428.856 119.884 430.068 119.34L434.069 155.793Z" fill="#25216F"/>
<path d="M439.746 80.3957C430.142 80.6977 428.451 86.1188 424.434 87.946C423.691 88.2381 422.895 88.3677 422.097 88.326C421.3 88.2844 420.522 88.0724 419.813 87.7044C420.296 91.2078 424.343 94.5601 431.894 94.5601C437.466 94.5601 440.395 92.5819 444.563 95.2849C446.934 96.795 448.837 98.5316 448.036 105.433H450.407C450.604 105.433 452.068 106.142 453.216 103.923C460.057 90.7547 451.434 79.9578 439.746 80.3957Z" fill="#09003C"/>
<path d="M450.86 104.345C449.803 106.475 449.939 108.694 451.162 109.314C452.386 109.933 454.183 108.694 455.3 106.565C456.417 104.436 456.236 102.216 455.013 101.597C453.79 100.978 451.948 102.216 450.86 104.345Z" fill="#F5BB95"/>
<path d="M466.053 231.102C466.053 231.102 468.439 245.447 461.221 246.897V231.6L466.053 231.102Z" fill="#F5BB95"/>
<path d="M458.29 123.902C458.29 123.902 459.921 125.125 462.397 126.832C465.508 128.961 468.302 134.548 468.302 139.29V233.231C468.302 233.231 464.27 233.881 461.944 232.204C460.07 230.669 458.78 228.537 458.29 226.164V123.902Z" fill="#25216F"/>
<g style="mix-blend-mode:multiply">
<path d="M458.85 225.607L458.291 159.164L457.747 225.607C457.745 225.68 457.758 225.753 457.784 225.822C457.81 225.891 457.85 225.953 457.9 226.007C457.951 226.06 458.011 226.103 458.078 226.133C458.145 226.162 458.217 226.179 458.291 226.181C458.438 226.177 458.578 226.117 458.682 226.013C458.786 225.909 458.846 225.769 458.85 225.622V225.607Z" fill="#0E0542"/>
</g>
<g style="mix-blend-mode:multiply">
<path d="M434.069 155.797C433.843 160.206 433.737 164.601 433.647 168.995C433.556 173.389 433.556 177.799 433.511 182.193C433.465 186.587 433.511 190.997 433.647 195.406C433.782 199.815 433.843 204.195 434.069 208.604C434.311 204.195 434.417 199.8 434.507 195.406C434.598 191.012 434.507 186.602 434.628 182.193C434.749 177.783 434.628 173.404 434.492 168.995C434.356 164.585 434.251 160.206 434.069 155.797Z" fill="#0E0542"/>
</g>
<path d="M364.691 229.969C364.691 220.682 357.141 204.071 347.356 197.2C342.206 193.591 337.736 193.259 334.656 195.343L345.906 187.37L346.253 187.113C349.273 185.075 353.803 185.422 358.908 189.016C368.663 195.872 376.213 212.482 376.213 221.784C376.213 226.541 374.386 230.588 371.335 232.566L360.221 240.434C363.015 238.425 364.691 234.529 364.691 229.969Z" fill="url(#paint28_linear_1509_6010)"/>
<path d="M330.217 206.203C330.217 217.876 337.767 232.372 347.613 239.243C357.458 246.114 364.691 239.485 364.691 229.971C364.691 220.458 357.141 204.073 347.356 197.203C337.571 190.332 330.217 195.345 330.217 206.203Z" fill="url(#paint29_linear_1509_6010)"/>
<path d="M333.402 208.421C333.402 217.904 339.579 229.713 347.537 235.3C355.495 240.888 361.444 235.481 361.444 227.75C361.444 220.018 355.313 206.609 347.34 201.097C339.367 195.586 333.402 199.587 333.402 208.421Z" fill="url(#paint30_linear_1509_6010)"/>
<g style="mix-blend-mode:multiply">
<path d="M341.224 194.318L352.851 186.148C353.464 186.283 354.064 186.465 354.648 186.692L343.021 194.846C342.435 194.628 341.835 194.451 341.224 194.318Z" fill="#594E83"/>
<path d="M360.705 190.389L349.093 198.544C348.7 198.196 348.277 197.894 347.87 197.592L359.482 189.453C359.89 189.755 360.297 190.057 360.705 190.389Z" fill="#594E83"/>
<path d="M365.265 195.148L353.667 203.272C353.365 202.894 353.048 202.502 352.731 202.139L364.313 194C364.646 194.362 364.948 194.725 365.265 195.148Z" fill="#594E83"/>
<path d="M369.011 200.477L357.413 208.601C357.157 208.178 356.9 207.756 356.628 207.348L368.21 199.254C368.482 199.631 368.754 200.039 369.011 200.477Z" fill="#594E83"/>
<path d="M372.091 206.246L360.509 214.355C360.297 213.902 360.086 213.464 359.859 213.011L371.441 204.887C371.683 205.294 371.879 205.793 372.091 206.246Z" fill="#594E83"/>
<path d="M374.521 212.498L362.954 220.607C362.788 220.124 362.637 219.64 362.456 219.097L374.038 210.973C374.204 211.516 374.37 212 374.521 212.498Z" fill="#594E83"/>
<path d="M376.077 219.357L364.51 227.466C364.51 226.937 364.374 226.379 364.268 225.82L375.836 217.711C375.941 218.27 376.002 218.889 376.077 219.357Z" fill="#594E83"/>
<path d="M375.004 228.051L363.513 236.1C363.827 235.353 364.074 234.58 364.253 233.789L375.774 225.695C375.586 226.501 375.328 227.289 375.004 228.051Z" fill="#594E83"/>
</g>
<g style="mix-blend-mode:multiply">
<path d="M339.397 214.686C338.617 213.958 338.056 213.026 337.775 211.997C337.495 210.967 337.508 209.88 337.812 208.857C338.058 208.065 338.483 207.339 339.054 206.737C339.625 206.135 340.326 205.672 341.104 205.384C341.667 205.172 342.271 205.089 342.87 205.142V203.27L345.03 204.78V206.093L346.011 206.803V205.504L348.488 207.181V208.464L355.706 213.342V217.585L353.698 216.211V228.578L355.706 229.952V234.271L353.698 232.897L351.735 231.538L348.488 229.318V230.964L346.011 229.182V227.582L344.985 226.887V228.397L342.825 226.887V225.377L339.971 223.414C339.016 222.718 338.3 221.743 337.924 220.623C337.548 219.503 337.53 218.293 337.872 217.162C338.154 216.217 338.68 215.362 339.397 214.686ZM343.701 209.431C343.507 209.282 343.284 209.177 343.047 209.123C342.809 209.068 342.562 209.065 342.323 209.113C342.084 209.162 341.859 209.261 341.661 209.405C341.464 209.548 341.299 209.732 341.179 209.944C341.072 210.356 341.088 210.789 341.225 211.192C341.362 211.595 341.614 211.948 341.949 212.209L347.657 216.105L349.847 217.615V213.553C347.084 211.65 344.275 209.823 343.701 209.431ZM341.949 220.484L349.847 225.86V221.904L346.736 219.79L343.716 217.751C343.522 217.601 343.298 217.494 343.059 217.437C342.821 217.379 342.573 217.374 342.332 217.419C342.09 217.465 341.862 217.561 341.66 217.702C341.459 217.842 341.29 218.024 341.164 218.234C341.058 218.645 341.076 219.078 341.215 219.478C341.355 219.879 341.611 220.229 341.949 220.484Z" fill="#594E83"/>
</g>
<path d="M292.964 208.603C292.964 199.316 285.413 182.705 275.628 175.834C270.479 172.21 266.009 171.893 262.928 173.977L274.178 166.034L274.526 165.777C277.546 163.739 282.076 164.086 287.18 167.68C296.98 174.536 304.516 191.161 304.516 200.448C304.516 205.205 302.673 209.237 299.638 211.23L288.524 219.098C291.287 217.059 292.964 213.163 292.964 208.603Z" fill="url(#paint31_linear_1509_6010)"/>
<path d="M258.428 184.832C258.428 196.504 265.978 211.001 275.808 217.872C285.639 224.743 292.902 218.113 292.902 208.6C292.902 199.313 285.352 182.702 275.567 175.832C265.782 168.961 258.428 173.974 258.428 184.832Z" fill="url(#paint32_linear_1509_6010)"/>
<path d="M261.674 187.054C261.674 196.537 267.85 208.331 275.808 213.918C283.766 219.505 289.716 214.114 289.716 206.368C289.716 198.621 283.585 185.227 275.612 179.715C267.639 174.203 261.674 178.22 261.674 187.054Z" fill="url(#paint33_linear_1509_6010)"/>
<g style="mix-blend-mode:multiply">
<path d="M269.496 172.947L281.124 164.777C281.738 164.91 282.34 165.097 282.921 165.336L271.293 173.475C270.708 173.257 270.107 173.08 269.496 172.947Z" fill="#594E83"/>
<path d="M288.978 169.049L277.365 177.188C276.972 176.841 276.55 176.539 276.142 176.237L287.754 168.098C288.162 168.385 288.63 168.687 288.978 169.049Z" fill="#594E83"/>
<path d="M293.537 173.777L281.94 181.901C281.638 181.523 281.321 181.131 280.988 180.753L292.586 172.629C292.918 172.991 293.16 173.384 293.537 173.777Z" fill="#594E83"/>
<path d="M297.283 179.091L285.61 187.17C285.354 186.732 285.097 186.324 284.825 185.917L296.407 177.777C296.755 178.261 297.026 178.668 297.283 179.091Z" fill="#594E83"/>
<path d="M300.363 184.875L288.781 193.014C288.57 192.546 288.358 192.093 288.132 191.64L299.714 183.516C299.94 183.969 300.152 184.422 300.363 184.875Z" fill="#594E83"/>
<path d="M302.794 191.127L291.227 199.236C291.061 198.753 290.91 198.269 290.729 197.726L302.311 189.602C302.477 190.19 302.643 190.628 302.794 191.127Z" fill="#594E83"/>
<path d="M304.35 197.986L292.782 206.095C292.782 205.551 292.647 205.008 292.541 204.449L304.108 196.34C304.214 196.899 304.289 197.442 304.35 197.986Z" fill="#594E83"/>
<path d="M303.277 206.68L291.785 214.729C292.099 213.977 292.347 213.198 292.525 212.403L304.047 204.324C303.859 205.13 303.601 205.918 303.277 206.68Z" fill="#594E83"/>
</g>
<g style="mix-blend-mode:multiply">
<path d="M267.669 193.318C266.889 192.59 266.328 191.659 266.048 190.63C265.767 189.6 265.78 188.513 266.084 187.49C266.328 186.695 266.752 185.966 267.323 185.362C267.894 184.757 268.596 184.291 269.376 184.001C269.942 183.801 270.544 183.724 271.143 183.775V181.902L273.302 183.412V184.726L274.329 185.421V184.152L276.805 185.829V187.127L284.023 191.99V196.233L282 194.859V207.226L284.023 208.6V212.844L282 211.469L280.037 210.11L276.79 207.891V209.506L274.314 207.8V206.199L273.287 205.505V207.015L271.127 205.505V203.995L268.183 201.986C267.227 201.291 266.512 200.315 266.136 199.195C265.76 198.075 265.742 196.866 266.084 195.735C266.383 194.8 266.931 193.965 267.669 193.318ZM272.018 188.063C271.825 187.915 271.602 187.81 271.364 187.755C271.126 187.701 270.88 187.698 270.641 187.746C270.402 187.795 270.176 187.894 269.979 188.037C269.781 188.181 269.617 188.365 269.497 188.577C269.389 188.988 269.405 189.422 269.542 189.825C269.679 190.227 269.931 190.581 270.267 190.842L275.929 194.723L278.059 196.233V192.156C275.356 190.283 272.547 188.411 272.018 188.063ZM270.267 199.117L278.059 204.493V200.521L274.948 198.407C273.513 197.426 272.305 196.625 271.928 196.354C271.732 196.207 271.507 196.102 271.268 196.048C271.029 195.993 270.782 195.989 270.541 196.036C270.301 196.083 270.073 196.18 269.872 196.32C269.671 196.461 269.502 196.642 269.376 196.852C269.273 197.271 269.298 197.711 269.449 198.115C269.6 198.519 269.869 198.868 270.221 199.117H270.267Z" fill="#594E83"/>
</g>
<path d="M329.929 159.102C329.929 149.815 322.379 133.204 312.594 126.333C307.445 122.709 302.975 122.392 299.894 124.476L311.144 116.503L311.492 116.246C314.512 114.207 319.042 114.555 324.146 118.149C333.931 125.004 341.481 141.615 341.481 150.932C341.481 155.689 339.654 159.736 336.604 161.714L325.505 169.582C328.253 167.543 329.929 163.662 329.929 159.102Z" fill="url(#paint34_linear_1509_6010)"/>
<path d="M295.454 135.335C295.454 147.008 303.004 161.505 312.85 168.376C322.695 175.247 329.929 168.617 329.929 159.104C329.929 149.817 322.378 133.206 312.593 126.335C302.808 119.465 295.454 124.478 295.454 135.335Z" fill="url(#paint35_linear_1509_6010)"/>
<path d="M298.641 137.554C298.641 147.037 304.817 158.831 312.79 164.418C320.763 170.005 326.683 164.629 326.683 156.868C326.683 149.106 320.552 135.727 312.594 130.215C304.636 124.703 298.641 128.72 298.641 137.554Z" fill="url(#paint36_linear_1509_6010)"/>
<g style="mix-blend-mode:multiply">
<path d="M306.464 123.451L318.106 115.281C318.717 115.42 319.318 115.602 319.903 115.825L308.261 123.994C307.678 123.762 307.077 123.58 306.464 123.451Z" fill="#594E83"/>
<path d="M325.943 119.537L314.301 127.677C313.893 127.329 313.485 127.027 313.062 126.725L324.675 118.586C325.128 118.888 325.551 119.22 325.943 119.537Z" fill="#594E83"/>
<path d="M330.503 124.28L318.921 132.405L317.969 131.257L329.567 123.133C329.884 123.495 330.201 123.888 330.503 124.28Z" fill="#594E83"/>
<path d="M334.249 129.595L322.667 137.734C322.41 137.311 322.138 136.889 321.866 136.466L333.449 128.281C333.721 128.764 333.932 129.172 334.249 129.595Z" fill="#594E83"/>
<path d="M337.329 135.394L325.747 143.503C325.535 143.05 325.324 142.597 325.098 142.144L336.68 134.035C336.952 134.473 337.118 134.926 337.329 135.394Z" fill="#594E83"/>
<path d="M339.76 141.631L328.193 149.74C328.042 149.256 327.876 148.773 327.694 148.23L339.277 140.105C339.443 140.649 339.609 141.132 339.76 141.631Z" fill="#594E83"/>
<path d="M341.315 148.49L329.748 156.599C329.748 156.055 329.612 155.512 329.522 154.953L341.074 146.844C341.18 147.402 341.255 147.916 341.315 148.49Z" fill="#594E83"/>
<path d="M340.243 157.184L328.766 165.248C329.066 164.487 329.309 163.704 329.491 162.907L341.013 154.828C340.831 155.636 340.573 156.425 340.243 157.184Z" fill="#594E83"/>
</g>
<g style="mix-blend-mode:multiply">
<path d="M304.636 143.818C303.869 143.082 303.321 142.147 303.055 141.118C302.788 140.089 302.813 139.006 303.126 137.99C303.37 137.196 303.794 136.47 304.365 135.868C304.936 135.265 305.639 134.803 306.418 134.516C306.962 134.337 307.538 134.271 308.109 134.32V132.402L310.268 133.912V135.226L311.28 135.83V134.532L313.756 136.208V137.491L320.975 142.369V146.612L318.951 145.238V157.605L320.975 158.98V163.298L318.951 161.924L316.988 160.565L313.772 158.481V159.991L311.28 158.315V156.714L310.253 156.005V157.605L308.094 156.095V154.585L305.074 152.577C304.12 151.88 303.406 150.904 303.03 149.785C302.654 148.665 302.635 147.456 302.975 146.325C303.285 145.352 303.86 144.484 304.636 143.818ZM308.939 138.563C308.747 138.415 308.525 138.31 308.288 138.256C308.052 138.201 307.806 138.198 307.569 138.247C307.331 138.296 307.106 138.395 306.91 138.538C306.714 138.681 306.551 138.865 306.433 139.077C306.318 139.487 306.328 139.921 306.463 140.325C306.597 140.729 306.85 141.083 307.188 141.342L312.896 145.238L315.085 146.748V142.671C312.322 140.783 309.528 138.85 308.939 138.563ZM307.188 149.617L315.085 154.993V151.021L312.065 148.907C310.555 147.926 309.423 147.125 309.045 146.854C308.851 146.705 308.628 146.598 308.389 146.543C308.151 146.487 307.904 146.482 307.664 146.529C307.424 146.576 307.197 146.674 306.997 146.816C306.798 146.958 306.631 147.141 306.508 147.352C306.383 147.754 306.381 148.185 306.502 148.588C306.623 148.992 306.862 149.35 307.188 149.617Z" fill="#594E83"/>
</g>
<path d="M335.146 75.7597C334.794 76.5828 334.679 77.4874 334.813 78.3721C334.841 78.5741 334.827 78.7796 334.773 78.9761C334.718 79.1726 334.625 79.356 334.498 79.5155C334.371 79.6749 334.213 79.807 334.034 79.9038C333.854 80.0005 333.657 80.06 333.454 80.0785H333.273C332.897 80.0804 332.535 79.9422 332.255 79.6909C331.976 79.4396 331.801 79.0932 331.763 78.7194C331.523 77.0595 331.836 75.3668 332.654 73.9023C333.391 74.6384 334.23 75.264 335.146 75.7597Z" fill="#BC7860"/>
<path d="M332.23 73.4805C332.94 74.2667 333.759 74.948 334.661 75.504C334.586 75.5351 334.515 75.5757 334.45 75.6248C333.888 76.0799 333.464 76.683 333.227 77.3661C332.989 78.0491 332.947 78.7849 333.106 79.4905C333.133 79.6925 333.119 79.8979 333.065 80.0944C333.011 80.2909 332.918 80.4744 332.791 80.6339C332.664 80.7933 332.506 80.9254 332.326 81.0222C332.147 81.1189 331.95 81.1784 331.747 81.1969H331.565C331.19 81.1988 330.827 81.0606 330.548 80.8093C330.269 80.558 330.093 80.2116 330.055 79.8378C329.856 78.6808 329.951 77.4923 330.331 76.3815C330.711 75.2707 331.364 74.2731 332.23 73.4805Z" fill="#D0856B"/>
<path d="M331.385 72.877L331.642 72.7109C331.77 72.9243 331.917 73.1264 332.08 73.315C332.616 73.9378 333.225 74.4954 333.892 74.976C333.65 75.0888 333.418 75.2201 333.197 75.3687C332.634 75.8232 332.208 76.4256 331.968 77.1084C331.728 77.7913 331.683 78.5274 331.838 79.2344C331.865 79.4364 331.851 79.6418 331.797 79.8383C331.743 80.0348 331.65 80.2183 331.523 80.3778C331.396 80.5372 331.238 80.6693 331.058 80.7661C330.879 80.8628 330.682 80.9223 330.479 80.9408H330.298C329.92 80.9423 329.555 80.802 329.275 80.5476C328.996 80.2932 328.822 79.9431 328.788 79.5667C328.565 78.3206 328.69 77.0375 329.148 75.8577C329.606 74.6778 330.38 73.6467 331.385 72.877Z" fill="#E19D7E"/>
<path d="M329.589 72.9497L329.936 72.7383C330.752 73.2819 331.522 73.7953 332.005 74.0973C332.488 74.3993 332.715 74.5353 333.107 74.7618C332.492 74.8456 331.906 75.0789 331.401 75.4413C330.839 75.8969 330.415 76.4995 330.175 77.182C329.935 77.8644 329.889 78.6001 330.042 79.3071C330.069 79.5091 330.055 79.7145 330.001 79.911C329.947 80.1075 329.854 80.291 329.727 80.4504C329.6 80.6099 329.442 80.7419 329.262 80.8387C329.083 80.9355 328.886 80.9949 328.683 81.0134H328.547C328.171 81.0153 327.808 80.8771 327.529 80.6258C327.25 80.3745 327.075 80.0282 327.037 79.6544C326.805 78.4102 326.921 77.1262 327.371 75.9434C327.821 74.7606 328.589 73.7248 329.589 72.9497Z" fill="#EFAC8A"/>
<path d="M325.421 68.0878C325.507 67.8992 325.631 67.7305 325.786 67.5921C325.941 67.4537 326.122 67.3487 326.319 67.2835C326.516 67.2183 326.724 67.1944 326.931 67.2133C327.137 67.2322 327.338 67.2934 327.52 67.3932C327.52 67.3932 334.119 70.9267 336.429 71.8328C337.516 72.2556 339.842 73.0106 340.778 73.4787C341.986 74.0828 345.308 76.3479 345.308 76.3479L355.788 81.6784L347.392 86.873L343.33 84.3965C341.004 82.7201 338.121 82.0061 335.281 82.4032C334.104 82.4938 331.733 82.5844 331.28 82.5542C331.077 82.5448 330.879 82.4946 330.696 82.4068C330.513 82.319 330.35 82.1954 330.216 82.0432C330.083 81.891 329.981 81.7134 329.917 81.521C329.853 81.3286 329.829 81.1254 329.845 80.9234C329.894 80.5231 330.089 80.1549 330.393 79.89C330.697 79.6251 331.088 79.4821 331.491 79.4888C333.122 79.3831 334.088 79.3076 335.115 79.2774C336.142 79.2472 336.625 77.4804 336.006 76.9066C334.76 75.8234 333.398 74.8815 331.944 74.0979C330.434 73.1465 326.055 70.1868 326.055 70.1868C325.871 70.0948 325.709 69.9664 325.577 69.8094C325.444 69.6524 325.346 69.4701 325.286 69.2737C325.227 69.0773 325.208 68.8708 325.231 68.6669C325.254 68.463 325.319 68.266 325.421 68.0878Z" fill="#F5BB95"/>
<path d="M430.143 119.341L434.069 155.794V207.136C434.069 207.136 434.069 214.248 428.467 212.572C421.868 210.594 418.063 204.282 418.35 201.534C419.996 185.225 421.657 162.347 421.657 162.347L416.326 134.064L422.623 115.43L430.143 119.341Z" fill="#25216F"/>
<path d="M342.801 87.3852L416.311 134.076L422.623 115.427L350.321 77.5547C347.749 77.5929 345.295 78.6459 343.496 80.4842C341.246 83.2023 342.801 87.3852 342.801 87.3852Z" fill="#211D65"/>
</g>
<defs>
<linearGradient id="paint0_linear_1509_6010" x1="412.188" y1="323.142" x2="358.128" y2="294.269" gradientUnits="userSpaceOnUse">
<stop stop-color="#30338C"/>
<stop offset="0.84" stop-color="#6E6AAB"/>
<stop offset="1" stop-color="#7A75B1"/>
</linearGradient>
<linearGradient id="paint1_linear_1509_6010" x1="242.804" y1="352.15" x2="242.804" y2="262.678" gradientUnits="userSpaceOnUse">
<stop stop-color="#9186BB"/>
<stop offset="1" stop-color="#C7C4E1"/>
</linearGradient>
<linearGradient id="paint2_linear_1509_6010" x1="434.659" y1="242.76" x2="161.11" y2="236.327" gradientUnits="userSpaceOnUse">
<stop stop-color="#786FAD"/>
<stop offset="1" stop-color="#B2B3D7"/>
</linearGradient>
<linearGradient id="paint3_linear_1509_6010" x1="467.184" y1="217.828" x2="411.931" y2="188.336" gradientUnits="userSpaceOnUse">
<stop stop-color="#30338C"/>
<stop offset="0.84" stop-color="#6E6AAB"/>
<stop offset="1" stop-color="#7A75B1"/>
</linearGradient>
<linearGradient id="paint4_linear_1509_6010" x1="345.822" y1="270.441" x2="345.822" y2="107.143" gradientUnits="userSpaceOnUse">
<stop stop-color="#9186BB"/>
<stop offset="1" stop-color="#C7C4E1"/>
</linearGradient>
<linearGradient id="paint5_linear_1509_6010" x1="441.544" y1="79.2496" x2="260.019" y2="74.9761" gradientUnits="userSpaceOnUse">
<stop stop-color="#B2B3D7"/>
<stop offset="1" stop-color="#786FAD"/>
</linearGradient>
<linearGradient id="paint6_linear_1509_6010" x1="175.454" y1="99.6736" x2="237.472" y2="100.294" gradientUnits="userSpaceOnUse">
<stop stop-color="#30338C"/>
<stop offset="0.84" stop-color="#6E6AAB"/>
<stop offset="1" stop-color="#7A75B1"/>
</linearGradient>
<linearGradient id="paint7_linear_1509_6010" x1="80.6958" y1="191.015" x2="81.5414" y2="191.024" gradientUnits="userSpaceOnUse">
<stop stop-color="#30338C"/>
<stop offset="0.84" stop-color="#6E6AAB"/>
<stop offset="1" stop-color="#7A75B1"/>
</linearGradient>
<linearGradient id="paint8_linear_1509_6010" x1="-1.3451" y1="208.209" x2="80.0928" y2="209.023" gradientUnits="userSpaceOnUse">
<stop stop-color="#30338C"/>
<stop offset="0.84" stop-color="#6E6AAB"/>
<stop offset="1" stop-color="#7A75B1"/>
</linearGradient>
<linearGradient id="paint9_linear_1509_6010" x1="48.8557" y1="248.855" x2="189.141" y2="117.313" gradientUnits="userSpaceOnUse">
<stop stop-color="#827DB6"/>
<stop offset="1" stop-color="#B2B3D7"/>
</linearGradient>
<linearGradient id="paint10_linear_1509_6010" x1="124.281" y1="106.365" x2="197.746" y2="107.099" gradientUnits="userSpaceOnUse">
<stop stop-color="#30338C"/>
<stop offset="0.84" stop-color="#6E6AAB"/>
<stop offset="1" stop-color="#7A75B1"/>
</linearGradient>
<linearGradient id="paint11_linear_1509_6010" x1="46.2941" y1="141.106" x2="145.083" y2="142.094" gradientUnits="userSpaceOnUse">
<stop stop-color="#30338C"/>
<stop offset="0.84" stop-color="#6E6AAB"/>
<stop offset="1" stop-color="#7A75B1"/>
</linearGradient>
<linearGradient id="paint12_linear_1509_6010" x1="313.038" y1="443.038" x2="255.067" y2="351.679" gradientUnits="userSpaceOnUse">
<stop stop-color="#9186BB"/>
<stop offset="1" stop-color="#C7C4E1"/>
</linearGradient>
<linearGradient id="paint13_linear_1509_6010" x1="338.648" y1="441.002" x2="313.188" y2="381.324" gradientUnits="userSpaceOnUse">
<stop stop-color="#30338C"/>
<stop offset="0.04" stop-color="#35378E"/>
<stop offset="0.29" stop-color="#53529D"/>
<stop offset="0.54" stop-color="#6965A8"/>
<stop offset="0.78" stop-color="#7671AF"/>
<stop offset="1" stop-color="#7A75B1"/>
</linearGradient>
<linearGradient id="paint14_linear_1509_6010" x1="335.19" y1="351.122" x2="246.775" y2="351.122" gradientUnits="userSpaceOnUse">
<stop stop-color="#C7C4E1"/>
<stop offset="1" stop-color="#9186BB"/>
</linearGradient>
<linearGradient id="paint15_linear_1509_6010" x1="272.219" y1="359.836" x2="311.828" y2="310.321" gradientUnits="userSpaceOnUse">
<stop stop-color="#181B5E"/>
<stop offset="0.27" stop-color="#3C3C7D"/>
<stop offset="0.58" stop-color="#5E5B99"/>
<stop offset="0.83" stop-color="#736EAB"/>
<stop offset="1" stop-color="#7A75B1"/>
</linearGradient>
<linearGradient id="paint16_linear_1509_6010" x1="193.683" y1="327.466" x2="102.127" y2="327.466" gradientUnits="userSpaceOnUse">
<stop stop-color="#742AA7"/>
<stop offset="1" stop-color="#0D3E93"/>
</linearGradient>
<linearGradient id="paint17_linear_1509_6010" x1="180.483" y1="356.854" x2="115.309" y2="356.854" gradientUnits="userSpaceOnUse">
<stop stop-color="#742AA7"/>
<stop offset="1" stop-color="#0D3E93"/>
</linearGradient>
<linearGradient id="paint18_linear_1509_6010" x1="163.45" y1="379.731" x2="132.343" y2="379.731" gradientUnits="userSpaceOnUse">
<stop stop-color="#742AA7"/>
<stop offset="1" stop-color="#0D3E93"/>
</linearGradient>
<linearGradient id="paint19_linear_1509_6010" x1="99.7254" y1="326.283" x2="133.355" y2="308.343" gradientUnits="userSpaceOnUse">
<stop stop-color="#30338C"/>
<stop offset="0.84" stop-color="#6E6AAB"/>
<stop offset="1" stop-color="#7A75B1"/>
</linearGradient>
<linearGradient id="paint20_linear_1509_6010" x1="179.065" y1="343.528" x2="179.065" y2="310.427" gradientUnits="userSpaceOnUse">
<stop stop-color="#9186BB"/>
<stop offset="1" stop-color="#C7C4E1"/>
</linearGradient>
<linearGradient id="paint21_linear_1509_6010" x1="86.7089" y1="293.001" x2="205.974" y2="290.192" gradientUnits="userSpaceOnUse">
<stop stop-color="#786FAD"/>
<stop offset="1" stop-color="#B2B3D7"/>
</linearGradient>
<linearGradient id="paint22_linear_1509_6010" x1="487.662" y1="362.017" x2="396.107" y2="362.017" gradientUnits="userSpaceOnUse">
<stop stop-color="#742AA7"/>
<stop offset="1" stop-color="#0D3E93"/>
</linearGradient>
<linearGradient id="paint23_linear_1509_6010" x1="474.463" y1="391.393" x2="409.288" y2="391.393" gradientUnits="userSpaceOnUse">
<stop stop-color="#742AA7"/>
<stop offset="1" stop-color="#0D3E93"/>
</linearGradient>
<linearGradient id="paint24_linear_1509_6010" x1="457.43" y1="414.273" x2="426.337" y2="414.273" gradientUnits="userSpaceOnUse">
<stop stop-color="#742AA7"/>
<stop offset="1" stop-color="#0D3E93"/>
</linearGradient>
<linearGradient id="paint25_linear_1509_6010" x1="490.047" y1="360.829" x2="456.433" y2="342.89" gradientUnits="userSpaceOnUse">
<stop stop-color="#30338C"/>
<stop offset="0.84" stop-color="#6E6AAB"/>
<stop offset="1" stop-color="#7A75B1"/>
</linearGradient>
<linearGradient id="paint26_linear_1509_6010" x1="410.708" y1="378.074" x2="410.708" y2="344.973" gradientUnits="userSpaceOnUse">
<stop stop-color="#9186BB"/>
<stop offset="1" stop-color="#C7C4E1"/>
</linearGradient>
<linearGradient id="paint27_linear_1509_6010" x1="503.064" y1="327.551" x2="383.814" y2="324.743" gradientUnits="userSpaceOnUse">
<stop stop-color="#786FAD"/>
<stop offset="1" stop-color="#B2B3D7"/>
</linearGradient>
<linearGradient id="paint28_linear_1509_6010" x1="370.142" y1="232.415" x2="346.389" y2="187.491" gradientUnits="userSpaceOnUse">
<stop stop-color="#30338C"/>
<stop offset="0.84" stop-color="#6E6AAB"/>
<stop offset="1" stop-color="#7A75B1"/>
</linearGradient>
<linearGradient id="paint29_linear_1509_6010" x1="336.242" y1="225.728" x2="359.134" y2="209.721" gradientUnits="userSpaceOnUse">
<stop stop-color="#C7C4E1"/>
<stop offset="1" stop-color="#7768A8"/>
</linearGradient>
<linearGradient id="paint30_linear_1509_6010" x1="356.023" y1="212.619" x2="338.461" y2="223.476" gradientUnits="userSpaceOnUse">
<stop stop-color="#30338C"/>
<stop offset="0.84" stop-color="#6E6AAB"/>
<stop offset="1" stop-color="#7A75B1"/>
</linearGradient>
<linearGradient id="paint31_linear_1509_6010" x1="298.415" y1="211.049" x2="274.662" y2="166.125" gradientUnits="userSpaceOnUse">
<stop stop-color="#30338C"/>
<stop offset="0.84" stop-color="#6E6AAB"/>
<stop offset="1" stop-color="#7A75B1"/>
</linearGradient>
<linearGradient id="paint32_linear_1509_6010" x1="264.513" y1="204.357" x2="287.406" y2="188.35" gradientUnits="userSpaceOnUse">
<stop stop-color="#C7C4E1"/>
<stop offset="1" stop-color="#7768A8"/>
</linearGradient>
<linearGradient id="paint33_linear_1509_6010" x1="284.295" y1="191.252" x2="266.733" y2="202.109" gradientUnits="userSpaceOnUse">
<stop stop-color="#30338C"/>
<stop offset="0.84" stop-color="#6E6AAB"/>
<stop offset="1" stop-color="#7A75B1"/>
</linearGradient>
<linearGradient id="paint34_linear_1509_6010" x1="335.381" y1="161.548" x2="311.627" y2="116.624" gradientUnits="userSpaceOnUse">
<stop stop-color="#30338C"/>
<stop offset="0.84" stop-color="#6E6AAB"/>
<stop offset="1" stop-color="#7A75B1"/>
</linearGradient>
<linearGradient id="paint35_linear_1509_6010" x1="301.494" y1="154.861" x2="324.387" y2="138.854" gradientUnits="userSpaceOnUse">
<stop stop-color="#C7C4E1"/>
<stop offset="1" stop-color="#7768A8"/>
</linearGradient>
<linearGradient id="paint36_linear_1509_6010" x1="321.261" y1="141.752" x2="303.714" y2="152.609" gradientUnits="userSpaceOnUse">
<stop stop-color="#30338C"/>
<stop offset="0.84" stop-color="#6E6AAB"/>
<stop offset="1" stop-color="#7A75B1"/>
</linearGradient>
<clipPath id="clip0_1509_6010">
<rect width="504.362" height="450" fill="white"/>
</clipPath>
</defs>
</svg>
