<svg width="445" height="450" viewBox="0 0 445 450" fill="none" xmlns="http://www.w3.org/2000/svg">
<path d="M158.19 239.316L77.0654 182.359V35.6094L158.19 92.566V239.316Z" fill="url(#paint0_linear_1509_4914)"/>
<path d="M158.193 239.315L163.919 235.461V88.7109L158.193 92.5648V239.315Z" fill="url(#paint1_linear_1509_4914)"/>
<path d="M82.806 31.0742L77.0678 35.6089L158.193 92.5655L163.919 88.7117L82.806 31.0742Z" fill="url(#paint2_linear_1509_4914)"/>
<g style="mix-blend-mode:multiply">
<path d="M151.503 104.586L82.3284 56.0299V51.3008L151.503 99.8446V104.586Z" fill="#594E83"/>
<path d="M151.503 118.031L82.3284 69.4874V64.7461L151.503 113.302V118.031Z" fill="#594E83"/>
<path d="M151.503 131.488L82.3284 82.9323V78.2031L151.503 126.747V131.488Z" fill="#594E83"/>
<path d="M151.503 144.937L82.3284 96.3815V91.6523L151.503 140.208V144.937Z" fill="#594E83"/>
<path d="M151.503 158.383L82.3284 109.839V105.098L151.503 153.654V158.383Z" fill="#594E83"/>
<path d="M151.503 171.828L82.3284 123.284V118.555L151.503 167.099V171.828Z" fill="#594E83"/>
<path d="M151.503 185.285L82.3284 136.729V132L151.503 180.544V185.285Z" fill="#594E83"/>
<path d="M151.503 198.734L82.3284 150.191V145.449L151.503 194.005V198.734Z" fill="#594E83"/>
<path d="M151.503 212.191L82.3284 163.635V158.906L151.503 207.45V212.191Z" fill="#594E83"/>
<path d="M151.503 225.637L82.3284 177.081V172.352L151.503 220.908V225.637Z" fill="#594E83"/>
</g>
<path d="M323.836 210.209L183.153 109.778V7.51172L323.836 107.93V210.209Z" fill="url(#paint3_linear_1509_4914)"/>
<path d="M323.821 210.212L335.383 202.747V100.48L323.821 107.933V210.212Z" fill="url(#paint4_linear_1509_4914)"/>
<path d="M194.7 0L183.15 7.5618L323.821 107.981H323.833L335.383 100.528L194.7 0Z" fill="url(#paint5_linear_1509_4914)"/>
<path d="M272.716 103.541V152.571L220.865 87.0195L272.716 103.541Z" fill="white"/>
<path d="M211.222 401.47C217.982 396.498 262.453 365.728 280.385 353.181C282.172 351.966 284.239 350.434 285.6 349.473C290.013 346.398 288.64 338.082 288.64 338.082L209.472 393.592V402.102C210.104 402.064 210.712 401.844 211.222 401.47Z" fill="url(#paint6_linear_1509_4914)"/>
<path d="M207.88 401.568C197.875 394.553 104.544 328.819 72.5581 306.34C68.0235 303.167 69.3729 295.398 69.3729 295.398L209.473 393.592V402.102C208.903 402.071 208.353 401.886 207.88 401.568Z" fill="url(#paint7_linear_1509_4914)"/>
<path d="M148.625 239.863L288.64 338.106L209.472 393.64L69.3722 295.373L148.625 239.863Z" fill="url(#paint8_linear_1509_4914)"/>
<g style="mix-blend-mode:soft-light">
<path d="M149.051 245.699L278.72 336.769L235.221 367.417L105.492 276.335L149.051 245.699Z" fill="white"/>
</g>
<g style="mix-blend-mode:soft-light">
<path d="M143.395 309.109L185.836 339.332L162.956 355.441L120.491 325.218L143.395 309.109Z" fill="white"/>
</g>
<path d="M288.641 338.081C289.283 338.066 289.915 337.923 290.501 337.662C291.088 337.4 291.617 337.026 292.057 336.559C292.498 336.092 292.842 335.542 293.07 334.942C293.297 334.342 293.403 333.702 293.382 333.06V241.541C293.29 240.693 293.043 239.868 292.653 239.109L288.641 241.322V338.081Z" fill="url(#paint9_linear_1509_4914)"/>
<path d="M288.64 338.091L148.747 239.861V143.113L288.64 241.332V338.091Z" fill="url(#paint10_linear_1509_4914)"/>
<g style="mix-blend-mode:multiply">
<path d="M288.64 338.091L148.747 239.861V143.113L288.64 241.332V338.091Z" fill="#47417D"/>
</g>
<path d="M158.826 144.367C189.511 165.824 277.602 227.802 290.44 236.591C291.398 237.169 292.167 238.014 292.652 239.023L288.64 241.26L148.747 143.151C148.747 143.151 152.212 139.771 158.826 144.367Z" fill="url(#paint11_linear_1509_4914)"/>
<g style="mix-blend-mode:multiply">
<path d="M283.025 327.465L153.174 236.322V152.984L283.025 244.139V327.465Z" fill="#594E83"/>
</g>
<g style="mix-blend-mode:soft-light" opacity="0.39">
<path d="M212.742 195.027L282.707 244.143V327.468L153.318 236.654L212.742 195.027Z" fill="white"/>
</g>
<g style="mix-blend-mode:soft-light" opacity="0.39">
<path d="M283.327 327.355L158.059 239.422L192.719 215.059L283.327 278.69V327.355Z" fill="white"/>
</g>
<g style="mix-blend-mode:soft-light" opacity="0.39">
<path d="M282.707 268.078L242.503 239.472L259.256 227.68L282.707 244.141V268.078Z" fill="white"/>
</g>
<g style="mix-blend-mode:multiply">
<path d="M222.514 387.148L211.986 394.601V397.859L222.514 390.407V387.148Z" fill="#47417D"/>
<path d="M236.213 377.473L225.685 384.925V388.171L236.213 380.731V377.473Z" fill="#47417D"/>
<path d="M267.484 355.59L241.152 374.081V377.339L267.484 358.848V355.59Z" fill="#47417D"/>
<path d="M286.315 342.41L275.787 349.85V353.121L286.315 345.668V342.41Z" fill="#47417D"/>
</g>
<path d="M370.418 359.04L252.846 275.106V189.641L370.418 273.574V359.04Z" fill="url(#paint12_linear_1509_4914)"/>
<path d="M370.422 359.042L380.075 352.805V267.34L370.422 273.577V359.042Z" fill="url(#paint13_linear_1509_4914)"/>
<path d="M262.515 183.367H262.503L252.85 189.689L370.422 273.61L380.075 267.374L262.515 183.367Z" fill="url(#paint14_linear_1509_4914)"/>
<g style="mix-blend-mode:soft-light">
<path d="M291.689 240.641L304.029 285.233L347.211 270.645L365.775 308.247V349.363L310.983 310.35L257.199 272.104V249.54L291.689 240.641Z" fill="white"/>
<path d="M307.567 274.815C306.236 274.77 304.916 274.553 303.64 274.171L295.544 245.152C297.104 243.156 299.109 241.554 301.4 240.473C303.69 239.392 306.202 238.863 308.734 238.927C317.937 239.231 325.122 247.522 324.794 257.43C324.466 267.339 316.77 275.119 307.567 274.815Z" fill="white"/>
</g>
<path d="M397.217 375.488L431.841 399.815L397.217 424.093L362.605 399.815L397.217 375.488Z" stroke="url(#paint15_linear_1509_4914)" stroke-width="0.758285" stroke-linecap="round" stroke-linejoin="round"/>
<path d="M397.218 404.715L421.86 422.015L397.218 439.302L372.587 422.015L397.218 404.715Z" stroke="url(#paint16_linear_1509_4914)" stroke-width="0.758285" stroke-linecap="round" stroke-linejoin="round"/>
<path d="M397.218 431.051L408.974 439.318L397.218 447.56L385.474 439.318L397.218 431.051Z" stroke="url(#paint17_linear_1509_4914)" stroke-width="0.758285" stroke-linecap="round" stroke-linejoin="round"/>
<path d="M397.216 411.423L444.35 378.367V372.629L397.216 405.697V411.423Z" fill="url(#paint18_linear_1509_4914)"/>
<path d="M397.218 411.423L350.096 378.367V372.629L397.218 405.697V411.423Z" fill="url(#paint19_linear_1509_4914)"/>
<path d="M397.216 339.551L444.35 372.667L397.216 405.723L350.095 372.667L397.216 339.551Z" fill="url(#paint20_linear_1509_4914)"/>
<g style="mix-blend-mode:multiply" opacity="0.8">
<path d="M397.215 344.18L437.747 372.664L397.215 401.088L356.695 372.664L397.215 344.18Z" fill="#3A3469"/>
</g>
<path d="M399.054 383.536C399.908 383.887 400.836 384.019 401.753 383.919C402.671 383.82 403.549 383.491 404.306 382.965C407.066 381.019 412.816 377.421 412.816 376.886V373.008H403.747C403.747 373.008 403.747 373.591 403.747 373.822C403.785 374.671 403.513 375.505 402.981 376.169C401.96 377.129 401.413 377.737 399.772 379.342C398.13 380.946 397.827 382.855 399.054 383.536Z" fill="#09003C"/>
<path d="M403.43 374.135C403.43 374.61 405.145 375.923 407.941 376.47C409.825 376.847 412.804 375.801 412.804 375.169C412.804 371.376 410.944 346.794 411.296 338.977C411.88 325.883 412.062 290.348 412.062 290.348L395.723 284.062C395.723 284.062 394.908 289.047 395.954 299.162C397.06 309.97 396.598 324.461 397.85 333.907C399.078 343.037 403.43 365.869 403.43 374.135Z" fill="#09003C"/>
<path d="M382.944 372.569C383.798 372.921 384.727 373.052 385.645 372.95C386.563 372.848 387.44 372.517 388.196 371.986C390.968 370.053 396.706 366.454 396.706 365.907V361.98H387.576C387.576 361.98 387.576 362.564 387.576 362.795C387.614 363.644 387.342 364.478 386.81 365.141C385.789 366.102 385.254 366.71 383.601 368.314C381.947 369.919 381.716 371.889 382.944 372.569Z" fill="#09003C"/>
<path d="M387.15 362.622C387.296 364.069 389.193 365.248 391.551 365.904C393.399 366.415 397.229 365.832 397.229 364.908C397.229 361.115 395.441 335.864 395.794 328.059C396.378 314.954 395.794 284.074 395.794 284.074L380.184 273.68C380.226 285.974 380.965 298.257 382.397 310.467C383.552 319.585 386.311 354.379 387.15 362.622Z" fill="#09003C"/>
<path d="M405.945 215.111L389.108 214.746L392.086 242.319L405.945 215.111Z" fill="#928CBE"/>
<path d="M389.155 214.734L392.134 242.307V281.125C392.134 281.125 392.134 286.499 387.891 285.234C382.906 283.739 380.329 278.973 380.244 276.882C379.733 263.4 379.746 263.631 379.746 240.082V221.409L389.155 214.734Z" fill="#25216F"/>
<path d="M392.087 242.301L405.946 215.105C411.66 219.117 418.967 223.932 418.967 223.932L413.545 247.821L410.651 267.151C410.651 267.151 412.329 282.42 413.083 291.052C413.484 295.44 400.719 295.368 395.151 290.505C392.719 288.353 392.051 284.098 392.051 280.463L392.087 242.301Z" fill="#25216F"/>
<path d="M392.124 195.806C393.66 195.144 395.315 194.805 396.987 194.809C401.704 194.809 404.962 199.197 404.962 203.914V210.175C404.962 213.19 398.397 218.175 394.373 218.989C393.853 219.128 393.301 219.089 392.805 218.88C392.3 218.536 391.884 218.078 391.589 217.543C391.281 216.721 391.08 215.863 390.993 214.99L392.124 195.806Z" fill="#E39E76"/>
<path d="M397.046 185.941C402.833 185.941 406.845 191.327 406.845 197.114V201.199C406.845 207.679 397.459 216.225 391.673 216.225C388.767 216.225 388.232 212.736 387.053 209.15C386.19 206.56 386.554 199.096 386.554 195.91C386.554 190.123 391.247 185.941 397.046 185.941Z" fill="#F5BB95"/>
<path d="M404.8 203.401C403.985 205.017 404.095 206.695 405.019 207.157C405.942 207.619 407.341 206.695 408.143 205.09C408.945 203.486 408.86 201.796 407.924 201.334C406.988 200.872 405.602 201.796 404.8 203.401Z" fill="#F5BB95"/>
<path d="M404.961 210.176C404.551 211.924 403.518 213.463 402.055 214.504C399.478 216.534 394.98 219.841 392.804 218.88L397.509 222.807C397.509 222.807 406.019 217.239 406.019 214.637C406.019 212.036 406.031 211.088 404.961 210.176Z" fill="#B2AFD4"/>
<path d="M391.223 216.195C391.395 217.257 391.959 218.215 392.804 218.881L389.777 220.96L389.108 214.699C389.617 215.429 390.365 215.958 391.223 216.195Z" fill="#B2AFD4"/>
<path d="M400.011 194.807L405.385 191.27C406.345 193.069 406.846 195.078 406.844 197.117V201.202C406.85 201.242 406.85 201.283 406.844 201.324C404.959 202.029 404.351 204.703 404.351 204.703L402.844 203.646V201.093C400.741 200.813 398.966 197.105 398.297 195.525C398.881 195.316 399.453 195.076 400.011 194.807Z" fill="#09003C"/>
<path d="M386.479 196.521V195.913C386.479 190.126 391.172 185.944 396.971 185.944C398.748 185.874 400.504 186.345 402.007 187.296C403.509 188.248 404.687 189.633 405.384 191.269L400.01 194.807C400.01 194.807 392.801 198.345 386.479 196.521Z" fill="#09003C"/>
<path d="M391.745 222.392V219.608L392.79 218.879L396.219 221.748L393.958 223.936L391.745 222.392Z" fill="#191454"/>
<path d="M393.956 223.935L395.354 235.873L392.084 242.316L391.027 232.834L391.744 222.391L393.956 223.935Z" fill="#191454"/>
<g style="mix-blend-mode:multiply">
<path d="M401.557 241.239L409.191 217.399L407.052 215.867L392.086 242.321L401.557 241.239Z" fill="#191454"/>
</g>
<g style="mix-blend-mode:multiply">
<path d="M392.083 242.319L384.011 229.809L386.564 216.339L389.104 214.746L392.083 242.319Z" fill="#191454"/>
</g>
<path d="M392.086 242.313L400.645 240.405L409.191 217.391L405.945 215.105L392.086 242.313Z" fill="#25216F"/>
<path d="M392.083 242.307L385.068 229.469L386.564 216.339C387.348 215.687 388.22 215.147 389.153 214.734L392.083 242.307Z" fill="#25216F"/>
<path d="M407.392 285.391C398.736 285.221 404.134 279.921 406.018 279.86C408.017 279.781 409.96 279.172 411.647 278.097C412.242 277.696 412.315 276.942 411.647 276.991L411.452 275.167C412.048 274.936 413.008 274.608 413.884 274.353C416.656 273.526 418.637 272.334 419.683 273.891C422.151 277.489 414.686 285.574 407.392 285.391Z" fill="#F5BB95"/>
<path d="M419.985 280.174C419.985 280.174 431.194 270.558 441.382 263.033C443.29 261.61 444.008 256.869 442.597 254.96C439.339 250.498 428.617 234.986 420.094 224.798C414.186 217.747 407.876 219.352 405.846 221.589C401.834 225.977 406.989 229.612 412.192 235.727C417.672 242.41 422.754 249.408 427.413 256.687C427.745 257.149 427.923 257.704 427.923 258.273C427.923 258.842 427.745 259.397 427.413 259.86C421.334 265.719 413.25 273.232 413.25 273.232C413.25 273.232 415.073 278.959 419.985 280.174Z" fill="#25216F"/>
<path d="M350.887 244.614L379.724 221.406V236.506L357.719 254.146C357.093 254.594 356.385 254.914 355.636 255.088C354.886 255.262 354.11 255.287 353.35 255.161C352.591 255.035 351.864 254.761 351.211 254.354C350.558 253.947 349.991 253.416 349.543 252.79C349.096 252.164 348.775 251.456 348.601 250.707C348.427 249.957 348.402 249.181 348.528 248.422C348.654 247.662 348.928 246.935 349.335 246.282C349.742 245.629 350.273 245.062 350.899 244.614H350.887Z" fill="#25216F"/>
<path d="M379.612 263.156C381.501 264.441 382.888 266.339 383.539 268.53C384.169 270.917 384.198 273.423 383.624 275.824C383.561 276.08 383.416 276.308 383.213 276.475C383.009 276.641 382.756 276.737 382.493 276.748H382.262C382.044 276.703 381.843 276.595 381.686 276.437C381.528 276.279 381.42 276.079 381.375 275.861C381.312 276.116 381.167 276.345 380.963 276.511C380.76 276.678 380.507 276.774 380.244 276.784H380.013C379.803 276.734 379.61 276.629 379.454 276.479C379.298 276.33 379.184 276.141 379.126 275.933C379.062 276.172 378.921 276.384 378.726 276.535C378.531 276.687 378.291 276.77 378.044 276.772H377.8C377.586 276.719 377.39 276.608 377.233 276.452C377.077 276.296 376.966 276.1 376.913 275.885C376.85 276.141 376.706 276.369 376.502 276.535C376.298 276.702 376.045 276.798 375.782 276.809H375.551C375.261 276.731 375.01 276.549 374.847 276.298C374.683 276.047 374.618 275.744 374.664 275.447C375.025 273.823 375.099 272.149 374.883 270.499C374.786 269.831 374.619 269.175 374.384 268.542L379.612 263.156Z" fill="#F5BB95"/>
<path d="M349.475 246.21C349.889 245.635 350.412 245.148 351.015 244.776C351.617 244.404 352.287 244.155 352.986 244.042C353.685 243.929 354.399 243.955 355.088 244.118C355.777 244.282 356.427 244.579 357.001 244.994L380.513 263.157L373.218 269.771L350.642 253.784C350.065 253.366 349.576 252.838 349.204 252.229C348.832 251.621 348.585 250.945 348.477 250.241C348.368 249.536 348.4 248.817 348.572 248.125C348.743 247.433 349.05 246.782 349.475 246.21Z" fill="#25216F"/>
<path d="M167.359 358.262L187.211 344.621L208.912 355.745L180.051 375.525C175.589 378.88 168.733 376.862 165.389 372.4C164.59 371.343 164.006 370.138 163.673 368.855C163.339 367.572 163.261 366.236 163.444 364.923C163.627 363.61 164.067 362.346 164.739 361.203C165.41 360.06 166.301 359.06 167.359 358.262Z" fill="#09003C"/>
<path d="M159.457 439.603C160.539 440.044 161.714 440.207 162.876 440.078C164.038 439.948 165.148 439.53 166.107 438.861C169.608 436.43 176.902 431.847 176.902 431.166V422.887H165.341C165.341 422.887 165.341 426.996 165.341 427.275C165.39 428.348 165.049 429.402 164.38 430.242C163.092 431.458 162.399 432.236 160.308 434.266C158.217 436.296 157.901 438.74 159.457 439.603Z" fill="#09003C"/>
<path d="M165.331 426.949L162.632 368.059C162.557 366.95 162.712 365.836 163.085 364.789C163.459 363.741 164.043 362.781 164.803 361.969C165.563 361.156 166.481 360.509 167.502 360.066C168.522 359.623 169.622 359.395 170.735 359.395C171.847 359.395 172.947 359.623 173.968 360.066C174.988 360.509 175.907 361.156 176.666 361.969C177.426 362.781 178.011 363.741 178.384 364.789C178.758 365.836 178.912 366.95 178.837 368.059L179.688 375.633L176.868 429.539L165.331 426.949Z" fill="#09003C"/>
<path d="M180.987 368.122L200.839 354.493L221.689 353.703C221.689 353.703 222.358 358.104 222.832 361.095C223.354 364.329 221.215 366.553 216.984 369.495C212.121 372.851 193.63 385.397 193.63 385.397C189.168 388.74 182.312 386.734 178.968 382.273C177.361 380.128 176.671 377.433 177.05 374.78C177.428 372.126 178.844 369.732 180.987 368.122Z" fill="#09003C"/>
<path d="M173.087 449.514C174.169 449.952 175.344 450.115 176.506 449.985C177.667 449.856 178.777 449.439 179.737 448.772C183.238 446.341 190.532 441.757 190.532 441.064V432.785H178.971C178.971 432.785 178.971 436.894 178.971 437.186C179.018 438.258 178.677 439.311 178.01 440.152C176.722 441.368 176.029 442.146 173.938 444.176C171.847 446.207 171.543 448.614 173.087 449.514Z" fill="#09003C"/>
<path d="M178.957 436.812L176.259 377.91C176.259 375.756 177.114 373.691 178.637 372.168C180.16 370.645 182.226 369.789 184.38 369.789C186.533 369.789 188.599 370.645 190.122 372.168C191.645 373.691 192.501 375.756 192.501 377.91L193.352 385.496L190.531 439.401L178.957 436.812Z" fill="#09003C"/>
<path d="M215.394 279.76L197.474 279.371L200.635 308.719L215.394 279.76Z" fill="#928CBE"/>
<path d="M197.474 279.371L200.635 308.719V350.053C200.635 350.053 200.635 355.779 196.124 354.43C190.812 352.837 188.064 347.768 187.979 345.543C187.444 331.173 187.444 331.416 187.444 306.348V286.459L197.474 279.371Z" fill="#25216F"/>
<path d="M200.634 308.716L215.405 279.758C221.483 284.025 229.252 289.155 229.252 289.155L223.489 314.564L220.414 335.231C220.414 335.231 222.201 351.498 223.04 360.689C223.465 365.369 209.873 365.284 203.941 360.105C201.315 357.819 200.634 353.297 200.634 349.407V308.716Z" fill="#25216F"/>
<path d="M200.72 259.202C202.351 258.498 204.11 258.138 205.886 258.145C210.907 258.145 214.396 262.813 214.396 267.87V274.447C214.396 277.657 207.394 282.958 203.102 283.833C202.552 283.994 201.962 283.955 201.437 283.723C200.92 283.358 200.502 282.869 200.221 282.301C199.887 281.426 199.67 280.51 199.577 279.578L200.72 259.202Z" fill="#E39E76"/>
<path d="M205.922 248.711C212.085 248.711 216.353 254.437 216.353 260.601V264.953C216.353 271.846 206.359 280.952 200.196 280.952C197.108 280.952 196.548 277.244 195.333 273.427C194.433 270.655 194.81 262.716 194.81 259.312C194.749 253.16 199.746 248.711 205.922 248.711Z" fill="#F5BB95"/>
<path d="M214.179 267.298C213.316 269.012 213.425 270.799 214.41 271.286C215.395 271.772 216.842 270.799 217.753 269.085C218.665 267.371 218.507 265.584 217.51 265.086C216.513 264.587 215.03 265.584 214.179 267.298Z" fill="#F5BB95"/>
<path d="M214.347 274.449C213.903 276.312 212.802 277.952 211.247 279.069C208.499 281.221 203.709 284.759 201.387 283.725L206.396 287.907C206.396 287.907 215.392 281.975 215.392 279.203C215.392 276.431 215.49 275.47 214.347 274.449Z" fill="#B2AFD4"/>
<path d="M199.723 280.915C199.899 282.043 200.494 283.063 201.389 283.772L198.179 286.033L197.474 279.371C198.025 280.128 198.819 280.672 199.723 280.915Z" fill="#B2AFD4"/>
<path d="M209.083 258.148L214.796 254.379C215.818 256.295 216.353 258.432 216.353 260.603V265.089C214.347 265.831 213.69 268.737 213.69 268.737L212.085 267.606V264.883C209.848 264.591 207.964 260.64 207.222 258.962C208.39 258.488 209.083 258.148 209.083 258.148Z" fill="#09003C"/>
<path d="M194.641 259.972V259.328C194.641 253.176 199.637 248.726 205.801 248.726C207.693 248.649 209.564 249.15 211.164 250.162C212.765 251.174 214.019 252.649 214.761 254.392L209.047 258.161C209.047 258.161 201.412 261.905 194.641 259.972Z" fill="#09003C"/>
<path d="M200.283 287.506V284.551L201.389 283.773L205.049 286.837L202.642 289.159L200.283 287.506Z" fill="#191454"/>
<path d="M202.643 289.157L204.126 301.874L200.637 308.718L199.518 298.64L200.284 287.504L202.643 289.157Z" fill="#191454"/>
<g style="mix-blend-mode:multiply">
<path d="M210.724 307.576L218.857 282.192L216.584 280.562L200.634 308.719L210.724 307.576Z" fill="#191454"/>
</g>
<g style="mix-blend-mode:multiply">
<path d="M200.635 308.719L192.052 295.419L194.763 281.061L197.474 279.371L200.635 308.719Z" fill="#191454"/>
</g>
<path d="M200.634 308.716L209.752 306.698L218.857 282.189L215.393 279.758L200.634 308.716Z" fill="#25216F"/>
<path d="M200.635 308.72L193.17 295.116L194.763 281.123C195.583 280.436 196.495 279.867 197.474 279.434L200.635 308.72Z" fill="#25216F"/>
<path d="M175.191 322.219C176.966 313.539 177.999 304.92 179.738 298.111C182.278 288.179 184.904 287.96 187.53 286.465V330.729L181.999 332.383C176.406 333.951 173.732 329.343 175.191 322.219Z" fill="#1A1556"/>
<path d="M182.34 332.233L208.064 324.927L206.083 318.398L179.872 323.614L182.34 332.233Z" fill="#1A1556"/>
<path d="M195.322 328.036C195.322 328.036 189.9 321.824 188.733 323.343C188.908 322.069 189.369 320.851 190.082 319.781C191.432 318.018 193.377 318.031 195.407 319.441L198.738 321.739L195.322 328.036Z" fill="#F5BB95"/>
<path d="M194.639 329.742C194.639 329.742 205.909 335.055 214.346 338.787C216.668 339.821 219.209 338.301 220.51 336.125C222.941 331.943 229.02 321.536 231.719 311.689C234.49 301.525 233.737 292.006 230.503 289.599C222.88 283.97 219.805 293.891 217.531 302.133C215.866 308.212 214.723 322.156 213.507 325.329C213.069 326.545 212.449 326.824 211.453 326.448C206.886 324.619 202.44 322.503 198.14 320.114C198.14 320.114 193.788 324.43 194.639 329.742Z" fill="#25216F"/>
<path d="M206.273 319.043C210.196 317.975 214.243 317.431 218.309 317.426C218.567 317.426 218.814 317.528 218.996 317.711C219.179 317.893 219.281 318.14 219.281 318.398C219.281 318.656 219.179 318.904 218.996 319.086C218.814 319.268 218.567 319.371 218.309 319.371C217.749 319.371 215.452 319.784 214.917 319.809C215.172 319.906 215.44 319.991 215.695 320.113C215.906 320.235 216.064 320.431 216.138 320.662C216.213 320.894 216.199 321.146 216.099 321.368C216 321.59 215.821 321.767 215.598 321.866C215.375 321.964 215.124 321.976 214.892 321.9L214.613 321.79C214.783 321.9 214.953 322.009 215.111 322.131C215.275 322.254 215.397 322.426 215.457 322.622C215.518 322.818 215.515 323.028 215.449 323.222C215.383 323.416 215.257 323.585 215.089 323.703C214.922 323.821 214.721 323.884 214.516 323.881C214.305 323.884 214.099 323.815 213.932 323.687L213.494 323.395L213.969 323.869C214.133 324.07 214.212 324.328 214.189 324.587C214.167 324.846 214.044 325.085 213.847 325.255C213.669 325.402 213.446 325.484 213.215 325.486C213.073 325.486 212.933 325.454 212.804 325.393C212.676 325.332 212.563 325.243 212.473 325.133C212.118 324.73 211.709 324.378 211.257 324.088C211.508 324.294 211.748 324.513 211.975 324.744C212.124 324.94 212.196 325.184 212.174 325.43C212.152 325.675 212.04 325.903 211.858 326.069C211.677 326.236 211.439 326.328 211.193 326.328C210.947 326.328 210.71 326.236 210.528 326.07C209.82 325.346 208.942 324.811 207.975 324.513L206.273 319.043Z" fill="#F5BB95"/>
<path d="M50.8331 345.797L13.9725 371.692L50.8331 397.55L87.6816 371.692L50.8331 345.797Z" stroke="url(#paint21_linear_1509_4914)" stroke-width="0.80643" stroke-linecap="round" stroke-linejoin="round"/>
<path d="M50.8325 376.91L24.5973 395.341L50.8325 413.747L77.0557 395.341L50.8325 376.91Z" stroke="url(#paint22_linear_1509_4914)" stroke-width="0.80643" stroke-linecap="round" stroke-linejoin="round"/>
<path d="M50.831 404.957L38.3091 413.759L50.831 422.536L63.3408 413.759L50.831 404.957Z" stroke="url(#paint23_linear_1509_4914)" stroke-width="0.80643" stroke-linecap="round" stroke-linejoin="round"/>
<path d="M50.832 384.072L0.64706 348.865V342.762L50.832 377.969V384.072Z" fill="url(#paint24_linear_1509_4914)"/>
<path d="M50.8326 384.072L101.018 348.865V342.762L50.8326 377.969V384.072Z" fill="url(#paint25_linear_1509_4914)"/>
<path d="M50.8326 307.531L0.647636 342.799L50.8326 377.995L101.018 342.799L50.8326 307.531Z" fill="url(#paint26_linear_1509_4914)"/>
<g style="mix-blend-mode:multiply" opacity="0.8">
<path d="M50.8336 312.465L7.67546 342.785L50.8336 373.056L93.9795 342.785L50.8336 312.465Z" fill="#3A3469"/>
</g>
<path d="M50.4111 355.479C49.5013 355.851 48.5129 355.989 47.536 355.881C46.5591 355.773 45.625 355.422 44.8188 354.859C41.8767 352.793 35.7373 348.963 35.7373 348.38V344.246H45.4631C45.4631 344.246 45.4631 344.878 45.4631 345.121C45.4208 346.022 45.7059 346.907 46.2655 347.614C47.3596 348.635 47.931 349.291 49.6938 350.993C51.4566 352.695 51.724 354.75 50.4111 355.479Z" fill="#09003C"/>
<path d="M45.7486 345.483C45.7486 345.981 43.9128 347.391 40.9465 347.975C38.9284 348.364 35.731 347.245 35.731 346.577C35.731 342.528 37.7248 316.366 37.3479 308.038C36.7279 294.094 36.5213 256.261 36.5213 256.261L53.9304 249.574C53.9304 249.574 54.7935 254.875 53.6872 265.646C52.4715 277.147 52.9943 292.587 51.6691 302.641C50.3805 312.354 45.7486 336.656 45.7486 345.483Z" fill="#09003C"/>
<path d="M67.5596 343.807C66.6492 344.176 65.6613 344.313 64.6851 344.204C63.7088 344.096 62.7748 343.747 61.9673 343.187C59.0252 341.121 52.8858 337.279 52.8858 336.708V332.574H62.6116C62.6116 332.574 62.6116 333.194 62.6116 333.437C62.5709 334.343 62.8603 335.233 63.4261 335.942C64.5081 336.951 65.0917 337.607 66.8423 339.321C68.593 341.036 68.8604 343.078 67.5596 343.807Z" fill="#09003C"/>
<path d="M63.0899 333.205C62.9318 334.737 60.9137 336.013 58.4093 336.706C56.4277 337.253 52.3307 336.621 52.3307 335.648C52.3307 331.6 54.2273 304.72 53.8626 296.393C53.2304 282.448 53.8626 249.575 53.8626 249.575L70.4814 238.5C70.4636 251.589 69.7046 264.667 68.2081 277.671C66.9194 287.384 63.9895 324.439 63.0899 333.205Z" fill="#09003C"/>
<path d="M43.8283 176.694L61.748 176.305L58.5872 205.652L43.8283 176.694Z" fill="#928CBE"/>
<path d="M61.7535 176.305L58.5926 205.652V246.987C58.5926 246.987 58.5926 252.713 63.1029 251.363C68.4156 249.771 71.1632 244.701 71.2483 242.476C71.7953 228.107 71.7832 228.35 71.7832 203.282V183.392L61.7535 176.305Z" fill="#25216F"/>
<path d="M58.5859 205.65L43.8271 176.68C37.7485 180.959 29.9678 186.089 29.9678 186.089L35.7304 211.522L38.8183 232.129C38.8183 232.129 37.0312 248.383 36.1924 257.586C35.7669 262.267 49.3586 262.182 55.2913 257.003C57.9051 254.717 58.5859 250.182 58.5859 246.304V205.65Z" fill="#25216F"/>
<path d="M58.5524 156.136C56.9217 155.43 55.1624 155.07 53.3856 155.078C48.3647 155.078 44.8756 159.747 44.8756 164.804V171.466C44.8756 174.676 51.866 179.976 56.1696 180.852C56.718 181.006 57.3031 180.963 57.823 180.73C58.3377 180.367 58.7552 179.882 59.0387 179.32C59.3712 178.445 59.5839 177.529 59.6709 176.597L58.5524 156.136Z" fill="#E39E76"/>
<path d="M53.3127 145.645C47.149 145.645 42.8696 151.371 42.8696 157.534V161.887C42.8696 168.78 52.8628 177.886 59.0387 177.886C62.1145 177.886 62.6859 174.238 63.9016 170.36C64.8134 167.588 64.4244 159.65 64.4244 156.246C64.473 150.094 59.4764 145.645 53.3127 145.645Z" fill="#F5BB95"/>
<path d="M44.8895 171.43C45.3338 173.292 46.4344 174.932 47.9896 176.049C50.7249 178.201 55.527 181.727 57.8369 180.694L52.8403 184.888C52.8403 184.888 43.8318 178.955 43.8318 176.183C43.8318 173.411 43.7467 172.402 44.8895 171.43Z" fill="#B2AFD4"/>
<path d="M59.5111 177.849C59.3294 178.974 58.7304 179.99 57.8334 180.693L61.0551 182.967L61.748 176.305C61.1998 177.059 60.4107 177.604 59.5111 177.849Z" fill="#B2AFD4"/>
<path d="M58.9434 184.439V181.485L57.837 180.707L54.1777 183.771L56.5849 186.093L58.9434 184.439Z" fill="#191454"/>
<path d="M56.5817 186.091L55.0985 198.807L58.5876 205.652L59.7061 195.574L58.9402 184.438L56.5817 186.091Z" fill="#191454"/>
<g style="mix-blend-mode:multiply">
<path d="M48.4955 204.509L40.3623 179.125L42.6357 177.496L58.5859 205.652L48.4955 204.509Z" fill="#191454"/>
</g>
<g style="mix-blend-mode:multiply">
<path d="M58.5904 205.652L67.1855 192.34L64.4623 178.007L61.7513 176.305L58.5904 205.652Z" fill="#191454"/>
</g>
<path d="M58.5859 205.654L49.468 203.624L40.3623 179.127L43.8271 176.695L58.5859 205.654Z" fill="#25216F"/>
<path d="M58.5907 205.652L66.0674 191.988L64.4627 177.995C63.6427 177.307 62.7301 176.738 61.7516 176.305L58.5907 205.652Z" fill="#25216F"/>
<path d="M84.011 219.742C80.2058 207.22 73.0695 187.659 71.6836 184V228.252L77.2151 229.906C82.7953 231.474 86.0899 226.708 84.011 219.742Z" fill="#1A1556"/>
<path d="M76.7987 229.772L51.074 222.466L53.0557 215.938L79.2666 221.153L76.7987 229.772Z" fill="#1A1556"/>
<path d="M65.1788 224.532C65.1788 224.532 70.5888 218.32 71.7559 219.839C71.5802 218.567 71.1234 217.351 70.4186 216.277C69.0691 214.515 67.1239 214.527 65.0937 215.937L61.7505 218.235L65.1788 224.532Z" fill="#F5BB95"/>
<path d="M65.1767 224.752C59.0467 228.653 52.6802 232.169 46.1141 235.28C43.7921 236.313 41.2513 234.794 39.9504 232.618C34.9417 224.108 23.6841 190.979 29.9693 186.092C35.1726 182.044 38.9049 192.487 41.1783 200.681C42.8317 206.698 45.7494 218.6 46.953 221.773C47.4028 222.989 48.0107 223.269 49.0075 222.892C53.5933 221.062 58.0597 218.947 62.3805 216.558C63.5269 217.556 64.3892 218.84 64.8802 220.279C65.3712 221.718 65.4735 223.261 65.1767 224.752Z" fill="#25216F"/>
<path d="M52.8643 216.582C48.9467 215.507 44.9032 214.959 40.8408 214.953C40.6 214.98 40.3776 215.095 40.2161 215.275C40.0546 215.456 39.9653 215.69 39.9653 215.932C39.9653 216.174 40.0546 216.408 40.2161 216.588C40.3776 216.769 40.6 216.884 40.8408 216.91C41.3878 216.91 43.6977 217.324 44.2205 217.348C43.9559 217.436 43.6962 217.537 43.4424 217.652C43.2059 217.761 43.022 217.958 42.9309 218.202C42.8398 218.446 42.8489 218.716 42.9561 218.953C43.0097 219.07 43.0861 219.175 43.1807 219.263C43.2753 219.35 43.3864 219.418 43.5074 219.462C43.6284 219.506 43.757 219.526 43.8857 219.52C44.0143 219.514 44.1405 219.482 44.2569 219.427L44.5366 219.318C44.3664 219.439 44.1961 219.536 44.0259 219.67C43.8618 219.793 43.7408 219.965 43.6802 220.161C43.6196 220.357 43.6226 220.567 43.6887 220.762C43.7548 220.956 43.8806 221.124 44.0482 221.243C44.2158 221.361 44.4165 221.423 44.6217 221.421C44.8372 221.417 45.046 221.345 45.2174 221.214L45.655 220.922C45.497 221.08 45.3389 221.226 45.1809 221.409C45.0599 221.55 44.9821 221.723 44.9566 221.908C44.9311 222.092 44.959 222.28 45.0371 222.449C45.1152 222.618 45.2401 222.761 45.3971 222.861C45.554 222.961 45.7364 223.014 45.9225 223.013C46.0638 223.016 46.2039 222.987 46.3323 222.928C46.4608 222.869 46.5742 222.782 46.6641 222.673C47.0159 222.263 47.4254 221.907 47.8798 221.615C47.6235 221.819 47.3837 222.043 47.1625 222.284C47.0312 222.423 46.9436 222.597 46.9107 222.785C46.8778 222.973 46.901 223.167 46.9775 223.342C47.054 223.517 47.1804 223.666 47.3409 223.77C47.5013 223.873 47.6888 223.927 47.8798 223.925C48.0149 223.926 48.1485 223.898 48.2721 223.844C48.3957 223.789 48.5065 223.709 48.5971 223.609C49.3064 222.885 50.1833 222.346 51.1501 222.041L52.8643 216.582Z" fill="#F5BB95"/>
<path d="M47.162 164.889C47.5581 165.966 48.1518 166.96 48.9127 167.819C49.3597 168.363 49.9676 168.751 50.6491 168.928C51.3305 169.105 52.0505 169.062 52.7057 168.804C54.7098 168.041 56.8154 167.578 58.9545 167.43C64.0484 167.029 64.3888 167.831 64.3888 167.831C64.3239 168.851 64.1735 169.864 63.939 170.858C62.8813 174.737 61.6777 177.885 59.0153 177.885C54.6144 177.885 48.2805 173.253 44.9981 168.087C45.8004 167.467 45.8491 165.825 44.9981 164.233C44.7706 163.627 44.3861 163.093 43.8841 162.685C43.382 162.277 42.7805 162.01 42.1411 161.911C38.81 152.44 45.3749 145.146 54.043 145.413C61.775 145.657 63.1366 150.021 66.3704 151.492C66.9577 151.719 67.5862 151.819 68.2148 151.785C68.8434 151.752 69.4578 151.585 70.0176 151.297C69.6529 154.118 66.3704 156.817 60.2918 156.817C55.8058 156.817 53.4473 155.236 50.0919 157.4C48.9161 158.218 48.0098 159.366 47.4881 160.699C46.9664 162.033 46.8529 163.491 47.162 164.889ZM54.2983 172.329C57.5564 173.545 60.6565 174.068 62.8084 171.199C63.3433 170.469 63.5864 169.655 62.9056 169.606C61.5953 169.536 60.2814 169.581 58.9788 169.74C57.3849 169.945 55.836 170.413 54.3956 171.126C53.9458 171.369 53.6175 172.111 54.2983 172.329Z" fill="#09003C"/>
<path d="M45.1075 164.232C45.9585 165.946 45.8491 167.733 44.8643 168.219C43.8796 168.706 42.4329 167.733 41.5333 166.019C40.6336 164.305 40.7795 162.518 41.7643 162.019C42.749 161.521 44.1957 162.518 45.1075 164.232Z" fill="#F5BB95"/>
<defs>
<linearGradient id="paint0_linear_1509_4914" x1="158.19" y1="137.463" x2="77.0654" y2="137.463" gradientUnits="userSpaceOnUse">
<stop stop-color="#827DB6"/>
<stop offset="1" stop-color="#B2B3D7"/>
</linearGradient>
<linearGradient id="paint1_linear_1509_4914" x1="165.001" y1="234.075" x2="156.965" y2="91.0087" gradientUnits="userSpaceOnUse">
<stop stop-color="#30338C"/>
<stop offset="0.27" stop-color="#404194"/>
<stop offset="0.81" stop-color="#6966A9"/>
<stop offset="1" stop-color="#7A75B1"/>
</linearGradient>
<linearGradient id="paint2_linear_1509_4914" x1="163.919" y1="61.8199" x2="77.0678" y2="61.8199" gradientUnits="userSpaceOnUse">
<stop stop-color="#B2B3D7"/>
<stop offset="1" stop-color="#827DB6"/>
</linearGradient>
<linearGradient id="paint3_linear_1509_4914" x1="197.522" y1="138.725" x2="308.19" y2="79.6529" gradientUnits="userSpaceOnUse">
<stop stop-color="#30338C"/>
<stop offset="0.84" stop-color="#6E6AAB"/>
<stop offset="1" stop-color="#7A75B1"/>
</linearGradient>
<linearGradient id="paint4_linear_1509_4914" x1="329.608" y1="211.622" x2="329.608" y2="140.83" gradientUnits="userSpaceOnUse">
<stop stop-color="#9186BB"/>
<stop offset="1" stop-color="#C7C4E1"/>
</linearGradient>
<linearGradient id="paint5_linear_1509_4914" x1="185.618" y1="55.7166" x2="329.158" y2="52.3369" gradientUnits="userSpaceOnUse">
<stop stop-color="#786FAD"/>
<stop offset="1" stop-color="#B2B3D7"/>
</linearGradient>
<linearGradient id="paint6_linear_1509_4914" x1="269.808" y1="381.216" x2="228.17" y2="358.98" gradientUnits="userSpaceOnUse">
<stop stop-color="#30338C"/>
<stop offset="0.84" stop-color="#6E6AAB"/>
<stop offset="1" stop-color="#7A75B1"/>
</linearGradient>
<linearGradient id="paint7_linear_1509_4914" x1="139.326" y1="403.561" x2="139.326" y2="334.642" gradientUnits="userSpaceOnUse">
<stop stop-color="#9186BB"/>
<stop offset="1" stop-color="#C7C4E1"/>
</linearGradient>
<linearGradient id="paint8_linear_1509_4914" x1="287.12" y1="319.299" x2="76.399" y2="314.339" gradientUnits="userSpaceOnUse">
<stop stop-color="#786FAD"/>
<stop offset="1" stop-color="#B2B3D7"/>
</linearGradient>
<linearGradient id="paint9_linear_1509_4914" x1="312.177" y1="300.09" x2="269.615" y2="277.368" gradientUnits="userSpaceOnUse">
<stop stop-color="#30338C"/>
<stop offset="0.84" stop-color="#6E6AAB"/>
<stop offset="1" stop-color="#7A75B1"/>
</linearGradient>
<linearGradient id="paint10_linear_1509_4914" x1="218.687" y1="340.62" x2="218.687" y2="214.829" gradientUnits="userSpaceOnUse">
<stop stop-color="#9186BB"/>
<stop offset="1" stop-color="#C7C4E1"/>
</linearGradient>
<linearGradient id="paint11_linear_1509_4914" x1="292.434" y1="193.336" x2="152.601" y2="190.053" gradientUnits="userSpaceOnUse">
<stop stop-color="#B2B3D7"/>
<stop offset="1" stop-color="#786FAD"/>
</linearGradient>
<linearGradient id="paint12_linear_1509_4914" x1="264.869" y1="299.311" x2="357.349" y2="249.941" gradientUnits="userSpaceOnUse">
<stop stop-color="#30338C"/>
<stop offset="0.84" stop-color="#6E6AAB"/>
<stop offset="1" stop-color="#7A75B1"/>
</linearGradient>
<linearGradient id="paint13_linear_1509_4914" x1="375.249" y1="360.221" x2="375.249" y2="301.064" gradientUnits="userSpaceOnUse">
<stop stop-color="#9186BB"/>
<stop offset="1" stop-color="#C7C4E1"/>
</linearGradient>
<linearGradient id="paint14_linear_1509_4914" x1="254.917" y1="229.929" x2="374.872" y2="227.109" gradientUnits="userSpaceOnUse">
<stop stop-color="#786FAD"/>
<stop offset="1" stop-color="#B2B3D7"/>
</linearGradient>
<linearGradient id="paint15_linear_1509_4914" x1="431.841" y1="399.791" x2="362.605" y2="399.791" gradientUnits="userSpaceOnUse">
<stop stop-color="#742AA7"/>
<stop offset="1" stop-color="#0D3E93"/>
</linearGradient>
<linearGradient id="paint16_linear_1509_4914" x1="421.86" y1="422.009" x2="372.587" y2="422.009" gradientUnits="userSpaceOnUse">
<stop stop-color="#742AA7"/>
<stop offset="1" stop-color="#0D3E93"/>
</linearGradient>
<linearGradient id="paint17_linear_1509_4914" x1="408.974" y1="439.306" x2="385.474" y2="439.306" gradientUnits="userSpaceOnUse">
<stop stop-color="#742AA7"/>
<stop offset="1" stop-color="#0D3E93"/>
</linearGradient>
<linearGradient id="paint18_linear_1509_4914" x1="433.639" y1="398.889" x2="408.218" y2="385.321" gradientUnits="userSpaceOnUse">
<stop stop-color="#30338C"/>
<stop offset="0.84" stop-color="#6E6AAB"/>
<stop offset="1" stop-color="#7A75B1"/>
</linearGradient>
<linearGradient id="paint19_linear_1509_4914" x1="373.657" y1="411.933" x2="373.657" y2="386.902" gradientUnits="userSpaceOnUse">
<stop stop-color="#9186BB"/>
<stop offset="1" stop-color="#C7C4E1"/>
</linearGradient>
<linearGradient id="paint20_linear_1509_4914" x1="443.486" y1="373.725" x2="353.316" y2="371.609" gradientUnits="userSpaceOnUse">
<stop stop-color="#786FAD"/>
<stop offset="1" stop-color="#B2B3D7"/>
</linearGradient>
<linearGradient id="paint21_linear_1509_4914" x1="87.6816" y1="371.674" x2="13.9725" y2="371.674" gradientUnits="userSpaceOnUse">
<stop stop-color="#742AA7"/>
<stop offset="1" stop-color="#0D3E93"/>
</linearGradient>
<linearGradient id="paint22_linear_1509_4914" x1="77.0557" y1="395.328" x2="24.5973" y2="395.328" gradientUnits="userSpaceOnUse">
<stop stop-color="#742AA7"/>
<stop offset="1" stop-color="#0D3E93"/>
</linearGradient>
<linearGradient id="paint23_linear_1509_4914" x1="63.3408" y1="413.747" x2="38.3091" y2="413.747" gradientUnits="userSpaceOnUse">
<stop stop-color="#742AA7"/>
<stop offset="1" stop-color="#0D3E93"/>
</linearGradient>
<linearGradient id="paint24_linear_1509_4914" x1="12.0505" y1="370.723" x2="39.1125" y2="356.268" gradientUnits="userSpaceOnUse">
<stop stop-color="#30338C"/>
<stop offset="0.84" stop-color="#6E6AAB"/>
<stop offset="1" stop-color="#7A75B1"/>
</linearGradient>
<linearGradient id="paint25_linear_1509_4914" x1="75.9129" y1="384.595" x2="75.9129" y2="357.946" gradientUnits="userSpaceOnUse">
<stop stop-color="#9186BB"/>
<stop offset="1" stop-color="#C7C4E1"/>
</linearGradient>
<linearGradient id="paint26_linear_1509_4914" x1="1.55943" y1="343.918" x2="97.5771" y2="341.657" gradientUnits="userSpaceOnUse">
<stop stop-color="#786FAD"/>
<stop offset="1" stop-color="#B2B3D7"/>
</linearGradient>
</defs>
</svg>
