<svg width="462" height="450" viewBox="0 0 462 450" fill="none" xmlns="http://www.w3.org/2000/svg">
<g clip-path="url(#clip0_1509_5436)">
<path d="M229.932 425.885L295.446 379.942V303.383L229.932 349.326V425.885Z" fill="url(#paint0_linear_1509_5436)"/>
<path d="M229.931 425.884L196.249 402.27V325.711L229.931 349.325V425.884Z" fill="url(#paint1_linear_1509_5436)"/>
<path d="M261.778 279.754L295.446 303.408L229.932 349.352L196.25 325.738L261.778 279.754Z" fill="url(#paint2_linear_1509_5436)"/>
<path d="M224.962 403.798L201.204 387.145V347.801L224.962 364.454V403.798Z" fill="url(#paint3_linear_1509_5436)"/>
<g style="mix-blend-mode:multiply">
<path d="M224.962 403.795L204.74 389.618V385.134L224.962 370.957V403.795Z" fill="#47417D"/>
</g>
<path d="M224.2 403.263L204.741 389.622V385.07L224.2 398.711V403.263Z" fill="url(#paint4_linear_1509_5436)"/>
<path d="M204.738 350.264V389.621L201.203 387.145V347.801L204.738 350.264Z" fill="url(#paint5_linear_1509_5436)"/>
<path d="M224.198 363.875L224.962 364.451V403.794L224.198 403.219V363.875Z" fill="#002B64"/>
<path d="M224.962 365.404L201.204 348.765V347.801L224.962 364.441V365.404Z" fill="#002B64"/>
<g style="mix-blend-mode:multiply" opacity="0.8">
<path d="M224.962 403.798L201.204 387.145V347.801L224.962 364.454V403.798Z" fill="#47417D"/>
</g>
<path d="M229.703 343.167L281.906 306.742V304.145L229.703 340.57V343.167Z" fill="url(#paint6_linear_1509_5436)"/>
<path d="M229.704 343.168L206.187 326.689V324.078L229.704 340.571V343.168Z" fill="url(#paint7_linear_1509_5436)"/>
<path d="M258.403 287.652L281.906 304.158L229.703 340.584L206.187 324.105L258.403 287.652Z" fill="url(#paint8_linear_1509_5436)"/>
<g style="mix-blend-mode:multiply">
<path d="M255.429 292.887L274.768 306.461L273.281 307.505L253.943 293.931L255.429 292.887Z" fill="#47417D"/>
</g>
<g style="mix-blend-mode:multiply">
<path d="M252.844 294.695L272.169 308.256L270.682 309.3L251.344 295.739L252.844 294.695Z" fill="#47417D"/>
</g>
<g style="mix-blend-mode:multiply">
<path d="M250.247 296.531L269.585 310.105L268.085 311.15L248.747 297.575L250.247 296.531Z" fill="#47417D"/>
</g>
<g style="mix-blend-mode:multiply">
<path d="M237.872 305.281L257.144 318.789L255.644 319.833L236.386 306.325L237.872 305.281Z" fill="#47417D"/>
</g>
<g style="mix-blend-mode:multiply">
<path d="M235.277 307.105L254.562 320.613L253.075 321.657L233.777 308.15L235.277 307.105Z" fill="#47417D"/>
</g>
<g style="mix-blend-mode:multiply">
<path d="M232.677 308.938L252.016 322.498L250.529 323.542L231.191 309.982L232.677 308.938Z" fill="#47417D"/>
</g>
<g style="mix-blend-mode:multiply">
<path d="M219.686 317.961L239.024 331.522L237.524 332.566L218.186 319.005L219.686 317.961Z" fill="#47417D"/>
</g>
<g style="mix-blend-mode:multiply">
<path d="M217.085 319.781L236.424 333.342L234.924 334.386L215.586 320.825L217.085 319.781Z" fill="#47417D"/>
</g>
<g style="mix-blend-mode:multiply">
<path d="M214.492 321.617L233.83 335.178L232.33 336.222L213.005 322.648L214.492 321.617Z" fill="#47417D"/>
</g>
<path d="M206.977 355.379L211.102 358.284V359.81L206.977 356.905V355.379Z" fill="#5EBBD8"/>
<path d="M205.97 354.684V356.21L204.804 355.393V353.867L205.97 354.684Z" fill="#5EBBD8"/>
<path d="M211.823 358.777L223.381 366.89V368.416L211.823 360.303V358.777Z" fill="#5EBBD8"/>
<path d="M206.977 359.352L211.102 362.256V363.769L206.977 360.878V359.352Z" fill="#5EBBD8"/>
<path d="M211.823 362.75L223.381 370.862V372.375L211.823 364.276V362.75Z" fill="#5EBBD8"/>
<path d="M211.823 366.715L223.381 374.827V376.353L211.823 368.241V366.715Z" fill="#5EBBD8"/>
<path d="M206.977 367.062L211.102 369.967V371.494L206.977 368.589V367.062Z" fill="#5EBBD8"/>
<path d="M205.97 366.367V367.893L204.804 367.077V365.551L205.97 366.367Z" fill="#5EBBD8"/>
<path d="M211.823 370.461L223.381 378.573V380.099L211.823 371.987V370.461Z" fill="#5EBBD8"/>
<path d="M206.977 371.043L211.102 373.948V375.474L206.977 372.569V371.043Z" fill="#5EBBD8"/>
<path d="M211.823 374.438L223.381 382.55V384.076L211.823 375.964V374.438Z" fill="#5EBBD8"/>
<path d="M211.823 378.418L223.381 386.517V388.043L211.823 379.931V378.418Z" fill="#5EBBD8"/>
<path d="M206.977 378.762L211.102 381.653V383.179L206.977 380.274V378.762Z" fill="#5EBBD8"/>
<path d="M205.97 378.055V379.581L204.804 378.764V377.238L205.97 378.055Z" fill="#5EBBD8"/>
<path d="M211.823 382.148L223.381 390.261V391.787L211.823 383.675V382.148Z" fill="#5EBBD8"/>
<path d="M206.977 382.727L211.102 385.632V387.158L206.977 384.253V382.727Z" fill="#5EBBD8"/>
<path d="M211.823 386.125L223.381 394.237V395.764L211.823 387.651V386.125Z" fill="#5EBBD8"/>
<path d="M211.823 390.105L223.381 398.218V399.731L211.823 391.632V390.105Z" fill="#5EBBD8"/>
<path d="M98.6484 33.7316C98.2599 33.7316 97.8715 33.6244 97.4964 33.5977C97.8313 33.6244 98.2733 33.6646 98.6484 33.7316Z" fill="url(#paint9_linear_1509_5436)"/>
<path d="M168.54 90.9214L169.104 90.5195C168.908 90.6425 168.72 90.7767 168.54 90.9214Z" fill="url(#paint10_linear_1509_5436)"/>
<path d="M168.274 303.476L236.977 255.257V246.957L168.274 295.176V303.476Z" fill="url(#paint11_linear_1509_5436)"/>
<path d="M168.275 303.476L99.5867 255.31V246.957L168.275 295.136V303.476Z" fill="url(#paint12_linear_1509_5436)"/>
<path d="M168.274 198.75L236.977 246.996L168.274 295.175L99.5858 246.996L168.274 198.75Z" fill="url(#paint13_linear_1509_5436)"/>
<g style="mix-blend-mode:multiply" opacity="0.8">
<path d="M168.274 205.5L227.347 246.999L168.274 288.418L109.2 246.999L168.274 205.5Z" fill="#3A3469"/>
</g>
<path d="M168.875 215.688L214.396 247.655L168.875 279.569L123.355 247.655L168.875 215.688Z" stroke="#5EBBD8" stroke-width="1.00865" stroke-linecap="round" stroke-linejoin="round"/>
<path d="M168.874 224.895L201.27 247.652L168.874 270.369L136.478 247.652L168.874 224.895Z" stroke="#5EBBD8" stroke-width="1.00865" stroke-linecap="round" stroke-linejoin="round"/>
<path d="M168.875 236.781L184.33 247.638L168.875 258.481L153.421 247.638L168.875 236.781Z" stroke="#5EBBD8" stroke-width="1.00865" stroke-linecap="round" stroke-linejoin="round"/>
<g style="mix-blend-mode:multiply">
<path d="M121.456 243.13C133.04 242.728 152.66 249.823 166.2 259.287C179.739 268.752 178.159 276.235 168.704 276.556C159.477 276.864 137.808 269.943 124.269 260.492C110.729 251.041 110.662 243.491 121.456 243.13Z" fill="#C3C5CA"/>
</g>
<path d="M186.419 249.341C186.419 236.503 176 213.544 162.461 204.04C155.336 199.06 149.162 198.605 144.89 201.483L160.438 190.439C160.599 190.318 160.76 190.198 160.934 190.091C165.193 187.266 171.353 187.735 178.424 192.768C191.964 202.259 202.383 225.218 202.383 238.069C202.383 244.642 199.865 250.224 195.687 252.969L180.339 263.852L180.232 263.919C184.089 260.987 186.419 255.606 186.419 249.341Z" fill="url(#paint14_linear_1509_5436)"/>
<path d="M138.755 216.449C138.755 232.513 149.255 252.593 162.794 262.111C176.334 271.629 186.418 262.446 186.418 249.3C186.418 236.462 175.999 213.504 162.459 203.999C148.92 194.495 138.755 201.442 138.755 216.449Z" fill="url(#paint15_linear_1509_5436)"/>
<path d="M143.163 219.514C143.163 232.633 151.694 248.965 162.715 256.649C173.737 264.333 181.92 256.93 181.92 246.234C181.92 235.793 173.456 217.118 162.434 209.394C151.412 201.67 143.163 207.306 143.163 219.514Z" fill="url(#paint16_linear_1509_5436)"/>
<g style="mix-blend-mode:multiply">
<path d="M153.971 200.008L170.041 188.723C170.888 188.921 171.72 189.176 172.532 189.486L156.462 200.757C155.646 200.462 154.814 200.212 153.971 200.008Z" fill="#594E83"/>
<path d="M180.916 194.616L164.845 205.861C164.296 205.392 163.72 204.977 163.145 204.522L179.215 193.277C179.791 193.719 180.354 194.134 180.916 194.616Z" fill="#594E83"/>
<path d="M187.223 201.144L171.152 212.375C170.71 211.84 170.282 211.304 169.813 210.796L185.883 199.551C186.352 200.1 186.794 200.635 187.223 201.144Z" fill="#594E83"/>
<path d="M192.395 208.52L176.324 219.751C175.962 219.176 175.601 218.6 175.226 218.024L191.296 206.793L192.395 208.52Z" fill="#594E83"/>
<path d="M196.653 216.524L180.583 227.742C180.301 227.113 179.993 226.497 179.685 225.868L195.756 214.637C196.037 215.266 196.359 215.868 196.653 216.524Z" fill="#594E83"/>
<path d="M200.053 225.148L183.982 236.366C183.754 235.683 183.54 235.028 183.299 234.331L199.303 223.113C199.584 223.796 199.798 224.465 200.053 225.148Z" fill="#594E83"/>
<path d="M202.155 234.612L186.178 245.816C186.085 245.08 185.991 244.33 185.844 243.541L201.834 232.336C201.968 233.126 202.075 233.889 202.155 234.612Z" fill="#594E83"/>
<path d="M200.68 246.661L184.797 257.813C185.226 256.772 185.566 255.697 185.815 254.6L201.738 243.422C201.485 244.532 201.131 245.616 200.68 246.661Z" fill="#594E83"/>
</g>
<path d="M78.905 245.34L120.14 216.424V122.703L78.905 151.605V245.34Z" fill="url(#paint17_linear_1509_5436)"/>
<path d="M78.9062 245.34L37.685 216.424V122.703L78.9062 151.605V245.34Z" fill="url(#paint18_linear_1509_5436)"/>
<path d="M78.905 93.7695L120.14 122.725L78.905 151.627L37.6837 122.725L78.905 93.7695Z" fill="url(#paint19_linear_1509_5436)"/>
<g style="mix-blend-mode:multiply">
<path d="M75.5039 159.956L37.6843 133.423V129.086L75.5039 155.605V159.956Z" fill="#47417D"/>
<path d="M75.5039 171.108L37.6843 144.589V140.238L75.5039 166.771V171.108Z" fill="#47417D"/>
<path d="M75.5039 182.268L37.6843 155.736V151.398L75.5039 177.918V182.268Z" fill="#47417D"/>
<path d="M75.5039 193.425L37.6843 166.905V162.555L75.5039 189.087V193.425Z" fill="#47417D"/>
<path d="M75.5039 204.585L37.6843 178.052V173.715L75.5039 200.234V204.585Z" fill="#47417D"/>
<path d="M75.5039 215.737L37.6843 189.218V184.867L75.5039 211.386V215.737Z" fill="#47417D"/>
</g>
<path d="M78.9092 144.095L106.926 124.457V121.043L78.9092 140.681V144.095Z" fill="url(#paint20_linear_1509_5436)"/>
<path d="M78.9062 144.095L50.9031 124.457V121.043L78.9062 140.681V144.095Z" fill="url(#paint21_linear_1509_5436)"/>
<path d="M78.9092 101.387L106.926 121.052L78.9092 140.69L50.9061 121.052L78.9092 101.387Z" fill="url(#paint22_linear_1509_5436)"/>
<g style="mix-blend-mode:multiply">
<path d="M77.7564 111.012L94.2422 122.591L92.528 123.796L76.0422 112.243L77.7564 111.012Z" fill="#47417D"/>
<path d="M74.6497 113.234L91.1221 124.814L89.4079 126.019L72.9355 114.466L74.6497 113.234Z" fill="#47417D"/>
<path d="M71.5288 115.457L88.0146 127.037L86.2871 128.241L69.8146 116.689L71.5288 115.457Z" fill="#47417D"/>
<path d="M68.4202 117.676L84.8926 129.255L83.1784 130.46L66.706 118.907L68.4202 117.676Z" fill="#47417D"/>
<path d="M65.3023 119.902H65.3157L81.7881 131.469L80.0739 132.687L63.5881 121.134L65.3023 119.902Z" fill="#47417D"/>
</g>
<path d="M116.137 407.088C116.137 407.088 121.494 404.906 121.494 403.42V289.86C121.517 288.486 121.266 287.12 120.757 285.844L116.137 288.36V407.088Z" fill="url(#paint23_linear_1509_5436)"/>
<path d="M116.137 407.09L72.9602 376.796V258.082L116.137 288.376V407.09Z" fill="url(#paint24_linear_1509_5436)"/>
<g style="mix-blend-mode:multiply">
<path d="M116.137 399.485L72.9602 369.19V265.684L116.137 295.978V399.485Z" fill="#594E83"/>
</g>
<g style="mix-blend-mode:multiply">
<path d="M116.137 395.483L72.9602 365.176V269.688L116.137 299.982V395.483Z" fill="#594E83"/>
</g>
<path d="M79.9636 256.354C89.4319 262.967 114.221 280.37 118.145 283.128C119.213 283.825 120.125 284.737 120.823 285.805L116.203 288.335L73.0398 258.027C73.0398 258.027 77.9279 254.922 79.9636 256.354Z" fill="url(#paint25_linear_1509_5436)"/>
<g style="mix-blend-mode:multiply">
<path d="M120.089 300.906L117.53 302.7V312.124L120.089 310.331V300.906Z" fill="#594E83"/>
</g>
<g style="mix-blend-mode:multiply">
<path d="M120.089 312.93L117.53 314.724V338.083L120.089 336.29V312.93Z" fill="#594E83"/>
</g>
<g style="mix-blend-mode:multiply">
<path d="M116.837 283.317C116.962 283.391 117.082 283.471 117.199 283.558C117.37 283.689 117.508 283.859 117.6 284.054C117.691 284.25 117.735 284.464 117.725 284.68C117.716 284.896 117.655 285.106 117.547 285.293C117.439 285.48 117.287 285.638 117.105 285.753C116.651 286.101 116.096 286.289 115.525 286.289C114.953 286.289 114.398 286.101 113.944 285.753C113.342 285.352 113.65 285.539 113.65 285.539C113.65 285.539 112.203 284.495 113.918 283.317C114.343 283.012 114.854 282.848 115.377 282.848C115.901 282.848 116.411 283.012 116.837 283.317Z" fill="#47417D"/>
</g>
<g style="mix-blend-mode:multiply">
<path d="M111.891 280.933L112.105 281.067C112.211 281.129 112.298 281.219 112.359 281.325C112.419 281.432 112.451 281.553 112.451 281.676C112.451 281.798 112.419 281.919 112.359 282.026C112.298 282.133 112.211 282.222 112.105 282.285C111.853 282.482 111.542 282.59 111.221 282.59C110.901 282.59 110.589 282.482 110.337 282.285L110.176 282.178C110.176 282.178 109.359 281.589 110.324 280.933C110.552 280.768 110.826 280.68 111.107 280.68C111.389 280.68 111.663 280.768 111.891 280.933Z" fill="#47417D"/>
</g>
<g style="mix-blend-mode:multiply">
<path d="M101.485 394.414L87.611 384.762V381.656L101.485 391.295V394.414Z" fill="#47417D"/>
</g>
<g style="mix-blend-mode:multiply">
<path d="M105.545 286.546L83.5549 271.205V268.086L105.545 283.441V286.546Z" fill="#47417D"/>
</g>
<g style="mix-blend-mode:soft-light" opacity="0.39">
<path d="M116.137 344.641V395.484L79.8706 370.035L116.137 344.641Z" fill="white"/>
</g>
<path d="M45.9751 380.062H45.9617L12.6418 403.463L45.9617 426.836H45.9751L79.2949 403.463L45.9751 380.062Z" stroke="url(#paint26_linear_1509_5436)" stroke-width="0.739673" stroke-linecap="round" stroke-linejoin="round"/>
<path d="M45.9735 408.191H45.9601L22.2559 424.845L45.9601 441.471H45.9735L69.6777 424.845L45.9735 408.191Z" stroke="url(#paint27_linear_1509_5436)" stroke-width="0.739673" stroke-linecap="round" stroke-linejoin="round"/>
<path d="M45.9619 433.531L34.6588 441.483L45.9619 449.408L57.2783 441.483L45.9619 433.531Z" stroke="url(#paint28_linear_1509_5436)" stroke-width="0.739673" stroke-linecap="round" stroke-linejoin="round"/>
<path d="M45.9639 414.652L0.604424 382.845V377.316L45.9639 409.137V414.652Z" fill="url(#paint29_linear_1509_5436)"/>
<path d="M45.9611 414.652L91.334 382.845V377.316L45.9611 409.137V414.652Z" fill="url(#paint30_linear_1509_5436)"/>
<path d="M45.9611 345.484L0.601692 377.345L45.9611 409.152L91.334 377.345L45.9611 345.484Z" fill="url(#paint31_linear_1509_5436)"/>
<g style="mix-blend-mode:multiply" opacity="0.8">
<path d="M45.9624 349.941L6.95081 377.344L45.9624 404.693L84.9873 377.344L45.9624 349.941Z" fill="#3A3469"/>
</g>
<path d="M44.2066 387.829C43.3842 388.16 42.4925 388.282 41.6113 388.184C40.7301 388.086 39.887 387.77 39.1577 387.266C36.4793 385.392 30.9483 381.912 30.9483 381.416V377.668H39.7336C39.7336 377.668 39.7336 378.244 39.7336 378.458C39.6961 379.276 39.9579 380.081 40.4702 380.72C41.4478 381.63 41.9701 382.22 43.5638 383.772C45.1575 385.325 45.3985 387.226 44.2066 387.829Z" fill="#09003C"/>
<path d="M40.0032 378.779C40.0032 379.247 38.3426 380.506 35.6642 381.041C33.8428 381.389 30.9501 380.385 30.9501 379.783C30.9501 376.128 32.7447 352.474 32.4099 344.977C31.834 332.38 31.6599 298.123 31.6599 298.123L47.3824 292.18C47.3824 292.18 48.1591 296.972 47.1681 306.704C46.0967 317.106 46.5386 331.055 45.3333 340.171C44.195 348.846 40.0032 370.814 40.0032 378.779Z" fill="#09003C"/>
<path d="M59.7164 377.265C58.894 377.596 58.0023 377.718 57.1211 377.62C56.2399 377.522 55.3968 377.207 54.6676 376.703C51.9891 374.842 46.4447 371.348 46.4447 370.853V367.145H55.2434C55.2434 367.145 55.2434 367.72 55.2434 367.934C55.2054 368.747 55.4623 369.545 55.9666 370.183C56.9576 371.107 57.4665 371.696 59.0602 373.249C60.6539 374.802 60.8949 376.609 59.7164 377.265Z" fill="#09003C"/>
<path d="M55.6695 367.693C55.5356 369.032 53.7009 370.223 51.4376 370.852C49.643 371.347 45.9736 370.852 45.9736 369.902C45.9736 366.234 47.6878 341.95 47.3128 334.427C46.7369 321.816 47.3128 292.111 47.3128 292.111L62.3389 282.098C62.3014 293.931 61.5904 305.753 60.2095 317.506C59.1247 326.287 56.4865 359.768 55.6695 367.693Z" fill="#09003C"/>
<path d="M37.5643 225.736L53.7822 225.375L50.9163 251.908L37.5643 225.736Z" fill="#928CBE"/>
<path d="M53.7807 225.375L50.9148 251.908V289.257C50.9148 289.257 50.9148 294.437 54.9325 293.273C59.7403 291.827 62.2178 287.249 62.2982 285.241C62.7803 272.256 62.7803 272.47 62.7803 249.819V231.801L53.7807 225.375Z" fill="#25216F"/>
<path d="M50.9189 251.909L37.5267 225.738C32.0225 229.594 24.9916 234.226 24.9916 234.226L30.2145 257.224L33.0537 275.845C33.0537 275.845 31.4332 290.571 30.6699 298.844C30.2815 303.074 42.5756 303.007 47.9459 298.321C50.3029 296.26 50.9189 292.164 50.9189 288.656V251.909Z" fill="#25216F"/>
<path d="M50.8919 207.158C49.4142 206.528 47.8242 206.205 46.2181 206.207C41.6781 206.207 38.5309 210.424 38.5309 214.962V220.986C38.5309 223.891 44.8521 228.683 48.7358 229.473C49.2343 229.612 49.7658 229.569 50.2357 229.353C50.7092 229.027 51.0955 228.591 51.3607 228.081C51.6592 227.289 51.8527 226.461 51.9365 225.618L50.8919 207.158Z" fill="#E39E76"/>
<path d="M46.1501 197.681C40.5789 197.681 36.7086 202.862 36.7086 208.39V212.313C36.7086 218.551 45.7484 226.77 51.3195 226.77C54.1051 226.77 54.6408 223.424 55.7658 219.97C56.5961 217.48 56.2479 210.291 56.2479 207.226C56.2311 205.93 55.9544 204.651 55.4341 203.465C54.9138 202.278 54.1604 201.208 53.2187 200.318C52.2771 199.428 51.1662 198.736 49.952 198.283C48.7378 197.83 47.4449 197.625 46.1501 197.681Z" fill="#F5BB95"/>
<path d="M38.6752 214.53C39.452 216.07 39.3582 217.69 38.461 218.131C37.5637 218.573 36.2245 217.69 35.4477 216.15C34.671 214.611 34.7647 212.978 35.662 212.536C36.5593 212.094 37.9119 212.924 38.6752 214.53Z" fill="#F5BB95"/>
<path d="M38.5306 220.988C38.931 222.668 39.925 224.146 41.3295 225.152C43.8205 227.106 48.1462 230.292 50.2354 229.355L45.7222 233.143C45.7222 233.143 37.5797 227.789 37.5797 225.285C37.5797 222.782 37.4994 221.872 38.5306 220.988Z" fill="#B2AFD4"/>
<path d="M51.7466 226.781C51.5909 227.8 51.0491 228.72 50.2333 229.351L53.1528 231.399L53.7822 225.375C53.2854 226.063 52.5665 226.56 51.7466 226.781Z" fill="#B2AFD4"/>
<path d="M43.2841 206.207L38.1147 202.793C37.1932 204.529 36.7104 206.464 36.7085 208.429V212.351C36.7085 212.351 36.7085 212.431 36.7085 212.472C38.5165 213.141 39.1057 215.725 39.1057 215.725L40.5521 214.707V212.244C42.5743 211.99 44.2751 208.415 44.918 206.889C43.9136 206.501 43.2841 206.207 43.2841 206.207Z" fill="#09003C"/>
<path d="M56.3135 207.841V207.266C56.3021 205.967 56.0293 204.684 55.5113 203.493C54.9934 202.301 54.2409 201.226 53.2987 200.332C52.3564 199.438 51.2437 198.742 50.0269 198.287C48.81 197.831 47.5139 197.625 46.2157 197.681C44.5054 197.609 42.8138 198.06 41.3663 198.974C39.9188 199.887 38.7841 201.22 38.1134 202.795L43.2828 206.208C43.2828 206.208 50.22 209.608 56.3135 207.841Z" fill="#09003C"/>
<path d="M51.2383 232.742V230.065L50.2339 229.355L46.926 232.127L49.1089 234.228L51.2383 232.742Z" fill="#191454"/>
<path d="M49.1107 234.224L47.7581 245.71L50.9187 251.908L51.9365 242.792L51.2401 232.738L49.1107 234.224Z" fill="#191454"/>
<g style="mix-blend-mode:multiply">
<path d="M41.7988 250.867L34.4465 227.935L36.4955 226.449L50.9189 251.911L41.7988 250.867Z" fill="#191454"/>
</g>
<g style="mix-blend-mode:multiply">
<path d="M50.9191 251.908L58.6865 239.873L56.2224 226.914L53.785 225.375L50.9191 251.908Z" fill="#191454"/>
</g>
<path d="M50.9189 251.909L42.6827 250.075L34.4465 227.934L37.5669 225.738L50.9189 251.909Z" fill="#25216F"/>
<path d="M50.9176 251.908L57.6807 239.565L56.2343 226.914C55.4908 226.293 54.6664 225.775 53.7835 225.375L50.9176 251.908Z" fill="#25216F"/>
<path d="M36.1999 293.41C44.5298 293.236 39.3337 288.149 37.5391 288.055C35.6066 287.977 33.7299 287.386 32.1019 286.342C31.526 285.967 31.459 285.244 32.1019 285.284L32.276 283.517C31.7001 283.303 30.7894 282.995 29.9591 282.754C27.2807 281.951 25.379 280.8 24.3612 282.299C21.9372 285.766 29.169 293.517 36.1999 293.41Z" fill="#F5BB95"/>
<path d="M24.0526 288.346C24.0526 288.346 13.2719 279.096 3.46875 271.854C1.62062 270.515 0.937607 265.923 2.29022 264.076C5.43739 259.792 15.7494 244.853 23.9589 235.067C29.6372 228.266 35.7172 229.819 37.6725 231.974C41.5295 236.205 36.5743 239.699 31.5656 245.575C26.291 252.008 21.3989 258.744 16.9145 265.749C16.5922 266.193 16.4186 266.727 16.4186 267.275C16.4186 267.824 16.5922 268.358 16.9145 268.801C22.7937 274.437 30.5478 281.72 30.5478 281.72C30.5478 281.72 28.7934 287.182 24.0526 288.346Z" fill="#25216F"/>
<path d="M90.5715 254.134L62.8228 231.805V246.329L84.0093 263.317C85.2276 264.185 86.7409 264.534 88.2164 264.287C89.6919 264.039 91.0088 263.216 91.8772 261.999C92.7456 260.781 93.0945 259.268 92.8471 257.793C92.5997 256.318 91.7763 255.002 90.558 254.134H90.5715Z" fill="#25216F"/>
<path d="M62.9292 271.977C61.1118 273.215 59.7742 275.039 59.1392 277.144C58.5731 279.434 58.5731 281.828 59.1392 284.118C59.1862 284.368 59.3192 284.593 59.5149 284.754C59.7107 284.915 59.9568 285.003 60.2106 285.002H60.4383C60.6484 284.962 60.842 284.86 60.9945 284.71C61.147 284.56 61.2517 284.368 61.2954 284.159C61.3476 284.408 61.4838 284.632 61.6813 284.792C61.8787 284.953 62.1255 285.041 62.3802 285.042H62.6078C62.8114 285 62.9987 284.901 63.1481 284.756C63.2974 284.611 63.4027 284.427 63.4515 284.225C63.5179 284.455 63.6567 284.658 63.8473 284.802C64.0379 284.947 64.2702 285.027 64.5095 285.029H64.7372C64.9464 284.989 65.1388 284.888 65.2893 284.737C65.4399 284.587 65.5415 284.394 65.5809 284.185C65.6307 284.436 65.7663 284.661 65.9643 284.822C66.1623 284.983 66.4103 285.071 66.6657 285.069H66.8933C67.0384 285.039 67.176 284.98 67.298 284.896C67.42 284.812 67.5239 284.705 67.6038 284.58C67.6836 284.455 67.7377 284.316 67.7629 284.17C67.7881 284.024 67.7839 283.874 67.7504 283.73C67.4001 282.166 67.3275 280.553 67.5361 278.964C67.623 278.324 67.7802 277.696 68.0049 277.09L62.9292 271.977Z" fill="#F5BB95"/>
<path d="M91.9366 255.671C91.5349 255.122 91.0288 254.656 90.4472 254.303C89.8656 253.949 89.2199 253.713 88.5471 253.608C87.8743 253.504 87.1874 253.533 86.5258 253.694C85.8643 253.855 85.2409 254.145 84.6914 254.547L62.0586 271.949L69.0895 278.308L90.8251 262.887C91.9256 262.074 92.6601 260.859 92.8683 259.508C93.0765 258.156 92.7416 256.777 91.9366 255.671Z" fill="#25216F"/>
<path d="M228.407 181.094L261.727 204.494L228.407 227.867L195.087 204.494L228.407 181.094Z" stroke="url(#paint32_linear_1509_5436)" stroke-width="0.739673" stroke-linecap="round" stroke-linejoin="round"/>
<path d="M228.403 209.207L252.12 225.874L228.403 242.5L204.685 225.874L228.403 209.207Z" stroke="url(#paint33_linear_1509_5436)" stroke-width="0.739673" stroke-linecap="round" stroke-linejoin="round"/>
<path d="M228.403 234.562L239.72 242.501L228.403 250.439L217.087 242.501L228.403 234.562Z" stroke="url(#paint34_linear_1509_5436)" stroke-width="0.739673" stroke-linecap="round" stroke-linejoin="round"/>
<path d="M228.404 215.67L273.776 183.863V178.348L228.404 210.155V215.67Z" fill="url(#paint35_linear_1509_5436)"/>
<path d="M228.405 215.67L183.032 183.863V178.348L228.405 210.155V215.67Z" fill="url(#paint36_linear_1509_5436)"/>
<path d="M228.404 146.516L273.776 178.376L228.404 210.183L183.031 178.376L228.404 146.516Z" fill="url(#paint37_linear_1509_5436)"/>
<g style="mix-blend-mode:multiply" opacity="0.8">
<path d="M228.403 150.973L267.414 178.375L228.403 205.725L189.391 178.375L228.403 150.973Z" fill="#3A3469"/>
</g>
<path d="M228.792 189.851C229.615 190.182 230.507 190.304 231.388 190.206C232.269 190.108 233.112 189.793 233.841 189.289C236.52 187.428 242.051 183.934 242.051 183.439V179.73H233.265C233.265 179.73 233.265 180.293 233.265 180.507C233.306 181.324 233.049 182.127 232.542 182.769C231.551 183.693 231.029 184.282 229.449 185.821C227.868 187.361 227.614 189.195 228.792 189.851Z" fill="#09003C"/>
<path d="M232.998 180.813C232.998 181.269 234.658 182.54 237.35 183.062C239.171 183.424 242.051 182.406 242.051 181.804C242.051 178.149 240.256 154.508 240.591 146.998C241.167 134.388 241.341 100.145 241.341 100.145L225.605 94.0938C225.605 94.0938 224.828 98.8862 225.819 108.618C226.891 119.02 226.449 132.969 227.654 142.085C228.819 150.881 232.998 172.848 232.998 180.813Z" fill="#09003C"/>
<path d="M213.284 179.301C214.106 179.632 214.998 179.755 215.879 179.656C216.761 179.558 217.604 179.243 218.333 178.739C221.011 176.865 226.556 173.384 226.556 172.889V169.141H217.77C217.77 169.141 217.77 169.716 217.77 169.93C217.804 170.748 217.543 171.551 217.034 172.193C216.056 173.103 215.534 173.706 213.94 175.245C212.347 176.784 212.105 178.645 213.284 179.301Z" fill="#09003C"/>
<path d="M217.329 169.715C217.463 171.053 219.298 172.258 221.561 172.887C223.356 173.383 227.025 172.807 227.025 171.923C227.025 168.269 225.311 143.972 225.686 136.462C226.249 123.851 225.686 94.1327 225.686 94.1327L210.66 84.1328C210.681 95.9467 211.365 107.75 212.709 119.487C213.874 128.309 216.526 161.79 217.329 169.715Z" fill="#09003C"/>
<path d="M234.738 28.2565L218.534 27.9219L221.386 54.4411L234.738 28.2565Z" fill="#928CBE"/>
<path d="M218.534 27.9219L221.4 54.4411V91.7903C221.4 91.7903 221.4 96.9709 217.383 95.8063C212.575 94.3739 210.097 89.7822 210.017 87.7742C209.535 74.789 209.535 75.0166 209.535 52.3528V34.3341L218.534 27.9219Z" fill="#25216F"/>
<path d="M221.401 54.4407L234.793 28.2695C240.284 32.1383 247.328 36.7701 247.328 36.7701L242.105 59.7553L239.32 78.3763C239.32 78.3763 240.94 93.1018 241.703 101.375C242.078 105.605 229.798 105.538 224.427 100.853C222.057 98.7912 221.454 94.6948 221.454 91.1875L221.401 54.4407Z" fill="#25216F"/>
<path d="M221.481 9.71609C222.959 9.08702 224.548 8.7637 226.155 8.76563C230.695 8.76563 233.842 12.9825 233.842 17.5206V23.5447C233.842 26.4496 227.507 31.2421 223.637 32.0319C223.139 32.166 222.611 32.1282 222.137 31.9248C221.653 31.5833 221.265 31.122 221.012 30.5861C220.712 29.794 220.519 28.9658 220.436 28.1229L221.481 9.71609Z" fill="#E39E76"/>
<path d="M226.169 0.212061C231.74 0.212061 235.61 5.39275 235.61 10.9215V14.8572C235.61 21.0821 226.571 29.3149 220.999 29.3149C218.2 29.3149 217.692 25.9549 216.553 22.5011C215.723 20.0111 216.071 12.8224 216.071 9.75684C216.088 8.46144 216.365 7.18258 216.885 5.99606C217.405 4.80955 218.159 3.73952 219.1 2.84941C220.042 1.9593 221.153 1.26721 222.367 0.814187C223.581 0.361159 224.874 0.156406 226.169 0.212061Z" fill="#F5BB95"/>
<path d="M233.788 23.5156C233.386 25.1982 232.393 26.6805 230.989 27.6923C228.498 29.6334 224.159 32.8194 222.083 31.8958L226.596 35.6842C226.596 35.6842 234.739 30.3295 234.739 27.8128C234.739 25.2961 234.873 24.4393 233.788 23.5156Z" fill="#B2AFD4"/>
<path d="M220.555 29.3141C220.722 30.3364 221.267 31.2588 222.082 31.8978L219.163 33.9459L218.533 27.9219C219.03 28.602 219.743 29.0929 220.555 29.3141Z" fill="#B2AFD4"/>
<path d="M221.064 35.2719V32.6079L222.068 31.8984L225.376 34.6561L223.206 36.7712L221.064 35.2719Z" fill="#191454"/>
<path d="M223.208 36.7728L224.547 48.2586L221.386 54.4433L220.382 45.3269L221.065 35.2734L223.208 36.7728Z" fill="#191454"/>
<g style="mix-blend-mode:multiply">
<path d="M230.519 53.4136L237.858 30.4686L235.809 28.9961L221.386 54.4444L230.519 53.4136Z" fill="#191454"/>
</g>
<g style="mix-blend-mode:multiply">
<path d="M221.386 54.4411L213.618 42.4064L216.082 29.448L218.533 27.9219L221.386 54.4411Z" fill="#191454"/>
</g>
<path d="M221.386 54.4424L229.636 52.6084L237.858 30.4666L234.738 28.2578L221.386 54.4424Z" fill="#25216F"/>
<path d="M221.4 54.4411L214.637 42.0985L216.124 29.448C216.866 28.8282 217.691 28.3146 218.575 27.9219L221.4 54.4411Z" fill="#25216F"/>
<path d="M198.459 67.1851C201.901 55.8599 208.383 38.1894 209.602 34.8828V74.8692L204.606 76.3685C199.531 77.7875 196.544 73.4769 198.459 67.1851Z" fill="#1A1556"/>
<path d="M204.926 76.2376L228.175 69.6379L226.394 63.7344L202.689 68.4465L204.926 76.2376Z" fill="#1A1556"/>
<path d="M215.441 71.5081C215.441 71.5081 210.553 65.9392 209.428 67.2779C209.585 66.1304 209.996 65.0325 210.633 64.0651C211.852 62.472 213.606 62.4854 215.455 63.7438L218.468 65.8321L215.441 71.5081Z" fill="#F5BB95"/>
<path d="M215.44 71.7099C220.987 75.2292 226.743 78.4078 232.676 81.2279C234.779 82.1516 237.096 80.7862 238.247 78.8183C242.774 71.1075 252.979 41.188 247.274 36.7704C242.56 33.1024 239.238 42.5401 237.136 49.9965C235.636 55.4316 233.011 66.1946 231.913 69.0593C231.511 70.1169 230.962 70.398 230.051 70.0634C225.917 68.4129 221.892 66.5037 217.998 64.3472C216.964 65.2427 216.183 66.3943 215.734 67.6865C215.285 68.9788 215.184 70.3662 215.44 71.7099Z" fill="#25216F"/>
<path d="M226.568 64.3202C230.113 63.3556 233.769 62.8605 237.443 62.8477C237.559 62.8494 237.674 62.874 237.78 62.92C237.887 62.966 237.983 63.0326 238.064 63.1159C238.145 63.1992 238.208 63.2976 238.251 63.4054C238.294 63.5133 238.315 63.6285 238.313 63.7446C238.313 63.8611 238.29 63.9765 238.245 64.0839C238.199 64.1912 238.133 64.2884 238.049 64.3695C237.965 64.4507 237.866 64.5142 237.757 64.5563C237.649 64.5984 237.533 64.6183 237.416 64.6147C236.921 64.6147 234.845 64.9895 234.363 65.0163C234.59 65.0966 234.831 65.177 235.072 65.2841C235.179 65.3324 235.275 65.4012 235.354 65.4866C235.434 65.5719 235.496 65.6722 235.537 65.7816C235.579 65.891 235.598 66.0074 235.594 66.1241C235.59 66.2409 235.563 66.3557 235.514 66.4621C235.466 66.5684 235.397 66.6642 235.312 66.744C235.226 66.8238 235.126 66.8859 235.017 66.9269C234.907 66.968 234.791 66.987 234.674 66.9831C234.557 66.9791 234.442 66.9522 234.336 66.9039L234.081 66.7968L234.537 67.1047C234.63 67.1755 234.707 67.2641 234.766 67.3651C234.824 67.4662 234.862 67.5779 234.877 67.6936C234.892 67.8094 234.884 67.927 234.853 68.0396C234.822 68.1522 234.769 68.2575 234.697 68.3496C234.617 68.4585 234.512 68.5468 234.391 68.6073C234.27 68.6678 234.136 68.6987 234.001 68.6977C233.807 68.6948 233.619 68.629 233.465 68.5103L233.077 68.2425C233.211 68.3898 233.358 68.5237 233.492 68.6843C233.645 68.8619 233.721 69.0927 233.703 69.3262C233.685 69.5596 233.576 69.7765 233.398 69.9293C233.234 70.0585 233.032 70.1292 232.823 70.1301C232.695 70.1337 232.568 70.1079 232.452 70.0545C232.336 70.001 232.233 69.9216 232.153 69.8222C231.829 69.4551 231.454 69.1351 231.041 68.8717C231.256 69.0591 231.483 69.2599 231.684 69.4741C231.804 69.5989 231.884 69.7566 231.914 69.9271C231.944 70.0975 231.922 70.273 231.852 70.4311C231.781 70.5891 231.665 70.7226 231.519 70.8145C231.372 70.9063 231.201 70.9523 231.028 70.9467C230.907 70.9461 230.788 70.9209 230.677 70.8726C230.567 70.8242 230.467 70.7538 230.385 70.6655C229.735 70.0351 228.939 69.5753 228.068 69.3269L226.568 64.3202Z" fill="#F5BB95"/>
<path d="M228.953 10.8811C225.913 8.92662 223.771 10.359 219.726 10.359C214.302 10.359 211.289 7.90923 210.954 5.36573C211.467 5.63403 212.031 5.78848 212.609 5.81851C213.187 5.84855 213.765 5.75347 214.302 5.53976C217.235 4.20108 218.467 0.185045 225.445 0.0110169C233.293 -0.243332 239.225 6.35636 236.158 14.9105C235.581 15.0022 235.037 15.2449 234.583 15.614C234.13 15.983 233.781 16.4654 233.574 17.0122C232.864 18.458 232.904 19.944 233.574 20.5062C230.614 25.1648 224.882 29.3549 220.905 29.3549C218.494 29.3549 217.409 26.5169 216.459 23.0095C216.25 22.1293 216.111 21.2341 216.043 20.3322C216.043 20.3322 216.351 19.6093 220.958 19.9707C222.894 20.1006 224.799 20.5203 226.61 21.2157C227.203 21.4495 227.854 21.4886 228.471 21.3274C229.087 21.1661 229.636 20.8129 230.038 20.3188C230.734 19.5347 231.274 18.6263 231.632 17.6414C231.902 16.3761 231.792 15.0592 231.316 13.8563C230.839 12.6534 230.017 11.6183 228.953 10.8811ZM225.204 23.2773C223.903 22.6354 222.504 22.2146 221.065 22.0323C219.889 21.8763 218.701 21.8359 217.517 21.9118C216.9 21.9118 217.115 22.6882 217.61 23.3442C219.525 25.9412 222.338 25.4727 225.271 24.3616C225.887 24.134 225.592 23.4647 225.204 23.2773Z" fill="#09003C"/>
<path d="M233.628 17.0146C232.864 18.5674 232.958 20.1739 233.842 20.629C234.726 21.0842 236.092 20.1738 236.869 18.6344C237.645 17.0949 237.552 15.4617 236.654 15.0199C235.757 14.5782 234.404 15.4617 233.628 17.0146Z" fill="#F5BB95"/>
<path d="M322.993 273.435C327.359 270.236 356.085 250.37 367.67 242.257C368.835 241.454 370.161 240.49 371.031 239.874C373.897 237.88 373 232.512 373 232.512L321.922 268.375V273.904C322.317 273.855 322.689 273.692 322.993 273.435Z" fill="url(#paint38_linear_1509_5436)"/>
<path d="M320.836 273.502C314.381 268.978 254.116 226.528 233.412 212.017C230.492 209.969 231.363 204.922 231.363 204.922L321.921 268.375V273.904C321.527 273.881 321.15 273.741 320.836 273.502Z" fill="url(#paint39_linear_1509_5436)"/>
<path d="M282.561 169.086L372.999 232.526L321.854 268.389L231.363 204.922L282.561 169.086Z" fill="url(#paint40_linear_1509_5436)"/>
<g style="mix-blend-mode:soft-light">
<path d="M282.83 172.859L366.599 231.654L338.488 251.453L254.707 192.632L282.83 172.859Z" fill="white"/>
</g>
<g style="mix-blend-mode:soft-light">
<path d="M279.188 213.797L306.602 233.315L291.83 243.716L264.389 224.198L279.188 213.797Z" fill="white"/>
</g>
<path d="M373 232.514C373.415 232.504 373.823 232.411 374.202 232.243C374.58 232.074 374.922 231.832 375.207 231.531C375.492 231.23 375.715 230.876 375.862 230.489C376.01 230.101 376.079 229.689 376.067 229.274V170.172C376.008 169.625 375.849 169.095 375.598 168.605L373 170.038V232.514Z" fill="url(#paint41_linear_1509_5436)"/>
<path d="M372.999 232.512L282.642 169.086V106.609L372.999 170.036V232.512Z" fill="url(#paint42_linear_1509_5436)"/>
<g style="mix-blend-mode:multiply">
<path d="M372.999 232.512L282.642 169.086V106.609L372.999 170.036V232.512Z" fill="#47417D"/>
</g>
<path d="M289.151 107.44C308.971 121.295 365.875 161.322 374.165 166.984C374.787 167.371 375.284 167.929 375.598 168.591L373 170.037L282.642 106.61C282.642 106.61 284.879 104.468 289.151 107.44Z" fill="url(#paint43_linear_1509_5436)"/>
<g style="mix-blend-mode:multiply">
<path d="M369.371 225.659L285.496 166.798V112.996L369.371 171.844V225.659Z" fill="#594E83"/>
</g>
<g style="mix-blend-mode:soft-light" opacity="0.39">
<path d="M323.986 140.145L369.171 171.844V225.659L285.59 167.012L323.986 140.145Z" fill="white"/>
</g>
<g style="mix-blend-mode:soft-light" opacity="0.39">
<path d="M369.569 225.579L288.654 168.805L311.032 153.062L369.569 194.16V225.579Z" fill="white"/>
</g>
<g style="mix-blend-mode:soft-light" opacity="0.39">
<path d="M369.171 187.308L343.203 168.834L354.024 161.23L369.171 171.846V187.308Z" fill="white"/>
</g>
<g style="mix-blend-mode:multiply">
<path d="M330.296 264.203L323.493 269.009V271.111L330.296 266.305V264.203Z" fill="#47417D"/>
<path d="M339.146 257.953L332.343 262.759V264.861L339.146 260.055V257.953Z" fill="#47417D"/>
<path d="M359.342 243.812L342.334 255.754V257.855L359.342 245.914V243.812Z" fill="#47417D"/>
<path d="M371.515 235.312L364.711 240.118V242.22L371.515 237.414V235.312Z" fill="#47417D"/>
</g>
<path d="M401.305 326.57L433.234 349.005L401.305 371.402L369.376 349.005L401.305 326.57Z" stroke="url(#paint44_linear_1509_5436)" stroke-width="0.848061" stroke-linecap="round" stroke-linejoin="round"/>
<path d="M401.304 353.512L424.03 369.476L401.304 385.415L378.578 369.476L401.304 353.512Z" stroke="url(#paint45_linear_1509_5436)" stroke-width="0.848061" stroke-linecap="round" stroke-linejoin="round"/>
<path d="M401.304 377.812L412.147 385.436L401.304 393.034L390.46 385.436L401.304 377.812Z" stroke="url(#paint46_linear_1509_5436)" stroke-width="0.848061" stroke-linecap="round" stroke-linejoin="round"/>
<path d="M401.305 359.718L444.783 329.237V323.945L401.305 354.439V359.718Z" fill="url(#paint47_linear_1509_5436)"/>
<path d="M401.306 359.718L357.828 329.237V323.945L401.306 354.439V359.718Z" fill="url(#paint48_linear_1509_5436)"/>
<path d="M401.305 293.438L444.783 323.97L401.305 354.464L357.827 323.97L401.305 293.438Z" fill="url(#paint49_linear_1509_5436)"/>
<g style="mix-blend-mode:multiply" opacity="0.8">
<path d="M401.305 297.703L438.694 323.969L401.305 350.184L363.915 323.969L401.305 297.703Z" fill="#3A3469"/>
</g>
<path d="M402.985 333.999C403.774 334.319 404.63 334.437 405.476 334.343C406.321 334.249 407.131 333.946 407.83 333.461C410.394 331.667 415.7 328.336 415.7 327.849V324.262H407.279C407.279 324.262 407.279 324.813 407.279 325.018C407.318 325.802 407.067 326.572 406.574 327.183C405.638 328.067 405.138 328.631 403.613 330.117C402.088 331.603 401.857 333.372 402.985 333.999Z" fill="#09003C"/>
<path d="M407.023 325.381C407.023 325.816 408.612 327.034 411.188 327.533C412.932 327.879 415.7 326.906 415.7 326.329C415.7 322.831 413.983 300.166 414.303 292.952C414.841 280.87 415.021 248.108 415.021 248.108L399.947 242.316C399.947 242.316 399.191 246.903 400.152 256.231C401.178 266.199 400.755 279.563 401.908 288.263C403.011 296.655 407.023 317.693 407.023 325.381Z" fill="#09003C"/>
<path d="M388.129 323.881C388.918 324.2 389.774 324.318 390.62 324.224C391.466 324.13 392.275 323.828 392.975 323.343C395.538 321.562 400.845 318.218 400.845 317.744V314.156H392.449C392.449 314.156 392.449 314.707 392.449 314.912C392.486 315.696 392.235 316.466 391.744 317.078C390.808 317.962 390.308 318.525 388.783 319.999C387.258 321.472 387.001 323.253 388.129 323.881Z" fill="#09003C"/>
<path d="M392 314.706C392.141 315.988 393.897 317.141 396.063 317.743C397.781 318.217 401.306 317.666 401.306 316.82C401.306 313.31 399.665 290.042 400.024 282.828C400.562 270.746 400.024 242.276 400.024 242.276L385.617 232.68C385.653 244.018 386.333 255.346 387.655 266.608C388.693 275.026 391.167 307.108 392 314.706Z" fill="#09003C"/>
<path d="M409.356 178.661L393.821 178.328L396.564 203.748L409.356 178.661Z" fill="#928CBE"/>
<path d="M393.821 178.328L396.564 203.748V239.534C396.564 239.534 396.564 244.493 392.719 243.378C388.105 241.994 385.733 237.599 385.656 235.69C385.182 223.249 385.195 223.454 385.195 201.75V184.44L393.821 178.328Z" fill="#25216F"/>
<path d="M396.562 203.751L409.38 178.664C414.661 182.367 421.391 186.813 421.391 186.813L416.366 208.787L413.687 226.724C413.687 226.724 415.238 240.818 415.969 248.762C416.34 252.824 404.561 252.76 399.421 248.275C397.152 246.289 396.562 242.369 396.562 238.999V203.751Z" fill="#25216F"/>
<path d="M396.586 160.863C397.999 160.255 399.522 159.945 401.059 159.953C405.417 159.953 408.43 163.989 408.43 168.333V174.111C408.43 176.892 402.367 181.491 398.65 182.234C398.175 182.376 397.664 182.34 397.214 182.132C396.753 181.803 396.382 181.362 396.137 180.851C395.851 180.088 395.666 179.291 395.586 178.48L396.586 160.863Z" fill="#E39E76"/>
<path d="M401.142 151.782C406.474 151.782 410.114 156.74 410.114 162.032V165.876C410.114 171.846 401.462 179.726 396.117 179.726C393.438 179.726 392.938 176.51 391.849 173.204C391.067 170.808 391.4 163.928 391.4 160.994C391.405 159.741 391.665 158.502 392.163 157.352C392.661 156.202 393.388 155.165 394.299 154.304C395.209 153.443 396.285 152.775 397.462 152.341C398.638 151.908 399.89 151.718 401.142 151.782Z" fill="#F5BB95"/>
<path d="M408.295 167.873C407.552 169.36 407.642 170.91 408.5 171.333C409.359 171.756 410.641 170.91 411.384 169.424C412.128 167.937 412.038 166.387 411.179 165.964C410.32 165.541 409.039 166.387 408.295 167.873Z" fill="#F5BB95"/>
<path d="M408.434 174.113C408.055 175.727 407.103 177.147 405.755 178.111C403.371 179.981 399.218 183.031 397.218 182.134L401.55 185.722C401.55 185.722 409.344 180.596 409.344 178.175C409.344 175.753 409.433 174.959 408.434 174.113Z" fill="#B2AFD4"/>
<path d="M395.77 179.673C395.919 180.649 396.438 181.53 397.219 182.133L394.424 184.094L393.822 178.328C394.298 178.987 394.986 179.462 395.77 179.673Z" fill="#B2AFD4"/>
<path d="M403.884 159.955L408.832 156.688C409.69 158.351 410.13 160.198 410.114 162.069V165.913C408.371 166.566 407.807 169.039 407.807 169.039L406.422 168.065V165.695C404.487 165.451 402.846 162.03 402.244 160.57C403.269 160.249 403.884 159.955 403.884 159.955Z" fill="#09003C"/>
<path d="M391.386 161.516C391.386 161.323 391.386 161.131 391.386 160.965C391.395 159.721 391.655 158.491 392.15 157.349C392.645 156.208 393.365 155.178 394.267 154.32C395.169 153.463 396.235 152.796 397.4 152.359C398.566 151.922 399.807 151.725 401.051 151.778C402.69 151.709 404.311 152.14 405.698 153.014C407.086 153.889 408.174 155.165 408.818 156.672L403.871 159.953C403.871 159.953 397.231 163.207 391.386 161.516Z" fill="#09003C"/>
<path d="M396.257 185.373V182.824L397.219 182.145L400.385 184.797L398.295 186.808L396.257 185.373Z" fill="#191454"/>
<path d="M398.295 186.814L399.59 197.82L396.565 203.752L395.591 195.027L396.257 185.379L398.295 186.814Z" fill="#191454"/>
<g style="mix-blend-mode:multiply">
<path d="M405.307 202.76L412.356 180.774L410.382 179.352L396.565 203.747L405.307 202.76Z" fill="#191454"/>
</g>
<g style="mix-blend-mode:multiply">
<path d="M396.564 203.748L389.117 192.23L391.476 179.802L393.821 178.328L396.564 203.748Z" fill="#191454"/>
</g>
<path d="M396.565 203.751L404.461 201.996L412.356 180.778L409.357 178.664L396.565 203.751Z" fill="#25216F"/>
<path d="M396.564 203.748L390.156 191.922L391.54 179.802C392.251 179.207 393.041 178.711 393.886 178.328L396.564 203.748Z" fill="#25216F"/>
<path d="M410.677 243.517C402.691 243.351 407.664 238.469 409.395 238.392C411.244 238.313 413.039 237.747 414.599 236.752C415.15 236.381 415.214 235.689 414.599 235.74L414.419 234.036C414.971 233.844 415.855 233.536 416.65 233.293C419.213 232.537 421.033 231.435 422.008 232.87C424.289 236.201 417.419 243.658 410.677 243.517Z" fill="#F5BB95"/>
<path d="M422.301 238.664C422.301 238.664 432.645 229.797 442.04 222.879C443.809 221.597 444.463 217.19 443.168 215.434C440.156 211.347 430.261 196.997 422.403 187.605C416.956 181.096 411.136 182.583 409.252 184.646C405.561 188.694 410.303 192.051 415.11 197.676C420.177 203.845 424.885 210.3 429.209 217.01C429.51 217.441 429.671 217.953 429.671 218.477C429.671 219.002 429.51 219.514 429.209 219.944C423.57 225.351 416.148 232.321 416.148 232.321C416.148 232.321 417.763 237.549 422.301 238.664Z" fill="#25216F"/>
<path d="M358.559 205.877L385.156 184.441V198.407L364.853 214.679C363.684 215.479 362.248 215.788 360.853 215.541C359.458 215.294 358.216 214.51 357.394 213.357C356.571 212.204 356.234 210.775 356.454 209.376C356.675 207.978 357.435 206.721 358.572 205.877H358.559Z" fill="#25216F"/>
<path d="M385.052 222.98C386.793 224.17 388.073 225.92 388.679 227.939C389.249 230.125 389.275 232.416 388.756 234.614C388.706 234.853 388.576 235.067 388.387 235.221C388.198 235.375 387.962 235.459 387.718 235.46H387.5C387.299 235.416 387.115 235.315 386.97 235.17C386.824 235.025 386.724 234.841 386.68 234.64C386.63 234.879 386.499 235.093 386.31 235.247C386.121 235.401 385.885 235.485 385.641 235.486H385.423C385.229 235.445 385.049 235.35 384.906 235.212C384.763 235.073 384.663 234.897 384.616 234.704C384.552 234.924 384.42 235.118 384.237 235.256C384.055 235.395 383.832 235.471 383.603 235.473H383.385C383.185 235.429 383.001 235.328 382.855 235.183C382.71 235.037 382.609 234.854 382.565 234.653C382.515 234.891 382.385 235.105 382.196 235.259C382.007 235.413 381.771 235.498 381.527 235.498H381.309C381.169 235.471 381.037 235.416 380.919 235.336C380.801 235.256 380.701 235.153 380.624 235.033C380.548 234.914 380.496 234.78 380.473 234.639C380.449 234.499 380.455 234.355 380.489 234.217C380.817 232.72 380.887 231.177 380.694 229.656C380.601 229.04 380.446 228.434 380.232 227.849L385.052 222.98Z" fill="#F5BB95"/>
<path d="M357.252 207.35C357.634 206.812 358.119 206.356 358.68 206.008C359.24 205.66 359.864 205.426 360.515 205.321C361.167 205.216 361.832 205.242 362.474 205.397C363.115 205.551 363.719 205.832 364.251 206.223L385.938 222.879L379.209 228.965L358.329 214.294C357.801 213.91 357.354 213.425 357.014 212.868C356.674 212.31 356.447 211.691 356.347 211.046C356.247 210.401 356.276 209.742 356.431 209.108C356.586 208.474 356.865 207.876 357.252 207.35Z" fill="#25216F"/>
<path d="M355.919 134.604C346.585 128.311 328.067 115.857 318.768 109.83C314.001 106.741 314.001 102.508 314.001 99.742V66.4127C313.98 64.8958 314.257 63.3885 314.818 61.9688C325.004 68.779 361.59 93.0761 361.59 93.0761V136.721C361.59 136.721 359.385 136.943 355.919 134.604Z" fill="url(#paint50_linear_1509_5436)"/>
<path d="M365.237 136.005C367.822 134.339 371.246 132.117 373.51 130.528C376.491 128.445 376.013 126.157 376.013 124.546V88.0446C376.013 85.2671 375.26 84.0117 375.26 84.0117L361.591 93.1273V136.772C361.591 136.772 363.219 137.289 365.237 136.005Z" fill="url(#paint51_linear_1509_5436)"/>
<path d="M328.448 51.6836C328.448 51.6836 321.418 56.6052 317.701 58.9049C316.505 59.7135 315.52 60.7718 314.819 61.999C326.488 69.7759 361.58 93.1397 361.58 93.1397L375.261 84.013C374.746 83.0114 373.961 82.1582 372.985 81.5411C361.661 73.6976 328.448 51.6836 328.448 51.6836Z" fill="url(#paint52_linear_1509_5436)"/>
<path d="M343.996 100.878C343.996 96.8336 339.807 90.5066 336.33 88.218C332.853 85.9294 328.612 86.5904 328.612 90.6288C328.612 93.4951 330.537 97.2058 332.94 99.9832C332.806 104.155 332.736 106.244 332.596 110.415C335.338 112.232 336.773 113.159 339.638 115.07V104.355C342.088 104.822 343.996 103.749 343.996 100.878Z" fill="#594E83"/>
<path d="M362.676 87.7508C360.751 87.7508 359.176 86.9731 359.176 85.9733V65.2591C359.176 54.6215 353.925 46.6336 343.541 41.5064C340.962 40.2399 334.789 38.6956 332.217 40.2899C331.866 40.5065 330.793 41.1675 330.962 44.0616V44.2672L330.892 58.9098V61.1985C330.892 61.8762 329.492 62.5872 327.392 62.5872C325.723 62.5872 323.891 61.3929 323.891 61.2373V58.871C323.891 54.0271 323.915 49.1814 323.961 44.3338C323.675 38.8234 326.213 36.0682 328.401 34.7128C334.393 31.0354 343.867 34.2128 346.714 35.6182C359.403 41.8841 366.107 52.1329 366.107 65.2535V85.8066C366.159 87.5953 362.676 87.7508 362.676 87.7508Z" fill="url(#paint53_linear_1509_5436)"/>
</g>
<defs>
<linearGradient id="paint0_linear_1509_5436" x1="295.031" y1="381.896" x2="231.095" y2="347.752" gradientUnits="userSpaceOnUse">
<stop stop-color="#30338C"/>
<stop offset="0.84" stop-color="#6E6AAB"/>
<stop offset="1" stop-color="#7A75B1"/>
</linearGradient>
<linearGradient id="paint1_linear_1509_5436" x1="213.097" y1="427.183" x2="213.097" y2="362.565" gradientUnits="userSpaceOnUse">
<stop stop-color="#9186BB"/>
<stop offset="1" stop-color="#C7C4E1"/>
</linearGradient>
<linearGradient id="paint2_linear_1509_5436" x1="294.281" y1="315.697" x2="199.893" y2="313.473" gradientUnits="userSpaceOnUse">
<stop stop-color="#786FAD"/>
<stop offset="1" stop-color="#B2B3D7"/>
</linearGradient>
<linearGradient id="paint3_linear_1509_5436" x1="226.087" y1="370.906" x2="206.014" y2="378.475" gradientUnits="userSpaceOnUse">
<stop offset="0.07" stop-color="#30338C"/>
<stop offset="0.42" stop-color="#52519D"/>
<stop offset="0.79" stop-color="#6F6BAB"/>
<stop offset="1" stop-color="#7A75B1"/>
</linearGradient>
<linearGradient id="paint4_linear_1509_5436" x1="203.831" y1="387.159" x2="225.641" y2="401.531" gradientUnits="userSpaceOnUse">
<stop offset="0.13" stop-color="#30338C"/>
<stop offset="0.45" stop-color="#52519D"/>
<stop offset="0.8" stop-color="#6F6BAB"/>
<stop offset="1" stop-color="#7A75B1"/>
</linearGradient>
<linearGradient id="paint5_linear_1509_5436" x1="202.971" y1="388.135" x2="202.971" y2="346.328" gradientUnits="userSpaceOnUse">
<stop offset="0.07" stop-color="#30338C"/>
<stop offset="0.42" stop-color="#52519D"/>
<stop offset="0.79" stop-color="#6F6BAB"/>
<stop offset="1" stop-color="#7A75B1"/>
</linearGradient>
<linearGradient id="paint6_linear_1509_5436" x1="269.291" y1="330.851" x2="242.618" y2="316.612" gradientUnits="userSpaceOnUse">
<stop stop-color="#30338C"/>
<stop offset="0.84" stop-color="#6E6AAB"/>
<stop offset="1" stop-color="#7A75B1"/>
</linearGradient>
<linearGradient id="paint7_linear_1509_5436" x1="217.946" y1="343.422" x2="217.946" y2="331.106" gradientUnits="userSpaceOnUse">
<stop stop-color="#9186BB"/>
<stop offset="1" stop-color="#C7C4E1"/>
</linearGradient>
<linearGradient id="paint8_linear_1509_5436" x1="280.982" y1="314.988" x2="208.999" y2="313.287" gradientUnits="userSpaceOnUse">
<stop stop-color="#786FAD"/>
<stop offset="1" stop-color="#B2B3D7"/>
</linearGradient>
<linearGradient id="paint9_linear_1509_5436" x1="98.6492" y1="33.6766" x2="97.457" y2="33.6829" gradientUnits="userSpaceOnUse">
<stop stop-color="#30338C"/>
<stop offset="0.84" stop-color="#6E6AAB"/>
<stop offset="1" stop-color="#7A75B1"/>
</linearGradient>
<linearGradient id="paint10_linear_1509_5436" x1="169.096" y1="90.6992" x2="168.546" y2="90.702" gradientUnits="userSpaceOnUse">
<stop stop-color="#30338C"/>
<stop offset="0.84" stop-color="#6E6AAB"/>
<stop offset="1" stop-color="#7A75B1"/>
</linearGradient>
<linearGradient id="paint11_linear_1509_5436" x1="221.334" y1="285.203" x2="184.338" y2="265.445" gradientUnits="userSpaceOnUse">
<stop stop-color="#30338C"/>
<stop offset="0.84" stop-color="#6E6AAB"/>
<stop offset="1" stop-color="#7A75B1"/>
</linearGradient>
<linearGradient id="paint12_linear_1509_5436" x1="133.924" y1="304.212" x2="133.924" y2="267.747" gradientUnits="userSpaceOnUse">
<stop stop-color="#9186BB"/>
<stop offset="1" stop-color="#C7C4E1"/>
</linearGradient>
<linearGradient id="paint13_linear_1509_5436" x1="235.718" y1="248.549" x2="104.273" y2="245.454" gradientUnits="userSpaceOnUse">
<stop stop-color="#786FAD"/>
<stop offset="1" stop-color="#B2B3D7"/>
</linearGradient>
<linearGradient id="paint14_linear_1509_5436" x1="193.959" y1="252.674" x2="161.129" y2="190.575" gradientUnits="userSpaceOnUse">
<stop stop-color="#30338C"/>
<stop offset="0.84" stop-color="#6E6AAB"/>
<stop offset="1" stop-color="#7A75B1"/>
</linearGradient>
<linearGradient id="paint15_linear_1509_5436" x1="147.085" y1="243.437" x2="178.736" y2="221.31" gradientUnits="userSpaceOnUse">
<stop stop-color="#C7C4E1"/>
<stop offset="1" stop-color="#7768A8"/>
</linearGradient>
<linearGradient id="paint16_linear_1509_5436" x1="174.434" y1="225.324" x2="150.172" y2="240.326" gradientUnits="userSpaceOnUse">
<stop stop-color="#30338C"/>
<stop offset="0.84" stop-color="#6E6AAB"/>
<stop offset="1" stop-color="#7A75B1"/>
</linearGradient>
<linearGradient id="paint17_linear_1509_5436" x1="129.487" y1="200.012" x2="70.2509" y2="168.372" gradientUnits="userSpaceOnUse">
<stop stop-color="#30338C"/>
<stop offset="0.84" stop-color="#6E6AAB"/>
<stop offset="1" stop-color="#7A75B1"/>
</linearGradient>
<linearGradient id="paint18_linear_1509_5436" x1="58.2956" y1="246.919" x2="58.2956" y2="167.803" gradientUnits="userSpaceOnUse">
<stop stop-color="#9186BB"/>
<stop offset="1" stop-color="#C7C4E1"/>
</linearGradient>
<linearGradient id="paint19_linear_1509_5436" x1="119.39" y1="123.649" x2="40.5095" y2="121.787" gradientUnits="userSpaceOnUse">
<stop stop-color="#786FAD"/>
<stop offset="1" stop-color="#B2B3D7"/>
</linearGradient>
<linearGradient id="paint20_linear_1509_5436" x1="100.564" y1="136.652" x2="85.4608" y2="128.588" gradientUnits="userSpaceOnUse">
<stop stop-color="#30338C"/>
<stop offset="0.84" stop-color="#6E6AAB"/>
<stop offset="1" stop-color="#7A75B1"/>
</linearGradient>
<linearGradient id="paint21_linear_1509_5436" x1="64.9114" y1="144.403" x2="64.9114" y2="129.53" gradientUnits="userSpaceOnUse">
<stop stop-color="#9186BB"/>
<stop offset="1" stop-color="#C7C4E1"/>
</linearGradient>
<linearGradient id="paint22_linear_1509_5436" x1="106.417" y1="121.681" x2="52.8212" y2="120.422" gradientUnits="userSpaceOnUse">
<stop stop-color="#9186BB"/>
<stop offset="1" stop-color="#C7C4E1"/>
</linearGradient>
<linearGradient id="paint23_linear_1509_5436" x1="144.957" y1="360.622" x2="92.7232" y2="332.72" gradientUnits="userSpaceOnUse">
<stop stop-color="#30338C"/>
<stop offset="0.03" stop-color="#393B90"/>
<stop offset="0.14" stop-color="#50509C"/>
<stop offset="0.27" stop-color="#6361A6"/>
<stop offset="0.42" stop-color="#706CAC"/>
<stop offset="0.61" stop-color="#7873B0"/>
<stop offset="1" stop-color="#7A75B1"/>
</linearGradient>
<linearGradient id="paint24_linear_1509_5436" x1="94.5485" y1="409.032" x2="94.5485" y2="312.888" gradientUnits="userSpaceOnUse">
<stop stop-color="#9186BB"/>
<stop offset="1" stop-color="#C7C4E1"/>
</linearGradient>
<linearGradient id="paint25_linear_1509_5436" x1="120.636" y1="272.726" x2="74.2987" y2="271.641" gradientUnits="userSpaceOnUse">
<stop stop-color="#B2B3D7"/>
<stop offset="1" stop-color="#786FAD"/>
</linearGradient>
<linearGradient id="paint26_linear_1509_5436" x1="79.2949" y1="403.449" x2="12.6418" y2="403.449" gradientUnits="userSpaceOnUse">
<stop stop-color="#742AA7"/>
<stop offset="1" stop-color="#0D3E93"/>
</linearGradient>
<linearGradient id="paint27_linear_1509_5436" x1="69.6777" y1="424.831" x2="22.2559" y2="424.831" gradientUnits="userSpaceOnUse">
<stop stop-color="#742AA7"/>
<stop offset="1" stop-color="#0D3E93"/>
</linearGradient>
<linearGradient id="paint28_linear_1509_5436" x1="57.2783" y1="441.47" x2="34.6588" y2="441.47" gradientUnits="userSpaceOnUse">
<stop stop-color="#742AA7"/>
<stop offset="1" stop-color="#0D3E93"/>
</linearGradient>
<linearGradient id="paint29_linear_1509_5436" x1="10.903" y1="402.591" x2="35.3662" y2="389.53" gradientUnits="userSpaceOnUse">
<stop stop-color="#30338C"/>
<stop offset="0.84" stop-color="#6E6AAB"/>
<stop offset="1" stop-color="#7A75B1"/>
</linearGradient>
<linearGradient id="paint30_linear_1509_5436" x1="68.6476" y1="415.134" x2="68.6476" y2="391.051" gradientUnits="userSpaceOnUse">
<stop stop-color="#9186BB"/>
<stop offset="1" stop-color="#C7C4E1"/>
</linearGradient>
<linearGradient id="paint31_linear_1509_5436" x1="1.41863" y1="378.376" x2="88.227" y2="376.326" gradientUnits="userSpaceOnUse">
<stop stop-color="#786FAD"/>
<stop offset="1" stop-color="#B2B3D7"/>
</linearGradient>
<linearGradient id="paint32_linear_1509_5436" x1="261.727" y1="204.48" x2="195.087" y2="204.48" gradientUnits="userSpaceOnUse">
<stop stop-color="#742AA7"/>
<stop offset="1" stop-color="#0D3E93"/>
</linearGradient>
<linearGradient id="paint33_linear_1509_5436" x1="252.12" y1="225.854" x2="204.685" y2="225.854" gradientUnits="userSpaceOnUse">
<stop stop-color="#742AA7"/>
<stop offset="1" stop-color="#0D3E93"/>
</linearGradient>
<linearGradient id="paint34_linear_1509_5436" x1="239.72" y1="242.501" x2="217.087" y2="242.501" gradientUnits="userSpaceOnUse">
<stop stop-color="#742AA7"/>
<stop offset="1" stop-color="#0D3E93"/>
</linearGradient>
<linearGradient id="paint35_linear_1509_5436" x1="263.464" y1="203.622" x2="239.001" y2="190.548" gradientUnits="userSpaceOnUse">
<stop stop-color="#30338C"/>
<stop offset="0.84" stop-color="#6E6AAB"/>
<stop offset="1" stop-color="#7A75B1"/>
</linearGradient>
<linearGradient id="paint36_linear_1509_5436" x1="205.719" y1="216.165" x2="205.719" y2="192.083" gradientUnits="userSpaceOnUse">
<stop stop-color="#9186BB"/>
<stop offset="1" stop-color="#C7C4E1"/>
</linearGradient>
<linearGradient id="paint37_linear_1509_5436" x1="272.946" y1="179.394" x2="186.138" y2="177.357" gradientUnits="userSpaceOnUse">
<stop stop-color="#786FAD"/>
<stop offset="1" stop-color="#B2B3D7"/>
</linearGradient>
<linearGradient id="paint38_linear_1509_5436" x1="360.84" y1="260.356" x2="333.953" y2="245.997" gradientUnits="userSpaceOnUse">
<stop stop-color="#30338C"/>
<stop offset="0.84" stop-color="#6E6AAB"/>
<stop offset="1" stop-color="#7A75B1"/>
</linearGradient>
<linearGradient id="paint39_linear_1509_5436" x1="276.548" y1="274.788" x2="276.548" y2="230.29" gradientUnits="userSpaceOnUse">
<stop stop-color="#9186BB"/>
<stop offset="1" stop-color="#C7C4E1"/>
</linearGradient>
<linearGradient id="paint40_linear_1509_5436" x1="372.021" y1="220.384" x2="235.903" y2="217.169" gradientUnits="userSpaceOnUse">
<stop stop-color="#786FAD"/>
<stop offset="1" stop-color="#B2B3D7"/>
</linearGradient>
<linearGradient id="paint41_linear_1509_5436" x1="388.214" y1="207.989" x2="360.724" y2="193.295" gradientUnits="userSpaceOnUse">
<stop stop-color="#30338C"/>
<stop offset="0.84" stop-color="#6E6AAB"/>
<stop offset="1" stop-color="#7A75B1"/>
</linearGradient>
<linearGradient id="paint42_linear_1509_5436" x1="327.814" y1="234.145" x2="327.814" y2="152.914" gradientUnits="userSpaceOnUse">
<stop stop-color="#9186BB"/>
<stop offset="1" stop-color="#C7C4E1"/>
</linearGradient>
<linearGradient id="paint43_linear_1509_5436" x1="375.45" y1="139.046" x2="285.133" y2="136.929" gradientUnits="userSpaceOnUse">
<stop stop-color="#B2B3D7"/>
<stop offset="1" stop-color="#786FAD"/>
</linearGradient>
<linearGradient id="paint44_linear_1509_5436" x1="433.234" y1="348.986" x2="369.376" y2="348.986" gradientUnits="userSpaceOnUse">
<stop stop-color="#742AA7"/>
<stop offset="1" stop-color="#0D3E93"/>
</linearGradient>
<linearGradient id="paint45_linear_1509_5436" x1="424.03" y1="369.463" x2="378.578" y2="369.463" gradientUnits="userSpaceOnUse">
<stop stop-color="#742AA7"/>
<stop offset="1" stop-color="#0D3E93"/>
</linearGradient>
<linearGradient id="paint46_linear_1509_5436" x1="412.147" y1="385.423" x2="390.46" y2="385.423" gradientUnits="userSpaceOnUse">
<stop stop-color="#742AA7"/>
<stop offset="1" stop-color="#0D3E93"/>
</linearGradient>
<linearGradient id="paint47_linear_1509_5436" x1="434.901" y1="348.161" x2="411.461" y2="335.635" gradientUnits="userSpaceOnUse">
<stop stop-color="#30338C"/>
<stop offset="0.84" stop-color="#6E6AAB"/>
<stop offset="1" stop-color="#7A75B1"/>
</linearGradient>
<linearGradient id="paint48_linear_1509_5436" x1="379.567" y1="360.179" x2="379.567" y2="337.104" gradientUnits="userSpaceOnUse">
<stop stop-color="#9186BB"/>
<stop offset="1" stop-color="#C7C4E1"/>
</linearGradient>
<linearGradient id="paint49_linear_1509_5436" x1="443.988" y1="324.944" x2="360.801" y2="322.995" gradientUnits="userSpaceOnUse">
<stop stop-color="#786FAD"/>
<stop offset="1" stop-color="#B2B3D7"/>
</linearGradient>
<linearGradient id="paint50_linear_1509_5436" x1="360.12" y1="132.233" x2="323.19" y2="71.1224" gradientUnits="userSpaceOnUse">
<stop stop-color="#9186BB"/>
<stop offset="1" stop-color="#C7C4E1"/>
</linearGradient>
<linearGradient id="paint51_linear_1509_5436" x1="377.629" y1="130.917" x2="361.616" y2="91.4992" gradientUnits="userSpaceOnUse">
<stop stop-color="#30338C"/>
<stop offset="0.04" stop-color="#35378E"/>
<stop offset="0.29" stop-color="#53529D"/>
<stop offset="0.54" stop-color="#6965A8"/>
<stop offset="0.78" stop-color="#7671AF"/>
<stop offset="1" stop-color="#7A75B1"/>
</linearGradient>
<linearGradient id="paint52_linear_1509_5436" x1="375.261" y1="72.42" x2="314.819" y2="72.42" gradientUnits="userSpaceOnUse">
<stop stop-color="#C7C4E1"/>
<stop offset="1" stop-color="#9186BB"/>
</linearGradient>
<linearGradient id="paint53_linear_1509_5436" x1="332.217" y1="78.0798" x2="357.686" y2="44.6368" gradientUnits="userSpaceOnUse">
<stop stop-color="#181B5E"/>
<stop offset="0.27" stop-color="#3C3C7D"/>
<stop offset="0.58" stop-color="#5E5B99"/>
<stop offset="0.83" stop-color="#736EAB"/>
<stop offset="1" stop-color="#7A75B1"/>
</linearGradient>
<clipPath id="clip0_1509_5436">
<rect width="460.8" height="450" fill="white" transform="matrix(-1 0 0 1 461.4 0)"/>
</clipPath>
</defs>
</svg>
