<svg width="579" height="500" viewBox="0 0 579 500" fill="none" xmlns="http://www.w3.org/2000/svg">
<path d="M308.425 170.072L395.246 232.621L308.425 295.075L221.617 232.621L308.425 170.072Z" stroke="url(#paint0_linear_1295_2484)" stroke-width="1.88971" stroke-linecap="round" stroke-linejoin="round"/>
<path d="M159.429 262.918L221.617 307.716L159.429 352.445L97.2531 307.716L159.429 262.918Z" stroke="url(#paint1_linear_1295_2484)" stroke-width="1.88971" stroke-linecap="round" stroke-linejoin="round"/>
<path d="M353.63 342.582L415.818 387.393L353.63 432.11L291.454 387.393L353.63 342.582Z" stroke="url(#paint2_linear_1295_2484)" stroke-width="1.88971" stroke-linecap="round" stroke-linejoin="round"/>
<path d="M466.881 214.125V214.111V214.125ZM466.881 214.125L529.057 258.923L466.881 303.639L404.706 258.923L466.881 214.125Z" stroke="url(#paint3_linear_1295_2484)" stroke-width="1.88971" stroke-linecap="round" stroke-linejoin="round"/>
<path d="M297.445 288.84L156.959 389.641L258.937 462.746L327.139 413.68" stroke="url(#paint4_linear_1295_2484)" stroke-width="1.88971" stroke-linecap="round" stroke-linejoin="round"/>
<path d="M496.947 282.013L535.508 309.656L471.456 354.833L348.519 266.701" stroke="url(#paint5_linear_1295_2484)" stroke-width="1.88971" stroke-linecap="round" stroke-linejoin="round"/>
<path d="M262.148 202.933L178.116 142.484L59.7512 227.622L134.15 281.132" stroke="url(#paint6_linear_1295_2484)" stroke-width="1.88971" stroke-linecap="round" stroke-linejoin="round"/>
<path d="M298.04 277.906L367.854 227.675V97.835L298.04 148.053V277.906Z" fill="url(#paint7_linear_1295_2484)"/>
<path d="M298.039 277.905L262.148 252.092V122.238L298.039 148.052V277.905Z" fill="url(#paint8_linear_1295_2484)"/>
<path d="M331.975 72.0068L367.854 97.861L298.04 148.065L262.149 122.265L331.975 72.0068Z" fill="url(#paint9_linear_1295_2484)"/>
<path d="M297.788 141.318L353.422 101.507V98.6611L297.788 138.472V141.318Z" fill="url(#paint10_linear_1295_2484)"/>
<path d="M297.787 141.318L272.732 123.296V120.45L297.787 138.472V141.318Z" fill="url(#paint11_linear_1295_2484)"/>
<path d="M328.38 80.625L353.422 98.6741L297.788 138.485L272.733 120.477L328.38 80.625Z" fill="url(#paint12_linear_1295_2484)"/>
<g style="mix-blend-mode:multiply">
<path d="M325.209 86.3564L345.824 101.181L344.225 102.319L323.623 87.4947L325.209 86.3564Z" fill="#47417D"/>
</g>
<g style="mix-blend-mode:multiply">
<path d="M322.445 88.3369L343.047 103.161L341.461 104.299L320.859 89.4616L322.445 88.3369Z" fill="#47417D"/>
</g>
<g style="mix-blend-mode:multiply">
<path d="M319.683 90.3418L340.285 105.166L338.686 106.304L318.084 91.48L319.683 90.3418Z" fill="#47417D"/>
</g>
<g style="mix-blend-mode:multiply">
<path d="M306.496 99.9072L327.031 114.677L325.445 115.815L304.91 101.045L306.496 99.9072Z" fill="#47417D"/>
</g>
<g style="mix-blend-mode:multiply">
<path d="M303.736 101.901L324.285 116.658L322.686 117.796L302.137 103.04L303.736 101.901Z" fill="#47417D"/>
</g>
<g style="mix-blend-mode:multiply">
<path d="M300.972 103.891L321.574 118.715L319.975 119.867L299.373 105.029L300.972 103.891Z" fill="#47417D"/>
</g>
<g style="mix-blend-mode:multiply">
<path d="M287.125 113.756L307.727 128.58L306.128 129.718L285.526 114.894L287.125 113.756Z" fill="#47417D"/>
</g>
<g style="mix-blend-mode:multiply">
<path d="M284.348 115.747L304.963 130.585L303.364 131.723L282.762 116.885L284.348 115.747Z" fill="#47417D"/>
</g>
<g style="mix-blend-mode:multiply">
<path d="M281.586 117.753L302.188 132.577L300.602 133.715L279.987 118.891L281.586 117.753Z" fill="#47417D"/>
</g>
<path d="M295.08 209.314L264.197 187.105V134.651L295.08 156.86V209.314Z" fill="url(#paint13_linear_1295_2484)"/>
<g style="mix-blend-mode:multiply">
<path d="M295.08 209.314L268.77 190.398V184.436L295.08 165.52V209.314Z" fill="#47417D"/>
</g>
<path d="M294.062 208.584L268.769 190.4V184.343L294.062 202.527V208.584Z" fill="url(#paint14_linear_1295_2484)"/>
<path d="M268.768 137.944V190.398L264.195 187.105V134.651L268.768 137.944Z" fill="url(#paint15_linear_1295_2484)"/>
<path d="M294.063 156.085L295.08 156.857V209.311L294.063 208.552V156.085Z" fill="#002B64"/>
<path d="M295.08 158.121L264.197 135.939V134.651L295.08 156.833V158.121Z" fill="#002B64"/>
<g style="mix-blend-mode:multiply" opacity="0.8">
<path d="M295.08 209.314L264.197 187.105V134.651L295.08 156.86V209.314Z" fill="#47417D"/>
</g>
<path d="M271.674 144.761L277.053 148.623V150.655L271.674 146.793V144.761Z" fill="url(#paint16_linear_1295_2484)"/>
<path d="M270.379 143.824V145.857L268.872 144.773V142.727L270.379 143.824Z" fill="url(#paint17_linear_1295_2484)"/>
<path d="M277.979 149.284L293.018 160.097V162.13L277.979 151.317V149.284Z" fill="url(#paint18_linear_1295_2484)"/>
<path d="M271.674 150.057L277.053 153.918V155.951L271.674 152.076V150.057Z" fill="url(#paint19_linear_1295_2484)"/>
<path d="M277.979 154.585L293.018 165.398V167.431L277.979 156.618V154.585Z" fill="url(#paint20_linear_1295_2484)"/>
<path d="M277.979 159.881L293.018 170.694V172.727L277.979 161.913V159.881Z" fill="url(#paint21_linear_1295_2484)"/>
<path d="M271.674 160.342L277.053 164.204V166.236L271.674 162.374V160.342Z" fill="url(#paint22_linear_1295_2484)"/>
<path d="M270.379 159.406V161.439L268.872 160.355V158.322L270.379 159.406Z" fill="url(#paint23_linear_1295_2484)"/>
<path d="M277.979 164.881L293.018 175.681V177.713L277.979 166.9V164.881Z" fill="url(#paint24_linear_1295_2484)"/>
<path d="M271.674 165.643L277.053 169.504V171.537L271.674 167.675V165.643Z" fill="url(#paint25_linear_1295_2484)"/>
<path d="M277.979 170.164L293.018 180.977V183.01L277.979 172.197V170.164Z" fill="url(#paint26_linear_1295_2484)"/>
<path d="M277.979 175.464L293.018 186.277V188.31L277.979 177.496V175.464Z" fill="url(#paint27_linear_1295_2484)"/>
<path d="M271.674 175.926L277.053 179.788V181.82L271.674 177.958V175.926Z" fill="url(#paint28_linear_1295_2484)"/>
<path d="M270.379 174.987V177.02L268.872 175.936V173.903L270.379 174.987Z" fill="url(#paint29_linear_1295_2484)"/>
<path d="M277.979 180.465L293.018 191.265V193.297L277.979 182.497V180.465Z" fill="url(#paint30_linear_1295_2484)"/>
<path d="M271.674 181.224L277.053 185.085V187.118L271.674 183.256V181.224Z" fill="url(#paint31_linear_1295_2484)"/>
<path d="M277.979 185.748L293.018 196.561V198.594L277.979 187.781V185.748Z" fill="url(#paint32_linear_1295_2484)"/>
<path d="M277.979 191.047L293.018 201.86V203.893L277.979 193.079V191.047Z" fill="url(#paint33_linear_1295_2484)"/>
<g style="mix-blend-mode:multiply">
<path d="M294.324 219.79L262.146 196.646V192.852L294.324 215.996V219.79Z" fill="#47417D"/>
<path d="M294.324 229.516L262.146 206.386V202.592L294.324 225.722V229.516Z" fill="#47417D"/>
<path d="M294.324 239.26L262.146 216.116V212.322L294.324 235.466V239.26Z" fill="#47417D"/>
<path d="M294.324 248.993L262.146 225.849V222.055L294.324 245.199V248.993Z" fill="#47417D"/>
<path d="M294.324 258.733L262.146 235.589V231.795L294.324 254.939V258.733Z" fill="#47417D"/>
<path d="M294.324 268.462L262.146 245.318V241.523L294.324 264.668V268.462Z" fill="#47417D"/>
</g>
<path d="M457.992 287.988C455.6 286.2 439.927 275.075 433.611 270.535C432.976 270.088 432.289 269.546 431.774 269.18C430.214 268.069 430.69 265.115 430.69 265.115L458.6 285.156V288.246C458.376 288.225 458.164 288.135 457.992 287.988Z" fill="url(#paint34_linear_1295_2484)"/>
<path d="M459.167 288.031C462.682 285.497 495.573 261.729 506.872 253.599C508.458 252.461 507.982 249.629 507.982 249.629L458.598 285.158V288.248C458.804 288.232 459.001 288.157 459.167 288.031Z" fill="url(#paint35_linear_1295_2484)"/>
<path d="M480.044 229.572L430.687 265.088L458.597 285.156L507.98 249.64L480.044 229.572Z" fill="url(#paint36_linear_1295_2484)"/>
<g style="mix-blend-mode:soft-light">
<path d="M479.902 231.686L434.192 264.599L449.522 275.684L495.258 242.756L479.902 231.686Z" fill="white"/>
</g>
<g style="mix-blend-mode:soft-light">
<path d="M481.898 254.602L466.939 265.523L475 271.35L489.973 260.428L481.898 254.602Z" fill="white"/>
</g>
<path d="M430.688 265.071C430.461 265.066 430.238 265.015 430.032 264.92C429.825 264.826 429.639 264.69 429.484 264.521C429.329 264.352 429.208 264.153 429.129 263.936C429.05 263.719 429.014 263.487 429.022 263.256V230.125C429.053 229.818 429.138 229.52 429.274 229.244L430.688 230.044V265.071Z" fill="url(#paint37_linear_1295_2484)"/>
<path d="M430.69 265.073L480.008 229.571V194.598L430.69 230.1V265.073Z" fill="url(#paint38_linear_1295_2484)"/>
<g style="mix-blend-mode:multiply">
<path d="M430.69 265.073L480.008 229.571V194.598L430.69 230.1V265.073Z" fill="#47417D"/>
</g>
<path d="M476.453 195.074C465.643 202.825 434.589 225.237 430.056 228.408C429.716 228.621 429.445 228.932 429.276 229.302L430.69 230.115L480.008 194.613C480.008 194.613 478.792 193.394 476.453 195.074Z" fill="url(#paint39_linear_1295_2484)"/>
<g style="mix-blend-mode:multiply">
<path d="M432.673 261.237L478.449 228.296V198.174L432.673 231.115V261.237Z" fill="#594E83"/>
</g>
<g style="mix-blend-mode:soft-light" opacity="0.39">
<path d="M457.447 213.365L432.788 231.116V261.239L478.393 228.406L457.447 213.365Z" fill="white"/>
</g>
<g style="mix-blend-mode:soft-light" opacity="0.39">
<path d="M432.565 261.199L476.729 229.409L464.505 220.602L432.565 243.61V261.199Z" fill="white"/>
</g>
<g style="mix-blend-mode:soft-light" opacity="0.39">
<path d="M432.791 239.773L446.957 229.434L441.05 225.166L432.791 231.115V239.773Z" fill="white"/>
</g>
<g style="mix-blend-mode:multiply">
<path d="M454 282.812L457.713 285.509V286.688L454 283.991V282.812Z" fill="#47417D"/>
<path d="M449.166 279.318L452.879 282.001V283.18L449.166 280.497V279.318Z" fill="#47417D"/>
<path d="M438.142 271.404L447.432 278.098V279.264L438.142 272.583V271.404Z" fill="#47417D"/>
<path d="M431.509 266.648L435.223 269.331V270.51L431.509 267.814V266.648Z" fill="#47417D"/>
</g>
<path d="M362.883 416.676C365.262 414.887 380.948 403.762 387.264 399.223C387.899 398.776 388.586 398.234 389.101 397.868C390.66 396.757 390.172 393.803 390.172 393.803L362.262 413.884V416.974C362.494 416.941 362.71 416.837 362.883 416.676Z" fill="url(#paint40_linear_1295_2484)"/>
<path d="M361.709 416.714C358.18 414.18 325.302 390.413 314.003 382.296C312.404 381.145 312.88 378.312 312.88 378.312L362.264 413.842V416.931C362.062 416.916 361.869 416.84 361.709 416.714Z" fill="url(#paint41_linear_1295_2484)"/>
<path d="M340.815 358.262L390.172 393.777L362.262 413.845L312.879 378.33L340.815 358.262Z" fill="url(#paint42_linear_1295_2484)"/>
<g style="mix-blend-mode:soft-light">
<path d="M340.973 360.371L386.67 393.285L371.341 404.369L325.618 371.442L340.973 360.371Z" fill="white"/>
</g>
<g style="mix-blend-mode:soft-light">
<path d="M338.978 383.287L353.938 394.209L345.876 400.035L330.904 389.114L338.978 383.287Z" fill="white"/>
</g>
<path d="M390.172 393.763C390.399 393.758 390.623 393.707 390.83 393.612C391.037 393.518 391.224 393.383 391.381 393.214C391.537 393.045 391.658 392.846 391.739 392.629C391.82 392.411 391.858 392.18 391.851 391.947V358.857C391.818 358.549 391.728 358.25 391.586 357.977L390.172 358.776V393.763Z" fill="url(#paint43_linear_1295_2484)"/>
<path d="M390.172 393.763L340.854 358.261V323.287L390.172 358.789V393.763Z" fill="url(#paint44_linear_1295_2484)"/>
<g style="mix-blend-mode:multiply">
<path d="M390.172 393.763L340.854 358.261V323.287L390.172 358.789V393.763Z" fill="#47417D"/>
</g>
<path d="M344.411 323.763C355.234 331.514 386.289 353.926 390.808 357.097C391.148 357.31 391.42 357.621 391.588 357.992L390.174 358.805L340.856 323.303C340.856 323.303 342.085 322.083 344.411 323.763Z" fill="url(#paint45_linear_1295_2484)"/>
<g style="mix-blend-mode:multiply">
<path d="M388.189 389.929L342.427 356.988V326.865L388.189 359.806V389.929Z" fill="#594E83"/>
</g>
<g style="mix-blend-mode:soft-light" opacity="0.39">
<path d="M363.423 342.055L388.082 359.806V389.928L342.465 357.096L363.423 342.055Z" fill="white"/>
</g>
<g style="mix-blend-mode:soft-light" opacity="0.39">
<path d="M388.309 389.886L344.145 358.097L356.355 349.289L388.309 372.298V389.886Z" fill="white"/>
</g>
<g style="mix-blend-mode:soft-light" opacity="0.39">
<path d="M388.082 368.463L373.916 358.124L379.823 353.855L388.082 359.804V368.463Z" fill="white"/>
</g>
<g style="mix-blend-mode:multiply">
<path d="M366.865 411.496L363.152 414.193V415.371L366.865 412.675V411.496Z" fill="#47417D"/>
<path d="M371.701 408.002L367.988 410.699V411.864L371.701 409.181V408.002Z" fill="#47417D"/>
<path d="M382.723 400.088L373.433 406.782V407.947L382.723 401.267V400.088Z" fill="#47417D"/>
<path d="M389.355 395.332L385.655 398.015V399.194L389.355 396.511V395.332Z" fill="#47417D"/>
</g>
<path d="M148.885 335.619C146.506 333.817 130.82 322.692 124.504 318.153L122.667 316.798C121.107 315.673 121.596 312.732 121.596 312.732L149.506 332.801V335.822C149.284 335.817 149.069 335.746 148.885 335.619Z" fill="url(#paint46_linear_1295_2484)"/>
<path d="M150.058 335.642C153.587 333.108 186.465 309.341 197.764 301.224C199.363 300.072 198.887 297.254 198.887 297.254L149.503 332.77V335.818C149.701 335.813 149.892 335.752 150.058 335.642Z" fill="url(#paint47_linear_1295_2484)"/>
<path d="M170.953 277.201L121.596 312.703L149.505 332.785L198.889 297.256L170.953 277.201Z" fill="url(#paint48_linear_1295_2484)"/>
<g style="mix-blend-mode:soft-light">
<path d="M170.806 279.301L125.096 312.215L140.425 323.299L186.148 290.385L170.806 279.301Z" fill="white"/>
</g>
<g style="mix-blend-mode:soft-light">
<path d="M172.791 302.23L157.832 313.152L165.893 318.979L180.865 308.044L172.791 302.23Z" fill="white"/>
</g>
<path d="M121.596 312.703C121.139 312.689 120.706 312.49 120.392 312.15C120.077 311.809 119.907 311.356 119.917 310.887V277.81C119.95 277.502 120.04 277.203 120.182 276.93L121.596 277.729V312.703Z" fill="url(#paint49_linear_1295_2484)"/>
<path d="M121.593 312.702L170.91 277.2V242.227L121.593 277.729V312.702Z" fill="url(#paint50_linear_1295_2484)"/>
<g style="mix-blend-mode:multiply">
<path d="M121.593 312.702L170.91 277.2V242.227L121.593 277.729V312.702Z" fill="#47417D"/>
</g>
<path d="M167.358 242.689C156.535 250.453 125.481 272.852 120.961 276.023C120.622 276.242 120.351 276.558 120.182 276.931L121.596 277.73L170.887 242.228C170.887 242.228 169.684 240.968 167.358 242.689Z" fill="url(#paint51_linear_1295_2484)"/>
<g style="mix-blend-mode:multiply">
<path d="M123.562 308.87L169.352 275.916V245.793L123.562 278.748V308.87Z" fill="#594E83"/>
</g>
<g style="mix-blend-mode:soft-light" opacity="0.39">
<path d="M148.342 260.996L123.683 278.747V308.87L169.301 276.037L148.342 260.996Z" fill="white"/>
</g>
<g style="mix-blend-mode:soft-light" opacity="0.39">
<path d="M123.471 308.814L167.621 277.038L155.411 268.23L123.471 291.226V308.814Z" fill="white"/>
</g>
<g style="mix-blend-mode:soft-light" opacity="0.39">
<path d="M123.683 287.392L137.85 277.054L131.943 272.785L123.683 278.747V287.392Z" fill="white"/>
</g>
<g style="mix-blend-mode:multiply">
<path d="M144.908 330.426L148.621 333.122V334.301L144.908 331.618V330.426Z" fill="#47417D"/>
<path d="M140.074 326.932L143.787 329.628V330.807L140.074 328.111V326.932Z" fill="#47417D"/>
<path d="M129.05 319.031L138.34 325.712V326.891L129.05 320.21V319.031Z" fill="#47417D"/>
<path d="M122.417 314.262L126.117 316.958V318.124L122.417 315.441V314.262Z" fill="#47417D"/>
</g>
<path d="M358.537 293.814C358.314 293.773 358.089 293.746 357.863 293.732L358.537 293.814Z" fill="url(#paint52_linear_1295_2484)"/>
<path d="M399.504 328.179L399.834 327.936C399.716 328.006 399.606 328.087 399.504 328.179Z" fill="url(#paint53_linear_1295_2484)"/>
<path d="M153.232 206.589C153.455 206.549 153.68 206.522 153.906 206.508C153.68 206.517 153.455 206.544 153.232 206.589Z" fill="url(#paint54_linear_1295_2484)"/>
<path d="M465.26 165.191C465.483 165.15 465.708 165.123 465.934 165.109L465.26 165.191Z" fill="url(#paint55_linear_1295_2484)"/>
<path d="M424.307 199.555L423.976 199.324C424.091 199.394 424.201 199.471 424.307 199.555Z" fill="url(#paint56_linear_1295_2484)"/>
<path d="M233.938 369.225C233.938 370.661 230.647 404.456 229.326 414.713C228.004 424.619 225.269 449.375 225.269 458.346C225.269 458.861 223.445 460.297 220.498 460.88C218.503 461.286 215.318 459.525 215.318 458.833L215.926 369.225H233.938Z" fill="#09003C"/>
<path d="M222.666 456.418H230.199C239.198 456.418 232.776 463.573 226.314 463.573H217.539C217.539 463.573 215.319 463.573 215.319 461.919V456.418H222.666Z" fill="#09003C"/>
<path d="M250.387 369.225C250.387 371.935 250.387 376.23 250.387 382.165C250.209 395.798 249.296 409.41 247.651 422.938C246.33 432.83 241.771 457.587 241.771 466.571C241.771 467.086 239.947 468.508 237 469.105C235.005 469.511 231.82 467.75 231.82 467.059L231.992 369.225H250.387Z" fill="#09003C"/>
<path d="M239.169 464.551H246.688C255.701 464.551 249.265 471.705 242.816 471.705H234.042C234.042 471.705 231.822 471.705 231.822 470.052V464.551H239.169Z" fill="#09003C"/>
<path d="M241.758 283.812C241.758 283.812 241.863 296.008 241.863 297.905C241.863 300.764 235.732 297.024 233.934 295.737C227.327 291.13 227.591 289.72 227.459 288.542V283.812H241.758Z" fill="#E39E76"/>
<path d="M233.645 258.922C227.038 258.922 222.532 265.02 222.532 271.754V276.199C222.532 282.73 230.461 289.614 237.068 289.614H242.631C243.251 289.572 243.829 289.28 244.24 288.803C244.651 288.326 244.861 287.702 244.825 287.066V282.378C244.787 282.082 244.837 281.781 244.97 281.515C245.102 281.249 245.309 281.03 245.565 280.887C246.702 280.508 245.988 279.64 245.843 279.207C245.321 277.935 244.979 276.594 244.825 275.223C244.614 273.15 245.023 270.521 244.825 269.18C244.508 266.363 243.195 263.764 241.135 261.874C239.075 259.983 236.41 258.933 233.645 258.922Z" fill="#F5BB95"/>
<path d="M222.53 271.755C222.53 264.98 226.494 258.923 233.736 258.923C236.501 258.882 239.179 259.915 241.231 261.815C243.283 263.716 244.557 266.343 244.797 269.167C244.797 269.086 240.832 267.108 240.832 273.923C240.832 278.598 240.832 280.915 240.832 280.915H239.141C239.194 280.054 239.011 279.195 238.612 278.436C237.806 276.783 236.392 275.82 235.467 276.308C234.542 276.796 234.437 278.517 235.243 280.17C235.544 280.797 235.967 281.355 236.485 281.81C237.661 283.395 231.516 287.758 229.877 287.23C229.877 287.23 222.583 283.056 222.583 276.173L222.53 271.755Z" fill="#09003C"/>
<path d="M227.381 287.701C226.97 287.864 226.625 288.167 226.406 288.559C226.187 288.952 226.107 289.41 226.179 289.856C226.179 289.856 235.297 296.739 244.217 303.406L241.865 297.769L227.381 287.701Z" fill="#B2AFD4"/>
<path d="M226.176 289.857C226.176 289.857 242.18 301.308 245.893 304.695C247.862 306.497 249.117 314.573 249.117 326.457C249.117 329.709 250.743 358.517 251.456 367.786C251.8 372.325 252.249 374.019 248.351 375.239C242.989 376.948 237.43 377.918 231.819 378.125C226.19 378.125 219.529 376.309 215.961 375.333C214.23 374.873 213.226 372.041 214.006 368.463C215.988 359.303 219.701 339.357 219.701 332.189C219.701 319.75 220.269 312.636 219.701 304.776C218.869 293.814 223.917 291.023 226.176 289.857Z" fill="#25216F"/>
<path d="M241.866 297.879C241.866 297.879 244.799 298.936 245.83 304.654L244.152 303.299C244.152 303.299 242.738 299.749 241.866 297.879Z" fill="#191454"/>
<path d="M234.965 347.378C235.145 348.205 235.482 348.989 235.957 349.683C236.432 350.377 237.037 350.968 237.735 351.423C238.433 351.877 239.212 352.186 240.027 352.331C240.842 352.476 241.677 352.455 242.484 352.269C244.11 351.894 245.525 350.873 246.419 349.431C247.313 347.988 247.613 346.242 247.255 344.573L241.863 313.502C240.7 306.442 236.709 303.108 231.926 304.22C228.529 304.992 224.182 308.38 226.415 316.035L234.965 347.378Z" fill="#09003C"/>
<path d="M250.387 382.162C251.708 385.482 260.8 381.214 259.531 377.88L247.532 344.56C246.925 342.966 245.725 341.683 244.196 340.995C242.668 340.306 240.935 340.268 239.379 340.888C238.608 341.194 237.904 341.652 237.307 342.238C236.709 342.823 236.231 343.523 235.898 344.299C235.565 345.074 235.385 345.91 235.368 346.757C235.351 347.604 235.497 348.446 235.798 349.235L250.387 382.162Z" fill="#09003C"/>
<path d="M243.051 437.19L283.699 408.002V378.814L243.051 408.002V437.19Z" fill="#8680B6"/>
<path d="M243.053 437.192L238.626 433.953V404.766L243.053 408.004V437.192Z" fill="#766FAC"/>
<path d="M279.272 375.576L283.699 378.828L243.051 408.002L238.624 404.777L279.272 375.576Z" fill="#B2AFD4"/>
<path d="M267.635 388.734L265.56 387.216V384.1L267.635 382.596V388.734Z" fill="#766FAC"/>
<path d="M270.092 378.059V387.042L267.634 388.736V382.598L253.93 392.503V398.818L251.472 400.512V394.278L251.459 391.514L270.092 378.059Z" fill="#9490C1"/>
<path d="M249.383 389.994L251.471 391.512V400.509L249.383 398.992V389.994Z" fill="#766FAC"/>
<path d="M268.004 376.537L270.092 378.055L251.459 391.524L249.384 389.993L268.004 376.537Z" fill="#B2AFD4"/>
<path d="M243.051 417.27L266.586 414.642L283.699 388.083V378.814L243.051 408.002V417.27Z" fill="#A39DC8"/>
<path d="M259.2 379.885C259.2 379.885 263.878 384.194 262.068 386.809C260.257 389.424 259.187 389.993 256.861 390.373C256.861 390.373 256.795 386.24 253.848 386.768C253.361 386.341 252.962 385.817 252.676 385.228C252.39 384.639 252.222 383.997 252.183 383.34C253.519 383.273 254.827 382.933 256.032 382.34C257.238 381.747 258.315 380.912 259.2 379.885Z" fill="#F5BB95"/>
<path d="M267.779 115.029L286.729 101.682L307.463 112.522L279.844 131.899C275.576 135.178 269.034 133.254 265.836 128.837C264.312 126.74 263.66 124.109 264.024 121.521C264.388 118.933 265.739 116.598 267.779 115.029Z" fill="#09003C"/>
<path d="M260.221 194.695C261.254 195.125 262.375 195.283 263.483 195.155C264.591 195.027 265.65 194.618 266.564 193.963C269.921 191.565 276.885 187.093 276.885 186.429V178.299H265.85C265.85 178.299 265.85 182.364 265.85 182.608C265.899 183.658 265.569 184.69 264.925 185.508C263.696 186.7 263.036 187.459 261.04 189.451C259.045 191.443 258.741 193.841 260.221 194.695Z" fill="#09003C"/>
<path d="M265.837 182.293L263.194 124.609C263.194 122.5 264.011 120.477 265.466 118.985C266.921 117.493 268.894 116.655 270.951 116.655C273.008 116.655 274.981 117.493 276.436 118.985C277.891 120.477 278.708 122.5 278.708 124.609L279.527 132.021L276.884 184.868L265.837 182.293Z" fill="#09003C"/>
<path d="M280.793 124.692L299.743 111.345L319.658 110.559C319.658 110.559 320.292 114.881 320.755 117.808C321.244 120.979 319.209 123.147 315.165 126.02C310.526 129.326 292.858 141.603 292.858 141.603C288.59 144.882 282.049 142.958 278.851 138.54C278.091 137.5 277.539 136.317 277.226 135.058C276.912 133.799 276.844 132.489 277.024 131.203C277.205 129.917 277.63 128.68 278.277 127.563C278.924 126.446 279.779 125.47 280.793 124.692Z" fill="#09003C"/>
<path d="M273.237 204.38C274.271 204.81 275.394 204.969 276.503 204.844C277.613 204.718 278.674 204.312 279.593 203.662C282.936 201.25 289.9 196.779 289.9 196.115V187.984H278.866C278.866 187.984 278.866 192.05 278.866 192.293C278.915 193.348 278.586 194.384 277.941 195.207C276.712 196.386 276.051 197.144 274.056 199.136C272.06 201.128 271.757 203.513 273.237 204.38Z" fill="#09003C"/>
<path d="M278.851 191.955L276.208 134.27C276.208 132.161 277.025 130.138 278.48 128.646C279.934 127.154 281.907 126.316 283.965 126.316C286.022 126.316 287.995 127.154 289.45 128.646C290.904 130.138 291.722 132.161 291.722 134.27L292.541 141.696L289.898 194.543L278.851 191.955Z" fill="#09003C"/>
<path d="M313.643 38.145L296.529 37.7656L299.556 66.506L313.643 38.145Z" fill="#928CBE"/>
<path d="M296.532 37.7119L299.545 66.4523V106.927C299.545 106.927 299.545 112.551 295.237 111.223C290.162 109.665 287.546 104.692 287.467 102.524C286.951 88.4446 286.951 88.6885 286.951 64.1352V44.7175L296.532 37.7119Z" fill="#25216F"/>
<path d="M299.543 66.5065L313.604 38.1455C319.418 42.3326 326.818 47.3598 326.818 47.3598L321.308 72.2654L318.361 92.442C318.361 92.442 320.079 108.364 320.872 117.375C321.281 121.955 308.304 121.873 302.635 116.806C300.125 114.57 299.477 110.125 299.477 106.331L299.543 66.5065Z" fill="#25216F"/>
<path d="M299.586 18.0221C301.143 17.3359 302.821 16.9853 304.515 16.9923C309.312 16.9923 312.643 21.5588 312.643 26.4776V33.0089C312.643 36.139 305.956 41.3424 301.859 42.1825C301.335 42.3396 300.773 42.3012 300.274 42.0741C299.778 41.7291 299.374 41.2635 299.097 40.7191C298.772 39.8492 298.568 38.937 298.49 38.009L299.586 18.0221Z" fill="#E39E76"/>
<path d="M304.595 7.73807C310.488 7.73807 314.559 13.3479 314.559 19.3914V23.6462C314.559 30.4214 305.018 39.3105 299.124 39.3105C296.19 39.3105 295.635 35.679 294.433 31.9391C293.56 29.229 293.93 21.4511 293.93 18.1312C293.942 16.7235 294.229 15.3324 294.776 14.041C295.322 12.7496 296.117 11.5842 297.112 10.6144C298.107 9.64452 299.282 8.89003 300.568 8.39587C301.854 7.90171 303.223 7.678 304.595 7.73807Z" fill="#F5BB95"/>
<path d="M312.483 25.9491C311.664 27.6158 311.77 29.3773 312.708 29.8651C313.646 30.3529 315.073 29.3773 315.893 27.6971C316.712 26.0168 316.606 24.2688 315.668 23.781C314.73 23.2932 313.303 24.2688 312.483 25.9491Z" fill="#F5BB95"/>
<path d="M312.642 33.0098C312.21 34.8377 311.143 36.4418 309.642 37.5221C306.999 39.6359 302.44 43.0913 300.233 42.075L305.004 46.1401C305.004 46.1401 313.606 40.4218 313.606 37.7118C313.606 35.0017 313.738 33.9583 312.642 33.0098Z" fill="#B2AFD4"/>
<path d="M298.672 39.2833C298.844 40.3868 299.415 41.3834 300.271 42.0747L297.206 44.2969L296.532 37.7656C297.053 38.5096 297.809 39.0458 298.672 39.2833Z" fill="#B2AFD4"/>
<path d="M307.621 16.9925L313.079 13.3203C314.053 15.1973 314.561 17.2916 314.559 19.418V23.8083C312.642 24.5265 312.021 27.3314 312.021 27.3314L310.488 26.2338V23.5238C308.348 23.2528 306.524 19.3773 305.876 17.7377C307 17.3854 307.621 16.9925 307.621 16.9925Z" fill="#09003C"/>
<path d="M293.783 18.7414V18.1045C293.796 16.6973 294.084 15.3071 294.632 14.0166C295.179 12.726 295.973 11.5614 296.968 10.5919C297.963 9.62245 299.138 8.86787 300.422 8.37302C301.707 7.87818 303.076 7.65315 304.447 7.71132C306.272 7.62744 308.079 8.12051 309.622 9.12384C311.166 10.1272 312.371 11.5923 313.076 13.3212L307.618 17.0204C307.618 17.0204 300.284 20.6655 293.783 18.7414Z" fill="#09003C"/>
<path d="M299.216 45.7328V42.8466L300.273 42.0742L303.762 45.0689L301.462 47.3589L299.216 45.7328Z" fill="#191454"/>
<path d="M301.463 47.3585L302.891 59.8113L299.561 66.5052L298.49 56.6405L299.217 45.7324L301.463 47.3585Z" fill="#191454"/>
<g style="mix-blend-mode:multiply">
<path d="M309.192 65.3956L316.949 40.5306L314.782 38.9316L299.559 66.5067L309.192 65.3956Z" fill="#191454"/>
</g>
<g style="mix-blend-mode:multiply">
<path d="M299.559 66.506L291.352 53.4841L293.942 39.4323L296.532 37.7656L299.559 66.506Z" fill="#191454"/>
</g>
<path d="M299.559 66.5065L308.254 64.5281L316.949 40.5304L313.646 38.1455L299.559 66.5065Z" fill="#25216F"/>
<path d="M299.545 66.506L292.462 53.1318L293.982 39.4323C294.784 38.7558 295.673 38.195 296.624 37.7656L299.545 66.506Z" fill="#25216F"/>
<path d="M275.284 79.7175C276.963 71.2214 277.927 62.793 279.619 56.1262C282.05 46.397 284.561 46.1802 287.059 44.7168V88.0781L281.773 89.7042C276.381 91.2082 273.857 86.7095 275.284 79.7175Z" fill="#1A1556"/>
<path d="M282.076 89.5281L306.643 82.387L304.753 75.9912L279.724 81.0862L282.076 89.5281Z" fill="#1A1556"/>
<path d="M294.471 85.4218C294.471 85.4218 289.304 79.3512 288.181 80.8282C288.359 79.58 288.811 78.3894 289.502 77.3457C290.824 75.6113 292.647 75.6384 294.59 77.007L297.748 79.2563L294.471 85.4218Z" fill="#F5BB95"/>
<path d="M293.781 87.102C293.781 87.102 304.617 92.3054 312.678 95.9776C314.899 96.9803 317.343 95.4897 318.559 93.3623C320.911 89.2972 326.726 79.0531 329.276 69.4323C331.919 59.4728 331.192 50.1501 328.087 47.7517C320.819 42.2366 317.872 51.9523 315.705 60.0283C314.119 65.9228 313.062 79.6493 311.872 82.7524C311.436 83.8906 310.855 84.2158 309.903 83.8499C305.545 82.0527 301.299 79.98 297.191 77.6439C297.191 77.6439 293.002 81.8987 293.781 87.102Z" fill="#25216F"/>
<path d="M304.938 76.6147C308.685 75.5696 312.551 75.0365 316.435 75.0293C316.684 75.0293 316.922 75.1307 317.098 75.3111C317.274 75.4915 317.373 75.7362 317.373 75.9914C317.373 76.2465 317.274 76.4912 317.098 76.6717C316.922 76.8521 316.684 76.9535 316.435 76.9535C315.906 76.9535 313.699 77.3464 313.197 77.3735C313.45 77.4552 313.698 77.5548 313.937 77.6716C314.05 77.7228 314.152 77.7966 314.237 77.8888C314.322 77.981 314.387 78.0897 314.431 78.2084C314.474 78.3271 314.493 78.4535 314.488 78.5801C314.483 78.7067 314.453 78.8309 314.4 78.9454C314.296 79.1736 314.109 79.351 313.88 79.4397C313.65 79.5284 313.395 79.5211 313.171 79.4196L312.906 79.3112C313.071 79.4149 313.23 79.528 313.382 79.65C313.482 79.7259 313.566 79.8217 313.629 79.9317C313.692 80.0417 313.733 80.1635 313.749 80.29C313.765 80.4165 313.756 80.5451 313.723 80.6679C313.689 80.7908 313.632 80.9054 313.554 81.005C313.4 81.206 313.175 81.337 312.928 81.3699C312.681 81.4029 312.431 81.3351 312.233 81.1812C312.102 81.0771 311.965 80.9821 311.823 80.8966C311.968 81.0457 312.127 81.1947 312.272 81.3573C312.358 81.4525 312.425 81.5645 312.467 81.6866C312.51 81.8088 312.528 81.9385 312.521 82.068C312.513 82.1976 312.481 82.3242 312.424 82.4404C312.368 82.5566 312.289 82.6598 312.193 82.744C312.096 82.8281 311.984 82.8914 311.864 82.9301C311.743 82.9687 311.616 82.9819 311.49 82.9688C311.364 82.9557 311.242 82.9166 311.131 82.8539C311.02 82.7913 310.923 82.7062 310.845 82.604C310.509 82.199 310.112 81.8515 309.669 81.5741C309.914 81.7729 310.143 81.9903 310.356 82.2246C310.527 82.4064 310.623 82.6493 310.623 82.9021C310.623 83.1548 310.527 83.3977 310.356 83.5796C310.153 83.7407 309.897 83.8137 309.642 83.7829C309.513 83.7823 309.385 83.7543 309.267 83.7006C309.149 83.647 309.043 83.5689 308.955 83.4712C308.279 82.7614 307.437 82.2393 306.511 81.9536L304.938 76.6147Z" fill="#F5BB95"/>
<path d="M453.999 416.934L489.203 442.286L453.999 467.612L418.808 442.286L453.999 416.934Z" stroke="url(#paint57_linear_1295_2484)" stroke-width="0.77967" stroke-linecap="round" stroke-linejoin="round"/>
<path d="M453.998 447.395L479.053 465.444L453.998 483.466L428.942 465.444L453.998 447.395Z" stroke="url(#paint58_linear_1295_2484)" stroke-width="0.77967" stroke-linecap="round" stroke-linejoin="round"/>
<path d="M453.998 474.861L465.957 483.479L453.998 492.07L442.052 483.479L453.998 474.861Z" stroke="url(#paint59_linear_1295_2484)" stroke-width="0.77967" stroke-linecap="round" stroke-linejoin="round"/>
<path d="M453.998 454.415L501.928 419.929V413.953L453.998 448.439V454.415Z" fill="url(#paint60_linear_1295_2484)"/>
<path d="M454 454.415L406.07 419.929V413.953L454 448.439V454.415Z" fill="url(#paint61_linear_1295_2484)"/>
<path d="M453.998 379.451L501.928 413.991L453.998 448.463L406.068 413.991L453.998 379.451Z" fill="url(#paint62_linear_1295_2484)"/>
<g style="mix-blend-mode:multiply" opacity="0.8">
<path d="M454 384.287L495.217 413.976L454 443.624L412.796 413.976L454 384.287Z" fill="#3A3469"/>
</g>
<path d="M454.409 426.421C455.27 426.774 456.204 426.903 457.126 426.796C458.048 426.69 458.931 426.352 459.694 425.811C462.509 423.792 468.363 420.025 468.363 419.469V415.404H459.113C459.113 415.404 459.113 416.014 459.113 416.258C459.15 417.141 458.873 418.008 458.333 418.697C457.303 419.7 456.748 420.337 455.069 422.017C453.391 423.697 453.153 425.703 454.409 426.421Z" fill="#09003C"/>
<path d="M458.862 416.621C458.862 417.122 460.606 418.491 463.447 419.06C465.363 419.439 468.416 418.355 468.416 417.705C468.416 413.735 466.526 388.111 466.883 379.967C467.478 366.295 467.663 329.248 467.663 329.248L451.039 322.689C451.039 322.689 450.206 327.893 451.263 338.435C452.387 349.709 451.924 364.818 453.193 374.669C454.435 384.181 458.862 407.989 458.862 416.621Z" fill="#09003C"/>
<path d="M438.036 414.979C438.897 415.335 439.831 415.465 440.754 415.359C441.677 415.252 442.559 414.912 443.322 414.37C446.137 412.337 452.004 408.584 452.004 408.028V403.963H442.754C442.754 403.963 442.754 404.573 442.754 404.817C442.791 405.7 442.514 406.566 441.974 407.256C440.943 408.258 440.388 408.895 438.71 410.575C437.032 412.256 436.781 414.261 438.036 414.979Z" fill="#09003C"/>
<path d="M442.294 404.602C442.453 406.106 444.382 407.312 446.774 408.03C448.664 408.559 452.549 407.949 452.549 406.987C452.549 403.03 450.738 376.702 451.095 368.558C451.69 354.899 451.095 322.69 451.095 322.69L435.238 311.85C435.271 324.675 436.021 337.487 437.484 350.224C438.647 359.737 441.448 396.011 442.294 404.602Z" fill="#09003C"/>
<path d="M460.688 251.317L443.574 250.938L446.601 279.678L460.688 251.317Z" fill="#928CBE"/>
<path d="M443.575 250.938L446.602 279.678V320.153C446.602 320.153 446.602 325.763 442.307 324.448C437.219 322.89 434.603 317.917 434.523 315.736C434.008 301.67 434.008 301.914 434.008 277.361V257.889L443.575 250.938Z" fill="#25216F"/>
<path d="M446.599 279.681L460.686 251.32C466.5 255.507 473.9 260.535 473.9 260.535L468.39 285.44L465.443 305.617C465.443 305.617 467.161 321.538 467.954 330.55C468.363 335.13 455.387 335.048 449.717 329.98C447.22 327.745 446.572 323.3 446.572 319.506L446.599 279.681Z" fill="#25216F"/>
<path d="M446.625 231.197C448.184 230.497 449.866 230.133 451.568 230.127C456.365 230.127 459.682 234.693 459.682 239.612V246.144C459.682 249.287 452.995 254.491 448.898 255.331C448.374 255.487 447.812 255.448 447.313 255.222C446.821 254.873 446.418 254.409 446.137 253.867C445.811 252.997 445.607 252.085 445.529 251.157L446.625 231.197Z" fill="#E39E76"/>
<path d="M451.636 220.912C457.529 220.912 461.6 226.522 461.6 232.565V236.82C461.6 243.595 452.059 252.484 446.178 252.484C443.231 252.484 442.676 248.853 441.474 245.113C440.601 242.403 440.971 234.625 440.971 231.305C440.983 229.897 441.27 228.506 441.817 227.215C442.363 225.923 443.158 224.758 444.153 223.788C445.148 222.818 446.323 222.064 447.609 221.57C448.895 221.076 450.264 220.852 451.636 220.912Z" fill="#F5BB95"/>
<path d="M459.681 246.17C459.263 247.993 458.21 249.598 456.721 250.682C454.078 252.81 449.519 256.265 447.312 255.249L452.096 259.314C452.096 259.314 460.686 253.501 460.686 250.791C460.686 248.081 460.778 247.132 459.681 246.17Z" fill="#B2AFD4"/>
<path d="M445.756 252.455C445.928 253.559 446.499 254.555 447.355 255.247L444.29 257.455L443.616 250.938C444.137 251.682 444.893 252.218 445.756 252.455Z" fill="#B2AFD4"/>
<path d="M446.257 258.909V256.009L447.314 255.25L450.803 258.245L448.503 260.535L446.257 258.909Z" fill="#191454"/>
<path d="M448.501 260.534L449.928 272.974L446.598 279.681L445.527 269.803L446.254 258.908L448.501 260.534Z" fill="#191454"/>
<g style="mix-blend-mode:multiply">
<path d="M456.232 278.558L464.002 253.706L461.822 252.107L446.598 279.683L456.232 278.558Z" fill="#191454"/>
</g>
<g style="mix-blend-mode:multiply">
<path d="M446.602 279.678L438.395 266.642L440.985 252.604L443.575 250.938L446.602 279.678Z" fill="#191454"/>
</g>
<path d="M446.598 279.681L455.293 277.689L464.002 253.705L460.685 251.32L446.598 279.681Z" fill="#25216F"/>
<path d="M446.602 279.678L439.466 266.304L440.985 252.604C441.784 251.922 442.674 251.361 443.628 250.938L446.602 279.678Z" fill="#25216F"/>
<path d="M422.364 293.491C425.998 281.214 432.857 262.067 434.139 258.477V301.838L428.853 303.464C423.501 304.982 420.342 300.307 422.364 293.491Z" fill="#1A1556"/>
<path d="M429.196 303.298L453.775 296.144L451.872 289.748L426.844 294.857L429.196 303.298Z" fill="#1A1556"/>
<path d="M440.31 298.165C440.31 298.165 435.129 292.094 434.019 293.571C434.198 292.323 434.65 291.133 435.341 290.089C436.662 288.368 438.486 288.382 440.429 289.75L443.613 292.013L440.31 298.165Z" fill="#F5BB95"/>
<path d="M440.311 298.392C446.164 302.215 452.241 305.663 458.508 308.718C460.728 309.72 463.186 308.23 464.402 306.102C469.172 297.755 479.929 265.329 473.93 260.546C468.961 256.576 465.393 266.806 463.226 274.869C461.64 280.763 458.865 292.484 457.715 295.533C457.279 296.685 456.698 296.996 455.746 296.631C451.388 294.833 447.142 292.761 443.034 290.424C441.939 291.392 441.111 292.637 440.633 294.035C440.155 295.433 440.044 296.936 440.311 298.392Z" fill="#25216F"/>
<path d="M452.056 290.386C455.803 289.341 459.669 288.808 463.553 288.801C463.675 288.801 463.795 288.826 463.908 288.874C464.02 288.923 464.122 288.994 464.207 289.084C464.292 289.174 464.359 289.28 464.403 289.397C464.447 289.513 464.468 289.638 464.464 289.763C464.464 289.889 464.44 290.013 464.393 290.129C464.345 290.245 464.276 290.35 464.189 290.438C464.102 290.527 463.998 290.596 463.884 290.643C463.77 290.69 463.649 290.713 463.526 290.711C462.998 290.711 460.791 291.118 460.289 291.131L461.042 291.43C461.265 291.539 461.439 291.732 461.525 291.97C461.611 292.208 461.604 292.471 461.504 292.703C461.401 292.935 461.212 293.115 460.979 293.204C460.746 293.293 460.488 293.283 460.262 293.178L459.998 293.069L460.487 293.408C460.584 293.486 460.666 293.583 460.727 293.693C460.787 293.804 460.826 293.926 460.841 294.052C460.856 294.178 460.846 294.305 460.812 294.427C460.779 294.549 460.722 294.663 460.645 294.763C460.56 294.882 460.448 294.978 460.32 295.044C460.191 295.11 460.049 295.143 459.905 295.142C459.703 295.143 459.507 295.071 459.35 294.939L458.927 294.655C459.087 294.802 459.237 294.961 459.377 295.129C459.458 295.224 459.52 295.335 459.559 295.456C459.598 295.576 459.613 295.703 459.603 295.829C459.593 295.956 459.559 296.079 459.502 296.191C459.445 296.303 459.366 296.403 459.271 296.484C459.104 296.637 458.887 296.719 458.663 296.714C458.528 296.716 458.395 296.687 458.272 296.631C458.149 296.575 458.039 296.493 457.95 296.389C457.617 295.977 457.219 295.624 456.773 295.346C457.018 295.545 457.248 295.762 457.461 295.996C457.549 296.084 457.618 296.19 457.666 296.306C457.714 296.422 457.738 296.547 457.738 296.674C457.738 296.8 457.714 296.925 457.666 297.041C457.618 297.157 457.549 297.263 457.461 297.351C457.286 297.511 457.061 297.602 456.826 297.609C456.697 297.608 456.569 297.58 456.451 297.526C456.333 297.473 456.227 297.395 456.139 297.297C455.462 296.573 454.616 296.037 453.681 295.739L452.056 290.386Z" fill="#F5BB95"/>
<path d="M454.566 232.484C451.355 230.356 449.108 231.901 444.827 231.901C439.091 231.901 435.92 229.259 435.576 226.481C436.118 226.774 436.715 226.942 437.327 226.975C437.938 227.008 438.549 226.904 439.118 226.671C442.21 225.194 443.505 220.912 450.892 220.681C459.165 220.41 465.428 227.565 462.257 236.833C461.358 236.833 460.235 237.687 459.535 239.11C458.834 240.533 458.821 242.281 459.535 242.89C456.403 247.931 450.35 252.471 446.148 252.471C443.611 252.471 442.461 249.395 441.444 245.6C441.225 244.625 441.084 243.632 441.021 242.633C441.021 242.633 441.351 241.847 446.214 242.24C448.256 242.382 450.265 242.839 452.174 243.595C452.801 243.843 453.488 243.882 454.138 243.707C454.788 243.532 455.368 243.152 455.795 242.619C456.522 241.776 457.091 240.802 457.473 239.747C457.742 238.377 457.61 236.956 457.092 235.664C456.575 234.371 455.696 233.265 454.566 232.484ZM450.601 245.899C449.23 245.205 447.757 244.748 446.241 244.544C444.991 244.39 443.731 244.345 442.474 244.408C441.84 244.408 442.065 245.248 442.58 245.966C444.615 248.785 447.575 248.27 450.681 247.077C451.341 246.834 451.038 246.115 450.615 245.899H450.601Z" fill="#09003C"/>
<path d="M459.524 239.126C458.704 240.806 458.81 242.554 459.748 243.028C460.687 243.503 462.114 242.554 462.933 240.874C463.753 239.194 463.66 237.446 462.709 236.958C461.757 236.47 460.29 237.446 459.524 239.126Z" fill="#F5BB95"/>
<path d="M385.823 344.229C378.864 339.176 365.059 329.177 358.127 324.338C354.573 321.858 354.573 318.46 354.573 316.239V289.48C354.557 288.262 354.764 287.052 355.182 285.912C362.776 291.38 390.051 310.887 390.051 310.887V345.928C390.051 345.928 388.407 346.106 385.823 344.229Z" fill="url(#paint63_linear_1295_2484)"/>
<path d="M392.77 345.349C394.697 344.011 397.25 342.228 398.937 340.952C401.16 339.28 400.803 337.442 400.803 336.149V306.843C400.803 304.613 400.242 303.605 400.242 303.605L390.052 310.924V345.965C390.052 345.965 391.265 346.38 392.77 345.349Z" fill="url(#paint64_linear_1295_2484)"/>
<path d="M365.345 277.648C365.345 277.648 360.104 281.6 357.333 283.446C356.442 284.095 355.707 284.945 355.185 285.93C363.884 292.174 390.045 310.932 390.045 310.932L400.244 303.605C399.86 302.8 399.275 302.115 398.548 301.62C390.106 295.323 365.345 277.648 365.345 277.648Z" fill="url(#paint65_linear_1295_2484)"/>
<path d="M376.934 317.146C376.934 313.899 373.811 308.819 371.219 306.982C368.626 305.144 365.464 305.675 365.464 308.917C365.464 311.218 366.9 314.198 368.692 316.428C368.592 319.777 368.539 321.454 368.435 324.803C370.479 326.261 371.549 327.006 373.685 328.54V319.937C375.511 320.312 376.934 319.451 376.934 317.146Z" fill="#594E83"/>
<path d="M390.86 306.608C389.425 306.608 388.251 305.983 388.251 305.181V288.55C388.251 280.01 384.336 273.596 376.594 269.48C374.672 268.463 370.07 267.223 368.152 268.503C367.891 268.677 367.091 269.208 367.217 271.531V271.696L367.165 283.452V285.29C367.165 285.834 366.121 286.405 364.555 286.405C363.311 286.405 361.946 285.446 361.946 285.321V283.421C361.946 279.532 361.963 275.642 361.998 271.75C361.785 267.326 363.677 265.114 365.308 264.026C369.774 261.073 376.838 263.624 378.96 264.752C388.42 269.783 393.418 278.012 393.418 288.546V305.047C393.457 306.483 390.86 306.608 390.86 306.608Z" fill="url(#paint66_linear_1295_2484)"/>
<path d="M127.745 260.211C134.704 255.158 148.509 245.159 155.442 240.32C158.995 237.841 158.995 234.442 158.995 232.221V205.462C159.011 204.245 158.805 203.034 158.386 201.895C150.792 207.362 123.518 226.87 123.518 226.87V261.91C123.518 261.91 125.162 262.089 127.745 260.211Z" fill="url(#paint67_linear_1295_2484)"/>
<path d="M120.798 261.332C118.872 259.994 116.319 258.21 114.631 256.934C112.409 255.262 112.765 253.425 112.765 252.131V222.826C112.765 220.596 113.326 219.588 113.326 219.588L123.517 226.906V261.947C123.517 261.947 122.303 262.362 120.798 261.332Z" fill="url(#paint68_linear_1295_2484)"/>
<path d="M148.223 193.631C148.223 193.631 153.464 197.582 156.235 199.429C157.127 200.078 157.861 200.927 158.383 201.913C149.685 208.156 123.523 226.915 123.523 226.915L113.324 219.587C113.708 218.783 114.293 218.098 115.02 217.602C123.463 211.305 148.223 193.631 148.223 193.631Z" fill="url(#paint69_linear_1295_2484)"/>
<path d="M136.635 233.128C136.635 229.881 139.758 224.802 142.35 222.964C144.942 221.127 148.104 221.657 148.104 224.9C148.104 227.201 146.669 230.18 144.877 232.41C144.977 235.759 145.029 237.436 145.133 240.786C143.089 242.244 142.019 242.989 139.884 244.523V235.92C138.057 236.294 136.635 235.434 136.635 233.128Z" fill="#594E83"/>
<path d="M122.708 222.59C124.144 222.59 125.318 221.966 125.318 221.163V204.532C125.318 195.992 129.232 189.579 136.974 185.462C138.897 184.445 143.498 183.206 145.416 184.486C145.677 184.66 146.477 185.19 146.351 187.514V187.679L146.403 199.435V201.272C146.403 201.816 147.447 202.387 149.013 202.387C150.257 202.387 151.623 201.428 151.623 201.304V199.404C151.623 195.515 151.605 191.624 151.571 187.732C151.784 183.308 149.892 181.096 148.261 180.008C143.794 177.056 136.731 179.607 134.608 180.735C125.148 185.766 120.151 193.994 120.151 204.528V221.029C120.112 222.465 122.708 222.59 122.708 222.59Z" fill="url(#paint70_linear_1295_2484)"/>
<path d="M431.685 210.075C438.644 205.022 452.448 195.024 459.381 190.185C462.935 187.705 462.935 184.307 462.935 182.086V155.327C462.951 154.109 462.744 152.899 462.326 151.759C454.732 157.227 427.457 176.734 427.457 176.734V211.775C427.457 211.775 429.101 211.953 431.685 210.075Z" fill="url(#paint71_linear_1295_2484)"/>
<path d="M424.738 211.196C422.811 209.858 420.258 208.074 418.571 206.799C416.348 205.126 416.705 203.289 416.705 201.995V172.69C416.705 170.46 417.266 169.452 417.266 169.452L427.456 176.771V211.812C427.456 211.812 426.243 212.226 424.738 211.196Z" fill="url(#paint72_linear_1295_2484)"/>
<path d="M452.163 143.499C452.163 143.499 457.404 147.45 460.174 149.297C461.066 149.946 461.801 150.796 462.323 151.781C453.624 158.025 427.463 176.783 427.463 176.783L417.264 169.455C417.647 168.651 418.233 167.966 418.96 167.471C427.402 161.173 452.163 143.499 452.163 143.499Z" fill="url(#paint73_linear_1295_2484)"/>
<path d="M440.574 182.992C440.574 179.745 443.697 174.666 446.289 172.828C448.881 170.991 452.043 171.522 452.043 174.764C452.043 177.065 450.608 180.044 448.816 182.274C448.916 185.624 448.968 187.3 449.073 190.65C447.029 192.108 445.959 192.853 443.823 194.387V185.784C441.996 186.159 440.574 185.298 440.574 182.992Z" fill="#594E83"/>
<path d="M426.648 172.455C428.083 172.455 429.257 171.83 429.257 171.027V154.397C429.257 145.856 433.172 139.443 440.914 135.327C442.836 134.31 447.438 133.07 449.356 134.35C449.617 134.524 450.417 135.054 450.291 137.378V137.543L450.343 149.299V151.137C450.343 151.681 451.387 152.252 452.953 152.252C454.196 152.252 455.562 151.293 455.562 151.168V149.268C455.562 145.379 455.545 141.489 455.51 137.597C455.723 133.172 453.831 130.96 452.2 129.872C447.733 126.92 440.67 129.471 438.548 130.599C429.088 135.63 424.09 143.858 424.09 154.392V170.894C424.051 172.33 426.648 172.455 426.648 172.455Z" fill="url(#paint74_linear_1295_2484)"/>
<path d="M38.8903 282.596L10.3301 302.672L38.8903 322.713L67.4504 302.672L38.8903 282.596Z" stroke="url(#paint75_linear_1295_2484)" stroke-width="0.630594" stroke-linecap="round" stroke-linejoin="round"/>
<path d="M38.8906 306.707L18.5625 320.993L38.8906 335.256L59.2186 320.993L38.8906 306.707Z" stroke="url(#paint76_linear_1295_2484)" stroke-width="0.630594" stroke-linecap="round" stroke-linejoin="round"/>
<path d="M38.8891 328.447L29.1895 335.269L38.8891 342.068L48.5888 335.269L38.8891 328.447Z" stroke="url(#paint77_linear_1295_2484)" stroke-width="0.630594" stroke-linecap="round" stroke-linejoin="round"/>
<path d="M38.8905 312.255L0 284.979V280.244L38.8905 307.532V312.255Z" fill="url(#paint78_linear_1295_2484)"/>
<path d="M38.8906 312.255L77.7811 284.979V280.244L38.8906 307.532V312.255Z" fill="url(#paint79_linear_1295_2484)"/>
<path d="M38.8905 252.947L0 280.269L38.8905 307.557L77.7809 280.269L38.8905 252.947Z" fill="url(#paint80_linear_1295_2484)"/>
<g style="mix-blend-mode:multiply" opacity="0.8">
<path d="M38.8897 256.766L5.44531 280.27L38.8897 303.728L72.3341 280.27L38.8897 256.766Z" fill="#3A3469"/>
</g>
<path d="M37.3873 289.245C36.6817 289.531 35.9161 289.636 35.1595 289.552C34.4028 289.468 33.6791 289.197 33.0534 288.763C30.7603 287.158 26.0137 284.177 26.0137 283.742V280.531H33.5464C33.5464 280.531 33.5464 281.024 33.5464 281.208C33.5111 281.909 33.7356 282.599 34.177 283.145C35.014 283.936 35.4611 284.441 36.8255 285.771C38.1899 287.101 38.3962 288.683 37.3873 289.245Z" fill="#09003C"/>
<path d="M33.7757 281.531C33.7757 281.921 32.354 283.01 30.0495 283.457C28.4902 283.767 26.0137 282.895 26.0137 282.379C26.0137 279.249 27.55 258.967 27.2634 252.512C26.7818 241.7 26.6213 212.384 26.6213 212.384L40.1046 207.201C40.1046 207.201 40.781 211.306 39.9211 219.653C39.0039 228.573 39.3823 240.531 38.3504 248.316C37.3644 255.826 33.7757 274.652 33.7757 281.531Z" fill="#09003C"/>
<path d="M50.6764 280.189C49.9708 280.474 49.2051 280.58 48.4485 280.496C47.6919 280.412 46.9681 280.141 46.3425 279.707C44.0494 278.113 39.3027 275.121 39.3027 274.697V271.486H46.8125C46.8125 271.486 46.8125 271.979 46.8125 272.163C46.7794 272.864 47.0037 273.553 47.4431 274.1C48.2801 274.892 48.7273 275.396 50.0916 276.715C51.456 278.033 51.6853 279.627 50.6764 280.189Z" fill="#09003C"/>
<path d="M47.2145 271.979C47.0884 273.126 45.5176 274.158 43.58 274.697C42.0436 275.121 38.8906 274.628 38.8906 273.871C38.8906 270.73 40.3582 249.908 40.0372 243.453C39.5556 232.642 40.0372 207.166 40.0372 207.166L52.9242 198.578C52.892 208.725 52.2834 218.861 51.1012 228.938C50.1725 236.471 47.9597 265.18 47.2145 271.979Z" fill="#09003C"/>
<path d="M31.6895 150.239L45.5855 149.94L43.1319 172.688L31.6895 150.239Z" fill="#928CBE"/>
<path d="M45.5844 149.94L43.1309 172.688V204.71C43.1309 204.71 43.1309 209.147 46.5705 208.15C50.698 206.912 52.8191 202.979 52.8879 201.271C53.3121 190.138 53.3006 190.321 53.3006 170.899V155.409L45.5844 149.94Z" fill="#25216F"/>
<path d="M43.1322 172.69L31.6669 150.241C26.9431 153.555 20.9238 157.533 20.9238 157.533L25.4182 177.196L27.8145 193.248C27.8145 193.248 26.4272 205.86 25.7737 212.968C25.4412 216.603 35.9778 216.545 40.5754 212.532C42.6048 210.755 43.1322 207.247 43.1322 204.232V172.69Z" fill="#25216F"/>
<path d="M43.1096 134.314C41.8461 133.77 40.4838 133.493 39.1082 133.5C35.21 133.5 32.5156 137.112 32.5156 140.998V146.169C32.5156 148.657 37.9387 152.773 41.2637 153.438C41.6886 153.565 42.1452 153.532 42.5478 153.347C42.9605 153.052 43.2918 152.657 43.5109 152.2C43.7669 151.518 43.9326 150.805 44.0039 150.079L43.1096 134.314Z" fill="#E39E76"/>
<path d="M39.0375 126.186C34.2679 126.186 31.0117 130.623 31.0117 135.358V138.798C31.0117 144.14 38.7508 151.192 43.5319 151.192C45.9281 151.192 46.3753 148.314 47.3498 145.356C48.0492 143.212 47.7511 137.055 47.7511 134.429C47.7464 133.308 47.5142 132.199 47.0686 131.17C46.623 130.141 45.9732 129.213 45.1586 128.443C44.344 127.672 43.3815 127.075 42.3294 126.687C41.2773 126.299 40.1574 126.128 39.0375 126.186Z" fill="#F5BB95"/>
<path d="M32.6411 140.586C33.3061 141.916 33.2259 143.303 32.4577 143.682C31.6895 144.06 30.543 143.303 29.878 141.973C29.213 140.643 29.2933 139.256 30.0614 138.878C30.8296 138.499 31.9761 139.256 32.6411 140.586Z" fill="#F5BB95"/>
<path d="M32.5151 146.17C32.8534 147.614 33.7051 148.885 34.9114 149.747C37.0439 151.421 40.7587 154.15 42.5473 153.347L38.672 156.558C38.672 156.558 31.7011 151.971 31.7011 149.804C31.7011 147.637 31.6208 146.927 32.5151 146.17Z" fill="#B2AFD4"/>
<path d="M43.8425 151.144C43.7092 152.017 43.2453 152.805 42.5469 153.346L45.0463 155.1L45.5852 149.94C45.1598 150.53 44.5444 150.955 43.8425 151.144Z" fill="#B2AFD4"/>
<path d="M36.5842 133.501L32.1586 130.577C31.3914 132.065 30.9979 133.718 31.0121 135.393V138.832C32.5714 139.417 33.0758 141.63 33.0758 141.63L34.3141 140.758V138.637C36.0454 138.419 37.5129 135.358 38.0518 134.051C37.1346 133.765 36.5842 133.501 36.5842 133.501Z" fill="#09003C"/>
<path d="M47.7628 134.898C47.7628 134.726 47.7628 134.554 47.7628 134.405C47.7546 133.292 47.5222 132.191 47.0794 131.17C46.6367 130.148 45.9927 129.226 45.1859 128.459C44.379 127.692 43.4259 127.095 42.3834 126.704C41.3409 126.313 40.2303 126.137 39.1179 126.184C37.652 126.122 36.202 126.508 34.9608 127.291C33.7197 128.073 32.7462 129.215 32.1699 130.564L36.5955 133.499C36.5955 133.499 42.5346 136.411 47.7628 134.898Z" fill="#09003C"/>
<path d="M43.4067 156.248V153.966L42.5468 153.358L39.7148 155.732L41.5837 157.532L43.4067 156.248Z" fill="#191454"/>
<path d="M41.5838 157.531L40.4258 167.38L43.1316 172.688L44.003 164.88L43.4068 156.247L41.5838 157.531Z" fill="#191454"/>
<g style="mix-blend-mode:multiply">
<path d="M35.3118 171.807L29.0059 152.132L30.7715 150.859L43.1312 172.689L35.3118 171.807Z" fill="#191454"/>
</g>
<g style="mix-blend-mode:multiply">
<path d="M43.1309 172.688L49.7922 162.38L47.6826 151.259L45.5844 149.94L43.1309 172.688Z" fill="#191454"/>
</g>
<path d="M43.1312 172.69L36.0685 171.12L29.0059 152.133L31.6887 150.241L43.1312 172.69Z" fill="#25216F"/>
<path d="M43.1309 172.688L48.8635 162.105L47.6253 151.259C46.9888 150.727 46.2829 150.283 45.5271 149.94L43.1309 172.688Z" fill="#25216F"/>
<path d="M30.5094 208.277C37.6523 208.128 33.2037 203.76 31.6559 203.691C30.0021 203.62 28.3964 203.114 27.001 202.224C26.508 201.891 26.4507 201.272 27.001 201.318L27.1615 199.793C26.6685 199.621 25.8774 199.346 25.1665 199.128C22.8735 198.452 21.2454 197.466 20.374 198.75C18.3332 201.731 24.4786 208.404 30.5094 208.277Z" fill="#F5BB95"/>
<path d="M20.1094 203.932C20.1094 203.932 10.8568 195.998 2.45272 189.807C0.870504 188.66 0.285774 184.716 1.44377 183.146C4.13813 179.488 12.9894 166.647 20.0176 158.243C24.8904 152.419 30.0957 153.749 31.7811 155.594C35.0831 159.217 30.8409 162.221 26.5414 167.255C22.0087 172.775 17.7978 178.551 13.9295 184.556C13.6607 184.941 13.5166 185.399 13.5166 185.869C13.5166 186.338 13.6607 186.796 13.9295 187.181C18.9743 192.02 25.6127 198.257 25.6127 198.257C25.6127 198.257 24.1681 202.935 20.1094 203.932Z" fill="#25216F"/>
<path d="M77.1265 174.593L53.3359 155.411V167.908L71.497 182.469C72.5426 183.185 73.8271 183.462 75.0747 183.241C76.3222 183.019 77.4332 182.318 78.1689 181.286C78.9046 180.255 79.2063 178.976 79.0093 177.724C78.8123 176.473 78.1321 175.348 77.1151 174.593H77.1265Z" fill="#25216F"/>
<path d="M53.4284 189.898C51.871 190.963 50.7258 192.529 50.1837 194.336C49.6741 196.291 49.6505 198.342 50.1149 200.309C50.1596 200.522 50.2762 200.714 50.4452 200.852C50.6143 200.99 50.8255 201.065 51.0436 201.066H51.2385C51.4181 201.026 51.5827 200.936 51.7127 200.806C51.8427 200.676 51.9328 200.512 51.9723 200.332C52.017 200.545 52.1336 200.737 52.3026 200.875C52.4717 201.012 52.6829 201.088 52.901 201.089H53.0959C53.2701 201.052 53.4305 200.967 53.5584 200.844C53.6863 200.72 53.7764 200.562 53.8182 200.389C53.875 200.586 53.9938 200.759 54.157 200.883C54.3202 201.007 54.519 201.075 54.724 201.077H54.9189C55.0985 201.038 55.263 200.948 55.3931 200.818C55.5231 200.688 55.6132 200.523 55.6527 200.343C55.6973 200.557 55.814 200.748 55.983 200.886C56.1521 201.024 56.3633 201.099 56.5814 201.1H56.7763C56.9012 201.076 57.0199 201.026 57.1252 200.955C57.2305 200.883 57.3201 200.791 57.3887 200.684C57.4574 200.577 57.5035 200.457 57.5243 200.331C57.5452 200.206 57.5403 200.077 57.5101 199.954C57.2161 198.613 57.1541 197.233 57.3266 195.872C57.4097 195.321 57.548 194.779 57.7394 194.255L53.4284 189.898Z" fill="#F5BB95"/>
<path d="M78.2962 175.91C77.9544 175.429 77.5203 175.021 77.0192 174.709C76.5181 174.398 75.96 174.189 75.3774 174.095C74.7948 174.001 74.1994 174.024 73.6257 174.162C73.0521 174.301 72.5117 174.552 72.0361 174.901L52.6367 189.806L58.656 195.252L77.3331 182.125C77.8054 181.781 78.2051 181.347 78.5092 180.848C78.8134 180.349 79.016 179.795 79.1055 179.217C79.195 178.64 79.1696 178.051 79.0307 177.483C78.8918 176.916 78.6422 176.381 78.2962 175.91Z" fill="#25216F"/>
<defs>
<linearGradient id="paint0_linear_1295_2484" x1="395.246" y1="232.574" x2="221.617" y2="232.574" gradientUnits="userSpaceOnUse">
<stop stop-color="#742AA7"/>
<stop offset="1" stop-color="#0D3E93"/>
</linearGradient>
<linearGradient id="paint1_linear_1295_2484" x1="221.617" y1="307.682" x2="97.2531" y2="307.682" gradientUnits="userSpaceOnUse">
<stop stop-color="#742AA7"/>
<stop offset="1" stop-color="#0D3E93"/>
</linearGradient>
<linearGradient id="paint2_linear_1295_2484" x1="415.818" y1="387.346" x2="291.454" y2="387.346" gradientUnits="userSpaceOnUse">
<stop stop-color="#742AA7"/>
<stop offset="1" stop-color="#0D3E93"/>
</linearGradient>
<linearGradient id="paint3_linear_1295_2484" x1="529.057" y1="258.875" x2="404.706" y2="258.875" gradientUnits="userSpaceOnUse">
<stop stop-color="#742AA7"/>
<stop offset="1" stop-color="#0D3E93"/>
</linearGradient>
<linearGradient id="paint4_linear_1295_2484" x1="327.139" y1="375.793" x2="156.959" y2="375.793" gradientUnits="userSpaceOnUse">
<stop stop-color="#742AA7"/>
<stop offset="1" stop-color="#0D3E93"/>
</linearGradient>
<linearGradient id="paint5_linear_1295_2484" x1="535.508" y1="310.767" x2="348.519" y2="310.767" gradientUnits="userSpaceOnUse">
<stop stop-color="#742AA7"/>
<stop offset="1" stop-color="#0D3E93"/>
</linearGradient>
<linearGradient id="paint6_linear_1295_2484" x1="262.148" y1="211.808" x2="59.7513" y2="211.808" gradientUnits="userSpaceOnUse">
<stop stop-color="#742AA7"/>
<stop offset="1" stop-color="#0D3E93"/>
</linearGradient>
<linearGradient id="paint7_linear_1295_2484" x1="376.906" y1="211.929" x2="289.026" y2="166.185" gradientUnits="userSpaceOnUse">
<stop stop-color="#30338C"/>
<stop offset="0.680208" stop-color="#8C87BD"/>
<stop offset="1" stop-color="#ADAAD6"/>
</linearGradient>
<linearGradient id="paint8_linear_1295_2484" x1="280.093" y1="279.924" x2="280.093" y2="179.489" gradientUnits="userSpaceOnUse">
<stop stop-color="#9186BB"/>
<stop offset="1" stop-color="#C7C4E1"/>
</linearGradient>
<linearGradient id="paint9_linear_1295_2484" x1="366.611" y1="111.276" x2="266.031" y2="108.969" gradientUnits="userSpaceOnUse">
<stop stop-color="#786FAD"/>
<stop offset="1" stop-color="#B2B3D7"/>
</linearGradient>
<linearGradient id="paint10_linear_1295_2484" x1="339.982" y1="127.862" x2="311.245" y2="112.892" gradientUnits="userSpaceOnUse">
<stop stop-color="#30338C"/>
<stop offset="0.84" stop-color="#6E6AAB"/>
<stop offset="1" stop-color="#7A75B1"/>
</linearGradient>
<linearGradient id="paint11_linear_1295_2484" x1="285.26" y1="141.589" x2="285.26" y2="128.133" gradientUnits="userSpaceOnUse">
<stop stop-color="#9186BB"/>
<stop offset="1" stop-color="#C7C4E1"/>
</linearGradient>
<linearGradient id="paint12_linear_1295_2484" x1="352.444" y1="110.504" x2="275.73" y2="108.738" gradientUnits="userSpaceOnUse">
<stop stop-color="#786FAD"/>
<stop offset="1" stop-color="#B2B3D7"/>
</linearGradient>
<linearGradient id="paint13_linear_1295_2484" x1="296.534" y1="165.465" x2="270.275" y2="175.099" gradientUnits="userSpaceOnUse">
<stop offset="0.07" stop-color="#30338C"/>
<stop offset="0.42" stop-color="#52519D"/>
<stop offset="0.79" stop-color="#6F6BAB"/>
<stop offset="1" stop-color="#7A75B1"/>
</linearGradient>
<linearGradient id="paint14_linear_1295_2484" x1="267.593" y1="187.134" x2="296.378" y2="205.618" gradientUnits="userSpaceOnUse">
<stop offset="0.13" stop-color="#30338C"/>
<stop offset="0.45" stop-color="#52519D"/>
<stop offset="0.8" stop-color="#6F6BAB"/>
<stop offset="1" stop-color="#7A75B1"/>
</linearGradient>
<linearGradient id="paint15_linear_1295_2484" x1="266.481" y1="188.433" x2="266.481" y2="132.687" gradientUnits="userSpaceOnUse">
<stop offset="0.07" stop-color="#30338C"/>
<stop offset="0.42" stop-color="#52519D"/>
<stop offset="0.79" stop-color="#6F6BAB"/>
<stop offset="1" stop-color="#7A75B1"/>
</linearGradient>
<linearGradient id="paint16_linear_1295_2484" x1="277.053" y1="147.708" x2="271.674" y2="147.708" gradientUnits="userSpaceOnUse">
<stop stop-color="#742AA7"/>
<stop offset="1" stop-color="#0D3E93"/>
</linearGradient>
<linearGradient id="paint17_linear_1295_2484" x1="270.379" y1="144.292" x2="268.872" y2="144.292" gradientUnits="userSpaceOnUse">
<stop stop-color="#742AA7"/>
<stop offset="1" stop-color="#0D3E93"/>
</linearGradient>
<linearGradient id="paint18_linear_1295_2484" x1="293.018" y1="155.707" x2="277.979" y2="155.707" gradientUnits="userSpaceOnUse">
<stop stop-color="#742AA7"/>
<stop offset="1" stop-color="#0D3E93"/>
</linearGradient>
<linearGradient id="paint19_linear_1295_2484" x1="277.053" y1="153.004" x2="271.674" y2="153.004" gradientUnits="userSpaceOnUse">
<stop stop-color="#742AA7"/>
<stop offset="1" stop-color="#0D3E93"/>
</linearGradient>
<linearGradient id="paint20_linear_1295_2484" x1="293.018" y1="161.008" x2="277.979" y2="161.008" gradientUnits="userSpaceOnUse">
<stop stop-color="#742AA7"/>
<stop offset="1" stop-color="#0D3E93"/>
</linearGradient>
<linearGradient id="paint21_linear_1295_2484" x1="293.018" y1="166.304" x2="277.979" y2="166.304" gradientUnits="userSpaceOnUse">
<stop stop-color="#742AA7"/>
<stop offset="1" stop-color="#0D3E93"/>
</linearGradient>
<linearGradient id="paint22_linear_1295_2484" x1="277.053" y1="163.289" x2="271.674" y2="163.289" gradientUnits="userSpaceOnUse">
<stop stop-color="#742AA7"/>
<stop offset="1" stop-color="#0D3E93"/>
</linearGradient>
<linearGradient id="paint23_linear_1295_2484" x1="270.379" y1="159.881" x2="268.872" y2="159.881" gradientUnits="userSpaceOnUse">
<stop stop-color="#742AA7"/>
<stop offset="1" stop-color="#0D3E93"/>
</linearGradient>
<linearGradient id="paint24_linear_1295_2484" x1="293.018" y1="171.297" x2="277.979" y2="171.297" gradientUnits="userSpaceOnUse">
<stop stop-color="#742AA7"/>
<stop offset="1" stop-color="#0D3E93"/>
</linearGradient>
<linearGradient id="paint25_linear_1295_2484" x1="277.053" y1="168.59" x2="271.674" y2="168.59" gradientUnits="userSpaceOnUse">
<stop stop-color="#742AA7"/>
<stop offset="1" stop-color="#0D3E93"/>
</linearGradient>
<linearGradient id="paint26_linear_1295_2484" x1="293.018" y1="176.587" x2="277.979" y2="176.587" gradientUnits="userSpaceOnUse">
<stop stop-color="#742AA7"/>
<stop offset="1" stop-color="#0D3E93"/>
</linearGradient>
<linearGradient id="paint27_linear_1295_2484" x1="293.018" y1="181.887" x2="277.979" y2="181.887" gradientUnits="userSpaceOnUse">
<stop stop-color="#742AA7"/>
<stop offset="1" stop-color="#0D3E93"/>
</linearGradient>
<linearGradient id="paint28_linear_1295_2484" x1="277.053" y1="178.873" x2="271.674" y2="178.873" gradientUnits="userSpaceOnUse">
<stop stop-color="#742AA7"/>
<stop offset="1" stop-color="#0D3E93"/>
</linearGradient>
<linearGradient id="paint29_linear_1295_2484" x1="270.379" y1="175.462" x2="268.872" y2="175.462" gradientUnits="userSpaceOnUse">
<stop stop-color="#742AA7"/>
<stop offset="1" stop-color="#0D3E93"/>
</linearGradient>
<linearGradient id="paint30_linear_1295_2484" x1="293.018" y1="186.881" x2="277.979" y2="186.881" gradientUnits="userSpaceOnUse">
<stop stop-color="#742AA7"/>
<stop offset="1" stop-color="#0D3E93"/>
</linearGradient>
<linearGradient id="paint31_linear_1295_2484" x1="277.053" y1="184.171" x2="271.674" y2="184.171" gradientUnits="userSpaceOnUse">
<stop stop-color="#742AA7"/>
<stop offset="1" stop-color="#0D3E93"/>
</linearGradient>
<linearGradient id="paint32_linear_1295_2484" x1="293.018" y1="192.171" x2="277.979" y2="192.171" gradientUnits="userSpaceOnUse">
<stop stop-color="#742AA7"/>
<stop offset="1" stop-color="#0D3E93"/>
</linearGradient>
<linearGradient id="paint33_linear_1295_2484" x1="293.018" y1="197.47" x2="277.979" y2="197.47" gradientUnits="userSpaceOnUse">
<stop stop-color="#742AA7"/>
<stop offset="1" stop-color="#0D3E93"/>
</linearGradient>
<linearGradient id="paint34_linear_1295_2484" x1="437.337" y1="280.671" x2="452.18" y2="272.945" gradientUnits="userSpaceOnUse">
<stop stop-color="#30338C"/>
<stop offset="0.84" stop-color="#6E6AAB"/>
<stop offset="1" stop-color="#7A75B1"/>
</linearGradient>
<linearGradient id="paint35_linear_1295_2484" x1="483.323" y1="288.749" x2="483.323" y2="263.83" gradientUnits="userSpaceOnUse">
<stop stop-color="#9186BB"/>
<stop offset="1" stop-color="#C7C4E1"/>
</linearGradient>
<linearGradient id="paint36_linear_1295_2484" x1="431.229" y1="258.286" x2="505.511" y2="256.584" gradientUnits="userSpaceOnUse">
<stop stop-color="#786FAD"/>
<stop offset="1" stop-color="#B2B3D7"/>
</linearGradient>
<linearGradient id="paint37_linear_1295_2484" x1="422.389" y1="251.345" x2="437.565" y2="243.449" gradientUnits="userSpaceOnUse">
<stop stop-color="#30338C"/>
<stop offset="0.84" stop-color="#6E6AAB"/>
<stop offset="1" stop-color="#7A75B1"/>
</linearGradient>
<linearGradient id="paint38_linear_1295_2484" x1="455.349" y1="265.995" x2="455.349" y2="220.52" gradientUnits="userSpaceOnUse">
<stop stop-color="#9186BB"/>
<stop offset="1" stop-color="#C7C4E1"/>
</linearGradient>
<linearGradient id="paint39_linear_1295_2484" x1="429.356" y1="212.757" x2="478.648" y2="211.623" gradientUnits="userSpaceOnUse">
<stop stop-color="#B2B3D7"/>
<stop offset="1" stop-color="#786FAD"/>
</linearGradient>
<linearGradient id="paint40_linear_1295_2484" x1="383.538" y1="409.359" x2="368.695" y2="401.633" gradientUnits="userSpaceOnUse">
<stop stop-color="#30338C"/>
<stop offset="0.84" stop-color="#6E6AAB"/>
<stop offset="1" stop-color="#7A75B1"/>
</linearGradient>
<linearGradient id="paint41_linear_1295_2484" x1="337.539" y1="417.433" x2="337.539" y2="392.527" gradientUnits="userSpaceOnUse">
<stop stop-color="#9186BB"/>
<stop offset="1" stop-color="#C7C4E1"/>
</linearGradient>
<linearGradient id="paint42_linear_1295_2484" x1="389.643" y1="386.975" x2="315.361" y2="385.274" gradientUnits="userSpaceOnUse">
<stop stop-color="#786FAD"/>
<stop offset="1" stop-color="#B2B3D7"/>
</linearGradient>
<linearGradient id="paint43_linear_1295_2484" x1="398.471" y1="380.037" x2="383.308" y2="372.141" gradientUnits="userSpaceOnUse">
<stop stop-color="#30338C"/>
<stop offset="0.84" stop-color="#6E6AAB"/>
<stop offset="1" stop-color="#7A75B1"/>
</linearGradient>
<linearGradient id="paint44_linear_1295_2484" x1="365.513" y1="394.684" x2="365.513" y2="349.209" gradientUnits="userSpaceOnUse">
<stop stop-color="#9186BB"/>
<stop offset="1" stop-color="#C7C4E1"/>
</linearGradient>
<linearGradient id="paint45_linear_1295_2484" x1="391.509" y1="341.447" x2="342.216" y2="340.312" gradientUnits="userSpaceOnUse">
<stop stop-color="#B2B3D7"/>
<stop offset="1" stop-color="#786FAD"/>
</linearGradient>
<linearGradient id="paint46_linear_1295_2484" x1="128.23" y1="328.288" x2="143.073" y2="320.562" gradientUnits="userSpaceOnUse">
<stop stop-color="#30338C"/>
<stop offset="0.84" stop-color="#6E6AAB"/>
<stop offset="1" stop-color="#7A75B1"/>
</linearGradient>
<linearGradient id="paint47_linear_1295_2484" x1="174.228" y1="336.36" x2="174.228" y2="311.455" gradientUnits="userSpaceOnUse">
<stop stop-color="#9186BB"/>
<stop offset="1" stop-color="#C7C4E1"/>
</linearGradient>
<linearGradient id="paint48_linear_1295_2484" x1="122.124" y1="305.914" x2="196.406" y2="304.2" gradientUnits="userSpaceOnUse">
<stop stop-color="#786FAD"/>
<stop offset="1" stop-color="#B2B3D7"/>
</linearGradient>
<linearGradient id="paint49_linear_1295_2484" x1="113.297" y1="298.963" x2="128.473" y2="291.067" gradientUnits="userSpaceOnUse">
<stop stop-color="#30338C"/>
<stop offset="0.84" stop-color="#6E6AAB"/>
<stop offset="1" stop-color="#7A75B1"/>
</linearGradient>
<linearGradient id="paint50_linear_1295_2484" x1="146.251" y1="313.61" x2="146.251" y2="268.148" gradientUnits="userSpaceOnUse">
<stop stop-color="#9186BB"/>
<stop offset="1" stop-color="#C7C4E1"/>
</linearGradient>
<linearGradient id="paint51_linear_1295_2484" x1="120.261" y1="260.386" x2="169.553" y2="259.252" gradientUnits="userSpaceOnUse">
<stop stop-color="#B2B3D7"/>
<stop offset="1" stop-color="#786FAD"/>
</linearGradient>
<linearGradient id="paint52_linear_1295_2484" x1="358.563" y1="293.778" x2="357.849" y2="293.781" gradientUnits="userSpaceOnUse">
<stop stop-color="#30338C"/>
<stop offset="0.84" stop-color="#6E6AAB"/>
<stop offset="1" stop-color="#7A75B1"/>
</linearGradient>
<linearGradient id="paint53_linear_1295_2484" x1="399.823" y1="328.044" x2="399.493" y2="328.046" gradientUnits="userSpaceOnUse">
<stop stop-color="#30338C"/>
<stop offset="0.84" stop-color="#6E6AAB"/>
<stop offset="1" stop-color="#7A75B1"/>
</linearGradient>
<linearGradient id="paint54_linear_1295_2484" x1="152.207" y1="205.003" x2="152.907" y2="205.01" gradientUnits="userSpaceOnUse">
<stop stop-color="#30338C"/>
<stop offset="0.84" stop-color="#6E6AAB"/>
<stop offset="1" stop-color="#7A75B1"/>
</linearGradient>
<linearGradient id="paint55_linear_1295_2484" x1="464.429" y1="165.149" x2="465.143" y2="165.156" gradientUnits="userSpaceOnUse">
<stop stop-color="#30338C"/>
<stop offset="0.84" stop-color="#6E6AAB"/>
<stop offset="1" stop-color="#7A75B1"/>
</linearGradient>
<linearGradient id="paint56_linear_1295_2484" x1="423.008" y1="199.213" x2="423.338" y2="199.217" gradientUnits="userSpaceOnUse">
<stop stop-color="#30338C"/>
<stop offset="0.84" stop-color="#6E6AAB"/>
<stop offset="1" stop-color="#7A75B1"/>
</linearGradient>
<linearGradient id="paint57_linear_1295_2484" x1="489.203" y1="442.273" x2="418.808" y2="442.273" gradientUnits="userSpaceOnUse">
<stop stop-color="#742AA7"/>
<stop offset="1" stop-color="#0D3E93"/>
</linearGradient>
<linearGradient id="paint58_linear_1295_2484" x1="479.053" y1="465.43" x2="428.942" y2="465.43" gradientUnits="userSpaceOnUse">
<stop stop-color="#742AA7"/>
<stop offset="1" stop-color="#0D3E93"/>
</linearGradient>
<linearGradient id="paint59_linear_1295_2484" x1="465.957" y1="483.466" x2="442.052" y2="483.466" gradientUnits="userSpaceOnUse">
<stop stop-color="#742AA7"/>
<stop offset="1" stop-color="#0D3E93"/>
</linearGradient>
<linearGradient id="paint60_linear_1295_2484" x1="491.039" y1="441.338" x2="464.907" y2="427.736" gradientUnits="userSpaceOnUse">
<stop stop-color="#30338C"/>
<stop offset="0.84" stop-color="#6E6AAB"/>
<stop offset="1" stop-color="#7A75B1"/>
</linearGradient>
<linearGradient id="paint61_linear_1295_2484" x1="430.042" y1="454.93" x2="430.042" y2="428.831" gradientUnits="userSpaceOnUse">
<stop stop-color="#9186BB"/>
<stop offset="1" stop-color="#C7C4E1"/>
</linearGradient>
<linearGradient id="paint62_linear_1295_2484" x1="501.056" y1="415.089" x2="409.343" y2="412.988" gradientUnits="userSpaceOnUse">
<stop stop-color="#786FAD"/>
<stop offset="1" stop-color="#B2B3D7"/>
</linearGradient>
<linearGradient id="paint63_linear_1295_2484" x1="388.955" y1="342.324" x2="358.333" y2="295.273" gradientUnits="userSpaceOnUse">
<stop stop-color="#9186BB"/>
<stop offset="1" stop-color="#C7C4E1"/>
</linearGradient>
<linearGradient id="paint64_linear_1295_2484" x1="402.008" y1="341.264" x2="388.469" y2="310.317" gradientUnits="userSpaceOnUse">
<stop stop-color="#30338C"/>
<stop offset="0.04" stop-color="#35378E"/>
<stop offset="0.29" stop-color="#53529D"/>
<stop offset="0.54" stop-color="#6965A8"/>
<stop offset="0.78" stop-color="#7671AF"/>
<stop offset="1" stop-color="#7A75B1"/>
</linearGradient>
<linearGradient id="paint65_linear_1295_2484" x1="400.244" y1="294.297" x2="355.185" y2="294.297" gradientUnits="userSpaceOnUse">
<stop stop-color="#C7C4E1"/>
<stop offset="1" stop-color="#9186BB"/>
</linearGradient>
<linearGradient id="paint66_linear_1295_2484" x1="368.152" y1="298.843" x2="388.954" y2="273.481" gradientUnits="userSpaceOnUse">
<stop stop-color="#181B5E"/>
<stop offset="0.27" stop-color="#3C3C7D"/>
<stop offset="0.58" stop-color="#5E5B99"/>
<stop offset="0.83" stop-color="#736EAB"/>
<stop offset="1" stop-color="#7A75B1"/>
</linearGradient>
<linearGradient id="paint67_linear_1295_2484" x1="124.614" y1="258.307" x2="155.235" y2="211.255" gradientUnits="userSpaceOnUse">
<stop stop-color="#9186BB"/>
<stop offset="1" stop-color="#C7C4E1"/>
</linearGradient>
<linearGradient id="paint68_linear_1295_2484" x1="111.56" y1="257.247" x2="125.099" y2="226.3" gradientUnits="userSpaceOnUse">
<stop stop-color="#30338C"/>
<stop offset="0.04" stop-color="#35378E"/>
<stop offset="0.29" stop-color="#53529D"/>
<stop offset="0.54" stop-color="#6965A8"/>
<stop offset="0.78" stop-color="#7671AF"/>
<stop offset="1" stop-color="#7A75B1"/>
</linearGradient>
<linearGradient id="paint69_linear_1295_2484" x1="113.324" y1="210.279" x2="158.383" y2="210.279" gradientUnits="userSpaceOnUse">
<stop stop-color="#C7C4E1"/>
<stop offset="1" stop-color="#9186BB"/>
</linearGradient>
<linearGradient id="paint70_linear_1295_2484" x1="145.416" y1="214.826" x2="124.615" y2="189.463" gradientUnits="userSpaceOnUse">
<stop stop-color="#181B5E"/>
<stop offset="0.27" stop-color="#3C3C7D"/>
<stop offset="0.58" stop-color="#5E5B99"/>
<stop offset="0.83" stop-color="#736EAB"/>
<stop offset="1" stop-color="#7A75B1"/>
</linearGradient>
<linearGradient id="paint71_linear_1295_2484" x1="428.553" y1="208.171" x2="459.175" y2="161.119" gradientUnits="userSpaceOnUse">
<stop stop-color="#9186BB"/>
<stop offset="1" stop-color="#C7C4E1"/>
</linearGradient>
<linearGradient id="paint72_linear_1295_2484" x1="415.5" y1="207.111" x2="429.039" y2="176.164" gradientUnits="userSpaceOnUse">
<stop stop-color="#30338C"/>
<stop offset="0.04" stop-color="#35378E"/>
<stop offset="0.29" stop-color="#53529D"/>
<stop offset="0.54" stop-color="#6965A8"/>
<stop offset="0.78" stop-color="#7671AF"/>
<stop offset="1" stop-color="#7A75B1"/>
</linearGradient>
<linearGradient id="paint73_linear_1295_2484" x1="417.264" y1="160.148" x2="462.323" y2="160.148" gradientUnits="userSpaceOnUse">
<stop stop-color="#C7C4E1"/>
<stop offset="1" stop-color="#9186BB"/>
</linearGradient>
<linearGradient id="paint74_linear_1295_2484" x1="449.356" y1="164.69" x2="428.554" y2="139.328" gradientUnits="userSpaceOnUse">
<stop stop-color="#181B5E"/>
<stop offset="0.27" stop-color="#3C3C7D"/>
<stop offset="0.58" stop-color="#5E5B99"/>
<stop offset="0.83" stop-color="#736EAB"/>
<stop offset="1" stop-color="#7A75B1"/>
</linearGradient>
<linearGradient id="paint75_linear_1295_2484" x1="10.3301" y1="302.654" x2="67.4504" y2="302.654" gradientUnits="userSpaceOnUse">
<stop stop-color="#742AA7"/>
<stop offset="1" stop-color="#0D3E93"/>
</linearGradient>
<linearGradient id="paint76_linear_1295_2484" x1="18.5625" y1="320.981" x2="59.2186" y2="320.981" gradientUnits="userSpaceOnUse">
<stop stop-color="#742AA7"/>
<stop offset="1" stop-color="#0D3E93"/>
</linearGradient>
<linearGradient id="paint77_linear_1295_2484" x1="29.1895" y1="335.258" x2="48.5888" y2="335.258" gradientUnits="userSpaceOnUse">
<stop stop-color="#742AA7"/>
<stop offset="1" stop-color="#0D3E93"/>
</linearGradient>
<linearGradient id="paint78_linear_1295_2484" x1="8.83978" y1="301.914" x2="29.8099" y2="290.712" gradientUnits="userSpaceOnUse">
<stop stop-color="#30338C"/>
<stop offset="0.84" stop-color="#6E6AAB"/>
<stop offset="1" stop-color="#7A75B1"/>
</linearGradient>
<linearGradient id="paint79_linear_1295_2484" x1="58.3359" y1="312.668" x2="58.3359" y2="292.019" gradientUnits="userSpaceOnUse">
<stop stop-color="#9186BB"/>
<stop offset="1" stop-color="#C7C4E1"/>
</linearGradient>
<linearGradient id="paint80_linear_1295_2484" x1="0.710851" y1="281.141" x2="75.1209" y2="279.398" gradientUnits="userSpaceOnUse">
<stop stop-color="#786FAD"/>
<stop offset="1" stop-color="#B2B3D7"/>
</linearGradient>
</defs>
</svg>
