<svg width="338" height="450" viewBox="0 0 338 450" fill="none" xmlns="http://www.w3.org/2000/svg">
<path d="M271.19 424.511L334.913 379.817V160.043L271.19 204.75V424.511Z" fill="url(#paint0_linear_1509_5673)"/>
<path d="M271.191 424.511L207.469 379.817V160.043L271.191 204.75V424.511Z" fill="url(#paint1_linear_1509_5673)"/>
<path d="M271.19 115.309L334.913 160.079L271.19 204.786L207.468 160.079L271.19 115.309Z" fill="url(#paint2_linear_1509_5673)"/>
<g style="mix-blend-mode:multiply">
<path d="M265.923 217.645L207.47 176.637V169.91L265.923 210.931V217.645Z" fill="#47417D"/>
<path d="M265.923 234.899L207.47 193.891V187.164L265.923 228.185V234.899Z" fill="#47417D"/>
<path d="M265.923 252.153L207.47 211.145V204.418L265.923 245.426V252.153Z" fill="#47417D"/>
<path d="M265.923 269.407L207.47 228.386V221.672L265.923 262.68V269.407Z" fill="#47417D"/>
</g>
<g style="mix-blend-mode:multiply">
<path d="M265.923 355.102L207.47 314.094V307.367L265.923 348.375V355.102Z" fill="#47417D"/>
<path d="M265.923 372.356L207.47 331.335V324.621L265.923 365.629V372.356Z" fill="#47417D"/>
<path d="M265.923 389.597L207.47 348.589V341.875L265.923 382.883V389.597Z" fill="#47417D"/>
<path d="M265.923 406.851L207.47 365.843V359.129L265.923 400.137V406.851Z" fill="#47417D"/>
</g>
<path d="M271.19 193.134L314.479 162.767V157.484L271.19 187.851V193.134Z" fill="url(#paint3_linear_1509_5673)"/>
<path d="M271.191 193.134L227.903 162.767V157.484L271.191 187.851V193.134Z" fill="url(#paint4_linear_1509_5673)"/>
<path d="M271.19 127.094L314.479 157.511L271.19 187.877L227.902 157.511L271.19 127.094Z" fill="url(#paint5_linear_1509_5673)"/>
<g style="mix-blend-mode:multiply">
<path d="M269.404 141.98L294.881 159.881L292.22 161.756L266.757 143.881L269.404 141.98Z" fill="#47417D"/>
<path d="M264.59 145.414L290.066 163.315L287.406 165.19L261.942 147.327L264.59 145.414Z" fill="#47417D"/>
<path d="M259.778 148.844L285.255 166.744L282.594 168.619L257.131 150.757L259.778 148.844Z" fill="#47417D"/>
<path d="M254.962 152.281L280.438 170.182L277.791 172.057L252.314 154.194L254.962 152.281Z" fill="#47417D"/>
<path d="M250.16 155.727L275.624 173.615L272.964 175.489L247.5 157.627L250.16 155.727Z" fill="#47417D"/>
</g>
<path d="M257.114 334.364L219.59 308.038V245.887L257.114 272.199V334.364Z" fill="url(#paint6_linear_1509_5673)"/>
<g style="mix-blend-mode:multiply">
<path d="M257.114 334.364L225.164 311.953V304.872L257.114 282.461V334.364Z" fill="#47417D"/>
</g>
<path d="M255.888 333.489L225.166 311.953V304.77L255.888 326.319V333.489Z" fill="url(#paint7_linear_1509_5673)"/>
<path d="M225.166 249.789V311.953L219.592 308.038V245.887L225.166 249.789Z" fill="url(#paint8_linear_1509_5673)"/>
<path d="M255.885 271.289L257.114 272.201V334.366L255.885 333.441V271.289Z" fill="#002B64"/>
<path d="M257.114 273.694L219.59 247.407V245.887L257.114 272.174V273.694Z" fill="#002B64"/>
<g style="mix-blend-mode:multiply" opacity="0.8">
<path d="M257.114 334.364L219.59 308.038V245.887L257.114 272.199V334.364Z" fill="#47417D"/>
</g>
<path d="M228.698 257.867L235.223 262.441V264.848L228.698 260.274V257.867Z" fill="#5EBBD8"/>
<path d="M227.115 256.757V259.164L225.278 257.872V255.465L227.115 256.757Z" fill="#5EBBD8"/>
<path d="M236.349 263.227L254.604 276.047V278.454L236.349 265.634V263.227Z" fill="#5EBBD8"/>
<path d="M228.698 264.141L235.223 268.714V271.121L228.698 266.548V264.141Z" fill="#5EBBD8"/>
<path d="M236.349 269.516L254.604 282.324V284.731L236.349 271.923V269.516Z" fill="#5EBBD8"/>
<path d="M236.351 275.785L254.606 288.593V291L236.351 278.192V275.785Z" fill="#5EBBD8"/>
<path d="M228.698 276.328L235.223 280.914V283.321L228.698 278.735V276.328Z" fill="#5EBBD8"/>
<path d="M227.115 275.226V277.633L225.278 276.341V273.934L227.115 275.226Z" fill="#5EBBD8"/>
<path d="M236.349 281.699L254.604 294.507V296.914L236.349 284.106V281.699Z" fill="#5EBBD8"/>
<path d="M228.698 282.598L235.223 287.184V289.591L228.698 285.005V282.598Z" fill="#5EBBD8"/>
<path d="M236.349 287.973L254.604 300.781V303.188L236.349 290.38V287.973Z" fill="#5EBBD8"/>
<path d="M236.349 294.242L254.604 307.05V309.47L236.349 296.649V294.242Z" fill="#5EBBD8"/>
<path d="M228.698 294.801L235.223 299.374V301.781L228.698 297.208V294.801Z" fill="#5EBBD8"/>
<path d="M227.115 293.683V296.09L225.278 294.81V292.391L227.115 293.683Z" fill="#5EBBD8"/>
<path d="M236.349 300.156L254.604 312.977V315.384L236.349 302.563V300.156Z" fill="#5EBBD8"/>
<path d="M228.698 301.07L235.223 305.644V308.051L228.698 303.477V301.07Z" fill="#5EBBD8"/>
<path d="M236.349 306.445L254.604 319.253V321.66L236.349 308.852V306.445Z" fill="#5EBBD8"/>
<path d="M236.349 312.715L254.604 325.523V327.93L236.349 315.122V312.715Z" fill="#5EBBD8"/>
<path d="M90.9287 8.76625C90.5095 8.68974 90.0867 8.63477 89.6619 8.60156C90.0039 8.63957 90.46 8.69024 90.9287 8.76625Z" fill="url(#paint9_linear_1509_5673)"/>
<path d="M171.111 74.4422C171.105 74.4172 171.105 74.3912 171.111 74.3662L171.744 73.9102C171.524 74.0766 171.313 74.2542 171.111 74.4422Z" fill="url(#paint10_linear_1509_5673)"/>
<path d="M133.973 326.965C139.37 323 174.867 298.436 189.183 288.415C190.602 287.427 192.249 286.223 193.338 285.463C196.86 283.005 195.771 276.367 195.771 276.367L132.567 320.707V327.548C133.083 327.498 133.573 327.295 133.973 326.965Z" fill="url(#paint11_linear_1509_5673)"/>
<path d="M131.264 327.04C123.283 321.441 48.8302 268.968 23.2524 251.029C19.6292 248.496 20.7187 242.25 20.7187 242.25L132.531 320.694V327.535C132.072 327.488 131.634 327.317 131.264 327.04Z" fill="url(#paint12_linear_1509_5673)"/>
<path d="M84.0116 197.961L195.773 276.379L132.57 320.706L20.7449 242.263L84.0116 197.961Z" fill="url(#paint13_linear_1509_5673)"/>
<g style="mix-blend-mode:soft-light">
<path d="M84.3418 202.621L187.856 275.3L153.132 299.776L49.5794 227.071L84.3418 202.621Z" fill="white"/>
</g>
<g style="mix-blend-mode:soft-light">
<path d="M79.8324 253.234L113.721 277.355L95.4527 290.214L61.5517 266.093L79.8324 253.234Z" fill="white"/>
</g>
<path d="M195.775 276.364C196.288 276.351 196.793 276.237 197.261 276.029C197.729 275.82 198.152 275.522 198.505 275.15C198.858 274.778 199.134 274.341 199.318 273.862C199.502 273.383 199.589 272.873 199.576 272.361V199.302C199.503 198.625 199.305 197.968 198.993 197.363L195.788 199.137L195.775 276.364Z" fill="url(#paint14_linear_1509_5673)"/>
<path d="M195.773 276.367L84.1003 197.962V120.734L195.773 199.127V276.367Z" fill="url(#paint15_linear_1509_5673)"/>
<g style="mix-blend-mode:multiply">
<path d="M195.773 276.367L84.1003 197.962V120.734L195.773 199.127V276.367Z" fill="#47417D"/>
</g>
<path d="M92.1573 121.772C116.646 138.9 187.007 188.371 197.141 195.377C197.914 195.852 198.531 196.544 198.915 197.366L195.71 199.152L84.0367 120.746C84.0367 120.746 86.8618 118.073 92.1573 121.772Z" fill="url(#paint16_linear_1509_5673)"/>
<g style="mix-blend-mode:multiply">
<path d="M191.289 267.891L87.6351 195.123V128.613L191.289 201.369V267.891Z" fill="#594E83"/>
</g>
<g style="mix-blend-mode:soft-light" opacity="0.39">
<path d="M135.191 162.172L191.034 201.368V267.891L87.7476 195.389L135.191 162.172Z" fill="white"/>
</g>
<g style="mix-blend-mode:soft-light" opacity="0.39">
<path d="M191.53 267.803L91.5375 197.606L119.206 178.16L191.53 228.948V267.803Z" fill="white"/>
</g>
<g style="mix-blend-mode:soft-light" opacity="0.39">
<path d="M191.034 220.488L158.945 197.647L172.323 188.234L191.034 201.372V220.488Z" fill="white"/>
</g>
<g style="mix-blend-mode:multiply">
<path d="M142.981 315.523L134.582 321.465V324.075L142.981 318.133V315.523Z" fill="#47417D"/>
<path d="M153.928 307.797L145.529 313.738V316.335L153.928 310.394V307.797Z" fill="#47417D"/>
<path d="M178.898 290.328L157.869 305.1V307.697L178.898 292.938V290.328Z" fill="#47417D"/>
<path d="M193.923 279.812L185.524 285.754V288.364L193.923 282.41V279.812Z" fill="#47417D"/>
</g>
<path d="M172.073 246.799L111.695 204.422V95.207L172.073 137.596V246.799Z" fill="url(#paint17_linear_1509_5673)"/>
<path d="M172.071 246.8L176.327 243.937V134.734L172.071 137.597V246.8Z" fill="url(#paint18_linear_1509_5673)"/>
<path d="M115.962 91.8359L111.692 95.2058L172.058 137.595L176.327 134.732L115.962 91.8359Z" fill="url(#paint19_linear_1509_5673)"/>
<g style="mix-blend-mode:multiply">
<path d="M167.081 146.539L115.609 110.409V106.887L167.081 143.017V146.539Z" fill="#594E83"/>
<path d="M167.081 156.547L115.609 120.416V116.895L167.081 153.025V156.547Z" fill="#594E83"/>
<path d="M167.081 166.555L115.609 130.424V126.902L167.081 163.033V166.555Z" fill="#594E83"/>
<path d="M167.081 176.563L115.609 140.432V136.91L167.081 173.041V176.563Z" fill="#594E83"/>
<path d="M167.081 186.57L115.609 150.44V146.918L167.081 183.049V186.57Z" fill="#594E83"/>
<path d="M167.081 196.578L115.609 160.448V156.926L167.081 193.056V196.578Z" fill="#594E83"/>
<path d="M167.081 206.59L115.609 170.472V166.938L167.081 203.068V206.59Z" fill="#594E83"/>
<path d="M167.081 216.597L115.609 180.479V176.957L167.081 213.075V216.597Z" fill="#594E83"/>
<path d="M167.081 226.605L115.609 190.487V186.965L167.081 223.083V226.605Z" fill="#594E83"/>
<path d="M167.081 236.625L115.609 200.482V196.973L167.081 233.091V236.625Z" fill="#594E83"/>
</g>
<path d="M59.0566 325.279C59.0566 326.939 55.1547 366.135 53.5838 378.006C52.0636 389.471 48.7571 418.152 48.7571 428.566C48.7571 429.161 46.5908 430.821 43.0943 431.505C40.7126 431.974 36.9374 429.921 36.9374 429.136L37.6468 325.254L59.0566 325.279Z" fill="#09003C"/>
<path d="M45.6545 426.223H54.5985C65.3034 426.223 57.6643 434.521 49.9871 434.521H39.5609C39.5609 434.521 36.9259 434.521 36.9259 432.595V426.261L45.6545 426.223Z" fill="#09003C"/>
<path d="M78.5889 325.281C78.5255 328.398 78.5889 333.389 78.5889 340.281C78.3838 356.08 77.2968 371.856 75.333 387.534C73.8255 398.999 68.3527 427.694 68.3527 438.094C68.3527 438.69 66.199 440.349 62.6898 441.034C60.3081 441.502 56.5329 439.45 56.5329 438.665L56.7356 325.281H78.5889Z" fill="#09003C"/>
<path d="M65.263 435.75H74.2577C84.9626 435.75 77.3235 444.048 69.6463 444.048H59.2201C59.2201 444.048 56.5851 444.048 56.5851 442.135V435.801L65.263 435.75Z" fill="#09003C"/>
<path d="M68.3391 226.215C68.3391 226.215 68.4658 240.315 68.4658 242.557C68.4658 245.864 61.1814 241.544 58.9771 240.024C51.1353 234.677 51.4393 233.056 51.2873 231.688V226.215H68.3391Z" fill="#E39E76"/>
<path d="M58.701 197.324C50.8972 197.324 45.4877 204.381 45.4877 212.184V217.34C45.4877 224.942 54.9638 232.872 62.7422 232.872H69.3425C70.0787 232.823 70.7658 232.486 71.2545 231.933C71.7432 231.38 71.9939 230.657 71.9523 229.92V224.498C71.9064 224.155 71.9653 223.805 72.1213 223.495C72.2772 223.186 72.523 222.93 72.8264 222.763C74.1819 222.319 73.3458 221.306 73.1558 220.812C72.5445 219.337 72.1395 217.785 71.9523 216.2C71.6989 213.793 72.1803 210.74 71.9523 209.182C71.0781 203.405 66.5048 197.324 58.701 197.324Z" fill="#F5BB95"/>
<path d="M45.4866 212.237C45.4866 204.433 50.2626 197.377 58.8012 197.377C62.0858 197.326 65.268 198.52 67.7076 200.72C70.1473 202.92 71.6634 205.962 71.9512 209.234C71.8878 209.146 67.2512 206.853 67.2512 214.745C67.2512 220.18 67.2512 222.866 67.2512 222.866H65.2495C65.3015 221.872 65.0826 220.882 64.6161 220.003C63.6533 218.09 61.981 216.975 60.8789 217.469C59.7767 217.963 59.612 220.003 60.6129 221.954C60.9737 222.68 61.4779 223.327 62.0951 223.854C63.5013 225.691 56.1915 230.745 54.2026 230.125C54.2026 230.125 45.5246 225.298 45.5246 217.33L45.4866 212.237Z" fill="#09003C"/>
<path d="M51.2532 230.723C50.7553 230.91 50.3391 231.266 50.0774 231.73C49.8157 232.193 49.7252 232.733 49.8217 233.256C49.8217 233.256 60.666 241.25 71.2695 248.915L68.4698 242.39L51.2532 230.723Z" fill="#B2AFD4"/>
<path d="M49.8219 233.219C49.8219 233.219 68.8247 246.508 73.2461 250.423C75.6024 252.513 77.0466 261.824 77.0466 275.646C77.0466 279.446 78.9849 312.815 79.8337 323.545C80.2517 328.815 80.7711 330.766 76.1471 332.185C69.7827 334.163 63.1839 335.288 56.5236 335.53C49.8219 335.53 41.9041 333.414 37.6221 332.287C35.5698 331.755 34.3663 328.486 35.3038 324.331C37.6601 313.715 42.0688 290.595 42.0688 282.297C42.0688 267.867 42.7529 259.633 42.0688 250.524C41.144 237.868 47.1362 234.574 49.8219 233.219Z" fill="#25216F"/>
<path d="M68.4671 242.555C68.4671 242.555 71.951 243.822 73.2432 250.422L71.2669 248.876C71.2669 248.876 69.4933 244.696 68.4671 242.555Z" fill="#191454"/>
<path d="M60.3221 299.945C60.7549 301.881 61.9386 303.567 63.6133 304.631C65.2879 305.695 67.3165 306.051 69.2534 305.62C70.2119 305.406 71.1188 305.005 71.9222 304.44C72.7256 303.875 73.4098 303.158 73.9357 302.328C74.4617 301.499 74.8189 300.574 74.9872 299.606C75.1554 298.639 75.1313 297.647 74.9162 296.689L68.468 260.672C67.0871 252.501 62.349 248.637 56.6609 249.904C52.6323 250.816 47.4635 254.731 50.0986 263.611L60.3221 299.945Z" fill="#09003C"/>
<path d="M78.5873 340.215C80.0949 344.015 90.9645 339.1 89.4696 335.249L75.1288 296.622C74.7758 295.697 74.2426 294.852 73.5601 294.134C72.8776 293.417 72.0594 292.843 71.1531 292.444C70.2467 292.046 69.2702 291.832 68.2803 291.814C67.2904 291.796 66.3068 291.975 65.3867 292.34C64.4704 292.695 63.633 293.227 62.9223 293.905C62.2117 294.584 61.6419 295.396 61.2453 296.295C60.8488 297.193 60.6334 298.162 60.6114 299.144C60.5895 300.126 60.7614 301.103 61.1174 302.019L78.5873 340.215Z" fill="#09003C"/>
<path d="M69.8755 403.991L118.181 370.166V336.328L69.8755 370.153V403.991Z" fill="#8680B6"/>
<path d="M69.876 403.99L64.6185 400.24V366.402L69.876 370.152V403.99Z" fill="#766FAC"/>
<path d="M112.923 332.566L118.181 336.342L69.8755 370.167L64.6181 366.417L112.923 332.566Z" fill="#B2AFD4"/>
<path d="M99.0869 347.819L96.6166 346.058V342.447L99.0869 340.699V347.819Z" fill="#766FAC"/>
<path d="M102.003 335.441V345.868L99.0892 347.819V340.699L82.7974 352.177V359.512L79.8837 361.463V354.241L79.871 351.049L102.003 335.441Z" fill="#9490C1"/>
<path d="M77.4095 349.285L79.8799 351.046V361.46L77.4095 359.699V349.285Z" fill="#766FAC"/>
<path d="M99.5325 333.68L102.003 335.441L79.871 351.048L77.4133 349.287L99.5325 333.68Z" fill="#B2AFD4"/>
<path d="M69.8755 380.896L97.8477 377.843L118.181 347.071V336.328L69.8755 370.153V380.896Z" fill="#A39DC8"/>
<path d="M89.0799 337.582C89.0799 337.582 94.6287 342.561 92.4751 345.601C90.3214 348.642 89.0546 349.288 86.2802 349.731C86.2802 349.731 86.2042 344.942 82.7077 345.551C82.1314 345.054 81.6598 344.448 81.3205 343.767C80.9811 343.086 80.7809 342.344 80.7313 341.585C82.3183 341.502 83.8731 341.106 85.306 340.419C86.7389 339.732 88.0216 338.767 89.0799 337.582Z" fill="#F5BB95"/>
<path d="M311.056 448.863C312.13 449.301 313.297 449.464 314.45 449.336C315.603 449.207 316.705 448.792 317.656 448.128C321.128 445.696 328.374 441.173 328.374 440.527V435.637H316.896C316.896 435.637 316.896 436.384 316.896 436.676C316.949 437.738 316.611 438.784 315.946 439.615C314.679 440.818 313.983 441.591 311.905 443.605C309.827 445.62 309.511 448.014 311.056 448.863Z" fill="#09003C"/>
<path d="M316.554 437.066C316.554 437.662 318.708 439.309 322.217 440.005C324.599 440.461 328.374 439.144 328.374 438.358C328.374 433.582 326.03 402.697 326.461 392.866C327.209 376.397 327.437 331.74 327.437 331.74L306.901 323.848C306.901 323.848 305.875 330.119 307.18 342.85C308.573 356.444 308.003 374.661 309.574 386.532C311.081 397.959 316.554 426.627 316.554 437.066Z" fill="#09003C"/>
<path d="M290.81 435.076C291.884 435.515 293.051 435.678 294.204 435.549C295.357 435.421 296.459 435.006 297.41 434.342C300.882 431.909 308.128 427.374 308.128 426.741V421.812H296.726C296.726 421.812 296.726 422.56 296.726 422.851C296.779 423.914 296.441 424.96 295.776 425.79C294.509 427.057 293.812 427.767 291.735 429.794C289.657 431.821 289.264 434.228 290.81 435.076Z" fill="#09003C"/>
<path d="M296.081 422.57C296.271 424.382 298.615 425.877 301.618 426.7C303.949 427.346 308.75 426.599 308.75 425.433C308.75 420.657 306.52 388.935 306.951 379.104C307.699 362.635 306.951 323.832 306.951 323.832L287.328 310.758C287.378 326.216 288.308 341.658 290.115 357.011C291.571 368.488 295.03 412.207 296.081 422.57Z" fill="#09003C"/>
<path d="M318.824 237.8L297.655 237.344L301.392 271.992L318.824 237.8Z" fill="#928CBE"/>
<path d="M297.665 237.359L301.402 272.071V320.858C301.402 320.858 301.402 327.623 296.082 326.026C289.811 324.151 286.567 318.159 286.466 315.524C285.833 298.574 285.845 298.865 285.845 269.271V245.733L297.665 237.359Z" fill="#25216F"/>
<path d="M301.403 272.072L318.759 237.867C325.93 242.935 335.114 248.965 335.114 248.965L328.311 278.989L324.675 303.313C324.675 303.313 326.778 322.506 327.779 333.363C328.273 338.886 312.235 338.785 305.229 332.678C302.138 329.98 301.34 324.621 301.34 320.01L301.403 272.072Z" fill="#25216F"/>
<path d="M301.442 213.556C303.365 212.721 305.439 212.29 307.536 212.289C313.465 212.289 317.569 217.787 317.569 223.691V231.571C317.569 235.371 309.322 241.617 304.255 242.643C303.61 242.841 302.916 242.809 302.291 242.554C301.671 242.126 301.167 241.552 300.822 240.882C300.435 239.846 300.184 238.764 300.074 237.664L301.442 213.556Z" fill="#E39E76"/>
<path d="M307.623 201.125C314.907 201.125 319.949 207.89 319.949 215.162V220.305C319.949 228.438 308.155 239.181 300.87 239.181C297.235 239.181 296.55 234.811 295.068 230.313C293.991 227.057 294.447 217.645 294.447 213.667C294.447 206.408 300.351 201.125 307.623 201.125Z" fill="#F5BB95"/>
<path d="M317.57 231.621C317.052 233.815 315.756 235.746 313.922 237.056C310.679 239.59 305.054 243.77 302.292 242.554L308.196 247.495C308.196 247.495 318.761 240.489 318.761 237.221C318.761 233.952 318.926 232.799 317.57 231.621Z" fill="#B2AFD4"/>
<path d="M300.314 239.133C300.51 240.484 301.218 241.708 302.29 242.553L298.489 245.227L297.666 237.359C298.321 238.235 299.255 238.86 300.314 239.133Z" fill="#B2AFD4"/>
<path d="M300.976 246.964V243.468L302.293 242.543L306.601 246.166L303.763 248.915L300.976 246.964Z" fill="#191454"/>
<path d="M303.761 248.912L305.521 263.911L301.392 271.994L300.074 260.098L300.973 246.961L303.761 248.912Z" fill="#191454"/>
<g style="mix-blend-mode:multiply">
<path d="M313.312 270.641L322.902 240.68L320.217 238.754L301.391 271.996L313.312 270.641Z" fill="#191454"/>
</g>
<g style="mix-blend-mode:multiply">
<path d="M301.392 271.992L291.257 256.283L294.462 239.345L297.654 237.344L301.392 271.992Z" fill="#191454"/>
</g>
<path d="M301.391 271.997L312.147 269.603L322.902 240.68L318.823 237.805L301.391 271.997Z" fill="#25216F"/>
<path d="M301.402 272.07L292.534 255.943L294.422 239.474C295.392 238.661 296.471 237.988 297.627 237.473L301.402 272.07Z" fill="#25216F"/>
<path d="M271.445 288.64C275.955 273.843 284.417 250.761 286.001 246.441V298.674L279.477 300.625C272.864 302.474 268.949 296.862 271.445 288.64Z" fill="#1A1556"/>
<path d="M279.893 300.463L310.26 291.848L307.916 284.133L276.98 290.29L279.893 300.463Z" fill="#1A1556"/>
<path d="M293.626 294.296C293.626 294.296 287.292 286.961 285.86 288.747C286.061 287.247 286.603 285.813 287.444 284.554C289.027 282.464 291.32 282.489 293.778 284.149L297.718 286.86L293.626 294.296Z" fill="#F5BB95"/>
<path d="M293.626 294.546C300.86 299.156 308.374 303.311 316.125 306.987C318.861 308.254 321.902 306.404 323.409 303.845C329.3 293.774 342.59 254.679 335.178 248.914C329.034 244.126 324.626 256.516 321.953 266.182C320.027 273.339 316.568 287.351 315.137 291.075C314.605 292.456 313.87 292.849 312.705 292.405C307.313 290.244 302.062 287.748 296.983 284.931C295.624 286.095 294.598 287.598 294.009 289.286C293.419 290.975 293.287 292.79 293.626 294.546Z" fill="#25216F"/>
<path d="M308.156 284.905C312.785 283.642 317.56 282.998 322.358 282.992C322.664 282.992 322.957 283.114 323.173 283.33C323.389 283.546 323.511 283.839 323.511 284.145C323.511 284.451 323.389 284.744 323.173 284.96C322.957 285.176 322.664 285.298 322.358 285.298C321.712 285.298 318.988 285.779 318.367 285.805C318.671 285.919 318.975 286.033 319.292 286.172C319.571 286.3 319.788 286.533 319.895 286.82C320.002 287.108 319.99 287.426 319.862 287.705C319.735 287.984 319.501 288.201 319.214 288.307C318.926 288.414 318.608 288.403 318.329 288.275L318 288.136L318.595 288.541C318.716 288.633 318.818 288.748 318.894 288.88C318.971 289.011 319.02 289.156 319.04 289.307C319.06 289.458 319.05 289.611 319.011 289.758C318.972 289.905 318.904 290.042 318.811 290.163C318.719 290.284 318.604 290.385 318.472 290.462C318.341 290.538 318.195 290.588 318.045 290.608C317.894 290.628 317.741 290.618 317.594 290.578C317.447 290.539 317.31 290.471 317.189 290.378C317.024 290.251 316.86 290.15 316.682 290.036C316.878 290.212 317.064 290.398 317.24 290.593C317.437 290.829 317.532 291.133 317.506 291.439C317.48 291.745 317.334 292.028 317.1 292.228C316.894 292.409 316.628 292.509 316.353 292.506C316.187 292.505 316.023 292.468 315.872 292.398C315.721 292.328 315.587 292.227 315.479 292.101C315.064 291.603 314.573 291.175 314.022 290.834C314.326 291.068 314.61 291.326 314.871 291.607C314.974 291.718 315.055 291.849 315.108 291.991C315.161 292.134 315.185 292.285 315.179 292.437C315.173 292.589 315.137 292.738 315.074 292.876C315.01 293.014 314.919 293.138 314.807 293.241C314.592 293.436 314.312 293.544 314.022 293.545C313.862 293.546 313.703 293.512 313.557 293.447C313.41 293.381 313.28 293.285 313.173 293.165C312.332 292.318 311.297 291.687 310.158 291.328L308.156 284.905Z" fill="#F5BB95"/>
<path d="M311.258 215.063C307.293 212.529 304.506 214.366 299.211 214.366C292.129 214.366 288.202 211.174 287.809 207.842C288.479 208.197 289.217 208.403 289.974 208.444C290.731 208.486 291.488 208.362 292.192 208.083C295.993 206.284 297.614 201.14 306.736 200.849C316.972 200.52 324.725 209.147 320.798 220.32C319.683 220.257 318.264 221.347 317.428 223.057C316.592 224.767 316.541 226.857 317.428 227.618C313.551 233.698 306.026 239.171 300.883 239.171C297.741 239.171 296.322 235.472 295.068 230.886C294.797 229.711 294.619 228.517 294.536 227.314C294.536 227.314 294.941 226.363 300.959 226.845C303.484 227.016 305.969 227.562 308.332 228.466C309.106 228.77 309.957 228.82 310.761 228.608C311.565 228.396 312.28 227.934 312.804 227.288C313.702 226.307 314.41 225.169 314.894 223.931C315.895 220.232 313.501 216.571 311.258 215.063ZM306.368 231.241C304.684 230.426 302.878 229.891 301.022 229.657C299.48 229.469 297.924 229.418 296.373 229.505C295.587 229.505 295.866 230.519 296.5 231.38C299.033 234.775 302.669 234.155 306.52 232.71C307.268 232.419 306.888 231.532 306.368 231.291V231.241Z" fill="#09003C"/>
<path d="M317.38 223.11C316.366 225.137 316.493 227.24 317.658 227.835C318.824 228.431 320.585 227.24 321.598 225.226C322.612 223.211 322.485 221.083 321.32 220.513C320.154 219.943 318.393 221.096 317.38 223.11Z" fill="#F5BB95"/>
<path d="M225.47 162.919L249.084 146.652L274.94 159.904L240.495 183.48C235.174 187.47 227.003 185.076 223.012 179.755C221.11 177.195 220.3 173.985 220.761 170.829C221.221 167.673 222.915 164.828 225.47 162.919Z" fill="#09003C"/>
<path d="M216.043 259.846C217.332 260.368 218.732 260.561 220.114 260.406C221.497 260.251 222.819 259.754 223.961 258.959C228.141 256.032 236.845 250.598 236.845 249.787V239.918H223.061C223.061 239.918 223.061 244.808 223.061 245.15C223.117 246.433 222.707 247.692 221.909 248.697C220.376 250.141 219.552 251.066 217.056 253.486C214.561 255.906 214.193 258.819 216.043 259.846Z" fill="#09003C"/>
<path d="M223.05 244.757L219.819 174.523C219.819 171.956 220.839 169.494 222.654 167.679C224.469 165.863 226.931 164.844 229.498 164.844C232.065 164.844 234.527 165.863 236.342 167.679C238.157 169.494 239.177 171.956 239.177 174.523L240.19 183.555L236.846 247.785L223.05 244.757Z" fill="#09003C"/>
<path d="M241.71 174.676L265.363 158.435L290.206 157.484C290.206 157.484 290.991 162.729 291.561 166.352C292.182 170.153 289.648 172.851 284.593 176.348C278.817 180.351 256.723 195.351 256.723 195.351C251.414 199.341 243.243 196.947 239.253 191.626C238.293 190.355 237.595 188.906 237.199 187.363C236.803 185.82 236.716 184.214 236.945 182.638C237.173 181.062 237.712 179.546 238.53 178.18C239.348 176.813 240.429 175.622 241.71 174.676Z" fill="#09003C"/>
<path d="M232.284 271.603C233.574 272.126 234.973 272.319 236.356 272.164C237.738 272.009 239.06 271.511 240.202 270.717C244.383 267.79 253.073 262.355 253.073 261.545V251.676H239.303C239.303 251.676 239.303 256.579 239.303 256.921C239.356 258.199 238.946 259.454 238.15 260.455C236.604 261.899 235.793 262.824 233.298 265.244C230.802 267.663 230.435 270.577 232.284 271.603Z" fill="#09003C"/>
<path d="M239.292 256.515L236.062 186.331C236.062 183.764 237.081 181.302 238.896 179.487C240.712 177.672 243.173 176.652 245.74 176.652C248.307 176.652 250.769 177.672 252.584 179.487C254.399 181.302 255.419 183.764 255.419 186.331L256.433 195.364L253.075 259.593L239.292 256.515Z" fill="#09003C"/>
<path d="M282.705 69.3662L261.346 68.9102L265.121 103.888L282.705 69.3662Z" fill="#928CBE"/>
<path d="M261.345 68.9102L265.146 103.888V153.143C265.146 153.143 265.146 159.972 259.774 158.363C253.44 156.462 250.159 150.419 250.057 147.759C249.424 130.644 249.424 130.935 249.424 101.063V77.3727L261.345 68.9102Z" fill="#25216F"/>
<path d="M265.123 103.888L282.707 69.3789C289.953 74.4463 299.176 80.5779 299.176 80.5779L292.297 110.894L288.623 135.445C288.623 135.445 290.751 154.815 291.752 165.774C292.271 171.348 276.068 171.259 268.949 165.09C265.82 162.353 265.021 156.956 265.021 152.332L265.123 103.888Z" fill="#25216F"/>
<path d="M265.159 44.888C267.103 44.046 269.199 43.6147 271.316 43.6212C277.296 43.6212 281.451 49.17 281.451 55.1622V63.1054C281.451 66.9059 273.115 73.2402 267.997 74.279C267.343 74.475 266.641 74.4254 266.021 74.1397C265.397 73.7071 264.888 73.1287 264.539 72.4547C264.143 71.4122 263.887 70.3216 263.779 69.2116L265.159 44.888Z" fill="#E39E76"/>
<path d="M271.405 32.3828C278.753 32.3828 283.846 39.2111 283.846 46.5462V51.7403C283.846 59.9495 271.937 70.7431 264.59 70.7431C260.916 70.7431 260.219 66.3345 258.724 61.7738C257.647 58.4926 258.103 49.0166 258.103 44.9753C258.103 37.7036 264.057 32.3828 271.405 32.3828Z" fill="#F5BB95"/>
<path d="M281.248 54.5302C280.222 56.5698 280.349 58.7108 281.527 59.2936C282.705 59.8763 284.479 58.7108 285.505 56.6585C286.531 54.6062 286.404 52.4906 285.226 51.9078C284.048 51.3251 282.262 52.4906 281.248 54.5302Z" fill="#F5BB95"/>
<path d="M281.453 63.1172C280.925 65.3368 279.611 67.29 277.754 68.6153C274.486 71.149 268.772 75.3803 266.023 74.1515L271.977 79.1429C271.977 79.1429 282.708 72.0738 282.708 68.78C282.708 65.4862 282.822 64.308 281.453 63.1172Z" fill="#B2AFD4"/>
<path d="M264.02 70.7598C264.238 72.1025 264.952 73.3143 266.021 74.1549L262.221 76.8533L261.385 68.9102C262.026 69.8093 262.956 70.462 264.02 70.7598Z" fill="#B2AFD4"/>
<path d="M275.18 43.6301L282.021 39.1328C283.229 41.4249 283.855 43.9785 283.846 46.5692V51.7633C283.846 51.7633 283.846 51.8647 283.846 51.9154C281.464 52.8022 280.678 56.21 280.678 56.21L278.766 54.8671V51.6113C276.105 51.2693 273.863 46.5439 273.014 44.5549C274.344 44.0355 275.18 43.6301 275.18 43.6301Z" fill="#09003C"/>
<path d="M257.95 45.7847C257.95 45.5187 257.95 45.2527 257.95 45.0246C257.95 37.6769 263.904 32.3561 271.252 32.3561C273.525 32.2489 275.776 32.8412 277.701 34.0532C279.627 35.2651 281.134 37.0383 282.021 39.1338L275.205 43.6311C275.205 43.6311 266.033 48.1031 257.95 45.7847Z" fill="#09003C"/>
<path d="M264.691 78.6078V75.0859L266.021 74.1484L270.366 77.797L267.503 80.5714L264.691 78.6078Z" fill="#191454"/>
<path d="M267.503 80.573L269.276 95.7246L265.121 103.883L263.778 91.8607L264.69 78.6094L267.503 80.573Z" fill="#191454"/>
<g style="mix-blend-mode:multiply">
<path d="M277.143 102.515L286.821 72.2625L284.11 70.3242L265.12 103.883L277.143 102.515Z" fill="#191454"/>
</g>
<g style="mix-blend-mode:multiply">
<path d="M265.119 103.888L254.87 88.027L258.113 70.9371L261.344 68.9102L265.119 103.888Z" fill="#191454"/>
</g>
<path d="M265.12 103.885L275.964 101.465L286.821 72.2644L282.704 69.3633L265.12 103.885Z" fill="#25216F"/>
<path d="M265.119 103.888L256.251 87.6089L258.151 70.9371C259.133 70.1209 260.22 69.4392 261.382 68.9102L265.119 103.888Z" fill="#25216F"/>
<path d="M234.781 119.959C236.884 109.621 238.126 99.3596 240.191 91.2518C243.231 79.4067 246.36 79.1407 249.477 77.3164V130.043L242.889 132.019C236.213 133.983 233.058 128.459 234.781 119.959Z" fill="#1A1556"/>
<path d="M243.32 131.896L273.965 123.193L271.596 115.414L240.381 121.622L243.32 131.896Z" fill="#1A1556"/>
<path d="M258.776 126.903C258.776 126.903 252.328 119.505 250.934 121.304C251.145 119.79 251.695 118.343 252.543 117.072C254.14 114.969 256.458 114.982 258.878 116.667L262.855 119.403L258.776 126.903Z" fill="#F5BB95"/>
<path d="M257.952 128.916C257.952 128.916 271.393 135.25 281.44 139.697C284.214 140.964 287.267 139.127 288.787 136.53C291.714 131.539 298.922 119.111 302.153 107.392C305.446 95.2812 304.547 83.9302 300.683 81.0671C291.612 74.3528 287.939 86.1345 285.227 95.9906C283.251 103.161 281.883 119.858 280.439 123.633C279.907 125.027 279.172 125.42 277.994 124.976C272.548 122.779 267.246 120.24 262.12 117.375C262.12 117.375 256.951 122.582 257.952 128.916Z" fill="#25216F"/>
<path d="M271.887 116.251C276.562 114.981 281.383 114.329 286.228 114.312C286.381 114.316 286.532 114.349 286.672 114.411C286.812 114.472 286.939 114.561 287.045 114.672C287.15 114.782 287.233 114.913 287.289 115.055C287.344 115.198 287.371 115.35 287.368 115.503C287.368 115.656 287.337 115.808 287.278 115.949C287.218 116.089 287.131 116.217 287.021 116.323C286.911 116.43 286.78 116.513 286.638 116.568C286.495 116.623 286.343 116.649 286.19 116.644C285.531 116.644 282.782 117.138 282.161 117.163C282.465 117.277 282.782 117.391 283.086 117.53C283.237 117.586 283.374 117.671 283.49 117.782C283.606 117.893 283.698 118.027 283.76 118.175C283.821 118.323 283.852 118.482 283.85 118.643C283.847 118.803 283.811 118.961 283.745 119.107C283.679 119.253 283.583 119.384 283.463 119.491C283.344 119.598 283.204 119.68 283.052 119.73C282.899 119.781 282.738 119.8 282.579 119.785C282.419 119.771 282.264 119.723 282.123 119.646L281.794 119.519C281.984 119.659 282.199 119.773 282.389 119.925C282.512 120.017 282.615 120.132 282.693 120.265C282.77 120.398 282.821 120.544 282.841 120.696C282.861 120.849 282.85 121.003 282.81 121.152C282.769 121.3 282.699 121.438 282.605 121.559C282.497 121.702 282.357 121.818 282.197 121.897C282.036 121.977 281.859 122.017 281.68 122.015C281.423 122.015 281.174 121.93 280.97 121.774C280.806 121.648 280.628 121.546 280.464 121.432C280.654 121.622 280.844 121.8 281.021 122.002C281.12 122.119 281.196 122.255 281.242 122.401C281.289 122.548 281.307 122.702 281.294 122.855C281.281 123.008 281.238 123.157 281.167 123.293C281.096 123.429 280.999 123.55 280.882 123.649C280.672 123.825 280.408 123.924 280.134 123.928C279.965 123.929 279.797 123.891 279.644 123.819C279.49 123.747 279.355 123.641 279.247 123.51C278.824 123.016 278.329 122.589 277.778 122.243C278.079 122.489 278.363 122.756 278.627 123.041C278.845 123.26 278.967 123.556 278.967 123.865C278.967 124.173 278.845 124.47 278.627 124.688C278.411 124.883 278.131 124.991 277.841 124.992C277.679 124.993 277.518 124.959 277.37 124.894C277.221 124.829 277.088 124.732 276.98 124.612C276.137 123.748 275.092 123.108 273.939 122.75L271.887 116.251Z" fill="#F5BB95"/>
<path d="M172.731 107.933C163.396 101.639 144.879 89.1848 135.579 83.1578C130.813 80.0693 130.813 75.8364 130.813 73.0701V39.7408C130.791 38.2239 131.068 36.7166 131.629 35.2969C141.816 42.1072 178.401 66.4042 178.401 66.4042V110.049C178.401 110.049 176.196 110.271 172.731 107.933Z" fill="url(#paint20_linear_1509_5673)"/>
<path d="M182.049 109.334C184.633 107.667 188.058 105.445 190.321 103.856C193.303 101.773 192.824 99.4848 192.824 97.8739V61.3727C192.824 58.5953 192.072 57.3398 192.072 57.3398L178.402 66.4554V110.1C178.402 110.1 180.03 110.617 182.049 109.334Z" fill="url(#paint21_linear_1509_5673)"/>
<path d="M145.259 25.0117C145.259 25.0117 138.229 29.9333 134.513 32.2331C133.317 33.0416 132.331 34.1 131.631 35.3271C143.299 43.104 178.391 66.4678 178.391 66.4678L192.072 57.3412C191.558 56.3395 190.772 55.4864 189.797 54.8692C178.473 47.0257 145.259 25.0117 145.259 25.0117Z" fill="url(#paint22_linear_1509_5673)"/>
<path d="M160.808 74.2057C160.808 70.1617 156.619 63.8347 153.142 61.5461C149.664 59.2575 145.423 59.9185 145.423 63.9569C145.423 66.8232 147.348 70.5339 149.752 73.3113C149.618 77.4831 149.548 79.5717 149.408 83.7434C152.15 85.5599 153.585 86.4875 156.45 88.3984V77.6831C158.9 78.1497 160.808 77.0776 160.808 74.2057Z" fill="#594E83"/>
<path d="M179.488 61.0789C177.563 61.0789 175.987 60.3013 175.987 59.3014V38.5872C175.987 27.9496 170.737 19.9617 160.352 14.8345C157.773 13.568 151.601 12.0237 149.028 13.618C148.678 13.8346 147.605 14.4957 147.774 17.3898V17.5953L147.704 32.238V34.5266C147.704 35.2043 146.304 35.9153 144.203 35.9153C142.535 35.9153 140.703 34.721 140.703 34.5655V32.1991C140.703 27.3552 140.726 22.5095 140.773 17.662C140.487 12.1515 143.025 9.39628 145.213 8.04089C151.204 4.36355 160.679 7.54095 163.526 8.94633C176.215 15.2122 182.918 25.461 182.918 38.5817V59.1347C182.971 60.9234 179.488 61.0789 179.488 61.0789Z" fill="url(#paint23_linear_1509_5673)"/>
<defs>
<linearGradient id="paint0_linear_1509_5673" x1="365.14" y1="325.431" x2="242.369" y2="259.884" gradientUnits="userSpaceOnUse">
<stop stop-color="#30338C"/>
<stop offset="0.84" stop-color="#6E6AAB"/>
<stop offset="1" stop-color="#7A75B1"/>
</linearGradient>
<linearGradient id="paint1_linear_1509_5673" x1="239.33" y1="427.944" x2="239.33" y2="257.325" gradientUnits="userSpaceOnUse">
<stop stop-color="#9186BB"/>
<stop offset="1" stop-color="#C7C4E1"/>
</linearGradient>
<linearGradient id="paint2_linear_1509_5673" x1="333.748" y1="161.511" x2="211.826" y2="158.648" gradientUnits="userSpaceOnUse">
<stop stop-color="#786FAD"/>
<stop offset="1" stop-color="#B2B3D7"/>
</linearGradient>
<linearGradient id="paint3_linear_1509_5673" x1="304.648" y1="181.618" x2="281.287" y2="169.152" gradientUnits="userSpaceOnUse">
<stop stop-color="#30338C"/>
<stop offset="0.84" stop-color="#6E6AAB"/>
<stop offset="1" stop-color="#7A75B1"/>
</linearGradient>
<linearGradient id="paint4_linear_1509_5673" x1="249.541" y1="193.59" x2="249.541" y2="170.596" gradientUnits="userSpaceOnUse">
<stop stop-color="#9186BB"/>
<stop offset="1" stop-color="#C7C4E1"/>
</linearGradient>
<linearGradient id="paint5_linear_1509_5673" x1="313.693" y1="158.486" x2="230.854" y2="156.535" gradientUnits="userSpaceOnUse">
<stop stop-color="#9186BB"/>
<stop offset="1" stop-color="#C7C4E1"/>
</linearGradient>
<linearGradient id="paint6_linear_1509_5673" x1="258.888" y1="282.397" x2="227.179" y2="294.331" gradientUnits="userSpaceOnUse">
<stop offset="0.07" stop-color="#30338C"/>
<stop offset="0.42" stop-color="#52519D"/>
<stop offset="0.79" stop-color="#6F6BAB"/>
<stop offset="1" stop-color="#7A75B1"/>
</linearGradient>
<linearGradient id="paint7_linear_1509_5673" x1="223.735" y1="308.076" x2="258.181" y2="330.753" gradientUnits="userSpaceOnUse">
<stop offset="0.13" stop-color="#30338C"/>
<stop offset="0.45" stop-color="#52519D"/>
<stop offset="0.8" stop-color="#6F6BAB"/>
<stop offset="1" stop-color="#7A75B1"/>
</linearGradient>
<linearGradient id="paint8_linear_1509_5673" x1="222.379" y1="309.609" x2="222.379" y2="243.556" gradientUnits="userSpaceOnUse">
<stop offset="0.07" stop-color="#30338C"/>
<stop offset="0.42" stop-color="#52519D"/>
<stop offset="0.79" stop-color="#6F6BAB"/>
<stop offset="1" stop-color="#7A75B1"/>
</linearGradient>
<linearGradient id="paint9_linear_1509_5673" x1="90.9429" y1="8.69664" x2="89.562" y2="8.70387" gradientUnits="userSpaceOnUse">
<stop stop-color="#30338C"/>
<stop offset="0.84" stop-color="#6E6AAB"/>
<stop offset="1" stop-color="#7A75B1"/>
</linearGradient>
<linearGradient id="paint10_linear_1509_5673" x1="171.747" y1="74.1278" x2="171.101" y2="74.1312" gradientUnits="userSpaceOnUse">
<stop stop-color="#30338C"/>
<stop offset="0.84" stop-color="#6E6AAB"/>
<stop offset="1" stop-color="#7A75B1"/>
</linearGradient>
<linearGradient id="paint11_linear_1509_5673" x1="180.746" y1="310.8" x2="147.503" y2="293.052" gradientUnits="userSpaceOnUse">
<stop stop-color="#30338C"/>
<stop offset="0.84" stop-color="#6E6AAB"/>
<stop offset="1" stop-color="#7A75B1"/>
</linearGradient>
<linearGradient id="paint12_linear_1509_5673" x1="76.587" y1="328.637" x2="76.587" y2="273.617" gradientUnits="userSpaceOnUse">
<stop stop-color="#9186BB"/>
<stop offset="1" stop-color="#C7C4E1"/>
</linearGradient>
<linearGradient id="paint13_linear_1509_5673" x1="194.557" y1="261.367" x2="26.3571" y2="257.402" gradientUnits="userSpaceOnUse">
<stop stop-color="#786FAD"/>
<stop offset="1" stop-color="#B2B3D7"/>
</linearGradient>
<linearGradient id="paint14_linear_1509_5673" x1="214.563" y1="246.036" x2="180.586" y2="227.894" gradientUnits="userSpaceOnUse">
<stop stop-color="#30338C"/>
<stop offset="0.84" stop-color="#6E6AAB"/>
<stop offset="1" stop-color="#7A75B1"/>
</linearGradient>
<linearGradient id="paint15_linear_1509_5673" x1="139.931" y1="278.382" x2="139.931" y2="177.971" gradientUnits="userSpaceOnUse">
<stop stop-color="#9186BB"/>
<stop offset="1" stop-color="#C7C4E1"/>
</linearGradient>
<linearGradient id="paint16_linear_1509_5673" x1="198.801" y1="160.829" x2="87.1785" y2="158.207" gradientUnits="userSpaceOnUse">
<stop stop-color="#B2B3D7"/>
<stop offset="1" stop-color="#786FAD"/>
</linearGradient>
<linearGradient id="paint17_linear_1509_5673" x1="172.073" y1="171.003" x2="111.695" y2="171.003" gradientUnits="userSpaceOnUse">
<stop stop-color="#827DB6"/>
<stop offset="1" stop-color="#B2B3D7"/>
</linearGradient>
<linearGradient id="paint18_linear_1509_5673" x1="177.125" y1="242.898" x2="171.146" y2="136.432" gradientUnits="userSpaceOnUse">
<stop stop-color="#30338C"/>
<stop offset="0.27" stop-color="#404194"/>
<stop offset="0.81" stop-color="#6966A9"/>
<stop offset="1" stop-color="#7A75B1"/>
</linearGradient>
<linearGradient id="paint19_linear_1509_5673" x1="176.327" y1="114.715" x2="111.692" y2="114.715" gradientUnits="userSpaceOnUse">
<stop stop-color="#B2B3D7"/>
<stop offset="1" stop-color="#827DB6"/>
</linearGradient>
<linearGradient id="paint20_linear_1509_5673" x1="176.931" y1="105.561" x2="140.001" y2="44.4505" gradientUnits="userSpaceOnUse">
<stop stop-color="#9186BB"/>
<stop offset="1" stop-color="#C7C4E1"/>
</linearGradient>
<linearGradient id="paint21_linear_1509_5673" x1="194.44" y1="104.245" x2="178.427" y2="64.8273" gradientUnits="userSpaceOnUse">
<stop stop-color="#30338C"/>
<stop offset="0.04" stop-color="#35378E"/>
<stop offset="0.29" stop-color="#53529D"/>
<stop offset="0.54" stop-color="#6965A8"/>
<stop offset="0.78" stop-color="#7671AF"/>
<stop offset="1" stop-color="#7A75B1"/>
</linearGradient>
<linearGradient id="paint22_linear_1509_5673" x1="192.072" y1="45.7481" x2="131.631" y2="45.7481" gradientUnits="userSpaceOnUse">
<stop stop-color="#C7C4E1"/>
<stop offset="1" stop-color="#9186BB"/>
</linearGradient>
<linearGradient id="paint23_linear_1509_5673" x1="149.028" y1="51.4079" x2="174.498" y2="17.9649" gradientUnits="userSpaceOnUse">
<stop stop-color="#181B5E"/>
<stop offset="0.27" stop-color="#3C3C7D"/>
<stop offset="0.58" stop-color="#5E5B99"/>
<stop offset="0.83" stop-color="#736EAB"/>
<stop offset="1" stop-color="#7A75B1"/>
</linearGradient>
</defs>
</svg>
