<svg width="462" height="450" viewBox="0 0 462 450" fill="none" xmlns="http://www.w3.org/2000/svg">
<g clip-path="url(#clip0_1509_5305)">
<path d="M311.025 364.795C311.025 364.795 323.343 359.65 323.343 356.134V88.6477C323.387 85.4212 322.81 82.2175 321.646 79.2188L311.025 85.159V364.795Z" fill="url(#paint0_linear_1509_5305)"/>
<path d="M311.025 364.798L211.718 293.435V13.7852L311.025 85.1489V364.798Z" fill="url(#paint1_linear_1509_5305)"/>
<g style="mix-blend-mode:multiply">
<path d="M311.025 346.879L211.718 275.501V31.6953L311.025 103.073V346.879Z" fill="#594E83"/>
</g>
<g style="mix-blend-mode:multiply">
<path d="M311.025 337.443L211.718 266.079V41.1445L311.025 112.522V337.443Z" fill="#594E83"/>
</g>
<path d="M227.812 9.68565C249.592 25.2838 306.616 66.2594 315.657 72.7519C318.066 74.4519 320.104 76.6442 321.645 79.1906L311.024 85.1443L211.717 13.7536C211.717 13.7536 223.114 6.3451 227.812 9.68565Z" fill="url(#paint2_linear_1509_5305)"/>
<g style="mix-blend-mode:multiply">
<path d="M320.133 114.672L314.25 118.901V141.086L320.133 136.857V114.672Z" fill="#594E83"/>
</g>
<g style="mix-blend-mode:multiply">
<path d="M320.133 143L314.25 147.23V202.241L320.133 198.011V143Z" fill="#594E83"/>
</g>
<g style="mix-blend-mode:multiply">
<path d="M312.616 73.2129C312.907 73.3946 313.188 73.5924 313.458 73.8056C313.878 74.0933 314.218 74.4866 314.447 74.9477C314.675 75.4088 314.784 75.9222 314.763 76.4388C314.742 76.9554 314.591 77.4577 314.326 77.8977C314.061 78.3376 313.689 78.7003 313.248 78.9511C312.206 79.7758 310.926 80.2232 309.609 80.2232C308.292 80.2232 307.012 79.7758 305.97 78.9511C304.588 77.9948 305.272 78.4393 305.272 78.4393C305.272 78.4393 301.956 76.0012 305.917 73.1995C306.898 72.4929 308.069 72.1148 309.269 72.1172C310.468 72.1196 311.638 72.5024 312.616 73.2129Z" fill="#47417D"/>
</g>
<g style="mix-blend-mode:multiply">
<path d="M301.275 67.6067L301.736 67.93C301.969 68.0908 302.159 68.3102 302.286 68.5673C302.413 68.8244 302.473 69.1106 302.461 69.3985C302.45 69.6864 302.366 69.9664 302.218 70.2116C302.07 70.4568 301.863 70.6591 301.617 70.7991C301.037 71.2579 300.324 71.5067 299.59 71.5067C298.857 71.5067 298.144 71.2579 297.564 70.7991C296.787 70.2603 297.182 70.5162 297.182 70.5162C297.182 70.5162 295.326 69.1692 297.537 67.5933C298.085 67.1998 298.739 66.9898 299.408 66.9922C300.078 66.9946 300.73 67.2093 301.275 67.6067Z" fill="#47417D"/>
</g>
<g style="mix-blend-mode:multiply">
<path d="M277.322 334.923L245.409 312.199V304.871L277.322 327.595V334.923Z" fill="#47417D"/>
</g>
<g style="mix-blend-mode:multiply">
<path d="M286.67 80.8499L236.082 44.6966V37.3555L286.67 73.5088V80.8499Z" fill="#47417D"/>
</g>
<g style="mix-blend-mode:soft-light" opacity="0.39">
<path d="M311.025 217.703V337.437L227.616 277.496L311.025 217.703Z" fill="white"/>
</g>
<path style="mix-blend-mode:screen" d="M183.62 38.6875L296.443 118.685V306.551L183.62 225.381V38.6875Z" fill="url(#paint3_linear_1509_5305)"/>
<path d="M212.244 88.4453L228.773 100.312V106.549L212.244 94.6819V88.4453Z" fill="white"/>
<path d="M208.258 85.5788V91.8154L203.599 88.4749V82.2383L208.258 85.5788Z" fill="white"/>
<path d="M231.616 102.348L277.848 135.551V141.801L231.616 108.598V102.348Z" fill="white"/>
<path d="M212.244 104.707L228.773 116.574V122.811L212.244 110.944V104.707Z" fill="white"/>
<path d="M231.616 118.605L277.848 151.809V158.059L231.616 124.856V118.605Z" fill="white"/>
<path d="M231.616 134.875L277.848 168.078V174.315L231.616 141.112V134.875Z" fill="white"/>
<path d="M212.244 136.297L228.773 148.164V154.4L212.244 142.547V136.297Z" fill="white"/>
<path d="M208.258 133.436V139.673L203.599 136.319V130.082L208.258 133.436Z" fill="white"/>
<path d="M231.616 150.211L277.848 183.414V189.651L231.616 156.448V150.211Z" fill="white"/>
<path d="M212.244 152.547L228.773 164.414V170.65L212.244 158.783V152.547Z" fill="white"/>
<path d="M231.616 166.465L277.848 199.668V205.905L231.616 172.701V166.465Z" fill="white"/>
<path d="M231.616 182.723L277.848 215.926V222.163L231.616 188.959V182.723Z" fill="white"/>
<path d="M212.244 184.152L228.773 196.019V202.256L212.244 190.389V184.152Z" fill="white"/>
<path d="M208.258 181.295V187.532L203.599 184.178V177.941L208.258 181.295Z" fill="white"/>
<path d="M231.616 198.066L277.848 231.256V237.506L231.616 204.303V198.066Z" fill="white"/>
<path d="M212.244 200.41L228.773 212.277V218.514L212.244 206.647V200.41Z" fill="white"/>
<path d="M231.616 214.324L277.848 247.514V253.764L231.616 220.561V214.324Z" fill="white"/>
<path d="M231.616 230.586L277.848 263.789V270.012L231.616 236.823V230.586Z" fill="white"/>
<path d="M197.099 349.131C197.099 332.226 183.728 301.986 166.33 289.54C157.118 282.967 149.222 282.387 143.76 286.172L163.738 271.611C163.948 271.45 164.172 271.288 164.382 271.153C169.857 267.436 177.753 268.055 186.847 274.588C204.245 287.075 217.629 317.275 217.629 334.179C217.629 342.827 214.378 350.168 208.969 353.778L189.229 368.083L189.097 368.177C194.125 364.419 197.099 357.348 197.099 349.131Z" fill="url(#paint4_linear_1509_5305)"/>
<path d="M135.874 305.84C135.874 327.055 149.363 353.429 166.761 365.916C184.159 378.403 197.029 366.361 197.029 349.065C197.029 332.16 183.658 301.92 166.261 289.474C148.863 277.028 135.874 286.093 135.874 305.84Z" fill="url(#paint5_linear_1509_5305)"/>
<path d="M141.522 309.863C141.522 327.118 152.498 348.576 166.645 358.732C180.792 368.888 191.373 359.096 191.373 345.087C191.373 331.348 180.49 306.778 166.369 296.595C152.248 286.412 141.522 293.807 141.522 309.863Z" fill="url(#paint6_linear_1509_5305)"/>
<g style="mix-blend-mode:multiply">
<path d="M155.42 284.211L176.095 269.395C177.178 269.654 178.242 269.992 179.279 270.405L158.631 285.222C157.585 284.808 156.512 284.471 155.42 284.211Z" fill="#594E83"/>
<path d="M190.057 277.099L169.434 291.916C168.724 291.296 167.987 290.744 167.263 290.192L187.872 275.375C188.57 275.941 189.32 276.48 190.057 277.099Z" fill="#594E83"/>
<path d="M198.141 285.735L177.545 300.551C176.992 299.851 176.439 299.204 175.86 298.477L196.456 283.66C197.022 284.32 197.575 285.021 198.141 285.735Z" fill="#594E83"/>
<path d="M204.77 295.417L184.187 310.234C183.739 309.466 183.266 308.712 182.779 307.958L203.361 293.141C203.835 293.895 204.322 294.649 204.77 295.417Z" fill="#594E83"/>
<path d="M210.248 305.928L189.692 320.745C189.297 319.923 188.928 319.101 188.534 318.266L209.103 303.449C209.498 304.266 209.88 305.093 210.248 305.928Z" fill="#594E83"/>
<path d="M214.576 317.264L194.02 332.081C193.743 331.192 193.454 330.317 193.151 329.387L213.708 314.57C214.023 315.446 214.3 316.375 214.576 317.264Z" fill="#594E83"/>
<path d="M217.326 329.754L196.796 344.49C196.678 343.52 196.546 342.523 196.375 341.5L216.905 326.75C217.089 327.787 217.208 328.77 217.326 329.754Z" fill="#594E83"/>
<path d="M215.431 345.551L195.032 360.193C195.585 358.828 196.025 357.417 196.348 355.977L216.812 341.281C216.471 342.742 216.009 344.171 215.431 345.551Z" fill="#594E83"/>
</g>
<g style="mix-blend-mode:multiply">
<path d="M152.171 321.263C150.785 319.942 149.787 318.25 149.292 316.379C148.797 314.508 148.823 312.533 149.368 310.676C149.803 309.233 150.556 307.912 151.569 306.814C152.582 305.717 153.828 304.872 155.211 304.345C156.218 303.976 157.29 303.834 158.356 303.927V300.52L162.186 303.214V305.584L164.015 306.85V304.493L168.41 307.551V309.895L181.229 318.744V326.449L177.649 323.957V346.439L181.229 348.944V356.783L177.649 354.278L174.161 351.8L168.397 347.759V350.709L164.002 347.584V344.687L162.172 343.34V346.223L158.343 343.529V340.687L153.079 337.023C151.868 336.143 150.865 334.995 150.145 333.665C149.426 332.335 149.007 330.857 148.92 329.339C148.832 327.821 149.079 326.303 149.642 324.896C150.205 323.489 151.069 322.229 152.171 321.209V321.263ZM159.79 311.713C159.447 311.446 159.053 311.257 158.632 311.159C158.212 311.06 157.776 311.055 157.354 311.143C156.932 311.231 156.532 311.41 156.183 311.669C155.834 311.927 155.543 312.259 155.329 312.642C155.123 313.386 155.137 314.175 155.372 314.909C155.606 315.644 156.05 316.289 156.645 316.764L166.779 323.849L170.661 326.543V319.162C165.844 315.768 160.856 312.346 159.79 311.713ZM156.698 331.824L170.713 341.603V334.316L165.199 330.463C162.646 328.699 160.514 327.23 159.843 326.746C159.497 326.476 159.1 326.285 158.677 326.184C158.254 326.084 157.815 326.075 157.388 326.161C156.962 326.246 156.558 326.423 156.203 326.679C155.848 326.935 155.55 327.265 155.329 327.648C155.121 328.407 155.144 329.212 155.393 329.958C155.642 330.703 156.106 331.354 156.724 331.824H156.698Z" fill="#594E83"/>
</g>
<path style="mix-blend-mode:screen" d="M217.613 259.988V336.834C217.613 336.834 217.613 336.619 217.547 336.228C217.074 343.974 213.942 350.466 208.954 353.739L189.213 368.044C183.765 372.18 175.882 372.368 166.841 365.835C149.443 353.349 135.954 326.974 135.954 305.759C136.326 311.489 138.86 316.846 143.019 320.7C147.179 324.553 152.639 326.601 158.246 326.41C163.853 326.219 169.169 323.806 173.069 319.678C176.97 315.551 179.151 310.033 179.151 304.291C179.151 298.549 176.97 293.031 173.069 288.904C169.169 284.777 163.853 282.363 158.246 282.172C152.639 281.982 147.179 284.029 143.019 287.883C138.86 291.736 136.326 297.093 135.954 302.823V204.762L217.613 259.988Z" fill="url(#paint7_linear_1509_5305)"/>
<path d="M149.089 193.716C149.089 176.825 135.705 146.571 118.307 134.125C109.095 127.565 101.198 126.972 95.7369 130.757L115.701 116.264L116.346 115.806C121.821 112.088 129.73 112.708 138.824 119.241C156.222 131.727 169.605 161.94 169.605 178.832C169.605 187.493 166.355 194.821 160.933 198.444L141.192 212.736L141.061 212.843C146.114 209.045 149.089 202 149.089 193.716Z" fill="url(#paint8_linear_1509_5305)"/>
<path d="M87.8512 150.492C87.8512 171.708 101.34 198.082 118.738 210.568C136.136 223.055 149.086 211.013 149.086 193.717C149.086 176.826 135.702 146.573 118.304 134.126C100.906 121.68 87.8512 130.746 87.8512 150.492Z" fill="url(#paint9_linear_1509_5305)"/>
<path d="M93.5141 154.528C93.5141 171.77 104.477 193.228 118.637 203.384C132.797 213.54 143.312 203.748 143.312 189.685C143.312 175.932 132.429 151.363 118.308 141.193C104.187 131.023 93.5141 138.459 93.5141 154.528Z" fill="url(#paint10_linear_1509_5305)"/>
<g style="mix-blend-mode:multiply">
<path d="M107.398 128.883L128.073 114.066C129.157 114.324 130.221 114.662 131.258 115.077L110.609 129.894C109.566 129.474 108.492 129.136 107.398 128.883Z" fill="#594E83"/>
<path d="M142.014 121.757L121.405 136.574C120.681 135.954 119.944 135.389 119.22 134.836L139.829 120.02C140.566 120.599 141.303 121.151 142.014 121.757Z" fill="#594E83"/>
<path d="M150.119 130.393L129.523 145.209C128.971 144.509 128.418 143.795 127.839 143.122L148.435 128.305C149.001 128.978 149.566 129.692 150.119 130.393Z" fill="#594E83"/>
<path d="M156.748 140.077L136.179 154.894C135.718 154.126 135.244 153.372 134.757 152.618L155.34 137.801C155.84 138.555 156.301 139.309 156.748 140.077Z" fill="#594E83"/>
<path d="M162.227 150.598L141.67 165.415C141.289 164.593 140.907 163.771 140.512 162.95L161.082 148.133C161.476 148.954 161.858 149.776 162.227 150.598Z" fill="#594E83"/>
<path d="M166.555 161.9L145.998 176.717C145.726 175.819 145.437 174.921 145.13 174.023L165.686 159.273C166.002 160.162 166.278 161.051 166.555 161.9Z" fill="#594E83"/>
<path d="M169.305 174.41L148.775 189.146C148.669 188.176 148.525 187.18 148.354 186.156L168.884 171.406C169.002 172.443 169.199 173.427 169.305 174.41Z" fill="#594E83"/>
<path d="M167.409 190.184L147.011 204.839C147.561 203.469 148.001 202.054 148.327 200.61L168.791 185.914C168.464 187.379 168.001 188.809 167.409 190.184Z" fill="#594E83"/>
</g>
<g style="mix-blend-mode:multiply">
<path d="M104.147 165.939C102.76 164.616 101.762 162.922 101.267 161.048C100.772 159.175 100.798 157.197 101.344 155.338C101.78 153.897 102.534 152.579 103.547 151.483C104.56 150.388 105.806 149.545 107.187 149.021C108.192 148.642 109.266 148.495 110.333 148.59V145.195L114.162 147.889V150.26L115.991 151.526V149.155L120.387 152.213V154.557L133.205 163.42V171.125L129.625 168.633V191.114L133.205 193.62V201.473L129.625 198.954L126.138 196.475L120.374 192.434V195.384L115.978 192.273V189.377L114.149 188.03V190.912L110.319 188.218V185.376L105.055 181.726C103.842 180.849 102.836 179.705 102.114 178.376C101.391 177.048 100.97 175.57 100.882 174.052C100.793 172.535 101.04 171.016 101.603 169.609C102.166 168.203 103.031 166.944 104.134 165.926L104.147 165.939ZM111.807 156.389C109.53 155.042 107.635 156.389 107.345 157.318C107.15 158.05 107.171 158.824 107.405 159.543C107.64 160.262 108.077 160.894 108.661 161.359L118.795 168.444L122.677 171.138V163.743C117.821 160.416 112.833 156.995 111.807 156.375V156.389ZM108.701 176.486L122.716 186.265V179.032L117.215 175.179C114.649 173.415 112.517 171.947 111.846 171.462C111.502 171.191 111.106 170.998 110.683 170.896C110.261 170.794 109.822 170.785 109.396 170.871C108.97 170.956 108.567 171.134 108.213 171.391C107.86 171.649 107.564 171.98 107.345 172.364C107.142 173.109 107.163 173.899 107.405 174.632C107.646 175.365 108.098 176.006 108.701 176.473V176.486Z" fill="#594E83"/>
</g>
<path style="mix-blend-mode:screen" d="M169.605 104.637V181.496L169.527 180.877C169.053 188.635 165.921 195.115 160.933 198.388L141.192 212.679C135.744 216.801 127.874 216.99 118.82 210.457C101.422 197.97 87.9329 171.596 87.9329 150.381C88.305 156.028 90.8064 161.307 94.9092 165.102C99.0119 168.897 104.395 170.912 109.922 170.722C115.449 170.531 120.687 168.15 124.531 164.081C128.375 160.012 130.524 154.573 130.524 148.913C130.524 143.252 128.375 137.814 124.531 133.745C120.687 129.675 115.449 127.294 109.922 127.104C104.395 126.913 99.0119 128.928 94.9092 132.723C90.8064 136.519 88.305 141.797 87.9329 147.444V49.4102L169.605 104.637Z" fill="url(#paint11_linear_1509_5305)"/>
<path d="M45.6484 263.977C45.6484 266.145 40.7002 317.075 38.713 332.498C36.7916 347.382 32.5803 384.667 32.5803 398.191C32.5803 398.972 29.843 401.128 25.3948 402.017C22.368 402.623 17.5776 399.956 17.5776 398.932L18.4857 263.977H45.6484Z" fill="#09003C"/>
<path d="M28.6456 395.242H40.0293C53.6238 395.242 43.9773 406.018 34.1861 406.018H20.9337C20.9337 406.018 17.6042 406.018 17.6042 403.526V395.242H28.6456Z" fill="#09003C"/>
<path d="M70.4824 263.977C70.3903 268.018 70.4824 274.524 70.4824 283.468C70.2192 304 68.8396 324.502 66.3501 344.877C64.4155 359.775 57.4801 397.046 57.4801 410.57C57.4801 411.351 54.7427 413.506 50.2945 414.395C47.2677 415.002 42.4773 412.335 42.4773 411.311L42.7406 263.977H70.4824Z" fill="#09003C"/>
<path d="M53.5412 407.617H64.9117C78.4931 407.617 68.794 418.393 59.0422 418.393H45.803C45.803 418.393 42.4734 418.393 42.4734 415.901V407.617H53.5412Z" fill="#09003C"/>
<path d="M57.4651 135.348C57.4651 135.348 57.623 153.667 57.623 156.576C57.623 160.873 48.4109 155.229 45.5814 153.317C35.6191 146.38 36.0139 144.265 35.8165 142.541V135.415L57.4651 135.348Z" fill="#E39E76"/>
<path d="M45.2322 97.8711C35.3094 97.8711 28.4529 107.044 28.4529 117.187V123.922C28.4529 133.755 40.4945 144.127 50.3515 144.127H58.7346C61.3666 144.127 62.051 141.514 62.051 140.301V133.243C62.051 131.681 62.8932 131.088 63.1696 131.007C64.8804 130.428 63.8145 129.108 63.5776 128.448C62.8016 126.536 62.2879 124.523 62.051 122.467C61.722 119.342 62.3405 115.382 62.051 113.348C60.9324 105.711 55.1287 97.8711 45.2322 97.8711Z" fill="#F5BB95"/>
<path d="M28.4487 117.189C28.4487 107.046 34.5156 97.873 45.3465 97.873C49.5168 97.8087 53.5564 99.3616 56.6541 102.22C59.7519 105.078 61.6785 109.03 62.0469 113.283C61.9679 113.161 56.0721 110.198 56.0721 120.449C56.0721 127.507 56.0721 130.996 56.0721 130.996H53.5322C53.599 129.705 53.3215 128.42 52.7294 127.278C51.5186 124.786 49.3867 123.345 47.9785 124.059C46.5704 124.772 46.4256 127.386 47.6495 129.878C48.0949 130.829 48.7317 131.674 49.5183 132.356C51.2949 134.74 42.0169 141.314 39.4902 140.505C39.4902 140.505 28.475 134.228 28.475 123.883L28.4487 117.189Z" fill="#09003C"/>
<path d="M35.7653 141.211C35.1441 141.456 34.6243 141.912 34.2935 142.504C33.9627 143.095 33.8411 143.785 33.9491 144.457C33.9491 144.457 47.7148 154.843 61.1777 164.797L57.6244 156.324L35.7653 141.211Z" fill="#B2AFD4"/>
<path d="M33.9486 144.453C33.9486 144.453 58.1108 161.708 63.6908 166.8C66.6782 169.494 68.5732 181.617 68.5732 199.586C68.5732 204.489 71.021 247.862 72.1002 261.817C72.6266 268.646 73.2846 271.246 67.4151 273.037C60.9403 275.085 50.57 277.375 42.4764 277.375C33.9749 277.375 23.9204 274.681 18.4721 273.172C15.84 272.485 14.3529 268.228 15.5242 262.827C18.5247 249.034 24.131 218.996 24.131 208.206C24.131 189.47 24.9864 178.761 24.131 166.934C22.9203 150.434 30.5401 146.204 33.9486 144.453Z" fill="#25216F"/>
<path d="M57.6265 156.578C57.6265 156.578 62.0483 158.168 63.6934 166.802L61.1797 164.795C61.1797 164.795 58.9293 159.353 57.6265 156.578Z" fill="#191454"/>
<path d="M47.2183 231.081C47.7683 233.597 49.2724 235.787 51.3998 237.169C53.5271 238.551 56.1035 239.011 58.5624 238.449C61.0165 237.882 63.1516 236.344 64.5007 234.171C65.8497 231.997 66.3029 229.366 65.7611 226.851L57.628 180.07C55.8646 169.442 49.8503 164.418 42.6253 166.088C37.5192 167.26 30.9522 172.352 34.3212 183.882L47.2183 231.081Z" fill="#09003C"/>
<path d="M70.4814 283.467C72.3897 288.478 86.1816 282.039 84.2865 277.029L66.0859 226.84C65.1719 224.438 63.364 222.506 61.0593 221.468C58.7546 220.43 56.1415 220.371 53.7942 221.304C52.6313 221.765 51.5689 222.457 50.6675 223.34C49.7662 224.222 49.0437 225.278 48.5413 226.446C48.0389 227.615 47.7666 228.873 47.7398 230.149C47.713 231.426 47.9324 232.695 48.3853 233.884L70.4814 283.467Z" fill="#09003C"/>
<path d="M59.4154 366.34L120.742 322.388V278.422L59.4154 322.374V366.34Z" fill="#8680B6"/>
<path d="M59.4141 366.346L52.7418 361.47V317.504L59.4141 322.38V366.346Z" fill="#766FAC"/>
<path d="M114.07 273.535L120.742 278.438L59.4154 322.391L52.7431 317.515L114.07 273.535Z" fill="#B2AFD4"/>
<path d="M96.4863 293.367L93.3542 291.077V286.376L96.4863 284.113V293.367Z" fill="#766FAC"/>
<path d="M100.197 277.281V290.819L96.4861 293.364V284.111L75.8113 299.035V308.545L72.1133 311.091V301.702L72.1001 297.553L100.197 277.281Z" fill="#9490C1"/>
<path d="M68.9699 295.266L72.1152 297.555V311.093L68.9699 308.803V295.266Z" fill="#766FAC"/>
<path d="M97.0651 274.992L100.197 277.282L72.1001 297.554L68.9679 295.264L97.0651 274.992Z" fill="#B2AFD4"/>
<path d="M59.4154 336.329L94.9218 332.369L120.742 292.377V278.422L59.4154 322.374V336.329Z" fill="#A39DC8"/>
<path d="M83.7887 280.047C83.7887 280.047 90.8426 286.526 88.1052 290.473C85.3679 294.419 83.7624 295.268 80.2091 295.861C80.2091 295.861 80.1038 289.638 75.6688 290.473C74.9333 289.826 74.3319 289.035 73.9001 288.147C73.4684 287.259 73.2151 286.291 73.1552 285.3C75.1808 285.197 77.1656 284.679 78.9921 283.777C80.8186 282.874 82.4497 281.606 83.7887 280.047Z" fill="#F5BB95"/>
<path d="M372.184 333.469H372.197L423.982 370.713L372.197 407.904H372.184L320.398 370.713L372.184 333.469Z" stroke="url(#paint12_linear_1509_5305)" stroke-width="1.12255" stroke-linecap="round" stroke-linejoin="round"/>
<path d="M372.184 378.215H372.197L409.059 404.724L372.197 431.192H372.184L335.335 404.724L372.184 378.215Z" stroke="url(#paint13_linear_1509_5305)" stroke-width="1.12255" stroke-linecap="round" stroke-linejoin="round"/>
<path d="M372.195 418.559L389.777 431.207L372.195 443.842L354.6 431.207L372.195 418.559Z" stroke="url(#paint14_linear_1509_5305)" stroke-width="1.12255" stroke-linecap="round" stroke-linejoin="round"/>
<path d="M372.194 388.514L442.707 337.88V329.098L372.194 379.731V388.514Z" fill="url(#paint15_linear_1509_5305)"/>
<path d="M372.193 388.514L301.667 337.88V329.098L372.193 379.731V388.514Z" fill="url(#paint16_linear_1509_5305)"/>
<path d="M372.194 278.422L442.707 329.136L372.194 379.77L301.668 329.136L372.194 278.422Z" fill="url(#paint17_linear_1509_5305)"/>
<g style="mix-blend-mode:multiply" opacity="0.8">
<path d="M372.195 285.527L432.838 329.143L372.195 372.678L311.553 329.143L372.195 285.527Z" fill="#3A3469"/>
</g>
<path d="M372.786 347.389C374.069 347.933 375.465 348.136 376.845 347.981C378.225 347.825 379.545 347.316 380.682 346.5C384.814 343.523 393.447 338.014 393.447 337.179V331.238H379.747C379.747 331.238 379.747 332.141 379.747 332.491C379.8 333.787 379.393 335.06 378.602 336.074C377.076 337.542 376.26 338.485 373.799 340.95C371.338 343.415 370.943 346.352 372.786 347.389Z" fill="#09003C"/>
<path d="M379.329 332.967C379.329 333.694 381.961 335.661 386.08 336.55C388.909 337.116 393.41 335.499 393.41 334.543C393.41 328.724 390.607 291.089 391.133 279.114C392.015 259.057 392.292 204.639 392.292 204.639L367.84 195.008C367.84 195.008 366.616 202.645 368.182 218.136C369.84 234.69 369.156 256.889 371.025 271.342C372.828 285.364 379.329 320.332 379.329 332.967Z" fill="#09003C"/>
<path d="M348.689 330.613C349.973 331.153 351.369 331.353 352.749 331.195C354.129 331.037 355.448 330.527 356.585 329.711C360.73 326.747 369.363 321.225 369.363 320.403V314.449H355.703C355.703 314.449 355.703 315.352 355.703 315.702C355.759 316.997 355.357 318.269 354.571 319.285C353.045 320.753 352.229 321.696 349.754 324.161C347.28 326.626 346.846 329.562 348.689 330.613Z" fill="#09003C"/>
<path d="M354.969 315.36C355.193 317.569 358.035 319.401 361.549 320.398C364.326 321.179 370.051 320.277 370.051 318.863C370.051 313.044 367.419 274.412 367.906 262.424C368.787 242.353 367.906 195.074 367.906 195.074L344.559 179.152C344.559 179.152 344.559 209.433 347.863 235.511C349.6 249.452 353.719 302.739 354.969 315.36Z" fill="#09003C"/>
<path d="M382.023 90.2337L356.835 89.668L361.283 131.896L382.023 90.2337Z" fill="#928CBE"/>
<path d="M356.838 89.668L361.299 131.896V191.339C361.299 191.339 361.299 199.583 354.969 197.643C347.494 195.353 343.638 188.052 343.519 184.847C342.769 164.184 342.769 164.534 342.769 128.475V99.8782L356.838 89.668Z" fill="#25216F"/>
<path d="M361.3 131.901L382.04 90.2383C390.581 96.3806 401.518 103.708 401.518 103.708L393.411 140.346L389.068 169.98C389.068 169.98 391.582 193.364 392.727 206.592C393.332 213.327 374.223 213.205 365.893 205.757C362.208 202.47 361.26 195.95 361.26 190.374L361.3 131.901Z" fill="#25216F"/>
<path d="M361.337 60.6728C363.633 59.6685 366.105 59.1551 368.601 59.1642C375.655 59.1642 380.551 65.8991 380.551 73.0921V82.6827C380.551 87.2894 370.72 94.9269 364.68 96.1526C363.906 96.37 363.084 96.3082 362.35 95.9775C361.617 95.4555 361.02 94.757 360.613 93.9436C360.145 92.6838 359.844 91.3655 359.718 90.0238L361.337 60.6728Z" fill="#E39E76"/>
<path d="M368.705 45.5859C377.365 45.5859 383.379 53.8161 383.379 62.6793V68.9563C383.379 78.8836 369.324 91.963 360.664 91.963C356.335 91.963 355.519 86.575 353.755 81.187C352.439 77.146 353.018 65.7774 353.018 60.9013C353.018 51.9842 360.046 45.5859 368.705 45.5859Z" fill="#F5BB95"/>
<path d="M380.548 82.6797C379.923 85.3533 378.376 87.7064 376.192 89.3069C372.336 92.4185 365.664 97.4832 362.348 96.0419L369.375 102.076C369.375 102.076 382.022 93.5365 382.022 89.5494C382.022 85.5623 382.193 84.0806 380.548 82.6797Z" fill="#B2AFD4"/>
<path d="M359.996 91.8563C360.261 93.4569 361.101 94.8983 362.352 95.8973L357.824 99.157L356.837 89.5664C357.602 90.6779 358.718 91.4864 359.996 91.8563Z" fill="#B2AFD4"/>
<path d="M360.786 101.392V97.1354L362.352 96.0039L367.484 100.409L364.102 103.763L360.786 101.392Z" fill="#191454"/>
<path d="M364.103 103.757L366.195 122.036L361.287 131.896L359.72 117.389L360.786 101.387L364.103 103.757Z" fill="#191454"/>
<g style="mix-blend-mode:multiply">
<path d="M375.471 130.244L386.895 93.7266L383.697 91.3828L361.285 131.9L375.471 130.244Z" fill="#191454"/>
</g>
<g style="mix-blend-mode:multiply">
<path d="M361.283 131.896L349.215 112.742L353.045 92.106L356.835 89.668L361.283 131.896Z" fill="#191454"/>
</g>
<path d="M361.285 131.901L374.09 128.978L386.895 93.727L382.025 90.2383L361.285 131.901Z" fill="#25216F"/>
<path d="M361.299 131.896L350.771 112.244L353.021 92.1195C354.168 91.1281 355.444 90.3032 356.811 89.668L361.299 131.896Z" fill="#25216F"/>
<path d="M325.607 152.173C330.964 134.15 341.044 106.011 342.939 100.758V164.403L335.162 166.787C327.305 169.05 322.646 162.181 325.607 152.173Z" fill="#1A1556"/>
<path d="M335.687 166.577L371.852 156.084L369.062 146.695L332.226 154.185L335.687 166.577Z" fill="#1A1556"/>
<path d="M352.034 159.043C352.034 159.043 344.427 150.126 342.822 152.308C343.073 150.479 343.721 148.73 344.717 147.19C346.599 144.658 349.336 144.671 352.192 146.705C355.048 148.739 356.877 150.005 356.877 150.005L352.034 159.043Z" fill="#F5BB95"/>
<path d="M352.033 159.363C352.033 159.363 366.97 169.142 378.827 174.517C382.091 175.998 385.697 173.816 387.487 170.678C394.515 158.42 410.333 110.79 401.516 103.759C394.186 97.9264 388.948 112.959 385.723 124.799C383.394 133.46 379.314 150.594 377.617 155.147C376.985 156.831 376.13 157.302 374.721 156.763C368.305 154.123 362.055 151.078 356.008 147.644C354.401 149.07 353.188 150.903 352.49 152.96C351.793 155.016 351.635 157.224 352.033 159.363Z" fill="#25216F"/>
<path d="M369.327 147.608C374.84 146.076 380.526 145.293 386.238 145.277C386.603 145.277 386.953 145.426 387.21 145.69C387.468 145.954 387.613 146.312 387.613 146.685C387.613 147.058 387.468 147.416 387.21 147.68C386.953 147.944 386.603 148.093 386.238 148.093C385.462 148.093 382.224 148.685 381.487 148.712C381.843 148.847 382.211 148.982 382.579 149.157C382.911 149.31 383.169 149.592 383.298 149.941C383.426 150.29 383.414 150.676 383.264 151.016C383.114 151.355 382.838 151.619 382.497 151.751C382.157 151.882 381.779 151.87 381.448 151.716L381.053 151.554C381.29 151.716 381.527 151.864 381.764 152.053C381.912 152.16 382.038 152.298 382.132 152.458C382.226 152.617 382.287 152.795 382.31 152.98C382.334 153.165 382.32 153.353 382.269 153.531C382.217 153.71 382.131 153.877 382.014 154.019C381.888 154.195 381.724 154.336 381.534 154.433C381.343 154.529 381.133 154.576 380.921 154.572C380.622 154.571 380.332 154.471 380.092 154.289C379.895 154.127 379.684 154.006 379.487 153.858C379.711 154.087 379.934 154.302 380.145 154.558C380.269 154.695 380.364 154.857 380.424 155.034C380.483 155.21 380.506 155.398 380.492 155.584C380.477 155.77 380.424 155.951 380.337 156.115C380.25 156.28 380.131 156.424 379.987 156.538C379.734 156.751 379.419 156.869 379.092 156.875C378.893 156.878 378.696 156.834 378.516 156.748C378.336 156.662 378.178 156.535 378.052 156.377C377.551 155.787 376.965 155.278 376.315 154.868C376.675 155.157 377.013 155.472 377.329 155.811C377.575 156.086 377.706 156.451 377.691 156.824C377.676 157.198 377.518 157.55 377.25 157.804C376.991 158.036 376.659 158.165 376.315 158.168C376.125 158.173 375.936 158.136 375.761 158.06C375.586 157.983 375.429 157.868 375.302 157.724C374.308 156.677 373.072 155.904 371.709 155.474L369.327 147.608Z" fill="#F5BB95"/>
<path d="M372.985 62.5751C368.274 59.4501 364.957 61.7265 358.653 61.7265C350.218 61.7265 345.493 57.8471 345.019 53.7927C345.824 54.2285 346.712 54.4796 347.621 54.5284C348.53 54.5773 349.439 54.4227 350.284 54.0755C354.837 51.8799 356.745 45.6164 367.602 45.2527C379.789 44.8621 389.014 55.3687 384.342 68.9868C383.026 68.9059 381.342 70.226 380.328 72.3273C379.315 74.4286 379.276 76.9745 380.394 77.8769C375.801 85.2854 366.892 91.953 360.654 91.953C356.916 91.953 355.219 87.4406 353.745 81.864C353.411 80.4304 353.195 78.9705 353.1 77.4998C353.1 77.4998 353.587 76.3548 360.746 76.934C363.751 77.1409 366.709 77.8037 369.524 78.9006C370.437 79.2579 371.436 79.3122 372.381 79.056C373.326 78.7997 374.168 78.2459 374.788 77.4728C375.865 76.2421 376.7 74.8107 377.249 73.2567C378.552 68.8117 375.709 64.3531 372.985 62.5751ZM367.168 82.2816C365.149 81.2634 362.979 80.5943 360.746 80.3015C358.912 80.0751 357.063 80.012 355.219 80.1129C354.271 80.1129 354.6 81.3522 355.363 82.4028C358.364 86.5381 362.707 85.7838 367.287 84.0327C368.274 83.6555 367.826 82.5914 367.208 82.2816H367.168Z" fill="#09003C"/>
<path d="M380.311 72.3277C379.1 74.7927 379.258 77.352 380.64 78.0659C382.022 78.7798 384.128 77.352 385.325 74.887C386.523 72.422 386.391 69.8627 384.996 69.1488C383.601 68.4349 381.509 69.8627 380.311 72.3277Z" fill="#F5BB95"/>
</g>
<defs>
<linearGradient id="paint0_linear_1509_5305" x1="377.327" y1="255.325" x2="255.897" y2="191.992" gradientUnits="userSpaceOnUse">
<stop stop-color="#30338C"/>
<stop offset="0.03" stop-color="#393B90"/>
<stop offset="0.14" stop-color="#50509C"/>
<stop offset="0.27" stop-color="#6361A6"/>
<stop offset="0.42" stop-color="#706CAC"/>
<stop offset="0.61" stop-color="#7873B0"/>
<stop offset="1" stop-color="#7A75B1"/>
</linearGradient>
<linearGradient id="paint1_linear_1509_5305" x1="261.372" y1="369.351" x2="261.372" y2="142.895" gradientUnits="userSpaceOnUse">
<stop stop-color="#9186BB"/>
<stop offset="1" stop-color="#C7C4E1"/>
</linearGradient>
<linearGradient id="paint2_linear_1509_5305" x1="321.368" y1="48.2905" x2="214.754" y2="45.8346" gradientUnits="userSpaceOnUse">
<stop stop-color="#B2B3D7"/>
<stop offset="1" stop-color="#786FAD"/>
</linearGradient>
<linearGradient id="paint3_linear_1509_5305" x1="158.642" y1="303.426" x2="311.098" y2="69.582" gradientUnits="userSpaceOnUse">
<stop stop-color="#E195BF"/>
<stop offset="0.12" stop-color="#B6799B"/>
<stop offset="0.29" stop-color="#7F546C"/>
<stop offset="0.45" stop-color="#523645"/>
<stop offset="0.61" stop-color="#2E1F27"/>
<stop offset="0.76" stop-color="#150E12"/>
<stop offset="0.89" stop-color="#050405"/>
<stop offset="1"/>
</linearGradient>
<linearGradient id="paint4_linear_1509_5305" x1="206.785" y1="353.495" x2="163.039" y2="272.654" gradientUnits="userSpaceOnUse">
<stop stop-color="#30338C"/>
<stop offset="0.84" stop-color="#6E6AAB"/>
<stop offset="1" stop-color="#7A75B1"/>
</linearGradient>
<linearGradient id="paint5_linear_1509_5305" x1="146.586" y1="341.347" x2="187.867" y2="313.14" gradientUnits="userSpaceOnUse">
<stop stop-color="#C7C4E1"/>
<stop offset="1" stop-color="#7768A8"/>
</linearGradient>
<linearGradient id="paint6_linear_1509_5305" x1="181.713" y1="317.514" x2="150.127" y2="336.577" gradientUnits="userSpaceOnUse">
<stop stop-color="#30338C"/>
<stop offset="0.84" stop-color="#6E6AAB"/>
<stop offset="1" stop-color="#7A75B1"/>
</linearGradient>
<linearGradient id="paint7_linear_1509_5305" x1="176.751" y1="371.062" x2="176.751" y2="204.762" gradientUnits="userSpaceOnUse">
<stop stop-color="#E195BF"/>
<stop offset="0.05" stop-color="#C07FA3"/>
<stop offset="0.12" stop-color="#93627D"/>
<stop offset="0.19" stop-color="#6C475B"/>
<stop offset="0.27" stop-color="#4A313F"/>
<stop offset="0.36" stop-color="#2F1F28"/>
<stop offset="0.45" stop-color="#1A1116"/>
<stop offset="0.55" stop-color="#0B080A"/>
<stop offset="0.68" stop-color="#030202"/>
<stop offset="0.87"/>
</linearGradient>
<linearGradient id="paint8_linear_1509_5305" x1="158.775" y1="198.161" x2="115.015" y2="117.307" gradientUnits="userSpaceOnUse">
<stop stop-color="#30338C"/>
<stop offset="0.84" stop-color="#6E6AAB"/>
<stop offset="1" stop-color="#7A75B1"/>
</linearGradient>
<linearGradient id="paint9_linear_1509_5305" x1="98.5637" y1="186.013" x2="139.845" y2="157.806" gradientUnits="userSpaceOnUse">
<stop stop-color="#C7C4E1"/>
<stop offset="1" stop-color="#7768A8"/>
</linearGradient>
<linearGradient id="paint10_linear_1509_5305" x1="133.692" y1="162.179" x2="102.106" y2="181.242" gradientUnits="userSpaceOnUse">
<stop stop-color="#30338C"/>
<stop offset="0.84" stop-color="#6E6AAB"/>
<stop offset="1" stop-color="#7A75B1"/>
</linearGradient>
<linearGradient id="paint11_linear_1509_5305" x1="128.73" y1="215.71" x2="128.73" y2="49.4102" gradientUnits="userSpaceOnUse">
<stop stop-color="#E195BF"/>
<stop offset="0.05" stop-color="#C07FA3"/>
<stop offset="0.12" stop-color="#93627D"/>
<stop offset="0.19" stop-color="#6C475B"/>
<stop offset="0.27" stop-color="#4A313F"/>
<stop offset="0.36" stop-color="#2F1F28"/>
<stop offset="0.45" stop-color="#1A1116"/>
<stop offset="0.55" stop-color="#0B080A"/>
<stop offset="0.68" stop-color="#030202"/>
<stop offset="0.87"/>
</linearGradient>
<linearGradient id="paint12_linear_1509_5305" x1="423.982" y1="370.686" x2="320.398" y2="370.686" gradientUnits="userSpaceOnUse">
<stop stop-color="#742AA7"/>
<stop offset="1" stop-color="#0D3E93"/>
</linearGradient>
<linearGradient id="paint13_linear_1509_5305" x1="409.059" y1="404.703" x2="335.335" y2="404.703" gradientUnits="userSpaceOnUse">
<stop stop-color="#742AA7"/>
<stop offset="1" stop-color="#0D3E93"/>
</linearGradient>
<linearGradient id="paint14_linear_1509_5305" x1="389.777" y1="431.2" x2="354.6" y2="431.2" gradientUnits="userSpaceOnUse">
<stop stop-color="#742AA7"/>
<stop offset="1" stop-color="#0D3E93"/>
</linearGradient>
<linearGradient id="paint15_linear_1509_5305" x1="426.691" y1="369.319" x2="388.27" y2="349.277" gradientUnits="userSpaceOnUse">
<stop stop-color="#30338C"/>
<stop offset="0.84" stop-color="#6E6AAB"/>
<stop offset="1" stop-color="#7A75B1"/>
</linearGradient>
<linearGradient id="paint16_linear_1509_5305" x1="336.924" y1="389.281" x2="336.924" y2="350.946" gradientUnits="userSpaceOnUse">
<stop stop-color="#9186BB"/>
<stop offset="1" stop-color="#C7C4E1"/>
</linearGradient>
<linearGradient id="paint17_linear_1509_5305" x1="441.417" y1="330.766" x2="306.482" y2="327.654" gradientUnits="userSpaceOnUse">
<stop stop-color="#786FAD"/>
<stop offset="1" stop-color="#B2B3D7"/>
</linearGradient>
<clipPath id="clip0_1509_5305">
<rect width="460.8" height="450" fill="white" transform="matrix(-1 0 0 1 461.4 0)"/>
</clipPath>
</defs>
</svg>
